<?xml version="1.0" encoding="UTF-8" standalone="no"?>
<!-- Created with Inkscape (http://www.inkscape.org/) -->

<svg
   xmlns:dc="http://purl.org/dc/elements/1.1/"
   xmlns:cc="http://creativecommons.org/ns#"
   xmlns:rdf="http://www.w3.org/1999/02/22-rdf-syntax-ns#"
   xmlns:svg="http://www.w3.org/2000/svg"
   xmlns="http://www.w3.org/2000/svg"
   xmlns:sodipodi="http://sodipodi.sourceforge.net/DTD/sodipodi-0.dtd"
   xmlns:inkscape="http://www.inkscape.org/namespaces/inkscape"
   width="646.90411"
   height="446.78906"
   viewBox="0 0 646.9041 446.78905"
   id="svg2"
   version="1.1"
   inkscape:version="0.91 r13725"
   sodipodi:docname="Nicht_gleichmäßig_stetige_Funktion.svg">
  <defs
     id="defs4">
    <inkscape:perspective
       sodipodi:type="inkscape:persp3d"
       inkscape:vp_x="0 : 526.18108 : 1"
       inkscape:vp_y="0 : 999.99995 : 0"
       inkscape:vp_z="744.09447 : 526.18108 : 1"
       inkscape:persp3d-origin="372.04723 : 350.78739 : 1"
       id="perspective4650" />
    <inkscape:path-effect
       effect="spiro"
       id="path-effect4646"
       is_visible="true" />
    <marker
       inkscape:stockid="Arrow1Lstart"
       orient="auto"
       refY="0"
       refX="0"
       id="Arrow1Lstart"
       style="overflow:visible"
       inkscape:isstock="true">
      <path
         id="path4144"
         d="M 0,0 5,-5 -12.5,0 5,5 0,0 Z"
         style="fill:#000000;fill-opacity:1;fill-rule:evenodd;stroke:#000000;stroke-width:1pt;stroke-opacity:1"
         transform="matrix(0.8,0,0,0.8,10,0)"
         inkscape:connector-curvature="0" />
    </marker>
    <marker
       inkscape:stockid="Arrow1Lend"
       orient="auto"
       refY="0"
       refX="0"
       id="marker4420"
       style="overflow:visible"
       inkscape:isstock="true">
      <path
         id="path4422"
         d="M 0,0 5,-5 -12.5,0 5,5 0,0 Z"
         style="fill:#000000;fill-opacity:1;fill-rule:evenodd;stroke:#000000;stroke-width:1pt;stroke-opacity:1"
         transform="matrix(-0.8,0,0,-0.8,-10,0)"
         inkscape:connector-curvature="0" />
    </marker>
    <marker
       inkscape:stockid="Arrow1Lend"
       orient="auto"
       refY="0"
       refX="0"
       id="Arrow1Lend"
       style="overflow:visible"
       inkscape:isstock="true">
      <path
         id="path4147"
         d="M 0,0 5,-5 -12.5,0 5,5 0,0 Z"
         style="fill:#000000;fill-opacity:1;fill-rule:evenodd;stroke:#000000;stroke-width:1pt;stroke-opacity:1"
         transform="matrix(-0.8,0,0,-0.8,-10,0)"
         inkscape:connector-curvature="0" />
    </marker>
    <inkscape:path-effect
       is_visible="true"
       id="path-effect2988"
       effect="spiro" />
    <inkscape:path-effect
       is_visible="true"
       id="path-effect2988-1"
       effect="spiro" />
  </defs>
  <sodipodi:namedview
     id="base"
     pagecolor="#ffffff"
     bordercolor="#666666"
     borderopacity="1.0"
     inkscape:pageopacity="0.0"
     inkscape:pageshadow="2"
     inkscape:zoom="0.70429622"
     inkscape:cx="523.88841"
     inkscape:cy="160.81846"
     inkscape:document-units="px"
     inkscape:current-layer="layer1"
     showgrid="false"
     inkscape:snap-text-baseline="true"
     fit-margin-top="20"
     fit-margin-left="20"
     fit-margin-bottom="20"
     fit-margin-right="20"
     inkscape:window-width="1366"
     inkscape:window-height="744"
     inkscape:window-x="0"
     inkscape:window-y="24"
     inkscape:window-maximized="1"
     units="px" />
  <metadata
     id="metadata7">
    <rdf:RDF>
      <cc:Work
         rdf:about="">
        <dc:format>image/svg+xml</dc:format>
        <dc:type
           rdf:resource="http://purl.org/dc/dcmitype/StillImage" />
        <dc:title></dc:title>
      </cc:Work>
    </rdf:RDF>
  </metadata>
  <g
     inkscape:label="Ebene 1"
     inkscape:groupmode="layer"
     id="layer1"
     transform="translate(-46.889946,-98.217167)">
    <g
       id="g5109"
       transform="translate(-92.21682,165.43425)">
      <g
         id="g5111"
         transform="translate(-109.32472,-110.74885)">
        <rect
           y="279.60986"
           x="506.79694"
           height="119.00017"
           width="74.205368"
           id="rect5113"
           style="fill:#f2f2f2;stroke:#000000;stroke-width:0.99982959;stroke-linecap:square;stroke-miterlimit:4;stroke-dasharray:none" />
        <circle
           style="fill:#000000;stroke:#000000;stroke-width:0.27361199;stroke-linecap:square;stroke-miterlimit:4;stroke-dasharray:none"
           id="circle5115"
           cx="543.8996"
           cy="339.10995"
           r="3.363194" />
      </g>
      <g
         transform="matrix(-0.41666667,0,0,-0.5,434.5749,296.3611)"
         id="g5117"
         style="display:inline">
        <g
           id="g5119"
           inkscape:label="vectoriel"
           style="display:inline">
          <path
             sodipodi:nodetypes="zsszczsszcsszzczzszcz"
             inkscape:connector-curvature="0"
             inkscape:original-d="m 50.0087,3.0227061 c 1.292036,0.5024419 4.985995,0.399272 7.550759,0.6849483 1.282382,0.1428382 18.039431,-0.09915 22.426897,-0.020646 4.387466,0.078504 5.444938,0.5434835 6.075969,0.9125736 C 86.693356,4.9686721 90,10 90,10 90,10 88.182447,8.402454 87.576557,8.1974158 86.970666,7.9923776 84.200716,7.0362075 80.107536,6.9734277 76.014356,6.9106479 60.964516,7.0154518 59.816442,6.9528892 57.520294,6.8277642 51.410387,6.1064871 50.134192,5.5698678 48.857997,5.0332484 45,1 45,1 45,1 38.478896,4.5713892 40.032465,5.4662944 40.895198,5.9632565 37.997093,6.5135007 29.962552,7.0265398 21.92801,7.5395789 11.000434,6.893712 10.056424,6.9779241 9.1124136,7.0621362 3.8409013,7.4088488 2.4647757,8.1914576 1.0886501,8.9740664 0,10 0,10 0,10 5.3337905,6.777155 3.9777757,4.5709333 2.6217609,2.3647115 9.6174962,4.4378151 9.9615558,3.5550337 10.305615,2.6722522 24.999056,3.8199992 32.562597,3.4954066 40.126138,3.1708139 39.372095,2.0337056 39.964882,2.9155242 40.55767,3.7973429 42.243915,0.48797044 45,0 c 2.635001,0.50646149 3.716664,2.5202643 5.0087,3.0227061 z"
             inkscape:path-effect="#path-effect2988"
             id="path5121"
             d="m 50.0087,3.0227061 c 2.425745,0.746744 5.012823,0.7122008 7.550759,0.6849483 7.475267,-0.08027 14.951223,-0.039342 22.426897,-0.020646 2.065866,0.00517 4.210218,0.025554 6.075969,0.9125736 C 88.159639,5.5966914 89.691972,7.6982458 90,10 89.307261,9.262159 88.482465,8.6486667 87.576557,8.1974158 85.297754,7.0622986 82.653275,6.9988553 80.107536,6.9734277 73.344129,6.9058728 66.580182,6.9450812 59.816442,6.9528892 56.529683,6.9566834 53.126722,6.929119 50.134192,5.5698678 48.016335,4.607906 46.200968,2.9920752 45,1 43.815115,2.9213533 42.068558,4.4916771 40.032465,5.4662944 36.941889,6.9456618 33.388933,7.0165354 29.962552,7.0265398 23.327154,7.0459139 16.691754,6.9420887 10.056424,6.9779241 7.4704959,6.9918899 4.7850487,7.0497254 2.4647757,8.1914576 1.5457144,8.6436983 0.70717095,9.258984 0,10 0.34151794,7.6910633 1.8791292,5.5924547 3.9777757,4.5709333 5.8118098,3.6782126 7.9223541,3.6028644 9.9615558,3.5550337 17.49377,3.3783611 25.029743,3.3485189 32.562597,3.4954066 35.047171,3.5438548 37.577655,3.6058885 39.964882,2.9155242 41.846492,2.3713797 43.59139,1.3610173 45,0 c 1.390009,1.3953906 3.126297,2.443225 5.0087,3.0227061 z"
             style="fill:#000000;fill-opacity:1;stroke:none" />
        </g>
      </g>
      <g
         transform="matrix(-0.41666667,0,0,-0.5,472.0749,296.3611)"
         id="g5123"
         style="display:inline">
        <g
           id="g5125"
           inkscape:label="vectoriel"
           style="display:inline">
          <path
             sodipodi:nodetypes="zsszczsszcsszzczzszcz"
             inkscape:connector-curvature="0"
             inkscape:original-d="m 50.0087,3.0227061 c 1.292036,0.5024419 4.985995,0.399272 7.550759,0.6849483 1.282382,0.1428382 18.039431,-0.09915 22.426897,-0.020646 4.387466,0.078504 5.444938,0.5434835 6.075969,0.9125736 C 86.693356,4.9686721 90,10 90,10 90,10 88.182447,8.402454 87.576557,8.1974158 86.970666,7.9923776 84.200716,7.0362075 80.107536,6.9734277 76.014356,6.9106479 60.964516,7.0154518 59.816442,6.9528892 57.520294,6.8277642 51.410387,6.1064871 50.134192,5.5698678 48.857997,5.0332484 45,1 45,1 45,1 38.478896,4.5713892 40.032465,5.4662944 40.895198,5.9632565 37.997093,6.5135007 29.962552,7.0265398 21.92801,7.5395789 11.000434,6.893712 10.056424,6.9779241 9.1124136,7.0621362 3.8409013,7.4088488 2.4647757,8.1914576 1.0886501,8.9740664 0,10 0,10 0,10 5.3337905,6.777155 3.9777757,4.5709333 2.6217609,2.3647115 9.6174962,4.4378151 9.9615558,3.5550337 10.305615,2.6722522 24.999056,3.8199992 32.562597,3.4954066 40.126138,3.1708139 39.372095,2.0337056 39.964882,2.9155242 40.55767,3.7973429 42.243915,0.48797044 45,0 c 2.635001,0.50646149 3.716664,2.5202643 5.0087,3.0227061 z"
             inkscape:path-effect="#path-effect2988"
             id="path5127"
             d="m 50.0087,3.0227061 c 2.425745,0.746744 5.012823,0.7122008 7.550759,0.6849483 7.475267,-0.08027 14.951223,-0.039342 22.426897,-0.020646 2.065866,0.00517 4.210218,0.025554 6.075969,0.9125736 C 88.159639,5.5966914 89.691972,7.6982458 90,10 89.307261,9.262159 88.482465,8.6486667 87.576557,8.1974158 85.297754,7.0622986 82.653275,6.9988553 80.107536,6.9734277 73.344129,6.9058728 66.580182,6.9450812 59.816442,6.9528892 56.529683,6.9566834 53.126722,6.929119 50.134192,5.5698678 48.016335,4.607906 46.200968,2.9920752 45,1 43.815115,2.9213533 42.068558,4.4916771 40.032465,5.4662944 36.941889,6.9456618 33.388933,7.0165354 29.962552,7.0265398 23.327154,7.0459139 16.691754,6.9420887 10.056424,6.9779241 7.4704959,6.9918899 4.7850487,7.0497254 2.4647757,8.1914576 1.5457144,8.6436983 0.70717095,9.258984 0,10 0.34151794,7.6910633 1.8791292,5.5924547 3.9777757,4.5709333 5.8118098,3.6782126 7.9223541,3.6028644 9.9615558,3.5550337 17.49377,3.3783611 25.029743,3.3485189 32.562597,3.4954066 35.047171,3.5438548 37.577655,3.6058885 39.964882,2.9155242 41.846492,2.3713797 43.59139,1.3610173 45,0 c 1.390009,1.3953906 3.126297,2.443225 5.0087,3.0227061 z"
             style="fill:#000000;fill-opacity:1;stroke:none" />
        </g>
      </g>
      <g
         transform="matrix(0,-0.66666667,0.5,0,388.97231,288.36109)"
         id="g5129"
         style="display:inline">
        <g
           id="g5131"
           inkscape:label="vectoriel"
           style="display:inline">
          <path
             sodipodi:nodetypes="zsszczsszcsszzczzszcz"
             inkscape:connector-curvature="0"
             inkscape:original-d="m 50.0087,3.0227061 c 1.292036,0.5024419 4.985995,0.399272 7.550759,0.6849483 1.282382,0.1428382 18.039431,-0.09915 22.426897,-0.020646 4.387466,0.078504 5.444938,0.5434835 6.075969,0.9125736 C 86.693356,4.9686721 90,10 90,10 90,10 88.182447,8.402454 87.576557,8.1974158 86.970666,7.9923776 84.200716,7.0362075 80.107536,6.9734277 76.014356,6.9106479 60.964516,7.0154518 59.816442,6.9528892 57.520294,6.8277642 51.410387,6.1064871 50.134192,5.5698678 48.857997,5.0332484 45,1 45,1 45,1 38.478896,4.5713892 40.032465,5.4662944 40.895198,5.9632565 37.997093,6.5135007 29.962552,7.0265398 21.92801,7.5395789 11.000434,6.893712 10.056424,6.9779241 9.1124136,7.0621362 3.8409013,7.4088488 2.4647757,8.1914576 1.0886501,8.9740664 0,10 0,10 0,10 5.3337905,6.777155 3.9777757,4.5709333 2.6217609,2.3647115 9.6174962,4.4378151 9.9615558,3.5550337 10.305615,2.6722522 24.999056,3.8199992 32.562597,3.4954066 40.126138,3.1708139 39.372095,2.0337056 39.964882,2.9155242 40.55767,3.7973429 42.243915,0.48797044 45,0 c 2.635001,0.50646149 3.716664,2.5202643 5.0087,3.0227061 z"
             inkscape:path-effect="#path-effect2988-1"
             id="path5133"
             d="m 50.0087,3.0227061 c 2.425745,0.746744 5.012823,0.7122008 7.550759,0.6849483 7.475267,-0.08027 14.951223,-0.039342 22.426897,-0.020646 2.065866,0.00517 4.210218,0.025554 6.075969,0.9125736 C 88.159639,5.5966914 89.691972,7.6982458 90,10 89.307261,9.262159 88.482465,8.6486667 87.576557,8.1974158 85.297754,7.0622986 82.653275,6.9988553 80.107536,6.9734277 73.344129,6.9058728 66.580182,6.9450812 59.816442,6.9528892 56.529683,6.9566834 53.126722,6.929119 50.134192,5.5698678 48.016335,4.607906 46.200968,2.9920752 45,1 43.815115,2.9213533 42.068558,4.4916771 40.032465,5.4662944 36.941889,6.9456618 33.388933,7.0165354 29.962552,7.0265398 23.327154,7.0459139 16.691754,6.9420887 10.056424,6.9779241 7.4704959,6.9918899 4.7850487,7.0497254 2.4647757,8.1914576 1.5457144,8.6436983 0.70717095,9.258984 0,10 0.34151794,7.6910633 1.8791292,5.5924547 3.9777757,4.5709333 5.8118098,3.6782126 7.9223541,3.6028644 9.9615558,3.5550337 17.49377,3.3783611 25.029743,3.3485189 32.562597,3.4954066 35.047171,3.5438548 37.577655,3.6058885 39.964882,2.9155242 41.846492,2.3713797 43.59139,1.3610173 45,0 c 1.390009,1.3953906 3.126297,2.443225 5.0087,3.0227061 z"
             style="fill:#000000;fill-opacity:1;stroke:none" />
        </g>
      </g>
      <g
         style="display:inline"
         id="g5135"
         transform="matrix(0,-0.66666667,0.5,0,388.97231,228.36109)">
        <g
           style="display:inline"
           inkscape:label="vectoriel"
           id="g5137">
          <path
             style="fill:#000000;fill-opacity:1;stroke:none"
             d="m 50.0087,3.0227061 c 2.425745,0.746744 5.012823,0.7122008 7.550759,0.6849483 7.475267,-0.08027 14.951223,-0.039342 22.426897,-0.020646 2.065866,0.00517 4.210218,0.025554 6.075969,0.9125736 C 88.159639,5.5966914 89.691972,7.6982458 90,10 89.307261,9.262159 88.482465,8.6486667 87.576557,8.1974158 85.297754,7.0622986 82.653275,6.9988553 80.107536,6.9734277 73.344129,6.9058728 66.580182,6.9450812 59.816442,6.9528892 56.529683,6.9566834 53.126722,6.929119 50.134192,5.5698678 48.016335,4.607906 46.200968,2.9920752 45,1 43.815115,2.9213533 42.068558,4.4916771 40.032465,5.4662944 36.941889,6.9456618 33.388933,7.0165354 29.962552,7.0265398 23.327154,7.0459139 16.691754,6.9420887 10.056424,6.9779241 7.4704959,6.9918899 4.7850487,7.0497254 2.4647757,8.1914576 1.5457144,8.6436983 0.70717095,9.258984 0,10 0.34151794,7.6910633 1.8791292,5.5924547 3.9777757,4.5709333 5.8118098,3.6782126 7.9223541,3.6028644 9.9615558,3.5550337 17.49377,3.3783611 25.029743,3.3485189 32.562597,3.4954066 35.047171,3.5438548 37.577655,3.6058885 39.964882,2.9155242 41.846492,2.3713797 43.59139,1.3610173 45,0 c 1.390009,1.3953906 3.126297,2.443225 5.0087,3.0227061 z"
             id="path5139"
             inkscape:path-effect="#path-effect2988-1"
             inkscape:original-d="m 50.0087,3.0227061 c 1.292036,0.5024419 4.985995,0.399272 7.550759,0.6849483 1.282382,0.1428382 18.039431,-0.09915 22.426897,-0.020646 4.387466,0.078504 5.444938,0.5434835 6.075969,0.9125736 C 86.693356,4.9686721 90,10 90,10 90,10 88.182447,8.402454 87.576557,8.1974158 86.970666,7.9923776 84.200716,7.0362075 80.107536,6.9734277 76.014356,6.9106479 60.964516,7.0154518 59.816442,6.9528892 57.520294,6.8277642 51.410387,6.1064871 50.134192,5.5698678 48.857997,5.0332484 45,1 45,1 45,1 38.478896,4.5713892 40.032465,5.4662944 40.895198,5.9632565 37.997093,6.5135007 29.962552,7.0265398 21.92801,7.5395789 11.000434,6.893712 10.056424,6.9779241 9.1124136,7.0621362 3.8409013,7.4088488 2.4647757,8.1914576 1.0886501,8.9740664 0,10 0,10 0,10 5.3337905,6.777155 3.9777757,4.5709333 2.6217609,2.3647115 9.6174962,4.4378151 9.9615558,3.5550337 10.305615,2.6722522 24.999056,3.8199992 32.562597,3.4954066 40.126138,3.1708139 39.372095,2.0337056 39.964882,2.9155242 40.55767,3.7973429 42.243915,0.48797044 45,0 c 2.635001,0.50646149 3.716664,2.5202643 5.0087,3.0227061 z"
             inkscape:connector-curvature="0"
             sodipodi:nodetypes="zsszczsszcsszzczzszcz" />
        </g>
      </g>
      <g
         inkscape:transform-center-y="36.882565"
         inkscape:transform-center-x="-42.783778"
         transform="matrix(0.57079157,0,0,0.57079157,137.12985,93.035007)"
         id="g5141"
         style="font-style:normal;font-weight:normal;font-size:40px;line-height:125%;font-family:sans-serif;letter-spacing:0px;word-spacing:0px;fill:#000000;fill-opacity:1;stroke:none;stroke-width:1px;stroke-linecap:butt;stroke-linejoin:miter;stroke-opacity:1">
        <path
           inkscape:connector-curvature="0"
           id="path5143"
           d="m 434.35928,299.31149 q -2.08984,0.9375 -4.10156,1.34766 -2.01172,0.41016 -4.25781,0.41016 -1.54297,0 -3.14453,-0.3125 -1.60157,-0.3125 -2.96875,-1.09375 -1.34766,-0.76172 -2.20703,-1.99219 -0.83985,-1.25 -0.83985,-3.08594 0,-1.875 1.09375,-3.28125 1.11328,-1.40625 3.47656,-2.14844 l 0,-0.13672 q -1.77734,-0.46875 -2.83203,-1.75781 -1.05468,-1.28906 -1.05468,-3.08594 0,-1.73828 0.91796,-2.87109 0.9375,-1.15234 2.20704,-1.81641 1.25,-0.64453 2.83203,-0.95703 1.58203,-0.3125 3.125,-0.3125 1.91406,0 3.51562,0.33203 1.60156,0.3125 3.35938,0.85938 l 0,4.04297 -0.25391,0 q -1.28906,-0.9961 -3.20312,-1.54297 -1.89454,-0.54688 -3.84766,-0.54688 -0.87891,0 -1.64063,0.11719 -0.76171,0.0977 -1.58203,0.48828 -0.68359,0.29297 -1.1914,0.95703 -0.48828,0.64454 -0.48828,1.50391 0,1.19141 0.54687,1.85547 0.54688,0.66406 1.48438,0.95703 0.8789,0.27344 1.89453,0.3125 1.01562,0.0195 2.05078,0.0195 l 2.16797,0 0,3.24219 -3.08594,0 q -1.21094,0 -2.1875,0.0977 -0.97656,0.0781 -1.79688,0.41015 -0.80078,0.33203 -1.28906,1.05469 -0.46875,0.72266 -0.46875,1.875 0,1.03516 0.50781,1.75781 0.50782,0.72266 1.3086,1.13281 0.72265,0.3711 1.69922,0.56641 0.99609,0.19531 2.08984,0.19531 1.99219,0 4.25781,-0.70312 2.26563,-0.70313 3.65235,-1.91406 l 0.2539,0 0,4.02343 z" />
      </g>
      <text
         sodipodi:linespacing="125%"
         id="text5145"
         y="316.26938"
         x="446.69614"
         style="font-style:normal;font-weight:normal;font-size:21.80832481px;line-height:125%;font-family:sans-serif;letter-spacing:0px;word-spacing:0px;fill:#000000;fill-opacity:1;stroke:none;stroke-width:1px;stroke-linecap:butt;stroke-linejoin:miter;stroke-opacity:1"
         xml:space="preserve"><tspan
           y="316.26938"
           x="446.69614"
           id="tspan5147"
           sodipodi:role="line">δ</tspan></text>
      <g
         style="font-style:normal;font-weight:normal;font-size:40px;line-height:125%;font-family:sans-serif;letter-spacing:0px;word-spacing:0px;fill:#000000;fill-opacity:1;stroke:none;stroke-width:1px;stroke-linecap:butt;stroke-linejoin:miter;stroke-opacity:1"
         id="g5149"
         transform="matrix(0.57079157,0,0,0.57079157,137.12985,33.035007)"
         inkscape:transform-center-x="-42.783778"
         inkscape:transform-center-y="36.882565">
        <path
           d="m 434.35928,299.31149 q -2.08984,0.9375 -4.10156,1.34766 -2.01172,0.41016 -4.25781,0.41016 -1.54297,0 -3.14453,-0.3125 -1.60157,-0.3125 -2.96875,-1.09375 -1.34766,-0.76172 -2.20703,-1.99219 -0.83985,-1.25 -0.83985,-3.08594 0,-1.875 1.09375,-3.28125 1.11328,-1.40625 3.47656,-2.14844 l 0,-0.13672 q -1.77734,-0.46875 -2.83203,-1.75781 -1.05468,-1.28906 -1.05468,-3.08594 0,-1.73828 0.91796,-2.87109 0.9375,-1.15234 2.20704,-1.81641 1.25,-0.64453 2.83203,-0.95703 1.58203,-0.3125 3.125,-0.3125 1.91406,0 3.51562,0.33203 1.60156,0.3125 3.35938,0.85938 l 0,4.04297 -0.25391,0 q -1.28906,-0.9961 -3.20312,-1.54297 -1.89454,-0.54688 -3.84766,-0.54688 -0.87891,0 -1.64063,0.11719 -0.76171,0.0977 -1.58203,0.48828 -0.68359,0.29297 -1.1914,0.95703 -0.48828,0.64454 -0.48828,1.50391 0,1.19141 0.54687,1.85547 0.54688,0.66406 1.48438,0.95703 0.8789,0.27344 1.89453,0.3125 1.01562,0.0195 2.05078,0.0195 l 2.16797,0 0,3.24219 -3.08594,0 q -1.21094,0 -2.1875,0.0977 -0.97656,0.0781 -1.79688,0.41015 -0.80078,0.33203 -1.28906,1.05469 -0.46875,0.72266 -0.46875,1.875 0,1.03516 0.50781,1.75781 0.50782,0.72266 1.3086,1.13281 0.72265,0.3711 1.69922,0.56641 0.99609,0.19531 2.08984,0.19531 1.99219,0 4.25781,-0.70312 2.26563,-0.70313 3.65235,-1.91406 l 0.2539,0 0,4.02343 z"
           id="path5151"
           inkscape:connector-curvature="0" />
      </g>
      <text
         xml:space="preserve"
         style="font-style:normal;font-weight:normal;font-size:21.80832481px;line-height:125%;font-family:sans-serif;letter-spacing:0px;word-spacing:0px;fill:#000000;fill-opacity:1;stroke:none;stroke-width:1px;stroke-linecap:butt;stroke-linejoin:miter;stroke-opacity:1"
         x="409.19614"
         y="316.26938"
         id="text5153"
         sodipodi:linespacing="125%"><tspan
           sodipodi:role="line"
           id="tspan5155"
           x="409.19614"
           y="316.26938">δ</tspan></text>
    </g>
    <g
       transform="translate(-275.9471,197.05996)"
       id="g5008">
      <g
         transform="translate(-109.32472,-110.74885)"
         id="g5010">
        <rect
           style="fill:#f2f2f2;stroke:#000000;stroke-width:0.99982959;stroke-linecap:square;stroke-miterlimit:4;stroke-dasharray:none"
           id="rect5012"
           width="74.205368"
           height="119.00017"
           x="506.79694"
           y="279.60986" />
        <circle
           r="3.363194"
           cy="339.10995"
           cx="543.8996"
           id="circle5014"
           style="fill:#000000;stroke:#000000;stroke-width:0.27361199;stroke-linecap:square;stroke-miterlimit:4;stroke-dasharray:none" />
      </g>
      <g
         style="display:inline"
         id="g5016"
         transform="matrix(-0.41666667,0,0,-0.5,434.5749,296.3611)">
        <g
           style="display:inline"
           inkscape:label="vectoriel"
           id="g5018">
          <path
             style="fill:#000000;fill-opacity:1;stroke:none"
             d="m 50.0087,3.0227061 c 2.425745,0.746744 5.012823,0.7122008 7.550759,0.6849483 7.475267,-0.08027 14.951223,-0.039342 22.426897,-0.020646 2.065866,0.00517 4.210218,0.025554 6.075969,0.9125736 C 88.159639,5.5966914 89.691972,7.6982458 90,10 89.307261,9.262159 88.482465,8.6486667 87.576557,8.1974158 85.297754,7.0622986 82.653275,6.9988553 80.107536,6.9734277 73.344129,6.9058728 66.580182,6.9450812 59.816442,6.9528892 56.529683,6.9566834 53.126722,6.929119 50.134192,5.5698678 48.016335,4.607906 46.200968,2.9920752 45,1 43.815115,2.9213533 42.068558,4.4916771 40.032465,5.4662944 36.941889,6.9456618 33.388933,7.0165354 29.962552,7.0265398 23.327154,7.0459139 16.691754,6.9420887 10.056424,6.9779241 7.4704959,6.9918899 4.7850487,7.0497254 2.4647757,8.1914576 1.5457144,8.6436983 0.70717095,9.258984 0,10 0.34151794,7.6910633 1.8791292,5.5924547 3.9777757,4.5709333 5.8118098,3.6782126 7.9223541,3.6028644 9.9615558,3.5550337 17.49377,3.3783611 25.029743,3.3485189 32.562597,3.4954066 35.047171,3.5438548 37.577655,3.6058885 39.964882,2.9155242 41.846492,2.3713797 43.59139,1.3610173 45,0 c 1.390009,1.3953906 3.126297,2.443225 5.0087,3.0227061 z"
             id="path5020"
             inkscape:path-effect="#path-effect2988"
             inkscape:original-d="m 50.0087,3.0227061 c 1.292036,0.5024419 4.985995,0.399272 7.550759,0.6849483 1.282382,0.1428382 18.039431,-0.09915 22.426897,-0.020646 4.387466,0.078504 5.444938,0.5434835 6.075969,0.9125736 C 86.693356,4.9686721 90,10 90,10 90,10 88.182447,8.402454 87.576557,8.1974158 86.970666,7.9923776 84.200716,7.0362075 80.107536,6.9734277 76.014356,6.9106479 60.964516,7.0154518 59.816442,6.9528892 57.520294,6.8277642 51.410387,6.1064871 50.134192,5.5698678 48.857997,5.0332484 45,1 45,1 45,1 38.478896,4.5713892 40.032465,5.4662944 40.895198,5.9632565 37.997093,6.5135007 29.962552,7.0265398 21.92801,7.5395789 11.000434,6.893712 10.056424,6.9779241 9.1124136,7.0621362 3.8409013,7.4088488 2.4647757,8.1914576 1.0886501,8.9740664 0,10 0,10 0,10 5.3337905,6.777155 3.9777757,4.5709333 2.6217609,2.3647115 9.6174962,4.4378151 9.9615558,3.5550337 10.305615,2.6722522 24.999056,3.8199992 32.562597,3.4954066 40.126138,3.1708139 39.372095,2.0337056 39.964882,2.9155242 40.55767,3.7973429 42.243915,0.48797044 45,0 c 2.635001,0.50646149 3.716664,2.5202643 5.0087,3.0227061 z"
             inkscape:connector-curvature="0"
             sodipodi:nodetypes="zsszczsszcsszzczzszcz" />
        </g>
      </g>
      <g
         style="display:inline"
         id="g5022"
         transform="matrix(-0.41666667,0,0,-0.5,472.0749,296.3611)">
        <g
           style="display:inline"
           inkscape:label="vectoriel"
           id="g5024">
          <path
             style="fill:#000000;fill-opacity:1;stroke:none"
             d="m 50.0087,3.0227061 c 2.425745,0.746744 5.012823,0.7122008 7.550759,0.6849483 7.475267,-0.08027 14.951223,-0.039342 22.426897,-0.020646 2.065866,0.00517 4.210218,0.025554 6.075969,0.9125736 C 88.159639,5.5966914 89.691972,7.6982458 90,10 89.307261,9.262159 88.482465,8.6486667 87.576557,8.1974158 85.297754,7.0622986 82.653275,6.9988553 80.107536,6.9734277 73.344129,6.9058728 66.580182,6.9450812 59.816442,6.9528892 56.529683,6.9566834 53.126722,6.929119 50.134192,5.5698678 48.016335,4.607906 46.200968,2.9920752 45,1 43.815115,2.9213533 42.068558,4.4916771 40.032465,5.4662944 36.941889,6.9456618 33.388933,7.0165354 29.962552,7.0265398 23.327154,7.0459139 16.691754,6.9420887 10.056424,6.9779241 7.4704959,6.9918899 4.7850487,7.0497254 2.4647757,8.1914576 1.5457144,8.6436983 0.70717095,9.258984 0,10 0.34151794,7.6910633 1.8791292,5.5924547 3.9777757,4.5709333 5.8118098,3.6782126 7.9223541,3.6028644 9.9615558,3.5550337 17.49377,3.3783611 25.029743,3.3485189 32.562597,3.4954066 35.047171,3.5438548 37.577655,3.6058885 39.964882,2.9155242 41.846492,2.3713797 43.59139,1.3610173 45,0 c 1.390009,1.3953906 3.126297,2.443225 5.0087,3.0227061 z"
             id="path5026"
             inkscape:path-effect="#path-effect2988"
             inkscape:original-d="m 50.0087,3.0227061 c 1.292036,0.5024419 4.985995,0.399272 7.550759,0.6849483 1.282382,0.1428382 18.039431,-0.09915 22.426897,-0.020646 4.387466,0.078504 5.444938,0.5434835 6.075969,0.9125736 C 86.693356,4.9686721 90,10 90,10 90,10 88.182447,8.402454 87.576557,8.1974158 86.970666,7.9923776 84.200716,7.0362075 80.107536,6.9734277 76.014356,6.9106479 60.964516,7.0154518 59.816442,6.9528892 57.520294,6.8277642 51.410387,6.1064871 50.134192,5.5698678 48.857997,5.0332484 45,1 45,1 45,1 38.478896,4.5713892 40.032465,5.4662944 40.895198,5.9632565 37.997093,6.5135007 29.962552,7.0265398 21.92801,7.5395789 11.000434,6.893712 10.056424,6.9779241 9.1124136,7.0621362 3.8409013,7.4088488 2.4647757,8.1914576 1.0886501,8.9740664 0,10 0,10 0,10 5.3337905,6.777155 3.9777757,4.5709333 2.6217609,2.3647115 9.6174962,4.4378151 9.9615558,3.5550337 10.305615,2.6722522 24.999056,3.8199992 32.562597,3.4954066 40.126138,3.1708139 39.372095,2.0337056 39.964882,2.9155242 40.55767,3.7973429 42.243915,0.48797044 45,0 c 2.635001,0.50646149 3.716664,2.5202643 5.0087,3.0227061 z"
             inkscape:connector-curvature="0"
             sodipodi:nodetypes="zsszczsszcsszzczzszcz" />
        </g>
      </g>
      <g
         style="display:inline"
         id="g5028"
         transform="matrix(0,-0.66666667,0.5,0,388.97231,288.36109)">
        <g
           style="display:inline"
           inkscape:label="vectoriel"
           id="g5030">
          <path
             style="fill:#000000;fill-opacity:1;stroke:none"
             d="m 50.0087,3.0227061 c 2.425745,0.746744 5.012823,0.7122008 7.550759,0.6849483 7.475267,-0.08027 14.951223,-0.039342 22.426897,-0.020646 2.065866,0.00517 4.210218,0.025554 6.075969,0.9125736 C 88.159639,5.5966914 89.691972,7.6982458 90,10 89.307261,9.262159 88.482465,8.6486667 87.576557,8.1974158 85.297754,7.0622986 82.653275,6.9988553 80.107536,6.9734277 73.344129,6.9058728 66.580182,6.9450812 59.816442,6.9528892 56.529683,6.9566834 53.126722,6.929119 50.134192,5.5698678 48.016335,4.607906 46.200968,2.9920752 45,1 43.815115,2.9213533 42.068558,4.4916771 40.032465,5.4662944 36.941889,6.9456618 33.388933,7.0165354 29.962552,7.0265398 23.327154,7.0459139 16.691754,6.9420887 10.056424,6.9779241 7.4704959,6.9918899 4.7850487,7.0497254 2.4647757,8.1914576 1.5457144,8.6436983 0.70717095,9.258984 0,10 0.34151794,7.6910633 1.8791292,5.5924547 3.9777757,4.5709333 5.8118098,3.6782126 7.9223541,3.6028644 9.9615558,3.5550337 17.49377,3.3783611 25.029743,3.3485189 32.562597,3.4954066 35.047171,3.5438548 37.577655,3.6058885 39.964882,2.9155242 41.846492,2.3713797 43.59139,1.3610173 45,0 c 1.390009,1.3953906 3.126297,2.443225 5.0087,3.0227061 z"
             id="path5032"
             inkscape:path-effect="#path-effect2988-1"
             inkscape:original-d="m 50.0087,3.0227061 c 1.292036,0.5024419 4.985995,0.399272 7.550759,0.6849483 1.282382,0.1428382 18.039431,-0.09915 22.426897,-0.020646 4.387466,0.078504 5.444938,0.5434835 6.075969,0.9125736 C 86.693356,4.9686721 90,10 90,10 90,10 88.182447,8.402454 87.576557,8.1974158 86.970666,7.9923776 84.200716,7.0362075 80.107536,6.9734277 76.014356,6.9106479 60.964516,7.0154518 59.816442,6.9528892 57.520294,6.8277642 51.410387,6.1064871 50.134192,5.5698678 48.857997,5.0332484 45,1 45,1 45,1 38.478896,4.5713892 40.032465,5.4662944 40.895198,5.9632565 37.997093,6.5135007 29.962552,7.0265398 21.92801,7.5395789 11.000434,6.893712 10.056424,6.9779241 9.1124136,7.0621362 3.8409013,7.4088488 2.4647757,8.1914576 1.0886501,8.9740664 0,10 0,10 0,10 5.3337905,6.777155 3.9777757,4.5709333 2.6217609,2.3647115 9.6174962,4.4378151 9.9615558,3.5550337 10.305615,2.6722522 24.999056,3.8199992 32.562597,3.4954066 40.126138,3.1708139 39.372095,2.0337056 39.964882,2.9155242 40.55767,3.7973429 42.243915,0.48797044 45,0 c 2.635001,0.50646149 3.716664,2.5202643 5.0087,3.0227061 z"
             inkscape:connector-curvature="0"
             sodipodi:nodetypes="zsszczsszcsszzczzszcz" />
        </g>
      </g>
      <g
         transform="matrix(0,-0.66666667,0.5,0,388.97231,228.36109)"
         id="g5034"
         style="display:inline">
        <g
           id="g5036"
           inkscape:label="vectoriel"
           style="display:inline">
          <path
             sodipodi:nodetypes="zsszczsszcsszzczzszcz"
             inkscape:connector-curvature="0"
             inkscape:original-d="m 50.0087,3.0227061 c 1.292036,0.5024419 4.985995,0.399272 7.550759,0.6849483 1.282382,0.1428382 18.039431,-0.09915 22.426897,-0.020646 4.387466,0.078504 5.444938,0.5434835 6.075969,0.9125736 C 86.693356,4.9686721 90,10 90,10 90,10 88.182447,8.402454 87.576557,8.1974158 86.970666,7.9923776 84.200716,7.0362075 80.107536,6.9734277 76.014356,6.9106479 60.964516,7.0154518 59.816442,6.9528892 57.520294,6.8277642 51.410387,6.1064871 50.134192,5.5698678 48.857997,5.0332484 45,1 45,1 45,1 38.478896,4.5713892 40.032465,5.4662944 40.895198,5.9632565 37.997093,6.5135007 29.962552,7.0265398 21.92801,7.5395789 11.000434,6.893712 10.056424,6.9779241 9.1124136,7.0621362 3.8409013,7.4088488 2.4647757,8.1914576 1.0886501,8.9740664 0,10 0,10 0,10 5.3337905,6.777155 3.9777757,4.5709333 2.6217609,2.3647115 9.6174962,4.4378151 9.9615558,3.5550337 10.305615,2.6722522 24.999056,3.8199992 32.562597,3.4954066 40.126138,3.1708139 39.372095,2.0337056 39.964882,2.9155242 40.55767,3.7973429 42.243915,0.48797044 45,0 c 2.635001,0.50646149 3.716664,2.5202643 5.0087,3.0227061 z"
             inkscape:path-effect="#path-effect2988-1"
             id="path5038"
             d="m 50.0087,3.0227061 c 2.425745,0.746744 5.012823,0.7122008 7.550759,0.6849483 7.475267,-0.08027 14.951223,-0.039342 22.426897,-0.020646 2.065866,0.00517 4.210218,0.025554 6.075969,0.9125736 C 88.159639,5.5966914 89.691972,7.6982458 90,10 89.307261,9.262159 88.482465,8.6486667 87.576557,8.1974158 85.297754,7.0622986 82.653275,6.9988553 80.107536,6.9734277 73.344129,6.9058728 66.580182,6.9450812 59.816442,6.9528892 56.529683,6.9566834 53.126722,6.929119 50.134192,5.5698678 48.016335,4.607906 46.200968,2.9920752 45,1 43.815115,2.9213533 42.068558,4.4916771 40.032465,5.4662944 36.941889,6.9456618 33.388933,7.0165354 29.962552,7.0265398 23.327154,7.0459139 16.691754,6.9420887 10.056424,6.9779241 7.4704959,6.9918899 4.7850487,7.0497254 2.4647757,8.1914576 1.5457144,8.6436983 0.70717095,9.258984 0,10 0.34151794,7.6910633 1.8791292,5.5924547 3.9777757,4.5709333 5.8118098,3.6782126 7.9223541,3.6028644 9.9615558,3.5550337 17.49377,3.3783611 25.029743,3.3485189 32.562597,3.4954066 35.047171,3.5438548 37.577655,3.6058885 39.964882,2.9155242 41.846492,2.3713797 43.59139,1.3610173 45,0 c 1.390009,1.3953906 3.126297,2.443225 5.0087,3.0227061 z"
             style="fill:#000000;fill-opacity:1;stroke:none" />
        </g>
      </g>
      <g
         style="font-style:normal;font-weight:normal;font-size:40px;line-height:125%;font-family:sans-serif;letter-spacing:0px;word-spacing:0px;fill:#000000;fill-opacity:1;stroke:none;stroke-width:1px;stroke-linecap:butt;stroke-linejoin:miter;stroke-opacity:1"
         id="g5040"
         transform="matrix(0.57079157,0,0,0.57079157,137.12985,93.035007)"
         inkscape:transform-center-x="-42.783778"
         inkscape:transform-center-y="36.882565">
        <path
           d="m 434.35928,299.31149 q -2.08984,0.9375 -4.10156,1.34766 -2.01172,0.41016 -4.25781,0.41016 -1.54297,0 -3.14453,-0.3125 -1.60157,-0.3125 -2.96875,-1.09375 -1.34766,-0.76172 -2.20703,-1.99219 -0.83985,-1.25 -0.83985,-3.08594 0,-1.875 1.09375,-3.28125 1.11328,-1.40625 3.47656,-2.14844 l 0,-0.13672 q -1.77734,-0.46875 -2.83203,-1.75781 -1.05468,-1.28906 -1.05468,-3.08594 0,-1.73828 0.91796,-2.87109 0.9375,-1.15234 2.20704,-1.81641 1.25,-0.64453 2.83203,-0.95703 1.58203,-0.3125 3.125,-0.3125 1.91406,0 3.51562,0.33203 1.60156,0.3125 3.35938,0.85938 l 0,4.04297 -0.25391,0 q -1.28906,-0.9961 -3.20312,-1.54297 -1.89454,-0.54688 -3.84766,-0.54688 -0.87891,0 -1.64063,0.11719 -0.76171,0.0977 -1.58203,0.48828 -0.68359,0.29297 -1.1914,0.95703 -0.48828,0.64454 -0.48828,1.50391 0,1.19141 0.54687,1.85547 0.54688,0.66406 1.48438,0.95703 0.8789,0.27344 1.89453,0.3125 1.01562,0.0195 2.05078,0.0195 l 2.16797,0 0,3.24219 -3.08594,0 q -1.21094,0 -2.1875,0.0977 -0.97656,0.0781 -1.79688,0.41015 -0.80078,0.33203 -1.28906,1.05469 -0.46875,0.72266 -0.46875,1.875 0,1.03516 0.50781,1.75781 0.50782,0.72266 1.3086,1.13281 0.72265,0.3711 1.69922,0.56641 0.99609,0.19531 2.08984,0.19531 1.99219,0 4.25781,-0.70312 2.26563,-0.70313 3.65235,-1.91406 l 0.2539,0 0,4.02343 z"
           id="path5042"
           inkscape:connector-curvature="0" />
      </g>
      <text
         xml:space="preserve"
         style="font-style:normal;font-weight:normal;font-size:21.80832481px;line-height:125%;font-family:sans-serif;letter-spacing:0px;word-spacing:0px;fill:#000000;fill-opacity:1;stroke:none;stroke-width:1px;stroke-linecap:butt;stroke-linejoin:miter;stroke-opacity:1"
         x="446.69614"
         y="316.26938"
         id="text5044"
         sodipodi:linespacing="125%"><tspan
           sodipodi:role="line"
           id="tspan5046"
           x="446.69614"
           y="316.26938">δ</tspan></text>
      <g
         inkscape:transform-center-y="36.882565"
         inkscape:transform-center-x="-42.783778"
         transform="matrix(0.57079157,0,0,0.57079157,137.12985,33.035007)"
         id="g5048"
         style="font-style:normal;font-weight:normal;font-size:40px;line-height:125%;font-family:sans-serif;letter-spacing:0px;word-spacing:0px;fill:#000000;fill-opacity:1;stroke:none;stroke-width:1px;stroke-linecap:butt;stroke-linejoin:miter;stroke-opacity:1">
        <path
           inkscape:connector-curvature="0"
           id="path5050"
           d="m 434.35928,299.31149 q -2.08984,0.9375 -4.10156,1.34766 -2.01172,0.41016 -4.25781,0.41016 -1.54297,0 -3.14453,-0.3125 -1.60157,-0.3125 -2.96875,-1.09375 -1.34766,-0.76172 -2.20703,-1.99219 -0.83985,-1.25 -0.83985,-3.08594 0,-1.875 1.09375,-3.28125 1.11328,-1.40625 3.47656,-2.14844 l 0,-0.13672 q -1.77734,-0.46875 -2.83203,-1.75781 -1.05468,-1.28906 -1.05468,-3.08594 0,-1.73828 0.91796,-2.87109 0.9375,-1.15234 2.20704,-1.81641 1.25,-0.64453 2.83203,-0.95703 1.58203,-0.3125 3.125,-0.3125 1.91406,0 3.51562,0.33203 1.60156,0.3125 3.35938,0.85938 l 0,4.04297 -0.25391,0 q -1.28906,-0.9961 -3.20312,-1.54297 -1.89454,-0.54688 -3.84766,-0.54688 -0.87891,0 -1.64063,0.11719 -0.76171,0.0977 -1.58203,0.48828 -0.68359,0.29297 -1.1914,0.95703 -0.48828,0.64454 -0.48828,1.50391 0,1.19141 0.54687,1.85547 0.54688,0.66406 1.48438,0.95703 0.8789,0.27344 1.89453,0.3125 1.01562,0.0195 2.05078,0.0195 l 2.16797,0 0,3.24219 -3.08594,0 q -1.21094,0 -2.1875,0.0977 -0.97656,0.0781 -1.79688,0.41015 -0.80078,0.33203 -1.28906,1.05469 -0.46875,0.72266 -0.46875,1.875 0,1.03516 0.50781,1.75781 0.50782,0.72266 1.3086,1.13281 0.72265,0.3711 1.69922,0.56641 0.99609,0.19531 2.08984,0.19531 1.99219,0 4.25781,-0.70312 2.26563,-0.70313 3.65235,-1.91406 l 0.2539,0 0,4.02343 z" />
      </g>
      <text
         sodipodi:linespacing="125%"
         id="text5052"
         y="316.26938"
         x="409.19614"
         style="font-style:normal;font-weight:normal;font-size:21.80832481px;line-height:125%;font-family:sans-serif;letter-spacing:0px;word-spacing:0px;fill:#000000;fill-opacity:1;stroke:none;stroke-width:1px;stroke-linecap:butt;stroke-linejoin:miter;stroke-opacity:1"
         xml:space="preserve"><tspan
           y="316.26938"
           x="409.19614"
           id="tspan5054"
           sodipodi:role="line">δ</tspan></text>
    </g>
    <g
       id="g5083"
       transform="translate(-4.2595713,-2.8397142)">
      <rect
         style="fill:#f2f2f2;stroke:#000000;stroke-width:0.99982959;stroke-linecap:square;stroke-miterlimit:4;stroke-dasharray:none"
         id="rect4668"
         width="74.205368"
         height="119.00017"
         x="500.41187"
         y="183.05959" />
      <circle
         r="3.363194"
         cy="242.55968"
         cx="537.51453"
         id="path4678"
         style="fill:#000000;stroke:#000000;stroke-width:0.27361199;stroke-linecap:square;stroke-miterlimit:4;stroke-dasharray:none" />
      <g
         transform="matrix(-0.41666667,0,0,-0.5,537.51454,310.55967)"
         id="g4775"
         style="display:inline">
        <g
           id="layer2"
           inkscape:label="vectoriel"
           style="display:inline">
          <path
             sodipodi:nodetypes="zsszczsszcsszzczzszcz"
             inkscape:connector-curvature="0"
             inkscape:original-d="m 50.0087,3.0227061 c 1.292036,0.5024419 4.985995,0.399272 7.550759,0.6849483 1.282382,0.1428382 18.039431,-0.09915 22.426897,-0.020646 4.387466,0.078504 5.444938,0.5434835 6.075969,0.9125736 C 86.693356,4.9686721 90,10 90,10 90,10 88.182447,8.402454 87.576557,8.1974158 86.970666,7.9923776 84.200716,7.0362075 80.107536,6.9734277 76.014356,6.9106479 60.964516,7.0154518 59.816442,6.9528892 57.520294,6.8277642 51.410387,6.1064871 50.134192,5.5698678 48.857997,5.0332484 45,1 45,1 45,1 38.478896,4.5713892 40.032465,5.4662944 40.895198,5.9632565 37.997093,6.5135007 29.962552,7.0265398 21.92801,7.5395789 11.000434,6.893712 10.056424,6.9779241 9.1124136,7.0621362 3.8409013,7.4088488 2.4647757,8.1914576 1.0886501,8.9740664 0,10 0,10 0,10 5.3337905,6.777155 3.9777757,4.5709333 2.6217609,2.3647115 9.6174962,4.4378151 9.9615558,3.5550337 10.305615,2.6722522 24.999056,3.8199992 32.562597,3.4954066 40.126138,3.1708139 39.372095,2.0337056 39.964882,2.9155242 40.55767,3.7973429 42.243915,0.48797044 45,0 c 2.635001,0.50646149 3.716664,2.5202643 5.0087,3.0227061 z"
             inkscape:path-effect="#path-effect2988"
             id="path3774"
             d="m 50.0087,3.0227061 c 2.425745,0.746744 5.012823,0.7122008 7.550759,0.6849483 7.475267,-0.08027 14.951223,-0.039342 22.426897,-0.020646 2.065866,0.00517 4.210218,0.025554 6.075969,0.9125736 C 88.159639,5.5966914 89.691972,7.6982458 90,10 89.307261,9.262159 88.482465,8.6486667 87.576557,8.1974158 85.297754,7.0622986 82.653275,6.9988553 80.107536,6.9734277 73.344129,6.9058728 66.580182,6.9450812 59.816442,6.9528892 56.529683,6.9566834 53.126722,6.929119 50.134192,5.5698678 48.016335,4.607906 46.200968,2.9920752 45,1 43.815115,2.9213533 42.068558,4.4916771 40.032465,5.4662944 36.941889,6.9456618 33.388933,7.0165354 29.962552,7.0265398 23.327154,7.0459139 16.691754,6.9420887 10.056424,6.9779241 7.4704959,6.9918899 4.7850487,7.0497254 2.4647757,8.1914576 1.5457144,8.6436983 0.70717095,9.258984 0,10 0.34151794,7.6910633 1.8791292,5.5924547 3.9777757,4.5709333 5.8118098,3.6782126 7.9223541,3.6028644 9.9615558,3.5550337 17.49377,3.3783611 25.029743,3.3485189 32.562597,3.4954066 35.047171,3.5438548 37.577655,3.6058885 39.964882,2.9155242 41.846492,2.3713797 43.59139,1.3610173 45,0 c 1.390009,1.3953906 3.126297,2.443225 5.0087,3.0227061 z"
             style="fill:#000000;fill-opacity:1;stroke:none" />
        </g>
      </g>
      <g
         transform="matrix(-0.41666667,0,0,-0.5,575.01454,310.55967)"
         id="g4818"
         style="display:inline">
        <g
           id="g4820"
           inkscape:label="vectoriel"
           style="display:inline">
          <path
             sodipodi:nodetypes="zsszczsszcsszzczzszcz"
             inkscape:connector-curvature="0"
             inkscape:original-d="m 50.0087,3.0227061 c 1.292036,0.5024419 4.985995,0.399272 7.550759,0.6849483 1.282382,0.1428382 18.039431,-0.09915 22.426897,-0.020646 4.387466,0.078504 5.444938,0.5434835 6.075969,0.9125736 C 86.693356,4.9686721 90,10 90,10 90,10 88.182447,8.402454 87.576557,8.1974158 86.970666,7.9923776 84.200716,7.0362075 80.107536,6.9734277 76.014356,6.9106479 60.964516,7.0154518 59.816442,6.9528892 57.520294,6.8277642 51.410387,6.1064871 50.134192,5.5698678 48.857997,5.0332484 45,1 45,1 45,1 38.478896,4.5713892 40.032465,5.4662944 40.895198,5.9632565 37.997093,6.5135007 29.962552,7.0265398 21.92801,7.5395789 11.000434,6.893712 10.056424,6.9779241 9.1124136,7.0621362 3.8409013,7.4088488 2.4647757,8.1914576 1.0886501,8.9740664 0,10 0,10 0,10 5.3337905,6.777155 3.9777757,4.5709333 2.6217609,2.3647115 9.6174962,4.4378151 9.9615558,3.5550337 10.305615,2.6722522 24.999056,3.8199992 32.562597,3.4954066 40.126138,3.1708139 39.372095,2.0337056 39.964882,2.9155242 40.55767,3.7973429 42.243915,0.48797044 45,0 c 2.635001,0.50646149 3.716664,2.5202643 5.0087,3.0227061 z"
             inkscape:path-effect="#path-effect2988"
             id="path4822"
             d="m 50.0087,3.0227061 c 2.425745,0.746744 5.012823,0.7122008 7.550759,0.6849483 7.475267,-0.08027 14.951223,-0.039342 22.426897,-0.020646 2.065866,0.00517 4.210218,0.025554 6.075969,0.9125736 C 88.159639,5.5966914 89.691972,7.6982458 90,10 89.307261,9.262159 88.482465,8.6486667 87.576557,8.1974158 85.297754,7.0622986 82.653275,6.9988553 80.107536,6.9734277 73.344129,6.9058728 66.580182,6.9450812 59.816442,6.9528892 56.529683,6.9566834 53.126722,6.929119 50.134192,5.5698678 48.016335,4.607906 46.200968,2.9920752 45,1 43.815115,2.9213533 42.068558,4.4916771 40.032465,5.4662944 36.941889,6.9456618 33.388933,7.0165354 29.962552,7.0265398 23.327154,7.0459139 16.691754,6.9420887 10.056424,6.9779241 7.4704959,6.9918899 4.7850487,7.0497254 2.4647757,8.1914576 1.5457144,8.6436983 0.70717095,9.258984 0,10 0.34151794,7.6910633 1.8791292,5.5924547 3.9777757,4.5709333 5.8118098,3.6782126 7.9223541,3.6028644 9.9615558,3.5550337 17.49377,3.3783611 25.029743,3.3485189 32.562597,3.4954066 35.047171,3.5438548 37.577655,3.6058885 39.964882,2.9155242 41.846492,2.3713797 43.59139,1.3610173 45,0 c 1.390009,1.3953906 3.126297,2.443225 5.0087,3.0227061 z"
             style="fill:#000000;fill-opacity:1;stroke:none" />
        </g>
      </g>
      <g
         transform="matrix(0,-0.66666667,0.5,0,491.91195,302.55966)"
         id="g4883"
         style="display:inline">
        <g
           id="layer2-3"
           inkscape:label="vectoriel"
           style="display:inline">
          <path
             sodipodi:nodetypes="zsszczsszcsszzczzszcz"
             inkscape:connector-curvature="0"
             inkscape:original-d="m 50.0087,3.0227061 c 1.292036,0.5024419 4.985995,0.399272 7.550759,0.6849483 1.282382,0.1428382 18.039431,-0.09915 22.426897,-0.020646 4.387466,0.078504 5.444938,0.5434835 6.075969,0.9125736 C 86.693356,4.9686721 90,10 90,10 90,10 88.182447,8.402454 87.576557,8.1974158 86.970666,7.9923776 84.200716,7.0362075 80.107536,6.9734277 76.014356,6.9106479 60.964516,7.0154518 59.816442,6.9528892 57.520294,6.8277642 51.410387,6.1064871 50.134192,5.5698678 48.857997,5.0332484 45,1 45,1 45,1 38.478896,4.5713892 40.032465,5.4662944 40.895198,5.9632565 37.997093,6.5135007 29.962552,7.0265398 21.92801,7.5395789 11.000434,6.893712 10.056424,6.9779241 9.1124136,7.0621362 3.8409013,7.4088488 2.4647757,8.1914576 1.0886501,8.9740664 0,10 0,10 0,10 5.3337905,6.777155 3.9777757,4.5709333 2.6217609,2.3647115 9.6174962,4.4378151 9.9615558,3.5550337 10.305615,2.6722522 24.999056,3.8199992 32.562597,3.4954066 40.126138,3.1708139 39.372095,2.0337056 39.964882,2.9155242 40.55767,3.7973429 42.243915,0.48797044 45,0 c 2.635001,0.50646149 3.716664,2.5202643 5.0087,3.0227061 z"
             inkscape:path-effect="#path-effect2988-1"
             id="path3774-1"
             d="m 50.0087,3.0227061 c 2.425745,0.746744 5.012823,0.7122008 7.550759,0.6849483 7.475267,-0.08027 14.951223,-0.039342 22.426897,-0.020646 2.065866,0.00517 4.210218,0.025554 6.075969,0.9125736 C 88.159639,5.5966914 89.691972,7.6982458 90,10 89.307261,9.262159 88.482465,8.6486667 87.576557,8.1974158 85.297754,7.0622986 82.653275,6.9988553 80.107536,6.9734277 73.344129,6.9058728 66.580182,6.9450812 59.816442,6.9528892 56.529683,6.9566834 53.126722,6.929119 50.134192,5.5698678 48.016335,4.607906 46.200968,2.9920752 45,1 43.815115,2.9213533 42.068558,4.4916771 40.032465,5.4662944 36.941889,6.9456618 33.388933,7.0165354 29.962552,7.0265398 23.327154,7.0459139 16.691754,6.9420887 10.056424,6.9779241 7.4704959,6.9918899 4.7850487,7.0497254 2.4647757,8.1914576 1.5457144,8.6436983 0.70717095,9.258984 0,10 0.34151794,7.6910633 1.8791292,5.5924547 3.9777757,4.5709333 5.8118098,3.6782126 7.9223541,3.6028644 9.9615558,3.5550337 17.49377,3.3783611 25.029743,3.3485189 32.562597,3.4954066 35.047171,3.5438548 37.577655,3.6058885 39.964882,2.9155242 41.846492,2.3713797 43.59139,1.3610173 45,0 c 1.390009,1.3953906 3.126297,2.443225 5.0087,3.0227061 z"
             style="fill:#000000;fill-opacity:1;stroke:none" />
        </g>
      </g>
      <g
         style="display:inline"
         id="g4887"
         transform="matrix(0,-0.66666667,0.5,0,491.91195,242.55966)">
        <g
           style="display:inline"
           inkscape:label="vectoriel"
           id="g4889">
          <path
             style="fill:#000000;fill-opacity:1;stroke:none"
             d="m 50.0087,3.0227061 c 2.425745,0.746744 5.012823,0.7122008 7.550759,0.6849483 7.475267,-0.08027 14.951223,-0.039342 22.426897,-0.020646 2.065866,0.00517 4.210218,0.025554 6.075969,0.9125736 C 88.159639,5.5966914 89.691972,7.6982458 90,10 89.307261,9.262159 88.482465,8.6486667 87.576557,8.1974158 85.297754,7.0622986 82.653275,6.9988553 80.107536,6.9734277 73.344129,6.9058728 66.580182,6.9450812 59.816442,6.9528892 56.529683,6.9566834 53.126722,6.929119 50.134192,5.5698678 48.016335,4.607906 46.200968,2.9920752 45,1 43.815115,2.9213533 42.068558,4.4916771 40.032465,5.4662944 36.941889,6.9456618 33.388933,7.0165354 29.962552,7.0265398 23.327154,7.0459139 16.691754,6.9420887 10.056424,6.9779241 7.4704959,6.9918899 4.7850487,7.0497254 2.4647757,8.1914576 1.5457144,8.6436983 0.70717095,9.258984 0,10 0.34151794,7.6910633 1.8791292,5.5924547 3.9777757,4.5709333 5.8118098,3.6782126 7.9223541,3.6028644 9.9615558,3.5550337 17.49377,3.3783611 25.029743,3.3485189 32.562597,3.4954066 35.047171,3.5438548 37.577655,3.6058885 39.964882,2.9155242 41.846492,2.3713797 43.59139,1.3610173 45,0 c 1.390009,1.3953906 3.126297,2.443225 5.0087,3.0227061 z"
             id="path4891"
             inkscape:path-effect="#path-effect2988-1"
             inkscape:original-d="m 50.0087,3.0227061 c 1.292036,0.5024419 4.985995,0.399272 7.550759,0.6849483 1.282382,0.1428382 18.039431,-0.09915 22.426897,-0.020646 4.387466,0.078504 5.444938,0.5434835 6.075969,0.9125736 C 86.693356,4.9686721 90,10 90,10 90,10 88.182447,8.402454 87.576557,8.1974158 86.970666,7.9923776 84.200716,7.0362075 80.107536,6.9734277 76.014356,6.9106479 60.964516,7.0154518 59.816442,6.9528892 57.520294,6.8277642 51.410387,6.1064871 50.134192,5.5698678 48.857997,5.0332484 45,1 45,1 45,1 38.478896,4.5713892 40.032465,5.4662944 40.895198,5.9632565 37.997093,6.5135007 29.962552,7.0265398 21.92801,7.5395789 11.000434,6.893712 10.056424,6.9779241 9.1124136,7.0621362 3.8409013,7.4088488 2.4647757,8.1914576 1.0886501,8.9740664 0,10 0,10 0,10 5.3337905,6.777155 3.9777757,4.5709333 2.6217609,2.3647115 9.6174962,4.4378151 9.9615558,3.5550337 10.305615,2.6722522 24.999056,3.8199992 32.562597,3.4954066 40.126138,3.1708139 39.372095,2.0337056 39.964882,2.9155242 40.55767,3.7973429 42.243915,0.48797044 45,0 c 2.635001,0.50646149 3.716664,2.5202643 5.0087,3.0227061 z"
             inkscape:connector-curvature="0"
             sodipodi:nodetypes="zsszczsszcsszzczzszcz" />
        </g>
      </g>
      <g
         inkscape:transform-center-y="36.882565"
         inkscape:transform-center-x="-42.783778"
         transform="matrix(0.57079157,0,0,0.57079157,240.06949,107.23358)"
         id="text4909"
         style="font-style:normal;font-weight:normal;font-size:40px;line-height:125%;font-family:sans-serif;letter-spacing:0px;word-spacing:0px;fill:#000000;fill-opacity:1;stroke:none;stroke-width:1px;stroke-linecap:butt;stroke-linejoin:miter;stroke-opacity:1">
        <path
           inkscape:connector-curvature="0"
           id="path4914"
           d="m 434.35928,299.31149 q -2.08984,0.9375 -4.10156,1.34766 -2.01172,0.41016 -4.25781,0.41016 -1.54297,0 -3.14453,-0.3125 -1.60157,-0.3125 -2.96875,-1.09375 -1.34766,-0.76172 -2.20703,-1.99219 -0.83985,-1.25 -0.83985,-3.08594 0,-1.875 1.09375,-3.28125 1.11328,-1.40625 3.47656,-2.14844 l 0,-0.13672 q -1.77734,-0.46875 -2.83203,-1.75781 -1.05468,-1.28906 -1.05468,-3.08594 0,-1.73828 0.91796,-2.87109 0.9375,-1.15234 2.20704,-1.81641 1.25,-0.64453 2.83203,-0.95703 1.58203,-0.3125 3.125,-0.3125 1.91406,0 3.51562,0.33203 1.60156,0.3125 3.35938,0.85938 l 0,4.04297 -0.25391,0 q -1.28906,-0.9961 -3.20312,-1.54297 -1.89454,-0.54688 -3.84766,-0.54688 -0.87891,0 -1.64063,0.11719 -0.76171,0.0977 -1.58203,0.48828 -0.68359,0.29297 -1.1914,0.95703 -0.48828,0.64454 -0.48828,1.50391 0,1.19141 0.54687,1.85547 0.54688,0.66406 1.48438,0.95703 0.8789,0.27344 1.89453,0.3125 1.01562,0.0195 2.05078,0.0195 l 2.16797,0 0,3.24219 -3.08594,0 q -1.21094,0 -2.1875,0.0977 -0.97656,0.0781 -1.79688,0.41015 -0.80078,0.33203 -1.28906,1.05469 -0.46875,0.72266 -0.46875,1.875 0,1.03516 0.50781,1.75781 0.50782,0.72266 1.3086,1.13281 0.72265,0.3711 1.69922,0.56641 0.99609,0.19531 2.08984,0.19531 1.99219,0 4.25781,-0.70312 2.26563,-0.70313 3.65235,-1.91406 l 0.2539,0 0,4.02343 z" />
      </g>
      <text
         sodipodi:linespacing="125%"
         id="text4916"
         y="330.46796"
         x="549.6358"
         style="font-style:normal;font-weight:normal;font-size:21.80832481px;line-height:125%;font-family:sans-serif;letter-spacing:0px;word-spacing:0px;fill:#000000;fill-opacity:1;stroke:none;stroke-width:1px;stroke-linecap:butt;stroke-linejoin:miter;stroke-opacity:1"
         xml:space="preserve"><tspan
           y="330.46796"
           x="549.6358"
           id="tspan4918"
           sodipodi:role="line">δ</tspan></text>
      <g
         style="font-style:normal;font-weight:normal;font-size:40px;line-height:125%;font-family:sans-serif;letter-spacing:0px;word-spacing:0px;fill:#000000;fill-opacity:1;stroke:none;stroke-width:1px;stroke-linecap:butt;stroke-linejoin:miter;stroke-opacity:1"
         id="g4920"
         transform="matrix(0.57079157,0,0,0.57079157,240.06949,47.233577)"
         inkscape:transform-center-x="-42.783778"
         inkscape:transform-center-y="36.882565">
        <path
           d="m 434.35928,299.31149 q -2.08984,0.9375 -4.10156,1.34766 -2.01172,0.41016 -4.25781,0.41016 -1.54297,0 -3.14453,-0.3125 -1.60157,-0.3125 -2.96875,-1.09375 -1.34766,-0.76172 -2.20703,-1.99219 -0.83985,-1.25 -0.83985,-3.08594 0,-1.875 1.09375,-3.28125 1.11328,-1.40625 3.47656,-2.14844 l 0,-0.13672 q -1.77734,-0.46875 -2.83203,-1.75781 -1.05468,-1.28906 -1.05468,-3.08594 0,-1.73828 0.91796,-2.87109 0.9375,-1.15234 2.20704,-1.81641 1.25,-0.64453 2.83203,-0.95703 1.58203,-0.3125 3.125,-0.3125 1.91406,0 3.51562,0.33203 1.60156,0.3125 3.35938,0.85938 l 0,4.04297 -0.25391,0 q -1.28906,-0.9961 -3.20312,-1.54297 -1.89454,-0.54688 -3.84766,-0.54688 -0.87891,0 -1.64063,0.11719 -0.76171,0.0977 -1.58203,0.48828 -0.68359,0.29297 -1.1914,0.95703 -0.48828,0.64454 -0.48828,1.50391 0,1.19141 0.54687,1.85547 0.54688,0.66406 1.48438,0.95703 0.8789,0.27344 1.89453,0.3125 1.01562,0.0195 2.05078,0.0195 l 2.16797,0 0,3.24219 -3.08594,0 q -1.21094,0 -2.1875,0.0977 -0.97656,0.0781 -1.79688,0.41015 -0.80078,0.33203 -1.28906,1.05469 -0.46875,0.72266 -0.46875,1.875 0,1.03516 0.50781,1.75781 0.50782,0.72266 1.3086,1.13281 0.72265,0.3711 1.69922,0.56641 0.99609,0.19531 2.08984,0.19531 1.99219,0 4.25781,-0.70312 2.26563,-0.70313 3.65235,-1.91406 l 0.2539,0 0,4.02343 z"
           id="path4922"
           inkscape:connector-curvature="0" />
      </g>
      <text
         xml:space="preserve"
         style="font-style:normal;font-weight:normal;font-size:21.80832481px;line-height:125%;font-family:sans-serif;letter-spacing:0px;word-spacing:0px;fill:#000000;fill-opacity:1;stroke:none;stroke-width:1px;stroke-linecap:butt;stroke-linejoin:miter;stroke-opacity:1"
         x="512.1358"
         y="330.46796"
         id="text4924"
         sodipodi:linespacing="125%"><tspan
           sodipodi:role="line"
           id="tspan4926"
           x="512.1358"
           y="330.46796">δ</tspan></text>
    </g>
    <path
       style="fill:none;fill-rule:evenodd;stroke:#000000;stroke-width:1.18400002;stroke-linecap:butt;stroke-linejoin:miter;stroke-miterlimit:4;stroke-dasharray:none;stroke-opacity:1;marker-start:url(#Arrow1Lstart);marker-end:url(#marker4420)"
       d="m 671.63917,519.07338 -598.816373,0 0,-398.7013"
       id="path4138"
       inkscape:connector-curvature="0"
       sodipodi:nodetypes="ccc" />
    <path
       sodipodi:nodetypes="cc"
       inkscape:connector-curvature="0"
       id="use4824"
       d="M 72.412716,430.46479 C 288.23099,420.76244 508.9905,405.96233 577.17191,124.4856"
       style="fill:none;fill-rule:evenodd;stroke:#000000;stroke-width:1px;stroke-linecap:butt;stroke-linejoin:miter;stroke-opacity:1" />
    <path
       style="fill:none;fill-rule:evenodd;stroke:#00d400;stroke-width:1px;stroke-linecap:butt;stroke-linejoin:miter;stroke-opacity:1"
       d="m 121.24504,428.07119 c 25.0212,-1.38734 49.94906,-3.10876 74.53759,-5.57272 m 109.65063,-18.00054 c 25.69178,-6.36836 50.48825,-14.44744 74.04535,-24.80857 m 116.62727,-85.47665 c 25.76471,-30.29747 47.56118,-67.65711 64.33514,-113.82968"
       id="path5325"
       inkscape:connector-curvature="0"
       sodipodi:nodetypes="cccccc" />
    <path
       style="fill:none;fill-rule:evenodd;stroke:#000000;stroke-width:1.16626525;stroke-linecap:butt;stroke-linejoin:miter;stroke-miterlimit:4;stroke-dasharray:1.16626523, 2.33253047;stroke-dashoffset:0;stroke-opacity:1"
       d="m 570.28056,124.83875 0,393.97573"
       id="path5327"
       inkscape:connector-curvature="0" />
    <path
       style="fill:none;fill-rule:evenodd;stroke:#ff0000;stroke-width:2;stroke-linecap:butt;stroke-linejoin:miter;stroke-miterlimit:4;stroke-dasharray:none;stroke-opacity:1"
       d="m 560.52152,180.16125 c 3.44748,-9.50456 6.68233,-19.38221 9.69536,-29.64821"
       id="path5329"
       inkscape:connector-curvature="0"
       sodipodi:nodetypes="cc" />
  </g>
</svg>
