<?xml version="1.0" encoding="utf-8"?><!DOCTYPE svg PUBLIC "-//W3C//DTD SVG 1.1//EN" "http://www.w3.org/Graphics/SVG/1.1/DTD/svg11.dtd"><svg version="1.1" xmlns="http://www.w3.org/2000/svg" xmlns:xlink="http://www.w3.org/1999/xlink" x="0" y="0" width="1000" height="58" viewBox="0 0 1000 58"><title>Simple number line</title><path fill="none" stroke="#000000" stroke-width="2" d="M500,32.633v-30 M625,27.633v-20 M750,27.633v-20 M875,27.633v-20 M375,27.633v-20 M250,27.633v-20 M125,27.633v-20"/><path fill="none" stroke="#000000" d="M990,17.633H10 M525,22.633v-10 M550,22.633v-10 M575,22.633v-10 M600,22.633v-10 M650,22.633v-10 M675,22.633v-10 M700,22.633v-10 M725,22.633v-10 M775,22.633v-10 M800,22.633v-10 M825,22.633v-10 M850,22.633v-10 M900,22.633v-10 M925,22.633v-10 M950,22.633v-10 M475,22.633v-10 M450,22.633v-10 M425,22.633v-10 M400,22.633v-10 M350,22.633v-10 M325,22.633v-10 M300,22.633v-10 M275,22.633v-10 M225,22.633v-10 M200,22.633v-10 M175,22.633v-10 M150,22.633v-10 M100,22.633v-10 M75,22.633v-10 M50,22.633v-10"/><path d="M5,17.633l15-2.5v5L5,17.633z M980,15.133v5l15-2.5L980,15.133z"/><path d="M499.861,55.367c-1.829,0-3.189-0.719-4.082-2.158c-0.893-1.438-1.339-3.621-1.339-6.551c0-1.557,0.138-2.902,0.413-4.037s0.66-2.07,1.155-2.813c0.495-0.74,1.09-1.287,1.784-1.643s1.452-0.533,2.273-0.533c1.854,0,3.232,0.715,4.139,2.145s1.357,3.594,1.357,6.488c0,2.996-0.484,5.262-1.453,6.799C503.139,54.6,501.723,55.367,499.861,55.367z M496.916,46.277c0,2.76,0.256,4.785,0.768,6.076c0.512,1.289,1.306,1.936,2.381,1.936c1.023,0,1.783-0.607,2.279-1.822c0.494-1.215,0.742-3.096,0.742-5.643c0-1.947-0.127-3.523-0.381-4.73c-0.254-1.205-0.607-2.07-1.061-2.596s-1-0.787-1.645-0.787c-0.584,0-1.072,0.174-1.466,0.521c-0.394,0.346-0.711,0.846-0.952,1.498c-0.241,0.65-0.413,1.445-0.514,2.379C496.966,44.045,496.916,45.102,496.916,46.277z M620.943,52.871v-2.07h1.182c0.195,0.664,0.49,1.152,0.885,1.465c0.393,0.313,0.902,0.469,1.527,0.469c0.867,0,1.521-0.26,1.963-0.781c0.443-0.521,0.664-1.299,0.664-2.334c0-0.689-0.117-1.262-0.352-1.713c-0.234-0.453-0.549-0.781-0.947-0.982c-0.396-0.201-0.859-0.303-1.387-0.303c-0.441,0-0.822,0.027-1.143,0.084c-0.318,0.055-0.66,0.141-1.025,0.258l-0.781-0.459v-6.426h5.381c0.223,0,0.381-0.018,0.479-0.053c0.098-0.037,0.176-0.092,0.234-0.166c0.059-0.076,0.127-0.217,0.205-0.426h0.762l-0.146,2.266h-5.615v4.287c0.34-0.143,0.707-0.25,1.104-0.322c0.398-0.072,0.795-0.107,1.191-0.107c0.775,0,1.463,0.158,2.061,0.475c0.6,0.314,1.063,0.764,1.387,1.348c0.326,0.582,0.488,1.258,0.488,2.025c0,0.873-0.182,1.621-0.547,2.246c-0.363,0.625-0.891,1.102-1.582,1.426c-0.689,0.326-1.506,0.488-2.451,0.488C623.354,53.564,622.174,53.334,620.943,52.871z M745.475,50.615c0,0.377,0.021,0.662,0.064,0.855c0.041,0.191,0.117,0.348,0.225,0.469c0.107,0.119,0.262,0.215,0.463,0.283c0.203,0.068,0.457,0.119,0.762,0.156c0.307,0.035,0.711,0.059,1.211,0.072v0.713h-7.217v-0.713c0.723-0.033,1.238-0.076,1.549-0.131c0.309-0.057,0.545-0.139,0.707-0.25c0.164-0.111,0.281-0.268,0.357-0.469c0.074-0.201,0.111-0.531,0.111-0.986v-7.92c0-0.26-0.045-0.451-0.137-0.57c-0.09-0.121-0.225-0.182-0.4-0.182c-0.207,0-0.504,0.107-0.889,0.322c-0.383,0.215-0.859,0.512-1.426,0.889l-0.43-0.752l4.57-2.725h0.537c-0.039,0.625-0.059,1.49-0.059,2.598V50.615z M755.191,53.32c-1.406,0-2.453-0.553-3.139-1.66c-0.688-1.107-1.031-2.787-1.031-5.039c0-1.197,0.105-2.232,0.318-3.105c0.211-0.873,0.508-1.594,0.889-2.162c0.381-0.57,0.838-0.992,1.371-1.266c0.535-0.273,1.117-0.41,1.748-0.41c1.426,0,2.488,0.551,3.184,1.65c0.697,1.1,1.045,2.764,1.045,4.99c0,2.305-0.373,4.049-1.117,5.23C757.713,52.73,756.625,53.32,755.191,53.32z M752.926,46.328c0,2.123,0.197,3.68,0.592,4.674c0.393,0.992,1.004,1.488,1.83,1.488c0.789,0,1.373-0.467,1.754-1.4c0.381-0.936,0.57-2.383,0.57-4.342c0-1.498-0.098-2.709-0.293-3.637s-0.467-1.594-0.814-1.998c-0.35-0.404-0.77-0.605-1.266-0.605c-0.449,0-0.824,0.133-1.127,0.4s-0.547,0.65-0.732,1.152s-0.318,1.111-0.396,1.832C752.965,44.611,752.926,45.424,752.926,46.328z M870.592,50.859c0,0.377,0.021,0.662,0.063,0.855c0.043,0.191,0.117,0.348,0.225,0.469c0.107,0.119,0.262,0.215,0.465,0.283c0.201,0.068,0.455,0.119,0.762,0.156c0.305,0.035,0.709,0.061,1.211,0.072v0.713H866.1v-0.713c0.723-0.031,1.238-0.076,1.547-0.131c0.311-0.057,0.545-0.139,0.709-0.25c0.162-0.109,0.281-0.266,0.355-0.469c0.076-0.201,0.113-0.531,0.113-0.986v-7.92c0-0.26-0.047-0.451-0.137-0.57c-0.092-0.121-0.225-0.182-0.4-0.182c-0.209,0-0.506,0.107-0.889,0.322c-0.385,0.215-0.859,0.512-1.426,0.889l-0.43-0.752l4.57-2.725h0.537c-0.039,0.625-0.059,1.49-0.059,2.598V50.859z M876.344,52.871v-2.07h1.182c0.195,0.664,0.49,1.152,0.883,1.465c0.395,0.313,0.904,0.469,1.529,0.469c0.865,0,1.52-0.26,1.963-0.781c0.441-0.521,0.664-1.299,0.664-2.334c0-0.689-0.117-1.262-0.352-1.713c-0.234-0.453-0.551-0.781-0.947-0.982c-0.398-0.201-0.859-0.303-1.387-0.303c-0.443,0-0.824,0.027-1.143,0.084c-0.32,0.055-0.662,0.141-1.025,0.258l-0.781-0.459v-6.426h5.381c0.221,0,0.381-0.018,0.479-0.053c0.098-0.037,0.176-0.092,0.234-0.166c0.059-0.076,0.127-0.217,0.205-0.426h0.762l-0.146,2.266h-5.615v4.287c0.338-0.143,0.705-0.25,1.104-0.322c0.396-0.072,0.793-0.107,1.191-0.107c0.773,0,1.461,0.158,2.061,0.475c0.598,0.314,1.061,0.764,1.387,1.348c0.324,0.582,0.488,1.258,0.488,2.025c0,0.873-0.184,1.621-0.547,2.246c-0.365,0.625-0.893,1.102-1.582,1.426c-0.691,0.326-1.508,0.488-2.451,0.488C878.752,53.564,877.574,53.334,876.344,52.871z M363.467,48.34v-1.299h12.031v1.299H363.467z M378.418,52.871v-2.07h1.182c0.195,0.664,0.49,1.152,0.884,1.465s0.903,0.469,1.528,0.469c0.866,0,1.52-0.26,1.963-0.781s0.664-1.299,0.664-2.334c0-0.689-0.117-1.262-0.352-1.713c-0.234-0.453-0.55-0.781-0.947-0.982s-0.859-0.303-1.387-0.303c-0.443,0-0.824,0.027-1.143,0.084c-0.319,0.055-0.661,0.141-1.025,0.258l-0.781-0.459v-6.426h5.381c0.221,0,0.381-0.018,0.479-0.053c0.098-0.037,0.176-0.092,0.234-0.166c0.059-0.076,0.127-0.217,0.205-0.426h0.762l-0.146,2.266h-5.615v4.287c0.338-0.143,0.707-0.25,1.104-0.322s0.794-0.107,1.191-0.107c0.775,0,1.461,0.158,2.061,0.475c0.599,0.314,1.061,0.764,1.387,1.348c0.326,0.582,0.488,1.258,0.488,2.025c0,0.873-0.182,1.621-0.547,2.246s-0.892,1.102-1.582,1.426c-0.69,0.326-1.507,0.488-2.451,0.488C380.827,53.564,379.648,53.334,378.418,52.871z M232.813,48.096v-1.299h12.031v1.299H232.813z M253.086,50.615c0,0.379,0.021,0.662,0.063,0.855c0.042,0.191,0.117,0.348,0.225,0.469c0.107,0.119,0.262,0.215,0.464,0.283s0.456,0.119,0.762,0.156c0.306,0.035,0.709,0.061,1.211,0.072v0.713h-7.217v-0.713c0.723-0.031,1.239-0.076,1.548-0.131c0.309-0.057,0.545-0.139,0.708-0.25c0.163-0.109,0.282-0.266,0.356-0.469c0.075-0.201,0.112-0.529,0.112-0.986v-7.92c0-0.26-0.045-0.451-0.137-0.57c-0.091-0.121-0.225-0.182-0.4-0.182c-0.208,0-0.504,0.107-0.889,0.322s-0.859,0.512-1.426,0.889l-0.43-0.752l4.57-2.725h0.537c-0.039,0.625-0.059,1.49-0.059,2.598V50.615z M262.803,53.32c-1.406,0-2.453-0.553-3.14-1.66c-0.687-1.105-1.03-2.787-1.03-5.039c0-1.197,0.106-2.232,0.317-3.105s0.508-1.594,0.889-2.162c0.381-0.57,0.838-0.992,1.372-1.266s1.117-0.41,1.748-0.41c1.426,0,2.487,0.551,3.184,1.65s1.045,2.764,1.045,4.99c0,2.305-0.373,4.049-1.118,5.23S264.235,53.32,262.803,53.32z M260.537,46.328c0,2.123,0.197,3.68,0.591,4.674c0.394,0.992,1.004,1.488,1.831,1.488c0.788,0,1.372-0.467,1.753-1.4c0.381-0.936,0.571-2.383,0.571-4.342c0-1.498-0.098-2.709-0.293-3.637s-0.467-1.594-0.815-1.998s-0.77-0.605-1.265-0.605c-0.449,0-0.825,0.133-1.128,0.4s-0.547,0.65-0.732,1.152s-0.317,1.111-0.396,1.832C260.576,44.611,260.537,45.424,260.537,46.328z M107.93,48.34v-1.299h12.031v1.299H107.93z M128.203,50.859c0,0.377,0.021,0.662,0.063,0.855c0.042,0.191,0.117,0.348,0.225,0.469c0.107,0.119,0.262,0.215,0.464,0.283s0.456,0.119,0.762,0.156c0.306,0.035,0.709,0.061,1.211,0.072v0.713h-7.217v-0.713c0.723-0.031,1.239-0.076,1.548-0.131c0.309-0.057,0.545-0.139,0.708-0.25c0.163-0.109,0.282-0.268,0.356-0.469s0.112-0.531,0.112-0.986v-7.92c0-0.26-0.045-0.451-0.137-0.57c-0.091-0.121-0.225-0.182-0.4-0.182c-0.208,0-0.504,0.107-0.889,0.322s-0.859,0.512-1.426,0.889l-0.43-0.752l4.57-2.725h0.537c-0.039,0.625-0.059,1.49-0.059,2.598V50.859z M133.955,52.871v-2.07h1.182c0.195,0.664,0.49,1.152,0.884,1.465s0.903,0.469,1.528,0.469c0.866,0,1.52-0.26,1.963-0.781s0.664-1.299,0.664-2.334c0-0.689-0.117-1.262-0.352-1.713c-0.234-0.453-0.55-0.781-0.947-0.982s-0.859-0.303-1.387-0.303c-0.443,0-0.824,0.027-1.143,0.084c-0.319,0.055-0.661,0.141-1.025,0.258l-0.781-0.459v-6.426h5.381c0.221,0,0.381-0.018,0.479-0.053c0.098-0.037,0.176-0.092,0.234-0.166c0.059-0.076,0.127-0.217,0.205-0.426h0.762l-0.146,2.266h-5.615v4.287c0.338-0.143,0.707-0.25,1.104-0.322s0.794-0.107,1.191-0.107c0.775,0,1.461,0.158,2.061,0.475c0.599,0.314,1.061,0.764,1.387,1.348c0.326,0.582,0.488,1.258,0.488,2.025c0,0.873-0.182,1.621-0.547,2.246s-0.892,1.102-1.582,1.426c-0.69,0.326-1.507,0.488-2.451,0.488C136.364,53.564,135.186,53.334,133.955,52.871z"/></svg>