<?xml version="1.0" encoding="UTF-8" standalone="no"?>
<svg
   xmlns:dc="http://purl.org/dc/elements/1.1/"
   xmlns:cc="http://creativecommons.org/ns#"
   xmlns:rdf="http://www.w3.org/1999/02/22-rdf-syntax-ns#"
   xmlns:svg="http://www.w3.org/2000/svg"
   xmlns="http://www.w3.org/2000/svg"
   xmlns:sodipodi="http://sodipodi.sourceforge.net/DTD/sodipodi-0.dtd"
   xmlns:inkscape="http://www.inkscape.org/namespaces/inkscape"
   sodipodi:docname="Fa_derivative4d.svg"
   inkscape:version="0.48.1 "
   id="svg5149"
   version="1.1"
   viewBox="0 0 540 420"
   height="100%"
   width="100%"
   preserveAspectRatio="xMinYMin meet">
  <metadata
     id="metadata5172">
    <rdf:RDF>
      <cc:Work
         rdf:about="">
        <dc:format>image/svg+xml</dc:format>
        <dc:type
           rdf:resource="http://purl.org/dc/dcmitype/StillImage" />
        <dc:title></dc:title>
      </cc:Work>
    </rdf:RDF>
  </metadata>
  <defs
     id="defs5170">
    <clipPath
       id="ID000001">
      <rect
         x="72.800003"
         y="31.5"
         width="434"
         height="342.29999"
         id="rect5158" />
    </clipPath>
  </defs>
  <sodipodi:namedview
     pagecolor="#ffffff"
     bordercolor="#666666"
     borderopacity="1"
     objecttolerance="10"
     gridtolerance="10"
     guidetolerance="10"
     inkscape:pageopacity="0"
     inkscape:pageshadow="2"
     inkscape:window-width="1024"
     inkscape:window-height="719"
     id="namedview5168"
     showgrid="false"
     showguides="true"
     inkscape:guide-bbox="true"
     inkscape:zoom="1.1833333"
     inkscape:cx="270"
     inkscape:cy="210"
     inkscape:window-x="-4"
     inkscape:window-y="-4"
     inkscape:window-maximized="1"
     inkscape:current-layer="svg5149">
    <sodipodi:guide
       orientation="0,1"
       position="261.13155,63.938388"
       id="guide4339" />
  </sodipodi:namedview>
  <desc
     id="desc5151">Matlab Figure Converted by PLOT2SVG written by Juerg Schwizer</desc>
  <rect
     style="fill:#0000ff;fill-opacity:0;fill-rule:evenodd;stroke:#000000;stroke-width:1;stroke-linecap:butt;stroke-linejoin:miter;stroke-miterlimit:4;stroke-opacity:1;stroke-dasharray:4, 4;stroke-dashoffset:0"
     id="rect4325"
     width="87.745995"
     height="76.901405"
     x="124.50704"
     y="257.7016"
     ry="0" />
  <rect
     ry="0"
     y="124.93745"
     x="124.664"
     height="208.70856"
     width="238.1405"
     id="rect4327"
     style="fill:#0000ff;fill-opacity:0;fill-rule:evenodd;stroke:#000000;stroke-width:1;stroke-linecap:butt;stroke-linejoin:miter;stroke-miterlimit:4;stroke-opacity:1;stroke-dasharray:4, 4;stroke-dashoffset:4.8" />
  <g
     clip-path="url(#ID000001)"
     id="ID000002"
     transform="translate(-10,-16)">
    <g
       id="g5165" />
  </g>
  <g
     id="ID000003"
     transform="translate(-10,-30)" />
  <path
     inkscape:connector-curvature="0"
     style="fill:#000000;fill-opacity:1;fill-rule:evenodd;stroke:none"
     d="m 119.80428,51.929312 4.847,-18.422377 4.8508,18.422377 -9.6978,0 z"
     id="path4397" />
  <path
     inkscape:connector-curvature="0"
     style="fill:none;stroke:#000000;stroke-width:2;stroke-linecap:butt;stroke-linejoin:miter;stroke-miterlimit:4;stroke-opacity:1;stroke-dasharray:none"
     d="m 124.65128,49.058515 7e-5,367.972085"
     id="path4399"
     sodipodi:nodetypes="cc" />
  <path
     inkscape:connector-curvature="0"
     id="path4401"
     d="m 497.81958,329.30088 18.42235,4.847 -18.42235,4.85079 0,-9.69779 z"
     style="fill:#000000;fill-opacity:1;fill-rule:evenodd;stroke:none" />
  <path
     inkscape:connector-curvature="0"
     sodipodi:nodetypes="cc"
     id="path4403"
     d="M 498.6904,334.14791 3.9693984,334.1479"
     style="fill:none;stroke:#000000;stroke-width:2;stroke-linecap:butt;stroke-linejoin:miter;stroke-miterlimit:4;stroke-opacity:1;stroke-dasharray:none" />
  <g
     transform="translate(99.806648,-0.01181244)"
     style="font-size:27.26518822px;font-style:normal;font-variant:normal;font-weight:normal;font-stretch:normal;line-height:125%;letter-spacing:0px;word-spacing:0px;fill:#000000;fill-opacity:1;stroke:none;font-family:FreeFarsi;-inkscape-font-specification:FreeFarsi"
     id="text3021">
    <path
       inkscape:connector-curvature="0"
       d="m 21.353843,25.590096 c 0.390514,-3e-6 0.807657,0.07988 1.251429,0.239635 0.443766,0.159754 0.718903,0.239632 0.825411,0.239636 0.372762,-4e-6 0.763279,-0.310642 1.171551,-0.931916 l 0.159757,-0.266262 c 0.310633,-0.550275 0.5658,-1.124956 0.765502,-1.724044 0.19969,-0.599088 0.299538,-0.982948 0.299545,-1.151581 -7e-6,-0.399392 -0.390523,-1.295805 -1.171551,-2.689242 l -0.399393,-0.798785 -3.115261,-6.763045 c -0.21301,-0.461509 -0.665655,-0.745521 -1.357934,-0.852037 l 0,-0.34614 5.484989,0 0,0.372766 c -0.967422,0.150893 -1.482194,0.390528 -1.544317,0.718907 -4e-6,0.248521 0.08875,0.585785 0.266262,1.011794 l 3.062008,6.736418 2.582738,-7.34882 c 0.07099,-0.168622 0.106494,-0.319503 0.106504,-0.452645 -10e-6,-0.443758 -0.426028,-0.665642 -1.278056,-0.665654 l 0,-0.372766 3.594532,0 0,0.372766 c -0.488158,0.05326 -0.860924,0.328401 -1.118299,0.825411 l -4.260185,11.23624 c -0.701162,1.872704 -1.402317,3.22398 -2.103467,4.053833 -0.70116,0.829843 -1.499944,1.244767 -2.396354,1.244773 -0.683407,-6e-6 -1.182647,-0.157544 -1.497722,-0.472615 -0.315077,-0.315081 -0.472615,-0.663439 -0.472614,-1.045076 -1e-6,-0.363895 0.117598,-0.650126 0.352796,-0.858694 0.235197,-0.208575 0.499239,-0.31286 0.792129,-0.312857 z"
       id="path3837" />
  </g>
  <g
     transform="translate(-40.193352,-0.01181244)"
     style="font-size:27.26518822px;font-style:normal;font-variant:normal;font-weight:normal;font-stretch:normal;line-height:125%;letter-spacing:0px;word-spacing:0px;fill:#000000;fill-opacity:1;stroke:none;font-family:FreeFarsi;-inkscape-font-specification:FreeFarsi"
     id="text3025">
    <path
       inkscape:connector-curvature="0"
       d="m 570.16089,330.74715 c -10e-6,-0.20413 -0.0888,-0.34835 -0.26626,-0.43268 -0.17751,-0.0843 -0.37277,-0.12646 -0.58577,-0.12647 l -0.1997,-0.0266 -0.0133,0 0,-0.38608 4.20693,0 0,0.38608 c -0.87867,10e-6 -1.59758,0.39053 -2.15672,1.17155 l -2.20997,3.19514 3.40815,5.21873 c 0.26625,0.37277 0.51254,0.67675 0.73887,0.91195 0.22631,0.23519 0.43489,0.39717 0.62572,0.48592 0.19081,0.0888 0.33725,0.14423 0.43933,0.16642 0.10205,0.0222 0.22853,0.0333 0.37942,0.0333 l 0,0.38608 -5.35186,0 0,-0.38608 c 0.31951,0 0.56358,-0.0377 0.73222,-0.11316 0.16863,-0.0754 0.26626,-0.14866 0.29289,-0.21967 0.0266,-0.071 0.0399,-0.17307 0.0399,-0.3062 -10e-6,-0.15975 -0.0533,-0.31951 -0.15976,-0.47927 l -2.42298,-3.72766 -2.10346,3.27502 c -0.35502,0.5414 -0.53253,0.90529 -0.53253,1.09167 0,0.31951 0.35502,0.47927 1.06505,0.47927 l 0,0.38608 -3.86079,0 0,-0.38608 c 0.30176,0 0.5769,-0.071 0.82541,-0.21301 0.24851,-0.14201 0.44377,-0.29289 0.58577,-0.45265 0.14201,-0.15975 0.31951,-0.39051 0.53253,-0.69228 l 3.03538,-4.39331 -2.50286,-3.83417 c -0.44377,-0.66564 -0.80988,-1.09832 -1.09833,-1.29802 -0.28845,-0.19969 -0.60575,-0.29954 -0.95188,-0.29955 l -0.23964,0 0,-0.38608 5.51162,0 0,0.38608 c -0.76329,10e-6 -1.14493,0.19527 -1.14493,0.58578 0,0.34615 0.40826,1.13606 1.2248,2.36973 l 0.37277,0.53252 0.74553,-1.06505 0.58578,-0.83872 c 0.12425,-0.16862 0.23075,-0.34391 0.31951,-0.52587 0.0888,-0.18193 0.13312,-0.33947 0.13313,-0.47261 z"
       id="path3840" />
  </g>
  <text
     xml:space="preserve"
     style="font-size:65.00091553%;font-style:normal;font-variant:normal;font-weight:normal;font-stretch:normal;line-height:125%;letter-spacing:0px;word-spacing:0px;baseline-shift:sub;fill:#000000;fill-opacity:1;stroke:none;font-family:FreeFarsi;-inkscape-font-specification:FreeFarsi"
     x="122.53521"
     y="160.56339"
     id="text3802"
     sodipodi:linespacing="125%"><tspan
       sodipodi:role="line"
       id="tspan3804"
       x="122.53521"
       y="160.56339" /></text>
  <path
     style="fill:none;stroke:#000000;stroke-width:2.5;stroke-linecap:butt;stroke-linejoin:miter;stroke-miterlimit:4;stroke-opacity:1;stroke-dasharray:none"
     d="M 212.39437,257.74648 C 278.72173,247.15405 342.88153,232.02005 362.8169,124.22535"
     id="path4329"
     inkscape:connector-curvature="0"
     sodipodi:nodetypes="cc" />
  <text
     xml:space="preserve"
     style="font-size:24px;font-style:normal;font-variant:normal;font-weight:normal;font-stretch:normal;line-height:125%;letter-spacing:0px;word-spacing:0px;fill:#000000;fill-opacity:1;stroke:none;font-family:FreeFarsi;-inkscape-font-specification:FreeFarsi"
     x="206.39436"
     y="355.66901"
     id="text4331"
     sodipodi:linespacing="125%"><tspan
       sodipodi:role="line"
       id="tspan4333"
       x="206.39436"
       y="355.66901">x</tspan></text>
  <text
     xml:space="preserve"
     style="font-size:24px;font-style:normal;font-variant:normal;font-weight:normal;font-stretch:normal;line-height:125%;letter-spacing:0px;word-spacing:0px;fill:#000000;fill-opacity:1;stroke:none;font-family:Times New Roman;-inkscape-font-specification:Times New Roman"
     x="337.83099"
     y="355.22"
     id="text4335"
     sodipodi:linespacing="125%"><tspan
       sodipodi:role="line"
       id="tspan4337"
       x="337.83099"
       y="355.22">x + Δx</tspan></text>
  <text
     xml:space="preserve"
     style="font-size:24px;font-style:oblique;font-variant:normal;font-weight:normal;font-stretch:normal;line-height:125%;letter-spacing:0px;word-spacing:0px;fill:#000000;fill-opacity:1;stroke:none;font-family:FreeFarsi;-inkscape-font-specification:FreeFarsi Oblique"
     x="76.704224"
     y="263.43661"
     id="text4341"
     sodipodi:linespacing="125%"><tspan
       sodipodi:role="line"
       id="tspan4343"
       x="76.704224"
       y="263.43661"
       style="font-size:28px;font-weight:normal;-inkscape-font-specification:FreeFarsi Oblique">f</tspan></text>
  <text
     xml:space="preserve"
     style="font-size:24px;font-style:normal;font-variant:normal;font-weight:normal;font-stretch:normal;line-height:125%;letter-spacing:0px;word-spacing:0px;fill:#000000;fill-opacity:1;stroke:none;font-family:Times New Roman;-inkscape-font-specification:Times New Roman"
     x="87.915489"
     y="263.35211"
     id="text4345"
     sodipodi:linespacing="125%"><tspan
       sodipodi:role="line"
       id="tspan4347"
       x="87.915489"
       y="263.35211">(x)</tspan></text>
  <text
     sodipodi:linespacing="125%"
     id="text4349"
     y="129.43661"
     x="24.704224"
     style="font-size:24px;font-style:oblique;font-variant:normal;font-weight:normal;font-stretch:normal;line-height:125%;letter-spacing:0px;word-spacing:0px;fill:#000000;fill-opacity:1;stroke:none;font-family:FreeFarsi;-inkscape-font-specification:FreeFarsi Oblique"
     xml:space="preserve"><tspan
       style="font-size:28px;font-weight:normal;-inkscape-font-specification:FreeFarsi Oblique"
       y="129.43661"
       x="24.704224"
       id="tspan4351"
       sodipodi:role="line">f</tspan></text>
  <text
     sodipodi:linespacing="125%"
     id="text4353"
     y="131.35211"
     x="35.915489"
     style="font-size:24px;font-style:normal;font-variant:normal;font-weight:normal;font-stretch:normal;line-height:125%;letter-spacing:0px;word-spacing:0px;fill:#000000;fill-opacity:1;stroke:none;font-family:Times New Roman;-inkscape-font-specification:Times New Roman"
     xml:space="preserve"><tspan
       y="131.35211"
       x="35.915489"
       id="tspan4355"
       sodipodi:role="line">(x + Δx)</tspan></text>
</svg>
