<?xml version='1.0' encoding='UTF-8'?>
<!DOCTYPE svg PUBLIC "-//W3C//DTD SVG 1.1//EN" "http://www.w3.org/Graphics/SVG/1.1/DTD/svg11.dtd">
<!-- Created with matplotlib (http://matplotlib.org/) -->
<svg xmlns="http://www.w3.org/2000/svg" xmlns:xlink="http://www.w3.org/1999/xlink" height="400px" version="1.1" viewBox="0 0 600 400" width="600px">
  <title>mplwp_1over1plusxsquared.svg</title>
  <desc>http://commons.wikimedia.org/wiki/File:mplwp_1over1plusxsquared.svg
Plot created with mplwp, the Matplotlib extension for Wikipedia plots.</desc>
  <defs>
    <style type="text/css">
*{stroke-linecap:square;stroke-linejoin:round;}
  </style>
  </defs>
  <defs>
    <clipPath id="pa82c4e93f3">
      <rect height="355.0" width="515.0" x="42.5" y="18.5"/>
    </clipPath>
  </defs>
  <g id="figure_1">
    <g id="patch_1">
      <path d="
M 0 400
L 600 400
L 600 0
L 0 0
z 
" style="fill:#ffffff;"/>
    </g>
    <g id="axes_1">
      <g id="patch_2">
        <path d="
M 42.5 373.5
L 557.5 373.5
L 557.5 18.5
L 42.5 18.5
z 
" style="fill:#ffffff;"/>
      </g>
      <g id="line2d_1">
        <path clip-path="url(#pa82c4e93f3)" d="
M 42.5 315.932
L 61.143 314.856
L 77.314 313.705
L 91.528 312.476
L 104.197 311.162
L 115.527 309.766
L 125.724 308.288
L 134.891 306.738
L 143.234 305.107
L 150.856 303.395
L 157.86 301.601
L 164.349 299.714
L 170.426 297.718
L 176.091 295.625
L 181.344 293.451
L 186.288 291.17
L 191.026 288.738
L 195.455 286.217
L 199.678 283.56
L 203.695 280.773
L 207.609 277.783
L 211.317 274.67
L 214.922 271.35
L 218.424 267.817
L 221.823 264.065
L 225.119 260.088
L 228.312 255.884
L 231.402 251.455
L 234.492 246.636
L 237.479 241.572
L 240.466 236.075
L 243.453 230.108
L 246.44 223.638
L 249.427 216.628
L 252.414 209.048
L 255.504 200.58
L 258.594 191.459
L 261.89 181.01
L 265.392 169.132
L 269.306 155.025
L 274.456 135.546
L 281.563 108.721
L 284.653 97.964
L 287.125 90.1514
L 289.185 84.3556
L 290.936 80.042
L 292.584 76.5664
L 294.026 74.0343
L 295.365 72.1378
L 296.498 70.8915
L 297.528 70.0528
L 298.558 69.5002
L 299.485 69.2508
L 300.412 69.2377
L 301.339 69.4609
L 302.266 69.9192
L 303.296 70.7011
L 304.326 71.7648
L 305.459 73.2517
L 306.695 75.2386
L 308.137 78.0134
L 309.682 81.4949
L 311.433 86.0175
L 313.39 91.7083
L 315.656 98.996
L 318.437 108.721
L 322.248 122.925
L 332.96 163.289
L 336.771 176.56
L 340.273 187.95
L 343.569 197.912
L 346.762 206.853
L 349.852 214.851
L 352.942 222.233
L 356.032 229.03
L 359.122 235.28
L 362.212 241.024
L 365.302 246.3
L 368.392 251.146
L 371.585 255.743
L 374.778 259.958
L 378.074 263.945
L 381.473 267.708
L 384.975 271.251
L 388.58 274.579
L 392.288 277.7
L 396.099 280.622
L 400.116 283.423
L 404.339 286.093
L 408.768 288.626
L 413.403 291.019
L 418.347 293.316
L 423.497 295.463
L 429.059 297.538
L 434.93 299.49
L 441.316 301.374
L 448.114 303.145
L 455.53 304.844
L 463.564 306.453
L 472.319 307.976
L 481.898 309.415
L 492.507 310.78
L 504.249 312.064
L 517.433 313.277
L 532.265 314.414
L 549.054 315.473
L 557.5 315.932
L 557.5 315.932" style="fill:none;stroke:#0000cc;stroke-width:2.4;"/>
      </g>
      <g id="matplotlib.axis_1">
        <g id="xtick_1">
          <g id="line2d_2">
            <path clip-path="url(#pa82c4e93f3)" d="
M 42.5 373.5
L 42.5 18.5" style="fill:none;stroke:#000000;stroke-dasharray:1.000000,3.000000;stroke-dashoffset:0.0;stroke-linecap:butt;stroke-width:0.5;"/>
          </g>
          <g id="line2d_3">
            <defs>
              <path d="
M 0 0
L 0 -4" id="ma222041d45" style="stroke:#000000;stroke-linecap:butt;stroke-width:1.25;"/>
            </defs>
            <g>
              <use style="stroke:#000000;stroke-linecap:butt;stroke-width:1.25;" x="42.5" xlink:href="#ma222041d45" y="373.5"/>
            </g>
          </g>
          <g id="line2d_4">
            <defs>
              <path d="
M 0 0
L 0 4" id="mab2f347831" style="stroke:#000000;stroke-linecap:butt;stroke-width:1.25;"/>
            </defs>
            <g>
              <use style="stroke:#000000;stroke-linecap:butt;stroke-width:1.25;" x="42.5" xlink:href="#mab2f347831" y="18.5"/>
            </g>
          </g>
          <g id="text_1">
            <!-- −6 -->
            <defs>
              <path d="
M 33.0156 40.375
Q 26.375 40.375 22.4844 35.8281
Q 18.6094 31.2969 18.6094 23.3906
Q 18.6094 15.5312 22.4844 10.9531
Q 26.375 6.39062 33.0156 6.39062
Q 39.6562 6.39062 43.5312 10.9531
Q 47.4062 15.5312 47.4062 23.3906
Q 47.4062 31.2969 43.5312 35.8281
Q 39.6562 40.375 33.0156 40.375
M 52.5938 71.2969
L 52.5938 62.3125
Q 48.875 64.0625 45.0938 64.9844
Q 41.3125 65.9219 37.5938 65.9219
Q 27.8281 65.9219 22.6719 59.3281
Q 17.5312 52.7344 16.7969 39.4062
Q 19.6719 43.6562 24.0156 45.9219
Q 28.375 48.1875 33.5938 48.1875
Q 44.5781 48.1875 50.9531 41.5156
Q 57.3281 34.8594 57.3281 23.3906
Q 57.3281 12.1562 50.6875 5.35938
Q 44.0469 -1.42188 33.0156 -1.42188
Q 20.3594 -1.42188 13.6719 8.26562
Q 6.98438 17.9688 6.98438 36.375
Q 6.98438 53.6562 15.1875 63.9375
Q 23.3906 74.2188 37.2031 74.2188
Q 40.9219 74.2188 44.7031 73.4844
Q 48.4844 72.75 52.5938 71.2969" id="DejaVuSans-36"/>
              <path d="
M 10.5938 35.5
L 73.1875 35.5
L 73.1875 27.2031
L 10.5938 27.2031
z 
" id="DejaVuSans-2212"/>
            </defs>
            <g transform="translate(32.0575 392.375)scale(0.16 -0.16)">
              <use xlink:href="#DejaVuSans-2212"/>
              <use x="83.7890625" xlink:href="#DejaVuSans-36"/>
            </g>
          </g>
        </g>
        <g id="xtick_2">
          <g id="line2d_5">
            <path clip-path="url(#pa82c4e93f3)" d="
M 85.4167 373.5
L 85.4167 18.5" style="fill:none;stroke:#000000;stroke-dasharray:1.000000,3.000000;stroke-dashoffset:0.0;stroke-linecap:butt;stroke-width:0.5;"/>
          </g>
          <g id="line2d_6">
            <g>
              <use style="stroke:#000000;stroke-linecap:butt;stroke-width:1.25;" x="85.4166666667" xlink:href="#ma222041d45" y="373.5"/>
            </g>
          </g>
          <g id="line2d_7">
            <g>
              <use style="stroke:#000000;stroke-linecap:butt;stroke-width:1.25;" x="85.4166666667" xlink:href="#mab2f347831" y="18.5"/>
            </g>
          </g>
          <g id="text_2">
            <!-- −5 -->
            <defs>
              <path d="
M 10.7969 72.9062
L 49.5156 72.9062
L 49.5156 64.5938
L 19.8281 64.5938
L 19.8281 46.7344
Q 21.9688 47.4688 24.1094 47.8281
Q 26.2656 48.1875 28.4219 48.1875
Q 40.625 48.1875 47.75 41.5
Q 54.8906 34.8125 54.8906 23.3906
Q 54.8906 11.625 47.5625 5.09375
Q 40.2344 -1.42188 26.9062 -1.42188
Q 22.3125 -1.42188 17.5469 -0.640625
Q 12.7969 0.140625 7.71875 1.70312
L 7.71875 11.625
Q 12.1094 9.23438 16.7969 8.0625
Q 21.4844 6.89062 26.7031 6.89062
Q 35.1562 6.89062 40.0781 11.3281
Q 45.0156 15.7656 45.0156 23.3906
Q 45.0156 31 40.0781 35.4375
Q 35.1562 39.8906 26.7031 39.8906
Q 22.75 39.8906 18.8125 39.0156
Q 14.8906 38.1406 10.7969 36.2812
z 
" id="DejaVuSans-35"/>
            </defs>
            <g transform="translate(75.1691666667 392.165)scale(0.16 -0.16)">
              <use xlink:href="#DejaVuSans-2212"/>
              <use x="83.7890625" xlink:href="#DejaVuSans-35"/>
            </g>
          </g>
        </g>
        <g id="xtick_3">
          <g id="line2d_8">
            <path clip-path="url(#pa82c4e93f3)" d="
M 128.333 373.5
L 128.333 18.5" style="fill:none;stroke:#000000;stroke-dasharray:1.000000,3.000000;stroke-dashoffset:0.0;stroke-linecap:butt;stroke-width:0.5;"/>
          </g>
          <g id="line2d_9">
            <g>
              <use style="stroke:#000000;stroke-linecap:butt;stroke-width:1.25;" x="128.333333333" xlink:href="#ma222041d45" y="373.5"/>
            </g>
          </g>
          <g id="line2d_10">
            <g>
              <use style="stroke:#000000;stroke-linecap:butt;stroke-width:1.25;" x="128.333333333" xlink:href="#mab2f347831" y="18.5"/>
            </g>
          </g>
          <g id="text_3">
            <!-- −4 -->
            <defs>
              <path d="
M 37.7969 64.3125
L 12.8906 25.3906
L 37.7969 25.3906
z 

M 35.2031 72.9062
L 47.6094 72.9062
L 47.6094 25.3906
L 58.0156 25.3906
L 58.0156 17.1875
L 47.6094 17.1875
L 47.6094 0
L 37.7969 0
L 37.7969 17.1875
L 4.89062 17.1875
L 4.89062 26.7031
z 
" id="DejaVuSans-34"/>
            </defs>
            <g transform="translate(117.835833333 392.165)scale(0.16 -0.16)">
              <use xlink:href="#DejaVuSans-2212"/>
              <use x="83.7890625" xlink:href="#DejaVuSans-34"/>
            </g>
          </g>
        </g>
        <g id="xtick_4">
          <g id="line2d_11">
            <path clip-path="url(#pa82c4e93f3)" d="
M 171.25 373.5
L 171.25 18.5" style="fill:none;stroke:#000000;stroke-dasharray:1.000000,3.000000;stroke-dashoffset:0.0;stroke-linecap:butt;stroke-width:0.5;"/>
          </g>
          <g id="line2d_12">
            <g>
              <use style="stroke:#000000;stroke-linecap:butt;stroke-width:1.25;" x="171.25" xlink:href="#ma222041d45" y="373.5"/>
            </g>
          </g>
          <g id="line2d_13">
            <g>
              <use style="stroke:#000000;stroke-linecap:butt;stroke-width:1.25;" x="171.25" xlink:href="#mab2f347831" y="18.5"/>
            </g>
          </g>
          <g id="text_4">
            <!-- −3 -->
            <defs>
              <path d="
M 40.5781 39.3125
Q 47.6562 37.7969 51.625 33
Q 55.6094 28.2188 55.6094 21.1875
Q 55.6094 10.4062 48.1875 4.48438
Q 40.7656 -1.42188 27.0938 -1.42188
Q 22.5156 -1.42188 17.6562 -0.515625
Q 12.7969 0.390625 7.625 2.20312
L 7.625 11.7188
Q 11.7188 9.32812 16.5938 8.10938
Q 21.4844 6.89062 26.8125 6.89062
Q 36.0781 6.89062 40.9375 10.5469
Q 45.7969 14.2031 45.7969 21.1875
Q 45.7969 27.6406 41.2812 31.2656
Q 36.7656 34.9062 28.7188 34.9062
L 20.2188 34.9062
L 20.2188 43.0156
L 29.1094 43.0156
Q 36.375 43.0156 40.2344 45.9219
Q 44.0938 48.8281 44.0938 54.2969
Q 44.0938 59.9062 40.1094 62.9062
Q 36.1406 65.9219 28.7188 65.9219
Q 24.6562 65.9219 20.0156 65.0312
Q 15.375 64.1562 9.8125 62.3125
L 9.8125 71.0938
Q 15.4375 72.6562 20.3438 73.4375
Q 25.25 74.2188 29.5938 74.2188
Q 40.8281 74.2188 47.3594 69.1094
Q 53.9062 64.0156 53.9062 55.3281
Q 53.9062 49.2656 50.4375 45.0938
Q 46.9688 40.9219 40.5781 39.3125" id="DejaVuSans-33"/>
            </defs>
            <g transform="translate(160.945 392.375)scale(0.16 -0.16)">
              <use xlink:href="#DejaVuSans-2212"/>
              <use x="83.7890625" xlink:href="#DejaVuSans-33"/>
            </g>
          </g>
        </g>
        <g id="xtick_5">
          <g id="line2d_14">
            <path clip-path="url(#pa82c4e93f3)" d="
M 214.167 373.5
L 214.167 18.5" style="fill:none;stroke:#000000;stroke-dasharray:1.000000,3.000000;stroke-dashoffset:0.0;stroke-linecap:butt;stroke-width:0.5;"/>
          </g>
          <g id="line2d_15">
            <g>
              <use style="stroke:#000000;stroke-linecap:butt;stroke-width:1.25;" x="214.166666667" xlink:href="#ma222041d45" y="373.5"/>
            </g>
          </g>
          <g id="line2d_16">
            <g>
              <use style="stroke:#000000;stroke-linecap:butt;stroke-width:1.25;" x="214.166666667" xlink:href="#mab2f347831" y="18.5"/>
            </g>
          </g>
          <g id="text_5">
            <!-- −2 -->
            <defs>
              <path d="
M 19.1875 8.29688
L 53.6094 8.29688
L 53.6094 0
L 7.32812 0
L 7.32812 8.29688
Q 12.9375 14.1094 22.625 23.8906
Q 32.3281 33.6875 34.8125 36.5312
Q 39.5469 41.8438 41.4219 45.5312
Q 43.3125 49.2188 43.3125 52.7812
Q 43.3125 58.5938 39.2344 62.25
Q 35.1562 65.9219 28.6094 65.9219
Q 23.9688 65.9219 18.8125 64.3125
Q 13.6719 62.7031 7.8125 59.4219
L 7.8125 69.3906
Q 13.7656 71.7812 18.9375 73
Q 24.125 74.2188 28.4219 74.2188
Q 39.75 74.2188 46.4844 68.5469
Q 53.2188 62.8906 53.2188 53.4219
Q 53.2188 48.9219 51.5312 44.8906
Q 49.8594 40.875 45.4062 35.4062
Q 44.1875 33.9844 37.6406 27.2188
Q 31.1094 20.4531 19.1875 8.29688" id="DejaVuSans-32"/>
            </defs>
            <g transform="translate(204.021666667 392.375)scale(0.16 -0.16)">
              <use xlink:href="#DejaVuSans-2212"/>
              <use x="83.7890625" xlink:href="#DejaVuSans-32"/>
            </g>
          </g>
        </g>
        <g id="xtick_6">
          <g id="line2d_17">
            <path clip-path="url(#pa82c4e93f3)" d="
M 257.083 373.5
L 257.083 18.5" style="fill:none;stroke:#000000;stroke-dasharray:1.000000,3.000000;stroke-dashoffset:0.0;stroke-linecap:butt;stroke-width:0.5;"/>
          </g>
          <g id="line2d_18">
            <g>
              <use style="stroke:#000000;stroke-linecap:butt;stroke-width:1.25;" x="257.083333333" xlink:href="#ma222041d45" y="373.5"/>
            </g>
          </g>
          <g id="line2d_19">
            <g>
              <use style="stroke:#000000;stroke-linecap:butt;stroke-width:1.25;" x="257.083333333" xlink:href="#mab2f347831" y="18.5"/>
            </g>
          </g>
          <g id="text_6">
            <!-- −1 -->
            <defs>
              <path d="
M 12.4062 8.29688
L 28.5156 8.29688
L 28.5156 63.9219
L 10.9844 60.4062
L 10.9844 69.3906
L 28.4219 72.9062
L 38.2812 72.9062
L 38.2812 8.29688
L 54.3906 8.29688
L 54.3906 0
L 12.4062 0
z 
" id="DejaVuSans-31"/>
            </defs>
            <g transform="translate(246.875833333 392.165)scale(0.16 -0.16)">
              <use xlink:href="#DejaVuSans-2212"/>
              <use x="83.7890625" xlink:href="#DejaVuSans-31"/>
            </g>
          </g>
        </g>
        <g id="xtick_7">
          <g id="line2d_20">
            <path clip-path="url(#pa82c4e93f3)" d="
M 300 373.5
L 300 18.5" style="fill:none;stroke:#000000;stroke-dasharray:3.000000,1.000000;stroke-dashoffset:0.0;stroke-linecap:butt;stroke-width:0.5;"/>
          </g>
          <g id="line2d_21">
            <g>
              <use style="stroke:#000000;stroke-linecap:butt;stroke-width:1.25;" x="300.0" xlink:href="#ma222041d45" y="373.5"/>
            </g>
          </g>
          <g id="line2d_22">
            <g>
              <use style="stroke:#000000;stroke-linecap:butt;stroke-width:1.25;" x="300.0" xlink:href="#mab2f347831" y="18.5"/>
            </g>
          </g>
          <g id="text_7">
            <!-- 0 -->
            <defs>
              <path d="
M 31.7812 66.4062
Q 24.1719 66.4062 20.3281 58.9062
Q 16.5 51.4219 16.5 36.375
Q 16.5 21.3906 20.3281 13.8906
Q 24.1719 6.39062 31.7812 6.39062
Q 39.4531 6.39062 43.2812 13.8906
Q 47.125 21.3906 47.125 36.375
Q 47.125 51.4219 43.2812 58.9062
Q 39.4531 66.4062 31.7812 66.4062
M 31.7812 74.2188
Q 44.0469 74.2188 50.5156 64.5156
Q 56.9844 54.8281 56.9844 36.375
Q 56.9844 17.9688 50.5156 8.26562
Q 44.0469 -1.42188 31.7812 -1.42188
Q 19.5312 -1.42188 13.0625 8.26562
Q 6.59375 17.9688 6.59375 36.375
Q 6.59375 54.8281 13.0625 64.5156
Q 19.5312 74.2188 31.7812 74.2188" id="DejaVuSans-30"/>
            </defs>
            <g transform="translate(295.96875 392.375)scale(0.16 -0.16)">
              <use xlink:href="#DejaVuSans-30"/>
            </g>
          </g>
        </g>
        <g id="xtick_8">
          <g id="line2d_23">
            <path clip-path="url(#pa82c4e93f3)" d="
M 342.917 373.5
L 342.917 18.5" style="fill:none;stroke:#000000;stroke-dasharray:1.000000,3.000000;stroke-dashoffset:0.0;stroke-linecap:butt;stroke-width:0.5;"/>
          </g>
          <g id="line2d_24">
            <g>
              <use style="stroke:#000000;stroke-linecap:butt;stroke-width:1.25;" x="342.916666667" xlink:href="#ma222041d45" y="373.5"/>
            </g>
          </g>
          <g id="line2d_25">
            <g>
              <use style="stroke:#000000;stroke-linecap:butt;stroke-width:1.25;" x="342.916666667" xlink:href="#mab2f347831" y="18.5"/>
            </g>
          </g>
          <g id="text_8">
            <!-- 1 -->
            <g transform="translate(339.444166667 392.165)scale(0.16 -0.16)">
              <use xlink:href="#DejaVuSans-31"/>
            </g>
          </g>
        </g>
        <g id="xtick_9">
          <g id="line2d_26">
            <path clip-path="url(#pa82c4e93f3)" d="
M 385.833 373.5
L 385.833 18.5" style="fill:none;stroke:#000000;stroke-dasharray:1.000000,3.000000;stroke-dashoffset:0.0;stroke-linecap:butt;stroke-width:0.5;"/>
          </g>
          <g id="line2d_27">
            <g>
              <use style="stroke:#000000;stroke-linecap:butt;stroke-width:1.25;" x="385.833333333" xlink:href="#ma222041d45" y="373.5"/>
            </g>
          </g>
          <g id="line2d_28">
            <g>
              <use style="stroke:#000000;stroke-linecap:butt;stroke-width:1.25;" x="385.833333333" xlink:href="#mab2f347831" y="18.5"/>
            </g>
          </g>
          <g id="text_9">
            <!-- 2 -->
            <g transform="translate(382.130833333 392.375)scale(0.16 -0.16)">
              <use xlink:href="#DejaVuSans-32"/>
            </g>
          </g>
        </g>
        <g id="xtick_10">
          <g id="line2d_29">
            <path clip-path="url(#pa82c4e93f3)" d="
M 428.75 373.5
L 428.75 18.5" style="fill:none;stroke:#000000;stroke-dasharray:1.000000,3.000000;stroke-dashoffset:0.0;stroke-linecap:butt;stroke-width:0.5;"/>
          </g>
          <g id="line2d_30">
            <g>
              <use style="stroke:#000000;stroke-linecap:butt;stroke-width:1.25;" x="428.75" xlink:href="#ma222041d45" y="373.5"/>
            </g>
          </g>
          <g id="line2d_31">
            <g>
              <use style="stroke:#000000;stroke-linecap:butt;stroke-width:1.25;" x="428.75" xlink:href="#mab2f347831" y="18.5"/>
            </g>
          </g>
          <g id="text_10">
            <!-- 3 -->
            <g transform="translate(424.91125 392.375)scale(0.16 -0.16)">
              <use xlink:href="#DejaVuSans-33"/>
            </g>
          </g>
        </g>
        <g id="xtick_11">
          <g id="line2d_32">
            <path clip-path="url(#pa82c4e93f3)" d="
M 471.667 373.5
L 471.667 18.5" style="fill:none;stroke:#000000;stroke-dasharray:1.000000,3.000000;stroke-dashoffset:0.0;stroke-linecap:butt;stroke-width:0.5;"/>
          </g>
          <g id="line2d_33">
            <g>
              <use style="stroke:#000000;stroke-linecap:butt;stroke-width:1.25;" x="471.666666667" xlink:href="#ma222041d45" y="373.5"/>
            </g>
          </g>
          <g id="line2d_34">
            <g>
              <use style="stroke:#000000;stroke-linecap:butt;stroke-width:1.25;" x="471.666666667" xlink:href="#mab2f347831" y="18.5"/>
            </g>
          </g>
          <g id="text_11">
            <!-- 4 -->
            <g transform="translate(467.416666667 392.165)scale(0.16 -0.16)">
              <use xlink:href="#DejaVuSans-34"/>
            </g>
          </g>
        </g>
        <g id="xtick_12">
          <g id="line2d_35">
            <path clip-path="url(#pa82c4e93f3)" d="
M 514.583 373.5
L 514.583 18.5" style="fill:none;stroke:#000000;stroke-dasharray:1.000000,3.000000;stroke-dashoffset:0.0;stroke-linecap:butt;stroke-width:0.5;"/>
          </g>
          <g id="line2d_36">
            <g>
              <use style="stroke:#000000;stroke-linecap:butt;stroke-width:1.25;" x="514.583333333" xlink:href="#ma222041d45" y="373.5"/>
            </g>
          </g>
          <g id="line2d_37">
            <g>
              <use style="stroke:#000000;stroke-linecap:butt;stroke-width:1.25;" x="514.583333333" xlink:href="#mab2f347831" y="18.5"/>
            </g>
          </g>
          <g id="text_12">
            <!-- 5 -->
            <g transform="translate(510.809583333 392.165)scale(0.16 -0.16)">
              <use xlink:href="#DejaVuSans-35"/>
            </g>
          </g>
        </g>
        <g id="xtick_13">
          <g id="line2d_38">
            <path clip-path="url(#pa82c4e93f3)" d="
M 557.5 373.5
L 557.5 18.5" style="fill:none;stroke:#000000;stroke-dasharray:1.000000,3.000000;stroke-dashoffset:0.0;stroke-linecap:butt;stroke-width:0.5;"/>
          </g>
          <g id="line2d_39">
            <g>
              <use style="stroke:#000000;stroke-linecap:butt;stroke-width:1.25;" x="557.5" xlink:href="#ma222041d45" y="373.5"/>
            </g>
          </g>
          <g id="line2d_40">
            <g>
              <use style="stroke:#000000;stroke-linecap:butt;stroke-width:1.25;" x="557.5" xlink:href="#mab2f347831" y="18.5"/>
            </g>
          </g>
          <g id="text_13">
            <!-- 6 -->
            <g transform="translate(553.4725 392.375)scale(0.16 -0.16)">
              <use xlink:href="#DejaVuSans-36"/>
            </g>
          </g>
        </g>
      </g>
      <g id="matplotlib.axis_2">
        <g id="ytick_1">
          <g id="line2d_41">
            <path clip-path="url(#pa82c4e93f3)" d="
M 42.5 373.5
L 557.5 373.5" style="fill:none;stroke:#000000;stroke-dasharray:1.000000,3.000000;stroke-dashoffset:0.0;stroke-linecap:butt;stroke-width:0.5;"/>
          </g>
          <g id="line2d_42">
            <defs>
              <path d="
M 0 0
L 4 0" id="m1eb0c910b5" style="stroke:#000000;stroke-linecap:butt;stroke-width:1.25;"/>
            </defs>
            <g>
              <use style="stroke:#000000;stroke-linecap:butt;stroke-width:1.25;" x="42.5" xlink:href="#m1eb0c910b5" y="373.5"/>
            </g>
          </g>
          <g id="line2d_43">
            <defs>
              <path d="
M 0 0
L -4 0" id="mb63a56c30e" style="stroke:#000000;stroke-linecap:butt;stroke-width:1.25;"/>
            </defs>
            <g>
              <use style="stroke:#000000;stroke-linecap:butt;stroke-width:1.25;" x="557.5" xlink:href="#mb63a56c30e" y="373.5"/>
            </g>
          </g>
          <g id="text_14">
            <!-- −0.2 -->
            <defs>
              <path d="
M 10.6875 12.4062
L 21 12.4062
L 21 0
L 10.6875 0
z 
" id="DejaVuSans-2e"/>
            </defs>
            <g transform="translate(-0.055 379.32375)scale(0.16 -0.16)">
              <use xlink:href="#DejaVuSans-2212"/>
              <use x="83.7890625" xlink:href="#DejaVuSans-30"/>
              <use x="147.412109375" xlink:href="#DejaVuSans-2e"/>
              <use x="179.19921875" xlink:href="#DejaVuSans-32"/>
            </g>
          </g>
        </g>
        <g id="ytick_2">
          <g id="line2d_44">
            <path clip-path="url(#pa82c4e93f3)" d="
M 42.5 322.786
L 557.5 322.786" style="fill:none;stroke:#000000;stroke-dasharray:3.000000,1.000000;stroke-dashoffset:0.0;stroke-linecap:butt;stroke-width:0.5;"/>
          </g>
          <g id="line2d_45">
            <g>
              <use style="stroke:#000000;stroke-linecap:butt;stroke-width:1.25;" x="42.5" xlink:href="#m1eb0c910b5" y="322.785714286"/>
            </g>
          </g>
          <g id="line2d_46">
            <g>
              <use style="stroke:#000000;stroke-linecap:butt;stroke-width:1.25;" x="557.5" xlink:href="#mb63a56c30e" y="322.785714286"/>
            </g>
          </g>
          <g id="text_15">
            <!-- 0.0 -->
            <g transform="translate(12.1725 328.609464286)scale(0.16 -0.16)">
              <use xlink:href="#DejaVuSans-30"/>
              <use x="63.623046875" xlink:href="#DejaVuSans-2e"/>
              <use x="95.41015625" xlink:href="#DejaVuSans-30"/>
            </g>
          </g>
        </g>
        <g id="ytick_3">
          <g id="line2d_47">
            <path clip-path="url(#pa82c4e93f3)" d="
M 42.5 272.071
L 557.5 272.071" style="fill:none;stroke:#000000;stroke-dasharray:1.000000,3.000000;stroke-dashoffset:0.0;stroke-linecap:butt;stroke-width:0.5;"/>
          </g>
          <g id="line2d_48">
            <g>
              <use style="stroke:#000000;stroke-linecap:butt;stroke-width:1.25;" x="42.5" xlink:href="#m1eb0c910b5" y="272.071428572"/>
            </g>
          </g>
          <g id="line2d_49">
            <g>
              <use style="stroke:#000000;stroke-linecap:butt;stroke-width:1.25;" x="557.5" xlink:href="#mb63a56c30e" y="272.071428572"/>
            </g>
          </g>
          <g id="text_16">
            <!-- 0.2 -->
            <g transform="translate(12.7125 277.895178572)scale(0.16 -0.16)">
              <use xlink:href="#DejaVuSans-30"/>
              <use x="63.623046875" xlink:href="#DejaVuSans-2e"/>
              <use x="95.41015625" xlink:href="#DejaVuSans-32"/>
            </g>
          </g>
        </g>
        <g id="ytick_4">
          <g id="line2d_50">
            <path clip-path="url(#pa82c4e93f3)" d="
M 42.5 221.357
L 557.5 221.357" style="fill:none;stroke:#000000;stroke-dasharray:1.000000,3.000000;stroke-dashoffset:0.0;stroke-linecap:butt;stroke-width:0.5;"/>
          </g>
          <g id="line2d_51">
            <g>
              <use style="stroke:#000000;stroke-linecap:butt;stroke-width:1.25;" x="42.5" xlink:href="#m1eb0c910b5" y="221.357142857"/>
            </g>
          </g>
          <g id="line2d_52">
            <g>
              <use style="stroke:#000000;stroke-linecap:butt;stroke-width:1.25;" x="557.5" xlink:href="#mb63a56c30e" y="221.357142857"/>
            </g>
          </g>
          <g id="text_17">
            <!-- 0.4 -->
            <g transform="translate(12.0075 227.180892857)scale(0.16 -0.16)">
              <use xlink:href="#DejaVuSans-30"/>
              <use x="63.623046875" xlink:href="#DejaVuSans-2e"/>
              <use x="95.41015625" xlink:href="#DejaVuSans-34"/>
            </g>
          </g>
        </g>
        <g id="ytick_5">
          <g id="line2d_53">
            <path clip-path="url(#pa82c4e93f3)" d="
M 42.5 170.643
L 557.5 170.643" style="fill:none;stroke:#000000;stroke-dasharray:1.000000,3.000000;stroke-dashoffset:0.0;stroke-linecap:butt;stroke-width:0.5;"/>
          </g>
          <g id="line2d_54">
            <g>
              <use style="stroke:#000000;stroke-linecap:butt;stroke-width:1.25;" x="42.5" xlink:href="#m1eb0c910b5" y="170.642857143"/>
            </g>
          </g>
          <g id="line2d_55">
            <g>
              <use style="stroke:#000000;stroke-linecap:butt;stroke-width:1.25;" x="557.5" xlink:href="#mb63a56c30e" y="170.642857143"/>
            </g>
          </g>
          <g id="text_18">
            <!-- 0.6 -->
            <g transform="translate(12.1175 176.466607143)scale(0.16 -0.16)">
              <use xlink:href="#DejaVuSans-30"/>
              <use x="63.623046875" xlink:href="#DejaVuSans-2e"/>
              <use x="95.41015625" xlink:href="#DejaVuSans-36"/>
            </g>
          </g>
        </g>
        <g id="ytick_6">
          <g id="line2d_56">
            <path clip-path="url(#pa82c4e93f3)" d="
M 42.5 119.929
L 557.5 119.929" style="fill:none;stroke:#000000;stroke-dasharray:1.000000,3.000000;stroke-dashoffset:0.0;stroke-linecap:butt;stroke-width:0.5;"/>
          </g>
          <g id="line2d_57">
            <g>
              <use style="stroke:#000000;stroke-linecap:butt;stroke-width:1.25;" x="42.5" xlink:href="#m1eb0c910b5" y="119.928571429"/>
            </g>
          </g>
          <g id="line2d_58">
            <g>
              <use style="stroke:#000000;stroke-linecap:butt;stroke-width:1.25;" x="557.5" xlink:href="#mb63a56c30e" y="119.928571429"/>
            </g>
          </g>
          <g id="text_19">
            <!-- 0.8 -->
            <defs>
              <path d="
M 31.7812 34.625
Q 24.75 34.625 20.7188 30.8594
Q 16.7031 27.0938 16.7031 20.5156
Q 16.7031 13.9219 20.7188 10.1562
Q 24.75 6.39062 31.7812 6.39062
Q 38.8125 6.39062 42.8594 10.1719
Q 46.9219 13.9688 46.9219 20.5156
Q 46.9219 27.0938 42.8906 30.8594
Q 38.875 34.625 31.7812 34.625
M 21.9219 38.8125
Q 15.5781 40.375 12.0312 44.7188
Q 8.5 49.0781 8.5 55.3281
Q 8.5 64.0625 14.7188 69.1406
Q 20.9531 74.2188 31.7812 74.2188
Q 42.6719 74.2188 48.875 69.1406
Q 55.0781 64.0625 55.0781 55.3281
Q 55.0781 49.0781 51.5312 44.7188
Q 48 40.375 41.7031 38.8125
Q 48.8281 37.1562 52.7969 32.3125
Q 56.7812 27.4844 56.7812 20.5156
Q 56.7812 9.90625 50.3125 4.23438
Q 43.8438 -1.42188 31.7812 -1.42188
Q 19.7344 -1.42188 13.25 4.23438
Q 6.78125 9.90625 6.78125 20.5156
Q 6.78125 27.4844 10.7812 32.3125
Q 14.7969 37.1562 21.9219 38.8125
M 18.3125 54.3906
Q 18.3125 48.7344 21.8438 45.5625
Q 25.3906 42.3906 31.7812 42.3906
Q 38.1406 42.3906 41.7188 45.5625
Q 45.3125 48.7344 45.3125 54.3906
Q 45.3125 60.0625 41.7188 63.2344
Q 38.1406 66.4062 31.7812 66.4062
Q 25.3906 66.4062 21.8438 63.2344
Q 18.3125 60.0625 18.3125 54.3906" id="DejaVuSans-38"/>
            </defs>
            <g transform="translate(12.205 125.752321429)scale(0.16 -0.16)">
              <use xlink:href="#DejaVuSans-30"/>
              <use x="63.623046875" xlink:href="#DejaVuSans-2e"/>
              <use x="95.41015625" xlink:href="#DejaVuSans-38"/>
            </g>
          </g>
        </g>
        <g id="ytick_7">
          <g id="line2d_59">
            <path clip-path="url(#pa82c4e93f3)" d="
M 42.5 69.2143
L 557.5 69.2143" style="fill:none;stroke:#000000;stroke-dasharray:1.000000,3.000000;stroke-dashoffset:0.0;stroke-linecap:butt;stroke-width:0.5;"/>
          </g>
          <g id="line2d_60">
            <g>
              <use style="stroke:#000000;stroke-linecap:butt;stroke-width:1.25;" x="42.5" xlink:href="#m1eb0c910b5" y="69.2142857145"/>
            </g>
          </g>
          <g id="line2d_61">
            <g>
              <use style="stroke:#000000;stroke-linecap:butt;stroke-width:1.25;" x="557.5" xlink:href="#mb63a56c30e" y="69.2142857145"/>
            </g>
          </g>
          <g id="text_20">
            <!-- 1.0 -->
            <g transform="translate(12.875 75.0380357145)scale(0.16 -0.16)">
              <use xlink:href="#DejaVuSans-31"/>
              <use x="63.623046875" xlink:href="#DejaVuSans-2e"/>
              <use x="95.41015625" xlink:href="#DejaVuSans-30"/>
            </g>
          </g>
        </g>
        <g id="ytick_8">
          <g id="line2d_62">
            <path clip-path="url(#pa82c4e93f3)" d="
M 42.5 18.5
L 557.5 18.5" style="fill:none;stroke:#000000;stroke-dasharray:1.000000,3.000000;stroke-dashoffset:0.0;stroke-linecap:butt;stroke-width:0.5;"/>
          </g>
          <g id="line2d_63">
            <g>
              <use style="stroke:#000000;stroke-linecap:butt;stroke-width:1.25;" x="42.5" xlink:href="#m1eb0c910b5" y="18.5000000003"/>
            </g>
          </g>
          <g id="line2d_64">
            <g>
              <use style="stroke:#000000;stroke-linecap:butt;stroke-width:1.25;" x="557.5" xlink:href="#mb63a56c30e" y="18.5000000003"/>
            </g>
          </g>
          <g id="text_21">
            <!-- 1.2 -->
            <g transform="translate(13.415 24.4375000003)scale(0.16 -0.16)">
              <use xlink:href="#DejaVuSans-31"/>
              <use x="63.623046875" xlink:href="#DejaVuSans-2e"/>
              <use x="95.41015625" xlink:href="#DejaVuSans-32"/>
            </g>
          </g>
        </g>
      </g>
      <g id="patch_3">
        <path d="
M 42.5 18.5
L 557.5 18.5" style="fill:none;stroke:#000000;stroke-width:1.25;"/>
      </g>
      <g id="patch_4">
        <path d="
M 557.5 373.5
L 557.5 18.5" style="fill:none;stroke:#000000;stroke-width:1.25;"/>
      </g>
      <g id="patch_5">
        <path d="
M 42.5 373.5
L 557.5 373.5" style="fill:none;stroke:#000000;stroke-width:1.25;"/>
      </g>
      <g id="patch_6">
        <path d="
M 42.5 373.5
L 42.5 18.5" style="fill:none;stroke:#000000;stroke-width:1.25;"/>
      </g>
      <g id="legend_1">
        <g id="patch_7">
          <path d="
M 360.892 82.82
L 528.7 82.82
L 528.7 47.3
L 360.892 47.3
L 360.892 82.82
z 
" style="fill:#ffffff;opacity:0.9;stroke:#000000;"/>
        </g>
        <g id="line2d_65">
          <path d="
M 374.332 65.732
L 401.212 65.732" style="fill:none;stroke:#0000cc;stroke-width:2.4;"/>
        </g>
        <g id="line2d_66"/>
        <g id="text_22">
          <!-- $1\,/\,(1 + x^2\!)$ -->
          <defs>
            <path d="
M 46 62.7031
L 46 35.5
L 73.1875 35.5
L 73.1875 27.2031
L 46 27.2031
L 46 0
L 37.7969 0
L 37.7969 27.2031
L 10.5938 27.2031
L 10.5938 35.5
L 37.7969 35.5
L 37.7969 62.7031
z 
" id="DejaVuSans-2b"/>
            <path d="
M 31 75.875
Q 24.4688 64.6562 21.2812 53.6562
Q 18.1094 42.6719 18.1094 31.3906
Q 18.1094 20.125 21.3125 9.0625
Q 24.5156 -2 31 -13.1875
L 23.1875 -13.1875
Q 15.875 -1.70312 12.2344 9.375
Q 8.59375 20.4531 8.59375 31.3906
Q 8.59375 42.2812 12.2031 53.3125
Q 15.8281 64.3594 23.1875 75.875
z 
" id="DejaVuSans-28"/>
            <path d="
M 8.01562 75.875
L 15.8281 75.875
Q 23.1406 64.3594 26.7812 53.3125
Q 30.4219 42.2812 30.4219 31.3906
Q 30.4219 20.4531 26.7812 9.375
Q 23.1406 -1.70312 15.8281 -13.1875
L 8.01562 -13.1875
Q 14.5 -2 17.7031 9.0625
Q 20.9062 20.125 20.9062 31.3906
Q 20.9062 42.6719 17.7031 53.6562
Q 14.5 64.6562 8.01562 75.875" id="DejaVuSans-29"/>
            <path d="
M 25.3906 72.9062
L 33.6875 72.9062
L 8.29688 -9.28125
L 0 -9.28125
z 
" id="DejaVuSans-2f"/>
            <path d="
M 54.8906 54.6875
L 35.1094 28.0781
L 55.9062 0
L 45.3125 0
L 29.3906 21.4844
L 13.4844 0
L 2.875 0
L 24.125 28.6094
L 4.6875 54.6875
L 15.2812 54.6875
L 29.7812 35.2031
L 44.2812 54.6875
z 
" id="DejaVuSans-78"/>
          </defs>
          <g transform="translate(422.332 75.14)scale(0.192 -0.192)">
            <use transform="translate(0.0 14.765625)" xlink:href="#DejaVuSans-31"/>
            <use transform="translate(102.587890625 14.765625)" xlink:href="#DejaVuSans-2f"/>
            <use transform="translate(175.244140625 14.765625)" xlink:href="#DejaVuSans-28"/>
            <use transform="translate(214.2578125 14.765625)" xlink:href="#DejaVuSans-31"/>
            <use transform="translate(297.36328125 14.765625)" xlink:href="#DejaVuSans-2b"/>
            <use transform="translate(379.439453125 14.765625)" xlink:href="#DejaVuSans-78"/>
            <use transform="translate(438.619140625 53.046875)scale(0.7)" xlink:href="#DejaVuSans-32"/>
            <use transform="translate(474.21484375 14.765625)" xlink:href="#DejaVuSans-29"/>
          </g>
        </g>
      </g>
    </g>
  </g>
</svg>
