<?xml version="1.0" encoding="UTF-8" standalone="no"?>
<!-- Created with Inkscape (http://www.inkscape.org/) -->

<svg
   xmlns:dc="http://purl.org/dc/elements/1.1/"
   xmlns:cc="http://creativecommons.org/ns#"
   xmlns:rdf="http://www.w3.org/1999/02/22-rdf-syntax-ns#"
   xmlns:svg="http://www.w3.org/2000/svg"
   xmlns="http://www.w3.org/2000/svg"
   xmlns:sodipodi="http://sodipodi.sourceforge.net/DTD/sodipodi-0.dtd"
   xmlns:inkscape="http://www.inkscape.org/namespaces/inkscape"
   width="545.23566"
   height="302.38889"
   viewBox="0 0 545.23566 302.3889"
   id="svg2"
   version="1.1"
   inkscape:version="0.91 r13725"
   sodipodi:docname="Continous_function_with_two_different_Delta_neighborhoods.svg">
  <sodipodi:namedview
     id="base"
     pagecolor="#ffffff"
     bordercolor="#666666"
     borderopacity="1.0"
     inkscape:pageopacity="0.0"
     inkscape:pageshadow="2"
     inkscape:zoom="1.0911641"
     inkscape:cx="70.913996"
     inkscape:cy="146.13272"
     inkscape:document-units="px"
     inkscape:current-layer="layer5"
     showgrid="false"
     units="px"
     fit-margin-top="10"
     fit-margin-right="10"
     fit-margin-bottom="10"
     fit-margin-left="10"
     inkscape:window-width="1920"
     inkscape:window-height="503"
     inkscape:window-x="0"
     inkscape:window-y="0"
     inkscape:window-maximized="0"
     showguides="true"
     inkscape:guide-bbox="true" />
  <defs
     id="defs4">
    <marker
       inkscape:isstock="true"
       style="overflow:visible"
       id="marker5295"
       refX="0"
       refY="0"
       orient="auto"
       inkscape:stockid="Arrow1Mend">
      <path
         transform="matrix(-0.4,0,0,-0.4,-4,0)"
         style="fill:#000000;fill-opacity:1;fill-rule:evenodd;stroke:#000000;stroke-width:1pt;stroke-opacity:1"
         d="M 0,0 5,-5 -12.5,0 5,5 0,0 Z"
         id="path5297"
         inkscape:connector-curvature="0" />
    </marker>
    <marker
       inkscape:stockid="Arrow1Mend"
       orient="auto"
       refY="0"
       refX="0"
       id="Arrow1Mend"
       style="overflow:visible"
       inkscape:isstock="true"
       inkscape:collect="always">
      <path
         id="path4701"
         d="M 0,0 5,-5 -12.5,0 5,5 0,0 Z"
         style="fill:#000000;fill-opacity:1;fill-rule:evenodd;stroke:#000000;stroke-width:1pt;stroke-opacity:1"
         transform="matrix(-0.4,0,0,-0.4,-4,0)"
         inkscape:connector-curvature="0" />
    </marker>
    <marker
       inkscape:isstock="true"
       style="overflow:visible"
       id="marker4974"
       refX="0"
       refY="0"
       orient="auto"
       inkscape:stockid="Arrow1Lend">
      <path
         transform="matrix(-0.8,0,0,-0.8,-10,0)"
         style="fill:#000000;fill-opacity:1;fill-rule:evenodd;stroke:#000000;stroke-width:1pt;stroke-opacity:1"
         d="M 0,0 5,-5 -12.5,0 5,5 0,0 Z"
         id="path4976"
         inkscape:connector-curvature="0" />
    </marker>
  </defs>
  <metadata
     id="metadata7">
    <rdf:RDF>
      <cc:Work
         rdf:about="">
        <dc:format>image/svg+xml</dc:format>
        <dc:type
           rdf:resource="http://purl.org/dc/dcmitype/StillImage" />
        <dc:title></dc:title>
      </cc:Work>
    </rdf:RDF>
  </metadata>
  <g
     inkscape:groupmode="layer"
     id="layer4"
     inkscape:label="Epsilon Grey Area 0"
     style="display:inline"
     transform="translate(81.437079,47.432432)">
    <rect
       style="fill:#ececec;stroke:none;stroke-width:0.40000001;stroke-miterlimit:4;stroke-dasharray:none;stroke-dashoffset:0"
       id="rect5162"
       width="395.59512"
       height="51.329739"
       x="17.173985"
       y="137.41751" />
  </g>
  <g
     inkscape:groupmode="layer"
     id="layer6"
     inkscape:label="Epsilon Grey Area 1"
     transform="translate(12.646302,5.0008682)"
     style="display:inline">
    <rect
       style="display:inline;fill:#ececec;stroke:none;stroke-width:0.40000001;stroke-miterlimit:4;stroke-dasharray:none;stroke-dashoffset:0"
       id="rect5162-1"
       width="395.71738"
       height="55.2094"
       x="86.705505"
       y="69.469574" />
  </g>
  <g
     inkscape:groupmode="layer"
     id="layer8"
     inkscape:label="Axes"
     transform="translate(81.437079,47.432432)"
     style="display:inline;opacity:0.97000002">
    <path
       style="display:inline;fill:none;fill-rule:evenodd;stroke:#000000;stroke-width:2.43300009;stroke-linecap:butt;stroke-linejoin:miter;stroke-miterlimit:4;stroke-dasharray:none;stroke-opacity:1;marker-end:url(#Arrow1Mend)"
       d="m 17.384337,244.95644 0,-277.741808"
       id="path4684"
       inkscape:connector-curvature="0"
       sodipodi:nodetypes="cc" />
    <path
       style="display:inline;fill:none;fill-rule:evenodd;stroke:#000000;stroke-width:2.43300009;stroke-linecap:butt;stroke-linejoin:miter;stroke-miterlimit:4;stroke-dasharray:none;stroke-opacity:1;marker-end:url(#marker5295)"
       d="m -11.544349,204.04818 460.695869,0"
       id="path4686"
       inkscape:connector-curvature="0"
       sodipodi:nodetypes="cc" />
  </g>
  <g
     inkscape:label="Function"
     inkscape:groupmode="layer"
     id="layer1"
     transform="translate(83.74218,-837.27427)"
     style="display:inline">
    <path
       style="fill:none;fill-rule:evenodd;stroke:#000000;stroke-width:2.52997971px;stroke-linecap:round;stroke-linejoin:miter;stroke-opacity:1"
       d="M 410.47697,869.10068 C 297.34858,1052.0013 39.134287,1060.232 14.895845,1080.6133 c -24.2384418,20.3813 -25.452074,27.4874 -28.447662,32.6953"
       id="path5002"
       inkscape:connector-curvature="0"
       sodipodi:nodetypes="czc" />
  </g>
  <g
     inkscape:groupmode="layer"
     id="layer3"
     inkscape:label="Epsilon 0"
     style="display:inline"
     transform="translate(81.437079,47.432432)">
    <path
       style="fill:none;fill-rule:evenodd;stroke:#000000;stroke-width:1.01199186;stroke-linecap:butt;stroke-linejoin:miter;stroke-miterlimit:4;stroke-dasharray:none;stroke-opacity:1"
       d="m 17.494188,189.08072 395.286942,0"
       id="path5145"
       inkscape:connector-curvature="0"
       sodipodi:nodetypes="cc" />
    <path
       style="fill:none;fill-rule:evenodd;stroke:#000000;stroke-width:1.01199186;stroke-linecap:butt;stroke-linejoin:miter;stroke-miterlimit:4;stroke-dasharray:none;stroke-opacity:1"
       d="m 17.339708,136.93497 395.143822,0"
       id="path5145-7"
       inkscape:connector-curvature="0"
       sodipodi:nodetypes="cc" />
    <g
       id="g22435"
       transform="translate(-475.45206,-31.392376)"
       style="display:inline;stroke-width:0.30000001;stroke-miterlimit:4;stroke-dasharray:none">
      <g
         id="g22437"
         transform="matrix(0.41769841,0,0,-0.41769841,-73.097222,370.19918)"
         xml:space="preserve"
         stroke-miterlimit="10.433"
         font-style="normal"
         font-variant="normal"
         font-weight="normal"
         font-stretch="normal"
         font-size-adjust="none"
         letter-spacing="normal"
         word-spacing="normal"
         style="font-style:normal;font-variant:normal;font-weight:normal;font-stretch:normal;letter-spacing:normal;word-spacing:normal;text-anchor:start;fill:none;fill-opacity:1;fill-rule:evenodd;stroke:#000000;stroke-width:0.71822155;stroke-linecap:butt;stroke-linejoin:miter;stroke-miterlimit:4;stroke-dasharray:none;stroke-dashoffset:0;stroke-opacity:1"><path
           d="m 1158.3,365.93 4.3,0 c 1,0 1.5,0 1.5,0.99 0,0.55 -0.5,0.55 -1.4,0.55 l -4.1,0 1,5.68 c 0.2,1.05 0.9,4.58 1.2,5.18 0.5,0.94 1.3,1.69 2.4,1.69 0.2,0 1.5,0 2.4,-0.9 -2.2,-0.19 -2.7,-1.94 -2.7,-2.68 0,-1.15 0.9,-1.75 1.9,-1.75 1.3,0 2.7,1.1 2.7,2.99 0,2.29 -2.3,3.44 -4.3,3.44 -1.7,0 -4.9,-0.9 -6.4,-5.83 -0.3,-1.05 -0.4,-1.54 -1.6,-7.82 l -3.4,0 c -1,0 -1.5,0 -1.5,-0.95 0,-0.59 0.4,-0.59 1.4,-0.59 l 3.2,0 -3.7,-19.68 c -0.9,-4.83 -1.7,-9.37 -4.3,-9.37 -0.2,0 -1.5,0 -2.4,0.9 2.3,0.15 2.7,1.94 2.7,2.69 0,1.15 -0.9,1.74 -1.8,1.74 -1.3,0 -2.8,-1.09 -2.8,-2.98 0,-2.25 2.2,-3.44 4.3,-3.44 2.7,0 4.7,2.94 5.6,4.83 1.6,3.14 2.7,9.17 2.8,9.51 z"
           id="path22439"
           inkscape:connector-curvature="0"
           style="fill:#000000;stroke-width:0.71822155;stroke-miterlimit:4;stroke-dasharray:none" /><path
           d="m 1186.5,334.04 0,0.03 0,0.03 0,0.01 0,0.02 0,0.01 0,0.02 0,0.02 0,0.01 0,0.02 -0.1,0.02 0,0.03 0,0.02 0,0.02 0,0.03 0,0.03 -0.1,0.03 0,0.03 0,0.04 0,0.02 -0.1,0.02 0,0.02 0,0.02 0,0.02 0,0.03 0,0.02 -0.1,0.02 0,0.03 0,0.02 0,0.03 -0.1,0.03 0,0.03 0,0.03 0,0.03 -0.1,0.03 0,0.03 0,0.03 -0.1,0.04 0,0.03 0,0.04 -0.1,0.03 0,0.04 -0.1,0.04 c -6.2,6.28 -7.8,15.69 -7.8,23.31 0,8.67 1.9,17.34 8,23.57 0.7,0.59 0.7,0.69 0.7,0.84 0,0.35 -0.2,0.5 -0.5,0.5 -0.5,0 -5,-3.39 -7.9,-9.72 -2.6,-5.47 -3.2,-11 -3.2,-15.19 0,-3.88 0.6,-9.91 3.3,-15.54 3,-6.12 7.3,-9.36 7.8,-9.36 0.3,0 0.5,0.15 0.5,0.49 z"
           id="path22441"
           inkscape:connector-curvature="0"
           style="fill:#000000;stroke-width:0.71822155;stroke-miterlimit:4;stroke-dasharray:none" /><path
           d="m 1205.6,361.04 0.1,0.13 0,0.15 0,0.17 0.1,0.18 0,0.19 0.1,0.21 0.1,0.21 0,0.23 0.1,0.23 0.1,0.24 0.1,0.25 0.1,0.24 0.1,0.25 0.1,0.25 0.2,0.25 0.1,0.25 0.2,0.24 0.1,0.24 0.2,0.23 0.2,0.22 0.1,0.22 0.2,0.2 0.2,0.19 0.3,0.18 0.2,0.16 0.2,0.14 0.2,0.07 0.1,0.06 0.1,0.05 0.2,0.05 0.1,0.05 0.1,0.04 0.2,0.03 0.1,0.03 0.2,0.02 0.1,0.02 0.2,0.01 0.2,0 c 0.2,0 1.4,0 2.5,-0.65 -1.4,-0.25 -2.4,-1.49 -2.4,-2.68 0,-0.8 0.5,-1.75 1.9,-1.75 1.1,0 2.6,0.9 2.6,2.89 0,2.59 -2.9,3.29 -4.6,3.29 -2.9,0 -4.6,-2.64 -5.2,-3.79 -1.3,3.29 -4,3.79 -5.4,3.79 -5.2,0 -8,-6.43 -8,-7.67 0,-0.5 0.5,-0.5 0.6,-0.5 0.4,0 0.5,0.1 0.6,0.54 1.7,5.29 5,6.53 6.7,6.53 1,0 2.7,-0.45 2.7,-3.33 0,-1.55 -0.8,-4.89 -2.7,-11.86 -0.8,-3.09 -2.5,-5.18 -4.7,-5.18 -0.3,0 -1.5,0 -2.5,0.65 1.2,0.25 2.3,1.29 2.3,2.69 0,1.34 -1.1,1.74 -1.8,1.74 -1.5,0 -2.8,-1.3 -2.8,-2.89 0,-2.29 2.5,-3.29 4.7,-3.29 3.3,0 5.1,3.49 5.3,3.79 0.6,-1.85 2.4,-3.79 5.3,-3.79 5.2,0 8,6.43 8,7.67 0,0.5 -0.4,0.5 -0.6,0.5 -0.4,0 -0.5,-0.2 -0.6,-0.55 -1.7,-5.33 -5.1,-6.52 -6.7,-6.52 -1.9,0 -2.7,1.59 -2.7,3.29 0,1.09 0.3,2.19 0.8,4.38 z"
           id="path22443"
           inkscape:connector-curvature="0"
           style="fill:#000000;stroke-width:0.71822155;stroke-miterlimit:4;stroke-dasharray:none" /><path
           d="m 1235,350.12 0,0.71 0,0.68 -0.1,0.66 0,0.64 -0.1,0.62 0,0.59 -0.1,0.58 -0.1,0.56 -0.2,0.55 -0.1,0.53 -0.2,0.51 -0.2,0.5 -0.2,0.49 -0.2,0.48 -0.3,0.47 -0.1,0.24 -0.2,0.23 c -1,1.6 -3.2,2.99 -6,2.99 l 0,-0.97 c 1.9,0 3.7,-1.15 4.3,-3.18 0.6,-1.88 0.6,-4.39 0.6,-7.42 0,-2.58 0,-5.17 -0.4,-7.36 -0.7,-3.17 -3.1,-3.94 -4.5,-3.94 l 0,0 c -1.6,0 -3.7,0.94 -4.4,3.8 -0.5,2.06 -0.5,4.92 -0.5,7.5 0,2.54 0,5.19 0.5,7.11 0.7,2.76 3,3.49 4.4,3.49 l 0,0.97 c -8.1,0 -8.1,-9.52 -8.1,-12.03 0,-2.51 0,-11.82 8.1,-11.82 8.1,0 8.1,9.31 8.1,11.82 z"
           id="path22445"
           inkscape:connector-curvature="0"
           style="fill:#000000;stroke-width:0.71822155;stroke-miterlimit:4;stroke-dasharray:none" /><path
           d="m 1254.4,358.45 0,0.37 0,0.39 0,0.39 0,0.41 -0.1,0.84 0,0.88 -0.1,0.92 -0.1,0.94 -0.2,0.98 -0.1,1 -0.2,1.02 -0.2,1.04 -0.3,1.05 -0.3,1.06 -0.4,1.06 -0.4,1.07 -0.2,0.53 -0.2,0.54 -0.2,0.53 -0.3,0.53 c -3,6.12 -7.3,9.36 -7.8,9.36 -0.3,0 -0.5,-0.2 -0.5,-0.5 0,-0.15 0,-0.25 1,-1.15 4.9,-4.92 7.7,-12.85 7.7,-23.26 0,-8.52 -1.8,-17.28 -8,-23.56 -0.7,-0.6 -0.7,-0.69 -0.7,-0.85 0,-0.29 0.2,-0.49 0.5,-0.49 0.5,0 5,3.38 8,9.71 2.5,5.48 3.1,11.01 3.1,15.19 z"
           id="path22447"
           inkscape:connector-curvature="0"
           style="fill:#000000;stroke-width:0.71822155;stroke-miterlimit:4;stroke-dasharray:none" /><path
           d="m 1302.8,357.46 0.2,0 0.1,0 0.2,0 0.1,0.01 0.1,0 0,0.01 0.1,0.01 0.1,0.01 0,0.01 0.1,0.01 0.1,0.02 0.1,0.02 0,0.02 0.1,0.03 0,0.02 0.1,0.04 0,0.03 0.1,0.04 0,0.04 0.1,0.05 0,0.05 0,0.02 0.1,0.03 0,0.03 0,0.03 0,0.03 0,0.04 0,0.03 0,0.03 0,0.04 0,0.04 0.1,0.04 0,0.04 0,0.04 0,0.04 0,0.05 0,0.04 c 0,1 -0.9,1 -1.8,1 l -26.9,0 c -0.9,0 -1.8,0 -1.8,-1 0,-0.99 0.9,-0.99 1.8,-0.99 z"
           id="path22449"
           inkscape:connector-curvature="0"
           style="fill:#000000;stroke-width:0.71822155;stroke-miterlimit:4;stroke-dasharray:none" /><path
           d="m 1334.8,357.26 0.2,0 0.1,0 0.2,0 0.1,0.01 0,0 0.1,0.01 0.1,0 0.1,0.01 0,0.01 0.1,0.01 0.1,0.02 0,0.02 0.1,0.01 0,0.02 0.1,0.03 0.1,0.03 0,0.02 0.1,0.04 0,0.03 0,0.04 0.1,0.05 0,0.04 0,0.03 0.1,0.02 0,0.03 0,0.03 0,0.03 0,0.03 0,0.03 0,0.03 0,0.03 0,0.04 0,0.03 0,0.04 0,0.04 0,0.04 c 0,0.69 -0.6,0.69 -1.4,0.69 l -8.1,0 c 1.2,4.24 4,7.13 8.5,7.13 l 1.6,0 c 0.8,0 1.6,0 1.6,0.84 0,0.7 -0.6,0.7 -1.5,0.7 l -1.7,0 c -6.5,0 -13.2,-4.98 -13.2,-12.6 0,-5.48 3.8,-9.42 9.1,-9.42 3.2,0 6.4,2 6.4,2.54 0,0.15 0,0.7 -0.5,0.7 -0.1,0 -0.2,0 -0.6,-0.3 -1.6,-1 -3.4,-1.84 -5.2,-1.84 -2.9,0 -5.4,2.09 -5.4,6.47 0,1.75 0.4,3.64 0.5,4.24 z"
           id="path22451"
           inkscape:connector-curvature="0"
           style="fill:#000000;stroke-width:0.71822155;stroke-miterlimit:4;stroke-dasharray:none" /></g>    </g>
    <g
       id="g22685"
       transform="translate(-475.45206,-83.538126)"
       style="display:inline;stroke-width:0.30000001;stroke-miterlimit:4;stroke-dasharray:none">
      <g
         word-spacing="normal"
         letter-spacing="normal"
         font-size-adjust="none"
         font-stretch="normal"
         font-weight="normal"
         font-variant="normal"
         font-style="normal"
         stroke-miterlimit="10.433"
         xml:space="preserve"
         transform="matrix(0.41769841,0,0,-0.41769841,-73.097222,370.19918)"
         id="g22687"
         style="font-style:normal;font-variant:normal;font-weight:normal;font-stretch:normal;letter-spacing:normal;word-spacing:normal;text-anchor:start;fill:none;fill-opacity:1;fill-rule:evenodd;stroke:#000000;stroke-width:0.71822155;stroke-linecap:butt;stroke-linejoin:miter;stroke-miterlimit:4;stroke-dasharray:none;stroke-dashoffset:0;stroke-opacity:1"><path
           id="path22689"
           d="m 1158.3,365.93 4.3,0 c 1,0 1.5,0 1.5,0.99 0,0.55 -0.5,0.55 -1.4,0.55 l -4.1,0 1,5.68 c 0.2,1.05 0.9,4.58 1.2,5.18 0.5,0.94 1.3,1.69 2.4,1.69 0.2,0 1.5,0 2.4,-0.9 -2.2,-0.19 -2.7,-1.94 -2.7,-2.68 0,-1.15 0.9,-1.75 1.9,-1.75 1.3,0 2.7,1.1 2.7,2.99 0,2.29 -2.3,3.44 -4.3,3.44 -1.7,0 -4.9,-0.9 -6.4,-5.83 -0.3,-1.05 -0.4,-1.54 -1.6,-7.82 l -3.4,0 c -1,0 -1.5,0 -1.5,-0.95 0,-0.59 0.4,-0.59 1.4,-0.59 l 3.2,0 -3.7,-19.68 c -0.9,-4.83 -1.7,-9.37 -4.3,-9.37 -0.2,0 -1.5,0 -2.4,0.9 2.3,0.15 2.7,1.94 2.7,2.69 0,1.15 -0.9,1.74 -1.8,1.74 -1.3,0 -2.8,-1.09 -2.8,-2.98 0,-2.25 2.2,-3.44 4.3,-3.44 2.7,0 4.7,2.94 5.6,4.83 1.6,3.14 2.7,9.17 2.8,9.51 z"
           inkscape:connector-curvature="0"
           style="fill:#000000;stroke-width:0.71822155;stroke-miterlimit:4;stroke-dasharray:none" /><path
           id="path22691"
           d="m 1186.5,334.04 0,0.03 0,0.03 0,0.01 0,0.02 0,0.01 0,0.02 0,0.02 0,0.01 0,0.02 -0.1,0.02 0,0.03 0,0.02 0,0.02 0,0.03 0,0.03 -0.1,0.03 0,0.03 0,0.04 0,0.02 -0.1,0.02 0,0.02 0,0.02 0,0.02 0,0.03 0,0.02 -0.1,0.02 0,0.03 0,0.02 0,0.03 -0.1,0.03 0,0.03 0,0.03 0,0.03 -0.1,0.03 0,0.03 0,0.03 -0.1,0.04 0,0.03 0,0.04 -0.1,0.03 0,0.04 -0.1,0.04 c -6.2,6.28 -7.8,15.69 -7.8,23.31 0,8.67 1.9,17.34 8,23.57 0.7,0.59 0.7,0.69 0.7,0.84 0,0.35 -0.2,0.5 -0.5,0.5 -0.5,0 -5,-3.39 -7.9,-9.72 -2.6,-5.47 -3.2,-11 -3.2,-15.19 0,-3.88 0.6,-9.91 3.3,-15.54 3,-6.12 7.3,-9.36 7.8,-9.36 0.3,0 0.5,0.15 0.5,0.49 z"
           inkscape:connector-curvature="0"
           style="fill:#000000;stroke-width:0.71822155;stroke-miterlimit:4;stroke-dasharray:none" /><path
           id="path22693"
           d="m 1205.6,361.04 0.1,0.13 0,0.15 0,0.17 0.1,0.18 0,0.19 0.1,0.21 0.1,0.21 0,0.23 0.1,0.23 0.1,0.24 0.1,0.25 0.1,0.24 0.1,0.25 0.1,0.25 0.2,0.25 0.1,0.25 0.2,0.24 0.1,0.24 0.2,0.23 0.2,0.22 0.1,0.22 0.2,0.2 0.2,0.19 0.3,0.18 0.2,0.16 0.2,0.14 0.2,0.07 0.1,0.06 0.1,0.05 0.2,0.05 0.1,0.05 0.1,0.04 0.2,0.03 0.1,0.03 0.2,0.02 0.1,0.02 0.2,0.01 0.2,0 c 0.2,0 1.4,0 2.5,-0.65 -1.4,-0.25 -2.4,-1.49 -2.4,-2.68 0,-0.8 0.5,-1.75 1.9,-1.75 1.1,0 2.6,0.9 2.6,2.89 0,2.59 -2.9,3.29 -4.6,3.29 -2.9,0 -4.6,-2.64 -5.2,-3.79 -1.3,3.29 -4,3.79 -5.4,3.79 -5.2,0 -8,-6.43 -8,-7.67 0,-0.5 0.5,-0.5 0.6,-0.5 0.4,0 0.5,0.1 0.6,0.54 1.7,5.29 5,6.53 6.7,6.53 1,0 2.7,-0.45 2.7,-3.33 0,-1.55 -0.8,-4.89 -2.7,-11.86 -0.8,-3.09 -2.5,-5.18 -4.7,-5.18 -0.3,0 -1.5,0 -2.5,0.65 1.2,0.25 2.3,1.29 2.3,2.69 0,1.34 -1.1,1.74 -1.8,1.74 -1.5,0 -2.8,-1.3 -2.8,-2.89 0,-2.29 2.5,-3.29 4.7,-3.29 3.3,0 5.1,3.49 5.3,3.79 0.6,-1.85 2.4,-3.79 5.3,-3.79 5.2,0 8,6.43 8,7.67 0,0.5 -0.4,0.5 -0.6,0.5 -0.4,0 -0.5,-0.2 -0.6,-0.55 -1.7,-5.33 -5.1,-6.52 -6.7,-6.52 -1.9,0 -2.7,1.59 -2.7,3.29 0,1.09 0.3,2.19 0.8,4.38 z"
           inkscape:connector-curvature="0"
           style="fill:#000000;stroke-width:0.71822155;stroke-miterlimit:4;stroke-dasharray:none" /><path
           id="path22695"
           d="m 1235,350.12 0,0.71 0,0.68 -0.1,0.66 0,0.64 -0.1,0.62 0,0.59 -0.1,0.58 -0.1,0.56 -0.2,0.55 -0.1,0.53 -0.2,0.51 -0.2,0.5 -0.2,0.49 -0.2,0.48 -0.3,0.47 -0.1,0.24 -0.2,0.23 c -1,1.6 -3.2,2.99 -6,2.99 l 0,-0.97 c 1.9,0 3.7,-1.15 4.3,-3.18 0.6,-1.88 0.6,-4.39 0.6,-7.42 0,-2.58 0,-5.17 -0.4,-7.36 -0.7,-3.17 -3.1,-3.94 -4.5,-3.94 l 0,0 c -1.6,0 -3.7,0.94 -4.4,3.8 -0.5,2.06 -0.5,4.92 -0.5,7.5 0,2.54 0,5.19 0.5,7.11 0.7,2.76 3,3.49 4.4,3.49 l 0,0.97 c -8.1,0 -8.1,-9.52 -8.1,-12.03 0,-2.51 0,-11.82 8.1,-11.82 8.1,0 8.1,9.31 8.1,11.82 z"
           inkscape:connector-curvature="0"
           style="fill:#000000;stroke-width:0.71822155;stroke-miterlimit:4;stroke-dasharray:none" /><path
           id="path22697"
           d="m 1254.4,358.45 0,0.37 0,0.39 0,0.39 0,0.41 -0.1,0.84 0,0.88 -0.1,0.92 -0.1,0.94 -0.2,0.98 -0.1,1 -0.2,1.02 -0.2,1.04 -0.3,1.05 -0.3,1.06 -0.4,1.06 -0.4,1.07 -0.2,0.53 -0.2,0.54 -0.2,0.53 -0.3,0.53 c -3,6.12 -7.3,9.36 -7.8,9.36 -0.3,0 -0.5,-0.2 -0.5,-0.5 0,-0.15 0,-0.25 1,-1.15 4.9,-4.92 7.7,-12.85 7.7,-23.26 0,-8.52 -1.8,-17.28 -8,-23.56 -0.7,-0.6 -0.7,-0.69 -0.7,-0.85 0,-0.29 0.2,-0.49 0.5,-0.49 0.5,0 5,3.38 8,9.71 2.5,5.48 3.1,11.01 3.1,15.19 z"
           inkscape:connector-curvature="0"
           style="fill:#000000;stroke-width:0.71822155;stroke-miterlimit:4;stroke-dasharray:none" /><path
           id="path22699"
           d="m 1290.4,357.46 13.9,0 c 0.7,0 1.6,0 1.6,0.99 0,1 -0.9,1 -1.6,1 l -13.9,0 0,13.95 c 0,0.69 0,1.64 -1,1.64 -1,0 -1,-0.95 -1,-1.64 l 0,-13.95 -14,0 c -0.7,0 -1.6,0 -1.6,-1 0,-0.99 0.9,-0.99 1.6,-0.99 l 14,0 0,-13.95 c 0,-0.7 0,-1.64 1,-1.64 1,0 1,0.94 1,1.64 z"
           inkscape:connector-curvature="0"
           style="fill:#000000;stroke-width:0.71822155;stroke-miterlimit:4;stroke-dasharray:none" /><path
           id="path22701"
           d="m 1334.8,357.26 0.2,0 0.1,0 0.2,0 0.1,0.01 0,0 0.1,0.01 0.1,0 0.1,0.01 0,0.01 0.1,0.01 0.1,0.02 0,0.02 0.1,0.01 0,0.02 0.1,0.03 0.1,0.03 0,0.02 0.1,0.04 0,0.03 0,0.04 0.1,0.05 0,0.04 0,0.03 0.1,0.02 0,0.03 0,0.03 0,0.03 0,0.03 0,0.03 0,0.03 0,0.03 0,0.04 0,0.03 0,0.04 0,0.04 0,0.04 c 0,0.69 -0.6,0.69 -1.4,0.69 l -8.1,0 c 1.2,4.24 4,7.13 8.5,7.13 l 1.6,0 c 0.8,0 1.6,0 1.6,0.84 0,0.7 -0.6,0.7 -1.5,0.7 l -1.7,0 c -6.5,0 -13.2,-4.98 -13.2,-12.6 0,-5.48 3.8,-9.42 9.1,-9.42 3.2,0 6.4,2 6.4,2.54 0,0.15 0,0.7 -0.5,0.7 -0.1,0 -0.2,0 -0.6,-0.3 -1.6,-1 -3.4,-1.84 -5.2,-1.84 -2.9,0 -5.4,2.09 -5.4,6.47 0,1.75 0.4,3.64 0.5,4.24 z"
           inkscape:connector-curvature="0"
           style="fill:#000000;stroke-width:0.71822155;stroke-miterlimit:4;stroke-dasharray:none" /></g>    </g>
  </g>
  <g
     transform="translate(81.437079,47.432432)"
     style="display:inline"
     inkscape:label="Epsilon 1"
     id="g3499"
     inkscape:groupmode="layer">
    <path
       style="display:inline;fill:none;fill-rule:evenodd;stroke:#000000;stroke-width:1.01199186;stroke-linecap:butt;stroke-linejoin:miter;stroke-miterlimit:4;stroke-dasharray:none;stroke-opacity:1"
       d="m 18.374384,27.456976 395.143816,0"
       id="path5145-7-3"
       inkscape:connector-curvature="0"
       sodipodi:nodetypes="cc" />
    <path
       sodipodi:nodetypes="cc"
       inkscape:connector-curvature="0"
       id="path3541"
       d="m 18.374384,82.433533 395.143816,0"
       style="display:inline;fill:none;fill-rule:evenodd;stroke:#000000;stroke-width:1.01199186;stroke-linecap:butt;stroke-linejoin:miter;stroke-miterlimit:4;stroke-dasharray:none;stroke-opacity:1" />
    <g
       id="g21990"
       transform="translate(-475.45206,-193.01612)"
       style="display:inline;stroke-width:0.30000001;stroke-miterlimit:4;stroke-dasharray:none">
      <g
         id="content"
         transform="matrix(0.41769841,0,0,-0.41769841,-73.097222,370.19918)"
         xml:space="preserve"
         stroke-miterlimit="10.433"
         font-style="normal"
         font-variant="normal"
         font-weight="normal"
         font-stretch="normal"
         font-size-adjust="none"
         letter-spacing="normal"
         word-spacing="normal"
         style="font-style:normal;font-variant:normal;font-weight:normal;font-stretch:normal;letter-spacing:normal;word-spacing:normal;text-anchor:start;fill:none;fill-opacity:1;fill-rule:evenodd;stroke:#000000;stroke-width:0.71822155;stroke-linecap:butt;stroke-linejoin:miter;stroke-miterlimit:4;stroke-dasharray:none;stroke-dashoffset:0;stroke-opacity:1"><path
           d="m 1158.3,365.93 4.3,0 c 1,0 1.5,0 1.5,0.99 0,0.55 -0.5,0.55 -1.4,0.55 l -4.1,0 1,5.68 c 0.2,1.05 0.9,4.58 1.2,5.18 0.5,0.94 1.3,1.69 2.4,1.69 0.2,0 1.5,0 2.4,-0.9 -2.2,-0.19 -2.7,-1.94 -2.7,-2.68 0,-1.15 0.9,-1.75 1.9,-1.75 1.3,0 2.7,1.1 2.7,2.99 0,2.29 -2.3,3.44 -4.3,3.44 -1.7,0 -4.9,-0.9 -6.4,-5.83 -0.3,-1.05 -0.4,-1.54 -1.6,-7.82 l -3.4,0 c -1,0 -1.5,0 -1.5,-0.95 0,-0.59 0.4,-0.59 1.4,-0.59 l 3.2,0 -3.7,-19.68 c -0.9,-4.83 -1.7,-9.37 -4.3,-9.37 -0.2,0 -1.5,0 -2.4,0.9 2.3,0.15 2.7,1.94 2.7,2.69 0,1.15 -0.9,1.74 -1.8,1.74 -1.3,0 -2.8,-1.09 -2.8,-2.98 0,-2.25 2.2,-3.44 4.3,-3.44 2.7,0 4.7,2.94 5.6,4.83 1.6,3.14 2.7,9.17 2.8,9.51 z"
           id="path21993"
           inkscape:connector-curvature="0"
           style="fill:#000000;stroke-width:0.71822155;stroke-miterlimit:4;stroke-dasharray:none" /><path
           d="m 1186.5,334.04 0,0.03 0,0.03 0,0.01 0,0.02 0,0.01 0,0.02 0,0.02 0,0.01 0,0.02 -0.1,0.02 0,0.03 0,0.02 0,0.02 0,0.03 0,0.03 -0.1,0.03 0,0.03 0,0.04 0,0.02 -0.1,0.02 0,0.02 0,0.02 0,0.02 0,0.03 0,0.02 -0.1,0.02 0,0.03 0,0.02 0,0.03 -0.1,0.03 0,0.03 0,0.03 0,0.03 -0.1,0.03 0,0.03 0,0.03 -0.1,0.04 0,0.03 0,0.04 -0.1,0.03 0,0.04 -0.1,0.04 c -6.2,6.28 -7.8,15.69 -7.8,23.31 0,8.67 1.9,17.34 8,23.57 0.7,0.59 0.7,0.69 0.7,0.84 0,0.35 -0.2,0.5 -0.5,0.5 -0.5,0 -5,-3.39 -7.9,-9.72 -2.6,-5.47 -3.2,-11 -3.2,-15.19 0,-3.88 0.6,-9.91 3.3,-15.54 3,-6.12 7.3,-9.36 7.8,-9.36 0.3,0 0.5,0.15 0.5,0.49 z"
           id="path21995"
           inkscape:connector-curvature="0"
           style="fill:#000000;stroke-width:0.71822155;stroke-miterlimit:4;stroke-dasharray:none" /><path
           d="m 1205.6,361.04 0.1,0.13 0,0.15 0,0.17 0.1,0.18 0,0.19 0.1,0.21 0.1,0.21 0,0.23 0.1,0.23 0.1,0.24 0.1,0.25 0.1,0.24 0.1,0.25 0.1,0.25 0.2,0.25 0.1,0.25 0.2,0.24 0.1,0.24 0.2,0.23 0.2,0.22 0.1,0.22 0.2,0.2 0.2,0.19 0.3,0.18 0.2,0.16 0.2,0.14 0.2,0.07 0.1,0.06 0.1,0.05 0.2,0.05 0.1,0.05 0.1,0.04 0.2,0.03 0.1,0.03 0.2,0.02 0.1,0.02 0.2,0.01 0.2,0 c 0.2,0 1.4,0 2.5,-0.65 -1.4,-0.25 -2.4,-1.49 -2.4,-2.68 0,-0.8 0.5,-1.75 1.9,-1.75 1.1,0 2.6,0.9 2.6,2.89 0,2.59 -2.9,3.29 -4.6,3.29 -2.9,0 -4.6,-2.64 -5.2,-3.79 -1.3,3.29 -4,3.79 -5.4,3.79 -5.2,0 -8,-6.43 -8,-7.67 0,-0.5 0.5,-0.5 0.6,-0.5 0.4,0 0.5,0.1 0.6,0.54 1.7,5.29 5,6.53 6.7,6.53 1,0 2.7,-0.45 2.7,-3.33 0,-1.55 -0.8,-4.89 -2.7,-11.86 -0.8,-3.09 -2.5,-5.18 -4.7,-5.18 -0.3,0 -1.5,0 -2.5,0.65 1.2,0.25 2.3,1.29 2.3,2.69 0,1.34 -1.1,1.74 -1.8,1.74 -1.5,0 -2.8,-1.3 -2.8,-2.89 0,-2.29 2.5,-3.29 4.7,-3.29 3.3,0 5.1,3.49 5.3,3.79 0.6,-1.85 2.4,-3.79 5.3,-3.79 5.2,0 8,6.43 8,7.67 0,0.5 -0.4,0.5 -0.6,0.5 -0.4,0 -0.5,-0.2 -0.6,-0.55 -1.7,-5.33 -5.1,-6.52 -6.7,-6.52 -1.9,0 -2.7,1.59 -2.7,3.29 0,1.09 0.3,2.19 0.8,4.38 z"
           id="path21997"
           inkscape:connector-curvature="0"
           style="fill:#000000;stroke-width:0.71822155;stroke-miterlimit:4;stroke-dasharray:none" /><path
           d="m 1228.7,361.18 0,0.04 0,0.04 0,0.04 0,0.04 0,0.04 0,0.04 0,0.03 0,0.04 0,0.03 0,0.03 0,0.04 0,0.03 0,0.02 0,0.03 0,0.03 0,0.03 -0.1,0.02 0,0.02 0,0.05 0,0.04 0,0.04 0,0.03 0,0.03 -0.1,0.03 0,0.03 0,0.02 0,0.02 -0.1,0.02 0,0.01 0,0.01 -0.1,0.02 0,0 -0.1,0.01 0,0 0,0.01 0,0 -0.1,0 0,0 0,0 -0.1,0.01 0,0 0,0 -0.1,0 0,0 0,0 -0.1,0 0,0 -0.1,0 0,0 -0.1,0 c -2.2,-2.19 -5.4,-2.23 -6.8,-2.23 l 0,-1.25 c 0.8,0 3.1,0 5.1,0.97 l 0,-17.78 c 0,-1.15 0,-1.61 -3.5,-1.61 l -1.4,0 0,-1.25 12.5,0 0,1.25 -1.3,0 c -3.5,0 -3.5,0.46 -3.5,1.61 z"
           id="path21999"
           inkscape:connector-curvature="0"
           style="fill:#000000;stroke-width:0.71822155;stroke-miterlimit:4;stroke-dasharray:none" /><path
           d="m 1254.4,358.45 0,0.37 0,0.39 0,0.39 0,0.41 -0.1,0.84 0,0.88 -0.1,0.92 -0.1,0.94 -0.2,0.98 -0.1,1 -0.2,1.02 -0.2,1.04 -0.3,1.05 -0.3,1.06 -0.4,1.06 -0.4,1.07 -0.2,0.53 -0.2,0.54 -0.2,0.53 -0.3,0.53 c -3,6.12 -7.3,9.36 -7.8,9.36 -0.3,0 -0.5,-0.2 -0.5,-0.5 0,-0.15 0,-0.25 1,-1.15 4.9,-4.92 7.7,-12.85 7.7,-23.26 0,-8.52 -1.8,-17.28 -8,-23.56 -0.7,-0.6 -0.7,-0.69 -0.7,-0.85 0,-0.29 0.2,-0.49 0.5,-0.49 0.5,0 5,3.38 8,9.71 2.5,5.48 3.1,11.01 3.1,15.19 z"
           id="path22001"
           inkscape:connector-curvature="0"
           style="fill:#000000;stroke-width:0.71822155;stroke-miterlimit:4;stroke-dasharray:none" /><path
           d="m 1290.4,357.46 13.9,0 c 0.7,0 1.6,0 1.6,0.99 0,1 -0.9,1 -1.6,1 l -13.9,0 0,13.95 c 0,0.69 0,1.64 -1,1.64 -1,0 -1,-0.95 -1,-1.64 l 0,-13.95 -14,0 c -0.7,0 -1.6,0 -1.6,-1 0,-0.99 0.9,-0.99 1.6,-0.99 l 14,0 0,-13.95 c 0,-0.7 0,-1.64 1,-1.64 1,0 1,0.94 1,1.64 z"
           id="path22003"
           inkscape:connector-curvature="0"
           style="fill:#000000;stroke-width:0.71822155;stroke-miterlimit:4;stroke-dasharray:none" /><path
           d="m 1334.8,357.26 0.2,0 0.1,0 0.2,0 0.1,0.01 0,0 0.1,0.01 0.1,0 0.1,0.01 0,0.01 0.1,0.01 0.1,0.02 0,0.02 0.1,0.01 0,0.02 0.1,0.03 0.1,0.03 0,0.02 0.1,0.04 0,0.03 0,0.04 0.1,0.05 0,0.04 0,0.03 0.1,0.02 0,0.03 0,0.03 0,0.03 0,0.03 0,0.03 0,0.03 0,0.03 0,0.04 0,0.03 0,0.04 0,0.04 0,0.04 c 0,0.69 -0.6,0.69 -1.4,0.69 l -8.1,0 c 1.2,4.24 4,7.13 8.5,7.13 l 1.6,0 c 0.8,0 1.6,0 1.6,0.84 0,0.7 -0.6,0.7 -1.5,0.7 l -1.7,0 c -6.5,0 -13.2,-4.98 -13.2,-12.6 0,-5.48 3.8,-9.42 9.1,-9.42 3.2,0 6.4,2 6.4,2.54 0,0.15 0,0.7 -0.5,0.7 -0.1,0 -0.2,0 -0.6,-0.3 -1.6,-1 -3.4,-1.84 -5.2,-1.84 -2.9,0 -5.4,2.09 -5.4,6.47 0,1.75 0.4,3.64 0.5,4.24 z"
           id="path22005"
           inkscape:connector-curvature="0"
           style="fill:#000000;stroke-width:0.71822155;stroke-miterlimit:4;stroke-dasharray:none" /></g>    </g>
    <g
       id="g22203"
       transform="translate(-475.45206,-138.03956)"
       style="display:inline;stroke-width:0.30000001;stroke-miterlimit:4;stroke-dasharray:none">
      <g
         word-spacing="normal"
         letter-spacing="normal"
         font-size-adjust="none"
         font-stretch="normal"
         font-weight="normal"
         font-variant="normal"
         font-style="normal"
         stroke-miterlimit="10.433"
         xml:space="preserve"
         transform="matrix(0.41769841,0,0,-0.41769841,-73.097222,370.19918)"
         id="g22205"
         style="font-style:normal;font-variant:normal;font-weight:normal;font-stretch:normal;letter-spacing:normal;word-spacing:normal;text-anchor:start;fill:none;fill-opacity:1;fill-rule:evenodd;stroke:#000000;stroke-width:0.71822155;stroke-linecap:butt;stroke-linejoin:miter;stroke-miterlimit:4;stroke-dasharray:none;stroke-dashoffset:0;stroke-opacity:1"><path
           id="path22207"
           d="m 1158.3,365.93 4.3,0 c 1,0 1.5,0 1.5,0.99 0,0.55 -0.5,0.55 -1.4,0.55 l -4.1,0 1,5.68 c 0.2,1.05 0.9,4.58 1.2,5.18 0.5,0.94 1.3,1.69 2.4,1.69 0.2,0 1.5,0 2.4,-0.9 -2.2,-0.19 -2.7,-1.94 -2.7,-2.68 0,-1.15 0.9,-1.75 1.9,-1.75 1.3,0 2.7,1.1 2.7,2.99 0,2.29 -2.3,3.44 -4.3,3.44 -1.7,0 -4.9,-0.9 -6.4,-5.83 -0.3,-1.05 -0.4,-1.54 -1.6,-7.82 l -3.4,0 c -1,0 -1.5,0 -1.5,-0.95 0,-0.59 0.4,-0.59 1.4,-0.59 l 3.2,0 -3.7,-19.68 c -0.9,-4.83 -1.7,-9.37 -4.3,-9.37 -0.2,0 -1.5,0 -2.4,0.9 2.3,0.15 2.7,1.94 2.7,2.69 0,1.15 -0.9,1.74 -1.8,1.74 -1.3,0 -2.8,-1.09 -2.8,-2.98 0,-2.25 2.2,-3.44 4.3,-3.44 2.7,0 4.7,2.94 5.6,4.83 1.6,3.14 2.7,9.17 2.8,9.51 z"
           inkscape:connector-curvature="0"
           style="fill:#000000;stroke-width:0.71822155;stroke-miterlimit:4;stroke-dasharray:none" /><path
           id="path22209"
           d="m 1186.5,334.04 0,0.03 0,0.03 0,0.01 0,0.02 0,0.01 0,0.02 0,0.02 0,0.01 0,0.02 -0.1,0.02 0,0.03 0,0.02 0,0.02 0,0.03 0,0.03 -0.1,0.03 0,0.03 0,0.04 0,0.02 -0.1,0.02 0,0.02 0,0.02 0,0.02 0,0.03 0,0.02 -0.1,0.02 0,0.03 0,0.02 0,0.03 -0.1,0.03 0,0.03 0,0.03 0,0.03 -0.1,0.03 0,0.03 0,0.03 -0.1,0.04 0,0.03 0,0.04 -0.1,0.03 0,0.04 -0.1,0.04 c -6.2,6.28 -7.8,15.69 -7.8,23.31 0,8.67 1.9,17.34 8,23.57 0.7,0.59 0.7,0.69 0.7,0.84 0,0.35 -0.2,0.5 -0.5,0.5 -0.5,0 -5,-3.39 -7.9,-9.72 -2.6,-5.47 -3.2,-11 -3.2,-15.19 0,-3.88 0.6,-9.91 3.3,-15.54 3,-6.12 7.3,-9.36 7.8,-9.36 0.3,0 0.5,0.15 0.5,0.49 z"
           inkscape:connector-curvature="0"
           style="fill:#000000;stroke-width:0.71822155;stroke-miterlimit:4;stroke-dasharray:none" /><path
           id="path22211"
           d="m 1205.6,361.04 0.1,0.13 0,0.15 0,0.17 0.1,0.18 0,0.19 0.1,0.21 0.1,0.21 0,0.23 0.1,0.23 0.1,0.24 0.1,0.25 0.1,0.24 0.1,0.25 0.1,0.25 0.2,0.25 0.1,0.25 0.2,0.24 0.1,0.24 0.2,0.23 0.2,0.22 0.1,0.22 0.2,0.2 0.2,0.19 0.3,0.18 0.2,0.16 0.2,0.14 0.2,0.07 0.1,0.06 0.1,0.05 0.2,0.05 0.1,0.05 0.1,0.04 0.2,0.03 0.1,0.03 0.2,0.02 0.1,0.02 0.2,0.01 0.2,0 c 0.2,0 1.4,0 2.5,-0.65 -1.4,-0.25 -2.4,-1.49 -2.4,-2.68 0,-0.8 0.5,-1.75 1.9,-1.75 1.1,0 2.6,0.9 2.6,2.89 0,2.59 -2.9,3.29 -4.6,3.29 -2.9,0 -4.6,-2.64 -5.2,-3.79 -1.3,3.29 -4,3.79 -5.4,3.79 -5.2,0 -8,-6.43 -8,-7.67 0,-0.5 0.5,-0.5 0.6,-0.5 0.4,0 0.5,0.1 0.6,0.54 1.7,5.29 5,6.53 6.7,6.53 1,0 2.7,-0.45 2.7,-3.33 0,-1.55 -0.8,-4.89 -2.7,-11.86 -0.8,-3.09 -2.5,-5.18 -4.7,-5.18 -0.3,0 -1.5,0 -2.5,0.65 1.2,0.25 2.3,1.29 2.3,2.69 0,1.34 -1.1,1.74 -1.8,1.74 -1.5,0 -2.8,-1.3 -2.8,-2.89 0,-2.29 2.5,-3.29 4.7,-3.29 3.3,0 5.1,3.49 5.3,3.79 0.6,-1.85 2.4,-3.79 5.3,-3.79 5.2,0 8,6.43 8,7.67 0,0.5 -0.4,0.5 -0.6,0.5 -0.4,0 -0.5,-0.2 -0.6,-0.55 -1.7,-5.33 -5.1,-6.52 -6.7,-6.52 -1.9,0 -2.7,1.59 -2.7,3.29 0,1.09 0.3,2.19 0.8,4.38 z"
           inkscape:connector-curvature="0"
           style="fill:#000000;stroke-width:0.71822155;stroke-miterlimit:4;stroke-dasharray:none" /><path
           id="path22213"
           d="m 1228.7,361.18 0,0.04 0,0.04 0,0.04 0,0.04 0,0.04 0,0.04 0,0.03 0,0.04 0,0.03 0,0.03 0,0.04 0,0.03 0,0.02 0,0.03 0,0.03 0,0.03 -0.1,0.02 0,0.02 0,0.05 0,0.04 0,0.04 0,0.03 0,0.03 -0.1,0.03 0,0.03 0,0.02 0,0.02 -0.1,0.02 0,0.01 0,0.01 -0.1,0.02 0,0 -0.1,0.01 0,0 0,0.01 0,0 -0.1,0 0,0 0,0 -0.1,0.01 0,0 0,0 -0.1,0 0,0 0,0 -0.1,0 0,0 -0.1,0 0,0 -0.1,0 c -2.2,-2.19 -5.4,-2.23 -6.8,-2.23 l 0,-1.25 c 0.8,0 3.1,0 5.1,0.97 l 0,-17.78 c 0,-1.15 0,-1.61 -3.5,-1.61 l -1.4,0 0,-1.25 12.5,0 0,1.25 -1.3,0 c -3.5,0 -3.5,0.46 -3.5,1.61 z"
           inkscape:connector-curvature="0"
           style="fill:#000000;stroke-width:0.71822155;stroke-miterlimit:4;stroke-dasharray:none" /><path
           id="path22215"
           d="m 1254.4,358.45 0,0.37 0,0.39 0,0.39 0,0.41 -0.1,0.84 0,0.88 -0.1,0.92 -0.1,0.94 -0.2,0.98 -0.1,1 -0.2,1.02 -0.2,1.04 -0.3,1.05 -0.3,1.06 -0.4,1.06 -0.4,1.07 -0.2,0.53 -0.2,0.54 -0.2,0.53 -0.3,0.53 c -3,6.12 -7.3,9.36 -7.8,9.36 -0.3,0 -0.5,-0.2 -0.5,-0.5 0,-0.15 0,-0.25 1,-1.15 4.9,-4.92 7.7,-12.85 7.7,-23.26 0,-8.52 -1.8,-17.28 -8,-23.56 -0.7,-0.6 -0.7,-0.69 -0.7,-0.85 0,-0.29 0.2,-0.49 0.5,-0.49 0.5,0 5,3.38 8,9.71 2.5,5.48 3.1,11.01 3.1,15.19 z"
           inkscape:connector-curvature="0"
           style="fill:#000000;stroke-width:0.71822155;stroke-miterlimit:4;stroke-dasharray:none" /><path
           id="path22217"
           d="m 1302.8,357.46 0.2,0 0.1,0 0.2,0 0.1,0.01 0.1,0 0,0.01 0.1,0.01 0.1,0.01 0,0.01 0.1,0.01 0.1,0.02 0.1,0.02 0,0.02 0.1,0.03 0,0.02 0.1,0.04 0,0.03 0.1,0.04 0,0.04 0.1,0.05 0,0.05 0,0.02 0.1,0.03 0,0.03 0,0.03 0,0.03 0,0.04 0,0.03 0,0.03 0,0.04 0,0.04 0.1,0.04 0,0.04 0,0.04 0,0.04 0,0.05 0,0.04 c 0,1 -0.9,1 -1.8,1 l -26.9,0 c -0.9,0 -1.8,0 -1.8,-1 0,-0.99 0.9,-0.99 1.8,-0.99 z"
           inkscape:connector-curvature="0"
           style="fill:#000000;stroke-width:0.71822155;stroke-miterlimit:4;stroke-dasharray:none" /><path
           id="path22219"
           d="m 1334.8,357.26 0.2,0 0.1,0 0.2,0 0.1,0.01 0,0 0.1,0.01 0.1,0 0.1,0.01 0,0.01 0.1,0.01 0.1,0.02 0,0.02 0.1,0.01 0,0.02 0.1,0.03 0.1,0.03 0,0.02 0.1,0.04 0,0.03 0,0.04 0.1,0.05 0,0.04 0,0.03 0.1,0.02 0,0.03 0,0.03 0,0.03 0,0.03 0,0.03 0,0.03 0,0.03 0,0.04 0,0.03 0,0.04 0,0.04 0,0.04 c 0,0.69 -0.6,0.69 -1.4,0.69 l -8.1,0 c 1.2,4.24 4,7.13 8.5,7.13 l 1.6,0 c 0.8,0 1.6,0 1.6,0.84 0,0.7 -0.6,0.7 -1.5,0.7 l -1.7,0 c -6.5,0 -13.2,-4.98 -13.2,-12.6 0,-5.48 3.8,-9.42 9.1,-9.42 3.2,0 6.4,2 6.4,2.54 0,0.15 0,0.7 -0.5,0.7 -0.1,0 -0.2,0 -0.6,-0.3 -1.6,-1 -3.4,-1.84 -5.2,-1.84 -2.9,0 -5.4,2.09 -5.4,6.47 0,1.75 0.4,3.64 0.5,4.24 z"
           inkscape:connector-curvature="0"
           style="fill:#000000;stroke-width:0.71822155;stroke-miterlimit:4;stroke-dasharray:none" /></g>    </g>
  </g>
  <g
     inkscape:groupmode="layer"
     id="layer5"
     inkscape:label="Delta"
     style="display:none"
     transform="translate(81.437079,47.432432)">
    <path
       style="fill:none;fill-rule:evenodd;stroke:#000000;stroke-width:1.01199186;stroke-linecap:butt;stroke-linejoin:miter;stroke-miterlimit:4;stroke-dasharray:none;stroke-opacity:1"
       d="m 407.2037,-6.5828474 0,210.2121674"
       id="path5344"
       inkscape:connector-curvature="0"
       sodipodi:nodetypes="cc" />
    <path
       style="fill:none;fill-rule:evenodd;stroke:#000000;stroke-width:1.01199186;stroke-linecap:butt;stroke-linejoin:miter;stroke-miterlimit:4;stroke-dasharray:none;stroke-opacity:1"
       d="m 292.3997,101.6083 0,102.41028"
       id="path5333"
       inkscape:connector-curvature="0"
       sodipodi:nodetypes="cc" />
    <path
       style="fill:none;fill-rule:evenodd;stroke:#000000;stroke-width:1.01199186;stroke-linecap:butt;stroke-linejoin:miter;stroke-miterlimit:4;stroke-dasharray:none;stroke-opacity:1"
       d="m 195.41276,146.73057 0,57.28801"
       id="path3573"
       inkscape:connector-curvature="0"
       sodipodi:nodetypes="cc" />
    <path
       sodipodi:nodetypes="cc"
       inkscape:connector-curvature="0"
       id="path3571"
       d="m 76.296882,179.05955 0,24.95903"
       style="fill:none;fill-rule:evenodd;stroke:#000000;stroke-width:1.01199186;stroke-linecap:butt;stroke-linejoin:miter;stroke-miterlimit:4;stroke-dasharray:none;stroke-opacity:1" />
    <path
       style="fill:none;fill-rule:evenodd;stroke:#00aa00;stroke-width:5.05995941;stroke-linecap:round;stroke-linejoin:miter;stroke-miterlimit:4;stroke-dasharray:none;stroke-opacity:1"
       d="m 76.369427,179.22505 c 24.630223,-5.10222 29.146563,-4.74184 61.859913,-14.16889 37.43959,-10.78901 35.65899,-10.86347 56.42227,-18.18317"
       id="path5002-6"
       inkscape:connector-curvature="0"
       sodipodi:nodetypes="csc" />
    <path
       sodipodi:nodetypes="csc"
       inkscape:connector-curvature="0"
       id="path3569"
       d="M 292.99089,100.7365 C 318.78277,85.370694 325.34128,77.425064 351.91181,56.14034 370.56234,41.200048 391.51594,12.754649 406.77814,-6.3006871"
       style="fill:none;fill-rule:evenodd;stroke:#aa0000;stroke-width:5.05995941;stroke-linecap:round;stroke-linejoin:miter;stroke-miterlimit:4;stroke-dasharray:none;stroke-opacity:1" />
    <path
       sodipodi:nodetypes="csc"
       inkscape:connector-curvature="0"
       id="path3569-3"
       d="m 321.84131,80.912881 c 8.28924,-6.633826 16.61314,-13.992318 30.0705,-24.772542 8.87291,-7.107781 18.26709,-17.272236 27.32171,-28.028059"
       style="display:inline;fill:none;fill-rule:evenodd;stroke:#00aa00;stroke-width:5.05995941;stroke-linecap:round;stroke-linejoin:miter;stroke-miterlimit:4;stroke-dasharray:none;stroke-opacity:1" />
    <g
       id="g24119"
       transform="translate(-368.53104,-0.98198359)"
       style="display:inline;stroke-width:0.30000001;stroke-miterlimit:4;stroke-dasharray:none">
      <g
         id="g24121"
         transform="matrix(0.41769841,0,0,-0.41769841,-73.097222,370.19918)"
         xml:space="preserve"
         stroke-miterlimit="10.433"
         font-style="normal"
         font-variant="normal"
         font-weight="normal"
         font-stretch="normal"
         font-size-adjust="none"
         letter-spacing="normal"
         word-spacing="normal"
         style="font-style:normal;font-variant:normal;font-weight:normal;font-stretch:normal;letter-spacing:normal;word-spacing:normal;text-anchor:start;fill:none;fill-opacity:1;fill-rule:evenodd;stroke:#000000;stroke-width:0.71822155;stroke-linecap:butt;stroke-linejoin:miter;stroke-miterlimit:4;stroke-dasharray:none;stroke-dashoffset:0;stroke-opacity:1"><path
           d="m 1188.6,361.04 0.1,0.13 0,0.15 0,0.17 0.1,0.18 0,0.19 0.1,0.21 0.1,0.21 0,0.23 0.1,0.23 0.1,0.24 0.1,0.25 0.1,0.24 0.1,0.25 0.1,0.25 0.2,0.25 0.1,0.25 0.2,0.24 0.1,0.24 0.2,0.23 0.2,0.22 0.1,0.22 0.2,0.2 0.2,0.19 0.3,0.18 0.2,0.16 0.2,0.14 0.2,0.07 0.1,0.06 0.1,0.05 0.2,0.05 0.1,0.05 0.1,0.04 0.2,0.03 0.1,0.03 0.2,0.02 0.1,0.02 0.2,0.01 0.2,0 c 0.2,0 1.4,0 2.5,-0.65 -1.4,-0.25 -2.4,-1.49 -2.4,-2.68 0,-0.8 0.5,-1.75 1.9,-1.75 1.1,0 2.6,0.9 2.6,2.89 0,2.59 -2.9,3.29 -4.6,3.29 -2.9,0 -4.6,-2.64 -5.2,-3.79 -1.3,3.29 -4,3.79 -5.4,3.79 -5.2,0 -8,-6.43 -8,-7.67 0,-0.5 0.5,-0.5 0.6,-0.5 0.4,0 0.5,0.1 0.6,0.54 1.7,5.29 5,6.53 6.7,6.53 1,0 2.7,-0.45 2.7,-3.33 0,-1.55 -0.8,-4.89 -2.7,-11.86 -0.8,-3.09 -2.5,-5.18 -4.7,-5.18 -0.3,0 -1.5,0 -2.5,0.65 1.2,0.25 2.3,1.29 2.3,2.69 0,1.34 -1.1,1.74 -1.8,1.74 -1.5,0 -2.8,-1.3 -2.8,-2.89 0,-2.29 2.5,-3.29 4.7,-3.29 3.3,0 5.1,3.49 5.3,3.79 0.6,-1.85 2.4,-3.79 5.3,-3.79 5.2,0 8,6.43 8,7.67 0,0.5 -0.4,0.5 -0.6,0.5 -0.4,0 -0.5,-0.2 -0.6,-0.55 -1.7,-5.33 -5.1,-6.52 -6.7,-6.52 -1.9,0 -2.7,1.59 -2.7,3.29 0,1.09 0.3,2.19 0.8,4.38 z"
           id="path24123"
           inkscape:connector-curvature="0"
           style="fill:#000000;stroke-width:0.71822155;stroke-miterlimit:4;stroke-dasharray:none" /><path
           d="m 1219,350.12 0,0.71 0,0.68 -0.1,0.66 0,0.64 -0.1,0.62 0,0.59 -0.1,0.58 -0.1,0.56 -0.2,0.55 -0.1,0.53 -0.2,0.51 -0.2,0.5 -0.2,0.49 -0.2,0.48 -0.3,0.47 -0.1,0.24 -0.2,0.23 c -1,1.6 -3.2,2.99 -6,2.99 l 0,-0.97 c 1.9,0 3.7,-1.15 4.3,-3.18 0.6,-1.88 0.6,-4.39 0.6,-7.42 0,-2.58 0,-5.17 -0.4,-7.36 -0.7,-3.17 -3.1,-3.94 -4.5,-3.94 l 0,0 c -1.6,0 -3.7,0.94 -4.4,3.8 -0.5,2.06 -0.5,4.92 -0.5,7.5 0,2.54 0,5.19 0.5,7.11 0.7,2.76 3,3.49 4.4,3.49 l 0,0.97 c -8.1,0 -8.1,-9.52 -8.1,-12.03 0,-2.51 0,-11.82 8.1,-11.82 8.1,0 8.1,9.31 8.1,11.82 z"
           id="path24125"
           inkscape:connector-curvature="0"
           style="fill:#000000;stroke-width:0.71822155;stroke-miterlimit:4;stroke-dasharray:none" /><path
           d="m 1266.8,357.46 0.2,0 0.1,0 0.2,0 0.1,0.01 0.1,0 0,0.01 0.1,0.01 0.1,0.01 0,0.01 0.1,0.01 0.1,0.02 0.1,0.02 0,0.02 0.1,0.03 0,0.02 0.1,0.04 0,0.03 0.1,0.04 0,0.04 0.1,0.05 0,0.05 0,0.02 0.1,0.03 0,0.03 0,0.03 0,0.03 0,0.04 0,0.03 0,0.03 0,0.04 0,0.04 0.1,0.04 0,0.04 0,0.04 0,0.04 0,0.05 0,0.04 c 0,1 -0.9,1 -1.8,1 l -26.9,0 c -0.9,0 -1.8,0 -1.8,-1 0,-0.99 0.9,-0.99 1.8,-0.99 z"
           id="path24127"
           inkscape:connector-curvature="0"
           style="fill:#000000;stroke-width:0.71822155;stroke-miterlimit:4;stroke-dasharray:none" /><path
           d="m 1297.2,367.77 -0.6,-0.15 -0.6,-0.19 -0.6,-0.21 -0.5,-0.23 -0.6,-0.27 -0.5,-0.28 -0.5,-0.31 -0.5,-0.33 -0.5,-0.35 -0.5,-0.38 -0.4,-0.39 -0.5,-0.41 -0.4,-0.43 -0.4,-0.44 -0.4,-0.46 -0.4,-0.47 -0.4,-0.49 -0.3,-0.5 -0.3,-0.51 -0.4,-0.52 -0.2,-0.53 -0.3,-0.53 -0.2,-0.55 -0.3,-0.55 -0.2,-0.56 -0.1,-0.56 -0.2,-0.56 -0.1,-0.57 -0.1,-0.57 -0.1,-0.57 0,-0.56 0,-0.57 c 0,-4.78 3.2,-8.37 7.9,-8.37 l 0,1.1 c -2.8,0 -4.8,2.09 -4.8,5.88 0,3.14 1.8,12.5 8.6,14.29 l 0,0 c 1.2,-2.29 2.7,-4.98 2.7,-8.56 0,-3.29 -1.9,-11.61 -6.5,-11.61 l 0,-1.1 c 5.8,0 9.9,7.82 9.9,14.7 0,4.53 -2,7.02 -3.7,9.26 -1.8,2.25 -4.7,5.98 -4.7,8.17 0,1.1 1,2.29 2.7,2.29 1.5,0 2.5,-0.64 3.6,-1.34 1,-0.6 2,-1.25 2.7,-1.25 1.3,0 2,1.2 2,2 0,1.09 -0.8,1.24 -2.6,1.64 -2.6,0.55 -3.3,0.55 -4.1,0.55 -3.8,0 -5.6,-2.15 -5.6,-5.13 0,-2.69 1.4,-5.48 3,-8.52 z"
           id="path24129"
           inkscape:connector-curvature="0"
           style="fill:#000000;stroke-width:0.71822155;stroke-miterlimit:4;stroke-dasharray:none" /></g>    </g>
    <g
       id="g24437"
       transform="translate(-249.41516,-0.98198359)"
       style="display:inline;stroke-width:0.30000001;stroke-miterlimit:4;stroke-dasharray:none">
      <g
         word-spacing="normal"
         letter-spacing="normal"
         font-size-adjust="none"
         font-stretch="normal"
         font-weight="normal"
         font-variant="normal"
         font-style="normal"
         stroke-miterlimit="10.433"
         xml:space="preserve"
         transform="matrix(0.41769841,0,0,-0.41769841,-73.097222,370.19918)"
         id="g24439"
         style="font-style:normal;font-variant:normal;font-weight:normal;font-stretch:normal;letter-spacing:normal;word-spacing:normal;text-anchor:start;fill:none;fill-opacity:1;fill-rule:evenodd;stroke:#000000;stroke-width:0.71822155;stroke-linecap:butt;stroke-linejoin:miter;stroke-miterlimit:4;stroke-dasharray:none;stroke-dashoffset:0;stroke-opacity:1"><path
           id="path24441"
           d="m 1188.6,361.04 0.1,0.13 0,0.15 0,0.17 0.1,0.18 0,0.19 0.1,0.21 0.1,0.21 0,0.23 0.1,0.23 0.1,0.24 0.1,0.25 0.1,0.24 0.1,0.25 0.1,0.25 0.2,0.25 0.1,0.25 0.2,0.24 0.1,0.24 0.2,0.23 0.2,0.22 0.1,0.22 0.2,0.2 0.2,0.19 0.3,0.18 0.2,0.16 0.2,0.14 0.2,0.07 0.1,0.06 0.1,0.05 0.2,0.05 0.1,0.05 0.1,0.04 0.2,0.03 0.1,0.03 0.2,0.02 0.1,0.02 0.2,0.01 0.2,0 c 0.2,0 1.4,0 2.5,-0.65 -1.4,-0.25 -2.4,-1.49 -2.4,-2.68 0,-0.8 0.5,-1.75 1.9,-1.75 1.1,0 2.6,0.9 2.6,2.89 0,2.59 -2.9,3.29 -4.6,3.29 -2.9,0 -4.6,-2.64 -5.2,-3.79 -1.3,3.29 -4,3.79 -5.4,3.79 -5.2,0 -8,-6.43 -8,-7.67 0,-0.5 0.5,-0.5 0.6,-0.5 0.4,0 0.5,0.1 0.6,0.54 1.7,5.29 5,6.53 6.7,6.53 1,0 2.7,-0.45 2.7,-3.33 0,-1.55 -0.8,-4.89 -2.7,-11.86 -0.8,-3.09 -2.5,-5.18 -4.7,-5.18 -0.3,0 -1.5,0 -2.5,0.65 1.2,0.25 2.3,1.29 2.3,2.69 0,1.34 -1.1,1.74 -1.8,1.74 -1.5,0 -2.8,-1.3 -2.8,-2.89 0,-2.29 2.5,-3.29 4.7,-3.29 3.3,0 5.1,3.49 5.3,3.79 0.6,-1.85 2.4,-3.79 5.3,-3.79 5.2,0 8,6.43 8,7.67 0,0.5 -0.4,0.5 -0.6,0.5 -0.4,0 -0.5,-0.2 -0.6,-0.55 -1.7,-5.33 -5.1,-6.52 -6.7,-6.52 -1.9,0 -2.7,1.59 -2.7,3.29 0,1.09 0.3,2.19 0.8,4.38 z"
           inkscape:connector-curvature="0"
           style="fill:#000000;stroke-width:0.71822155;stroke-miterlimit:4;stroke-dasharray:none" /><path
           id="path24443"
           d="m 1219,350.12 0,0.71 0,0.68 -0.1,0.66 0,0.64 -0.1,0.62 0,0.59 -0.1,0.58 -0.1,0.56 -0.2,0.55 -0.1,0.53 -0.2,0.51 -0.2,0.5 -0.2,0.49 -0.2,0.48 -0.3,0.47 -0.1,0.24 -0.2,0.23 c -1,1.6 -3.2,2.99 -6,2.99 l 0,-0.97 c 1.9,0 3.7,-1.15 4.3,-3.18 0.6,-1.88 0.6,-4.39 0.6,-7.42 0,-2.58 0,-5.17 -0.4,-7.36 -0.7,-3.17 -3.1,-3.94 -4.5,-3.94 l 0,0 c -1.6,0 -3.7,0.94 -4.4,3.8 -0.5,2.06 -0.5,4.92 -0.5,7.5 0,2.54 0,5.19 0.5,7.11 0.7,2.76 3,3.49 4.4,3.49 l 0,0.97 c -8.1,0 -8.1,-9.52 -8.1,-12.03 0,-2.51 0,-11.82 8.1,-11.82 8.1,0 8.1,9.31 8.1,11.82 z"
           inkscape:connector-curvature="0"
           style="fill:#000000;stroke-width:0.71822155;stroke-miterlimit:4;stroke-dasharray:none" /><path
           id="path24445"
           d="m 1254.4,357.46 13.9,0 c 0.7,0 1.6,0 1.6,0.99 0,1 -0.9,1 -1.6,1 l -13.9,0 0,13.95 c 0,0.69 0,1.64 -1,1.64 -1,0 -1,-0.95 -1,-1.64 l 0,-13.95 -14,0 c -0.7,0 -1.6,0 -1.6,-1 0,-0.99 0.9,-0.99 1.6,-0.99 l 14,0 0,-13.95 c 0,-0.7 0,-1.64 1,-1.64 1,0 1,0.94 1,1.64 z"
           inkscape:connector-curvature="0"
           style="fill:#000000;stroke-width:0.71822155;stroke-miterlimit:4;stroke-dasharray:none" /><path
           id="path24447"
           d="m 1297.2,367.77 -0.6,-0.15 -0.6,-0.19 -0.6,-0.21 -0.5,-0.23 -0.6,-0.27 -0.5,-0.28 -0.5,-0.31 -0.5,-0.33 -0.5,-0.35 -0.5,-0.38 -0.4,-0.39 -0.5,-0.41 -0.4,-0.43 -0.4,-0.44 -0.4,-0.46 -0.4,-0.47 -0.4,-0.49 -0.3,-0.5 -0.3,-0.51 -0.4,-0.52 -0.2,-0.53 -0.3,-0.53 -0.2,-0.55 -0.3,-0.55 -0.2,-0.56 -0.1,-0.56 -0.2,-0.56 -0.1,-0.57 -0.1,-0.57 -0.1,-0.57 0,-0.56 0,-0.57 c 0,-4.78 3.2,-8.37 7.9,-8.37 l 0,1.1 c -2.8,0 -4.8,2.09 -4.8,5.88 0,3.14 1.8,12.5 8.6,14.29 l 0,0 c 1.2,-2.29 2.7,-4.98 2.7,-8.56 0,-3.29 -1.9,-11.61 -6.5,-11.61 l 0,-1.1 c 5.8,0 9.9,7.82 9.9,14.7 0,4.53 -2,7.02 -3.7,9.26 -1.8,2.25 -4.7,5.98 -4.7,8.17 0,1.1 1,2.29 2.7,2.29 1.5,0 2.5,-0.64 3.6,-1.34 1,-0.6 2,-1.25 2.7,-1.25 1.3,0 2,1.2 2,2 0,1.09 -0.8,1.24 -2.6,1.64 -2.6,0.55 -3.3,0.55 -4.1,0.55 -3.8,0 -5.6,-2.15 -5.6,-5.13 0,-2.69 1.4,-5.48 3,-8.52 z"
           inkscape:connector-curvature="0"
           style="fill:#000000;stroke-width:0.71822155;stroke-miterlimit:4;stroke-dasharray:none" /></g>    </g>
    <g
       id="g24767"
       transform="translate(-43.624221,-0.6895947)"
       style="display:inline;stroke-width:0.30000001;stroke-miterlimit:4;stroke-dasharray:none">
      <g
         id="g24769"
         transform="matrix(0.41769841,0,0,-0.41769841,-73.097222,370.19918)"
         xml:space="preserve"
         stroke-miterlimit="10.433"
         font-style="normal"
         font-variant="normal"
         font-weight="normal"
         font-stretch="normal"
         font-size-adjust="none"
         letter-spacing="normal"
         word-spacing="normal"
         style="font-style:normal;font-variant:normal;font-weight:normal;font-stretch:normal;letter-spacing:normal;word-spacing:normal;text-anchor:start;fill:none;fill-opacity:1;fill-rule:evenodd;stroke:#000000;stroke-width:0.71822155;stroke-linecap:butt;stroke-linejoin:miter;stroke-miterlimit:4;stroke-dasharray:none;stroke-dashoffset:0;stroke-opacity:1"><path
           d="m 1188.6,361.04 0.1,0.13 0,0.15 0,0.17 0.1,0.18 0,0.19 0.1,0.21 0.1,0.21 0,0.23 0.1,0.23 0.1,0.24 0.1,0.25 0.1,0.24 0.1,0.25 0.1,0.25 0.2,0.25 0.1,0.25 0.2,0.24 0.1,0.24 0.2,0.23 0.2,0.22 0.1,0.22 0.2,0.2 0.2,0.19 0.3,0.18 0.2,0.16 0.2,0.14 0.2,0.07 0.1,0.06 0.1,0.05 0.2,0.05 0.1,0.05 0.1,0.04 0.2,0.03 0.1,0.03 0.2,0.02 0.1,0.02 0.2,0.01 0.2,0 c 0.2,0 1.4,0 2.5,-0.65 -1.4,-0.25 -2.4,-1.49 -2.4,-2.68 0,-0.8 0.5,-1.75 1.9,-1.75 1.1,0 2.6,0.9 2.6,2.89 0,2.59 -2.9,3.29 -4.6,3.29 -2.9,0 -4.6,-2.64 -5.2,-3.79 -1.3,3.29 -4,3.79 -5.4,3.79 -5.2,0 -8,-6.43 -8,-7.67 0,-0.5 0.5,-0.5 0.6,-0.5 0.4,0 0.5,0.1 0.6,0.54 1.7,5.29 5,6.53 6.7,6.53 1,0 2.7,-0.45 2.7,-3.33 0,-1.55 -0.8,-4.89 -2.7,-11.86 -0.8,-3.09 -2.5,-5.18 -4.7,-5.18 -0.3,0 -1.5,0 -2.5,0.65 1.2,0.25 2.3,1.29 2.3,2.69 0,1.34 -1.1,1.74 -1.8,1.74 -1.5,0 -2.8,-1.3 -2.8,-2.89 0,-2.29 2.5,-3.29 4.7,-3.29 3.3,0 5.1,3.49 5.3,3.79 0.6,-1.85 2.4,-3.79 5.3,-3.79 5.2,0 8,6.43 8,7.67 0,0.5 -0.4,0.5 -0.6,0.5 -0.4,0 -0.5,-0.2 -0.6,-0.55 -1.7,-5.33 -5.1,-6.52 -6.7,-6.52 -1.9,0 -2.7,1.59 -2.7,3.29 0,1.09 0.3,2.19 0.8,4.38 z"
           id="path24771"
           inkscape:connector-curvature="0"
           style="fill:#000000;stroke-width:0.71822155;stroke-miterlimit:4;stroke-dasharray:none" /><path
           d="m 1212.7,361.18 0,0.04 0,0.04 0,0.04 0,0.04 0,0.04 0,0.04 0,0.03 0,0.04 0,0.03 0,0.03 0,0.04 0,0.03 0,0.02 0,0.03 0,0.03 0,0.03 -0.1,0.02 0,0.02 0,0.05 0,0.04 0,0.04 0,0.03 0,0.03 -0.1,0.03 0,0.03 0,0.02 0,0.02 -0.1,0.02 0,0.01 0,0.01 -0.1,0.02 0,0 -0.1,0.01 0,0 0,0.01 0,0 -0.1,0 0,0 0,0 -0.1,0.01 0,0 0,0 -0.1,0 0,0 0,0 -0.1,0 0,0 -0.1,0 0,0 -0.1,0 c -2.2,-2.19 -5.4,-2.23 -6.8,-2.23 l 0,-1.25 c 0.8,0 3.1,0 5.1,0.97 l 0,-17.78 c 0,-1.15 0,-1.61 -3.5,-1.61 l -1.4,0 0,-1.25 12.5,0 0,1.25 -1.3,0 c -3.5,0 -3.5,0.46 -3.5,1.61 z"
           id="path24773"
           inkscape:connector-curvature="0"
           style="fill:#000000;stroke-width:0.71822155;stroke-miterlimit:4;stroke-dasharray:none" /><path
           d="m 1254.4,357.46 13.9,0 c 0.7,0 1.6,0 1.6,0.99 0,1 -0.9,1 -1.6,1 l -13.9,0 0,13.95 c 0,0.69 0,1.64 -1,1.64 -1,0 -1,-0.95 -1,-1.64 l 0,-13.95 -14,0 c -0.7,0 -1.6,0 -1.6,-1 0,-0.99 0.9,-0.99 1.6,-0.99 l 14,0 0,-13.95 c 0,-0.7 0,-1.64 1,-1.64 1,0 1,0.94 1,1.64 z"
           id="path24775"
           inkscape:connector-curvature="0"
           style="fill:#000000;stroke-width:0.71822155;stroke-miterlimit:4;stroke-dasharray:none" /><path
           d="m 1297.2,367.77 -0.6,-0.15 -0.6,-0.19 -0.6,-0.21 -0.5,-0.23 -0.6,-0.27 -0.5,-0.28 -0.5,-0.31 -0.5,-0.33 -0.5,-0.35 -0.5,-0.38 -0.4,-0.39 -0.5,-0.41 -0.4,-0.43 -0.4,-0.44 -0.4,-0.46 -0.4,-0.47 -0.4,-0.49 -0.3,-0.5 -0.3,-0.51 -0.4,-0.52 -0.2,-0.53 -0.3,-0.53 -0.2,-0.55 -0.3,-0.55 -0.2,-0.56 -0.1,-0.56 -0.2,-0.56 -0.1,-0.57 -0.1,-0.57 -0.1,-0.57 0,-0.56 0,-0.57 c 0,-4.78 3.2,-8.37 7.9,-8.37 l 0,1.1 c -2.8,0 -4.8,2.09 -4.8,5.88 0,3.14 1.8,12.5 8.6,14.29 l 0,0 c 1.2,-2.29 2.7,-4.98 2.7,-8.56 0,-3.29 -1.9,-11.61 -6.5,-11.61 l 0,-1.1 c 5.8,0 9.9,7.82 9.9,14.7 0,4.53 -2,7.02 -3.7,9.26 -1.8,2.25 -4.7,5.98 -4.7,8.17 0,1.1 1,2.29 2.7,2.29 1.5,0 2.5,-0.64 3.6,-1.34 1,-0.6 2,-1.25 2.7,-1.25 1.3,0 2,1.2 2,2 0,1.09 -0.8,1.24 -2.6,1.64 -2.6,0.55 -3.3,0.55 -4.1,0.55 -3.8,0 -5.6,-2.15 -5.6,-5.13 0,-2.69 1.4,-5.48 3,-8.52 z"
           id="path24777"
           inkscape:connector-curvature="0"
           style="fill:#000000;stroke-width:0.71822155;stroke-miterlimit:4;stroke-dasharray:none" /></g>    </g>
    <g
       id="g25109"
       transform="translate(-152.42822,-0.6895947)"
       style="display:inline;stroke-width:0.30000001;stroke-miterlimit:4;stroke-dasharray:none">
      <g
         word-spacing="normal"
         letter-spacing="normal"
         font-size-adjust="none"
         font-stretch="normal"
         font-weight="normal"
         font-variant="normal"
         font-style="normal"
         stroke-miterlimit="10.433"
         xml:space="preserve"
         transform="matrix(0.41769841,0,0,-0.41769841,-73.097222,370.19918)"
         id="g25111"
         style="font-style:normal;font-variant:normal;font-weight:normal;font-stretch:normal;letter-spacing:normal;word-spacing:normal;text-anchor:start;fill:none;fill-opacity:1;fill-rule:evenodd;stroke:#000000;stroke-width:0.71822155;stroke-linecap:butt;stroke-linejoin:miter;stroke-miterlimit:4;stroke-dasharray:none;stroke-dashoffset:0;stroke-opacity:1"><path
           id="path25113"
           d="m 1188.6,361.04 0.1,0.13 0,0.15 0,0.17 0.1,0.18 0,0.19 0.1,0.21 0.1,0.21 0,0.23 0.1,0.23 0.1,0.24 0.1,0.25 0.1,0.24 0.1,0.25 0.1,0.25 0.2,0.25 0.1,0.25 0.2,0.24 0.1,0.24 0.2,0.23 0.2,0.22 0.1,0.22 0.2,0.2 0.2,0.19 0.3,0.18 0.2,0.16 0.2,0.14 0.2,0.07 0.1,0.06 0.1,0.05 0.2,0.05 0.1,0.05 0.1,0.04 0.2,0.03 0.1,0.03 0.2,0.02 0.1,0.02 0.2,0.01 0.2,0 c 0.2,0 1.4,0 2.5,-0.65 -1.4,-0.25 -2.4,-1.49 -2.4,-2.68 0,-0.8 0.5,-1.75 1.9,-1.75 1.1,0 2.6,0.9 2.6,2.89 0,2.59 -2.9,3.29 -4.6,3.29 -2.9,0 -4.6,-2.64 -5.2,-3.79 -1.3,3.29 -4,3.79 -5.4,3.79 -5.2,0 -8,-6.43 -8,-7.67 0,-0.5 0.5,-0.5 0.6,-0.5 0.4,0 0.5,0.1 0.6,0.54 1.7,5.29 5,6.53 6.7,6.53 1,0 2.7,-0.45 2.7,-3.33 0,-1.55 -0.8,-4.89 -2.7,-11.86 -0.8,-3.09 -2.5,-5.18 -4.7,-5.18 -0.3,0 -1.5,0 -2.5,0.65 1.2,0.25 2.3,1.29 2.3,2.69 0,1.34 -1.1,1.74 -1.8,1.74 -1.5,0 -2.8,-1.3 -2.8,-2.89 0,-2.29 2.5,-3.29 4.7,-3.29 3.3,0 5.1,3.49 5.3,3.79 0.6,-1.85 2.4,-3.79 5.3,-3.79 5.2,0 8,6.43 8,7.67 0,0.5 -0.4,0.5 -0.6,0.5 -0.4,0 -0.5,-0.2 -0.6,-0.55 -1.7,-5.33 -5.1,-6.52 -6.7,-6.52 -1.9,0 -2.7,1.59 -2.7,3.29 0,1.09 0.3,2.19 0.8,4.38 z"
           inkscape:connector-curvature="0"
           style="fill:#000000;stroke-width:0.71822155;stroke-miterlimit:4;stroke-dasharray:none" /><path
           id="path25115"
           d="m 1212.7,361.18 0,0.04 0,0.04 0,0.04 0,0.04 0,0.04 0,0.04 0,0.03 0,0.04 0,0.03 0,0.03 0,0.04 0,0.03 0,0.02 0,0.03 0,0.03 0,0.03 -0.1,0.02 0,0.02 0,0.05 0,0.04 0,0.04 0,0.03 0,0.03 -0.1,0.03 0,0.03 0,0.02 0,0.02 -0.1,0.02 0,0.01 0,0.01 -0.1,0.02 0,0 -0.1,0.01 0,0 0,0.01 0,0 -0.1,0 0,0 0,0 -0.1,0.01 0,0 0,0 -0.1,0 0,0 0,0 -0.1,0 0,0 -0.1,0 0,0 -0.1,0 c -2.2,-2.19 -5.4,-2.23 -6.8,-2.23 l 0,-1.25 c 0.8,0 3.1,0 5.1,0.97 l 0,-17.78 c 0,-1.15 0,-1.61 -3.5,-1.61 l -1.4,0 0,-1.25 12.5,0 0,1.25 -1.3,0 c -3.5,0 -3.5,0.46 -3.5,1.61 z"
           inkscape:connector-curvature="0"
           style="fill:#000000;stroke-width:0.71822155;stroke-miterlimit:4;stroke-dasharray:none" /><path
           id="path25117"
           d="m 1266.8,357.46 0.2,0 0.1,0 0.2,0 0.1,0.01 0.1,0 0,0.01 0.1,0.01 0.1,0.01 0,0.01 0.1,0.01 0.1,0.02 0.1,0.02 0,0.02 0.1,0.03 0,0.02 0.1,0.04 0,0.03 0.1,0.04 0,0.04 0.1,0.05 0,0.05 0,0.02 0.1,0.03 0,0.03 0,0.03 0,0.03 0,0.04 0,0.03 0,0.03 0,0.04 0,0.04 0.1,0.04 0,0.04 0,0.04 0,0.04 0,0.05 0,0.04 c 0,1 -0.9,1 -1.8,1 l -26.9,0 c -0.9,0 -1.8,0 -1.8,-1 0,-0.99 0.9,-0.99 1.8,-0.99 z"
           inkscape:connector-curvature="0"
           style="fill:#000000;stroke-width:0.71822155;stroke-miterlimit:4;stroke-dasharray:none" /><path
           id="path25119"
           d="m 1297.2,367.77 -0.6,-0.15 -0.6,-0.19 -0.6,-0.21 -0.5,-0.23 -0.6,-0.27 -0.5,-0.28 -0.5,-0.31 -0.5,-0.33 -0.5,-0.35 -0.5,-0.38 -0.4,-0.39 -0.5,-0.41 -0.4,-0.43 -0.4,-0.44 -0.4,-0.46 -0.4,-0.47 -0.4,-0.49 -0.3,-0.5 -0.3,-0.51 -0.4,-0.52 -0.2,-0.53 -0.3,-0.53 -0.2,-0.55 -0.3,-0.55 -0.2,-0.56 -0.1,-0.56 -0.2,-0.56 -0.1,-0.57 -0.1,-0.57 -0.1,-0.57 0,-0.56 0,-0.57 c 0,-4.78 3.2,-8.37 7.9,-8.37 l 0,1.1 c -2.8,0 -4.8,2.09 -4.8,5.88 0,3.14 1.8,12.5 8.6,14.29 l 0,0 c 1.2,-2.29 2.7,-4.98 2.7,-8.56 0,-3.29 -1.9,-11.61 -6.5,-11.61 l 0,-1.1 c 5.8,0 9.9,7.82 9.9,14.7 0,4.53 -2,7.02 -3.7,9.26 -1.8,2.25 -4.7,5.98 -4.7,8.17 0,1.1 1,2.29 2.7,2.29 1.5,0 2.5,-0.64 3.6,-1.34 1,-0.6 2,-1.25 2.7,-1.25 1.3,0 2,1.2 2,2 0,1.09 -0.8,1.24 -2.6,1.64 -2.6,0.55 -3.3,0.55 -4.1,0.55 -3.8,0 -5.6,-2.15 -5.6,-5.13 0,-2.69 1.4,-5.48 3,-8.52 z"
           inkscape:connector-curvature="0"
           style="fill:#000000;stroke-width:0.71822155;stroke-miterlimit:4;stroke-dasharray:none" /></g>    </g>
  </g>
  <g
     inkscape:groupmode="layer"
     id="layer9"
     inkscape:label="Delta 1"
     style="display:inline"
     transform="translate(28.307708,4.9999996)">
    <g
       id="g25463"
       transform="translate(-85.843785,41.742837)"
       style="display:inline;stroke-width:0.30000001;stroke-miterlimit:4;stroke-dasharray:none">
      <g
         id="g25465"
         transform="matrix(0.41769841,0,0,-0.41769841,-73.097222,370.19918)"
         xml:space="preserve"
         stroke-miterlimit="10.433"
         font-style="normal"
         font-variant="normal"
         font-weight="normal"
         font-stretch="normal"
         font-size-adjust="none"
         letter-spacing="normal"
         word-spacing="normal"
         style="font-style:normal;font-variant:normal;font-weight:normal;font-stretch:normal;letter-spacing:normal;word-spacing:normal;text-anchor:start;fill:none;fill-opacity:1;fill-rule:evenodd;stroke:#000000;stroke-width:0.71822155;stroke-linecap:butt;stroke-linejoin:miter;stroke-miterlimit:4;stroke-dasharray:none;stroke-dashoffset:0;stroke-opacity:1"><path
           d="m 1178.6,361.04 0.1,0.13 0,0.15 0,0.17 0.1,0.18 0,0.19 0.1,0.21 0.1,0.21 0,0.23 0.1,0.23 0.1,0.24 0.1,0.25 0.1,0.24 0.1,0.25 0.1,0.25 0.2,0.25 0.1,0.25 0.2,0.24 0.1,0.24 0.2,0.23 0.2,0.22 0.1,0.22 0.2,0.2 0.2,0.19 0.3,0.18 0.2,0.16 0.2,0.14 0.2,0.07 0.1,0.06 0.1,0.05 0.2,0.05 0.1,0.05 0.1,0.04 0.2,0.03 0.1,0.03 0.2,0.02 0.1,0.02 0.2,0.01 0.2,0 c 0.2,0 1.4,0 2.5,-0.65 -1.4,-0.25 -2.4,-1.49 -2.4,-2.68 0,-0.8 0.5,-1.75 1.9,-1.75 1.1,0 2.6,0.9 2.6,2.89 0,2.59 -2.9,3.29 -4.6,3.29 -2.9,0 -4.6,-2.64 -5.2,-3.79 -1.3,3.29 -4,3.79 -5.4,3.79 -5.2,0 -8,-6.43 -8,-7.67 0,-0.5 0.5,-0.5 0.6,-0.5 0.4,0 0.5,0.1 0.6,0.54 1.7,5.29 5,6.53 6.7,6.53 1,0 2.7,-0.45 2.7,-3.33 0,-1.55 -0.8,-4.89 -2.7,-11.86 -0.8,-3.09 -2.5,-5.18 -4.7,-5.18 -0.3,0 -1.5,0 -2.5,0.65 1.2,0.25 2.3,1.29 2.3,2.69 0,1.34 -1.1,1.74 -1.8,1.74 -1.5,0 -2.8,-1.3 -2.8,-2.89 0,-2.29 2.5,-3.29 4.7,-3.29 3.3,0 5.1,3.49 5.3,3.79 0.6,-1.85 2.4,-3.79 5.3,-3.79 5.2,0 8,6.43 8,7.67 0,0.5 -0.4,0.5 -0.6,0.5 -0.4,0 -0.5,-0.2 -0.6,-0.55 -1.7,-5.33 -5.1,-6.52 -6.7,-6.52 -1.9,0 -2.7,1.59 -2.7,3.29 0,1.09 0.3,2.19 0.8,4.38 z"
           id="path25467"
           inkscape:connector-curvature="0"
           style="fill:#000000;stroke-width:0.71822155;stroke-miterlimit:4;stroke-dasharray:none" /><path
           d="m 1202.7,361.18 0,0.04 0,0.04 0,0.04 0,0.04 0,0.04 0,0.04 0,0.03 0,0.04 0,0.03 0,0.03 0,0.04 0,0.03 0,0.02 0,0.03 0,0.03 0,0.03 -0.1,0.02 0,0.02 0,0.05 0,0.04 0,0.04 0,0.03 0,0.03 -0.1,0.03 0,0.03 0,0.02 0,0.02 -0.1,0.02 0,0.01 0,0.01 -0.1,0.02 0,0 -0.1,0.01 0,0 0,0.01 0,0 -0.1,0 0,0 0,0 -0.1,0.01 0,0 0,0 -0.1,0 0,0 0,0 -0.1,0 0,0 -0.1,0 0,0 -0.1,0 c -2.2,-2.19 -5.4,-2.23 -6.8,-2.23 l 0,-1.25 c 0.8,0 3.1,0 5.1,0.97 l 0,-17.78 c 0,-1.15 0,-1.61 -3.5,-1.61 l -1.4,0 0,-1.25 12.5,0 0,1.25 -1.3,0 c -3.5,0 -3.5,0.46 -3.5,1.61 z"
           id="path25469"
           inkscape:connector-curvature="0"
           style="fill:#000000;stroke-width:0.71822155;stroke-miterlimit:4;stroke-dasharray:none" /><path
           d="m 1256.8,357.46 0.2,0 0.1,0 0.2,0 0.1,0.01 0.1,0 0,0.01 0.1,0.01 0.1,0.01 0,0.01 0.1,0.01 0.1,0.02 0.1,0.02 0,0.02 0.1,0.03 0,0.02 0.1,0.04 0,0.03 0.1,0.04 0,0.04 0.1,0.05 0,0.05 0,0.02 0.1,0.03 0,0.03 0,0.03 0,0.03 0,0.04 0,0.03 0,0.03 0,0.04 0,0.04 0.1,0.04 0,0.04 0,0.04 0,0.04 0,0.05 0,0.04 c 0,1 -0.9,1 -1.8,1 l -26.9,0 c -0.9,0 -1.8,0 -1.8,-1 0,-0.99 0.9,-0.99 1.8,-0.99 z"
           id="path25471"
           inkscape:connector-curvature="0"
           style="fill:#000000;stroke-width:0.71822155;stroke-miterlimit:4;stroke-dasharray:none" /><path
           d="m 1287.2,367.77 -0.6,-0.15 -0.6,-0.19 -0.6,-0.21 -0.5,-0.23 -0.6,-0.27 -0.5,-0.28 -0.5,-0.31 -0.5,-0.33 -0.5,-0.35 -0.5,-0.38 -0.4,-0.39 -0.5,-0.41 -0.4,-0.43 -0.4,-0.44 -0.4,-0.46 -0.4,-0.47 -0.4,-0.49 -0.3,-0.5 -0.3,-0.51 -0.4,-0.52 -0.2,-0.53 -0.3,-0.53 -0.2,-0.55 -0.3,-0.55 -0.2,-0.56 -0.1,-0.56 -0.2,-0.56 -0.1,-0.57 -0.1,-0.57 -0.1,-0.57 0,-0.56 0,-0.57 c 0,-4.78 3.2,-8.37 7.9,-8.37 l 0,1.1 c -2.8,0 -4.8,2.09 -4.8,5.88 0,3.14 1.8,12.5 8.6,14.29 l 0,0 c 1.2,-2.29 2.7,-4.98 2.7,-8.56 0,-3.29 -1.9,-11.61 -6.5,-11.61 l 0,-1.1 c 5.8,0 9.9,7.82 9.9,14.7 0,4.53 -2,7.02 -3.7,9.26 -1.8,2.25 -4.7,5.98 -4.7,8.17 0,1.1 1,2.29 2.7,2.29 1.5,0 2.5,-0.64 3.6,-1.34 1,-0.6 2,-1.25 2.7,-1.25 1.3,0 2,1.2 2,2 0,1.09 -0.8,1.24 -2.6,1.64 -2.6,0.55 -3.3,0.55 -4.1,0.55 -3.8,0 -5.6,-2.15 -5.6,-5.13 0,-2.69 1.4,-5.48 3,-8.52 z"
           id="path25473"
           inkscape:connector-curvature="0"
           style="fill:#000000;stroke-width:0.71822155;stroke-miterlimit:4;stroke-dasharray:none" /><path
           d="m 1307.7,361.18 0,0.04 0,0.04 0,0.04 0,0.04 0,0.04 0,0.04 0,0.03 0,0.04 0,0.03 0,0.03 0,0.04 0,0.03 0,0.02 0,0.03 0,0.03 0,0.03 -0.1,0.02 0,0.02 0,0.05 0,0.04 0,0.04 0,0.03 0,0.03 -0.1,0.03 0,0.03 0,0.02 0,0.02 -0.1,0.02 0,0.01 0,0.01 -0.1,0.02 0,0 -0.1,0.01 0,0 0,0.01 0,0 -0.1,0 0,0 0,0 -0.1,0.01 0,0 0,0 -0.1,0 0,0 0,0 -0.1,0 0,0 -0.1,0 0,0 -0.1,0 c -2.2,-2.19 -5.4,-2.23 -6.8,-2.23 l 0,-1.25 c 0.8,0 3.1,0 5.1,0.97 l 0,-17.78 c 0,-1.15 0,-1.61 -3.5,-1.61 l -1.4,0 0,-1.25 12.5,0 0,1.25 -1.3,0 c -3.5,0 -3.5,0.46 -3.5,1.61 z"
           id="path25475"
           inkscape:connector-curvature="0"
           style="fill:#000000;stroke-width:0.71822155;stroke-miterlimit:4;stroke-dasharray:none" /></g>    </g>
    <g
       id="g25833"
       transform="translate(9.1791449,41.742837)"
       style="display:inline;stroke-width:0.30000001;stroke-miterlimit:4;stroke-dasharray:none">
      <g
         word-spacing="normal"
         letter-spacing="normal"
         font-size-adjust="none"
         font-stretch="normal"
         font-weight="normal"
         font-variant="normal"
         font-style="normal"
         stroke-miterlimit="10.433"
         xml:space="preserve"
         transform="matrix(0.41769841,0,0,-0.41769841,-73.097222,370.19918)"
         id="g25835"
         style="font-style:normal;font-variant:normal;font-weight:normal;font-stretch:normal;letter-spacing:normal;word-spacing:normal;text-anchor:start;fill:none;fill-opacity:1;fill-rule:evenodd;stroke:#000000;stroke-width:0.71822155;stroke-linecap:butt;stroke-linejoin:miter;stroke-miterlimit:4;stroke-dasharray:none;stroke-dashoffset:0;stroke-opacity:1"><path
           id="path25837"
           d="m 1178.6,361.04 0.1,0.13 0,0.15 0,0.17 0.1,0.18 0,0.19 0.1,0.21 0.1,0.21 0,0.23 0.1,0.23 0.1,0.24 0.1,0.25 0.1,0.24 0.1,0.25 0.1,0.25 0.2,0.25 0.1,0.25 0.2,0.24 0.1,0.24 0.2,0.23 0.2,0.22 0.1,0.22 0.2,0.2 0.2,0.19 0.3,0.18 0.2,0.16 0.2,0.14 0.2,0.07 0.1,0.06 0.1,0.05 0.2,0.05 0.1,0.05 0.1,0.04 0.2,0.03 0.1,0.03 0.2,0.02 0.1,0.02 0.2,0.01 0.2,0 c 0.2,0 1.4,0 2.5,-0.65 -1.4,-0.25 -2.4,-1.49 -2.4,-2.68 0,-0.8 0.5,-1.75 1.9,-1.75 1.1,0 2.6,0.9 2.6,2.89 0,2.59 -2.9,3.29 -4.6,3.29 -2.9,0 -4.6,-2.64 -5.2,-3.79 -1.3,3.29 -4,3.79 -5.4,3.79 -5.2,0 -8,-6.43 -8,-7.67 0,-0.5 0.5,-0.5 0.6,-0.5 0.4,0 0.5,0.1 0.6,0.54 1.7,5.29 5,6.53 6.7,6.53 1,0 2.7,-0.45 2.7,-3.33 0,-1.55 -0.8,-4.89 -2.7,-11.86 -0.8,-3.09 -2.5,-5.18 -4.7,-5.18 -0.3,0 -1.5,0 -2.5,0.65 1.2,0.25 2.3,1.29 2.3,2.69 0,1.34 -1.1,1.74 -1.8,1.74 -1.5,0 -2.8,-1.3 -2.8,-2.89 0,-2.29 2.5,-3.29 4.7,-3.29 3.3,0 5.1,3.49 5.3,3.79 0.6,-1.85 2.4,-3.79 5.3,-3.79 5.2,0 8,6.43 8,7.67 0,0.5 -0.4,0.5 -0.6,0.5 -0.4,0 -0.5,-0.2 -0.6,-0.55 -1.7,-5.33 -5.1,-6.52 -6.7,-6.52 -1.9,0 -2.7,1.59 -2.7,3.29 0,1.09 0.3,2.19 0.8,4.38 z"
           inkscape:connector-curvature="0"
           style="fill:#000000;stroke-width:0.71822155;stroke-miterlimit:4;stroke-dasharray:none" /><path
           id="path25839"
           d="m 1202.7,361.18 0,0.04 0,0.04 0,0.04 0,0.04 0,0.04 0,0.04 0,0.03 0,0.04 0,0.03 0,0.03 0,0.04 0,0.03 0,0.02 0,0.03 0,0.03 0,0.03 -0.1,0.02 0,0.02 0,0.05 0,0.04 0,0.04 0,0.03 0,0.03 -0.1,0.03 0,0.03 0,0.02 0,0.02 -0.1,0.02 0,0.01 0,0.01 -0.1,0.02 0,0 -0.1,0.01 0,0 0,0.01 0,0 -0.1,0 0,0 0,0 -0.1,0.01 0,0 0,0 -0.1,0 0,0 0,0 -0.1,0 0,0 -0.1,0 0,0 -0.1,0 c -2.2,-2.19 -5.4,-2.23 -6.8,-2.23 l 0,-1.25 c 0.8,0 3.1,0 5.1,0.97 l 0,-17.78 c 0,-1.15 0,-1.61 -3.5,-1.61 l -1.4,0 0,-1.25 12.5,0 0,1.25 -1.3,0 c -3.5,0 -3.5,0.46 -3.5,1.61 z"
           inkscape:connector-curvature="0"
           style="fill:#000000;stroke-width:0.71822155;stroke-miterlimit:4;stroke-dasharray:none" /><path
           id="path25841"
           d="m 1244.4,357.46 13.9,0 c 0.7,0 1.6,0 1.6,0.99 0,1 -0.9,1 -1.6,1 l -13.9,0 0,13.95 c 0,0.69 0,1.64 -1,1.64 -1,0 -1,-0.95 -1,-1.64 l 0,-13.95 -14,0 c -0.7,0 -1.6,0 -1.6,-1 0,-0.99 0.9,-0.99 1.6,-0.99 l 14,0 0,-13.95 c 0,-0.7 0,-1.64 1,-1.64 1,0 1,0.94 1,1.64 z"
           inkscape:connector-curvature="0"
           style="fill:#000000;stroke-width:0.71822155;stroke-miterlimit:4;stroke-dasharray:none" /><path
           id="path25843"
           d="m 1287.2,367.77 -0.6,-0.15 -0.6,-0.19 -0.6,-0.21 -0.5,-0.23 -0.6,-0.27 -0.5,-0.28 -0.5,-0.31 -0.5,-0.33 -0.5,-0.35 -0.5,-0.38 -0.4,-0.39 -0.5,-0.41 -0.4,-0.43 -0.4,-0.44 -0.4,-0.46 -0.4,-0.47 -0.4,-0.49 -0.3,-0.5 -0.3,-0.51 -0.4,-0.52 -0.2,-0.53 -0.3,-0.53 -0.2,-0.55 -0.3,-0.55 -0.2,-0.56 -0.1,-0.56 -0.2,-0.56 -0.1,-0.57 -0.1,-0.57 -0.1,-0.57 0,-0.56 0,-0.57 c 0,-4.78 3.2,-8.37 7.9,-8.37 l 0,1.1 c -2.8,0 -4.8,2.09 -4.8,5.88 0,3.14 1.8,12.5 8.6,14.29 l 0,0 c 1.2,-2.29 2.7,-4.98 2.7,-8.56 0,-3.29 -1.9,-11.61 -6.5,-11.61 l 0,-1.1 c 5.8,0 9.9,7.82 9.9,14.7 0,4.53 -2,7.02 -3.7,9.26 -1.8,2.25 -4.7,5.98 -4.7,8.17 0,1.1 1,2.29 2.7,2.29 1.5,0 2.5,-0.64 3.6,-1.34 1,-0.6 2,-1.25 2.7,-1.25 1.3,0 2,1.2 2,2 0,1.09 -0.8,1.24 -2.6,1.64 -2.6,0.55 -3.3,0.55 -4.1,0.55 -3.8,0 -5.6,-2.15 -5.6,-5.13 0,-2.69 1.4,-5.48 3,-8.52 z"
           inkscape:connector-curvature="0"
           style="fill:#000000;stroke-width:0.71822155;stroke-miterlimit:4;stroke-dasharray:none" /><path
           id="path25845"
           d="m 1307.7,361.18 0,0.04 0,0.04 0,0.04 0,0.04 0,0.04 0,0.04 0,0.03 0,0.04 0,0.03 0,0.03 0,0.04 0,0.03 0,0.02 0,0.03 0,0.03 0,0.03 -0.1,0.02 0,0.02 0,0.05 0,0.04 0,0.04 0,0.03 0,0.03 -0.1,0.03 0,0.03 0,0.02 0,0.02 -0.1,0.02 0,0.01 0,0.01 -0.1,0.02 0,0 -0.1,0.01 0,0 0,0.01 0,0 -0.1,0 0,0 0,0 -0.1,0.01 0,0 0,0 -0.1,0 0,0 0,0 -0.1,0 0,0 -0.1,0 0,0 -0.1,0 c -2.2,-2.19 -5.4,-2.23 -6.8,-2.23 l 0,-1.25 c 0.8,0 3.1,0 5.1,0.97 l 0,-17.78 c 0,-1.15 0,-1.61 -3.5,-1.61 l -1.4,0 0,-1.25 12.5,0 0,1.25 -1.3,0 c -3.5,0 -3.5,0.46 -3.5,1.61 z"
           inkscape:connector-curvature="0"
           style="fill:#000000;stroke-width:0.71822155;stroke-miterlimit:4;stroke-dasharray:none" /></g>    </g>
    <path
       transform="translate(53.129371,42.432432)"
       style="display:inline;fill:none;fill-rule:evenodd;stroke:#000000;stroke-width:1.01199186;stroke-linecap:butt;stroke-linejoin:miter;stroke-miterlimit:4;stroke-dasharray:none;stroke-opacity:1"
       d="m 377.3601,31.868311 0,171.858519"
       id="path5344-0"
       inkscape:connector-curvature="0"
       sodipodi:nodetypes="cc" />
    <path
       transform="translate(53.129371,42.432432)"
       style="display:inline;fill:none;fill-rule:evenodd;stroke:#000000;stroke-width:1.01199186;stroke-linecap:butt;stroke-linejoin:miter;stroke-miterlimit:4;stroke-dasharray:none;stroke-opacity:1"
       d="m 324.95221,78.453453 0,125.851567"
       id="path5333-3"
       inkscape:connector-curvature="0"
       sodipodi:nodetypes="cc" />
    <path
       transform="translate(53.129371,42.432432)"
       sodipodi:nodetypes="csc"
       inkscape:connector-curvature="0"
       id="path3569-6"
       d="M 325.4956,77.784015 C 334.07985,71.084021 339.37415,66.734484 351.35302,56.237838 369.3259,40.48886 370.71725,38.703111 376.56088,32.272665"
       style="display:inline;fill:none;fill-rule:evenodd;stroke:#00aa00;stroke-width:5.05995941;stroke-linecap:round;stroke-linejoin:miter;stroke-miterlimit:4;stroke-dasharray:none;stroke-opacity:1" />
  </g>
  <g
     inkscape:groupmode="layer"
     id="layer7"
     inkscape:label="Delta 0"
     style="display:inline"
     transform="translate(28.307708,4.9999996)">
    <g
       id="g26217"
       transform="translate(-195.76367,41.450448)"
       style="display:inline;stroke-width:0.30000001;stroke-miterlimit:4;stroke-dasharray:none">
      <g
         id="g26219"
         transform="matrix(0.41769841,0,0,-0.41769841,-73.097222,370.19918)"
         xml:space="preserve"
         stroke-miterlimit="10.433"
         font-style="normal"
         font-variant="normal"
         font-weight="normal"
         font-stretch="normal"
         font-size-adjust="none"
         letter-spacing="normal"
         word-spacing="normal"
         style="font-style:normal;font-variant:normal;font-weight:normal;font-stretch:normal;letter-spacing:normal;word-spacing:normal;text-anchor:start;fill:none;fill-opacity:1;fill-rule:evenodd;stroke:#000000;stroke-width:0.71822155;stroke-linecap:butt;stroke-linejoin:miter;stroke-miterlimit:4;stroke-dasharray:none;stroke-dashoffset:0;stroke-opacity:1"><path
           d="m 1178.6,361.04 0.1,0.13 0,0.15 0,0.17 0.1,0.18 0,0.19 0.1,0.21 0.1,0.21 0,0.23 0.1,0.23 0.1,0.24 0.1,0.25 0.1,0.24 0.1,0.25 0.1,0.25 0.2,0.25 0.1,0.25 0.2,0.24 0.1,0.24 0.2,0.23 0.2,0.22 0.1,0.22 0.2,0.2 0.2,0.19 0.3,0.18 0.2,0.16 0.2,0.14 0.2,0.07 0.1,0.06 0.1,0.05 0.2,0.05 0.1,0.05 0.1,0.04 0.2,0.03 0.1,0.03 0.2,0.02 0.1,0.02 0.2,0.01 0.2,0 c 0.2,0 1.4,0 2.5,-0.65 -1.4,-0.25 -2.4,-1.49 -2.4,-2.68 0,-0.8 0.5,-1.75 1.9,-1.75 1.1,0 2.6,0.9 2.6,2.89 0,2.59 -2.9,3.29 -4.6,3.29 -2.9,0 -4.6,-2.64 -5.2,-3.79 -1.3,3.29 -4,3.79 -5.4,3.79 -5.2,0 -8,-6.43 -8,-7.67 0,-0.5 0.5,-0.5 0.6,-0.5 0.4,0 0.5,0.1 0.6,0.54 1.7,5.29 5,6.53 6.7,6.53 1,0 2.7,-0.45 2.7,-3.33 0,-1.55 -0.8,-4.89 -2.7,-11.86 -0.8,-3.09 -2.5,-5.18 -4.7,-5.18 -0.3,0 -1.5,0 -2.5,0.65 1.2,0.25 2.3,1.29 2.3,2.69 0,1.34 -1.1,1.74 -1.8,1.74 -1.5,0 -2.8,-1.3 -2.8,-2.89 0,-2.29 2.5,-3.29 4.7,-3.29 3.3,0 5.1,3.49 5.3,3.79 0.6,-1.85 2.4,-3.79 5.3,-3.79 5.2,0 8,6.43 8,7.67 0,0.5 -0.4,0.5 -0.6,0.5 -0.4,0 -0.5,-0.2 -0.6,-0.55 -1.7,-5.33 -5.1,-6.52 -6.7,-6.52 -1.9,0 -2.7,1.59 -2.7,3.29 0,1.09 0.3,2.19 0.8,4.38 z"
           id="path26221"
           inkscape:connector-curvature="0"
           style="fill:#000000;stroke-width:0.71822155;stroke-miterlimit:4;stroke-dasharray:none" /><path
           d="m 1209,350.12 0,0.71 0,0.68 -0.1,0.66 0,0.64 -0.1,0.62 0,0.59 -0.1,0.58 -0.1,0.56 -0.2,0.55 -0.1,0.53 -0.2,0.51 -0.2,0.5 -0.2,0.49 -0.2,0.48 -0.3,0.47 -0.1,0.24 -0.2,0.23 c -1,1.6 -3.2,2.99 -6,2.99 l 0,-0.97 c 1.9,0 3.7,-1.15 4.3,-3.18 0.6,-1.88 0.6,-4.39 0.6,-7.42 0,-2.58 0,-5.17 -0.4,-7.36 -0.7,-3.17 -3.1,-3.94 -4.5,-3.94 l 0,0 c -1.6,0 -3.7,0.94 -4.4,3.8 -0.5,2.06 -0.5,4.92 -0.5,7.5 0,2.54 0,5.19 0.5,7.11 0.7,2.76 3,3.49 4.4,3.49 l 0,0.97 c -8.1,0 -8.1,-9.52 -8.1,-12.03 0,-2.51 0,-11.82 8.1,-11.82 8.1,0 8.1,9.31 8.1,11.82 z"
           id="path26223"
           inkscape:connector-curvature="0"
           style="fill:#000000;stroke-width:0.71822155;stroke-miterlimit:4;stroke-dasharray:none" /><path
           d="m 1244.4,357.46 13.9,0 c 0.7,0 1.6,0 1.6,0.99 0,1 -0.9,1 -1.6,1 l -13.9,0 0,13.95 c 0,0.69 0,1.64 -1,1.64 -1,0 -1,-0.95 -1,-1.64 l 0,-13.95 -14,0 c -0.7,0 -1.6,0 -1.6,-1 0,-0.99 0.9,-0.99 1.6,-0.99 l 14,0 0,-13.95 c 0,-0.7 0,-1.64 1,-1.64 1,0 1,0.94 1,1.64 z"
           id="path26225"
           inkscape:connector-curvature="0"
           style="fill:#000000;stroke-width:0.71822155;stroke-miterlimit:4;stroke-dasharray:none" /><path
           d="m 1287.2,367.77 -0.6,-0.15 -0.6,-0.19 -0.6,-0.21 -0.5,-0.23 -0.6,-0.27 -0.5,-0.28 -0.5,-0.31 -0.5,-0.33 -0.5,-0.35 -0.5,-0.38 -0.4,-0.39 -0.5,-0.41 -0.4,-0.43 -0.4,-0.44 -0.4,-0.46 -0.4,-0.47 -0.4,-0.49 -0.3,-0.5 -0.3,-0.51 -0.4,-0.52 -0.2,-0.53 -0.3,-0.53 -0.2,-0.55 -0.3,-0.55 -0.2,-0.56 -0.1,-0.56 -0.2,-0.56 -0.1,-0.57 -0.1,-0.57 -0.1,-0.57 0,-0.56 0,-0.57 c 0,-4.78 3.2,-8.37 7.9,-8.37 l 0,1.1 c -2.8,0 -4.8,2.09 -4.8,5.88 0,3.14 1.8,12.5 8.6,14.29 l 0,0 c 1.2,-2.29 2.7,-4.98 2.7,-8.56 0,-3.29 -1.9,-11.61 -6.5,-11.61 l 0,-1.1 c 5.8,0 9.9,7.82 9.9,14.7 0,4.53 -2,7.02 -3.7,9.26 -1.8,2.25 -4.7,5.98 -4.7,8.17 0,1.1 1,2.29 2.7,2.29 1.5,0 2.5,-0.64 3.6,-1.34 1,-0.6 2,-1.25 2.7,-1.25 1.3,0 2,1.2 2,2 0,1.09 -0.8,1.24 -2.6,1.64 -2.6,0.55 -3.3,0.55 -4.1,0.55 -3.8,0 -5.6,-2.15 -5.6,-5.13 0,-2.69 1.4,-5.48 3,-8.52 z"
           id="path26227"
           inkscape:connector-curvature="0"
           style="fill:#000000;stroke-width:0.71822155;stroke-miterlimit:4;stroke-dasharray:none" /><path
           d="m 1314,350.12 0,0.71 0,0.68 -0.1,0.66 0,0.64 -0.1,0.62 0,0.59 -0.1,0.58 -0.1,0.56 -0.2,0.55 -0.1,0.53 -0.2,0.51 -0.2,0.5 -0.2,0.49 -0.2,0.48 -0.3,0.47 -0.1,0.24 -0.2,0.23 c -1,1.6 -3.2,2.99 -6,2.99 l 0,-0.97 c 1.9,0 3.7,-1.15 4.3,-3.18 0.6,-1.88 0.6,-4.39 0.6,-7.42 0,-2.58 0,-5.17 -0.4,-7.36 -0.7,-3.17 -3.1,-3.94 -4.5,-3.94 l 0,0 c -1.6,0 -3.7,0.94 -4.4,3.8 -0.5,2.06 -0.5,4.92 -0.5,7.5 0,2.54 0,5.19 0.5,7.11 0.7,2.76 3,3.49 4.4,3.49 l 0,0.97 c -8.1,0 -8.1,-9.52 -8.1,-12.03 0,-2.51 0,-11.82 8.1,-11.82 8.1,0 8.1,9.31 8.1,11.82 z"
           id="path26229"
           inkscape:connector-curvature="0"
           style="fill:#000000;stroke-width:0.71822155;stroke-miterlimit:4;stroke-dasharray:none" /></g>    </g>
    <g
       id="g26615"
       transform="translate(-314.87954,41.450448)"
       style="display:inline;stroke-width:0.30000001;stroke-miterlimit:4;stroke-dasharray:none">
      <g
         word-spacing="normal"
         letter-spacing="normal"
         font-size-adjust="none"
         font-stretch="normal"
         font-weight="normal"
         font-variant="normal"
         font-style="normal"
         stroke-miterlimit="10.433"
         xml:space="preserve"
         transform="matrix(0.41769841,0,0,-0.41769841,-73.097222,370.19918)"
         id="g26617"
         style="font-style:normal;font-variant:normal;font-weight:normal;font-stretch:normal;letter-spacing:normal;word-spacing:normal;text-anchor:start;fill:none;fill-opacity:1;fill-rule:evenodd;stroke:#000000;stroke-width:0.71822155;stroke-linecap:butt;stroke-linejoin:miter;stroke-miterlimit:4;stroke-dasharray:none;stroke-dashoffset:0;stroke-opacity:1"><path
           id="path26619"
           d="m 1178.6,361.04 0.1,0.13 0,0.15 0,0.17 0.1,0.18 0,0.19 0.1,0.21 0.1,0.21 0,0.23 0.1,0.23 0.1,0.24 0.1,0.25 0.1,0.24 0.1,0.25 0.1,0.25 0.2,0.25 0.1,0.25 0.2,0.24 0.1,0.24 0.2,0.23 0.2,0.22 0.1,0.22 0.2,0.2 0.2,0.19 0.3,0.18 0.2,0.16 0.2,0.14 0.2,0.07 0.1,0.06 0.1,0.05 0.2,0.05 0.1,0.05 0.1,0.04 0.2,0.03 0.1,0.03 0.2,0.02 0.1,0.02 0.2,0.01 0.2,0 c 0.2,0 1.4,0 2.5,-0.65 -1.4,-0.25 -2.4,-1.49 -2.4,-2.68 0,-0.8 0.5,-1.75 1.9,-1.75 1.1,0 2.6,0.9 2.6,2.89 0,2.59 -2.9,3.29 -4.6,3.29 -2.9,0 -4.6,-2.64 -5.2,-3.79 -1.3,3.29 -4,3.79 -5.4,3.79 -5.2,0 -8,-6.43 -8,-7.67 0,-0.5 0.5,-0.5 0.6,-0.5 0.4,0 0.5,0.1 0.6,0.54 1.7,5.29 5,6.53 6.7,6.53 1,0 2.7,-0.45 2.7,-3.33 0,-1.55 -0.8,-4.89 -2.7,-11.86 -0.8,-3.09 -2.5,-5.18 -4.7,-5.18 -0.3,0 -1.5,0 -2.5,0.65 1.2,0.25 2.3,1.29 2.3,2.69 0,1.34 -1.1,1.74 -1.8,1.74 -1.5,0 -2.8,-1.3 -2.8,-2.89 0,-2.29 2.5,-3.29 4.7,-3.29 3.3,0 5.1,3.49 5.3,3.79 0.6,-1.85 2.4,-3.79 5.3,-3.79 5.2,0 8,6.43 8,7.67 0,0.5 -0.4,0.5 -0.6,0.5 -0.4,0 -0.5,-0.2 -0.6,-0.55 -1.7,-5.33 -5.1,-6.52 -6.7,-6.52 -1.9,0 -2.7,1.59 -2.7,3.29 0,1.09 0.3,2.19 0.8,4.38 z"
           inkscape:connector-curvature="0"
           style="fill:#000000;stroke-width:0.71822155;stroke-miterlimit:4;stroke-dasharray:none" /><path
           id="path26621"
           d="m 1209,350.12 0,0.71 0,0.68 -0.1,0.66 0,0.64 -0.1,0.62 0,0.59 -0.1,0.58 -0.1,0.56 -0.2,0.55 -0.1,0.53 -0.2,0.51 -0.2,0.5 -0.2,0.49 -0.2,0.48 -0.3,0.47 -0.1,0.24 -0.2,0.23 c -1,1.6 -3.2,2.99 -6,2.99 l 0,-0.97 c 1.9,0 3.7,-1.15 4.3,-3.18 0.6,-1.88 0.6,-4.39 0.6,-7.42 0,-2.58 0,-5.17 -0.4,-7.36 -0.7,-3.17 -3.1,-3.94 -4.5,-3.94 l 0,0 c -1.6,0 -3.7,0.94 -4.4,3.8 -0.5,2.06 -0.5,4.92 -0.5,7.5 0,2.54 0,5.19 0.5,7.11 0.7,2.76 3,3.49 4.4,3.49 l 0,0.97 c -8.1,0 -8.1,-9.52 -8.1,-12.03 0,-2.51 0,-11.82 8.1,-11.82 8.1,0 8.1,9.31 8.1,11.82 z"
           inkscape:connector-curvature="0"
           style="fill:#000000;stroke-width:0.71822155;stroke-miterlimit:4;stroke-dasharray:none" /><path
           id="path26623"
           d="m 1256.8,357.46 0.2,0 0.1,0 0.2,0 0.1,0.01 0.1,0 0,0.01 0.1,0.01 0.1,0.01 0,0.01 0.1,0.01 0.1,0.02 0.1,0.02 0,0.02 0.1,0.03 0,0.02 0.1,0.04 0,0.03 0.1,0.04 0,0.04 0.1,0.05 0,0.05 0,0.02 0.1,0.03 0,0.03 0,0.03 0,0.03 0,0.04 0,0.03 0,0.03 0,0.04 0,0.04 0.1,0.04 0,0.04 0,0.04 0,0.04 0,0.05 0,0.04 c 0,1 -0.9,1 -1.8,1 l -26.9,0 c -0.9,0 -1.8,0 -1.8,-1 0,-0.99 0.9,-0.99 1.8,-0.99 z"
           inkscape:connector-curvature="0"
           style="fill:#000000;stroke-width:0.71822155;stroke-miterlimit:4;stroke-dasharray:none" /><path
           id="path26625"
           d="m 1287.2,367.77 -0.6,-0.15 -0.6,-0.19 -0.6,-0.21 -0.5,-0.23 -0.6,-0.27 -0.5,-0.28 -0.5,-0.31 -0.5,-0.33 -0.5,-0.35 -0.5,-0.38 -0.4,-0.39 -0.5,-0.41 -0.4,-0.43 -0.4,-0.44 -0.4,-0.46 -0.4,-0.47 -0.4,-0.49 -0.3,-0.5 -0.3,-0.51 -0.4,-0.52 -0.2,-0.53 -0.3,-0.53 -0.2,-0.55 -0.3,-0.55 -0.2,-0.56 -0.1,-0.56 -0.2,-0.56 -0.1,-0.57 -0.1,-0.57 -0.1,-0.57 0,-0.56 0,-0.57 c 0,-4.78 3.2,-8.37 7.9,-8.37 l 0,1.1 c -2.8,0 -4.8,2.09 -4.8,5.88 0,3.14 1.8,12.5 8.6,14.29 l 0,0 c 1.2,-2.29 2.7,-4.98 2.7,-8.56 0,-3.29 -1.9,-11.61 -6.5,-11.61 l 0,-1.1 c 5.8,0 9.9,7.82 9.9,14.7 0,4.53 -2,7.02 -3.7,9.26 -1.8,2.25 -4.7,5.98 -4.7,8.17 0,1.1 1,2.29 2.7,2.29 1.5,0 2.5,-0.64 3.6,-1.34 1,-0.6 2,-1.25 2.7,-1.25 1.3,0 2,1.2 2,2 0,1.09 -0.8,1.24 -2.6,1.64 -2.6,0.55 -3.3,0.55 -4.1,0.55 -3.8,0 -5.6,-2.15 -5.6,-5.13 0,-2.69 1.4,-5.48 3,-8.52 z"
           inkscape:connector-curvature="0"
           style="fill:#000000;stroke-width:0.71822155;stroke-miterlimit:4;stroke-dasharray:none" /><path
           id="path26627"
           d="m 1314,350.12 0,0.71 0,0.68 -0.1,0.66 0,0.64 -0.1,0.62 0,0.59 -0.1,0.58 -0.1,0.56 -0.2,0.55 -0.1,0.53 -0.2,0.51 -0.2,0.5 -0.2,0.49 -0.2,0.48 -0.3,0.47 -0.1,0.24 -0.2,0.23 c -1,1.6 -3.2,2.99 -6,2.99 l 0,-0.97 c 1.9,0 3.7,-1.15 4.3,-3.18 0.6,-1.88 0.6,-4.39 0.6,-7.42 0,-2.58 0,-5.17 -0.4,-7.36 -0.7,-3.17 -3.1,-3.94 -4.5,-3.94 l 0,0 c -1.6,0 -3.7,0.94 -4.4,3.8 -0.5,2.06 -0.5,4.92 -0.5,7.5 0,2.54 0,5.19 0.5,7.11 0.7,2.76 3,3.49 4.4,3.49 l 0,0.97 c -8.1,0 -8.1,-9.52 -8.1,-12.03 0,-2.51 0,-11.82 8.1,-11.82 8.1,0 8.1,9.31 8.1,11.82 z"
           inkscape:connector-curvature="0"
           style="fill:#000000;stroke-width:0.71822155;stroke-miterlimit:4;stroke-dasharray:none" /></g>    </g>
    <path
       transform="translate(53.129371,42.432432)"
       style="display:inline;fill:none;fill-rule:evenodd;stroke:#000000;stroke-width:1.01199186;stroke-linecap:butt;stroke-linejoin:miter;stroke-miterlimit:4;stroke-dasharray:none;stroke-opacity:1"
       d="m 195.41276,146.73057 0,57.28801"
       id="path3573-1"
       inkscape:connector-curvature="0"
       sodipodi:nodetypes="cc" />
    <path
       transform="translate(53.129371,42.432432)"
       sodipodi:nodetypes="cc"
       inkscape:connector-curvature="0"
       id="path3571-0"
       d="m 76.296883,179.05955 0,24.95903"
       style="display:inline;fill:none;fill-rule:evenodd;stroke:#000000;stroke-width:1.01199186;stroke-linecap:butt;stroke-linejoin:miter;stroke-miterlimit:4;stroke-dasharray:none;stroke-opacity:1" />
    <path
       transform="translate(53.129371,42.432432)"
       style="display:inline;fill:none;fill-rule:evenodd;stroke:#00aa00;stroke-width:5.05995941;stroke-linecap:round;stroke-linejoin:miter;stroke-miterlimit:4;stroke-dasharray:none;stroke-opacity:1"
       d="m 76.369428,179.22505 c 24.630222,-5.10222 29.146562,-4.74184 61.859912,-14.16889 37.43959,-10.78901 35.65899,-10.86347 56.42227,-18.18317"
       id="path5002-6-6"
       inkscape:connector-curvature="0"
       sodipodi:nodetypes="csc" />
  </g>
  <g
     inkscape:groupmode="layer"
     id="layer2"
     inkscape:label="Function with 2 points"
     style="display:inline"
     transform="translate(81.437079,47.432432)">
    <path
       style="fill:#000080;fill-opacity:1;fill-rule:evenodd;stroke:#000080;stroke-width:1.26498985;stroke-linecap:butt;stroke-linejoin:miter;stroke-miterlimit:4;stroke-dasharray:5.05995942, 5.05995942;stroke-dashoffset:0;stroke-opacity:1"
       d="m 139.07165,167.0067 0,35.67484"
       id="path5128"
       inkscape:connector-curvature="0"
       sodipodi:nodetypes="cc" />
    <path
       style="fill:#000080;fill-opacity:1;fill-rule:evenodd;stroke:#000080;stroke-width:1.26498985;stroke-linecap:butt;stroke-linejoin:miter;stroke-miterlimit:4;stroke-dasharray:5.05995942, 5.05995942;stroke-dashoffset:0;stroke-opacity:1"
       d="m 138.44942,163.28993 -121.022124,0"
       id="path5130"
       inkscape:connector-curvature="0"
       sodipodi:nodetypes="cc" />
    <circle
       r="6.3249493"
       cy="163.70598"
       cx="138.84804"
       id="circle3431"
       style="fill:#000000;stroke:#000000;stroke-width:2.52997971;stroke-miterlimit:4;stroke-dasharray:none;stroke-dashoffset:0" />
    <path
       sodipodi:nodetypes="cc"
       inkscape:connector-curvature="0"
       id="path3432"
       d="m 354.33623,54.979786 -336.908934,0"
       style="fill:#000080;fill-opacity:1;fill-rule:evenodd;stroke:#000080;stroke-width:1.26498985;stroke-linecap:butt;stroke-linejoin:miter;stroke-miterlimit:4;stroke-dasharray:5.05995942, 5.05995942;stroke-dashoffset:0;stroke-opacity:1" />
    <path
       sodipodi:nodetypes="cc"
       inkscape:connector-curvature="0"
       id="path3434"
       d="m 353.4915,53.806705 0,148.874835"
       style="fill:#000080;fill-opacity:1;fill-rule:evenodd;stroke:#000080;stroke-width:1.26498985;stroke-linecap:butt;stroke-linejoin:miter;stroke-miterlimit:4;stroke-dasharray:5.05995942, 5.05995942;stroke-dashoffset:0;stroke-opacity:1" />
    <text
       sodipodi:linespacing="125%"
       id="text3436"
       y="222.78957"
       x="347.32956"
       style="font-style:normal;font-weight:normal;line-height:125%;font-family:sans-serif;text-align:start;letter-spacing:0px;word-spacing:0px;writing-mode:lr-tb;baseline-shift:baseline;text-anchor:start;fill:#000000;fill-opacity:1;stroke:none;stroke-width:1px;stroke-linecap:butt;stroke-linejoin:miter;stroke-opacity:1"
       xml:space="preserve"><tspan
         y="222.78957"
         x="347.32956"
         id="tspan3438"
         sodipodi:role="line"
         style="font-size:19.63750076px" /><tspan
         y="247.33644"
         x="347.32956"
         sodipodi:role="line"
         style="font-size:19.63750076px"
         id="tspan3444" /></text>
    <g
       id="g23523"
       transform="translate(-90.501025,-0.6895947)"
       style="display:inline;fill:#000080;fill-opacity:1;stroke:#000080;stroke-width:0.30000001;stroke-miterlimit:4;stroke-dasharray:none;stroke-opacity:1">
      <g
         id="g23525"
         transform="matrix(0.41769841,0,0,-0.41769841,-73.097222,370.19918)"
         xml:space="preserve"
         stroke-miterlimit="10.433"
         font-style="normal"
         font-variant="normal"
         font-weight="normal"
         font-stretch="normal"
         font-size-adjust="none"
         letter-spacing="normal"
         word-spacing="normal"
         style="font-style:normal;font-variant:normal;font-weight:normal;font-stretch:normal;letter-spacing:normal;word-spacing:normal;text-anchor:start;fill:#000080;fill-opacity:1;fill-rule:evenodd;stroke:#000080;stroke-width:0.71822155;stroke-linecap:butt;stroke-linejoin:miter;stroke-miterlimit:4;stroke-dasharray:none;stroke-dashoffset:0;stroke-opacity:1"><path
           d="m 1231.6,361.04 0.1,0.13 0,0.15 0,0.17 0.1,0.18 0,0.19 0.1,0.21 0.1,0.21 0,0.23 0.1,0.23 0.1,0.24 0.1,0.25 0.1,0.24 0.1,0.25 0.1,0.25 0.2,0.25 0.1,0.25 0.2,0.24 0.1,0.24 0.2,0.23 0.2,0.22 0.1,0.22 0.2,0.2 0.2,0.19 0.3,0.18 0.2,0.16 0.2,0.14 0.2,0.07 0.1,0.06 0.1,0.05 0.2,0.05 0.1,0.05 0.1,0.04 0.2,0.03 0.1,0.03 0.2,0.02 0.1,0.02 0.2,0.01 0.2,0 c 0.2,0 1.4,0 2.5,-0.65 -1.4,-0.25 -2.4,-1.49 -2.4,-2.68 0,-0.8 0.5,-1.75 1.9,-1.75 1.1,0 2.6,0.9 2.6,2.89 0,2.59 -2.9,3.29 -4.6,3.29 -2.9,0 -4.6,-2.64 -5.2,-3.79 -1.3,3.29 -4,3.79 -5.4,3.79 -5.2,0 -8,-6.43 -8,-7.67 0,-0.5 0.5,-0.5 0.6,-0.5 0.4,0 0.5,0.1 0.6,0.54 1.7,5.29 5,6.53 6.7,6.53 1,0 2.7,-0.45 2.7,-3.33 0,-1.55 -0.8,-4.89 -2.7,-11.86 -0.8,-3.09 -2.5,-5.18 -4.7,-5.18 -0.3,0 -1.5,0 -2.5,0.65 1.2,0.25 2.3,1.29 2.3,2.69 0,1.34 -1.1,1.74 -1.8,1.74 -1.5,0 -2.8,-1.3 -2.8,-2.89 0,-2.29 2.5,-3.29 4.7,-3.29 3.3,0 5.1,3.49 5.3,3.79 0.6,-1.85 2.4,-3.79 5.3,-3.79 5.2,0 8,6.43 8,7.67 0,0.5 -0.4,0.5 -0.6,0.5 -0.4,0 -0.5,-0.2 -0.6,-0.55 -1.7,-5.33 -5.1,-6.52 -6.7,-6.52 -1.9,0 -2.7,1.59 -2.7,3.29 0,1.09 0.3,2.19 0.8,4.38 z"
           id="path23527"
           inkscape:connector-curvature="0"
           style="fill:#000080;fill-opacity:1;stroke:#000080;stroke-width:0.71822155;stroke-miterlimit:4;stroke-dasharray:none;stroke-opacity:1" /><path
           d="m 1254.7,361.18 0,0.04 0,0.04 0,0.04 0,0.04 0,0.04 0,0.04 0,0.03 0,0.04 0,0.03 0,0.03 0,0.04 0,0.03 0,0.02 0,0.03 0,0.03 0,0.03 -0.1,0.02 0,0.02 0,0.05 0,0.04 0,0.04 0,0.03 0,0.03 -0.1,0.03 0,0.03 0,0.02 0,0.02 -0.1,0.02 0,0.01 0,0.01 -0.1,0.02 0,0 -0.1,0.01 0,0 0,0.01 0,0 -0.1,0 0,0 0,0 -0.1,0.01 0,0 0,0 -0.1,0 0,0 0,0 -0.1,0 0,0 -0.1,0 0,0 -0.1,0 c -2.2,-2.19 -5.4,-2.23 -6.8,-2.23 l 0,-1.25 c 0.8,0 3.1,0 5.1,0.97 l 0,-17.78 c 0,-1.15 0,-1.61 -3.5,-1.61 l -1.4,0 0,-1.25 12.5,0 0,1.25 -1.3,0 c -3.5,0 -3.5,0.46 -3.5,1.61 z"
           id="path23529"
           inkscape:connector-curvature="0"
           style="fill:#000080;fill-opacity:1;stroke:#000080;stroke-width:0.71822155;stroke-miterlimit:4;stroke-dasharray:none;stroke-opacity:1" /></g>    </g>
    <g
       id="g23817"
       transform="translate(-305.23415,-0.98198359)"
       style="display:inline;fill:#000080;fill-opacity:1;stroke:#000080;stroke-width:0.30000001;stroke-miterlimit:4;stroke-dasharray:none;stroke-opacity:1">
      <g
         word-spacing="normal"
         letter-spacing="normal"
         font-size-adjust="none"
         font-stretch="normal"
         font-weight="normal"
         font-variant="normal"
         font-style="normal"
         stroke-miterlimit="10.433"
         xml:space="preserve"
         transform="matrix(0.41769841,0,0,-0.41769841,-73.097222,370.19918)"
         id="g23819"
         style="font-style:normal;font-variant:normal;font-weight:normal;font-stretch:normal;letter-spacing:normal;word-spacing:normal;text-anchor:start;fill:#000080;fill-opacity:1;fill-rule:evenodd;stroke:#000080;stroke-width:0.71822155;stroke-linecap:butt;stroke-linejoin:miter;stroke-miterlimit:4;stroke-dasharray:none;stroke-dashoffset:0;stroke-opacity:1"><path
           id="path23821"
           d="m 1231.6,361.04 0.1,0.13 0,0.15 0,0.17 0.1,0.18 0,0.19 0.1,0.21 0.1,0.21 0,0.23 0.1,0.23 0.1,0.24 0.1,0.25 0.1,0.24 0.1,0.25 0.1,0.25 0.2,0.25 0.1,0.25 0.2,0.24 0.1,0.24 0.2,0.23 0.2,0.22 0.1,0.22 0.2,0.2 0.2,0.19 0.3,0.18 0.2,0.16 0.2,0.14 0.2,0.07 0.1,0.06 0.1,0.05 0.2,0.05 0.1,0.05 0.1,0.04 0.2,0.03 0.1,0.03 0.2,0.02 0.1,0.02 0.2,0.01 0.2,0 c 0.2,0 1.4,0 2.5,-0.65 -1.4,-0.25 -2.4,-1.49 -2.4,-2.68 0,-0.8 0.5,-1.75 1.9,-1.75 1.1,0 2.6,0.9 2.6,2.89 0,2.59 -2.9,3.29 -4.6,3.29 -2.9,0 -4.6,-2.64 -5.2,-3.79 -1.3,3.29 -4,3.79 -5.4,3.79 -5.2,0 -8,-6.43 -8,-7.67 0,-0.5 0.5,-0.5 0.6,-0.5 0.4,0 0.5,0.1 0.6,0.54 1.7,5.29 5,6.53 6.7,6.53 1,0 2.7,-0.45 2.7,-3.33 0,-1.55 -0.8,-4.89 -2.7,-11.86 -0.8,-3.09 -2.5,-5.18 -4.7,-5.18 -0.3,0 -1.5,0 -2.5,0.65 1.2,0.25 2.3,1.29 2.3,2.69 0,1.34 -1.1,1.74 -1.8,1.74 -1.5,0 -2.8,-1.3 -2.8,-2.89 0,-2.29 2.5,-3.29 4.7,-3.29 3.3,0 5.1,3.49 5.3,3.79 0.6,-1.85 2.4,-3.79 5.3,-3.79 5.2,0 8,6.43 8,7.67 0,0.5 -0.4,0.5 -0.6,0.5 -0.4,0 -0.5,-0.2 -0.6,-0.55 -1.7,-5.33 -5.1,-6.52 -6.7,-6.52 -1.9,0 -2.7,1.59 -2.7,3.29 0,1.09 0.3,2.19 0.8,4.38 z"
           inkscape:connector-curvature="0"
           style="fill:#000080;fill-opacity:1;stroke:#000080;stroke-width:0.71822155;stroke-miterlimit:4;stroke-dasharray:none;stroke-opacity:1" /><path
           id="path23823"
           d="m 1261,350.12 0,0.71 0,0.68 -0.1,0.66 0,0.64 -0.1,0.62 0,0.59 -0.1,0.58 -0.1,0.56 -0.2,0.55 -0.1,0.53 -0.2,0.51 -0.2,0.5 -0.2,0.49 -0.2,0.48 -0.3,0.47 -0.1,0.24 -0.2,0.23 c -1,1.6 -3.2,2.99 -6,2.99 l 0,-0.97 c 1.9,0 3.7,-1.15 4.3,-3.18 0.6,-1.88 0.6,-4.39 0.6,-7.42 0,-2.58 0,-5.17 -0.4,-7.36 -0.7,-3.17 -3.1,-3.94 -4.5,-3.94 l 0,0 c -1.6,0 -3.7,0.94 -4.4,3.8 -0.5,2.06 -0.5,4.92 -0.5,7.5 0,2.54 0,5.19 0.5,7.11 0.7,2.76 3,3.49 4.4,3.49 l 0,0.97 c -8.1,0 -8.1,-9.52 -8.1,-12.03 0,-2.51 0,-11.82 8.1,-11.82 8.1,0 8.1,9.31 8.1,11.82 z"
           inkscape:connector-curvature="0"
           style="fill:#000080;fill-opacity:1;stroke:#000080;stroke-width:0.71822155;stroke-miterlimit:4;stroke-dasharray:none;stroke-opacity:1" /></g>    </g>
    <g
       id="g22953"
       transform="translate(-456.94802,-57.183166)"
       style="display:inline;fill:#000080;fill-opacity:1;stroke:#000080;stroke-width:0.30000001;stroke-miterlimit:4;stroke-dasharray:none;stroke-opacity:1">
      <g
         id="g22955"
         transform="matrix(0.41769841,0,0,-0.41769841,-73.097222,370.19918)"
         xml:space="preserve"
         stroke-miterlimit="10.433"
         font-style="normal"
         font-variant="normal"
         font-weight="normal"
         font-stretch="normal"
         font-size-adjust="none"
         letter-spacing="normal"
         word-spacing="normal"
         style="font-style:normal;font-variant:normal;font-weight:normal;font-stretch:normal;letter-spacing:normal;word-spacing:normal;text-anchor:start;fill:#000080;fill-opacity:1;fill-rule:evenodd;stroke:#000080;stroke-width:0.71822155;stroke-linecap:butt;stroke-linejoin:miter;stroke-miterlimit:4;stroke-dasharray:none;stroke-dashoffset:0;stroke-opacity:1"><path
           d="m 1198.3,365.93 4.3,0 c 1,0 1.5,0 1.5,0.99 0,0.55 -0.5,0.55 -1.4,0.55 l -4.1,0 1,5.68 c 0.2,1.05 0.9,4.58 1.2,5.18 0.5,0.94 1.3,1.69 2.4,1.69 0.2,0 1.5,0 2.4,-0.9 -2.2,-0.19 -2.7,-1.94 -2.7,-2.68 0,-1.15 0.9,-1.75 1.9,-1.75 1.3,0 2.7,1.1 2.7,2.99 0,2.29 -2.3,3.44 -4.3,3.44 -1.7,0 -4.9,-0.9 -6.4,-5.83 -0.3,-1.05 -0.4,-1.54 -1.6,-7.82 l -3.4,0 c -1,0 -1.5,0 -1.5,-0.95 0,-0.59 0.4,-0.59 1.4,-0.59 l 3.2,0 -3.7,-19.68 c -0.9,-4.83 -1.7,-9.37 -4.3,-9.37 -0.2,0 -1.5,0 -2.4,0.9 2.3,0.15 2.7,1.94 2.7,2.69 0,1.15 -0.9,1.74 -1.8,1.74 -1.3,0 -2.8,-1.09 -2.8,-2.98 0,-2.25 2.2,-3.44 4.3,-3.44 2.7,0 4.7,2.94 5.6,4.83 1.6,3.14 2.7,9.17 2.8,9.51 z"
           id="path22957"
           inkscape:connector-curvature="0"
           style="fill:#000080;fill-opacity:1;stroke:#000080;stroke-width:0.71822155;stroke-miterlimit:4;stroke-dasharray:none;stroke-opacity:1" /><path
           d="m 1226.5,334.04 0,0.03 0,0.03 0,0.01 0,0.02 0,0.01 0,0.02 0,0.02 0,0.01 0,0.02 -0.1,0.02 0,0.03 0,0.02 0,0.02 0,0.03 0,0.03 -0.1,0.03 0,0.03 0,0.04 0,0.02 -0.1,0.02 0,0.02 0,0.02 0,0.02 0,0.03 0,0.02 -0.1,0.02 0,0.03 0,0.02 0,0.03 -0.1,0.03 0,0.03 0,0.03 0,0.03 -0.1,0.03 0,0.03 0,0.03 -0.1,0.04 0,0.03 0,0.04 -0.1,0.03 0,0.04 -0.1,0.04 c -6.2,6.28 -7.8,15.69 -7.8,23.31 0,8.67 1.9,17.34 8,23.57 0.7,0.59 0.7,0.69 0.7,0.84 0,0.35 -0.2,0.5 -0.5,0.5 -0.5,0 -5,-3.39 -7.9,-9.72 -2.6,-5.47 -3.2,-11 -3.2,-15.19 0,-3.88 0.6,-9.91 3.3,-15.54 3,-6.12 7.3,-9.36 7.8,-9.36 0.3,0 0.5,0.15 0.5,0.49 z"
           id="path22959"
           inkscape:connector-curvature="0"
           style="fill:#000080;fill-opacity:1;stroke:#000080;stroke-width:0.71822155;stroke-miterlimit:4;stroke-dasharray:none;stroke-opacity:1" /><path
           d="m 1246.6,361.04 0.1,0.13 0,0.15 0,0.17 0.1,0.18 0,0.19 0.1,0.21 0.1,0.21 0,0.23 0.1,0.23 0.1,0.24 0.1,0.25 0.1,0.24 0.1,0.25 0.1,0.25 0.2,0.25 0.1,0.25 0.2,0.24 0.1,0.24 0.2,0.23 0.2,0.22 0.1,0.22 0.2,0.2 0.2,0.19 0.3,0.18 0.2,0.16 0.2,0.14 0.2,0.07 0.1,0.06 0.1,0.05 0.2,0.05 0.1,0.05 0.1,0.04 0.2,0.03 0.1,0.03 0.2,0.02 0.1,0.02 0.2,0.01 0.2,0 c 0.2,0 1.4,0 2.5,-0.65 -1.4,-0.25 -2.4,-1.49 -2.4,-2.68 0,-0.8 0.5,-1.75 1.9,-1.75 1.1,0 2.6,0.9 2.6,2.89 0,2.59 -2.9,3.29 -4.6,3.29 -2.9,0 -4.6,-2.64 -5.2,-3.79 -1.3,3.29 -4,3.79 -5.4,3.79 -5.2,0 -8,-6.43 -8,-7.67 0,-0.5 0.5,-0.5 0.6,-0.5 0.4,0 0.5,0.1 0.6,0.54 1.7,5.29 5,6.53 6.7,6.53 1,0 2.7,-0.45 2.7,-3.33 0,-1.55 -0.8,-4.89 -2.7,-11.86 -0.8,-3.09 -2.5,-5.18 -4.7,-5.18 -0.3,0 -1.5,0 -2.5,0.65 1.2,0.25 2.3,1.29 2.3,2.69 0,1.34 -1.1,1.74 -1.8,1.74 -1.5,0 -2.8,-1.3 -2.8,-2.89 0,-2.29 2.5,-3.29 4.7,-3.29 3.3,0 5.1,3.49 5.3,3.79 0.6,-1.85 2.4,-3.79 5.3,-3.79 5.2,0 8,6.43 8,7.67 0,0.5 -0.4,0.5 -0.6,0.5 -0.4,0 -0.5,-0.2 -0.6,-0.55 -1.7,-5.33 -5.1,-6.52 -6.7,-6.52 -1.9,0 -2.7,1.59 -2.7,3.29 0,1.09 0.3,2.19 0.8,4.38 z"
           id="path22961"
           inkscape:connector-curvature="0"
           style="fill:#000080;fill-opacity:1;stroke:#000080;stroke-width:0.71822155;stroke-miterlimit:4;stroke-dasharray:none;stroke-opacity:1" /><path
           d="m 1276,350.12 0,0.71 0,0.68 -0.1,0.66 0,0.64 -0.1,0.62 0,0.59 -0.1,0.58 -0.1,0.56 -0.2,0.55 -0.1,0.53 -0.2,0.51 -0.2,0.5 -0.2,0.49 -0.2,0.48 -0.3,0.47 -0.1,0.24 -0.2,0.23 c -1,1.6 -3.2,2.99 -6,2.99 l 0,-0.97 c 1.9,0 3.7,-1.15 4.3,-3.18 0.6,-1.88 0.6,-4.39 0.6,-7.42 0,-2.58 0,-5.17 -0.4,-7.36 -0.7,-3.17 -3.1,-3.94 -4.5,-3.94 l 0,0 c -1.6,0 -3.7,0.94 -4.4,3.8 -0.5,2.06 -0.5,4.92 -0.5,7.5 0,2.54 0,5.19 0.5,7.11 0.7,2.76 3,3.49 4.4,3.49 l 0,0.97 c -8.1,0 -8.1,-9.52 -8.1,-12.03 0,-2.51 0,-11.82 8.1,-11.82 8.1,0 8.1,9.31 8.1,11.82 z"
           id="path22963"
           inkscape:connector-curvature="0"
           style="fill:#000080;fill-opacity:1;stroke:#000080;stroke-width:0.71822155;stroke-miterlimit:4;stroke-dasharray:none;stroke-opacity:1" /><path
           d="m 1294.4,358.45 0,0.37 0,0.39 0,0.39 0,0.41 -0.1,0.84 0,0.88 -0.1,0.92 -0.1,0.94 -0.2,0.98 -0.1,1 -0.2,1.02 -0.2,1.04 -0.3,1.05 -0.3,1.06 -0.4,1.06 -0.4,1.07 -0.2,0.53 -0.2,0.54 -0.2,0.53 -0.3,0.53 c -3,6.12 -7.3,9.36 -7.8,9.36 -0.3,0 -0.5,-0.2 -0.5,-0.5 0,-0.15 0,-0.25 1,-1.15 4.9,-4.92 7.7,-12.85 7.7,-23.26 0,-8.52 -1.8,-17.28 -8,-23.56 -0.7,-0.6 -0.7,-0.69 -0.7,-0.85 0,-0.29 0.2,-0.49 0.5,-0.49 0.5,0 5,3.38 8,9.71 2.5,5.48 3.1,11.01 3.1,15.19 z"
           id="path22965"
           inkscape:connector-curvature="0"
           style="fill:#000080;fill-opacity:1;stroke:#000080;stroke-width:0.71822155;stroke-miterlimit:4;stroke-dasharray:none;stroke-opacity:1" /></g>    </g>
    <g
       id="g23231"
       transform="translate(-456.94802,-165.49331)"
       style="display:inline;fill:#000080;fill-opacity:1;stroke:#000080;stroke-width:0.30000001;stroke-miterlimit:4;stroke-dasharray:none;stroke-opacity:1">
      <g
         word-spacing="normal"
         letter-spacing="normal"
         font-size-adjust="none"
         font-stretch="normal"
         font-weight="normal"
         font-variant="normal"
         font-style="normal"
         stroke-miterlimit="10.433"
         xml:space="preserve"
         transform="matrix(0.41769841,0,0,-0.41769841,-73.097222,370.19918)"
         id="g23233"
         style="font-style:normal;font-variant:normal;font-weight:normal;font-stretch:normal;letter-spacing:normal;word-spacing:normal;text-anchor:start;fill:#000080;fill-opacity:1;fill-rule:evenodd;stroke:#000080;stroke-width:0.71822155;stroke-linecap:butt;stroke-linejoin:miter;stroke-miterlimit:4;stroke-dasharray:none;stroke-dashoffset:0;stroke-opacity:1"><path
           id="path23235"
           d="m 1198.3,365.93 4.3,0 c 1,0 1.5,0 1.5,0.99 0,0.55 -0.5,0.55 -1.4,0.55 l -4.1,0 1,5.68 c 0.2,1.05 0.9,4.58 1.2,5.18 0.5,0.94 1.3,1.69 2.4,1.69 0.2,0 1.5,0 2.4,-0.9 -2.2,-0.19 -2.7,-1.94 -2.7,-2.68 0,-1.15 0.9,-1.75 1.9,-1.75 1.3,0 2.7,1.1 2.7,2.99 0,2.29 -2.3,3.44 -4.3,3.44 -1.7,0 -4.9,-0.9 -6.4,-5.83 -0.3,-1.05 -0.4,-1.54 -1.6,-7.82 l -3.4,0 c -1,0 -1.5,0 -1.5,-0.95 0,-0.59 0.4,-0.59 1.4,-0.59 l 3.2,0 -3.7,-19.68 c -0.9,-4.83 -1.7,-9.37 -4.3,-9.37 -0.2,0 -1.5,0 -2.4,0.9 2.3,0.15 2.7,1.94 2.7,2.69 0,1.15 -0.9,1.74 -1.8,1.74 -1.3,0 -2.8,-1.09 -2.8,-2.98 0,-2.25 2.2,-3.44 4.3,-3.44 2.7,0 4.7,2.94 5.6,4.83 1.6,3.14 2.7,9.17 2.8,9.51 z"
           inkscape:connector-curvature="0"
           style="fill:#000080;fill-opacity:1;stroke:#000080;stroke-width:0.71822155;stroke-miterlimit:4;stroke-dasharray:none;stroke-opacity:1" /><path
           id="path23237"
           d="m 1226.5,334.04 0,0.03 0,0.03 0,0.01 0,0.02 0,0.01 0,0.02 0,0.02 0,0.01 0,0.02 -0.1,0.02 0,0.03 0,0.02 0,0.02 0,0.03 0,0.03 -0.1,0.03 0,0.03 0,0.04 0,0.02 -0.1,0.02 0,0.02 0,0.02 0,0.02 0,0.03 0,0.02 -0.1,0.02 0,0.03 0,0.02 0,0.03 -0.1,0.03 0,0.03 0,0.03 0,0.03 -0.1,0.03 0,0.03 0,0.03 -0.1,0.04 0,0.03 0,0.04 -0.1,0.03 0,0.04 -0.1,0.04 c -6.2,6.28 -7.8,15.69 -7.8,23.31 0,8.67 1.9,17.34 8,23.57 0.7,0.59 0.7,0.69 0.7,0.84 0,0.35 -0.2,0.5 -0.5,0.5 -0.5,0 -5,-3.39 -7.9,-9.72 -2.6,-5.47 -3.2,-11 -3.2,-15.19 0,-3.88 0.6,-9.91 3.3,-15.54 3,-6.12 7.3,-9.36 7.8,-9.36 0.3,0 0.5,0.15 0.5,0.49 z"
           inkscape:connector-curvature="0"
           style="fill:#000080;fill-opacity:1;stroke:#000080;stroke-width:0.71822155;stroke-miterlimit:4;stroke-dasharray:none;stroke-opacity:1" /><path
           id="path23239"
           d="m 1246.6,361.04 0.1,0.13 0,0.15 0,0.17 0.1,0.18 0,0.19 0.1,0.21 0.1,0.21 0,0.23 0.1,0.23 0.1,0.24 0.1,0.25 0.1,0.24 0.1,0.25 0.1,0.25 0.2,0.25 0.1,0.25 0.2,0.24 0.1,0.24 0.2,0.23 0.2,0.22 0.1,0.22 0.2,0.2 0.2,0.19 0.3,0.18 0.2,0.16 0.2,0.14 0.2,0.07 0.1,0.06 0.1,0.05 0.2,0.05 0.1,0.05 0.1,0.04 0.2,0.03 0.1,0.03 0.2,0.02 0.1,0.02 0.2,0.01 0.2,0 c 0.2,0 1.4,0 2.5,-0.65 -1.4,-0.25 -2.4,-1.49 -2.4,-2.68 0,-0.8 0.5,-1.75 1.9,-1.75 1.1,0 2.6,0.9 2.6,2.89 0,2.59 -2.9,3.29 -4.6,3.29 -2.9,0 -4.6,-2.64 -5.2,-3.79 -1.3,3.29 -4,3.79 -5.4,3.79 -5.2,0 -8,-6.43 -8,-7.67 0,-0.5 0.5,-0.5 0.6,-0.5 0.4,0 0.5,0.1 0.6,0.54 1.7,5.29 5,6.53 6.7,6.53 1,0 2.7,-0.45 2.7,-3.33 0,-1.55 -0.8,-4.89 -2.7,-11.86 -0.8,-3.09 -2.5,-5.18 -4.7,-5.18 -0.3,0 -1.5,0 -2.5,0.65 1.2,0.25 2.3,1.29 2.3,2.69 0,1.34 -1.1,1.74 -1.8,1.74 -1.5,0 -2.8,-1.3 -2.8,-2.89 0,-2.29 2.5,-3.29 4.7,-3.29 3.3,0 5.1,3.49 5.3,3.79 0.6,-1.85 2.4,-3.79 5.3,-3.79 5.2,0 8,6.43 8,7.67 0,0.5 -0.4,0.5 -0.6,0.5 -0.4,0 -0.5,-0.2 -0.6,-0.55 -1.7,-5.33 -5.1,-6.52 -6.7,-6.52 -1.9,0 -2.7,1.59 -2.7,3.29 0,1.09 0.3,2.19 0.8,4.38 z"
           inkscape:connector-curvature="0"
           style="fill:#000080;fill-opacity:1;stroke:#000080;stroke-width:0.71822155;stroke-miterlimit:4;stroke-dasharray:none;stroke-opacity:1" /><path
           id="path23241"
           d="m 1269.7,361.18 0,0.04 0,0.04 0,0.04 0,0.04 0,0.04 0,0.04 0,0.03 0,0.04 0,0.03 0,0.03 0,0.04 0,0.03 0,0.02 0,0.03 0,0.03 0,0.03 -0.1,0.02 0,0.02 0,0.05 0,0.04 0,0.04 0,0.03 0,0.03 -0.1,0.03 0,0.03 0,0.02 0,0.02 -0.1,0.02 0,0.01 0,0.01 -0.1,0.02 0,0 -0.1,0.01 0,0 0,0.01 0,0 -0.1,0 0,0 0,0 -0.1,0.01 0,0 0,0 -0.1,0 0,0 0,0 -0.1,0 0,0 -0.1,0 0,0 -0.1,0 c -2.2,-2.19 -5.4,-2.23 -6.8,-2.23 l 0,-1.25 c 0.8,0 3.1,0 5.1,0.97 l 0,-17.78 c 0,-1.15 0,-1.61 -3.5,-1.61 l -1.4,0 0,-1.25 12.5,0 0,1.25 -1.3,0 c -3.5,0 -3.5,0.46 -3.5,1.61 z"
           inkscape:connector-curvature="0"
           style="fill:#000080;fill-opacity:1;stroke:#000080;stroke-width:0.71822155;stroke-miterlimit:4;stroke-dasharray:none;stroke-opacity:1" /><path
           id="path23243"
           d="m 1294.4,358.45 0,0.37 0,0.39 0,0.39 0,0.41 -0.1,0.84 0,0.88 -0.1,0.92 -0.1,0.94 -0.2,0.98 -0.1,1 -0.2,1.02 -0.2,1.04 -0.3,1.05 -0.3,1.06 -0.4,1.06 -0.4,1.07 -0.2,0.53 -0.2,0.54 -0.2,0.53 -0.3,0.53 c -3,6.12 -7.3,9.36 -7.8,9.36 -0.3,0 -0.5,-0.2 -0.5,-0.5 0,-0.15 0,-0.25 1,-1.15 4.9,-4.92 7.7,-12.85 7.7,-23.26 0,-8.52 -1.8,-17.28 -8,-23.56 -0.7,-0.6 -0.7,-0.69 -0.7,-0.85 0,-0.29 0.2,-0.49 0.5,-0.49 0.5,0 5,3.38 8,9.71 2.5,5.48 3.1,11.01 3.1,15.19 z"
           inkscape:connector-curvature="0"
           style="fill:#000080;fill-opacity:1;stroke:#000080;stroke-width:0.71822155;stroke-miterlimit:4;stroke-dasharray:none;stroke-opacity:1" /></g>    </g>
    <circle
       style="fill:#000000;stroke:#000000;stroke-width:2.52997971;stroke-miterlimit:4;stroke-dasharray:none;stroke-dashoffset:0"
       id="path5126"
       cx="353.39563"
       cy="54.445076"
       r="6.3249493" />
  </g>
</svg>
