<?xml version="1.0" encoding="UTF-8" standalone="no"?>
<svg
   xmlns:dc="http://purl.org/dc/elements/1.1/"
   xmlns:cc="http://creativecommons.org/ns#"
   xmlns:rdf="http://www.w3.org/1999/02/22-rdf-syntax-ns#"
   xmlns:svg="http://www.w3.org/2000/svg"
   xmlns="http://www.w3.org/2000/svg"
   xmlns:sodipodi="http://sodipodi.sourceforge.net/DTD/sodipodi-0.dtd"
   xmlns:inkscape="http://www.inkscape.org/namespaces/inkscape"
   sodipodi:docname="Fa_derivative10a.svg"
   inkscape:version="0.48.1 "
   id="svg5149"
   version="1.1"
   viewBox="0 0 540 420"
   height="100%"
   width="100%"
   preserveAspectRatio="xMinYMin meet">
  <metadata
     id="metadata5172">
    <rdf:RDF>
      <cc:Work
         rdf:about="">
        <dc:format>image/svg+xml</dc:format>
        <dc:type
           rdf:resource="http://purl.org/dc/dcmitype/StillImage" />
        <dc:title />
      </cc:Work>
    </rdf:RDF>
  </metadata>
  <defs
     id="defs5170">
    <clipPath
       id="ID000001">
      <rect
         x="72.800003"
         y="31.5"
         width="434"
         height="342.29999"
         id="rect5158" />
    </clipPath>
  </defs>
  <sodipodi:namedview
     pagecolor="#ffffff"
     bordercolor="#666666"
     borderopacity="1"
     objecttolerance="10"
     gridtolerance="10"
     guidetolerance="10"
     inkscape:pageopacity="0"
     inkscape:pageshadow="2"
     inkscape:window-width="1024"
     inkscape:window-height="719"
     id="namedview5168"
     showgrid="false"
     showguides="true"
     inkscape:guide-bbox="true"
     inkscape:zoom="1.1833333"
     inkscape:cx="270"
     inkscape:cy="210"
     inkscape:window-x="-4"
     inkscape:window-y="-4"
     inkscape:window-maximized="1"
     inkscape:current-layer="svg5149">
    <sodipodi:guide
       orientation="0,1"
       position="261.13155,63.938388"
       id="guide4339" />
  </sodipodi:namedview>
  <desc
     id="desc5151">Matlab Figure Converted by PLOT2SVG written by Juerg Schwizer</desc>
  <path
     style="fill:#0000ff;fill-opacity:0;fill-rule:evenodd;stroke:#000000;stroke-width:1;stroke-linecap:butt;stroke-linejoin:miter;stroke-miterlimit:4;stroke-dasharray:4, 4;stroke-dashoffset:0;stroke-opacity:1"
     d="m 124.50704,257.7016 87.746,0 0,76.9014 -87.746,0 z"
     id="rect4325" />
  <path
     style="fill:#0000ff;fill-opacity:0;fill-rule:evenodd;stroke:#000000;stroke-width:1;stroke-linecap:butt;stroke-linejoin:miter;stroke-miterlimit:4;stroke-dasharray:4, 4;stroke-dashoffset:4.8;stroke-opacity:1"
     d="m 124.664,124.93745 238.1405,0 0,208.70855 -238.1405,0 z"
     id="rect4327" />
  <g
     clip-path="url(#ID000001)"
     id="ID000002"
     transform="translate(-10,-16)">
    <g
       id="g5165" />
  </g>
  <g
     id="ID000003"
     transform="translate(-10,-30)" />
  <path
     inkscape:connector-curvature="0"
     style="fill:#000000;fill-opacity:1;fill-rule:evenodd;stroke:none"
     d="m 119.80428,51.929312 4.847,-18.422377 4.8508,18.422377 -9.6978,0 z"
     id="path4397" />
  <path
     inkscape:connector-curvature="0"
     style="fill:none;stroke:#000000;stroke-width:2;stroke-linecap:butt;stroke-linejoin:miter;stroke-miterlimit:4;stroke-opacity:1;stroke-dasharray:none"
     d="m 124.65128,49.058515 7e-5,367.972085"
     id="path4399"
     sodipodi:nodetypes="cc" />
  <path
     inkscape:connector-curvature="0"
     id="path4401"
     d="m 497.81958,329.30088 18.42235,4.847 -18.42235,4.85079 0,-9.69779 z"
     style="fill:#000000;fill-opacity:1;fill-rule:evenodd;stroke:none" />
  <path
     inkscape:connector-curvature="0"
     sodipodi:nodetypes="cc"
     id="path4403"
     d="M 498.6904,334.14791 3.9693984,334.1479"
     style="fill:none;stroke:#000000;stroke-width:2;stroke-linecap:butt;stroke-linejoin:miter;stroke-miterlimit:4;stroke-opacity:1;stroke-dasharray:none" />
  <g
     transform="translate(99.806648,-0.01181244)"
     style="font-size:27.26518822px;font-style:normal;font-variant:normal;font-weight:normal;font-stretch:normal;line-height:125%;letter-spacing:0px;word-spacing:0px;fill:#000000;fill-opacity:1;stroke:none;font-family:FreeFarsi;-inkscape-font-specification:FreeFarsi"
     id="text3021">
    <path
       inkscape:connector-curvature="0"
       d="m 21.353843,25.590096 c 0.390514,-3e-6 0.807657,0.07988 1.251429,0.239635 0.443766,0.159754 0.718903,0.239632 0.825411,0.239636 0.372762,-4e-6 0.763279,-0.310642 1.171551,-0.931916 l 0.159757,-0.266262 c 0.310633,-0.550275 0.5658,-1.124956 0.765502,-1.724044 0.19969,-0.599088 0.299538,-0.982948 0.299545,-1.151581 -7e-6,-0.399392 -0.390523,-1.295805 -1.171551,-2.689242 l -0.399393,-0.798785 -3.115261,-6.763045 c -0.21301,-0.461509 -0.665655,-0.745521 -1.357934,-0.852037 l 0,-0.34614 5.484989,0 0,0.372766 c -0.967422,0.150893 -1.482194,0.390528 -1.544317,0.718907 -4e-6,0.248521 0.08875,0.585785 0.266262,1.011794 l 3.062008,6.736418 2.582738,-7.34882 c 0.07099,-0.168622 0.106494,-0.319503 0.106504,-0.452645 -10e-6,-0.443758 -0.426028,-0.665642 -1.278056,-0.665654 l 0,-0.372766 3.594532,0 0,0.372766 c -0.488158,0.05326 -0.860924,0.328401 -1.118299,0.825411 l -4.260185,11.23624 c -0.701162,1.872704 -1.402317,3.22398 -2.103467,4.053833 -0.70116,0.829843 -1.499944,1.244767 -2.396354,1.244773 -0.683407,-6e-6 -1.182647,-0.157544 -1.497722,-0.472615 -0.315077,-0.315081 -0.472615,-0.663439 -0.472614,-1.045076 -1e-6,-0.363895 0.117598,-0.650126 0.352796,-0.858694 0.235197,-0.208575 0.499239,-0.31286 0.792129,-0.312857 z"
       id="path3837" />
  </g>
  <g
     transform="translate(-40.193352,-0.01181244)"
     style="font-size:27.26518822px;font-style:normal;font-variant:normal;font-weight:normal;font-stretch:normal;line-height:125%;letter-spacing:0px;word-spacing:0px;fill:#000000;fill-opacity:1;stroke:none;font-family:FreeFarsi;-inkscape-font-specification:FreeFarsi"
     id="text3025">
    <path
       inkscape:connector-curvature="0"
       d="m 570.16089,330.74715 c -10e-6,-0.20413 -0.0888,-0.34835 -0.26626,-0.43268 -0.17751,-0.0843 -0.37277,-0.12646 -0.58577,-0.12647 l -0.1997,-0.0266 -0.0133,0 0,-0.38608 4.20693,0 0,0.38608 c -0.87867,10e-6 -1.59758,0.39053 -2.15672,1.17155 l -2.20997,3.19514 3.40815,5.21873 c 0.26625,0.37277 0.51254,0.67675 0.73887,0.91195 0.22631,0.23519 0.43489,0.39717 0.62572,0.48592 0.19081,0.0888 0.33725,0.14423 0.43933,0.16642 0.10205,0.0222 0.22853,0.0333 0.37942,0.0333 l 0,0.38608 -5.35186,0 0,-0.38608 c 0.31951,0 0.56358,-0.0377 0.73222,-0.11316 0.16863,-0.0754 0.26626,-0.14866 0.29289,-0.21967 0.0266,-0.071 0.0399,-0.17307 0.0399,-0.3062 -10e-6,-0.15975 -0.0533,-0.31951 -0.15976,-0.47927 l -2.42298,-3.72766 -2.10346,3.27502 c -0.35502,0.5414 -0.53253,0.90529 -0.53253,1.09167 0,0.31951 0.35502,0.47927 1.06505,0.47927 l 0,0.38608 -3.86079,0 0,-0.38608 c 0.30176,0 0.5769,-0.071 0.82541,-0.21301 0.24851,-0.14201 0.44377,-0.29289 0.58577,-0.45265 0.14201,-0.15975 0.31951,-0.39051 0.53253,-0.69228 l 3.03538,-4.39331 -2.50286,-3.83417 c -0.44377,-0.66564 -0.80988,-1.09832 -1.09833,-1.29802 -0.28845,-0.19969 -0.60575,-0.29954 -0.95188,-0.29955 l -0.23964,0 0,-0.38608 5.51162,0 0,0.38608 c -0.76329,10e-6 -1.14493,0.19527 -1.14493,0.58578 0,0.34615 0.40826,1.13606 1.2248,2.36973 l 0.37277,0.53252 0.74553,-1.06505 0.58578,-0.83872 c 0.12425,-0.16862 0.23075,-0.34391 0.31951,-0.52587 0.0888,-0.18193 0.13312,-0.33947 0.13313,-0.47261 z"
       id="path3840" />
  </g>
  <g
     style="font-size:65.00091553%;font-style:normal;font-variant:normal;font-weight:normal;font-stretch:normal;line-height:125%;letter-spacing:0px;word-spacing:0px;baseline-shift:sub;fill:#000000;fill-opacity:1;stroke:none;font-family:FreeFarsi;-inkscape-font-specification:FreeFarsi"
     id="text3802" />
  <path
     style="fill:none;stroke:#000000;stroke-width:2.5;stroke-linecap:butt;stroke-linejoin:miter;stroke-miterlimit:4;stroke-opacity:1;stroke-dasharray:none"
     d="M 212.39437,257.74648 C 278.72173,247.15405 342.88153,232.02005 362.8169,124.22535"
     id="path4329"
     inkscape:connector-curvature="0"
     sodipodi:nodetypes="cc" />
  <g
     style="font-size:24px;font-style:normal;font-variant:normal;font-weight:normal;font-stretch:normal;line-height:125%;letter-spacing:0px;word-spacing:0px;fill:#000000;fill-opacity:1;stroke:none;font-family:FreeFarsi;-inkscape-font-specification:FreeFarsi"
     id="text4331">
    <path
       d="m 213.7303,346.00104 c -1e-5,-0.17968 -0.0781,-0.30663 -0.23437,-0.38086 -0.15626,-0.0742 -0.32814,-0.11132 -0.51563,-0.11133 l -0.17578,-0.0234 -0.0117,0 0,-0.33984 3.70313,0 0,0.33984 c -0.77345,10e-6 -1.40626,0.34376 -1.89844,1.03125 l -1.94531,2.8125 3,4.59375 c 0.23436,0.32813 0.45116,0.59571 0.65039,0.80274 0.19921,0.20703 0.3828,0.34961 0.55078,0.42773 0.16796,0.0781 0.29686,0.12695 0.38672,0.14649 0.0898,0.0195 0.20116,0.0293 0.33398,0.0293 l 0,0.33985 -4.71094,0 0,-0.33985 c 0.28125,0 0.49609,-0.0332 0.64453,-0.0996 0.14843,-0.0664 0.23437,-0.13086 0.25782,-0.19336 0.0234,-0.0625 0.0352,-0.15234 0.0352,-0.26953 0,-0.14062 -0.0469,-0.28125 -0.14062,-0.42187 l -2.13281,-3.28125 -1.85157,2.88281 c -0.3125,0.47656 -0.46875,0.79688 -0.46875,0.96094 0,0.28125 0.3125,0.42187 0.9375,0.42187 l 0,0.33985 -3.39843,0 0,-0.33985 c 0.26562,0 0.50781,-0.0625 0.72656,-0.1875 0.21875,-0.125 0.39062,-0.25781 0.51562,-0.39843 0.125,-0.14063 0.28125,-0.34375 0.46875,-0.60938 l 2.67188,-3.86719 -2.20313,-3.375 c -0.39062,-0.58593 -0.71289,-0.96678 -0.96679,-1.14258 -0.25391,-0.17577 -0.53321,-0.26366 -0.83789,-0.26367 l -0.21094,0 0,-0.33984 4.85156,0 0,0.33984 c -0.67188,10e-6 -1.00782,0.17189 -1.00781,0.51563 -1e-5,0.30469 0.35937,1.00001 1.07812,2.08594 l 0.32813,0.46875 0.65625,-0.9375 0.51562,-0.73829 c 0.10937,-0.14842 0.20312,-0.30272 0.28125,-0.46289 0.0781,-0.16014 0.11718,-0.29882 0.11719,-0.41601 z"
       style=""
       id="path3058" />
  </g>
  <g
     style="font-size:24px;font-style:normal;font-variant:normal;font-weight:normal;font-stretch:normal;line-height:125%;letter-spacing:0px;word-spacing:0px;fill:#000000;fill-opacity:1;stroke:none;font-family:Times New Roman;-inkscape-font-specification:Times New Roman"
     id="text4335">
    <path
       d="m 338.1474,344.48563 5.05078,0 0,0.43359 c -0.32032,1e-5 -0.54493,0.0547 -0.67383,0.16406 -0.12891,0.10939 -0.19336,0.25392 -0.19336,0.4336 0,0.18751 0.13672,0.47657 0.41016,0.86718 0.0859,0.12501 0.21484,0.32032 0.38672,0.58594 l 0.76172,1.21875 0.8789,-1.21875 c 0.5625,-0.77343 0.84375,-1.26171 0.84375,-1.46484 0,-0.16406 -0.0664,-0.30273 -0.19922,-0.41602 -0.13282,-0.11327 -0.34766,-0.16991 -0.64453,-0.16992 l 0,-0.43359 3.63282,0 0,0.43359 c -0.38283,0.0235 -0.71486,0.12892 -0.9961,0.31641 -0.38282,0.26563 -0.90626,0.84376 -1.57031,1.73437 l -1.46484,1.95703 2.67187,3.84375 c 0.65624,0.94532 1.12499,1.51368 1.40625,1.70508 0.28124,0.19141 0.64452,0.29883 1.08984,0.32227 l 0,0.42187 -5.0625,0 0,-0.42187 c 0.35156,0 0.625,-0.0781 0.82032,-0.23438 0.14843,-0.10937 0.22265,-0.2539 0.22265,-0.43359 0,-0.17969 -0.25,-0.63281 -0.75,-1.35938 l -1.57031,-2.29687 -1.72266,2.29687 c -0.53125,0.71094 -0.79687,1.13282 -0.79687,1.26563 0,0.1875 0.0879,0.35742 0.26367,0.50976 0.17578,0.15235 0.43945,0.23633 0.79102,0.25196 l 0,0.42187 -3.50391,0 0,-0.42187 c 0.28125,-0.0391 0.52734,-0.13672 0.73828,-0.29297 0.29688,-0.22656 0.79688,-0.80469 1.5,-1.73438 l 2.25,-2.98828 -2.03906,-2.95312 c -0.57813,-0.84374 -1.02539,-1.37304 -1.3418,-1.58789 -0.3164,-0.21484 -0.71289,-0.32226 -1.18945,-0.32227 z"
       style=""
       id="path3061" />
    <path
       d="m 362.10052,353.56766 0,-5.84766 -5.83593,0 0,-0.96094 5.83593,0 0,-5.82422 0.9375,0 0,5.82422 5.85938,0 0,0.96094 -5.85938,0 0,5.84766 z"
       style=""
       id="path3063" />
    <path
       d="m 375.96381,355.22 7.125,-16.25391 0.39843,0 6.72657,16.25391 z m 11.44921,-0.99609 -4.74609,-11.67188 -5.13281,11.67188 z"
       style=""
       id="path3065" />
    <path
       d="m 391.11615,344.48563 5.05078,0 0,0.43359 c -0.32032,1e-5 -0.54493,0.0547 -0.67383,0.16406 -0.12891,0.10939 -0.19336,0.25392 -0.19336,0.4336 0,0.18751 0.13672,0.47657 0.41016,0.86718 0.0859,0.12501 0.21484,0.32032 0.38672,0.58594 l 0.76172,1.21875 0.8789,-1.21875 c 0.5625,-0.77343 0.84375,-1.26171 0.84375,-1.46484 0,-0.16406 -0.0664,-0.30273 -0.19922,-0.41602 -0.13282,-0.11327 -0.34766,-0.16991 -0.64453,-0.16992 l 0,-0.43359 3.63282,0 0,0.43359 c -0.38283,0.0235 -0.71486,0.12892 -0.9961,0.31641 -0.38282,0.26563 -0.90626,0.84376 -1.57031,1.73437 l -1.46484,1.95703 2.67187,3.84375 c 0.65624,0.94532 1.12499,1.51368 1.40625,1.70508 0.28124,0.19141 0.64452,0.29883 1.08984,0.32227 l 0,0.42187 -5.0625,0 0,-0.42187 c 0.35156,0 0.625,-0.0781 0.82032,-0.23438 0.14843,-0.10937 0.22265,-0.2539 0.22265,-0.43359 0,-0.17969 -0.25,-0.63281 -0.75,-1.35938 l -1.57031,-2.29687 -1.72266,2.29687 c -0.53125,0.71094 -0.79687,1.13282 -0.79687,1.26563 0,0.1875 0.0879,0.35742 0.26367,0.50976 0.17578,0.15235 0.43945,0.23633 0.79102,0.25196 l 0,0.42187 -3.50391,0 0,-0.42187 c 0.28125,-0.0391 0.52734,-0.13672 0.73828,-0.29297 0.29688,-0.22656 0.79688,-0.80469 1.5,-1.73438 l 2.25,-2.98828 -2.03906,-2.95312 c -0.57813,-0.84374 -1.02539,-1.37304 -1.3418,-1.58789 -0.3164,-0.21484 -0.71289,-0.32226 -1.18945,-0.32227 z"
       style=""
       id="path3067" />
  </g>
  <g
     style="font-size:24px;font-style:oblique;font-variant:normal;font-weight:normal;font-stretch:normal;line-height:125%;letter-spacing:0px;word-spacing:0px;fill:#000000;fill-opacity:1;stroke:none;font-family:FreeFarsi;-inkscape-font-specification:FreeFarsi Oblique"
     id="text4341">
    <path
       d="m 76.047974,266.95029 c 0,0.1276 -0.04102,0.26887 -0.123047,0.42382 -0.08203,0.15495 -0.123046,0.25977 -0.123047,0.31446 10e-7,0.24609 0.182292,0.39192 0.546875,0.4375 1.166666,-1e-5 2.050779,-1.47657 2.652344,-4.42969 l 2.40625,-11.48437 -2.460938,0 0.191406,-0.875 2.515625,0 c 0.154943,-0.49218 0.289383,-0.90917 0.403321,-1.25098 0.113927,-0.34178 0.27571,-0.77245 0.485351,-1.29199 0.20963,-0.51952 0.414708,-0.95702 0.615235,-1.3125 0.200514,-0.35546 0.448886,-0.73599 0.745117,-1.1416 0.296216,-0.40559 0.601555,-0.73143 0.916015,-0.97754 0.314445,-0.24608 0.679028,-0.45116 1.09375,-0.61524 0.414704,-0.16404 0.854483,-0.24607 1.319336,-0.24609 0.783843,2e-5 1.371733,0.18687 1.763672,0.56054 0.391915,0.37372 0.587878,0.77932 0.587891,1.2168 -1.3e-5,0.38283 -0.127617,0.66083 -0.382813,0.83399 -0.25522,0.17319 -0.510428,0.25978 -0.765625,0.25976 -0.319021,2e-5 -0.567394,-0.0934 -0.745117,-0.28027 -0.177745,-0.18683 -0.266612,-0.45799 -0.266601,-0.81348 -1.1e-5,-0.11847 0.04556,-0.28253 0.136718,-0.49219 0.09114,-0.20961 0.136708,-0.3281 0.136719,-0.35546 -1.1e-5,-0.21874 -0.200531,-0.32811 -0.601562,-0.32813 -0.273448,2e-5 -0.535492,0.0707 -0.786133,0.21191 -0.250661,0.1413 -0.46941,0.32359 -0.65625,0.54688 -0.186858,0.22332 -0.369149,0.50815 -0.546875,0.85449 -0.177743,0.34637 -0.325855,0.68817 -0.444336,1.02539 -0.118498,0.33726 -0.239266,0.73374 -0.362305,1.18946 -0.123054,0.45574 -0.221036,0.85678 -0.293945,1.20312 -0.07292,0.34637 -0.154955,0.74741 -0.246094,1.20313 l 2.953125,0 -0.164062,0.875 -2.980469,0 -1.96875,8.75 0,0.0137 -0.01367,0.0273 0,0.0273 -0.01367,0.0274 0,0.041 -0.01367,0.0274 0,0.0273 -0.01367,0.0137 0,0.0547 -0.01367,0.0273 0,0.0274 -0.01367,0.0137 0,0.0547 -0.01367,0.0273 0,0.0137 -0.01367,0.0274 0,0.0273 -0.01367,0.0273 0,0.041 -0.01367,0.0273 0,0.0274 -0.01367,0.0137 0,0.0273 -0.01367,0.0274 0,0.0547 -0.01367,0.0137 0,0.0273 -0.01367,0.0273 0,0.0274 -0.01367,0.0137 0,0.0273 -0.01367,0.0274 0,0.041 -0.01367,0.0274 0,0.0273 -0.01367,0.0273 0,0.0137 -0.01367,0.0273 0,0.0273 -0.01367,0.0274 0,0.0273 -0.01367,0.0137 0,0.0274 -0.01367,0.0273 0,0.041 -0.01367,0.0273 0,0.0273 -0.01367,0.0274 0,0.0137 -0.01367,0.0273 0,0.0274 -0.01367,0.0273 0,0.0137 -0.01367,0.0273 0,0.0273 -0.01367,0.0273 0,0.0137 -0.01367,0.0273 0,0.0273 -0.01367,0.0274 0,0.0137 -0.01367,0.0273 0,0.0273 -0.01367,0.0137 0,0.0273 -0.01367,0.0274 0,0.0273 -0.01367,0.0137 0,0.0273 -0.01367,0.0274 0,0.0273 -0.01367,0.0137 0,0.0274 -0.01367,0.0273 0,0.0274 -0.01367,0.0137 0,0.0273 -0.01367,0.0273 0,0.0274 -0.02734,0.041 0,0.0274 -0.01367,0.0273 0,0.0137 -0.01367,0.0274 0,0.0273 -0.01367,0.0137 0,0.0274 -0.01367,0.0273 0,0.0273 -0.01367,0.0137 0,0.0137 -0.01367,0.0137 0,0.0273 -0.01367,0.0274 0,0.0273 -0.01367,0.0137 0,0.0274 -0.02734,0.041 0,0.0273 -0.01367,0.0273 0,0.0273 -0.01367,0.0137 0,0.0137 -0.01367,0.0137 0,0.0273 -0.01367,0.0274 0,0.0273 -0.01367,0.0137 0,0.0273 -0.02734,0.041 0,0.0274 -0.01367,0.0273 0,0.0273 -0.02734,0.041 0,0.0273 -0.01367,0.0137 0,0.0137 -0.01367,0.0137 0,0.0273 -0.01367,0.0274 0,0.0137 -0.02734,0.0547 0,0.0274 -0.02734,0.041 0,0.0274 -0.02734,0.041 0,0.0274 -0.01367,0.0137 0,0.0137 -0.01367,0.0137 0,0.0274 -0.02734,0.041 0,0.0273 -0.02734,0.041 0,0.0274 -0.02734,0.0547 0,0.0137 -0.02734,0.0547 0,0.0137 -0.02734,0.0547 0,0.0137 -0.04102,0.0684 0,0.0274 -0.02734,0.0547 0,0.0137 -0.04102,0.0684 0,0.0273 -0.04102,0.0684 0,0.0273 -0.01367,0.0137 0,0.0137 -0.02734,0.041 0,0.0274 -0.04102,0.0683 0,0.0137 -0.05469,0.0957 0,0.0273 -0.05469,0.082 0,0.0274 c -0.537763,1.08463 -1.134768,1.89355 -1.791015,2.42676 -0.656251,0.53319 -1.394532,0.81347 -2.214844,0.84082 -0.710936,-10e-6 -1.248696,-0.18002 -1.613281,-0.54004 -0.364581,-0.36003 -0.546873,-0.73601 -0.546875,-1.12793 2e-6,-0.40105 0.10482,-0.68816 0.314453,-0.86133 0.209637,-0.17318 0.442059,-0.25977 0.697265,-0.25977 0.3737,0 0.644858,0.11849 0.813477,0.35547 0.16862,0.23698 0.25293,0.46484 0.25293,0.6836 z"
       style="font-size:28px;-inkscape-font-specification:FreeFarsi Oblique"
       id="path3070" />
  </g>
  <g
     style="font-size:24px;font-style:normal;font-variant:normal;font-weight:normal;font-stretch:normal;line-height:125%;letter-spacing:0px;word-spacing:0px;fill:#000000;fill-opacity:1;stroke:none;font-family:Times New Roman;-inkscape-font-specification:Times New Roman"
     id="text4345">
    <path
       d="m 95.368614,268.05133 0,0.43359 c -1.179694,-0.59375 -2.164068,-1.28906 -2.953125,-2.08593 -1.125003,-1.13282 -1.99219,-2.46875 -2.601562,-4.00782 -0.609377,-1.53906 -0.914064,-3.13671 -0.914063,-4.79296 -10e-7,-2.42187 0.597655,-4.63085 1.792969,-6.62696 1.195308,-1.99608 2.753901,-3.42381 4.675781,-4.2832 l 0,0.49219 c -0.960944,0.53126 -1.750006,1.25782 -2.367187,2.17968 -0.617192,0.92189 -1.078129,2.08986 -1.382813,3.50391 -0.304691,1.41407 -0.457034,2.89063 -0.457031,4.42969 -3e-6,1.67188 0.128903,3.19141 0.386719,4.55859 0.203121,1.07813 0.449214,1.94336 0.738281,2.5957 0.289058,0.65235 0.677729,1.2793 1.166016,1.88086 0.488275,0.60156 1.126946,1.17578 1.916015,1.72266 z"
       style=""
       id="path3073" />
    <path
       d="m 96.24752,252.61774 5.05078,0 0,0.43359 c -0.32032,1e-5 -0.54493,0.0547 -0.67383,0.16406 -0.12891,0.10939 -0.19336,0.25392 -0.19336,0.4336 0,0.18751 0.13672,0.47657 0.41016,0.86718 0.0859,0.12501 0.21484,0.32033 0.38672,0.58594 l 0.76172,1.21875 0.8789,-1.21875 c 0.5625,-0.77343 0.84375,-1.26171 0.84375,-1.46484 0,-0.16405 -0.0664,-0.30273 -0.19921,-0.41602 -0.13282,-0.11327 -0.34767,-0.16991 -0.64454,-0.16992 l 0,-0.43359 3.63282,0 0,0.43359 c -0.38283,0.0234 -0.71486,0.12892 -0.9961,0.31641 -0.38282,0.26563 -0.90626,0.84376 -1.57031,1.73437 l -1.46484,1.95703 2.67187,3.84375 c 0.65624,0.94532 1.12499,1.51368 1.40625,1.70508 0.28124,0.19141 0.64452,0.29883 1.08985,0.32227 l 0,0.42187 -5.0625,0 0,-0.42187 c 0.35155,0 0.62499,-0.0781 0.82031,-0.23438 0.14843,-0.10937 0.22265,-0.2539 0.22265,-0.43359 0,-0.17969 -0.25,-0.63281 -0.75,-1.35938 l -1.57031,-2.29687 -1.722655,2.29687 c -0.531253,0.71094 -0.796877,1.13282 -0.796875,1.26563 -2e-6,0.1875 0.08789,0.35742 0.263672,0.50976 0.175778,0.15235 0.43945,0.23633 0.791016,0.25196 l 0,0.42187 -3.503906,0 0,-0.42187 c 0.281249,-0.0391 0.527343,-0.13672 0.738281,-0.29297 0.296874,-0.22656 0.796873,-0.80469 1.5,-1.73438 l 2.249997,-2.98828 -2.03906,-2.95312 c -0.578127,-0.84374 -1.025392,-1.37304 -1.341796,-1.58789 -0.316408,-0.21484 -0.712892,-0.32226 -1.189454,-0.32227 z"
       style=""
       id="path3075" />
    <path
       d="m 108.47018,247.18024 0,-0.49219 c 1.18749,0.58595 2.17578,1.27736 2.96484,2.07422 1.11718,1.14064 1.98046,2.47853 2.58984,4.01367 0.60937,1.53517 0.91406,3.13477 0.91407,4.79883 -1e-5,2.42188 -0.59571,4.63086 -1.78711,6.62695 -1.19141,1.99609 -2.75196,3.42383 -4.68164,4.2832 l 0,-0.43359 c 0.96093,-0.53907 1.75195,-1.26758 2.37304,-2.18555 0.62109,-0.91797 1.08203,-2.08593 1.38282,-3.5039 0.30077,-1.41797 0.45116,-2.89648 0.45117,-4.43555 -1e-5,-1.66405 -0.12891,-3.18358 -0.38672,-4.55859 -0.19532,-1.07812 -0.43946,-1.9414 -0.73242,-2.58985 -0.29297,-0.64842 -0.68165,-1.27342 -1.16602,-1.875 -0.48438,-0.60154 -1.125,-1.17576 -1.92187,-1.72265 z"
       style=""
       id="path3077" />
  </g>
  <g
     style="font-size:24px;font-style:oblique;font-variant:normal;font-weight:normal;font-stretch:normal;line-height:125%;letter-spacing:0px;word-spacing:0px;fill:#000000;fill-opacity:1;stroke:none;font-family:FreeFarsi;-inkscape-font-specification:FreeFarsi Oblique"
     id="text4349">
    <path
       d="m 24.047974,132.95029 c 0,0.1276 -0.04102,0.26887 -0.123047,0.42382 -0.08203,0.15495 -0.123046,0.25977 -0.123047,0.31446 1e-6,0.24609 0.182292,0.39192 0.546875,0.4375 1.166666,-1e-5 2.050779,-1.47657 2.652344,-4.42969 l 2.40625,-11.48437 -2.460938,0 0.191406,-0.875 2.515625,0 c 0.154943,-0.49218 0.289383,-0.90917 0.403321,-1.25098 0.113927,-0.34178 0.27571,-0.77245 0.485351,-1.29199 0.20963,-0.51952 0.414708,-0.95702 0.615235,-1.3125 0.200514,-0.35546 0.448886,-0.73599 0.745117,-1.1416 0.296216,-0.40559 0.601555,-0.73143 0.916015,-0.97754 0.314445,-0.24608 0.679028,-0.45116 1.09375,-0.61524 0.414704,-0.16404 0.854483,-0.24607 1.319336,-0.24609 0.783843,2e-5 1.371733,0.18687 1.763672,0.56054 0.391915,0.37372 0.587878,0.77932 0.587891,1.2168 -1.3e-5,0.38283 -0.127617,0.66083 -0.382813,0.83399 -0.25522,0.17319 -0.510428,0.25978 -0.765625,0.25976 -0.319021,2e-5 -0.567394,-0.0934 -0.745117,-0.28027 -0.177745,-0.18683 -0.266612,-0.45799 -0.266601,-0.81348 -1.1e-5,-0.11847 0.04556,-0.28253 0.136718,-0.49219 0.09114,-0.20961 0.136708,-0.3281 0.136719,-0.35546 -1.1e-5,-0.21874 -0.200531,-0.32811 -0.601562,-0.32813 -0.273448,2e-5 -0.535492,0.0707 -0.786133,0.21191 -0.250661,0.1413 -0.46941,0.32359 -0.65625,0.54688 -0.186858,0.22332 -0.369149,0.50815 -0.546875,0.85449 -0.177743,0.34637 -0.325855,0.68817 -0.444336,1.02539 -0.118498,0.33726 -0.239266,0.73374 -0.362305,1.18946 -0.123054,0.45574 -0.221036,0.85678 -0.293945,1.20312 -0.07292,0.34637 -0.154955,0.74741 -0.246094,1.20313 l 2.953125,0 -0.164062,0.875 -2.980469,0 -1.96875,8.75 0,0.0137 -0.01367,0.0273 0,0.0273 -0.01367,0.0273 0,0.041 -0.01367,0.0273 0,0.0273 -0.01367,0.0137 0,0.0547 -0.01367,0.0273 0,0.0273 -0.01367,0.0137 0,0.0547 -0.01367,0.0273 0,0.0137 -0.01367,0.0273 0,0.0273 -0.01367,0.0273 0,0.041 -0.01367,0.0273 0,0.0273 -0.01367,0.0137 0,0.0273 -0.01367,0.0273 0,0.0547 -0.01367,0.0137 0,0.0273 -0.01367,0.0273 0,0.0273 -0.01367,0.0137 0,0.0273 -0.01367,0.0273 0,0.041 -0.01367,0.0273 0,0.0273 -0.01367,0.0273 0,0.0137 -0.01367,0.0273 0,0.0273 -0.01367,0.0274 0,0.0273 -0.01367,0.0137 0,0.0273 -0.01367,0.0273 0,0.041 -0.01367,0.0273 0,0.0273 -0.01367,0.0274 0,0.0137 -0.01367,0.0273 0,0.0273 -0.01367,0.0273 0,0.0137 -0.01367,0.0274 0,0.0273 -0.01367,0.0273 0,0.0137 -0.01367,0.0273 0,0.0273 -0.01367,0.0273 0,0.0137 -0.01367,0.0273 0,0.0274 -0.01367,0.0137 0,0.0273 -0.01367,0.0273 0,0.0273 -0.01367,0.0137 0,0.0273 -0.01367,0.0273 0,0.0273 -0.01367,0.0137 0,0.0274 -0.01367,0.0273 0,0.0273 -0.01367,0.0137 0,0.0273 -0.01367,0.0273 0,0.0273 -0.02734,0.041 0,0.0274 -0.01367,0.0273 0,0.0137 -0.01367,0.0274 0,0.0273 -0.01367,0.0137 0,0.0273 -0.01367,0.0273 0,0.0273 -0.01367,0.0137 0,0.0137 -0.01367,0.0137 0,0.0273 -0.01367,0.0274 0,0.0273 -0.01367,0.0137 0,0.0273 -0.02734,0.041 0,0.0274 -0.01367,0.0273 0,0.0273 -0.01367,0.0137 0,0.0137 -0.01367,0.0137 0,0.0273 -0.01367,0.0273 0,0.0273 -0.01367,0.0137 0,0.0274 -0.02734,0.041 0,0.0273 -0.01367,0.0273 0,0.0273 -0.02734,0.041 0,0.0273 -0.01367,0.0137 0,0.0137 -0.01367,0.0137 0,0.0273 -0.01367,0.0273 0,0.0137 -0.02734,0.0547 0,0.0273 -0.02734,0.041 0,0.0274 -0.02734,0.041 0,0.0274 -0.01367,0.0137 0,0.0137 -0.01367,0.0137 0,0.0273 -0.02734,0.041 0,0.0274 -0.02734,0.041 0,0.0273 -0.02734,0.0547 0,0.0137 -0.02734,0.0547 0,0.0137 -0.02734,0.0547 0,0.0137 -0.04102,0.0684 0,0.0273 -0.02734,0.0547 0,0.0137 -0.04102,0.0684 0,0.0273 -0.04102,0.0684 0,0.0273 -0.01367,0.0137 0,0.0137 -0.02734,0.041 0,0.0273 -0.04102,0.0684 0,0.0137 -0.05469,0.0957 0,0.0273 -0.05469,0.082 0,0.0273 c -0.537763,1.08463 -1.134768,1.89355 -1.791015,2.42676 -0.656251,0.53319 -1.394532,0.81347 -2.214844,0.84082 -0.710936,-1e-5 -1.248696,-0.18002 -1.613281,-0.54004 -0.364581,-0.36003 -0.546873,-0.73601 -0.546875,-1.12793 2e-6,-0.40105 0.10482,-0.68816 0.314453,-0.86133 0.209637,-0.17318 0.442059,-0.25977 0.697265,-0.25977 0.3737,0 0.644858,0.11849 0.813477,0.35547 0.16862,0.23698 0.25293,0.46484 0.25293,0.6836 z"
       style="font-size:28px;-inkscape-font-specification:FreeFarsi Oblique"
       id="path3080" />
  </g>
  <g
     style="font-size:24px;font-style:normal;font-variant:normal;font-weight:normal;font-stretch:normal;line-height:125%;letter-spacing:0px;word-spacing:0px;fill:#000000;fill-opacity:1;stroke:none;font-family:Times New Roman;-inkscape-font-specification:Times New Roman"
     id="text4353">
    <path
       d="m 43.368614,136.05133 0,0.43359 c -1.179694,-0.59375 -2.164068,-1.28906 -2.953125,-2.08593 -1.125003,-1.13282 -1.99219,-2.46875 -2.601562,-4.00782 -0.609377,-1.53906 -0.914064,-3.13671 -0.914063,-4.79296 -10e-7,-2.42187 0.597655,-4.63085 1.792969,-6.62696 1.195308,-1.99608 2.753901,-3.42381 4.675781,-4.2832 l 0,0.49219 c -0.960944,0.53126 -1.750006,1.25782 -2.367187,2.17968 -0.617192,0.92189 -1.078129,2.08986 -1.382813,3.50391 -0.304691,1.41407 -0.457034,2.89063 -0.457031,4.42969 -3e-6,1.67188 0.128903,3.19141 0.386719,4.55859 0.203121,1.07813 0.449214,1.94336 0.738281,2.5957 0.289058,0.65235 0.677729,1.2793 1.166016,1.88086 0.488275,0.60156 1.126946,1.17578 1.916015,1.72266 z"
       style=""
       id="path3083" />
    <path
       d="m 44.24752,120.61774 5.050782,0 0,0.43359 c -0.320318,1e-5 -0.544927,0.0547 -0.673828,0.16406 -0.128911,0.10939 -0.193364,0.25392 -0.19336,0.4336 -4e-6,0.18751 0.136714,0.47657 0.410156,0.86718 0.08593,0.12501 0.214839,0.32033 0.386719,0.58594 l 0.761719,1.21875 0.878906,-1.21875 c 0.562493,-0.77343 0.843742,-1.26171 0.84375,-1.46484 -8e-6,-0.16405 -0.06641,-0.30273 -0.199219,-0.41602 -0.13282,-0.11327 -0.347663,-0.16991 -0.644531,-0.16992 l 0,-0.43359 3.632813,0 0,0.43359 c -0.382823,0.0235 -0.714854,0.12892 -0.996094,0.31641 -0.382822,0.26563 -0.906259,0.84376 -1.570313,1.73437 l -1.464843,1.95703 2.671875,3.84375 c 0.65624,0.94532 1.124989,1.51368 1.40625,1.70508 0.281239,0.19141 0.64452,0.29883 1.089843,0.32227 l 0,0.42187 -5.0625,0 0,-0.42187 c 0.351556,0 0.624993,-0.0781 0.820313,-0.23438 0.14843,-0.10937 0.222649,-0.2539 0.222656,-0.43359 -7e-6,-0.17969 -0.250007,-0.63281 -0.75,-1.35938 l -1.570312,-2.29687 -1.722657,2.29687 c -0.531253,0.71094 -0.796877,1.13282 -0.796875,1.26563 -2e-6,0.1875 0.08789,0.35742 0.263672,0.50976 0.175778,0.15235 0.43945,0.23633 0.791016,0.25196 l 0,0.42187 -3.503906,0 0,-0.42187 c 0.281249,-0.0391 0.527343,-0.13672 0.738281,-0.29297 0.296874,-0.22656 0.796873,-0.80469 1.5,-1.73438 l 2.25,-2.98828 -2.039063,-2.95312 c -0.578127,-0.84374 -1.025392,-1.37304 -1.341796,-1.58789 -0.316408,-0.21484 -0.712892,-0.32226 -1.189454,-0.32227 z"
       style=""
       id="path3085" />
    <path
       d="m 68.200645,129.69977 0,-5.84766 -5.835937,0 0,-0.96094 5.835937,0 0,-5.82421 0.9375,0 0,5.82421 5.859375,0 0,0.96094 -5.859375,0 0,5.84766 z"
       style=""
       id="path3087" />
    <path
       d="m 82.063927,131.35211 7.125,-16.2539 0.398437,0 6.726563,16.2539 z m 11.449218,-0.99609 -4.746093,-11.67188 -5.132813,11.67188 z"
       style=""
       id="path3089" />
    <path
       d="m 97.21627,120.61774 5.05078,0 0,0.43359 c -0.32032,1e-5 -0.54493,0.0547 -0.67383,0.16406 -0.12891,0.10939 -0.19336,0.25392 -0.19336,0.4336 0,0.18751 0.13672,0.47657 0.41016,0.86718 0.0859,0.12501 0.21484,0.32033 0.38672,0.58594 l 0.76172,1.21875 0.8789,-1.21875 c 0.5625,-0.77343 0.84375,-1.26171 0.84375,-1.46484 0,-0.16405 -0.0664,-0.30273 -0.19921,-0.41602 -0.13282,-0.11327 -0.34767,-0.16991 -0.64454,-0.16992 l 0,-0.43359 3.63282,0 0,0.43359 c -0.38283,0.0235 -0.71486,0.12892 -0.9961,0.31641 -0.38282,0.26563 -0.90626,0.84376 -1.57031,1.73437 l -1.46484,1.95703 2.67187,3.84375 c 0.65624,0.94532 1.12499,1.51368 1.40625,1.70508 0.28124,0.19141 0.64452,0.29883 1.08985,0.32227 l 0,0.42187 -5.0625,0 0,-0.42187 c 0.35155,0 0.62499,-0.0781 0.82031,-0.23438 0.14843,-0.10937 0.22265,-0.2539 0.22265,-0.43359 0,-0.17969 -0.25,-0.63281 -0.75,-1.35938 l -1.57031,-2.29687 -1.72265,2.29687 c -0.53126,0.71094 -0.796882,1.13282 -0.79688,1.26563 -2e-6,0.1875 0.08789,0.35742 0.26367,0.50976 0.17578,0.15235 0.43945,0.23633 0.79102,0.25196 l 0,0.42187 -3.503908,0 0,-0.42187 c 0.281249,-0.0391 0.527343,-0.13672 0.738281,-0.29297 0.296874,-0.22656 0.796873,-0.80469 1.5,-1.73438 l 2.249997,-2.98828 -2.03906,-2.95312 c -0.578127,-0.84374 -1.025392,-1.37304 -1.341796,-1.58789 -0.316408,-0.21484 -0.712892,-0.32226 -1.189454,-0.32227 z"
       style=""
       id="path3091" />
    <path
       d="m 109.43893,115.18024 0,-0.49219 c 1.18749,0.58595 2.17578,1.27736 2.96484,2.07422 1.11718,1.14064 1.98046,2.47853 2.58984,4.01367 0.60937,1.53517 0.91406,3.13477 0.91407,4.79883 -1e-5,2.42188 -0.59571,4.63086 -1.78711,6.62695 -1.19141,1.99609 -2.75196,3.42383 -4.68164,4.2832 l 0,-0.43359 c 0.96093,-0.53907 1.75195,-1.26758 2.37304,-2.18555 0.62109,-0.91797 1.08203,-2.08593 1.38282,-3.5039 0.30077,-1.41797 0.45116,-2.89648 0.45117,-4.43555 -1e-5,-1.66405 -0.12891,-3.18358 -0.38672,-4.55859 -0.19532,-1.07812 -0.43946,-1.9414 -0.73242,-2.58985 -0.29297,-0.64842 -0.68165,-1.27342 -1.16602,-1.875 -0.48438,-0.60154 -1.125,-1.17576 -1.92187,-1.72265 z"
       style=""
       id="path3093" />
  </g>
</svg>
