<?xml version="1.0" encoding="UTF-8" standalone="no"?>
<!-- Created with Inkscape (http://www.inkscape.org/) -->
<svg
   xmlns:svg="http://www.w3.org/2000/svg"
   xmlns="http://www.w3.org/2000/svg"
   version="1.0"
   width="297.57199"
   height="172.95"
   id="svg2">
  <defs
     id="defs4">
    <marker
       markerUnits="strokeWidth"
       refX="0"
       refY="5"
       markerWidth="4"
       markerHeight="3"
       orient="auto"
       viewBox="0 0 10 10"
       id="ArrowEnd">
      <path
         d="M 0,0 L 10,5 L 0,10 L 0,0 z "
         id="path7" />
    </marker>
    <marker
       markerUnits="strokeWidth"
       refX="10"
       refY="5"
       markerWidth="4"
       markerHeight="3"
       orient="auto"
       viewBox="0 0 10 10"
       id="ArrowStart">
      <path
         d="M 10,0 L 0,5 L 10,10 L 10,0 z "
         id="path10" />
    </marker>
  </defs>
  <g
     id="g12">
    <path
       d="M 6.52113,4.20799 L 9.40001,7.08701 L 12.2789,9.966 L 15.1582,12.845 L 18.0372,15.724 L 20.9161,18.603 L 23.795,21.482 L 26.6743,24.361 L 29.5532,27.24 L 32.4321,30.119 L 35.3114,32.998 L 38.1903,35.877 L 41.0692,38.756 L 43.9481,41.635 L 46.8274,44.514 L 49.7063,47.393 L 52.5852,50.272 L 55.4641,53.151 L 58.3434,56.03 L 61.2223,58.909 L 64.1012,61.788 L 66.9805,64.667 L 69.8594,67.546 L 72.7383,70.425 L 75.6172,73.304 L 78.4965,76.1833 L 81.3754,79.0626 L 84.2543,81.9415 L 87.1332,84.8204 L 90.0125,87.6993 L 92.8915,90.5786 L 95.7704,93.4575 L 98.6497,96.3364 L 101.529,99.2153 L 104.408,102.095 L 107.287,104.973 L 110.166,107.852 L 113.045,110.732 L 115.924,113.611 L 118.803,116.49 L 121.682,119.368 L 124.561,122.248 L 127.44,125.127 L 130.319,128.005 L 133.198,130.884 L 136.077,133.764 L 138.956,136.643 L 141.835,139.522 L 144.714,142.4 L 147.593,145.28 L 150.472,148.159 L 153.351,145.28 L 156.23,142.4 L 159.109,139.522 L 161.988,136.643 L 164.867,133.764 L 167.746,130.884 L 170.625,128.005 L 173.504,125.127 L 176.383,122.248 L 179.262,119.368 L 182.141,116.49 L 185.02,113.611 L 187.899,110.732 L 190.778,107.852 L 193.657,104.973 L 196.536,102.095 L 199.415,99.2153 L 202.294,96.3364 L 205.173,93.4575 L 208.052,90.5786 L 210.931,87.6993 L 213.81,84.8204 L 216.689,81.9415 L 219.568,79.0626 L 222.447,76.1833 L 225.326,73.304 L 228.205,70.425 L 231.084,67.546 L 233.963,64.667 L 236.842,61.788 L 239.721,58.909 L 242.6,56.03 L 245.479,53.151 L 248.359,50.272 L 251.237,47.393 L 254.116,44.514 L 256.995,41.635 L 259.875,38.756 L 262.753,35.877 L 265.632,32.998 L 268.511,30.119 L 271.391,27.24 L 274.269,24.361 L 277.148,21.482 L 280.027,18.603 L 282.907,15.724 L 285.786,12.845 L 288.664,9.966 L 291.544,7.08701 L 294.423,4.20799"
       style="fill:none;stroke:#ff0000;stroke-width:1.89999998;stroke-linecap:round;stroke-linejoin:round"
       id="path14" />
    <path
       d="M 6.52113,148.159 L 294.423,148.159"
       style="fill:none;stroke:#000000;stroke-width:0.40000001;stroke-linecap:round;stroke-linejoin:round"
       id="path16" />
    <path
       d="M 6.52113,148.159 L 6.52113,142.491"
       style="fill:none;stroke:#000000;stroke-width:0.40000001;stroke-linecap:round;stroke-linejoin:round"
       id="path18" />
    <path
       d="M 24.5149,148.159 L 24.5149,145.325"
       style="fill:none;stroke:#000000;stroke-width:0.40000001;stroke-linecap:round;stroke-linejoin:round"
       id="path20" />
    <path
       d="M 42.5086,148.159 L 42.5086,142.491"
       style="fill:none;stroke:#000000;stroke-width:0.40000001;stroke-linecap:round;stroke-linejoin:round"
       id="path22" />
    <path
       d="M 60.5024,148.159 L 60.5024,145.325"
       style="fill:none;stroke:#000000;stroke-width:0.40000001;stroke-linecap:round;stroke-linejoin:round"
       id="path24" />
    <path
       d="M 78.4965,148.159 L 78.4965,142.491"
       style="fill:none;stroke:#000000;stroke-width:0.40000001;stroke-linecap:round;stroke-linejoin:round"
       id="path26" />
    <path
       d="M 96.4903,148.159 L 96.4903,145.325"
       style="fill:none;stroke:#000000;stroke-width:0.40000001;stroke-linecap:round;stroke-linejoin:round"
       id="path28" />
    <path
       d="M 114.484,148.159 L 114.484,142.491"
       style="fill:none;stroke:#000000;stroke-width:0.40000001;stroke-linecap:round;stroke-linejoin:round"
       id="path30" />
    <path
       d="M 132.478,148.159 L 132.478,145.325"
       style="fill:none;stroke:#000000;stroke-width:0.40000001;stroke-linecap:round;stroke-linejoin:round"
       id="path32" />
    <path
       d="M 150.472,148.159 L 150.472,142.491"
       style="fill:none;stroke:#000000;stroke-width:0.40000001;stroke-linecap:round;stroke-linejoin:round"
       id="path34" />
    <path
       d="M 168.466,148.159 L 168.466,145.325"
       style="fill:none;stroke:#000000;stroke-width:0.40000001;stroke-linecap:round;stroke-linejoin:round"
       id="path36" />
    <path
       d="M 186.46,148.159 L 186.46,142.491"
       style="fill:none;stroke:#000000;stroke-width:0.40000001;stroke-linecap:round;stroke-linejoin:round"
       id="path38" />
    <path
       d="M 204.453,148.159 L 204.453,145.325"
       style="fill:none;stroke:#000000;stroke-width:0.40000001;stroke-linecap:round;stroke-linejoin:round"
       id="path40" />
    <path
       d="M 222.447,148.159 L 222.447,142.491"
       style="fill:none;stroke:#000000;stroke-width:0.40000001;stroke-linecap:round;stroke-linejoin:round"
       id="path42" />
    <path
       d="M 240.441,148.159 L 240.441,145.325"
       style="fill:none;stroke:#000000;stroke-width:0.40000001;stroke-linecap:round;stroke-linejoin:round"
       id="path44" />
    <path
       d="M 258.435,148.159 L 258.435,142.491"
       style="fill:none;stroke:#000000;stroke-width:0.40000001;stroke-linecap:round;stroke-linejoin:round"
       id="path46" />
    <path
       d="M 276.429,148.159 L 276.429,145.325"
       style="fill:none;stroke:#000000;stroke-width:0.40000001;stroke-linecap:round;stroke-linejoin:round"
       id="path48" />
    <path
       d="M 294.423,148.159 L 294.423,142.491"
       style="fill:none;stroke:#000000;stroke-width:0.40000001;stroke-linecap:round;stroke-linejoin:round"
       id="path50" />
    <path
       d="M 150.472,148.159 L 150.472,4.20799"
       style="fill:none;stroke:#000000;stroke-width:0.40000001;stroke-linecap:round;stroke-linejoin:round"
       id="path52" />
    <path
       d="M 150.472,148.159 L 144.804,148.159"
       style="fill:none;stroke:#000000;stroke-width:0.40000001;stroke-linecap:round;stroke-linejoin:round"
       id="path54" />
    <path
       d="M 150.472,130.165 L 147.638,130.165"
       style="fill:none;stroke:#000000;stroke-width:0.40000001;stroke-linecap:round;stroke-linejoin:round"
       id="path56" />
    <path
       d="M 150.472,112.171 L 144.804,112.171"
       style="fill:none;stroke:#000000;stroke-width:0.40000001;stroke-linecap:round;stroke-linejoin:round"
       id="path58" />
    <path
       d="M 150.472,94.177 L 147.638,94.177"
       style="fill:none;stroke:#000000;stroke-width:0.40000001;stroke-linecap:round;stroke-linejoin:round"
       id="path60" />
    <path
       d="M 150.472,76.1833 L 144.804,76.1833"
       style="fill:none;stroke:#000000;stroke-width:0.40000001;stroke-linecap:round;stroke-linejoin:round"
       id="path62" />
    <path
       d="M 150.472,58.19 L 147.638,58.19"
       style="fill:none;stroke:#000000;stroke-width:0.40000001;stroke-linecap:round;stroke-linejoin:round"
       id="path64" />
    <path
       d="M 150.472,40.196 L 144.804,40.196"
       style="fill:none;stroke:#000000;stroke-width:0.40000001;stroke-linecap:round;stroke-linejoin:round"
       id="path66" />
    <path
       d="M 150.472,22.202 L 147.638,22.202"
       style="fill:none;stroke:#000000;stroke-width:0.40000001;stroke-linecap:round;stroke-linejoin:round"
       id="path68" />
    <path
       d="M 150.472,4.20799 L 144.804,4.20799"
       style="fill:none;stroke:#000000;stroke-width:0.40000001;stroke-linecap:round;stroke-linejoin:round"
       id="path70" />
    <path
       d="M 239.72,81.7507 C 239.301,82.3412 238.695,82.8697 237.933,82.8697 C 237.747,82.8697 237.001,82.8386 236.768,82.1237 C 236.814,82.1392 236.892,82.1392 236.923,82.1392 C 237.389,82.1392 237.7,81.7351 237.7,81.3777 C 237.7,81.0202 237.405,80.8959 237.172,80.8959 C 236.923,80.8959 236.379,81.0824 236.379,81.8439 C 236.379,82.6366 237.047,83.1805 237.933,83.1805 C 239.487,83.1805 241.057,81.7507 241.492,80.0256 L 243.015,73.9643 C 243.031,73.8866 243.062,73.7933 243.062,73.7001 C 243.062,73.467 242.875,73.312 242.642,73.312 C 242.502,73.312 242.176,73.374 242.052,73.84 L 240.902,78.4092 C 240.824,78.689 240.824,78.72 240.7,78.891 C 240.389,79.3262 239.876,79.8546 239.13,79.8546 C 238.26,79.8546 238.182,78.9998 238.182,78.5802 C 238.182,77.6943 238.601,76.4976 239.021,75.3786 C 239.192,74.9279 239.285,74.7103 239.285,74.3995 C 239.285,73.7467 238.819,73.156 238.058,73.156 C 236.628,73.156 236.053,75.4097 236.053,75.534 C 236.053,75.5962 236.115,75.6739 236.224,75.6739 C 236.363,75.6739 236.379,75.6117 236.441,75.3941 C 236.814,74.0886 237.405,73.467 238.011,73.467 C 238.151,73.467 238.415,73.467 238.415,73.9799 C 238.415,74.3839 238.244,74.8346 238.011,75.4252 C 237.249,77.4612 237.249,77.974 237.249,78.347 C 237.249,79.8235 238.306,80.1654 239.083,80.1654 C 239.534,80.1654 240.093,80.0256 240.637,79.4505 L 240.653,79.466 C 240.42,80.383 240.264,80.9891 239.72,81.7507 z "
       style="fill:#ff0000;fill-rule:evenodd;stroke:none"
       id="path72" />
    <path
       d="M 258.454,74.9745 C 258.671,74.9745 258.951,74.9745 258.951,74.6947 C 258.951,74.3995 258.687,74.3995 258.454,74.3995 L 249.3,74.3995 C 249.082,74.3995 248.802,74.3995 248.802,74.6792 C 248.802,74.9745 249.066,74.9745 249.3,74.9745 L 258.454,74.9745 z M 258.454,77.8653 C 258.671,77.8653 258.951,77.8653 258.951,77.5855 C 258.951,77.2902 258.687,77.2902 258.454,77.2902 L 249.3,77.2902 C 249.082,77.2902 248.802,77.2902 248.802,77.5699 C 248.802,77.8653 249.066,77.8653 249.3,77.8653 L 258.454,77.8653 z "
       style="fill:#ff0000;fill-rule:evenodd;stroke:none"
       id="path74" />
    <path
       d="M 266.499,68.867 C 266.499,68.649 266.499,68.354 266.188,68.354 C 265.877,68.354 265.877,68.649 265.877,68.867 L 265.877,83.3825 C 265.877,83.6001 265.877,83.8954 266.188,83.8954 C 266.499,83.8954 266.499,83.6001 266.499,83.3825 L 266.499,68.867 z "
       style="fill:#ff0000;fill-rule:evenodd;stroke:none"
       id="path76" />
    <path
       d="M 275.76,73.669 C 275.262,73.7623 275.076,74.1352 275.076,74.4306 C 275.076,74.8035 275.371,74.9279 275.589,74.9279 C 276.055,74.9279 276.381,74.5238 276.381,74.1042 C 276.381,73.451 275.635,73.156 274.983,73.156 C 274.035,73.156 273.506,74.0886 273.366,74.3839 C 273.009,73.218 272.045,73.156 271.766,73.156 C 270.18,73.156 269.341,75.1921 269.341,75.534 C 269.341,75.5962 269.403,75.6739 269.512,75.6739 C 269.636,75.6739 269.667,75.5806 269.699,75.5185 C 270.227,73.7933 271.268,73.467 271.719,73.467 C 272.418,73.467 272.558,74.1197 272.558,74.4927 C 272.558,74.8346 272.465,75.1921 272.278,75.9381 C 272.03,76.9327 271.968,77.1659 271.75,78.0673 C 271.517,78.9998 271.066,79.8546 270.242,79.8546 C 270.165,79.8546 269.776,79.8546 269.45,79.6525 C 270.009,79.5437 270.134,79.0775 270.134,78.891 C 270.134,78.5802 269.901,78.3937 269.605,78.3937 C 269.232,78.3937 268.828,78.72 268.828,79.2174 C 268.828,79.8701 269.559,80.1654 270.227,80.1654 C 270.973,80.1654 271.501,79.5748 271.828,78.9376 C 272.076,79.8546 272.853,80.1654 273.429,80.1654 C 275.014,80.1654 275.853,78.1295 275.853,77.7875 C 275.853,77.7098 275.791,77.6477 275.698,77.6477 C 275.558,77.6477 275.542,77.7254 275.496,77.8497 C 275.076,79.2174 274.175,79.8546 273.475,79.8546 C 272.931,79.8546 272.636,79.4505 272.636,78.8133 C 272.636,78.4714 272.698,78.2227 272.947,77.197 C 273.133,76.482 273.335,75.6583 273.491,75.0833 C 273.724,74.1508 274.252,73.467 274.967,73.467 C 274.998,73.467 275.433,73.467 275.76,73.669 z "
       style="fill:#ff0000;fill-rule:evenodd;stroke:none"
       id="path78" />
    <path
       d="M 279.444,68.867 C 279.444,68.649 279.444,68.354 279.133,68.354 C 278.822,68.354 278.822,68.649 278.822,68.867 L 278.822,83.3825 C 278.822,83.6001 278.822,83.8954 279.133,83.8954 C 279.444,83.8954 279.444,83.6001 279.444,83.3825 L 279.444,68.867 z "
       style="fill:#ff0000;fill-rule:evenodd;stroke:none"
       id="path80" />
    <path
       d="M 6.9101,159.4 C 7.07748,159.4 7.30461,159.4 7.30461,159.161 C 7.30461,158.922 7.07748,158.922 6.9101,158.922 L 0.39451,158.922 C 0.22713,158.922 0,158.922 0,159.161 C 0,159.4 0.22713,159.4 0.39451,159.4 L 6.9101,159.4 z "
       style="fill:#000000;fill-rule:evenodd;stroke:none"
       id="path82" />
    <path
       d="M 12.5635,154.367 C 12.5635,154.14 12.5635,154.08 12.3962,154.08 C 12.3005,154.08 12.2647,154.08 12.169,154.224 L 8.57051,159.807 L 8.57051,160.154 L 11.7147,160.154 L 11.7147,161.241 C 11.7147,161.684 11.6908,161.803 10.8181,161.803 L 10.579,161.803 L 10.579,162.15 C 10.854,162.126 11.7984,162.126 12.1331,162.126 C 12.4679,162.126 13.4243,162.126 13.6993,162.15 L 13.6993,161.803 L 13.4602,161.803 C 12.5994,161.803 12.5635,161.684 12.5635,161.241 L 12.5635,160.154 L 13.771,160.154 L 13.771,159.807 L 12.5635,159.807 L 12.5635,154.367 z M 11.7745,155.3 L 11.7745,159.807 L 8.86941,159.807 L 11.7745,155.3 z "
       style="fill:#000000;fill-rule:evenodd;stroke:none"
       id="path84" />
    <path
       d="M 42.9101,159.4 C 43.0775,159.4 43.3046,159.4 43.3046,159.161 C 43.3046,158.922 43.0775,158.922 42.9101,158.922 L 36.3945,158.922 C 36.2271,158.922 36,158.922 36,159.161 C 36,159.4 36.2271,159.4 36.3945,159.4 L 42.9101,159.4 z "
       style="fill:#000000;fill-rule:evenodd;stroke:none"
       id="path86" />
    <path
       d="M 46.4475,157.858 C 46.2442,157.87 46.1964,157.882 46.1964,157.99 C 46.1964,158.109 46.2562,158.109 46.4714,158.109 L 47.0213,158.109 C 48.0375,158.109 48.4918,158.946 48.4918,160.094 C 48.4918,161.66 47.6788,162.078 47.093,162.078 C 46.5192,162.078 45.5389,161.803 45.1922,161.014 C 45.5747,161.074 45.9214,160.859 45.9214,160.428 C 45.9214,160.082 45.6704,159.843 45.3356,159.843 C 45.0487,159.843 44.7379,160.01 44.7379,160.464 C 44.7379,161.528 45.8019,162.401 47.1289,162.401 C 48.5516,162.401 49.6036,161.313 49.6036,160.106 C 49.6036,159.006 48.719,158.145 47.5713,157.942 C 48.6114,157.643 49.2808,156.77 49.2808,155.838 C 49.2808,154.893 48.3005,154.2 47.1409,154.2 C 45.9453,154.2 45.0607,154.929 45.0607,155.802 C 45.0607,156.28 45.4313,156.376 45.6106,156.376 C 45.8617,156.376 46.1486,156.196 46.1486,155.838 C 46.1486,155.455 45.8617,155.288 45.5986,155.288 C 45.5269,155.288 45.503,155.288 45.4671,155.3 C 45.9214,154.487 47.0452,154.487 47.105,154.487 C 47.4995,154.487 48.2766,154.666 48.2766,155.838 C 48.2766,156.065 48.2408,156.734 47.894,157.248 C 47.5354,157.774 47.1289,157.81 46.8061,157.822 L 46.4475,157.858 z "
       style="fill:#000000;fill-rule:evenodd;stroke:none"
       id="path88" />
    <path
       d="M 78.9101,159.4 C 79.0775,159.4 79.3046,159.4 79.3046,159.161 C 79.3046,158.922 79.0775,158.922 78.9101,158.922 L 72.3945,158.922 C 72.2271,158.922 72,158.922 72,159.161 C 72,159.4 72.2271,159.4 72.3945,159.4 L 78.9101,159.4 z "
       style="fill:#000000;fill-rule:evenodd;stroke:none"
       id="path90" />
    <path
       d="M 85.508,160.141 L 85.245,160.141 C 85.2091,160.345 85.1135,161.002 84.9939,161.194 C 84.9102,161.301 84.2288,161.301 83.8701,161.301 L 81.6584,161.301 C 81.9812,161.026 82.7105,160.261 83.0213,159.974 C 84.8385,158.3 85.508,157.679 85.508,156.495 C 85.508,155.12 84.4201,154.2 83.0333,154.2 C 81.6465,154.2 80.8335,155.383 80.8335,156.411 C 80.8335,157.021 81.3596,157.021 81.3954,157.021 C 81.6465,157.021 81.9573,156.842 81.9573,156.459 C 81.9573,156.125 81.7302,155.897 81.3954,155.897 C 81.2878,155.897 81.2639,155.897 81.228,155.909 C 81.4552,155.096 82.1008,154.546 82.8779,154.546 C 83.8941,154.546 84.5157,155.395 84.5157,156.495 C 84.5157,157.511 83.9299,158.396 83.2485,159.161 L 80.8335,161.863 L 80.8335,162.15 L 85.1972,162.15 L 85.508,160.141 z "
       style="fill:#000000;fill-rule:evenodd;stroke:none"
       id="path92" />
    <path
       d="M 114.91,159.4 C 115.078,159.4 115.305,159.4 115.305,159.161 C 115.305,158.922 115.078,158.922 114.91,158.922 L 108.395,158.922 C 108.227,158.922 108,158.922 108,159.161 C 108,159.4 108.227,159.4 108.395,159.4 L 114.91,159.4 z "
       style="fill:#000000;fill-rule:evenodd;stroke:none"
       id="path94" />
    <path
       d="M 119.691,154.487 C 119.691,154.212 119.691,154.2 119.452,154.2 C 119.165,154.523 118.567,154.965 117.336,154.965 L 117.336,155.312 C 117.611,155.312 118.209,155.312 118.866,155.001 L 118.866,161.229 C 118.866,161.66 118.83,161.803 117.778,161.803 L 117.408,161.803 L 117.408,162.15 C 117.73,162.126 118.89,162.126 119.285,162.126 C 119.679,162.126 120.827,162.126 121.15,162.15 L 121.15,161.803 L 120.779,161.803 C 119.727,161.803 119.691,161.66 119.691,161.229 L 119.691,154.487 z "
       style="fill:#000000;fill-rule:evenodd;stroke:none"
       id="path96" />
    <path
       d="M 153.051,158.324 C 153.051,157.332 152.992,156.364 152.561,155.455 C 152.071,154.463 151.21,154.2 150.625,154.2 C 149.931,154.2 149.082,154.546 148.64,155.539 C 148.305,156.292 148.186,157.033 148.186,158.324 C 148.186,159.484 148.269,160.357 148.7,161.206 C 149.166,162.114 149.991,162.401 150.613,162.401 C 151.653,162.401 152.25,161.779 152.597,161.086 C 153.028,160.189 153.051,159.018 153.051,158.324 z M 150.613,162.162 C 150.23,162.162 149.453,161.947 149.226,160.644 C 149.094,159.926 149.094,159.018 149.094,158.181 C 149.094,157.201 149.094,156.316 149.286,155.611 C 149.489,154.809 150.098,154.439 150.613,154.439 C 151.067,154.439 151.76,154.714 151.987,155.742 C 152.143,156.423 152.143,157.368 152.143,158.181 C 152.143,158.982 152.143,159.891 152.011,160.62 C 151.784,161.935 151.031,162.162 150.613,162.162 z "
       style="fill:#000000;fill-rule:evenodd;stroke:none"
       id="path98" />
    <path
       d="M 187.139,154.487 C 187.139,154.212 187.139,154.2 186.9,154.2 C 186.613,154.523 186.015,154.965 184.783,154.965 L 184.783,155.312 C 185.058,155.312 185.656,155.312 186.314,155.001 L 186.314,161.229 C 186.314,161.66 186.278,161.803 185.226,161.803 L 184.855,161.803 L 184.855,162.15 C 185.178,162.126 186.338,162.126 186.732,162.126 C 187.127,162.126 188.274,162.126 188.597,162.15 L 188.597,161.803 L 188.227,161.803 C 187.174,161.803 187.139,161.66 187.139,161.229 L 187.139,154.487 z "
       style="fill:#000000;fill-rule:evenodd;stroke:none"
       id="path100" />
    <path
       d="M 224.963,160.141 L 224.7,160.141 C 224.664,160.345 224.569,161.002 224.449,161.194 C 224.366,161.301 223.684,161.301 223.325,161.301 L 221.114,161.301 C 221.437,161.026 222.166,160.261 222.477,159.974 C 224.294,158.3 224.963,157.679 224.963,156.495 C 224.963,155.12 223.875,154.2 222.489,154.2 C 221.102,154.2 220.289,155.383 220.289,156.411 C 220.289,157.021 220.815,157.021 220.851,157.021 C 221.102,157.021 221.413,156.842 221.413,156.459 C 221.413,156.125 221.185,155.897 220.851,155.897 C 220.743,155.897 220.719,155.897 220.683,155.909 C 220.91,155.096 221.556,154.546 222.333,154.546 C 223.349,154.546 223.971,155.395 223.971,156.495 C 223.971,157.511 223.385,158.396 222.704,159.161 L 220.289,161.863 L 220.289,162.15 L 224.652,162.15 L 224.963,160.141 z "
       style="fill:#000000;fill-rule:evenodd;stroke:none"
       id="path102" />
    <path
       d="M 257.91,157.858 C 257.707,157.87 257.659,157.882 257.659,157.99 C 257.659,158.109 257.719,158.109 257.934,158.109 L 258.484,158.109 C 259.5,158.109 259.955,158.946 259.955,160.094 C 259.955,161.66 259.142,162.078 258.556,162.078 C 257.982,162.078 257.002,161.803 256.655,161.014 C 257.038,161.074 257.384,160.859 257.384,160.428 C 257.384,160.082 257.133,159.843 256.798,159.843 C 256.512,159.843 256.201,160.01 256.201,160.464 C 256.201,161.528 257.265,162.401 258.592,162.401 C 260.014,162.401 261.066,161.313 261.066,160.106 C 261.066,159.006 260.182,158.145 259.034,157.942 C 260.074,157.643 260.744,156.77 260.744,155.838 C 260.744,154.893 259.763,154.2 258.604,154.2 C 257.408,154.2 256.523,154.929 256.523,155.802 C 256.523,156.28 256.894,156.376 257.073,156.376 C 257.324,156.376 257.611,156.196 257.611,155.838 C 257.611,155.455 257.324,155.288 257.061,155.288 C 256.99,155.288 256.966,155.288 256.93,155.3 C 257.384,154.487 258.508,154.487 258.568,154.487 C 258.962,154.487 259.739,154.666 259.739,155.838 C 259.739,156.065 259.704,156.734 259.357,157.248 C 258.998,157.774 258.592,157.81 258.269,157.822 L 257.91,157.858 z "
       style="fill:#000000;fill-rule:evenodd;stroke:none"
       id="path104" />
    <path
       d="M 296.026,154.367 C 296.026,154.14 296.026,154.08 295.859,154.08 C 295.763,154.08 295.727,154.08 295.632,154.224 L 292.033,159.807 L 292.033,160.154 L 295.178,160.154 L 295.178,161.241 C 295.178,161.684 295.154,161.803 294.281,161.803 L 294.042,161.803 L 294.042,162.15 C 294.317,162.126 295.261,162.126 295.596,162.126 C 295.931,162.126 296.887,162.126 297.162,162.15 L 297.162,161.803 L 296.923,161.803 C 296.062,161.803 296.026,161.684 296.026,161.241 L 296.026,160.154 L 297.234,160.154 L 297.234,159.807 L 296.026,159.807 L 296.026,154.367 z M 295.237,155.3 L 295.237,159.807 L 292.332,159.807 L 295.237,155.3 z "
       style="fill:#000000;fill-rule:evenodd;stroke:none"
       id="path106" />
    <path
       d="M 292.555,167.952 C 292.172,168.024 292.029,168.311 292.029,168.538 C 292.029,168.825 292.256,168.921 292.423,168.921 C 292.782,168.921 293.033,168.61 293.033,168.287 C 293.033,167.785 292.459,167.558 291.957,167.558 C 291.228,167.558 290.821,168.275 290.714,168.502 C 290.439,167.606 289.698,167.558 289.482,167.558 C 288.263,167.558 287.617,169.124 287.617,169.387 C 287.617,169.435 287.665,169.494 287.749,169.494 C 287.844,169.494 287.868,169.423 287.892,169.375 C 288.299,168.048 289.1,167.797 289.446,167.797 C 289.984,167.797 290.092,168.299 290.092,168.586 C 290.092,168.849 290.02,169.124 289.877,169.698 C 289.686,170.463 289.638,170.642 289.47,171.336 C 289.291,172.053 288.944,172.71 288.311,172.71 C 288.251,172.71 287.952,172.71 287.701,172.555 C 288.131,172.471 288.227,172.113 288.227,171.969 C 288.227,171.73 288.048,171.587 287.821,171.587 C 287.534,171.587 287.223,171.838 287.223,172.22 C 287.223,172.722 287.785,172.95 288.299,172.95 C 288.873,172.95 289.279,172.495 289.53,172.005 C 289.721,172.71 290.319,172.95 290.762,172.95 C 291.981,172.95 292.627,171.383 292.627,171.12 C 292.627,171.061 292.579,171.013 292.507,171.013 C 292.399,171.013 292.387,171.073 292.352,171.168 C 292.029,172.22 291.335,172.71 290.797,172.71 C 290.379,172.71 290.152,172.4 290.152,171.909 C 290.152,171.646 290.2,171.455 290.391,170.666 C 290.534,170.116 290.69,169.483 290.809,169.04 C 290.989,168.323 291.395,167.797 291.945,167.797 C 291.969,167.797 292.304,167.797 292.555,167.952 z "
       style="fill:#000000;fill-rule:evenodd;stroke:none"
       id="path108" />
    <path
       d="M 140.684,148.124 C 140.684,147.132 140.624,146.164 140.194,145.255 C 139.704,144.263 138.843,144 138.257,144 C 137.564,144 136.715,144.346 136.272,145.339 C 135.938,146.092 135.818,146.833 135.818,148.124 C 135.818,149.284 135.902,150.157 136.332,151.005 C 136.799,151.914 137.623,152.201 138.245,152.201 C 139.285,152.201 139.883,151.579 140.23,150.886 C 140.66,149.989 140.684,148.818 140.684,148.124 z M 138.245,151.962 C 137.863,151.962 137.085,151.747 136.858,150.444 C 136.727,149.726 136.727,148.818 136.727,147.981 C 136.727,147.001 136.727,146.116 136.918,145.41 C 137.121,144.609 137.731,144.239 138.245,144.239 C 138.699,144.239 139.393,144.514 139.62,145.542 C 139.775,146.223 139.775,147.168 139.775,147.981 C 139.775,148.782 139.775,149.69 139.644,150.42 C 139.417,151.735 138.664,151.962 138.245,151.962 z "
       style="fill:#000000;fill-rule:evenodd;stroke:none"
       id="path110" />
    <path
       d="M 138.771,108.287 C 138.771,108.012 138.771,108 138.532,108 C 138.245,108.323 137.647,108.765 136.416,108.765 L 136.416,109.112 C 136.691,109.112 137.289,109.112 137.946,108.801 L 137.946,115.029 C 137.946,115.46 137.91,115.603 136.858,115.603 L 136.488,115.603 L 136.488,115.95 C 136.81,115.926 137.97,115.926 138.365,115.926 C 138.759,115.926 139.907,115.926 140.23,115.95 L 140.23,115.603 L 139.859,115.603 C 138.807,115.603 138.771,115.46 138.771,115.029 L 138.771,108.287 z "
       style="fill:#000000;fill-rule:evenodd;stroke:none"
       id="path112" />
    <path
       d="M 140.588,77.9415 L 140.325,77.9415 C 140.289,78.1448 140.194,78.8023 140.074,78.9936 C 139.991,79.1012 139.309,79.1012 138.95,79.1012 L 136.739,79.1012 C 137.062,78.8262 137.791,78.0611 138.102,77.7741 C 139.919,76.1004 140.588,75.4788 140.588,74.2952 C 140.588,72.92 139.5,72 138.114,72 C 136.727,72 135.914,73.183 135.914,74.2115 C 135.914,74.8212 136.44,74.8212 136.476,74.8212 C 136.727,74.8212 137.038,74.6419 137.038,74.2593 C 137.038,73.9246 136.81,73.6974 136.476,73.6974 C 136.368,73.6974 136.344,73.6974 136.308,73.7094 C 136.535,72.896 137.181,72.346 137.958,72.346 C 138.974,72.346 139.596,73.195 139.596,74.2952 C 139.596,75.3114 139.01,76.1961 138.329,76.9612 L 135.914,79.6631 L 135.914,79.95 L 140.277,79.95 L 140.588,77.9415 z "
       style="fill:#000000;fill-rule:evenodd;stroke:none"
       id="path114" />
    <path
       d="M 137.528,39.778 C 137.325,39.79 137.277,39.802 137.277,39.91 C 137.277,40.029 137.336,40.029 137.552,40.029 L 138.102,40.029 C 139.118,40.029 139.572,40.866 139.572,42.014 C 139.572,43.58 138.759,43.998 138.173,43.998 C 137.6,43.998 136.619,43.723 136.272,42.934 C 136.655,42.994 137.002,42.779 137.002,42.348 C 137.002,42.002 136.751,41.763 136.416,41.763 C 136.129,41.763 135.818,41.93 135.818,42.384 C 135.818,43.448 136.882,44.321 138.209,44.321 C 139.632,44.321 140.684,43.233 140.684,42.026 C 140.684,40.926 139.799,40.065 138.652,39.862 C 139.692,39.563 140.361,38.69 140.361,37.758 C 140.361,36.813 139.381,36.12 138.221,36.12 C 137.026,36.12 136.141,36.849 136.141,37.722 C 136.141,38.2 136.512,38.296 136.691,38.296 C 136.942,38.296 137.229,38.116 137.229,37.758 C 137.229,37.375 136.942,37.208 136.679,37.208 C 136.607,37.208 136.583,37.208 136.547,37.22 C 137.002,36.407 138.126,36.407 138.185,36.407 C 138.58,36.407 139.357,36.586 139.357,37.758 C 139.357,37.985 139.321,38.654 138.974,39.168 C 138.616,39.694 138.209,39.73 137.886,39.742 L 137.528,39.778 z "
       style="fill:#000000;fill-rule:evenodd;stroke:none"
       id="path116" />
    <path
       d="M 139.644,0.287003 C 139.644,0.0599976 139.644,0 139.476,0 C 139.381,0 139.345,0 139.249,0.143997 L 135.651,5.72701 L 135.651,6.073 L 138.795,6.073 L 138.795,7.161 C 138.795,7.604 138.771,7.72299 137.898,7.72299 L 137.659,7.72299 L 137.659,8.06999 C 137.934,8.04601 138.879,8.04601 139.213,8.04601 C 139.548,8.04601 140.505,8.04601 140.78,8.06999 L 140.78,7.72299 L 140.54,7.72299 C 139.68,7.72299 139.644,7.604 139.644,7.161 L 139.644,6.073 L 140.851,6.073 L 140.851,5.72701 L 139.644,5.72701 L 139.644,0.287003 z M 138.855,1.22 L 138.855,5.72701 L 135.95,5.72701 L 138.855,1.22 z "
       style="fill:#000000;fill-rule:evenodd;stroke:none"
       id="path118" />
    <path
       d="M 127.912,11.569 C 127.589,12.023 127.123,12.43 126.537,12.43 C 126.394,12.43 125.82,12.406 125.641,11.856 C 125.677,11.868 125.736,11.868 125.76,11.868 C 126.119,11.868 126.358,11.557 126.358,11.282 C 126.358,11.007 126.131,10.911 125.952,10.911 C 125.76,10.911 125.342,11.055 125.342,11.641 C 125.342,12.25 125.856,12.669 126.537,12.669 C 127.733,12.669 128.94,11.569 129.275,10.242 L 130.447,5.57899 C 130.459,5.52 130.483,5.448 130.483,5.37599 C 130.483,5.19699 130.339,5.077 130.16,5.077 C 130.052,5.077 129.801,5.125 129.706,5.48399 L 128.821,8.99899 C 128.761,9.214 128.761,9.23799 128.665,9.369 C 128.426,9.70399 128.032,10.11 127.458,10.11 C 126.788,10.11 126.729,9.453 126.729,9.13 C 126.729,8.44901 127.051,7.528 127.374,6.66699 C 127.506,6.321 127.577,6.153 127.577,5.914 C 127.577,5.412 127.219,4.95799 126.633,4.95799 C 125.533,4.95799 125.091,6.69099 125.091,6.787 C 125.091,6.83499 125.139,6.894 125.222,6.894 C 125.33,6.894 125.342,6.847 125.39,6.679 C 125.677,5.675 126.131,5.19699 126.597,5.19699 C 126.705,5.19699 126.908,5.19699 126.908,5.591 C 126.908,5.90199 126.776,6.24899 126.597,6.703 C 126.011,8.269 126.011,8.664 126.011,8.951 C 126.011,10.087 126.824,10.35 127.422,10.35 C 127.769,10.35 128.199,10.242 128.618,9.8 L 128.63,9.812 C 128.45,10.517 128.331,10.983 127.912,11.569 z "
       style="fill:#000000;fill-rule:evenodd;stroke:none"
       id="path120" />
  </g>
</svg>
