<?xml version="1.0" encoding="UTF-8" standalone="no"?>
<svg
width="600"
height="480"
version="1.1"
xmlns="http://www.w3.org/2000/svg">

<g style="fill:none;stroke:black;stroke-width:1">
	<path d="M67.1,444 L76.1,444 M582.7,444 L573.7,444"/>
	<path d="M67.1,390.6 L76.1,390.6 M582.7,390.6 L573.7,390.6"/>
	<path d="M67.1,337.2 L76.1,337.2 M582.7,337.2 L573.7,337.2"/>
	<path d="M67.1,283.7 L76.1,283.7 M582.7,283.7 L573.7,283.7"/>
	<path d="M67.1,230.3 L76.1,230.3 M582.7,230.3 L573.7,230.3"/>
	<path d="M67.1,176.9 L76.1,176.9 M582.7,176.9 L573.7,176.9"/>
	<path d="M67.1,123.5 L76.1,123.5 M582.7,123.5 L573.7,123.5"/>
	<path d="M67.1,70 L76.1,70 M582.7,70 L573.7,70"/>
	<path d="M67.1,16.6 L76.1,16.6 M582.7,16.6 L573.7,16.6"/>
	<path d="M118.7,444 L118.7,435 M118.7,16.6 L118.7,25.6"/>
	<path d="M221.8,444 L221.8,435 M221.8,16.6 L221.8,25.6"/>
	<path d="M324.9,444 L324.9,435 M324.9,16.6 L324.9,25.6"/>
	<path d="M428.0,444 L428.0,435 M428.0,16.6 L428.0,25.6"/>
	<path d="M531.1,444 L531.1,435 M531.1,16.6 L531.1,25.6"/>
</g>

<g style="stroke:none;fill:black;font-family:Arial;font-size:12pt;text-anchor:end">
	<text x="58.8" y="448.5">-5</text>
	<text x="58.8" y="395.1">0</text>
	<text x="58.8" y="341.7">5</text>
	<text x="58.8" y="288.2">10</text>
	<text x="58.8" y="234.8">15</text>
	<text x="58.8" y="181.4">20</text>
	<text x="58.8" y="128">25</text>
	<text x="58.8" y="74.5">30</text>
	<text x="58.8" y="21.1">35</text>
	<g style="text-anchor:middle">
		<text x="118.7" y="466.5">-4</text>
		<text x="221.8" y="466.5">-2</text>
		<text x="324.9" y="466.5">0</text>
		<text x="428" y="466.5">2</text>
		<text x="531.1" y="466.5">4</text>
	</g>
	<text x="515.6" y="39.1">(x*x)/1</text>
	<text x="515.6" y="57.1">(x*x)/2</text>
	<text x="515.6" y="75.1">(x*x)/3</text>
	<text x="515.6" y="93.1">(x*x)/4</text>
	<text x="515.6" y="111.1">(x*x)/5</text>
</g>

<path style="fill:none;stroke:gray;stroke-width:1.5" d="M67.1,390.6 L582.7,390.6 M324.9,444 L324.9,16.6"/>

<g style="fill:none;stroke-width:1px">
	<path stroke="red" d="M523.9,34.6 L566.1,34.6 M324.9,390.6 Q454,390.6 582.7,123.5 M324.9,390.6 Q195.8,390.6 67.1,123.5"/>
	<path stroke="green" d="M523.9,52.6 L566.1,52.6 M324.9,390.6 Q454,390.6 582.7,257 M324.9,390.6 Q195.8,390.6 67.1,257.0"/>	
	<path stroke="blue" d="M523.9,70.6 L566.1,70.6 M324.9,390.6 Q454,390.6 582.7,301.5 M324.9,390.6 Q195.8,390.6 67.1,301.5"/>
	<path stroke="cyan" d="M523.9,88.6 L566.1,88.6 M324.9,390.6 Q454,390.6 582.7,323.8 M324.9,390.6 Q195.8,390.6 67.1,323.8"/>
	<path stroke="#157545" d="M523.9,106.6 L566.1,106.6 M324.9,390.6 Q454,390.6 582.7,337.2 M324.9,390.6 Q195.8,390.6 67.1,337.2"/>
	<path stroke-width="1.5" stroke="black" d="M67.1,16.6 L67.1,444 L582.7,444 L582.7,16.6 L67.1,16.6 Z"/>
</g>

</svg>