<?xml version="1.0" encoding="utf-8" standalone="no"?>
<!DOCTYPE svg PUBLIC "-//W3C//DTD SVG 1.1//EN"
  "http://www.w3.org/Graphics/SVG/1.1/DTD/svg11.dtd">
<!-- Created with matplotlib (http://matplotlib.org/) -->
<svg height="432pt" version="1.1" viewBox="0 0 576 432" width="576pt" xmlns="http://www.w3.org/2000/svg" xmlns:xlink="http://www.w3.org/1999/xlink">
 <defs>
  <style type="text/css">
*{stroke-linecap:butt;stroke-linejoin:round;}
  </style>
 </defs>
 <g id="figure_1">
  <g id="patch_1">
   <path d="M 0 432 
L 576 432 
L 576 0 
L 0 0 
z
" style="fill:#ffffff;"/>
  </g>
  <g id="axes_1">
   <g id="patch_2">
    <path d="M 25.2 395.64 
L 534.825 395.64 
L 534.825 25.2 
L 25.2 25.2 
z
" style="fill:#ffffff;"/>
   </g>
   <g id="patch_3">
    <path clip-path="url(#pa91867acc8)" d="M 154.050187 184.460775 
L 196.518937 184.460775 
L 196.518937 117.108048 
L 154.050187 117.108048 
z
" style="fill:none;stroke:#000000;stroke-linejoin:miter;stroke-width:3;"/>
   </g>
   <g id="patch_4">
    <path clip-path="url(#pa91867acc8)" d="M 406.569375 185.007808 
L 449.038125 185.007808 
L 449.038125 117.655081 
L 406.569375 117.655081 
z
" style="fill:none;stroke:#000000;stroke-linejoin:miter;stroke-width:3;"/>
   </g>
   <g id="patch_5">
    <path d="M 534.825 227.258182 
L 517.8375 233.432182 
L 522.93375 227.342373 
L 25.2 227.173991 
L 522.93375 227.173991 
L 517.8375 221.084182 
z
" style="stroke:#000000;stroke-linejoin:miter;"/>
   </g>
   <g id="patch_6">
    <path d="M 110.1375 25.2 
L 116.480589 41.734661 
L 110.562188 36.774263 
L 109.712812 395.64 
L 109.712812 36.774263 
L 103.794411 41.734661 
z
" style="stroke:#000000;stroke-linejoin:miter;"/>
   </g>
   <g id="matplotlib.axis_1">
    <g id="xtick_1">
     <g id="line2d_1">
      <defs>
       <path d="M 0 1.75 
L 0 -1.75 
" id="md54c838bb6" style="stroke:#000000;stroke-width:0.8;"/>
      </defs>
      <g>
       <use style="stroke:#000000;stroke-width:0.8;" x="534.825" xlink:href="#md54c838bb6" y="227.258182"/>
      </g>
     </g>
     <g id="text_1">
      <!-- 0.5 -->
      <defs>
       <path d="M 31.78125 66.40625 
Q 24.171875 66.40625 20.328125 58.90625 
Q 16.5 51.421875 16.5 36.375 
Q 16.5 21.390625 20.328125 13.890625 
Q 24.171875 6.390625 31.78125 6.390625 
Q 39.453125 6.390625 43.28125 13.890625 
Q 47.125 21.390625 47.125 36.375 
Q 47.125 51.421875 43.28125 58.90625 
Q 39.453125 66.40625 31.78125 66.40625 
M 31.78125 74.21875 
Q 44.046875 74.21875 50.515625 64.515625 
Q 56.984375 54.828125 56.984375 36.375 
Q 56.984375 17.96875 50.515625 8.265625 
Q 44.046875 -1.421875 31.78125 -1.421875 
Q 19.53125 -1.421875 13.0625 8.265625 
Q 6.59375 17.96875 6.59375 36.375 
Q 6.59375 54.828125 13.0625 64.515625 
Q 19.53125 74.21875 31.78125 74.21875 
" id="DejaVuSans-30"/>
       <path d="M 10.6875 12.40625 
L 21 12.40625 
L 21 0 
L 10.6875 0 
z
" id="DejaVuSans-2e"/>
       <path d="M 10.796875 72.90625 
L 49.515625 72.90625 
L 49.515625 64.59375 
L 19.828125 64.59375 
L 19.828125 46.734375 
Q 21.96875 47.46875 24.109375 47.828125 
Q 26.265625 48.1875 28.421875 48.1875 
Q 40.625 48.1875 47.75 41.5 
Q 54.890625 34.8125 54.890625 23.390625 
Q 54.890625 11.625 47.5625 5.09375 
Q 40.234375 -1.421875 26.90625 -1.421875 
Q 22.3125 -1.421875 17.546875 -0.640625 
Q 12.796875 0.140625 7.71875 1.703125 
L 7.71875 11.625 
Q 12.109375 9.234375 16.796875 8.0625 
Q 21.484375 6.890625 26.703125 6.890625 
Q 35.15625 6.890625 40.078125 11.328125 
Q 45.015625 15.765625 45.015625 23.390625 
Q 45.015625 31 40.078125 35.4375 
Q 35.15625 39.890625 26.703125 39.890625 
Q 22.75 39.890625 18.8125 39.015625 
Q 14.890625 38.140625 10.796875 36.28125 
z
" id="DejaVuSans-35"/>
      </defs>
      <g transform="translate(517.331562 249.224744)scale(0.22 -0.22)">
       <use xlink:href="#DejaVuSans-30"/>
       <use x="63.623047" xlink:href="#DejaVuSans-2e"/>
       <use x="95.410156" xlink:href="#DejaVuSans-35"/>
      </g>
     </g>
    </g>
   </g>
   <g id="matplotlib.axis_2">
    <g id="ytick_1">
     <g id="line2d_2">
      <defs>
       <path d="M 1.75 0 
L -1.75 -0 
" id="maad80ea84b" style="stroke:#000000;stroke-width:0.8;"/>
      </defs>
      <g>
       <use style="stroke:#000000;stroke-width:0.8;" x="110.1375" xlink:href="#maad80ea84b" y="395.64"/>
      </g>
     </g>
     <g id="text_2">
      <!-- −1.0 -->
      <defs>
       <path d="M 10.59375 35.5 
L 73.1875 35.5 
L 73.1875 27.203125 
L 10.59375 27.203125 
z
" id="DejaVuSans-2212"/>
       <path d="M 12.40625 8.296875 
L 28.515625 8.296875 
L 28.515625 63.921875 
L 10.984375 60.40625 
L 10.984375 69.390625 
L 28.421875 72.90625 
L 38.28125 72.90625 
L 38.28125 8.296875 
L 54.390625 8.296875 
L 54.390625 0 
L 12.40625 0 
z
" id="DejaVuSans-31"/>
      </defs>
      <g transform="translate(51.465313 403.998281)scale(0.22 -0.22)">
       <use xlink:href="#DejaVuSans-2212"/>
       <use x="83.789062" xlink:href="#DejaVuSans-31"/>
       <use x="147.412109" xlink:href="#DejaVuSans-2e"/>
       <use x="179.199219" xlink:href="#DejaVuSans-30"/>
      </g>
     </g>
    </g>
    <g id="ytick_2">
     <g id="line2d_3">
      <g>
       <use style="stroke:#000000;stroke-width:0.8;" x="110.1375" xlink:href="#maad80ea84b" y="311.449091"/>
      </g>
     </g>
     <g id="text_3">
      <!-- −0.5 -->
      <g transform="translate(51.465313 319.807372)scale(0.22 -0.22)">
       <use xlink:href="#DejaVuSans-2212"/>
       <use x="83.789062" xlink:href="#DejaVuSans-30"/>
       <use x="147.412109" xlink:href="#DejaVuSans-2e"/>
       <use x="179.199219" xlink:href="#DejaVuSans-35"/>
      </g>
     </g>
    </g>
    <g id="ytick_3">
     <g id="line2d_4">
      <g>
       <use style="stroke:#000000;stroke-width:0.8;" x="110.1375" xlink:href="#maad80ea84b" y="143.067273"/>
      </g>
     </g>
     <g id="text_4">
      <!-- 0.5 -->
      <g transform="translate(69.900625 151.425554)scale(0.22 -0.22)">
       <use xlink:href="#DejaVuSans-30"/>
       <use x="63.623047" xlink:href="#DejaVuSans-2e"/>
       <use x="95.410156" xlink:href="#DejaVuSans-35"/>
      </g>
     </g>
    </g>
    <g id="ytick_4">
     <g id="line2d_5">
      <g>
       <use style="stroke:#000000;stroke-width:0.8;" x="110.1375" xlink:href="#maad80ea84b" y="58.876364"/>
      </g>
     </g>
     <g id="text_5">
      <!-- 1.0 -->
      <g transform="translate(69.900625 67.234645)scale(0.22 -0.22)">
       <use xlink:href="#DejaVuSans-31"/>
       <use x="63.623047" xlink:href="#DejaVuSans-2e"/>
       <use x="95.410156" xlink:href="#DejaVuSans-30"/>
      </g>
     </g>
    </g>
   </g>
   <g id="line2d_6">
    <path clip-path="url(#pa91867acc8)" d="M 577 64.049867 
L 568.715063 65.499156 
L 560.730937 67.120603 
L 553.086562 68.89804 
L 545.697 70.843119 
L 538.56225 72.949889 
L 531.682312 75.210799 
L 524.97225 77.649027 
L 518.432063 80.263059 
L 512.06175 83.050342 
L 505.861312 86.007235 
L 499.83075 89.128958 
L 493.885125 92.458961 
L 488.109375 95.948204 
L 482.418562 99.645744 
L 476.812687 103.554359 
L 471.29175 107.676264 
L 465.85575 112.013049 
L 460.504687 116.565617 
L 455.153625 121.413448 
L 449.8875 126.486354 
L 444.621375 131.872629 
L 439.440187 137.491225 
L 434.259 143.439569 
L 429.077812 149.730549 
L 423.896625 156.37668 
L 418.715437 163.389883 
L 413.53425 170.781208 
L 408.353062 178.56051 
L 403.086937 186.873407 
L 397.820812 195.602085 
L 392.46975 204.901149 
L 386.948812 214.94922 
L 381.342937 225.617878 
L 375.48225 237.259505 
L 369.36675 249.911953 
L 362.826562 263.96331 
L 355.437 280.387072 
L 345.924 302.118502 
L 330.550312 337.266723 
L 324.774562 349.871166 
L 320.187937 359.37351 
L 316.280812 366.978716 
L 312.883312 373.12898 
L 309.825562 378.220771 
L 307.107562 382.335944 
L 304.644375 385.685307 
L 302.351062 388.440685 
L 300.227625 390.647801 
L 298.274062 392.359539 
L 296.490375 393.634237 
L 294.791625 394.574202 
L 293.26275 395.177061 
L 291.818812 395.522835 
L 290.374875 395.639998 
L 289.015875 395.531209 
L 287.656875 395.200101 
L 286.297875 394.636835 
L 284.938875 393.831445 
L 283.579875 392.773874 
L 282.135938 391.362564 
L 280.692 389.642962 
L 279.163125 387.472668 
L 277.549312 384.776222 
L 275.9355 381.646919 
L 274.23675 377.867461 
L 272.453062 373.34353 
L 270.584437 367.972361 
L 268.630875 361.643031 
L 266.592375 354.237231 
L 264.468937 345.630714 
L 262.260562 335.695682 
L 259.96725 324.304479 
L 257.589 311.335012 
L 255.040875 296.151337 
L 252.322875 278.539459 
L 249.435 258.33476 
L 246.207375 234.157893 
L 242.215312 202.481368 
L 232.022812 120.668124 
L 229.474687 102.52185 
L 227.436187 89.520026 
L 225.737437 80.012424 
L 224.2935 73.067939 
L 223.019437 67.93607 
L 221.91525 64.329666 
L 220.980937 61.943087 
L 220.131562 60.340599 
L 219.452062 59.469696 
L 218.8575 59.021212 
L 218.347875 58.878214 
L 217.83825 58.965029 
L 217.328625 59.288126 
L 216.734062 59.97212 
L 216.054562 61.170588 
L 215.290125 63.066756 
L 214.44075 65.875633 
L 213.506437 69.845558 
L 212.487187 75.258548 
L 211.383 82.428639 
L 210.193875 91.697019 
L 208.919812 103.422331 
L 207.475875 118.941548 
L 205.947 137.883183 
L 204.24825 161.763649 
L 202.294687 192.455771 
L 199.746562 236.328731 
L 194.225625 332.641422 
L 192.611812 356.377934 
L 191.33775 372.084021 
L 190.3185 382.193326 
L 189.469125 388.660159 
L 188.789625 392.401677 
L 188.195062 394.543561 
L 187.770375 395.388568 
L 187.430625 395.636373 
L 187.175813 395.565321 
L 186.921 395.269248 
L 186.58125 394.517406 
L 186.156562 392.991144 
L 185.646937 390.27888 
L 185.052375 385.871683 
L 184.372875 379.163524 
L 183.608437 369.460785 
L 182.674125 354.509443 
L 181.654875 334.424672 
L 180.46575 306.365703 
L 179.021812 266.614425 
L 176.898375 201.051172 
L 174.435187 126.206474 
L 173.246062 96.140475 
L 172.31175 77.59182 
L 171.547312 66.693691 
L 170.95275 61.323222 
L 170.528062 59.318324 
L 170.27325 58.890315 
L 170.103375 58.938369 
L 169.9335 59.258434 
L 169.678687 60.257485 
L 169.338937 62.576799 
L 168.91425 67.093682 
L 168.404625 74.921089 
L 167.725125 89.446803 
L 166.960687 111.222148 
L 166.026375 144.999987 
L 164.83725 197.11071 
L 161.354812 356.583202 
L 160.590375 379.332413 
L 159.995812 390.693655 
L 159.571125 394.854507 
L 159.316312 395.635134 
L 159.231375 395.598215 
L 159.0615 395.069359 
L 158.806687 393.119353 
L 158.466937 388.320528 
L 158.04225 378.749665 
L 157.532625 362.076074 
L 156.853125 331.522088 
L 156.00375 281.986361 
L 154.389937 170.422622 
L 153.28575 102.382705 
L 152.60625 73.534801 
L 152.181562 62.873733 
L 151.841812 59.119569 
L 151.756875 58.888872 
L 151.671937 58.949852 
L 151.502062 59.960315 
L 151.24725 63.734792 
L 150.9075 73.032482 
L 150.482812 91.427507 
L 149.88825 128.925989 
L 149.123812 193.037853 
L 147.255187 358.330136 
L 146.745562 384.840925 
L 146.405812 393.927518 
L 146.235937 395.5509 
L 146.151 395.595617 
L 145.981125 394.113891 
L 145.726312 387.898796 
L 145.386562 372.159775 
L 144.961875 341.106181 
L 144.367312 280.040899 
L 142.583625 81.597867 
L 142.243875 64.049102 
L 141.989062 58.990805 
L 141.904125 58.976158 
L 141.73425 61.542288 
L 141.479437 71.954894 
L 141.139687 97.79428 
L 140.630062 158.724727 
L 139.01625 380.074385 
L 138.6765 395.05719 
L 138.591562 395.637345 
L 138.506625 394.880915 
L 138.33675 389.296995 
L 138.081937 370.807233 
L 137.742187 328.717094 
L 137.147625 222.104088 
L 136.383187 90.634196 
L 136.043437 62.22736 
L 135.873562 58.8995 
L 135.788625 60.208249 
L 135.61875 68.890102 
L 135.363937 96.68033 
L 134.93925 175.740526 
L 133.92 381.412926 
L 133.665187 395.577567 
L 133.58025 394.737738 
L 133.410375 384.364509 
L 133.155562 347.900328 
L 132.730875 244.92705 
L 132.051375 80.321818 
L 131.796562 59.123825 
L 131.711625 59.720441 
L 131.54175 73.008868 
L 131.286937 121.372761 
L 130.18275 395.514448 
L 130.097812 393.952589 
L 129.927937 374.462179 
L 129.673125 308.580503 
L 128.908688 66.608544 
L 128.82375 59.69334 
L 128.738812 59.875774 
L 128.568937 81.964888 
L 128.314125 162.476248 
L 127.719562 383.282081 
L 127.549687 395.020573 
L 127.379812 369.345406 
L 127.125 271.437337 
L 126.615375 65.901897 
L 126.530437 58.920155 
L 126.4455 63.988952 
L 126.275625 109.379045 
L 125.596125 395.549341 
L 125.511188 389.506067 
L 125.341312 333.494623 
L 124.74675 58.910278 
L 124.661813 69.674211 
L 124.491937 143.788076 
L 124.06725 388.826578 
L 123.982312 394.978993 
L 123.812438 338.293133 
L 123.302812 59.95938 
L 123.132937 130.250757 
L 122.70825 395.594196 
L 122.623312 376.3805 
L 122.3685 172.789849 
L 122.198625 64.679393 
L 122.113687 63.549688 
L 121.943812 175.221219 
L 121.689 388.217905 
L 121.604062 390.544192 
L 121.434187 262.400828 
L 121.179375 59.05404 
L 121.094437 83.740231 
L 120.754687 394.61096 
L 120.66975 372.150513 
L 120.33 59.430184 
L 120.160125 214.265477 
L 119.99025 392.707582 
L 119.905312 369.67639 
L 119.6505 64.097472 
L 119.565562 84.123741 
L 119.31075 395.040766 
L 119.225812 346.849282 
L 118.971 68.251622 
L 118.716188 395.431813 
L 118.461375 59.188976 
L 118.376437 135.012739 
L 118.206562 395.606982 
L 117.95175 66.938809 
L 117.781875 381.318055 
L 117.696937 340.520301 
L 117.527062 65.17573 
L 117.357187 393.417206 
L 117.187312 77.087761 
L 117.102375 136.267262 
L 117.017437 362.705698 
L 116.9325 330.988194 
L 116.847562 93.439106 
L 116.762625 132.158949 
L 116.677687 374.542949 
L 116.59275 287.824765 
L 116.507812 61.729628 
L 116.337937 386.716351 
L 116.253 124.178535 
L 116.168062 142.630152 
L 116.083125 395.027462 
L 115.91325 132.734954 
L 115.828312 395.57362 
L 115.743375 116.393928 
L 115.5735 351.470658 
L 115.488562 59.411267 
L 115.403625 374.889755 
L 115.318687 136.166088 
L 115.23375 254.459424 
L 115.148812 253.166117 
L 115.063875 165.772163 
L 114.978937 306.59098 
L 114.894 146.627308 
L 114.809062 291.927301 
L 114.639187 196.502424 
L 114.55425 331.892244 
L 114.469313 65.026615 
L 114.384375 374.305569 
L 114.2145 86.651451 
L 114.129562 355.122138 
L 114.044625 325.287242 
L 113.87475 78.907068 
L 113.619937 380.381018 
L 113.535 390.677454 
L 113.450062 384.217426 
L 113.365125 340.283763 
L 113.19525 64.24391 
L 113.025375 383.707369 
L 112.940437 60.3721 
L 112.8555 394.981487 
L 112.770562 85.261432 
L 112.685625 173.570255 
L 112.51575 368.828695 
L 112.430812 283.024283 
L 112.345875 63.299547 
L 112.260937 370.537531 
L 112.091062 67.851625 
L 112.006125 86.905623 
L 111.921187 390.846236 
L 111.83625 306.022449 
L 111.751312 394.815186 
L 111.666375 145.595803 
L 111.581437 342.950615 
L 111.411562 125.486658 
L 111.326625 380.548256 
L 111.241687 152.59127 
L 111.071812 382.337343 
L 110.986875 88.026701 
L 110.901937 370.089501 
L 110.817 285.608603 
L 110.647125 59.101903 
L 110.562187 70.656439 
L 110.47725 336.727836 
L 110.392312 244.659271 
L 110.307375 393.613767 
L 110.222437 278.718088 
L 110.222437 278.718088 
" style="fill:none;stroke:#0000ff;stroke-linecap:square;stroke-width:1.5;"/>
   </g>
   <g id="line2d_7">
    <path clip-path="url(#pa91867acc8)" d="M 175.284562 150.784411 
L 173.755687 108.269759 
L 172.736437 85.374457 
L 171.887062 71.013717 
L 171.2925 64.039455 
L 170.782875 60.331546 
L 170.443125 59.109777 
L 170.188312 58.880613 
L 170.018438 59.064133 
L 169.763625 59.854643 
L 169.423875 61.890029 
L 168.999187 66.045094 
L 168.489562 73.43338 
L 167.895 85.380759 
L 167.130562 105.902828 
L 166.281187 135.069634 
L 165.177 181.394535 
L 163.308375 271.599013 
L 161.7795 340.72202 
L 160.930125 370.245911 
L 160.250625 386.57594 
L 159.825938 392.774745 
L 159.486187 395.261581 
L 159.316312 395.635134 
L 159.231375 395.598215 
L 159.0615 395.069359 
L 158.806687 393.119353 
L 158.466937 388.320528 
L 158.04225 378.749665 
L 157.532625 362.076074 
L 156.853125 331.522088 
L 156.00375 281.986361 
L 154.389937 170.422622 
L 154.135125 153.190639 
L 154.135125 153.190639 
" style="fill:none;stroke:#ff0000;stroke-linecap:square;stroke-width:1.5;"/>
   </g>
   <g id="line2d_8">
    <defs>
     <path d="M 0 3 
C 0.795609 3 1.55874 2.683901 2.12132 2.12132 
C 2.683901 1.55874 3 0.795609 3 0 
C 3 -0.795609 2.683901 -1.55874 2.12132 -2.12132 
C 1.55874 -2.683901 0.795609 -3 0 -3 
C -0.795609 -3 -1.55874 -2.683901 -2.12132 -2.12132 
C -2.683901 -1.55874 -3 -0.795609 -3 0 
C -3 0.795609 -2.683901 1.55874 -2.12132 2.12132 
C -1.55874 2.683901 -0.795609 3 0 3 
z
" id="m8479ef249f" style="stroke:#000000;"/>
    </defs>
    <g clip-path="url(#pa91867acc8)">
     <use style="stroke:#000000;" x="175.284562" xlink:href="#m8479ef249f" y="150.784411"/>
    </g>
   </g>
   <g id="line2d_9">
    <path clip-path="url(#pa91867acc8)" d="M 448.953187 127.418723 
L 443.772 132.77166 
L 438.590812 138.443419 
L 433.409625 144.447058 
L 428.228437 150.795415 
L 423.04725 157.500924 
L 417.866062 164.575384 
L 412.684875 172.029675 
L 407.503687 179.873416 
L 406.654312 181.197005 
L 406.654312 181.197005 
" style="fill:none;stroke:#008000;stroke-linecap:square;stroke-width:1.5;"/>
   </g>
   <g id="line2d_10">
    <g clip-path="url(#pa91867acc8)">
     <use style="stroke:#000000;" x="427.80375" xlink:href="#m8479ef249f" y="151.331444"/>
    </g>
   </g>
   <g id="patch_7">
    <path d="M 110.1375 395.64 
L 110.1375 25.2 
" style="fill:none;stroke:#000000;stroke-linecap:square;stroke-linejoin:miter;stroke-width:0.8;"/>
   </g>
   <g id="patch_8">
    <path d="M 25.2 227.258182 
L 534.825 227.258182 
" style="fill:none;stroke:#000000;stroke-linecap:square;stroke-linejoin:miter;stroke-width:0.8;"/>
   </g>
   <g id="legend_1">
    <g id="patch_9">
     <path d="M 411.945 61.485 
L 523.625 61.485 
Q 526.825 61.485 526.825 58.285 
L 526.825 36.4 
Q 526.825 33.2 523.625 33.2 
L 411.945 33.2 
Q 408.745 33.2 408.745 36.4 
L 408.745 58.285 
Q 408.745 61.485 411.945 61.485 
z
" style="fill:#ffffff;opacity:0.8;stroke:#cccccc;stroke-linejoin:miter;"/>
    </g>
    <g id="line2d_11">
     <path d="M 415.145 46.1575 
L 447.145 46.1575 
" style="fill:none;stroke:#0000ff;stroke-linecap:square;stroke-width:1.5;"/>
    </g>
    <g id="line2d_12"/>
    <g id="text_6">
     <!-- $\sin(1/x)$ -->
     <defs>
      <path d="M 44.28125 53.078125 
L 44.28125 44.578125 
Q 40.484375 46.53125 36.375 47.5 
Q 32.28125 48.484375 27.875 48.484375 
Q 21.1875 48.484375 17.84375 46.4375 
Q 14.5 44.390625 14.5 40.28125 
Q 14.5 37.15625 16.890625 35.375 
Q 19.28125 33.59375 26.515625 31.984375 
L 29.59375 31.296875 
Q 39.15625 29.25 43.1875 25.515625 
Q 47.21875 21.78125 47.21875 15.09375 
Q 47.21875 7.46875 41.1875 3.015625 
Q 35.15625 -1.421875 24.609375 -1.421875 
Q 20.21875 -1.421875 15.453125 -0.5625 
Q 10.6875 0.296875 5.421875 2 
L 5.421875 11.28125 
Q 10.40625 8.6875 15.234375 7.390625 
Q 20.0625 6.109375 24.8125 6.109375 
Q 31.15625 6.109375 34.5625 8.28125 
Q 37.984375 10.453125 37.984375 14.40625 
Q 37.984375 18.0625 35.515625 20.015625 
Q 33.0625 21.96875 24.703125 23.78125 
L 21.578125 24.515625 
Q 13.234375 26.265625 9.515625 29.90625 
Q 5.8125 33.546875 5.8125 39.890625 
Q 5.8125 47.609375 11.28125 51.796875 
Q 16.75 56 26.8125 56 
Q 31.78125 56 36.171875 55.265625 
Q 40.578125 54.546875 44.28125 53.078125 
" id="DejaVuSans-73"/>
      <path d="M 9.421875 54.6875 
L 18.40625 54.6875 
L 18.40625 0 
L 9.421875 0 
z
M 9.421875 75.984375 
L 18.40625 75.984375 
L 18.40625 64.59375 
L 9.421875 64.59375 
z
" id="DejaVuSans-69"/>
      <path d="M 54.890625 33.015625 
L 54.890625 0 
L 45.90625 0 
L 45.90625 32.71875 
Q 45.90625 40.484375 42.875 44.328125 
Q 39.84375 48.1875 33.796875 48.1875 
Q 26.515625 48.1875 22.3125 43.546875 
Q 18.109375 38.921875 18.109375 30.90625 
L 18.109375 0 
L 9.078125 0 
L 9.078125 54.6875 
L 18.109375 54.6875 
L 18.109375 46.1875 
Q 21.34375 51.125 25.703125 53.5625 
Q 30.078125 56 35.796875 56 
Q 45.21875 56 50.046875 50.171875 
Q 54.890625 44.34375 54.890625 33.015625 
" id="DejaVuSans-6e"/>
      <path d="M 31 75.875 
Q 24.46875 64.65625 21.28125 53.65625 
Q 18.109375 42.671875 18.109375 31.390625 
Q 18.109375 20.125 21.3125 9.0625 
Q 24.515625 -2 31 -13.1875 
L 23.1875 -13.1875 
Q 15.875 -1.703125 12.234375 9.375 
Q 8.59375 20.453125 8.59375 31.390625 
Q 8.59375 42.28125 12.203125 53.3125 
Q 15.828125 64.359375 23.1875 75.875 
z
" id="DejaVuSans-28"/>
      <path d="M 25.390625 72.90625 
L 33.6875 72.90625 
L 8.296875 -9.28125 
L 0 -9.28125 
z
" id="DejaVuSans-2f"/>
      <path d="M 60.015625 54.6875 
L 34.90625 27.875 
L 50.296875 0 
L 39.984375 0 
L 28.421875 21.6875 
L 8.296875 0 
L -2.59375 0 
L 24.3125 28.8125 
L 10.015625 54.6875 
L 20.3125 54.6875 
L 30.8125 34.90625 
L 49.125 54.6875 
z
" id="DejaVuSans-Oblique-78"/>
      <path d="M 8.015625 75.875 
L 15.828125 75.875 
Q 23.140625 64.359375 26.78125 53.3125 
Q 30.421875 42.28125 30.421875 31.390625 
Q 30.421875 20.453125 26.78125 9.375 
Q 23.140625 -1.703125 15.828125 -13.1875 
L 8.015625 -13.1875 
Q 14.5 -2 17.703125 9.0625 
Q 20.90625 20.125 20.90625 31.390625 
Q 20.90625 42.671875 17.703125 53.65625 
Q 14.5 64.65625 8.015625 75.875 
" id="DejaVuSans-29"/>
     </defs>
     <g transform="translate(459.945 51.7575)scale(0.16 -0.16)">
      <use transform="translate(0 0.015625)" xlink:href="#DejaVuSans-73"/>
      <use transform="translate(52.099609 0.015625)" xlink:href="#DejaVuSans-69"/>
      <use transform="translate(79.882812 0.015625)" xlink:href="#DejaVuSans-6e"/>
      <use transform="translate(143.261719 0.015625)" xlink:href="#DejaVuSans-28"/>
      <use transform="translate(182.275391 0.015625)" xlink:href="#DejaVuSans-31"/>
      <use transform="translate(245.898438 0.015625)" xlink:href="#DejaVuSans-2f"/>
      <use transform="translate(279.589844 0.015625)" xlink:href="#DejaVuSans-Oblique-78"/>
      <use transform="translate(338.769531 0.015625)" xlink:href="#DejaVuSans-29"/>
     </g>
    </g>
   </g>
  </g>
 </g>
 <defs>
  <clipPath id="pa91867acc8">
   <rect height="370.44" width="509.625" x="25.2" y="25.2"/>
  </clipPath>
 </defs>
</svg>
