<?xml version="1.0" encoding="utf-8"?>
<!DOCTYPE svg PUBLIC "-//W3C//DTD SVG 1.1//EN" "http://www.w3.org/Graphics/SVG/1.1/DTD/svg11.dtd">
<svg version="1.1" id="Ebene_1" xmlns="http://www.w3.org/2000/svg" xmlns:xlink="http://www.w3.org/1999/xlink" x="0" y="0" width="1000" height="58" viewBox="0 0 1000 58">
<title>Simple number line</title>
<path fill="none" stroke="#000000" stroke-width="2" d="M500,32.633v-30 M625,27.633v-20 M750,27.633v-20 M875,27.633v-20
	 M375,27.633v-20 M250,27.633v-20 M125,27.633v-20"/>
<path fill="none" stroke="#000000" d="M990,17.633H10 M525,22.633v-10 M550,22.633v-10 M575,22.633v-10 M600,22.633v-10 M650,22.633
	v-10 M675,22.633v-10 M700,22.633v-10 M725,22.633v-10 M775,22.633v-10 M800,22.633v-10 M825,22.633v-10 M850,22.633v-10
	 M900,22.633v-10 M925,22.633v-10 M950,22.633v-10 M475,22.633v-10 M450,22.633v-10 M425,22.633v-10 M400,22.633v-10 M350,22.633
	v-10 M325,22.633v-10 M300,22.633v-10 M275,22.633v-10 M225,22.633v-10 M200,22.633v-10 M175,22.633v-10 M150,22.633v-10
	 M100,22.633v-10 M75,22.633v-10 M50,22.633v-10"/>
<polygon points="980,15.133 980,20.133 995,17.633 "/>
<path d="M499.861,55.367c-1.829,0-3.188-0.719-4.082-2.158c-0.893-1.438-1.339-3.621-1.339-6.551c0-1.557,0.138-2.902,0.413-4.037
	s0.66-2.07,1.155-2.813c0.495-0.74,1.09-1.287,1.784-1.644c0.693-0.356,1.451-0.533,2.272-0.533c1.854,0,3.232,0.716,4.139,2.146
	c0.907,1.43,1.357,3.594,1.357,6.488c0,2.996-0.484,5.262-1.453,6.799C503.139,54.6,501.723,55.367,499.861,55.367z M496.916,46.277
	c0,2.76,0.257,4.785,0.769,6.076c0.512,1.289,1.306,1.936,2.381,1.936c1.023,0,1.783-0.607,2.279-1.822
	c0.494-1.215,0.742-3.096,0.742-5.643c0-1.947-0.128-3.523-0.382-4.73c-0.254-1.205-0.606-2.07-1.061-2.596s-1-0.787-1.646-0.787
	c-0.584,0-1.071,0.174-1.466,0.521c-0.394,0.346-0.711,0.846-0.952,1.498c-0.24,0.649-0.412,1.444-0.514,2.379
	C496.967,44.045,496.916,45.102,496.916,46.277z M620.943,52.871v-2.07h1.182c0.195,0.664,0.49,1.152,0.886,1.465
	c0.393,0.313,0.901,0.469,1.526,0.469c0.867,0,1.521-0.26,1.963-0.78c0.443-0.521,0.664-1.3,0.664-2.334
	c0-0.688-0.116-1.263-0.352-1.713c-0.234-0.453-0.549-0.781-0.947-0.982c-0.396-0.2-0.858-0.303-1.387-0.303
	c-0.441,0-0.822,0.026-1.143,0.084c-0.318,0.056-0.66,0.142-1.025,0.258l-0.781-0.459v-6.426h5.381c0.224,0,0.381-0.019,0.479-0.054
	c0.098-0.037,0.176-0.092,0.233-0.166c0.06-0.075,0.127-0.217,0.205-0.426h0.763l-0.146,2.267h-5.615v4.286
	c0.341-0.143,0.707-0.25,1.104-0.321s0.795-0.106,1.19-0.106c0.775,0,1.464,0.157,2.062,0.475c0.6,0.314,1.063,0.764,1.387,1.348
	c0.326,0.582,0.488,1.258,0.488,2.025c0,0.873-0.182,1.621-0.547,2.246c-0.363,0.625-0.892,1.102-1.582,1.426
	c-0.689,0.326-1.506,0.488-2.451,0.488C623.354,53.564,622.175,53.334,620.943,52.871z M745.475,50.615
	c0,0.377,0.021,0.662,0.063,0.855c0.041,0.19,0.117,0.348,0.226,0.469c0.106,0.119,0.262,0.215,0.463,0.283
	c0.203,0.067,0.457,0.118,0.762,0.155c0.308,0.035,0.711,0.06,1.211,0.072v0.713h-7.217V52.45c0.724-0.033,1.238-0.076,1.549-0.132
	c0.31-0.057,0.545-0.139,0.707-0.25c0.164-0.11,0.281-0.268,0.357-0.469c0.074-0.201,0.11-0.531,0.11-0.986v-7.92
	c0-0.26-0.045-0.45-0.137-0.569c-0.09-0.121-0.225-0.183-0.399-0.183c-0.207,0-0.505,0.107-0.89,0.322
	c-0.383,0.215-0.858,0.512-1.426,0.889l-0.43-0.752l4.569-2.725h0.537c-0.039,0.625-0.059,1.49-0.059,2.598v8.342H745.475z
	 M755.191,53.32c-1.406,0-2.453-0.553-3.139-1.66c-0.688-1.107-1.031-2.787-1.031-5.039c0-1.197,0.105-2.232,0.318-3.105
	c0.211-0.873,0.508-1.594,0.889-2.162c0.381-0.569,0.838-0.992,1.371-1.266c0.535-0.273,1.117-0.41,1.748-0.41
	c1.426,0,2.487,0.551,3.184,1.65c0.697,1.1,1.045,2.764,1.045,4.99c0,2.305-0.373,4.049-1.117,5.229
	C757.714,52.73,756.625,53.32,755.191,53.32z M752.927,46.328c0,2.123,0.196,3.68,0.592,4.674c0.393,0.992,1.004,1.488,1.83,1.488
	c0.789,0,1.373-0.467,1.754-1.4c0.381-0.936,0.57-2.383,0.57-4.342c0-1.498-0.099-2.709-0.293-3.637
	c-0.195-0.928-0.468-1.594-0.814-1.998c-0.35-0.404-0.77-0.605-1.266-0.605c-0.449,0-0.824,0.133-1.127,0.4
	c-0.304,0.267-0.548,0.65-0.732,1.152s-0.318,1.11-0.396,1.832C752.966,44.611,752.927,45.424,752.927,46.328z M870.593,50.859
	c0,0.377,0.021,0.662,0.063,0.854c0.043,0.19,0.117,0.349,0.226,0.47c0.106,0.119,0.262,0.215,0.465,0.282
	c0.201,0.068,0.455,0.119,0.762,0.156c0.305,0.035,0.709,0.062,1.211,0.071v0.714H866.1v-0.714c0.723-0.03,1.238-0.075,1.547-0.131
	c0.311-0.057,0.545-0.139,0.709-0.25c0.162-0.108,0.281-0.266,0.354-0.469c0.076-0.201,0.113-0.531,0.113-0.986v-7.92
	c0-0.26-0.047-0.451-0.137-0.569c-0.092-0.121-0.225-0.183-0.4-0.183c-0.209,0-0.506,0.107-0.889,0.322
	c-0.385,0.215-0.859,0.512-1.426,0.889l-0.431-0.752l4.57-2.725h0.537c-0.039,0.625-0.06,1.49-0.06,2.598v8.342H870.593z
	 M876.344,52.871v-2.07h1.182c0.195,0.664,0.49,1.152,0.883,1.465c0.396,0.313,0.904,0.469,1.529,0.469
	c0.865,0,1.521-0.26,1.963-0.78c0.441-0.521,0.664-1.3,0.664-2.334c0-0.688-0.117-1.263-0.352-1.713
	c-0.234-0.453-0.552-0.781-0.947-0.982c-0.398-0.2-0.859-0.303-1.387-0.303c-0.443,0-0.824,0.026-1.144,0.084
	c-0.32,0.056-0.662,0.142-1.025,0.258l-0.78-0.459v-6.426h5.381c0.221,0,0.381-0.019,0.479-0.054
	c0.099-0.037,0.177-0.092,0.234-0.166c0.059-0.075,0.127-0.217,0.205-0.426h0.762l-0.146,2.267h-5.615v4.286
	c0.338-0.143,0.705-0.25,1.104-0.321c0.396-0.071,0.794-0.106,1.191-0.106c0.773,0,1.461,0.157,2.061,0.475
	c0.599,0.314,1.062,0.764,1.388,1.348c0.324,0.582,0.487,1.258,0.487,2.025c0,0.873-0.184,1.621-0.547,2.246
	c-0.364,0.625-0.893,1.102-1.582,1.426c-0.69,0.326-1.508,0.488-2.45,0.488C878.753,53.564,877.574,53.334,876.344,52.871z
	 M363.467,48.34v-1.299h12.031v1.299H363.467z M378.418,52.871v-2.07h1.183c0.194,0.664,0.489,1.152,0.884,1.465
	c0.394,0.313,0.903,0.469,1.528,0.469c0.865,0,1.52-0.26,1.963-0.78c0.442-0.521,0.664-1.3,0.664-2.334
	c0-0.688-0.117-1.263-0.353-1.713c-0.233-0.453-0.55-0.781-0.947-0.982c-0.396-0.2-0.858-0.303-1.387-0.303
	c-0.442,0-0.824,0.026-1.143,0.084c-0.319,0.056-0.661,0.142-1.025,0.258l-0.781-0.459v-6.426h5.382
	c0.221,0,0.381-0.019,0.479-0.054c0.098-0.037,0.176-0.092,0.234-0.166c0.059-0.075,0.127-0.217,0.205-0.426h0.762l-0.146,2.267
	h-5.614v4.286c0.338-0.143,0.707-0.25,1.104-0.321c0.397-0.071,0.794-0.106,1.191-0.106c0.774,0,1.461,0.157,2.061,0.475
	c0.6,0.314,1.062,0.764,1.387,1.348c0.326,0.582,0.488,1.258,0.488,2.025c0,0.873-0.182,1.621-0.547,2.246s-0.892,1.102-1.582,1.426
	c-0.689,0.326-1.507,0.488-2.451,0.488C380.827,53.564,379.648,53.334,378.418,52.871z M232.813,48.096v-1.299h12.031v1.299H232.813
	z M253.086,50.615c0,0.379,0.021,0.662,0.063,0.855c0.042,0.19,0.117,0.348,0.225,0.469c0.107,0.119,0.263,0.215,0.464,0.283
	c0.202,0.067,0.456,0.118,0.763,0.155c0.306,0.035,0.709,0.062,1.211,0.072v0.713h-7.217V52.45c0.723-0.031,1.238-0.076,1.548-0.132
	c0.309-0.057,0.545-0.139,0.708-0.25c0.163-0.108,0.281-0.266,0.355-0.469c0.075-0.201,0.112-0.529,0.112-0.986v-7.92
	c0-0.26-0.045-0.45-0.137-0.569c-0.092-0.121-0.226-0.183-0.4-0.183c-0.208,0-0.504,0.107-0.889,0.322
	c-0.386,0.215-0.859,0.512-1.427,0.889l-0.43-0.752l4.57-2.725h0.537c-0.039,0.625-0.06,1.49-0.06,2.598v8.342H253.086z
	 M262.803,53.32c-1.406,0-2.453-0.553-3.141-1.66c-0.687-1.105-1.03-2.787-1.03-5.039c0-1.197,0.106-2.232,0.317-3.105
	s0.508-1.594,0.889-2.162c0.382-0.569,0.839-0.992,1.372-1.266c0.534-0.273,1.117-0.41,1.748-0.41c1.426,0,2.487,0.551,3.185,1.65
	c0.696,1.1,1.045,2.764,1.045,4.99c0,2.305-0.373,4.049-1.118,5.229S264.235,53.32,262.803,53.32z M260.537,46.328
	c0,2.123,0.197,3.68,0.591,4.674c0.395,0.992,1.004,1.488,1.831,1.488c0.788,0,1.372-0.467,1.753-1.4
	c0.381-0.936,0.571-2.383,0.571-4.342c0-1.498-0.098-2.709-0.293-3.637s-0.467-1.594-0.815-1.998
	c-0.348-0.404-0.77-0.605-1.265-0.605c-0.449,0-0.825,0.133-1.128,0.4c-0.303,0.267-0.547,0.65-0.732,1.152
	c-0.185,0.502-0.316,1.11-0.396,1.832C260.576,44.611,260.537,45.424,260.537,46.328z M107.93,48.34v-1.299h12.03v1.299H107.93z
	 M128.203,50.859c0,0.377,0.021,0.662,0.063,0.854c0.042,0.19,0.116,0.349,0.225,0.47c0.107,0.119,0.262,0.215,0.464,0.282
	c0.202,0.068,0.456,0.119,0.762,0.156c0.307,0.035,0.709,0.062,1.212,0.071v0.714h-7.218v-0.714c0.724-0.03,1.239-0.075,1.548-0.131
	c0.31-0.057,0.546-0.139,0.708-0.25c0.163-0.108,0.282-0.268,0.356-0.469s0.112-0.531,0.112-0.986v-7.92
	c0-0.26-0.045-0.451-0.138-0.569c-0.091-0.121-0.225-0.183-0.399-0.183c-0.208,0-0.504,0.107-0.89,0.322
	c-0.385,0.215-0.858,0.512-1.426,0.889l-0.43-0.752l4.57-2.725h0.536c-0.038,0.625-0.059,1.49-0.059,2.598v8.342H128.203z
	 M133.955,52.871v-2.07h1.183c0.194,0.664,0.489,1.152,0.884,1.465c0.394,0.313,0.902,0.469,1.527,0.469
	c0.866,0,1.521-0.26,1.964-0.78c0.442-0.521,0.663-1.3,0.663-2.334c0-0.688-0.116-1.263-0.352-1.713
	c-0.234-0.453-0.55-0.781-0.947-0.982c-0.396-0.2-0.858-0.303-1.387-0.303c-0.443,0-0.824,0.026-1.143,0.084
	c-0.319,0.056-0.661,0.142-1.025,0.258l-0.781-0.459v-6.426h5.381c0.222,0,0.382-0.019,0.479-0.054
	c0.098-0.037,0.176-0.092,0.233-0.166c0.06-0.075,0.128-0.217,0.205-0.426h0.763l-0.146,2.267h-5.615v4.286
	c0.339-0.143,0.707-0.25,1.104-0.321c0.396-0.071,0.794-0.106,1.191-0.106c0.774,0,1.461,0.157,2.061,0.475
	c0.599,0.314,1.061,0.764,1.387,1.348c0.326,0.582,0.488,1.258,0.488,2.025c0,0.873-0.182,1.621-0.547,2.246
	s-0.893,1.102-1.582,1.426c-0.69,0.326-1.507,0.488-2.451,0.488C136.364,53.564,135.186,53.334,133.955,52.871z"/>
</svg>