<?xml version='1.0' encoding='UTF-8'?>
<!DOCTYPE svg PUBLIC "-//W3C//DTD SVG 1.1//EN" "http://www.w3.org/Graphics/SVG/1.1/DTD/svg11.dtd">
<!-- Created with matplotlib (http://matplotlib.org/) -->
<svg xmlns="http://www.w3.org/2000/svg" xmlns:xlink="http://www.w3.org/1999/xlink" height="400px" version="1.1" viewBox="0 0 600 400" width="600px">
  <title>mplwp_xsquared.svg</title>
  <desc>http://commons.wikimedia.org/wiki/File:mplwp_xsquared.svg
Plot created with mplwp, the Matplotlib extension for Wikipedia plots.</desc>
  <defs>
    <style type="text/css">
*{stroke-linecap:square;stroke-linejoin:round;}
  </style>
  </defs>
  <defs>
    <clipPath id="pa82c4e93f3">
      <rect height="355.0" width="515.0" x="42.5" y="18.5"/>
    </clipPath>
  </defs>
  <g id="figure_1">
    <g id="patch_1">
      <path d="M 0 400 L 600 400 L 600 0 L 0 0 z" style="fill:#ffffff;"/>
    </g>
    <g id="axes_1">
      <g id="patch_2">
        <path d="M 42.5 373.5 L 557.5 373.5 L 557.5 18.5 L 42.5 18.5 z" style="fill:#ffffff;"/>
      </g>
      <g id="line2d_1">
        <path clip-path="url(#pa82c4e93f3)" d="M 101.846 -1 L 108.626 20.209 L 115.321 40.4282 L 121.913 59.633 L 128.402 77.856 L 134.788 95.1294 L 141.071 111.485 L 147.251 126.954 L 153.328 141.567 L 159.302 155.354 L 165.173 168.345 L 170.941 180.569 L 176.606 192.054 L 182.168 202.829 L 187.627 212.921 L 192.983 222.358 L 198.236 231.166 L 203.386 239.371 L 208.433 246.998 L 213.377 254.073 L 218.218 260.62 L 222.956 266.664 L 227.694 272.346 L 232.329 277.557 L 236.861 282.318 L 241.29 286.652 L 245.616 290.581 L 249.942 294.209 L 254.165 297.462 L 258.285 300.358 L 262.405 302.983 L 266.422 305.279 L 270.336 307.267 L 274.25 309.008 L 278.164 310.504 L 281.975 311.724 L 285.786 312.711 L 289.597 313.464 L 293.305 313.973 L 297.013 314.262 L 300.721 314.329 L 304.429 314.176 L 308.137 313.802 L 311.845 313.207 L 315.553 312.391 L 319.364 311.322 L 323.175 310.02 L 326.986 308.485 L 330.9 306.665 L 334.814 304.6 L 338.831 302.224 L 342.848 299.589 L 346.968 296.617 L 351.088 293.373 L 355.311 289.764 L 359.637 285.771 L 364.066 281.371 L 368.495 276.656 L 373.027 271.505 L 377.662 265.896 L 382.4 259.805 L 387.241 253.21 L 392.082 246.238 L 397.026 238.73 L 402.073 230.66 L 407.223 222.004 L 412.476 212.735 L 417.832 202.829 L 423.291 192.258 L 428.853 180.995 L 434.518 169.013 L 440.286 156.284 L 446.157 142.778 L 452.131 128.467 L 458.208 113.321 L 464.388 97.3105 L 470.671 80.404 L 477.057 62.5707 L 483.546 43.7787 L 490.138 23.9959 L 496.833 3.18966 L 498.154 -1 L 498.154 -1" style="fill:none;stroke:#0000cc;stroke-width:2.4;"/>
      </g>
      <g id="matplotlib.axis_1">
        <g id="xtick_1">
          <g id="line2d_2">
            <path clip-path="url(#pa82c4e93f3)" d="M 42.5 373.5 L 42.5 18.5" style="fill:none;stroke:#000000;stroke-dasharray:1.000000,3.000000;stroke-dashoffset:0.0;stroke-linecap:butt;stroke-width:0.5;"/>
          </g>
          <g id="line2d_3">
            <defs>
              <path d="M 0 0 L 0 -4" id="ma222041d45" style="stroke:#000000;stroke-linecap:butt;stroke-width:1.25;"/>
            </defs>
            <g>
              <use style="stroke:#000000;stroke-linecap:butt;stroke-width:1.25;" x="42.5" xlink:href="#ma222041d45" y="373.5"/>
            </g>
          </g>
          <g id="line2d_4">
            <defs>
              <path d="M 0 0 L 0 4" id="mab2f347831" style="stroke:#000000;stroke-linecap:butt;stroke-width:1.25;"/>
            </defs>
            <g>
              <use style="stroke:#000000;stroke-linecap:butt;stroke-width:1.25;" x="42.5" xlink:href="#mab2f347831" y="18.5"/>
            </g>
          </g>
          <g id="text_1">
            <!-- −3 -->
            <defs>
              <path d="M 40.5781 39.3125 Q 47.6562 37.7969 51.625 33 Q 55.6094 28.2188 55.6094 21.1875 Q 55.6094 10.4062 48.1875 4.48438 Q 40.7656 -1.42188 27.0938 -1.42188 Q 22.5156 -1.42188 17.6562 -0.515625 Q 12.7969 0.390625 7.625 2.20312 L 7.625 11.7188 Q 11.7188 9.32812 16.5938 8.10938 Q 21.4844 6.89062 26.8125 6.89062 Q 36.0781 6.89062 40.9375 10.5469 Q 45.7969 14.2031 45.7969 21.1875 Q 45.7969 27.6406 41.2812 31.2656 Q 36.7656 34.9062 28.7188 34.9062 L 20.2188 34.9062 L 20.2188 43.0156 L 29.1094 43.0156 Q 36.375 43.0156 40.2344 45.9219 Q 44.0938 48.8281 44.0938 54.2969 Q 44.0938 59.9062 40.1094 62.9062 Q 36.1406 65.9219 28.7188 65.9219 Q 24.6562 65.9219 20.0156 65.0312 Q 15.375 64.1562 9.8125 62.3125 L 9.8125 71.0938 Q 15.4375 72.6562 20.3438 73.4375 Q 25.25 74.2188 29.5938 74.2188 Q 40.8281 74.2188 47.3594 69.1094 Q 53.9062 64.0156 53.9062 55.3281 Q 53.9062 49.2656 50.4375 45.0938 Q 46.9688 40.9219 40.5781 39.3125" id="DejaVuSans-33"/>
              <path d="M 10.5938 35.5 L 73.1875 35.5 L 73.1875 27.2031 L 10.5938 27.2031 z" id="DejaVuSans-2212"/>
            </defs>
            <g transform="translate(32.195 392.375)scale(0.16 -0.16)">
              <use xlink:href="#DejaVuSans-2212"/>
              <use x="83.7890625" xlink:href="#DejaVuSans-33"/>
            </g>
          </g>
        </g>
        <g id="xtick_2">
          <g id="line2d_5">
            <path clip-path="url(#pa82c4e93f3)" d="M 128.333 373.5 L 128.333 18.5" style="fill:none;stroke:#000000;stroke-dasharray:1.000000,3.000000;stroke-dashoffset:0.0;stroke-linecap:butt;stroke-width:0.5;"/>
          </g>
          <g id="line2d_6">
            <g>
              <use style="stroke:#000000;stroke-linecap:butt;stroke-width:1.25;" x="128.333333333" xlink:href="#ma222041d45" y="373.5"/>
            </g>
          </g>
          <g id="line2d_7">
            <g>
              <use style="stroke:#000000;stroke-linecap:butt;stroke-width:1.25;" x="128.333333333" xlink:href="#mab2f347831" y="18.5"/>
            </g>
          </g>
          <g id="text_2">
            <!-- −2 -->
            <defs>
              <path d="M 19.1875 8.29688 L 53.6094 8.29688 L 53.6094 0 L 7.32812 0 L 7.32812 8.29688 Q 12.9375 14.1094 22.625 23.8906 Q 32.3281 33.6875 34.8125 36.5312 Q 39.5469 41.8438 41.4219 45.5312 Q 43.3125 49.2188 43.3125 52.7812 Q 43.3125 58.5938 39.2344 62.25 Q 35.1562 65.9219 28.6094 65.9219 Q 23.9688 65.9219 18.8125 64.3125 Q 13.6719 62.7031 7.8125 59.4219 L 7.8125 69.3906 Q 13.7656 71.7812 18.9375 73 Q 24.125 74.2188 28.4219 74.2188 Q 39.75 74.2188 46.4844 68.5469 Q 53.2188 62.8906 53.2188 53.4219 Q 53.2188 48.9219 51.5312 44.8906 Q 49.8594 40.875 45.4062 35.4062 Q 44.1875 33.9844 37.6406 27.2188 Q 31.1094 20.4531 19.1875 8.29688" id="DejaVuSans-32"/>
            </defs>
            <g transform="translate(118.188333333 392.375)scale(0.16 -0.16)">
              <use xlink:href="#DejaVuSans-2212"/>
              <use x="83.7890625" xlink:href="#DejaVuSans-32"/>
            </g>
          </g>
        </g>
        <g id="xtick_3">
          <g id="line2d_8">
            <path clip-path="url(#pa82c4e93f3)" d="M 214.167 373.5 L 214.167 18.5" style="fill:none;stroke:#000000;stroke-dasharray:1.000000,3.000000;stroke-dashoffset:0.0;stroke-linecap:butt;stroke-width:0.5;"/>
          </g>
          <g id="line2d_9">
            <g>
              <use style="stroke:#000000;stroke-linecap:butt;stroke-width:1.25;" x="214.166666667" xlink:href="#ma222041d45" y="373.5"/>
            </g>
          </g>
          <g id="line2d_10">
            <g>
              <use style="stroke:#000000;stroke-linecap:butt;stroke-width:1.25;" x="214.166666667" xlink:href="#mab2f347831" y="18.5"/>
            </g>
          </g>
          <g id="text_3">
            <!-- −1 -->
            <defs>
              <path d="M 12.4062 8.29688 L 28.5156 8.29688 L 28.5156 63.9219 L 10.9844 60.4062 L 10.9844 69.3906 L 28.4219 72.9062 L 38.2812 72.9062 L 38.2812 8.29688 L 54.3906 8.29688 L 54.3906 0 L 12.4062 0 z" id="DejaVuSans-31"/>
            </defs>
            <g transform="translate(203.959166667 392.165)scale(0.16 -0.16)">
              <use xlink:href="#DejaVuSans-2212"/>
              <use x="83.7890625" xlink:href="#DejaVuSans-31"/>
            </g>
          </g>
        </g>
        <g id="xtick_4">
          <g id="line2d_11">
            <path clip-path="url(#pa82c4e93f3)" d="M 300 373.5 L 300 18.5" style="fill:none;stroke:#000000;stroke-dasharray:3.000000,1.000000;stroke-dashoffset:0.0;stroke-linecap:butt;stroke-width:0.5;"/>
          </g>
          <g id="line2d_12">
            <g>
              <use style="stroke:#000000;stroke-linecap:butt;stroke-width:1.25;" x="300.0" xlink:href="#ma222041d45" y="373.5"/>
            </g>
          </g>
          <g id="line2d_13">
            <g>
              <use style="stroke:#000000;stroke-linecap:butt;stroke-width:1.25;" x="300.0" xlink:href="#mab2f347831" y="18.5"/>
            </g>
          </g>
          <g id="text_4">
            <!-- 0 -->
            <defs>
              <path d="M 31.7812 66.4062 Q 24.1719 66.4062 20.3281 58.9062 Q 16.5 51.4219 16.5 36.375 Q 16.5 21.3906 20.3281 13.8906 Q 24.1719 6.39062 31.7812 6.39062 Q 39.4531 6.39062 43.2812 13.8906 Q 47.125 21.3906 47.125 36.375 Q 47.125 51.4219 43.2812 58.9062 Q 39.4531 66.4062 31.7812 66.4062 M 31.7812 74.2188 Q 44.0469 74.2188 50.5156 64.5156 Q 56.9844 54.8281 56.9844 36.375 Q 56.9844 17.9688 50.5156 8.26562 Q 44.0469 -1.42188 31.7812 -1.42188 Q 19.5312 -1.42188 13.0625 8.26562 Q 6.59375 17.9688 6.59375 36.375 Q 6.59375 54.8281 13.0625 64.5156 Q 19.5312 74.2188 31.7812 74.2188" id="DejaVuSans-30"/>
            </defs>
            <g transform="translate(295.96875 392.375)scale(0.16 -0.16)">
              <use xlink:href="#DejaVuSans-30"/>
            </g>
          </g>
        </g>
        <g id="xtick_5">
          <g id="line2d_14">
            <path clip-path="url(#pa82c4e93f3)" d="M 385.833 373.5 L 385.833 18.5" style="fill:none;stroke:#000000;stroke-dasharray:1.000000,3.000000;stroke-dashoffset:0.0;stroke-linecap:butt;stroke-width:0.5;"/>
          </g>
          <g id="line2d_15">
            <g>
              <use style="stroke:#000000;stroke-linecap:butt;stroke-width:1.25;" x="385.833333333" xlink:href="#ma222041d45" y="373.5"/>
            </g>
          </g>
          <g id="line2d_16">
            <g>
              <use style="stroke:#000000;stroke-linecap:butt;stroke-width:1.25;" x="385.833333333" xlink:href="#mab2f347831" y="18.5"/>
            </g>
          </g>
          <g id="text_5">
            <!-- 1 -->
            <g transform="translate(382.360833333 392.165)scale(0.16 -0.16)">
              <use xlink:href="#DejaVuSans-31"/>
            </g>
          </g>
        </g>
        <g id="xtick_6">
          <g id="line2d_17">
            <path clip-path="url(#pa82c4e93f3)" d="M 471.667 373.5 L 471.667 18.5" style="fill:none;stroke:#000000;stroke-dasharray:1.000000,3.000000;stroke-dashoffset:0.0;stroke-linecap:butt;stroke-width:0.5;"/>
          </g>
          <g id="line2d_18">
            <g>
              <use style="stroke:#000000;stroke-linecap:butt;stroke-width:1.25;" x="471.666666667" xlink:href="#ma222041d45" y="373.5"/>
            </g>
          </g>
          <g id="line2d_19">
            <g>
              <use style="stroke:#000000;stroke-linecap:butt;stroke-width:1.25;" x="471.666666667" xlink:href="#mab2f347831" y="18.5"/>
            </g>
          </g>
          <g id="text_6">
            <!-- 2 -->
            <g transform="translate(467.964166667 392.375)scale(0.16 -0.16)">
              <use xlink:href="#DejaVuSans-32"/>
            </g>
          </g>
        </g>
        <g id="xtick_7">
          <g id="line2d_20">
            <path clip-path="url(#pa82c4e93f3)" d="M 557.5 373.5 L 557.5 18.5" style="fill:none;stroke:#000000;stroke-dasharray:1.000000,3.000000;stroke-dashoffset:0.0;stroke-linecap:butt;stroke-width:0.5;"/>
          </g>
          <g id="line2d_21">
            <g>
              <use style="stroke:#000000;stroke-linecap:butt;stroke-width:1.25;" x="557.5" xlink:href="#ma222041d45" y="373.5"/>
            </g>
          </g>
          <g id="line2d_22">
            <g>
              <use style="stroke:#000000;stroke-linecap:butt;stroke-width:1.25;" x="557.5" xlink:href="#mab2f347831" y="18.5"/>
            </g>
          </g>
          <g id="text_7">
            <!-- 3 -->
            <g transform="translate(553.66125 392.375)scale(0.16 -0.16)">
              <use xlink:href="#DejaVuSans-33"/>
            </g>
          </g>
        </g>
      </g>
      <g id="matplotlib.axis_2">
        <g id="ytick_1">
          <g id="line2d_23">
            <path clip-path="url(#pa82c4e93f3)" d="M 42.5 373.5 L 557.5 373.5" style="fill:none;stroke:#000000;stroke-dasharray:1.000000,3.000000;stroke-dashoffset:0.0;stroke-linecap:butt;stroke-width:0.5;"/>
          </g>
          <g id="line2d_24">
            <defs>
              <path d="M 0 0 L 4 0" id="m1eb0c910b5" style="stroke:#000000;stroke-linecap:butt;stroke-width:1.25;"/>
            </defs>
            <g>
              <use style="stroke:#000000;stroke-linecap:butt;stroke-width:1.25;" x="42.5" xlink:href="#m1eb0c910b5" y="373.5"/>
            </g>
          </g>
          <g id="line2d_25">
            <defs>
              <path d="M 0 0 L -4 0" id="mb63a56c30e" style="stroke:#000000;stroke-linecap:butt;stroke-width:1.25;"/>
            </defs>
            <g>
              <use style="stroke:#000000;stroke-linecap:butt;stroke-width:1.25;" x="557.5" xlink:href="#mb63a56c30e" y="373.5"/>
            </g>
          </g>
          <g id="text_8">
            <!-- −1 -->
            <g transform="translate(15.085 379.3325)scale(0.16 -0.16)">
              <use xlink:href="#DejaVuSans-2212"/>
              <use x="83.7890625" xlink:href="#DejaVuSans-31"/>
            </g>
          </g>
        </g>
        <g id="ytick_2">
          <g id="line2d_26">
            <path clip-path="url(#pa82c4e93f3)" d="M 42.5 314.333 L 557.5 314.333" style="fill:none;stroke:#000000;stroke-dasharray:3.000000,1.000000;stroke-dashoffset:0.0;stroke-linecap:butt;stroke-width:0.5;"/>
          </g>
          <g id="line2d_27">
            <g>
              <use style="stroke:#000000;stroke-linecap:butt;stroke-width:1.25;" x="42.5" xlink:href="#m1eb0c910b5" y="314.333333333"/>
            </g>
          </g>
          <g id="line2d_28">
            <g>
              <use style="stroke:#000000;stroke-linecap:butt;stroke-width:1.25;" x="557.5" xlink:href="#mb63a56c30e" y="314.333333333"/>
            </g>
          </g>
          <g id="text_9">
            <!-- 0 -->
            <g transform="translate(27.4375 320.157083333)scale(0.16 -0.16)">
              <use xlink:href="#DejaVuSans-30"/>
            </g>
          </g>
        </g>
        <g id="ytick_3">
          <g id="line2d_29">
            <path clip-path="url(#pa82c4e93f3)" d="M 42.5 255.167 L 557.5 255.167" style="fill:none;stroke:#000000;stroke-dasharray:1.000000,3.000000;stroke-dashoffset:0.0;stroke-linecap:butt;stroke-width:0.5;"/>
          </g>
          <g id="line2d_30">
            <g>
              <use style="stroke:#000000;stroke-linecap:butt;stroke-width:1.25;" x="42.5" xlink:href="#m1eb0c910b5" y="255.166666667"/>
            </g>
          </g>
          <g id="line2d_31">
            <g>
              <use style="stroke:#000000;stroke-linecap:butt;stroke-width:1.25;" x="557.5" xlink:href="#mb63a56c30e" y="255.166666667"/>
            </g>
          </g>
          <g id="text_10">
            <!-- 1 -->
            <g transform="translate(28.555 260.999166667)scale(0.16 -0.16)">
              <use xlink:href="#DejaVuSans-31"/>
            </g>
          </g>
        </g>
        <g id="ytick_4">
          <g id="line2d_32">
            <path clip-path="url(#pa82c4e93f3)" d="M 42.5 196 L 557.5 196" style="fill:none;stroke:#000000;stroke-dasharray:1.000000,3.000000;stroke-dashoffset:0.0;stroke-linecap:butt;stroke-width:0.5;"/>
          </g>
          <g id="line2d_33">
            <g>
              <use style="stroke:#000000;stroke-linecap:butt;stroke-width:1.25;" x="42.5" xlink:href="#m1eb0c910b5" y="196.0"/>
            </g>
          </g>
          <g id="line2d_34">
            <g>
              <use style="stroke:#000000;stroke-linecap:butt;stroke-width:1.25;" x="557.5" xlink:href="#mb63a56c30e" y="196.0"/>
            </g>
          </g>
          <g id="text_11">
            <!-- 2 -->
            <g transform="translate(28.095 201.9375)scale(0.16 -0.16)">
              <use xlink:href="#DejaVuSans-32"/>
            </g>
          </g>
        </g>
        <g id="ytick_5">
          <g id="line2d_35">
            <path clip-path="url(#pa82c4e93f3)" d="M 42.5 136.833 L 557.5 136.833" style="fill:none;stroke:#000000;stroke-dasharray:1.000000,3.000000;stroke-dashoffset:0.0;stroke-linecap:butt;stroke-width:0.5;"/>
          </g>
          <g id="line2d_36">
            <g>
              <use style="stroke:#000000;stroke-linecap:butt;stroke-width:1.25;" x="42.5" xlink:href="#m1eb0c910b5" y="136.833333333"/>
            </g>
          </g>
          <g id="line2d_37">
            <g>
              <use style="stroke:#000000;stroke-linecap:butt;stroke-width:1.25;" x="557.5" xlink:href="#mb63a56c30e" y="136.833333333"/>
            </g>
          </g>
          <g id="text_12">
            <!-- 3 -->
            <g transform="translate(27.8225 142.657083333)scale(0.16 -0.16)">
              <use xlink:href="#DejaVuSans-33"/>
            </g>
          </g>
        </g>
        <g id="ytick_6">
          <g id="line2d_38">
            <path clip-path="url(#pa82c4e93f3)" d="M 42.5 77.6667 L 557.5 77.6667" style="fill:none;stroke:#000000;stroke-dasharray:1.000000,3.000000;stroke-dashoffset:0.0;stroke-linecap:butt;stroke-width:0.5;"/>
          </g>
          <g id="line2d_39">
            <g>
              <use style="stroke:#000000;stroke-linecap:butt;stroke-width:1.25;" x="42.5" xlink:href="#m1eb0c910b5" y="77.6666666667"/>
            </g>
          </g>
          <g id="line2d_40">
            <g>
              <use style="stroke:#000000;stroke-linecap:butt;stroke-width:1.25;" x="557.5" xlink:href="#mb63a56c30e" y="77.6666666667"/>
            </g>
          </g>
          <g id="text_13">
            <!-- 4 -->
            <defs>
              <path d="M 37.7969 64.3125 L 12.8906 25.3906 L 37.7969 25.3906 z  M 35.2031 72.9062 L 47.6094 72.9062 L 47.6094 25.3906 L 58.0156 25.3906 L 58.0156 17.1875 L 47.6094 17.1875 L 47.6094 0 L 37.7969 0 L 37.7969 17.1875 L 4.89062 17.1875 L 4.89062 26.7031 z" id="DejaVuSans-34"/>
            </defs>
            <g transform="translate(27.0 83.4991666667)scale(0.16 -0.16)">
              <use xlink:href="#DejaVuSans-34"/>
            </g>
          </g>
        </g>
        <g id="ytick_7">
          <g id="line2d_41">
            <path clip-path="url(#pa82c4e93f3)" d="M 42.5 18.5 L 557.5 18.5" style="fill:none;stroke:#000000;stroke-dasharray:1.000000,3.000000;stroke-dashoffset:0.0;stroke-linecap:butt;stroke-width:0.5;"/>
          </g>
          <g id="line2d_42">
            <g>
              <use style="stroke:#000000;stroke-linecap:butt;stroke-width:1.25;" x="42.5" xlink:href="#m1eb0c910b5" y="18.5"/>
            </g>
          </g>
          <g id="line2d_43">
            <g>
              <use style="stroke:#000000;stroke-linecap:butt;stroke-width:1.25;" x="557.5" xlink:href="#mb63a56c30e" y="18.5"/>
            </g>
          </g>
          <g id="text_14">
            <!-- 5 -->
            <defs>
              <path d="M 10.7969 72.9062 L 49.5156 72.9062 L 49.5156 64.5938 L 19.8281 64.5938 L 19.8281 46.7344 Q 21.9688 47.4688 24.1094 47.8281 Q 26.2656 48.1875 28.4219 48.1875 Q 40.625 48.1875 47.75 41.5 Q 54.8906 34.8125 54.8906 23.3906 Q 54.8906 11.625 47.5625 5.09375 Q 40.2344 -1.42188 26.9062 -1.42188 Q 22.3125 -1.42188 17.5469 -0.640625 Q 12.7969 0.140625 7.71875 1.70312 L 7.71875 11.625 Q 12.1094 9.23438 16.7969 8.0625 Q 21.4844 6.89062 26.7031 6.89062 Q 35.1562 6.89062 40.0781 11.3281 Q 45.0156 15.7656 45.0156 23.3906 Q 45.0156 31 40.0781 35.4375 Q 35.1562 39.8906 26.7031 39.8906 Q 22.75 39.8906 18.8125 39.0156 Q 14.8906 38.1406 10.7969 36.2812 z" id="DejaVuSans-35"/>
            </defs>
            <g transform="translate(27.9525 24.21875)scale(0.16 -0.16)">
              <use xlink:href="#DejaVuSans-35"/>
            </g>
          </g>
        </g>
      </g>
      <g id="patch_3">
        <path d="M 42.5 18.5 L 557.5 18.5" style="fill:none;stroke:#000000;stroke-width:1.25;"/>
      </g>
      <g id="patch_4">
        <path d="M 557.5 373.5 L 557.5 18.5" style="fill:none;stroke:#000000;stroke-width:1.25;"/>
      </g>
      <g id="patch_5">
        <path d="M 42.5 373.5 L 557.5 373.5" style="fill:none;stroke:#000000;stroke-width:1.25;"/>
      </g>
      <g id="patch_6">
        <path d="M 42.5 373.5 L 42.5 18.5" style="fill:none;stroke:#000000;stroke-width:1.25;"/>
      </g>
      <g id="legend_1">
        <g id="patch_7">
          <path d="M 256.79 77.249 L 343.211 77.249 L 343.211 47.3 L 256.79 47.3 L 256.79 77.249 z" style="fill:#ffffff;opacity:0.9;stroke:#000000;"/>
        </g>
        <g id="line2d_44">
          <path d="M 270.23 62.849 L 297.11 62.849" style="fill:none;stroke:#0000cc;stroke-width:2.4;"/>
        </g>
        <g id="line2d_45"/>
        <g id="text_15">
          <!-- x² -->
          <defs>
            <path d="M 13.0938 38.1875 L 33.7969 38.1875 L 33.7969 32.625 L 4.59375 32.625 L 4.59375 37.9844 Q 6.25 39.5 9.32812 42.2344 Q 26.125 57.125 26.125 61.7188 Q 26.125 64.9375 23.5781 66.9062 Q 21.0469 68.8906 16.8906 68.8906 Q 14.3594 68.8906 11.375 68.0312 Q 8.40625 67.1875 4.89062 65.4844 L 4.89062 71.4844 Q 8.64062 72.8594 11.8906 73.5312 Q 15.1406 74.2188 17.9219 74.2188 Q 25 74.2188 29.25 71 Q 33.5 67.7812 33.5 62.5 Q 33.5 55.7188 17.3281 41.8438 Q 14.5938 39.5 13.0938 38.1875" id="DejaVuSans-b2"/>
            <path d="M 54.8906 54.6875 L 35.1094 28.0781 L 55.9062 0 L 45.3125 0 L 29.3906 21.4844 L 13.4844 0 L 2.875 0 L 24.125 28.6094 L 4.6875 54.6875 L 15.2812 54.6875 L 29.7812 35.2031 L 44.2812 54.6875 z" id="DejaVuSans-78"/>
          </defs>
          <g transform="translate(318.2295 69.569)scale(0.192 -0.192)">
            <use xlink:href="#DejaVuSans-78"/>
            <use x="59.1796875" xlink:href="#DejaVuSans-b2"/>
          </g>
        </g>
      </g>
    </g>
  </g>
</svg>
