<?xml version="1.0" encoding="utf-8" standalone="no"?>
<!DOCTYPE svg PUBLIC "-//W3C//DTD SVG 1.1//EN"
  "http://www.w3.org/Graphics/SVG/1.1/DTD/svg11.dtd">
<!-- Created with matplotlib (http://matplotlib.org/) -->
<svg height="293pt" version="1.1" viewBox="0 0 384 293" width="384pt" xmlns="http://www.w3.org/2000/svg" xmlns:xlink="http://www.w3.org/1999/xlink">
 <defs>
  <style type="text/css">
*{stroke-linecap:butt;stroke-linejoin:round;}
  </style>
 </defs>
 <g id="figure_1">
  <g id="patch_1">
   <path d="M 0 293.490125 
L 384.052727 293.490125 
L 384.052727 0 
L 0 0 
z
" style="fill:none;"/>
  </g>
  <g id="axes_1">
   <g id="patch_2">
    <path clip-path="url(#pbc4a784b55)" d="M 170.212713 199.249473 
L 172.16064 196.691627 
L 173.667037 197.186144 
L 189.354345 188.125684 
L 173.770927 197.220248 
L 175.277324 197.714765 
z
" style="fill:#d77a5a;stroke:#d77a5a;stroke-linejoin:miter;"/>
   </g>
   <g id="patch_3">
    <path clip-path="url(#pbc4a784b55)" d="M 167.8752 264.685846 
L 173.718982 263.833231 
L 173.718982 264.657426 
L 189.3024 264.714267 
L 173.718982 264.714267 
L 173.718982 265.538462 
z
" style="fill:#6e8334;stroke:#6e8334;stroke-linejoin:miter;"/>
   </g>
   <g id="line2d_1">
    <path clip-path="url(#pbc4a784b55)" d="M 36.065455 240.933151 
L 39.344793 240.398381 
L 42.624132 239.849934 
L 45.903471 239.287462 
L 49.18281 238.710604 
L 52.462149 238.118995 
L 55.741488 237.512255 
L 59.020826 236.889998 
L 62.300165 236.251828 
L 65.579504 235.597337 
L 68.858843 234.926109 
L 72.138182 234.237714 
L 75.417521 233.531714 
L 78.69686 232.807659 
L 81.976198 232.065086 
L 85.255537 231.303524 
L 88.534876 230.522485 
L 91.814215 229.721471 
L 95.093554 228.899972 
L 98.372893 228.057465 
L 101.652231 227.193411 
L 104.93157 226.307259 
L 108.210909 225.398445 
L 111.490248 224.46639 
L 114.769587 223.510497 
L 118.048926 222.530159 
L 121.328264 221.524749 
L 124.607603 220.493627 
L 127.886942 219.436135 
L 131.166281 218.351598 
L 134.44562 217.239325 
L 137.724959 216.098608 
L 141.004298 214.928717 
L 144.283636 213.728907 
L 147.562975 212.498414 
L 150.842314 211.236451 
L 154.121653 209.942216 
L 157.400992 208.614881 
L 160.680331 207.253601 
L 163.959669 205.857507 
L 167.239008 204.42571 
L 170.518347 202.957296 
L 173.797686 201.451328 
L 177.077025 199.906847 
L 180.356364 198.322867 
L 183.635702 196.698378 
L 186.915041 195.032345 
L 190.19438 193.323704 
L 193.473719 191.571366 
L 196.753058 189.774214 
L 200.032397 187.931102 
L 203.311736 186.040853 
L 206.591074 184.102263 
L 209.870413 182.114096 
L 213.149752 180.075083 
L 216.429091 177.983924 
L 219.70843 175.839286 
L 222.987769 173.6398 
L 226.267107 171.384065 
L 229.546446 169.070642 
L 232.825785 166.698054 
L 236.105124 164.26479 
L 239.384463 161.769298 
L 242.663802 159.209986 
L 245.94314 156.585221 
L 249.222479 153.893331 
L 252.501818 151.132598 
L 255.781157 148.301262 
L 259.060496 145.397517 
L 262.339835 142.419512 
L 265.619174 139.365347 
L 268.898512 136.233074 
L 272.177851 133.020697 
L 275.45719 129.726166 
L 278.736529 126.34738 
L 282.015868 122.882185 
L 285.295207 119.328371 
L 288.574545 115.683671 
L 291.853884 111.945762 
L 295.133223 108.112259 
L 298.412562 104.180718 
L 301.691901 100.148631 
L 304.97124 96.013427 
L 308.250579 91.77247 
L 311.529917 87.423053 
L 314.809256 82.962405 
L 318.088595 78.38768 
L 321.367934 73.69596 
L 324.647273 68.884254 
L 327.926612 63.949493 
L 331.20595 58.88853 
L 334.485289 53.698137 
L 337.764628 48.375005 
L 341.043967 42.915739 
L 344.323306 37.316858 
L 347.602645 31.57479 
L 350.881983 25.685874 
L 354.161322 19.646354 
L 357.440661 13.45238 
L 360.72 7.1 
" style="fill:none;stroke:#007ec1;stroke-linecap:square;stroke-width:1.5;"/>
   </g>
   <g id="line2d_2">
    <path clip-path="url(#pbc4a784b55)" d="M 19.832727 261.843795 
L 376.952727 261.843795 
" style="fill:none;stroke:#000000;stroke-linecap:square;stroke-width:1.5;"/>
   </g>
   <g id="line2d_3">
    <path clip-path="url(#pbc4a784b55)" d="M 165.927273 273.212 
L 165.927273 7.1 
" style="fill:none;stroke:#000000;stroke-linecap:square;stroke-width:1.5;"/>
   </g>
   <g id="line2d_4">
    <defs>
     <path d="M 0 3 
C 0.795609 3 1.55874 2.683901 2.12132 2.12132 
C 2.683901 1.55874 3 0.795609 3 0 
C 3 -0.795609 2.683901 -1.55874 2.12132 -2.12132 
C 1.55874 -2.683901 0.795609 -3 0 -3 
C -0.795609 -3 -1.55874 -2.683901 -2.12132 -2.12132 
C -2.683901 -1.55874 -3 -0.795609 -3 0 
C -3 0.795609 -2.683901 1.55874 -2.12132 2.12132 
C -1.55874 2.683901 -0.795609 3 0 3 
z
" id="m915e22bd64" style="stroke:#007ec1;"/>
    </defs>
    <g clip-path="url(#pbc4a784b55)">
     <use style="fill:#007ec1;stroke:#007ec1;" x="165.927273" xlink:href="#m915e22bd64" y="205.002771"/>
    </g>
   </g>
   <g id="line2d_5">
    <path clip-path="url(#pbc4a784b55)" d="M 295.789091 261.843795 
L 295.789091 107.333873 
" style="fill:none;stroke:#000000;stroke-dasharray:5.6,2.4;stroke-dashoffset:0;stroke-width:1.5;"/>
   </g>
   <g id="line2d_6">
    <defs>
     <path d="M 0 3 
C 0.795609 3 1.55874 2.683901 2.12132 2.12132 
C 2.683901 1.55874 3 0.795609 3 0 
C 3 -0.795609 2.683901 -1.55874 2.12132 -2.12132 
C 1.55874 -2.683901 0.795609 -3 0 -3 
C -0.795609 -3 -1.55874 -2.683901 -2.12132 -2.12132 
C -2.683901 -1.55874 -3 -0.795609 -3 0 
C -3 0.795609 -2.683901 1.55874 -2.12132 2.12132 
C -1.55874 2.683901 -0.795609 3 0 3 
z
" id="maaf96a7785" style="stroke:#6e8334;"/>
    </defs>
    <g clip-path="url(#pbc4a784b55)">
     <use style="fill:#6e8334;stroke:#6e8334;" x="295.789091" xlink:href="#maaf96a7785" y="261.843795"/>
    </g>
   </g>
   <g id="line2d_7">
    <defs>
     <path d="M 0 3 
C 0.795609 3 1.55874 2.683901 2.12132 2.12132 
C 2.683901 1.55874 3 0.795609 3 0 
C 3 -0.795609 2.683901 -1.55874 2.12132 -2.12132 
C 1.55874 -2.683901 0.795609 -3 0 -3 
C -0.795609 -3 -1.55874 -2.683901 -2.12132 -2.12132 
C -2.683901 -1.55874 -3 -0.795609 -3 0 
C -3 0.795609 -2.683901 1.55874 -2.12132 2.12132 
C -1.55874 2.683901 -0.795609 3 0 3 
z
" id="mdb2b54f5fe" style="stroke:#d77a5a;"/>
    </defs>
    <g clip-path="url(#pbc4a784b55)">
     <use style="fill:#d77a5a;stroke:#d77a5a;" x="295.789091" xlink:href="#mdb2b54f5fe" y="107.333873"/>
    </g>
   </g>
   <g id="line2d_8">
    <path clip-path="url(#pbc4a784b55)" d="M 230.858182 261.843795 
L 230.858182 168.12879 
" style="fill:none;stroke:#000000;stroke-dasharray:5.6,2.4;stroke-dashoffset:0;stroke-width:1.5;"/>
   </g>
   <g id="line2d_9">
    <g clip-path="url(#pbc4a784b55)">
     <use style="fill:#6e8334;stroke:#6e8334;" x="230.858182" xlink:href="#maaf96a7785" y="261.843795"/>
    </g>
   </g>
   <g id="line2d_10">
    <g clip-path="url(#pbc4a784b55)">
     <use style="fill:#d77a5a;stroke:#d77a5a;" x="230.858182" xlink:href="#mdb2b54f5fe" y="168.12879"/>
    </g>
   </g>
   <g id="line2d_11">
    <path clip-path="url(#pbc4a784b55)" d="M 209.214545 261.843795 
L 209.214545 182.515756 
" style="fill:none;stroke:#000000;stroke-dasharray:5.6,2.4;stroke-dashoffset:0;stroke-width:1.5;"/>
   </g>
   <g id="line2d_12">
    <g clip-path="url(#pbc4a784b55)">
     <use style="fill:#6e8334;stroke:#6e8334;" x="209.214545" xlink:href="#maaf96a7785" y="261.843795"/>
    </g>
   </g>
   <g id="line2d_13">
    <g clip-path="url(#pbc4a784b55)">
     <use style="fill:#d77a5a;stroke:#d77a5a;" x="209.214545" xlink:href="#mdb2b54f5fe" y="182.515756"/>
    </g>
   </g>
   <g id="line2d_14">
    <path clip-path="url(#pbc4a784b55)" d="M 198.392727 261.843795 
L 198.392727 188.858476 
" style="fill:none;stroke:#000000;stroke-dasharray:5.6,2.4;stroke-dashoffset:0;stroke-width:1.5;"/>
   </g>
   <g id="line2d_15">
    <g clip-path="url(#pbc4a784b55)">
     <use style="fill:#6e8334;stroke:#6e8334;" x="198.392727" xlink:href="#maaf96a7785" y="261.843795"/>
    </g>
   </g>
   <g id="line2d_16">
    <g clip-path="url(#pbc4a784b55)">
     <use style="fill:#d77a5a;stroke:#d77a5a;" x="198.392727" xlink:href="#mdb2b54f5fe" y="188.858476"/>
    </g>
   </g>
   <g id="line2d_17">
    <path clip-path="url(#pbc4a784b55)" d="M 191.899636 261.843795 
L 191.899636 192.418012 
" style="fill:none;stroke:#000000;stroke-dasharray:5.6,2.4;stroke-dashoffset:0;stroke-width:1.5;"/>
   </g>
   <g id="line2d_18">
    <g clip-path="url(#pbc4a784b55)">
     <use style="fill:#6e8334;stroke:#6e8334;" x="191.899636" xlink:href="#maaf96a7785" y="261.843795"/>
    </g>
   </g>
   <g id="line2d_19">
    <g clip-path="url(#pbc4a784b55)">
     <use style="fill:#d77a5a;stroke:#d77a5a;" x="191.899636" xlink:href="#mdb2b54f5fe" y="192.418012"/>
    </g>
   </g>
   <g id="text_1">
    <!-- $0$ -->
    <defs>
     <path d="M 31.78125 66.40625 
Q 24.171875 66.40625 20.328125 58.90625 
Q 16.5 51.421875 16.5 36.375 
Q 16.5 21.390625 20.328125 13.890625 
Q 24.171875 6.390625 31.78125 6.390625 
Q 39.453125 6.390625 43.28125 13.890625 
Q 47.125 21.390625 47.125 36.375 
Q 47.125 51.421875 43.28125 58.90625 
Q 39.453125 66.40625 31.78125 66.40625 
M 31.78125 74.21875 
Q 44.046875 74.21875 50.515625 64.515625 
Q 56.984375 54.828125 56.984375 36.375 
Q 56.984375 17.96875 50.515625 8.265625 
Q 44.046875 -1.421875 31.78125 -1.421875 
Q 19.53125 -1.421875 13.0625 8.265625 
Q 6.59375 17.96875 6.59375 36.375 
Q 6.59375 54.828125 13.0625 64.515625 
Q 19.53125 74.21875 31.78125 74.21875 
" id="DejaVuSans-30"/>
    </defs>
    <g transform="translate(155.538327 276.054051)scale(0.13 -0.13)">
     <use transform="translate(0 0.78125)" xlink:href="#DejaVuSans-30"/>
    </g>
   </g>
   <g id="text_2">
    <!-- $\lim_{n\to\infty}\ \exp\left(\frac{1}{n}\right)=\exp\left(\lim_{n\to\infty}\ \frac{1}{n}\right)$ -->
    <defs>
     <path d="M 9.421875 75.984375 
L 18.40625 75.984375 
L 18.40625 0 
L 9.421875 0 
z
" id="DejaVuSans-6c"/>
     <path d="M 9.421875 54.6875 
L 18.40625 54.6875 
L 18.40625 0 
L 9.421875 0 
z
M 9.421875 75.984375 
L 18.40625 75.984375 
L 18.40625 64.59375 
L 9.421875 64.59375 
z
" id="DejaVuSans-69"/>
     <path d="M 52 44.1875 
Q 55.375 50.25 60.0625 53.125 
Q 64.75 56 71.09375 56 
Q 79.640625 56 84.28125 50.015625 
Q 88.921875 44.046875 88.921875 33.015625 
L 88.921875 0 
L 79.890625 0 
L 79.890625 32.71875 
Q 79.890625 40.578125 77.09375 44.375 
Q 74.3125 48.1875 68.609375 48.1875 
Q 61.625 48.1875 57.5625 43.546875 
Q 53.515625 38.921875 53.515625 30.90625 
L 53.515625 0 
L 44.484375 0 
L 44.484375 32.71875 
Q 44.484375 40.625 41.703125 44.40625 
Q 38.921875 48.1875 33.109375 48.1875 
Q 26.21875 48.1875 22.15625 43.53125 
Q 18.109375 38.875 18.109375 30.90625 
L 18.109375 0 
L 9.078125 0 
L 9.078125 54.6875 
L 18.109375 54.6875 
L 18.109375 46.1875 
Q 21.1875 51.21875 25.484375 53.609375 
Q 29.78125 56 35.6875 56 
Q 41.65625 56 45.828125 52.96875 
Q 50 49.953125 52 44.1875 
" id="DejaVuSans-6d"/>
     <path d="M 55.71875 33.015625 
L 49.3125 0 
L 40.28125 0 
L 46.6875 32.671875 
Q 47.125 34.96875 47.359375 36.71875 
Q 47.609375 38.484375 47.609375 39.5 
Q 47.609375 43.609375 45.015625 45.890625 
Q 42.4375 48.1875 37.796875 48.1875 
Q 30.5625 48.1875 25.34375 43.375 
Q 20.125 38.578125 18.5 30.328125 
L 12.5 0 
L 3.515625 0 
L 14.109375 54.6875 
L 23.09375 54.6875 
L 21.296875 46.09375 
Q 25.046875 50.828125 30.3125 53.40625 
Q 35.59375 56 41.40625 56 
Q 48.640625 56 52.609375 52.09375 
Q 56.59375 48.1875 56.59375 41.109375 
Q 56.59375 39.359375 56.375 37.359375 
Q 56.15625 35.359375 55.71875 33.015625 
" id="DejaVuSans-Oblique-6e"/>
     <path d="M 78.90625 33.546875 
L 78.90625 29.15625 
L 59.71875 9.96875 
L 53.859375 15.828125 
L 65.234375 27.203125 
L 5.71875 27.203125 
L 5.71875 35.5 
L 65.234375 35.5 
L 53.859375 46.875 
L 59.71875 52.734375 
z
" id="DejaVuSans-2192"/>
     <path d="M 45.5625 17.046875 
Q 44.046875 18.796875 41.65625 22.90625 
Q 38.375 17.046875 35.5 14.453125 
Q 31.890625 11.328125 26.265625 11.328125 
Q 19.671875 11.328125 15.328125 16.265625 
Q 10.75 21.4375 10.75 29.984375 
Q 10.75 38.1875 15.328125 43.75 
Q 19.4375 48.6875 26.375 48.6875 
Q 29.9375 48.6875 32.5625 47.21875 
Q 35.640625 45.609375 37.75 42.828125 
Q 39.703125 40.328125 41.65625 36.96875 
Q 44.921875 42.828125 47.796875 45.40625 
Q 51.421875 48.53125 57.03125 48.53125 
Q 63.625 48.53125 67.96875 43.609375 
Q 72.5625 38.421875 72.5625 29.890625 
Q 72.5625 21.6875 67.96875 16.109375 
Q 63.875 11.1875 56.9375 11.1875 
Q 53.375 11.1875 50.734375 12.640625 
Q 48.09375 13.96875 45.5625 17.046875 
M 25.734375 17.71875 
Q 33.796875 17.71875 38.625 29.4375 
Q 32.421875 42.234375 25.734375 42.234375 
Q 20.84375 42.234375 18.359375 38.71875 
Q 15.671875 34.96875 15.671875 29.984375 
Q 15.671875 24.515625 18.359375 21.140625 
Q 21.09375 17.71875 25.734375 17.71875 
M 57.5625 42.140625 
Q 50.296875 42.140625 44.671875 30.421875 
Q 50.828125 17.625 57.5625 17.625 
Q 62.453125 17.625 64.9375 21.140625 
Q 67.625 24.90625 67.625 29.890625 
Q 67.625 35.359375 64.9375 38.71875 
Q 62.203125 42.140625 57.5625 42.140625 
" id="DejaVuSans-221e"/>
     <path d="M 56.203125 29.59375 
L 56.203125 25.203125 
L 14.890625 25.203125 
Q 15.484375 15.921875 20.484375 11.0625 
Q 25.484375 6.203125 34.421875 6.203125 
Q 39.59375 6.203125 44.453125 7.46875 
Q 49.3125 8.734375 54.109375 11.28125 
L 54.109375 2.78125 
Q 49.265625 0.734375 44.1875 -0.34375 
Q 39.109375 -1.421875 33.890625 -1.421875 
Q 20.796875 -1.421875 13.15625 6.1875 
Q 5.515625 13.8125 5.515625 26.8125 
Q 5.515625 40.234375 12.765625 48.109375 
Q 20.015625 56 32.328125 56 
Q 43.359375 56 49.78125 48.890625 
Q 56.203125 41.796875 56.203125 29.59375 
M 47.21875 32.234375 
Q 47.125 39.59375 43.09375 43.984375 
Q 39.0625 48.390625 32.421875 48.390625 
Q 24.90625 48.390625 20.390625 44.140625 
Q 15.875 39.890625 15.1875 32.171875 
z
" id="DejaVuSans-65"/>
     <path d="M 54.890625 54.6875 
L 35.109375 28.078125 
L 55.90625 0 
L 45.3125 0 
L 29.390625 21.484375 
L 13.484375 0 
L 2.875 0 
L 24.125 28.609375 
L 4.6875 54.6875 
L 15.28125 54.6875 
L 29.78125 35.203125 
L 44.28125 54.6875 
z
" id="DejaVuSans-78"/>
     <path d="M 18.109375 8.203125 
L 18.109375 -20.796875 
L 9.078125 -20.796875 
L 9.078125 54.6875 
L 18.109375 54.6875 
L 18.109375 46.390625 
Q 20.953125 51.265625 25.265625 53.625 
Q 29.59375 56 35.59375 56 
Q 45.5625 56 51.78125 48.09375 
Q 58.015625 40.1875 58.015625 27.296875 
Q 58.015625 14.40625 51.78125 6.484375 
Q 45.5625 -1.421875 35.59375 -1.421875 
Q 29.59375 -1.421875 25.265625 0.953125 
Q 20.953125 3.328125 18.109375 8.203125 
M 48.6875 27.296875 
Q 48.6875 37.203125 44.609375 42.84375 
Q 40.53125 48.484375 33.40625 48.484375 
Q 26.265625 48.484375 22.1875 42.84375 
Q 18.109375 37.203125 18.109375 27.296875 
Q 18.109375 17.390625 22.1875 11.75 
Q 26.265625 6.109375 33.40625 6.109375 
Q 40.53125 6.109375 44.609375 11.75 
Q 48.6875 17.390625 48.6875 27.296875 
" id="DejaVuSans-70"/>
     <path d="M 38.203125 -13.40625 
L 38.203125 -16.40625 
Q 27 -5.796875 20.453125 9.84375 
Q 13.90625 25.5 13.90625 45.09375 
Q 13.90625 64.40625 20.453125 80.25 
Q 27 96.09375 38.203125 106.59375 
L 38.203125 103.59375 
Q 22 83.796875 22 45.09375 
Q 22 6.40625 38.203125 -13.40625 
" id="STIXSizeOneSym-Regular-28"/>
     <path d="M 12.40625 8.296875 
L 28.515625 8.296875 
L 28.515625 63.921875 
L 10.984375 60.40625 
L 10.984375 69.390625 
L 28.421875 72.90625 
L 38.28125 72.90625 
L 38.28125 8.296875 
L 54.390625 8.296875 
L 54.390625 0 
L 12.40625 0 
z
" id="DejaVuSans-31"/>
     <path d="M 8.59375 103.59375 
L 8.59375 106.59375 
Q 19.796875 96 26.34375 80.34375 
Q 32.90625 64.703125 32.90625 45.09375 
Q 32.90625 25.796875 26.34375 9.9375 
Q 19.796875 -5.90625 8.59375 -16.40625 
L 8.59375 -13.40625 
Q 24.796875 6.40625 24.796875 45.09375 
Q 24.796875 83.796875 8.59375 103.59375 
" id="STIXSizeOneSym-Regular-29"/>
     <path d="M 10.59375 45.40625 
L 73.1875 45.40625 
L 73.1875 37.203125 
L 10.59375 37.203125 
z
M 10.59375 25.484375 
L 73.1875 25.484375 
L 73.1875 17.1875 
L 10.59375 17.1875 
z
" id="DejaVuSans-3d"/>
     <path d="M 50.296875 -24.296875 
L 50.296875 -27.90625 
Q 33.5 -12.09375 23.703125 11.40625 
Q 13.90625 34.90625 13.90625 64.296875 
Q 13.90625 93.796875 23.953125 118.640625 
Q 34 143.5 50.296875 156.59375 
L 50.296875 153.296875 
Q 38.90625 141.59375 31.15625 118.84375 
Q 23.40625 96.09375 23.40625 64.296875 
Q 23.40625 8.796875 50.296875 -24.296875 
" id="STIXSizeTwoSym-Regular-28"/>
     <path d="M 11.40625 153 
L 11.40625 156.59375 
Q 28.203125 140.796875 38 117.296875 
Q 47.796875 93.796875 47.796875 64.296875 
Q 47.796875 34.90625 37.75 10.046875 
Q 27.703125 -14.796875 11.40625 -27.90625 
L 11.40625 -24.59375 
Q 22.796875 -12.90625 30.546875 9.890625 
Q 38.296875 32.703125 38.296875 64.296875 
Q 38.296875 119.90625 11.40625 153 
" id="STIXSizeTwoSym-Regular-29"/>
    </defs>
    <g style="fill:#007ec1;" transform="translate(3.6 196.476618)scale(0.13 -0.13)">
     <use transform="translate(4 18.91875)" xlink:href="#DejaVuSans-6c"/>
     <use transform="translate(31.783203 18.91875)" xlink:href="#DejaVuSans-69"/>
     <use transform="translate(59.566406 18.91875)" xlink:href="#DejaVuSans-6d"/>
     <use transform="translate(0 -39.03125)scale(0.7)" xlink:href="#DejaVuSans-Oblique-6e"/>
     <use transform="translate(44.365234 -39.03125)scale(0.7)" xlink:href="#DejaVuSans-2192"/>
     <use transform="translate(103.017578 -39.03125)scale(0.7)" xlink:href="#DejaVuSans-221e"/>
     <use transform="translate(193.798503 0.16875)" xlink:href="#DejaVuSans-65"/>
     <use transform="translate(255.321941 0.16875)" xlink:href="#DejaVuSans-78"/>
     <use transform="translate(314.501628 0.16875)" xlink:href="#DejaVuSans-70"/>
     <use transform="translate(377.978191 -10.28125)scale(0.987678)" xlink:href="#STIXSizeOneSym-Regular-28"/>
     <use transform="translate(424.200496 43.965625)scale(0.7)" xlink:href="#DejaVuSans-31"/>
     <use transform="translate(424.200496 -26.484375)scale(0.7)" xlink:href="#DejaVuSans-Oblique-6e"/>
     <use transform="translate(481.236629 -10.28125)scale(0.987678)" xlink:href="#STIXSizeOneSym-Regular-29"/>
     <use transform="translate(546.941356 0.16875)" xlink:href="#DejaVuSans-3d"/>
     <use transform="translate(650.212841 0.16875)" xlink:href="#DejaVuSans-65"/>
     <use transform="translate(711.736278 0.16875)" xlink:href="#DejaVuSans-78"/>
     <use transform="translate(770.915966 0.16875)" xlink:href="#DejaVuSans-70"/>
     <use transform="translate(834.392528 -18.765625)scale(0.726457)" xlink:href="#STIXSizeTwoSym-Regular-28"/>
     <use transform="translate(881.177852 18.91875)" xlink:href="#DejaVuSans-6c"/>
     <use transform="translate(908.961055 18.91875)" xlink:href="#DejaVuSans-69"/>
     <use transform="translate(936.744258 18.91875)" xlink:href="#DejaVuSans-6d"/>
     <use transform="translate(877.177852 -39.03125)scale(0.7)" xlink:href="#DejaVuSans-Oblique-6e"/>
     <use transform="translate(921.543087 -39.03125)scale(0.7)" xlink:href="#DejaVuSans-2192"/>
     <use transform="translate(980.19543 -39.03125)scale(0.7)" xlink:href="#DejaVuSans-221e"/>
     <use transform="translate(1070.976356 43.965625)scale(0.7)" xlink:href="#DejaVuSans-31"/>
     <use transform="translate(1070.976356 -26.484375)scale(0.7)" xlink:href="#DejaVuSans-Oblique-6e"/>
     <use transform="translate(1128.012488 -18.765625)scale(0.726457)" xlink:href="#STIXSizeTwoSym-Regular-29"/>
     <path d="M 424.200496 18.965625 
L 424.200496 25.215625 
L 468.736629 25.215625 
L 468.736629 18.965625 
L 424.200496 18.965625 
z
"/>
     <path d="M 1070.976356 18.965625 
L 1070.976356 25.215625 
L 1115.512488 25.215625 
L 1115.512488 18.965625 
L 1070.976356 18.965625 
z
"/>
    </g>
   </g>
   <g id="text_3">
    <!-- $\exp\left(\frac{1}{n}\right)$ -->
    <g style="fill:#d77a5a;" transform="translate(204.885818 148.161748)scale(0.13 -0.13)">
     <use transform="translate(0 0.16875)" xlink:href="#DejaVuSans-65"/>
     <use transform="translate(61.523438 0.16875)" xlink:href="#DejaVuSans-78"/>
     <use transform="translate(120.703125 0.16875)" xlink:href="#DejaVuSans-70"/>
     <use transform="translate(184.179688 -10.28125)scale(0.987678)" xlink:href="#STIXSizeOneSym-Regular-28"/>
     <use transform="translate(230.401993 43.965625)scale(0.7)" xlink:href="#DejaVuSans-31"/>
     <use transform="translate(230.401993 -26.484375)scale(0.7)" xlink:href="#DejaVuSans-Oblique-6e"/>
     <use transform="translate(287.438126 -10.28125)scale(0.987678)" xlink:href="#STIXSizeOneSym-Regular-29"/>
     <path d="M 230.401993 18.965625 
L 230.401993 25.215625 
L 274.938126 25.215625 
L 274.938126 18.965625 
L 230.401993 18.965625 
z
"/>
    </g>
   </g>
   <g id="text_4">
    <!-- ... -->
    <defs>
     <path d="M 10.6875 12.40625 
L 21 12.40625 
L 21 0 
L 10.6875 0 
z
" id="DejaVuSans-2e"/>
    </defs>
    <g transform="translate(171.121745 233.423283)scale(0.13 -0.13)">
     <use xlink:href="#DejaVuSans-2e"/>
     <use x="31.787109" xlink:href="#DejaVuSans-2e"/>
     <use x="63.574219" xlink:href="#DejaVuSans-2e"/>
    </g>
   </g>
   <g id="text_5">
    <!-- $\frac{1}{n}$ -->
    <g style="fill:#6e8334;" transform="translate(228.260945 278.896102)scale(0.13 -0.13)">
     <use transform="translate(0 43.965625)scale(0.7)" xlink:href="#DejaVuSans-31"/>
     <use transform="translate(0 -26.484375)scale(0.7)" xlink:href="#DejaVuSans-Oblique-6e"/>
     <path d="M 0 18.965625 
L 0 25.215625 
L 44.536133 25.215625 
L 44.536133 18.965625 
L 0 18.965625 
z
"/>
    </g>
   </g>
  </g>
 </g>
 <defs>
  <clipPath id="pbc4a784b55">
   <rect height="266.112" width="357.12" x="19.832727" y="7.1"/>
  </clipPath>
 </defs>
</svg>
