<?xml version="1.0" encoding="utf-8" standalone="no"?>
<!DOCTYPE svg PUBLIC "-//W3C//DTD SVG 1.1//EN"
  "http://www.w3.org/Graphics/SVG/1.1/DTD/svg11.dtd">
<!-- Created with matplotlib (http://matplotlib.org/) -->
<svg height="371pt" version="1.1" viewBox="0 0 496 371" width="496pt" xmlns="http://www.w3.org/2000/svg" xmlns:xlink="http://www.w3.org/1999/xlink">
 <defs>
  <style type="text/css">
*{stroke-linecap:butt;stroke-linejoin:round;stroke-miterlimit:100000;}
  </style>
 </defs>
 <g id="figure_1">
  <g id="patch_1">
   <path d="M 0 371.81375 
L 496.28125 371.81375 
L 496.28125 0 
L 0 0 
L 0 371.81375 
z
" style="fill:none;"/>
  </g>
  <g id="axes_1">
   <g id="patch_2">
    <path clip-path="url(#p0fbde8185e)" d="M 265.891375 28.6 
L 270.355375 27.16 
L 270.355375 28.528 
L 292.675375 28.528 
L 292.675375 28.672 
L 270.355375 28.672 
L 270.355375 30.04 
z
" style="fill:#d77a5a;stroke:#d77a5a;stroke-linejoin:miter;"/>
   </g>
   <g id="patch_3">
    <path clip-path="url(#p0fbde8185e)" d="M 265.891375 187 
L 270.355375 185.56 
L 270.355375 186.928 
L 292.675375 186.928 
L 292.675375 187.072 
L 270.355375 187.072 
L 270.355375 188.44 
z
" style="fill:#aecc51;stroke:#aecc51;stroke-linejoin:miter;"/>
   </g>
   <g id="patch_4">
    <path clip-path="url(#p0fbde8185e)" d="M 178.099375 35.8 
L 179.587375 40.12 
L 178.173775 40.12 
L 178.173775 97.72 
L 178.024975 97.72 
L 178.024975 40.12 
L 176.611375 40.12 
z
" style="stroke:#000000;stroke-linejoin:miter;"/>
   </g>
   <g id="patch_5">
    <path clip-path="url(#p0fbde8185e)" d="M 178.099375 172.6 
L 176.611375 168.28 
L 178.024975 168.28 
L 178.024975 117.88 
L 178.173775 117.88 
L 178.173775 168.28 
L 179.587375 168.28 
z
" style="stroke:#000000;stroke-linejoin:miter;"/>
   </g>
   <g id="line2d_1">
    <path clip-path="url(#p0fbde8185e)" d="M 36.739375 179.8 
L 483.139375 179.8 
" style="fill:none;stroke:#000000;stroke-linecap:square;"/>
   </g>
   <g id="line2d_2">
    <path clip-path="url(#p0fbde8185e)" d="M 259.939375 352.6 
L 259.939375 7 
" style="fill:none;stroke:#000000;stroke-linecap:square;"/>
   </g>
   <g id="line2d_3">
    <path clip-path="url(#p0fbde8185e)" d="M 259.954255 35.8 
L 261.757741 35.8 
L 263.561227 35.8 
L 265.364713 35.8 
L 267.168199 35.8 
L 268.971685 35.8 
L 270.775171 35.8 
L 272.578657 35.8 
L 274.382143 35.8 
L 276.18563 35.8 
L 277.989116 35.8 
L 279.792602 35.8 
L 281.596088 35.8 
L 283.399574 35.8 
L 285.20306 35.8 
L 287.006546 35.8 
L 288.810032 35.8 
L 290.613518 35.8 
L 292.417004 35.8 
L 294.22049 35.8 
L 296.023976 35.8 
L 297.827462 35.8 
L 299.630948 35.8 
L 301.434434 35.8 
L 303.23792 35.8 
L 305.041407 35.8 
L 306.844893 35.8 
L 308.648379 35.8 
L 310.451865 35.8 
L 312.255351 35.8 
L 314.058837 35.8 
L 315.862323 35.8 
L 317.665809 35.8 
L 319.469295 35.8 
L 321.272781 35.8 
L 323.076267 35.8 
L 324.879753 35.8 
L 326.683239 35.8 
L 328.486725 35.8 
L 330.290211 35.8 
L 332.093697 35.8 
L 333.897183 35.8 
L 335.70067 35.8 
L 337.504156 35.8 
L 339.307642 35.8 
L 341.111128 35.8 
L 342.914614 35.8 
L 344.7181 35.8 
L 346.521586 35.8 
L 348.325072 35.8 
L 350.128558 35.8 
L 351.932044 35.8 
L 353.73553 35.8 
L 355.539016 35.8 
L 357.342502 35.8 
L 359.145988 35.8 
L 360.949474 35.8 
L 362.75296 35.8 
L 364.556447 35.8 
L 366.359933 35.8 
L 368.163419 35.8 
L 369.966905 35.8 
L 371.770391 35.8 
L 373.573877 35.8 
L 375.377363 35.8 
L 377.180849 35.8 
L 378.984335 35.8 
L 380.787821 35.8 
L 382.591307 35.8 
L 384.394793 35.8 
L 386.198279 35.8 
L 388.001765 35.8 
L 389.805251 35.8 
L 391.608737 35.8 
L 393.412223 35.8 
L 395.21571 35.8 
L 397.019196 35.8 
L 398.822682 35.8 
L 400.626168 35.8 
L 402.429654 35.8 
L 404.23314 35.8 
L 406.036626 35.8 
L 407.840112 35.8 
L 409.643598 35.8 
L 411.447084 35.8 
L 413.25057 35.8 
L 415.054056 35.8 
L 416.857542 35.8 
L 418.661028 35.8 
L 420.464514 35.8 
L 422.268 35.8 
L 424.071487 35.8 
L 425.874973 35.8 
L 427.678459 35.8 
L 429.481945 35.8 
L 431.285431 35.8 
L 433.088917 35.8 
L 434.892403 35.8 
L 436.695889 35.8 
L 438.499375 35.8 
" style="fill:none;stroke:#007ec1;stroke-linecap:square;"/>
   </g>
   <g id="line2d_4">
    <path clip-path="url(#p0fbde8185e)" d="M 81.379375 323.8 
L 83.182861 323.8 
L 84.986347 323.8 
L 86.789833 323.8 
L 88.593319 323.8 
L 90.396805 323.8 
L 92.200291 323.8 
L 94.003777 323.8 
L 95.807263 323.8 
L 97.61075 323.8 
L 99.414236 323.8 
L 101.217722 323.8 
L 103.021208 323.8 
L 104.824694 323.8 
L 106.62818 323.8 
L 108.431666 323.8 
L 110.235152 323.8 
L 112.038638 323.8 
L 113.842124 323.8 
L 115.64561 323.8 
L 117.449096 323.8 
L 119.252582 323.8 
L 121.056068 323.8 
L 122.859554 323.8 
L 124.66304 323.8 
L 126.466527 323.8 
L 128.270013 323.8 
L 130.073499 323.8 
L 131.876985 323.8 
L 133.680471 323.8 
L 135.483957 323.8 
L 137.287443 323.8 
L 139.090929 323.8 
L 140.894415 323.8 
L 142.697901 323.8 
L 144.501387 323.8 
L 146.304873 323.8 
L 148.108359 323.8 
L 149.911845 323.8 
L 151.715331 323.8 
L 153.518817 323.8 
L 155.322303 323.8 
L 157.12579 323.8 
L 158.929276 323.8 
L 160.732762 323.8 
L 162.536248 323.8 
L 164.339734 323.8 
L 166.14322 323.8 
L 167.946706 323.8 
L 169.750192 323.8 
L 171.553678 323.8 
L 173.357164 323.8 
L 175.16065 323.8 
L 176.964136 323.8 
L 178.767622 323.8 
L 180.571108 323.8 
L 182.374594 323.8 
L 184.17808 323.8 
L 185.981567 323.8 
L 187.785053 323.8 
L 189.588539 323.8 
L 191.392025 323.8 
L 193.195511 323.8 
L 194.998997 323.8 
L 196.802483 323.8 
L 198.605969 323.8 
L 200.409455 323.8 
L 202.212941 323.8 
L 204.016427 323.8 
L 205.819913 323.8 
L 207.623399 323.8 
L 209.426885 323.8 
L 211.230371 323.8 
L 213.033857 323.8 
L 214.837343 323.8 
L 216.64083 323.8 
L 218.444316 323.8 
L 220.247802 323.8 
L 222.051288 323.8 
L 223.854774 323.8 
L 225.65826 323.8 
L 227.461746 323.8 
L 229.265232 323.8 
L 231.068718 323.8 
L 232.872204 323.8 
L 234.67569 323.8 
L 236.479176 323.8 
L 238.282662 323.8 
L 240.086148 323.8 
L 241.889634 323.8 
L 243.69312 323.8 
L 245.496607 323.8 
L 247.300093 323.8 
L 249.103579 323.8 
L 250.907065 323.8 
L 252.710551 323.8 
L 254.514037 323.8 
L 256.317523 323.8 
L 258.121009 323.8 
L 259.924495 323.8 
" style="fill:none;stroke:#007ec1;stroke-linecap:square;"/>
   </g>
   <g id="line2d_5">
    <defs>
     <path d="M 0 3 
C 0.795609 3 1.55874 2.683901 2.12132 2.12132 
C 2.683901 1.55874 3 0.795609 3 0 
C 3 -0.795609 2.683901 -1.55874 2.12132 -2.12132 
C 1.55874 -2.683901 0.795609 -3 0 -3 
C -0.795609 -3 -1.55874 -2.683901 -2.12132 -2.12132 
C -2.683901 -1.55874 -3 -0.795609 -3 0 
C -3 0.795609 -2.683901 1.55874 -2.12132 2.12132 
C -1.55874 2.683901 -0.795609 3 0 3 
z
" id="m66d740c26f" style="stroke:#000000;stroke-width:0.5;"/>
    </defs>
    <g clip-path="url(#p0fbde8185e)">
     <use style="fill:#007ec1;stroke:#000000;stroke-width:0.5;" x="259.939375" xlink:href="#m66d740c26f" y="179.8"/>
    </g>
   </g>
   <g id="line2d_6">
    <defs>
     <path d="M 0 3 
C 0.795609 3 1.55874 2.683901 2.12132 2.12132 
C 2.683901 1.55874 3 0.795609 3 0 
C 3 -0.795609 2.683901 -1.55874 2.12132 -2.12132 
C 1.55874 -2.683901 0.795609 -3 0 -3 
C -0.795609 -3 -1.55874 -2.683901 -2.12132 -2.12132 
C -2.683901 -1.55874 -3 -0.795609 -3 0 
C -3 0.795609 -2.683901 1.55874 -2.12132 2.12132 
C -1.55874 2.683901 -0.795609 3 0 3 
z
" id="mdbe49fa741" style="stroke:#000000;stroke-width:0.5;"/>
    </defs>
    <g clip-path="url(#p0fbde8185e)">
     <use style="fill:#ffffff;stroke:#000000;stroke-width:0.5;" x="259.939375" xlink:href="#mdbe49fa741" y="35.8"/>
    </g>
   </g>
   <g id="line2d_7">
    <g clip-path="url(#p0fbde8185e)">
     <use style="fill:#ffffff;stroke:#000000;stroke-width:0.5;" x="259.939375" xlink:href="#mdbe49fa741" y="323.8"/>
    </g>
   </g>
   <g id="line2d_8">
    <g clip-path="url(#p0fbde8185e)">
     <use style="fill:#007ec1;stroke:#000000;stroke-width:0.5;" x="259.939375" xlink:href="#m66d740c26f" y="179.8"/>
    </g>
   </g>
   <g id="line2d_9">
    <path clip-path="url(#p0fbde8185e)" d="M 408.739375 179.8 
L 408.739375 35.8 
" style="fill:none;stroke:#000000;stroke-dasharray:6.000000,6.000000;stroke-dashoffset:0.0;"/>
   </g>
   <g id="line2d_10">
    <defs>
     <path d="M 0 3 
C 0.795609 3 1.55874 2.683901 2.12132 2.12132 
C 2.683901 1.55874 3 0.795609 3 0 
C 3 -0.795609 2.683901 -1.55874 2.12132 -2.12132 
C 1.55874 -2.683901 0.795609 -3 0 -3 
C -0.795609 -3 -1.55874 -2.683901 -2.12132 -2.12132 
C -2.683901 -1.55874 -3 -0.795609 -3 0 
C -3 0.795609 -2.683901 1.55874 -2.12132 2.12132 
C -1.55874 2.683901 -0.795609 3 0 3 
z
" id="mb0fa1e33a1" style="stroke:#000000;stroke-width:0.5;"/>
    </defs>
    <g clip-path="url(#p0fbde8185e)">
     <use style="fill:#d77a5a;stroke:#000000;stroke-width:0.5;" x="408.739375" xlink:href="#mb0fa1e33a1" y="35.8"/>
    </g>
   </g>
   <g id="line2d_11">
    <defs>
     <path d="M 0 3 
C 0.795609 3 1.55874 2.683901 2.12132 2.12132 
C 2.683901 1.55874 3 0.795609 3 0 
C 3 -0.795609 2.683901 -1.55874 2.12132 -2.12132 
C 1.55874 -2.683901 0.795609 -3 0 -3 
C -0.795609 -3 -1.55874 -2.683901 -2.12132 -2.12132 
C -2.683901 -1.55874 -3 -0.795609 -3 0 
C -3 0.795609 -2.683901 1.55874 -2.12132 2.12132 
C -1.55874 2.683901 -0.795609 3 0 3 
z
" id="me10c696a9b" style="stroke:#000000;stroke-width:0.5;"/>
    </defs>
    <g clip-path="url(#p0fbde8185e)">
     <use style="fill:#aecc51;stroke:#000000;stroke-width:0.5;" x="408.739375" xlink:href="#me10c696a9b" y="179.8"/>
    </g>
   </g>
   <g id="line2d_12">
    <path clip-path="url(#p0fbde8185e)" d="M 334.339375 179.8 
L 334.339375 35.8 
" style="fill:none;stroke:#000000;stroke-dasharray:6.000000,6.000000;stroke-dashoffset:0.0;"/>
   </g>
   <g id="line2d_13">
    <g clip-path="url(#p0fbde8185e)">
     <use style="fill:#d77a5a;stroke:#000000;stroke-width:0.5;" x="334.339375" xlink:href="#mb0fa1e33a1" y="35.8"/>
    </g>
   </g>
   <g id="line2d_14">
    <g clip-path="url(#p0fbde8185e)">
     <use style="fill:#aecc51;stroke:#000000;stroke-width:0.5;" x="334.339375" xlink:href="#me10c696a9b" y="179.8"/>
    </g>
   </g>
   <g id="line2d_15">
    <path clip-path="url(#p0fbde8185e)" d="M 309.539375 179.8 
L 309.539375 35.8 
" style="fill:none;stroke:#000000;stroke-dasharray:6.000000,6.000000;stroke-dashoffset:0.0;"/>
   </g>
   <g id="line2d_16">
    <g clip-path="url(#p0fbde8185e)">
     <use style="fill:#d77a5a;stroke:#000000;stroke-width:0.5;" x="309.539375" xlink:href="#mb0fa1e33a1" y="35.8"/>
    </g>
   </g>
   <g id="line2d_17">
    <g clip-path="url(#p0fbde8185e)">
     <use style="fill:#aecc51;stroke:#000000;stroke-width:0.5;" x="309.539375" xlink:href="#me10c696a9b" y="179.8"/>
    </g>
   </g>
   <g id="line2d_18">
    <path clip-path="url(#p0fbde8185e)" d="M 297.139375 179.8 
L 297.139375 35.8 
" style="fill:none;stroke:#000000;stroke-dasharray:6.000000,6.000000;stroke-dashoffset:0.0;"/>
   </g>
   <g id="line2d_19">
    <g clip-path="url(#p0fbde8185e)">
     <use style="fill:#d77a5a;stroke:#000000;stroke-width:0.5;" x="297.139375" xlink:href="#mb0fa1e33a1" y="35.8"/>
    </g>
   </g>
   <g id="line2d_20">
    <g clip-path="url(#p0fbde8185e)">
     <use style="fill:#aecc51;stroke:#000000;stroke-width:0.5;" x="297.139375" xlink:href="#me10c696a9b" y="179.8"/>
    </g>
   </g>
   <g id="line2d_21">
    <path clip-path="url(#p0fbde8185e)" d="M 289.699375 179.8 
L 289.699375 35.8 
" style="fill:none;stroke:#000000;stroke-dasharray:6.000000,6.000000;stroke-dashoffset:0.0;"/>
   </g>
   <g id="line2d_22">
    <g clip-path="url(#p0fbde8185e)">
     <use style="fill:#d77a5a;stroke:#000000;stroke-width:0.5;" x="289.699375" xlink:href="#mb0fa1e33a1" y="35.8"/>
    </g>
   </g>
   <g id="line2d_23">
    <g clip-path="url(#p0fbde8185e)">
     <use style="fill:#aecc51;stroke:#000000;stroke-width:0.5;" x="289.699375" xlink:href="#me10c696a9b" y="179.8"/>
    </g>
   </g>
   <g id="text_1">
    <!-- $\operatorname{sgn}\left(\lim_{n\to\infty}\ \frac{1}{n}\right) = \operatorname{sgn}(0)=0$ -->
    <defs>
     <path d="M 2.78125 -7.8125 
Q 2.78125 -4.25 5.359375 -1.578125 
Q 7.953125 1.078125 11.53125 2.203125 
Q 9.515625 3.71875 8.46875 6 
Q 7.421875 8.296875 7.421875 10.890625 
Q 7.421875 15.578125 10.40625 19.1875 
Q 5.8125 23.6875 5.8125 29.5 
Q 5.8125 32.625 7.15625 35.359375 
Q 8.5 38.09375 10.890625 40.09375 
Q 13.28125 42.09375 16.203125 43.140625 
Q 19.140625 44.1875 22.21875 44.1875 
Q 28.171875 44.1875 32.90625 40.71875 
Q 34.96875 42.921875 37.765625 44.109375 
Q 40.578125 45.3125 43.609375 45.3125 
Q 45.75 45.3125 47.109375 43.765625 
Q 48.484375 42.234375 48.484375 40.09375 
Q 48.484375 38.875 47.546875 37.9375 
Q 46.625 37.015625 45.40625 37.015625 
Q 44.140625 37.015625 43.203125 37.9375 
Q 42.28125 38.875 42.28125 40.09375 
Q 42.28125 41.9375 43.5 42.671875 
Q 38.328125 42.671875 34.625 39.109375 
Q 36.421875 37.3125 37.515625 34.6875 
Q 38.625 32.078125 38.625 29.5 
Q 38.625 25.25 36.28125 21.84375 
Q 33.9375 18.453125 30.09375 16.578125 
Q 26.265625 14.703125 22.21875 14.703125 
Q 16.75 14.703125 12.203125 17.671875 
Q 10.796875 15.71875 10.796875 13.28125 
Q 10.796875 10.640625 12.53125 8.65625 
Q 14.265625 6.6875 16.890625 6.6875 
L 25.09375 6.6875 
Q 31.0625 6.6875 35.84375 5.609375 
Q 40.625 4.546875 43.875 1.3125 
Q 47.125 -1.90625 47.125 -7.8125 
Q 47.125 -12.203125 43.40625 -15.109375 
Q 39.703125 -18.015625 34.546875 -19.3125 
Q 29.390625 -20.609375 25 -20.609375 
Q 20.5625 -20.609375 15.375 -19.3125 
Q 10.203125 -18.015625 6.484375 -15.109375 
Q 2.78125 -12.203125 2.78125 -7.8125 
M 8.40625 -7.8125 
Q 8.40625 -11.1875 11.140625 -13.453125 
Q 13.875 -15.71875 17.71875 -16.8125 
Q 21.578125 -17.921875 25 -17.921875 
Q 28.375 -17.921875 32.21875 -16.8125 
Q 36.078125 -15.71875 38.78125 -13.453125 
Q 41.5 -11.1875 41.5 -7.8125 
Q 41.5 -2.59375 36.71875 -1.046875 
Q 31.9375 0.484375 25.09375 0.484375 
L 16.890625 0.484375 
Q 14.59375 0.484375 12.671875 -0.609375 
Q 10.75 -1.703125 9.578125 -3.6875 
Q 8.40625 -5.671875 8.40625 -7.8125 
M 22.21875 17.390625 
Q 30.71875 17.390625 30.71875 29.5 
Q 30.71875 34.71875 28.90625 38.109375 
Q 27.09375 41.5 22.21875 41.5 
Q 17.328125 41.5 15.515625 38.109375 
Q 13.71875 34.71875 13.71875 29.5 
Q 13.71875 26.171875 14.40625 23.484375 
Q 15.09375 20.796875 16.9375 19.09375 
Q 18.796875 17.390625 22.21875 17.390625 
" id="Cmr10-67"/>
     <path d="M 2.984375 0 
L 2.984375 3.515625 
Q 6.390625 3.515625 8.59375 4.046875 
Q 10.796875 4.59375 10.796875 6.6875 
L 10.796875 33.984375 
Q 10.796875 36.671875 9.984375 37.859375 
Q 9.1875 39.0625 7.671875 39.328125 
Q 6.15625 39.59375 2.984375 39.59375 
L 2.984375 43.109375 
L 17.484375 44.1875 
L 17.484375 34.421875 
Q 19.484375 38.71875 23.40625 41.453125 
Q 27.34375 44.1875 31.984375 44.1875 
Q 43.5 44.1875 45.515625 34.8125 
Q 47.515625 39.015625 51.359375 41.59375 
Q 55.21875 44.1875 59.8125 44.1875 
Q 64.359375 44.1875 67.453125 42.71875 
Q 70.5625 41.265625 72.125 38.25 
Q 73.6875 35.25 73.6875 30.71875 
L 73.6875 6.6875 
Q 73.6875 4.59375 75.90625 4.046875 
Q 78.125 3.515625 81.5 3.515625 
L 81.5 0 
L 58.59375 0 
L 58.59375 3.515625 
Q 62.015625 3.515625 64.203125 4.046875 
Q 66.40625 4.59375 66.40625 6.6875 
L 66.40625 30.421875 
Q 66.40625 35.453125 64.984375 38.53125 
Q 63.578125 41.609375 59.1875 41.609375 
Q 53.421875 41.609375 49.65625 36.96875 
Q 45.90625 32.328125 45.90625 26.421875 
L 45.90625 6.6875 
Q 45.90625 4.59375 48.09375 4.046875 
Q 50.296875 3.515625 53.71875 3.515625 
L 53.71875 0 
L 30.8125 0 
L 30.8125 3.515625 
Q 34.234375 3.515625 36.421875 4.046875 
Q 38.625 4.59375 38.625 6.6875 
L 38.625 30.421875 
Q 38.625 35.296875 37.203125 38.453125 
Q 35.796875 41.609375 31.390625 41.609375 
Q 25.59375 41.609375 21.84375 36.96875 
Q 18.109375 32.328125 18.109375 26.421875 
L 18.109375 6.6875 
Q 18.109375 4.59375 20.3125 4.046875 
Q 22.515625 3.515625 25.875 3.515625 
L 25.875 0 
z
" id="Cmr10-6d"/>
     <path d="M 7.515625 13.28125 
Q 6.6875 13.28125 6.140625 13.90625 
Q 5.609375 14.546875 5.609375 15.28125 
Q 5.609375 16.109375 6.140625 16.6875 
Q 6.6875 17.28125 7.515625 17.28125 
L 70.3125 17.28125 
Q 71.046875 17.28125 71.578125 16.6875 
Q 72.125 16.109375 72.125 15.28125 
Q 72.125 14.546875 71.578125 13.90625 
Q 71.046875 13.28125 70.3125 13.28125 
z
M 7.515625 32.71875 
Q 6.6875 32.71875 6.140625 33.296875 
Q 5.609375 33.890625 5.609375 34.71875 
Q 5.609375 35.453125 6.140625 36.078125 
Q 6.6875 36.71875 7.515625 36.71875 
L 70.3125 36.71875 
Q 71.046875 36.71875 71.578125 36.078125 
Q 72.125 35.453125 72.125 34.71875 
Q 72.125 33.890625 71.578125 33.296875 
Q 71.046875 32.71875 70.3125 32.71875 
z
" id="Cmr10-3d"/>
     <path d="M 52.484375 -175.6875 
Q 43.171875 -167.578125 36.546875 -157.265625 
Q 29.9375 -146.96875 25.859375 -135.25 
Q 21.78125 -123.53125 19.890625 -111.171875 
Q 18.015625 -98.828125 18.015625 -85.984375 
Q 18.015625 -73.09375 19.890625 -60.71875 
Q 21.78125 -48.34375 25.859375 -36.625 
Q 29.9375 -24.90625 36.546875 -14.59375 
Q 43.171875 -4.296875 52.484375 3.8125 
Q 52.484375 4 52.984375 4 
L 55.328125 4 
Q 55.609375 4 55.859375 3.6875 
Q 56.109375 3.375 56.109375 3.078125 
Q 56.109375 2.6875 55.90625 2.484375 
Q 47.359375 -6.0625 41.59375 -16.265625 
Q 35.84375 -26.46875 32.375 -38.109375 
Q 28.90625 -49.75 27.4375 -61.6875 
Q 25.984375 -73.640625 25.984375 -86.078125 
Q 25.984375 -98.484375 27.4375 -110.46875 
Q 28.90625 -122.46875 32.375 -133.984375 
Q 35.84375 -145.515625 41.671875 -155.765625 
Q 47.515625 -166.015625 55.90625 -174.421875 
Q 56.109375 -174.609375 56.109375 -175 
Q 56.109375 -175.25 55.828125 -175.5625 
Q 55.5625 -175.875 55.328125 -175.875 
L 52.984375 -175.875 
Q 52.484375 -175.875 52.484375 -175.6875 
" id="Cmex10-b3"/>
     <path d="M 7.515625 23 
Q 6.6875 23 6.140625 23.625 
Q 5.609375 24.265625 5.609375 25 
Q 5.609375 25.734375 6.140625 26.359375 
Q 6.6875 27 7.515625 27 
L 83.40625 27 
Q 79.59375 29.734375 76.65625 33.328125 
Q 73.734375 36.921875 71.78125 41.046875 
Q 69.828125 45.171875 69 49.8125 
Q 69 51.125 70.015625 51.125 
L 72.015625 51.125 
Q 72.359375 51.125 72.625 50.828125 
Q 72.90625 50.53125 73 50.203125 
Q 73.828125 45.90625 75.609375 42.21875 
Q 77.390625 38.53125 80.078125 35.34375 
Q 82.765625 32.171875 86.078125 29.875 
Q 89.40625 27.59375 93.609375 26.125 
Q 94.28125 25.6875 94.28125 25 
Q 94.28125 24.21875 93.609375 24.03125 
Q 88.375 22.21875 84.03125 18.625 
Q 79.6875 15.046875 76.859375 10.1875 
Q 74.03125 5.328125 73 -0.203125 
Q 72.90625 -0.53125 72.609375 -0.828125 
Q 72.3125 -1.125 72.015625 -1.125 
L 70.015625 -1.125 
Q 69 -1.125 69 0.203125 
Q 70.265625 7.03125 74.0625 13.0625 
Q 77.875 19.09375 83.40625 23 
z
" id="Cmsy10-21"/>
     <path d="M 6.5 -25 
Q 5.609375 -25 5.609375 -24.125 
Q 5.609375 -23.6875 5.8125 -23.484375 
Q 22.90625 -6.78125 22.90625 25 
Q 22.90625 56.78125 6 73.296875 
Q 5.609375 73.53125 5.609375 74.125 
Q 5.609375 74.46875 5.875 74.734375 
Q 6.15625 75 6.5 75 
L 7.421875 75 
Q 7.71875 75 7.90625 74.8125 
Q 15.09375 69.140625 19.875 61.03125 
Q 24.65625 52.9375 26.875 43.75 
Q 29.109375 34.578125 29.109375 25 
Q 29.109375 17.921875 27.90625 11.0625 
Q 26.703125 4.203125 24.09375 -2.453125 
Q 21.484375 -9.125 17.484375 -14.765625 
Q 13.484375 -20.40625 7.90625 -24.8125 
Q 7.71875 -25 7.421875 -25 
z
" id="Cmr10-29"/>
     <path d="M 4.390625 -175.875 
Q 3.515625 -175.875 3.515625 -175 
Q 3.515625 -174.609375 3.71875 -174.421875 
Q 12.203125 -165.921875 18.0625 -155.546875 
Q 23.921875 -145.171875 27.296875 -133.84375 
Q 30.671875 -122.515625 32.125 -110.546875 
Q 33.59375 -98.578125 33.59375 -85.890625 
Q 33.59375 -72.90625 32.09375 -61.03125 
Q 30.609375 -49.171875 27.234375 -37.890625 
Q 23.875 -26.609375 18.03125 -16.234375 
Q 12.203125 -5.859375 3.71875 2.484375 
Q 3.515625 2.6875 3.515625 3.078125 
Q 3.515625 4 4.390625 4 
L 6.6875 4 
Q 6.984375 4 7.171875 3.8125 
Q 16.40625 -4.15625 23.09375 -14.578125 
Q 29.78125 -25 33.859375 -36.6875 
Q 37.9375 -48.390625 39.765625 -60.734375 
Q 41.609375 -73.09375 41.609375 -85.984375 
Q 41.609375 -98.828125 39.765625 -111.15625 
Q 37.9375 -123.484375 33.859375 -135.203125 
Q 29.78125 -146.921875 23.09375 -157.3125 
Q 16.40625 -167.71875 7.171875 -175.6875 
Q 6.984375 -175.875 6.6875 -175.875 
z
" id="Cmex10-b4"/>
     <path d="M 7.71875 1.703125 
Q 7.71875 2.296875 7.8125 2.59375 
L 15.28125 32.421875 
Q 16.015625 35.203125 16.015625 37.3125 
Q 16.015625 41.609375 13.09375 41.609375 
Q 9.96875 41.609375 8.453125 37.859375 
Q 6.9375 34.125 5.515625 28.421875 
Q 5.515625 28.125 5.21875 27.953125 
Q 4.9375 27.78125 4.6875 27.78125 
L 3.515625 27.78125 
Q 3.171875 27.78125 2.921875 28.140625 
Q 2.6875 28.515625 2.6875 28.8125 
Q 3.765625 33.15625 4.765625 36.171875 
Q 5.765625 39.203125 7.890625 41.6875 
Q 10.015625 44.1875 13.1875 44.1875 
Q 16.9375 44.1875 19.8125 41.8125 
Q 22.703125 39.453125 22.703125 35.796875 
Q 25.6875 39.703125 29.6875 41.9375 
Q 33.6875 44.1875 38.1875 44.1875 
Q 41.75 44.1875 44.328125 42.96875 
Q 46.921875 41.75 48.359375 39.28125 
Q 49.8125 36.8125 49.8125 33.40625 
Q 49.8125 29.296875 47.96875 23.484375 
Q 46.140625 17.671875 43.40625 10.5 
Q 42 7.234375 42 4.5 
Q 42 1.515625 44.28125 1.515625 
Q 48.1875 1.515625 50.796875 5.703125 
Q 53.421875 9.90625 54.5 14.703125 
Q 54.6875 15.28125 55.328125 15.28125 
L 56.5 15.28125 
Q 56.890625 15.28125 57.15625 15.03125 
Q 57.421875 14.796875 57.421875 14.40625 
Q 57.421875 14.3125 57.328125 14.109375 
Q 55.953125 8.453125 52.5625 3.65625 
Q 49.171875 -1.125 44.09375 -1.125 
Q 40.578125 -1.125 38.078125 1.296875 
Q 35.59375 3.71875 35.59375 7.171875 
Q 35.59375 9.03125 36.375 11.078125 
Q 37.640625 14.359375 39.28125 18.890625 
Q 40.921875 23.4375 41.96875 27.578125 
Q 43.015625 31.734375 43.015625 34.90625 
Q 43.015625 37.703125 41.859375 39.65625 
Q 40.71875 41.609375 37.984375 41.609375 
Q 34.328125 41.609375 31.25 39.984375 
Q 28.171875 38.375 25.875 35.71875 
Q 23.578125 33.0625 21.6875 29.390625 
L 14.890625 2.203125 
Q 14.546875 0.828125 13.34375 -0.140625 
Q 12.15625 -1.125 10.6875 -1.125 
Q 9.46875 -1.125 8.59375 -0.34375 
Q 7.71875 0.4375 7.71875 1.703125 
" id="Cmmi10-6e"/>
     <path d="M 9.28125 0 
L 9.28125 3.515625 
Q 21.78125 3.515625 21.78125 6.6875 
L 21.78125 59.1875 
Q 16.609375 56.6875 8.6875 56.6875 
L 8.6875 60.203125 
Q 20.953125 60.203125 27.203125 66.609375 
L 28.609375 66.609375 
Q 28.953125 66.609375 29.265625 66.328125 
Q 29.59375 66.0625 29.59375 65.71875 
L 29.59375 6.6875 
Q 29.59375 3.515625 42.09375 3.515625 
L 42.09375 0 
z
" id="Cmr10-31"/>
     <path d="M 31 -24.8125 
Q 25.4375 -20.40625 21.40625 -14.71875 
Q 17.390625 -9.03125 14.8125 -2.578125 
Q 12.25 3.859375 10.984375 10.890625 
Q 9.71875 17.921875 9.71875 25 
Q 9.71875 32.171875 10.984375 39.203125 
Q 12.25 46.234375 14.859375 52.734375 
Q 17.484375 59.234375 21.53125 64.890625 
Q 25.59375 70.5625 31 74.8125 
Q 31 75 31.5 75 
L 32.421875 75 
Q 32.71875 75 32.953125 74.734375 
Q 33.203125 74.46875 33.203125 74.125 
Q 33.203125 73.6875 33.015625 73.484375 
Q 28.125 68.703125 24.875 63.234375 
Q 21.625 57.765625 19.640625 51.578125 
Q 17.671875 45.40625 16.796875 38.78125 
Q 15.921875 32.171875 15.921875 25 
Q 15.921875 -6.78125 32.90625 -23.296875 
Q 33.203125 -23.578125 33.203125 -24.125 
Q 33.203125 -24.359375 32.9375 -24.671875 
Q 32.671875 -25 32.421875 -25 
L 31.5 -25 
Q 31 -25 31 -24.8125 
" id="Cmr10-28"/>
     <path d="M 2.984375 0 
L 2.984375 3.515625 
Q 6.390625 3.515625 8.59375 4.046875 
Q 10.796875 4.59375 10.796875 6.6875 
L 10.796875 33.984375 
Q 10.796875 36.671875 9.984375 37.859375 
Q 9.1875 39.0625 7.671875 39.328125 
Q 6.15625 39.59375 2.984375 39.59375 
L 2.984375 43.109375 
L 17.484375 44.1875 
L 17.484375 34.421875 
Q 19.484375 38.71875 23.40625 41.453125 
Q 27.34375 44.1875 31.984375 44.1875 
Q 38.921875 44.1875 42.40625 40.859375 
Q 45.90625 37.546875 45.90625 30.71875 
L 45.90625 6.6875 
Q 45.90625 4.59375 48.09375 4.046875 
Q 50.296875 3.515625 53.71875 3.515625 
L 53.71875 0 
L 30.8125 0 
L 30.8125 3.515625 
Q 34.234375 3.515625 36.421875 4.046875 
Q 38.625 4.59375 38.625 6.6875 
L 38.625 30.421875 
Q 38.625 35.296875 37.203125 38.453125 
Q 35.796875 41.609375 31.390625 41.609375 
Q 25.59375 41.609375 21.84375 36.96875 
Q 18.109375 32.328125 18.109375 26.421875 
L 18.109375 6.6875 
Q 18.109375 4.59375 20.3125 4.046875 
Q 22.515625 3.515625 25.875 3.515625 
L 25.875 0 
z
" id="Cmr10-6e"/>
     <path d="M 3.078125 0 
L 3.078125 3.515625 
Q 6.5 3.515625 8.6875 4.046875 
Q 10.890625 4.59375 10.890625 6.6875 
L 10.890625 33.984375 
Q 10.890625 37.84375 9.390625 38.71875 
Q 7.90625 39.59375 3.515625 39.59375 
L 3.515625 43.109375 
L 17.921875 44.1875 
L 17.921875 6.6875 
Q 17.921875 4.59375 19.828125 4.046875 
Q 21.734375 3.515625 24.90625 3.515625 
L 24.90625 0 
z
M 7.328125 61.375 
Q 7.328125 63.578125 8.984375 65.234375 
Q 10.640625 66.890625 12.796875 66.890625 
Q 14.203125 66.890625 15.515625 66.15625 
Q 16.84375 65.4375 17.578125 64.109375 
Q 18.3125 62.796875 18.3125 61.375 
Q 18.3125 59.234375 16.640625 57.5625 
Q 14.984375 55.90625 12.796875 55.90625 
Q 10.640625 55.90625 8.984375 57.5625 
Q 7.328125 59.234375 7.328125 61.375 
" id="Cmr10-69"/>
     <path d="M 3.078125 0 
L 3.078125 3.515625 
Q 6.5 3.515625 8.6875 4.046875 
Q 10.890625 4.59375 10.890625 6.6875 
L 10.890625 59.1875 
Q 10.890625 61.859375 10.078125 63.0625 
Q 9.28125 64.265625 7.765625 64.53125 
Q 6.25 64.796875 3.078125 64.796875 
L 3.078125 68.3125 
L 17.921875 69.390625 
L 17.921875 6.6875 
Q 17.921875 4.59375 20.109375 4.046875 
Q 22.3125 3.515625 25.6875 3.515625 
L 25.6875 0 
z
" id="Cmr10-6c"/>
     <path d="M 25 -2.203125 
Q 12.75 -2.203125 8.328125 7.875 
Q 3.90625 17.96875 3.90625 31.890625 
Q 3.90625 40.578125 5.484375 48.234375 
Q 7.078125 55.90625 11.78125 61.25 
Q 16.5 66.609375 25 66.609375 
Q 31.59375 66.609375 35.78125 63.375 
Q 39.984375 60.15625 42.1875 55.046875 
Q 44.390625 49.953125 45.1875 44.109375 
Q 46 38.28125 46 31.890625 
Q 46 23.296875 44.40625 15.796875 
Q 42.828125 8.296875 38.1875 3.046875 
Q 33.546875 -2.203125 25 -2.203125 
M 25 0.390625 
Q 30.5625 0.390625 33.296875 6.09375 
Q 36.03125 11.8125 36.671875 18.75 
Q 37.3125 25.6875 37.3125 33.5 
Q 37.3125 41.015625 36.671875 47.359375 
Q 36.03125 53.71875 33.3125 58.859375 
Q 30.609375 64.015625 25 64.015625 
Q 19.34375 64.015625 16.609375 58.828125 
Q 13.875 53.65625 13.234375 47.328125 
Q 12.59375 41.015625 12.59375 33.5 
Q 12.59375 27.9375 12.859375 23 
Q 13.140625 18.0625 14.3125 12.8125 
Q 15.484375 7.5625 18.09375 3.96875 
Q 20.703125 0.390625 25 0.390625 
" id="Cmr10-30"/>
     <path d="M 3.328125 -0.296875 
L 3.328125 16.015625 
Q 3.328125 16.796875 4.203125 16.796875 
L 5.421875 16.796875 
Q 6 16.796875 6.203125 16.015625 
Q 8.984375 1.515625 19.671875 1.515625 
Q 24.421875 1.515625 27.609375 3.65625 
Q 30.8125 5.8125 30.8125 10.296875 
Q 30.8125 13.53125 28.3125 15.796875 
Q 25.828125 18.0625 22.40625 18.890625 
L 15.71875 20.21875 
Q 12.359375 20.953125 9.59375 22.453125 
Q 6.84375 23.96875 5.078125 26.484375 
Q 3.328125 29 3.328125 32.328125 
Q 3.328125 36.71875 5.640625 39.515625 
Q 7.953125 42.328125 11.65625 43.578125 
Q 15.375 44.828125 19.671875 44.828125 
Q 24.8125 44.828125 28.609375 42.09375 
L 31.5 44.578125 
Q 31.5 44.828125 31.984375 44.828125 
L 32.71875 44.828125 
Q 33.015625 44.828125 33.25 44.546875 
Q 33.5 44.28125 33.5 44 
L 33.5 30.90625 
Q 33.5 29.984375 32.71875 29.984375 
L 31.5 29.984375 
Q 30.609375 29.984375 30.609375 30.90625 
Q 30.609375 36.140625 27.703125 39.3125 
Q 24.8125 42.484375 19.578125 42.484375 
Q 15.09375 42.484375 11.796875 40.8125 
Q 8.5 39.15625 8.5 35.109375 
Q 8.5 32.328125 10.859375 30.546875 
Q 13.234375 28.765625 16.40625 27.984375 
L 23.1875 26.703125 
Q 26.609375 25.921875 29.5625 24.0625 
Q 32.515625 22.21875 34.25 19.375 
Q 35.984375 16.546875 35.984375 12.984375 
Q 35.984375 9.375 34.734375 6.703125 
Q 33.5 4.046875 31.265625 2.28125 
Q 29.046875 0.53125 26.015625 -0.296875 
Q 23 -1.125 19.671875 -1.125 
Q 13.421875 -1.125 8.984375 3.078125 
L 5.328125 -0.875 
Q 5.328125 -1.125 4.78125 -1.125 
L 4.203125 -1.125 
Q 3.328125 -1.125 3.328125 -0.296875 
" id="Cmr10-73"/>
     <path d="M 24.609375 -1.125 
Q 18.953125 -1.125 14.578125 2.1875 
Q 10.203125 5.515625 7.90625 10.78125 
Q 5.609375 16.0625 5.609375 21.578125 
Q 5.609375 25.828125 6.953125 29.875 
Q 8.296875 33.9375 10.828125 37.15625 
Q 13.375 40.375 16.96875 42.28125 
Q 20.5625 44.1875 24.90625 44.1875 
Q 29.390625 44.1875 33.59375 42.46875 
Q 37.796875 40.765625 41.28125 37.9375 
Q 44.78125 35.109375 47.796875 31.390625 
L 50.78125 27.390625 
Q 53.765625 32.125 57.375 35.859375 
Q 60.984375 39.59375 65.546875 41.890625 
Q 70.125 44.1875 75.296875 44.1875 
Q 79.640625 44.1875 83.203125 42.25 
Q 86.765625 40.328125 89.25 37 
Q 91.75 33.6875 93.015625 29.65625 
Q 94.28125 25.640625 94.28125 21.578125 
Q 94.28125 15.921875 91.90625 10.671875 
Q 89.546875 5.421875 85.171875 2.140625 
Q 80.8125 -1.125 75 -1.125 
Q 68.453125 -1.125 62.5625 2.390625 
Q 56.6875 5.90625 52.09375 11.71875 
L 49.125 15.71875 
Q 44.53125 8.25 38.296875 3.5625 
Q 32.078125 -1.125 24.609375 -1.125 
M 23.578125 2.390625 
Q 36.28125 2.390625 46.296875 19.390625 
L 41.015625 26.125 
Q 36.421875 32.171875 32.46875 35.59375 
Q 28.515625 39.015625 23.296875 39.015625 
Q 18.84375 39.015625 15.40625 36.5 
Q 11.96875 33.984375 10.078125 29.921875 
Q 8.203125 25.875 8.203125 21.484375 
Q 8.203125 18.109375 9.25 14.71875 
Q 10.296875 11.328125 12.296875 8.546875 
Q 14.3125 5.765625 17.15625 4.078125 
Q 20.015625 2.390625 23.578125 2.390625 
M 58.890625 17 
Q 63.484375 10.9375 67.4375 7.515625 
Q 71.390625 4.109375 76.609375 4.109375 
Q 79.9375 4.109375 82.71875 5.5625 
Q 85.5 7.03125 87.515625 9.515625 
Q 89.546875 12.015625 90.625 15.140625 
Q 91.703125 18.265625 91.703125 21.578125 
Q 91.703125 26.21875 89.84375 30.640625 
Q 87.984375 35.0625 84.484375 37.890625 
Q 81 40.71875 76.3125 40.71875 
Q 63.625 40.71875 53.609375 23.6875 
z
" id="Cmsy10-31"/>
    </defs>
    <g style="fill:#007ec1;" transform="translate(44.179375 204.28)scale(0.2 -0.2)">
     <use transform="translate(0.0 0.8562499999999886)" xlink:href="#Cmr10-73"/>
     <use transform="translate(39.404296875 0.8562499999999886)" xlink:href="#Cmr10-67"/>
     <use transform="translate(89.404296875 0.8562499999999886)" xlink:href="#Cmr10-6e"/>
     <use transform="translate(144.921875 86.21875)scale(0.6933460736622653)" xlink:href="#Cmex10-b3"/>
     <use transform="translate(208.32240295410156 19.60624999999999)" xlink:href="#Cmr10-6c"/>
     <use transform="translate(236.00794982910156 19.60624999999999)" xlink:href="#Cmr10-69"/>
     <use transform="translate(263.69349670410156 19.60624999999999)" xlink:href="#Cmr10-6d"/>
     <use transform="translate(186.32240295410156 -34.931250000000006)scale(0.7)" xlink:href="#Cmmi10-6e"/>
     <use transform="translate(228.32923889160156 -34.931250000000006)scale(0.7)" xlink:href="#Cmsy10-21"/>
     <use transform="translate(298.32923889160156 -34.931250000000006)scale(0.7)" xlink:href="#Cmsy10-31"/>
     <use transform="translate(401.5932691650391 38.356249999999996)scale(0.7)" xlink:href="#Cmr10-31"/>
     <use transform="translate(397.5932691650391 -23.825000000000003)scale(0.7)" xlink:href="#Cmmi10-6e"/>
     <use transform="translate(452.1001051025391 86.21875)scale(0.6933460736622653)" xlink:href="#Cmex10-b4"/>
     <use transform="translate(511.0592268066406 0.8562499999999886)" xlink:href="#Cmr10-3d"/>
     <use transform="translate(606.3033674316406 0.8562499999999886)" xlink:href="#Cmr10-73"/>
     <use transform="translate(645.7076643066406 0.8562499999999886)" xlink:href="#Cmr10-67"/>
     <use transform="translate(695.7076643066406 0.8562499999999886)" xlink:href="#Cmr10-6e"/>
     <use transform="translate(751.2252424316406 0.8562499999999886)" xlink:href="#Cmr10-28"/>
     <use transform="translate(790.0436018066406 0.8562499999999886)" xlink:href="#Cmr10-30"/>
     <use transform="translate(840.0436018066406 0.8562499999999886)" xlink:href="#Cmr10-29"/>
     <use transform="translate(896.4205549316406 0.8562499999999886)" xlink:href="#Cmr10-3d"/>
     <use transform="translate(991.6646955566406 0.8562499999999886)" xlink:href="#Cmr10-30"/>
     <path d="M 397.593269 13.35625 
L 397.593269 19.60625 
L 439.600105 19.60625 
L 439.600105 13.35625 
L 397.593269 13.35625 
z
"/>
    </g>
   </g>
   <g id="text_2">
    <!-- $\lim_{n\to\infty}\ \operatorname{sgn}\left(\frac{1}{n}\right) =1$ -->
    <defs>
     <path d="M 4.984375 -115.921875 
Q 4.109375 -115.921875 4.109375 -114.984375 
Q 4.109375 -114.59375 4.296875 -114.40625 
Q 11.46875 -106.9375 15.640625 -97.4375 
Q 19.828125 -87.9375 21.5 -77.515625 
Q 23.1875 -67.09375 23.1875 -55.90625 
Q 23.1875 -17.046875 4.296875 2.484375 
Q 4.109375 2.6875 4.109375 3.078125 
Q 4.109375 4 4.984375 4 
L 6.203125 4 
Q 6.5 4 6.6875 3.8125 
Q 19 -6.453125 24.75 -22.234375 
Q 30.515625 -38.03125 30.515625 -56 
Q 30.515625 -73.828125 24.78125 -89.59375 
Q 19.046875 -105.375 6.6875 -115.71875 
Q 6.5 -115.921875 6.203125 -115.921875 
z
" id="Cmex10-a2"/>
     <path d="M 39.109375 -115.71875 
Q 26.765625 -105.375 20.96875 -89.59375 
Q 15.1875 -73.828125 15.1875 -56 
Q 15.1875 -38.03125 20.96875 -22.234375 
Q 26.765625 -6.453125 39.109375 3.8125 
Q 39.109375 4 39.59375 4 
L 40.828125 4 
Q 41.109375 4 41.359375 3.6875 
Q 41.609375 3.375 41.609375 3.078125 
Q 41.609375 2.6875 41.40625 2.484375 
Q 35.984375 -3.125 32.296875 -10 
Q 28.609375 -16.890625 26.484375 -24.28125 
Q 24.359375 -31.6875 23.4375 -39.734375 
Q 22.515625 -47.796875 22.515625 -56.109375 
Q 22.515625 -94.875 41.40625 -114.40625 
Q 41.609375 -114.59375 41.609375 -114.984375 
Q 41.609375 -115.28125 41.328125 -115.59375 
Q 41.0625 -115.921875 40.828125 -115.921875 
L 39.59375 -115.921875 
Q 39.109375 -115.921875 39.109375 -115.71875 
" id="Cmex10-a1"/>
    </defs>
    <g style="fill:#d77a5a;" transform="translate(126.019375 21.4)scale(0.2 -0.2)">
     <use transform="translate(22.0 19.609375)" xlink:href="#Cmr10-6c"/>
     <use transform="translate(49.685546875 19.609375)" xlink:href="#Cmr10-69"/>
     <use transform="translate(77.37109375 19.609375)" xlink:href="#Cmr10-6d"/>
     <use transform="translate(0.0 -34.928124999999994)scale(0.7)" xlink:href="#Cmmi10-6e"/>
     <use transform="translate(42.0068359375 -34.928124999999994)scale(0.7)" xlink:href="#Cmsy10-21"/>
     <use transform="translate(112.0068359375 -34.928124999999994)scale(0.7)" xlink:href="#Cmsy10-31"/>
     <use transform="translate(211.2708662109375 0.859375)" xlink:href="#Cmr10-73"/>
     <use transform="translate(250.6751630859375 0.859375)" xlink:href="#Cmr10-67"/>
     <use transform="translate(300.67516308593747 0.859375)" xlink:href="#Cmr10-6e"/>
     <use transform="translate(356.19274121093747 81.3125)scale(0.9138892508143323)" xlink:href="#Cmex10-a1"/>
     <use transform="translate(402.04320507812497 38.35937500000001)scale(0.7)" xlink:href="#Cmr10-31"/>
     <use transform="translate(398.04320507812497 -23.82187499999999)scale(0.7)" xlink:href="#Cmmi10-6e"/>
     <use transform="translate(452.55004101562497 81.3125)scale(0.9138892508143323)" xlink:href="#Cmex10-a2"/>
     <use transform="translate(511.95909863281247 0.859375)" xlink:href="#Cmr10-3d"/>
     <use transform="translate(607.2032392578125 0.859375)" xlink:href="#Cmr10-31"/>
     <path d="M 398.043205 13.359375 
L 398.043205 19.609375 
L 440.050041 19.609375 
L 440.050041 13.359375 
L 398.043205 13.359375 
z
"/>
    </g>
   </g>
   <g id="text_3">
    <!-- $\operatorname{sgn}\left(\frac{1}{n}\right)$ -->
    <g style="fill:#d77a5a;" transform="translate(304.579375 21.4)scale(0.2 -0.2)">
     <use transform="translate(0.0 0.8734374999999943)" xlink:href="#Cmr10-73"/>
     <use transform="translate(39.404296875 0.8734374999999943)" xlink:href="#Cmr10-67"/>
     <use transform="translate(89.404296875 0.8734374999999943)" xlink:href="#Cmr10-6e"/>
     <use transform="translate(144.921875 81.3265625)scale(0.9138892508143323)" xlink:href="#Cmex10-a1"/>
     <use transform="translate(190.7723388671875 38.3734375)scale(0.7)" xlink:href="#Cmr10-31"/>
     <use transform="translate(186.7723388671875 -23.807812499999997)scale(0.7)" xlink:href="#Cmmi10-6e"/>
     <use transform="translate(241.2791748046875 81.3265625)scale(0.9138892508143323)" xlink:href="#Cmex10-a2"/>
     <path d="M 186.772339 13.373437 
L 186.772339 19.623437 
L 228.779175 19.623437 
L 228.779175 13.373437 
L 186.772339 13.373437 
z
"/>
    </g>
   </g>
   <g id="text_4">
    <!-- $\frac{1}{n}$ -->
    <g style="fill:#aecc51;" transform="translate(329.875375 204.28)scale(0.2 -0.2)">
     <use transform="translate(4.0 38.3734375)scale(0.7)" xlink:href="#Cmr10-31"/>
     <use transform="translate(0.0 -23.807812499999997)scale(0.7)" xlink:href="#Cmmi10-6e"/>
     <path d="M 0 13.373437 
L 0 19.623437 
L 42.006836 19.623437 
L 42.006836 13.373437 
L 0 13.373437 
z
"/>
    </g>
   </g>
   <g id="text_5">
    <!-- ... -->
    <defs>
     <path d="M 10.6875 12.40625 
L 21 12.40625 
L 21 0 
L 10.6875 0 
z
" id="BitstreamVeraSans-Roman-2e"/>
    </defs>
    <g transform="translate(265.891375 107.8)scale(0.16 -0.16)">
     <use xlink:href="#BitstreamVeraSans-Roman-2e"/>
     <use x="31.787109375" xlink:href="#BitstreamVeraSans-Roman-2e"/>
     <use x="63.57421875" xlink:href="#BitstreamVeraSans-Roman-2e"/>
    </g>
   </g>
   <g id="text_6">
    <!-- ≠ -->
    <defs>
     <path d="M 10.59375 45.40625 
L 48.296875 45.40625 
L 60.796875 60.796875 
L 66.890625 55.8125 
L 58.40625 45.40625 
L 73.1875 45.40625 
L 73.1875 37.203125 
L 51.703125 37.203125 
L 42.1875 25.484375 
L 73.1875 25.484375 
L 73.1875 17.1875 
L 35.40625 17.1875 
L 22.796875 1.90625 
L 16.703125 6.890625 
L 25.203125 17.1875 
L 10.59375 17.1875 
L 10.59375 25.484375 
L 31.984375 25.484375 
L 41.5 37.203125 
L 10.59375 37.203125 
z
" id="BitstreamVeraSans-Roman-2260"/>
    </defs>
    <g transform="translate(170.659375 113.56)scale(0.16 -0.16)">
     <use xlink:href="#BitstreamVeraSans-Roman-2260"/>
    </g>
   </g>
  </g>
 </g>
 <defs>
  <clipPath id="p0fbde8185e">
   <rect height="345.6" width="446.4" x="36.739375" y="7.0"/>
  </clipPath>
 </defs>
</svg>
