<?xml version="1.0" encoding="UTF-8" standalone="no"?>
<!-- Created with Inkscape (http://www.inkscape.org/) -->

<svg
   xmlns:dc="http://purl.org/dc/elements/1.1/"
   xmlns:cc="http://creativecommons.org/ns#"
   xmlns:rdf="http://www.w3.org/1999/02/22-rdf-syntax-ns#"
   xmlns:svg="http://www.w3.org/2000/svg"
   xmlns="http://www.w3.org/2000/svg"
   xmlns:sodipodi="http://sodipodi.sourceforge.net/DTD/sodipodi-0.dtd"
   xmlns:inkscape="http://www.inkscape.org/namespaces/inkscape"
   sodipodi:docname="Continuous function on compact interval 2.svg"
   inkscape:version="0.91 r13725"
   version="1.1"
   id="svg2"
   viewBox="0 0 508.5254 277.23047"
   height="277.23047"
   width="508.52539">
  <sodipodi:namedview
     inkscape:window-maximized="1"
     inkscape:window-y="24"
     inkscape:window-x="0"
     inkscape:window-height="744"
     inkscape:window-width="1366"
     inkscape:snap-bbox="true"
     inkscape:snap-smooth-nodes="false"
     inkscape:object-nodes="false"
     inkscape:snap-tangential="true"
     inkscape:snap-perpendicular="true"
     objecttolerance="10000"
     guidetolerance="20"
     inkscape:guide-bbox="true"
     showguides="true"
     width="500px"
     units="px"
     showgrid="true"
     inkscape:current-layer="svg2"
     inkscape:document-units="px"
     inkscape:cy="138.61523"
     inkscape:cx="273.36436"
     inkscape:zoom="1.621328"
     inkscape:pageshadow="2"
     inkscape:pageopacity="0.0"
     borderopacity="1.0"
     bordercolor="#666666"
     pagecolor="#ffffff"
     id="base"
     fit-margin-top="10"
     fit-margin-right="10"
     fit-margin-bottom="10"
     fit-margin-left="10">
    <sodipodi:guide
       position="87.878816,28.080107"
       orientation="0,1"
       id="guide4191" />
    <sodipodi:guide
       id="guide4781"
       orientation="1,0"
       position="466.79151,279.80992" />
  </sodipodi:namedview>
  <defs
     id="defs4" />
  <metadata
     id="metadata7">
    <rdf:RDF>
      <cc:Work
         rdf:about="">
        <dc:format>image/svg+xml</dc:format>
        <dc:type
           rdf:resource="http://purl.org/dc/dcmitype/StillImage" />
        <dc:title></dc:title>
      </cc:Work>
    </rdf:RDF>
  </metadata>
  <g
     inkscape:label="Layer 1"
     inkscape:groupmode="layer"
     id="layer1"
     transform="translate(-7.67308,-677.34688)">
    <path
       style="fill:none;fill-rule:evenodd;stroke:#ff6600;stroke-width:0.80000001;stroke-linecap:butt;stroke-linejoin:miter;stroke-miterlimit:4;stroke-dasharray:3.2, 3.2;stroke-dashoffset:0;stroke-opacity:1"
       d="m 405.999,693.21881 0,233.9374"
       id="path4187"
       inkscape:connector-curvature="0" />
    <path
       style="fill:none;fill-rule:evenodd;stroke:#000080;stroke-width:0.80000001;stroke-linecap:butt;stroke-linejoin:miter;stroke-miterlimit:4;stroke-dasharray:3.2, 3.2;stroke-dashoffset:0;stroke-opacity:1"
       d="m 289.2402,855.98652 0,70.51071"
       id="path4189"
       inkscape:connector-curvature="0" />
    <path
       inkscape:connector-curvature="0"
       id="path4589"
       d="m 169.3575,854.62073 307.74299,0"
       style="fill:none;fill-rule:evenodd;stroke:#000080;stroke-width:0.80000001;stroke-linecap:butt;stroke-linejoin:miter;stroke-miterlimit:4;stroke-dasharray:3.2, 3.2;stroke-dashoffset:0;stroke-opacity:1" />
    <path
       style="fill:none;fill-rule:evenodd;stroke:#000080;stroke-width:0.80000001;stroke-linecap:butt;stroke-linejoin:miter;stroke-miterlimit:4;stroke-dasharray:3.2, 3.2;stroke-dashoffset:0;stroke-opacity:1"
       d="m 169.92079,854.66857 0,71.74225"
       id="path4185"
       inkscape:connector-curvature="0" />
    <path
       style="fill:none;fill-rule:evenodd;stroke:#ff6600;stroke-width:0.80000001;stroke-linecap:butt;stroke-linejoin:miter;stroke-miterlimit:4;stroke-dasharray:3.2, 3.2;stroke-dashoffset:0;stroke-opacity:1"
       d="m 65.58,693.21881 0,233.9374"
       id="path4183"
       inkscape:connector-curvature="0" />
    <path
       inkscape:connector-curvature="0"
       id="path4587"
       d="m 63.920923,694.15088 410.543657,0"
       style="fill:none;fill-rule:evenodd;stroke:#ff6600;stroke-width:0.80000001;stroke-linecap:butt;stroke-linejoin:miter;stroke-miterlimit:4;stroke-dasharray:3.2, 3.2;stroke-dashoffset:0;stroke-opacity:1" />
    <path
       style="fill:none;fill-rule:evenodd;stroke:#000000;stroke-width:1px;stroke-linecap:butt;stroke-linejoin:miter;stroke-opacity:1"
       d="m 18.4514,735.39344 c 0,0 25.950663,-44.18541 46.543444,-41.4463 63.438596,8.43815 41.155556,156.6249 105.021636,160.72143 35.23461,2.26004 35.44821,-83.0741 68.79345,-80.54024 33.34524,2.53386 18.38001,79.29968 49.93299,80.49804 66.19546,2.51405 51.38198,-153.52489 117.26261,-160.44598 24.69047,-2.59386 55.64973,50.51425 55.48399,49.68554"
       id="path4144"
       inkscape:connector-curvature="0"
       sodipodi:nodetypes="caazaac" />
    <circle
       style="opacity:1;fill:#ff6600;fill-opacity:1;stroke:none;stroke-width:1.102;stroke-linecap:round;stroke-miterlimit:4;stroke-dasharray:none;stroke-dashoffset:0;stroke-opacity:1"
       id="path4154"
       cx="65.595497"
       cy="694.15088"
       r="4" />
    <circle
       style="opacity:1;fill:#000080;fill-opacity:1;stroke:none;stroke-width:1.102;stroke-linecap:round;stroke-miterlimit:4;stroke-dasharray:none;stroke-dashoffset:0;stroke-opacity:1"
       id="path4154-3"
       cx="169.92079"
       cy="854.62073"
       r="4" />
    <circle
       style="opacity:1;fill:#ff6600;fill-opacity:1;stroke:none;stroke-width:1.102;stroke-linecap:round;stroke-miterlimit:4;stroke-dasharray:none;stroke-dashoffset:0;stroke-opacity:1"
       id="path4154-6"
       cx="406.2384"
       cy="694.15088"
       r="4" />
    <circle
       style="opacity:1;fill:#000080;fill-opacity:1;stroke:none;stroke-width:1.102;stroke-linecap:round;stroke-miterlimit:4;stroke-dasharray:none;stroke-dashoffset:0;stroke-opacity:1"
       id="path4154-7"
       cx="289.2402"
       cy="854.62073"
       r="4" />
    <g
       style="fill:#000080"
       transform="matrix(0.7,0,0,0.7,368.06179,758.81473)"
       id="g4608">
      <g
         style="font-style:normal;font-variant:normal;font-weight:normal;font-stretch:normal;letter-spacing:normal;word-spacing:normal;text-anchor:start;fill:#000080;fill-opacity:1;fill-rule:evenodd;stroke:#000000;stroke-linecap:butt;stroke-linejoin:miter;stroke-miterlimit:10.43299961;stroke-dasharray:none;stroke-dashoffset:0;stroke-opacity:1"
         word-spacing="normal"
         letter-spacing="normal"
         font-size-adjust="none"
         font-stretch="normal"
         font-weight="normal"
         font-variant="normal"
         font-style="normal"
         stroke-miterlimit="10.433"
         xml:space="preserve"
         transform="matrix(0.57142857,0,0,-0.57142857,-100,375)"
         id="content"><path
           style="fill:#000080;stroke-width:0"
           inkscape:connector-curvature="0"
           id="path4611"
           d="m 460.38,408.94 -0.01,-0.07 -0.02,-0.08 -0.01,-0.07 -0.02,-0.08 -0.03,-0.16 -0.04,-0.16 -0.04,-0.16 -0.03,-0.16 -0.04,-0.16 -0.04,-0.16 -0.01,-0.08 -0.02,-0.07 -0.02,-0.07 -0.01,-0.07 -0.02,-0.07 -0.01,-0.07 -0.01,-0.06 -0.02,-0.06 -0.01,-0.05 -0.01,-0.06 -0.01,-0.05 0,-0.04 -0.01,-0.04 0,-0.04 -0.01,-0.03 0,-0.02 c 0,-0.9 0.7,-1.35 1.45,-1.35 0.6,0 1.5,0.4 1.84,1.4 0.05,0.1 0.65,2.44 0.95,3.68 l 1.1,4.49 c 0.29,1.09 0.59,2.19 0.84,3.34 0.2,0.84 0.6,2.28 0.65,2.48 0.75,1.55 3.39,6.08 8.12,6.08 2.24,0 2.69,-1.84 2.69,-3.49 0,-1.24 -0.35,-2.64 -0.75,-4.13 l -1.39,-5.78 -1,-3.79 c -0.2,-0.99 -0.64,-2.68 -0.64,-2.93 0,-0.9 0.69,-1.35 1.44,-1.35 1.54,0 1.84,1.25 2.24,2.84 0.7,2.79 2.54,10.07 2.99,12.01 0.15,0.65 2.79,6.62 8.22,6.62 2.14,0 2.69,-1.69 2.69,-3.49 0,-2.84 -2.1,-8.51 -3.09,-11.15 -0.45,-1.2 -0.65,-1.75 -0.65,-2.74 0,-2.34 1.75,-4.09 4.08,-4.09 4.69,0 6.53,7.28 6.53,7.67 0,0.5 -0.45,0.5 -0.6,0.5 -0.5,0 -0.5,-0.15 -0.74,-0.89 -0.75,-2.64 -2.35,-6.18 -5.08,-6.18 -0.85,0 -1.2,0.5 -1.2,1.64 0,1.25 0.45,2.44 0.9,3.54 0.94,2.59 3.03,8.12 3.03,10.96 0,3.24 -1.99,5.33 -5.72,5.33 -3.74,0 -6.28,-2.2 -8.12,-4.84 -0.05,0.65 -0.2,2.35 -1.6,3.54 -1.24,1.05 -2.84,1.3 -4.08,1.3 -4.48,0 -6.92,-3.19 -7.77,-4.34 -0.25,2.84 -2.34,4.34 -4.58,4.34 -2.3,0 -3.24,-1.95 -3.69,-2.84 -0.9,-1.75 -1.54,-4.68 -1.54,-4.83 0,-0.5 0.49,-0.5 0.59,-0.5 0.5,0 0.55,0.05 0.85,1.14 0.84,3.54 1.84,5.93 3.64,5.93 0.79,0 1.54,-0.4 1.54,-2.29 0,-1.04 -0.15,-1.59 -0.8,-4.18 z" /></g>    </g>
    <g
       style="fill:#ff6600"
       transform="matrix(0.7,0,0,0.7,367.80579,600.85488)"
       id="g4702">
      <g
         style="font-style:normal;font-variant:normal;font-weight:normal;font-stretch:normal;letter-spacing:normal;word-spacing:normal;text-anchor:start;fill:#ff6600;fill-opacity:1;fill-rule:evenodd;stroke:#000000;stroke-linecap:butt;stroke-linejoin:miter;stroke-miterlimit:10.43299961;stroke-dasharray:none;stroke-dashoffset:0;stroke-opacity:1"
         id="g4704"
         transform="matrix(0.57142857,0,0,-0.57142857,-100,375)"
         xml:space="preserve"
         stroke-miterlimit="10.433"
         font-style="normal"
         font-variant="normal"
         font-weight="normal"
         font-stretch="normal"
         font-size-adjust="none"
         letter-spacing="normal"
         word-spacing="normal"><path
           style="fill:#ff6600;stroke-width:0"
           inkscape:connector-curvature="0"
           d="m 502.13,436.19 0.04,0.16 0.04,0.16 0.04,0.15 0.04,0.14 0.04,0.14 0.04,0.12 0.04,0.13 0.05,0.11 0.05,0.11 0.06,0.1 0.06,0.1 0.06,0.09 0.08,0.08 0.08,0.08 0.09,0.08 0.1,0.06 0.1,0.07 0.12,0.05 0.13,0.06 0.14,0.05 0.16,0.04 0.08,0.02 0.08,0.02 0.09,0.01 0.09,0.02 0.1,0.02 0.1,0.01 0.1,0.01 0.11,0.02 0.11,0.01 0.12,0.01 0.12,0.01 0.12,0.01 0.13,0.01 0.13,0 0.14,0.01 0.14,0 0.15,0.01 0.15,0 0.16,0 0.16,0.01 0.17,0 0.17,0 c 1.14,0 1.59,0 1.59,0.99 0,0.55 -0.49,0.55 -1.34,0.55 l -6.57,0 c -1.3,0 -1.35,0 -1.95,-0.95 l -18.18,-28.39 -3.89,28.2 c -0.14,1.14 -0.25,1.14 -1.54,1.14 l -6.82,0 c -0.95,0 -1.5,0 -1.5,-0.95 0,-0.59 0.45,-0.59 1.45,-0.59 0.64,0 1.54,-0.05 2.14,-0.1 0.79,-0.1 1.09,-0.25 1.09,-0.8 0,-0.2 -0.05,-0.35 -0.19,-0.94 l -6.33,-25.36 c -0.5,-1.99 -1.35,-3.58 -5.38,-3.74 -0.25,0 -0.9,-0.04 -0.9,-0.94 0,-0.45 0.3,-0.6 0.7,-0.6 l 10.11,0 c 0.25,0 0.9,0 0.9,1 0,0.54 -0.55,0.54 -0.9,0.54 -2.84,0.05 -3.38,1.05 -3.38,2.19 0,0.36 0.04,0.6 0.19,1.15 l 6.78,27.15 0.05,0 4.28,-30.89 c 0.1,-0.59 0.15,-1.14 0.75,-1.14 0.55,0 0.84,0.55 1.09,0.9 l 20.13,31.53 0.05,0 -7.13,-28.54 c -0.49,-1.95 -0.59,-2.35 -4.53,-2.35 -0.84,0 -1.39,0 -1.39,-0.94 0,-0.6 0.6,-0.6 0.75,-0.6 l 12.4,0 c 0.3,0 0.95,0 0.95,1 0,0.54 -0.45,0.54 -1.4,0.54 -1.84,0 -3.24,0 -3.24,0.9 0,0.2 0,0.3 0.25,1.2 z"
           id="path4706" /></g>    </g>
    <circle
       style="opacity:1;fill:#008000;fill-opacity:1;stroke:none;stroke-width:1.102;stroke-linecap:round;stroke-miterlimit:4;stroke-dasharray:none;stroke-dashoffset:0;stroke-opacity:1"
       id="path4154-6-3"
       cx="116.63921"
       cy="773.94366"
       r="4" />
    <circle
       style="opacity:1;fill:#008000;fill-opacity:1;stroke:none;stroke-width:1.102;stroke-linecap:round;stroke-miterlimit:4;stroke-dasharray:none;stroke-dashoffset:0;stroke-opacity:1"
       id="path4154-6-6"
       cx="238.91679"
       cy="773.94366"
       r="4" />
    <circle
       style="opacity:1;fill:#008000;fill-opacity:1;stroke:none;stroke-width:1.102;stroke-linecap:round;stroke-miterlimit:4;stroke-dasharray:none;stroke-dashoffset:0;stroke-opacity:1"
       id="path4154-6-7"
       cx="348.48434"
       cy="773.94366"
       r="4" />
  </g>
  <g
     style="fill:#000080"
     transform="matrix(0.7,0,0,0.7,42.72771,164.19046)"
     id="g4337">
    <g
       style="font-style:normal;font-variant:normal;font-weight:normal;font-stretch:normal;letter-spacing:normal;word-spacing:normal;text-anchor:start;fill:#000080;fill-opacity:1;fill-rule:evenodd;stroke:#000000;stroke-linecap:butt;stroke-linejoin:miter;stroke-miterlimit:10.43299961;stroke-dasharray:none;stroke-dashoffset:0;stroke-opacity:1"
       word-spacing="normal"
       letter-spacing="normal"
       font-size-adjust="none"
       font-stretch="normal"
       font-weight="normal"
       font-variant="normal"
       font-style="normal"
       stroke-miterlimit="10.433"
       xml:space="preserve"
       transform="matrix(0.57142857,0,0,-0.57142857,-100,375)"
       id="g4339"><path
         style="fill:#000080;stroke-width:0"
         inkscape:connector-curvature="0"
         id="path4341"
         d="m 472.64,421.04 0.03,0.13 0.03,0.15 0.05,0.17 0.04,0.18 0.06,0.19 0.06,0.21 0.06,0.21 0.07,0.23 0.08,0.23 0.09,0.24 0.1,0.25 0.1,0.24 0.11,0.25 0.12,0.25 0.13,0.25 0.14,0.25 0.15,0.24 0.15,0.24 0.17,0.23 0.18,0.22 0.18,0.22 0.2,0.2 0.21,0.19 0.22,0.18 0.23,0.16 0.25,0.14 0.12,0.07 0.13,0.06 0.13,0.05 0.14,0.05 0.14,0.05 0.14,0.04 0.14,0.03 0.15,0.03 0.15,0.02 0.16,0.02 0.16,0.01 0.16,0 c 0.25,0 1.45,0 2.49,-0.65 -1.4,-0.25 -2.39,-1.49 -2.39,-2.68 0,-0.8 0.54,-1.75 1.89,-1.75 1.1,0 2.69,0.9 2.69,2.89 0,2.59 -2.94,3.29 -4.63,3.29 -2.89,0 -4.64,-2.64 -5.23,-3.79 -1.25,3.29 -3.94,3.79 -5.38,3.79 -5.18,0 -8.02,-6.43 -8.02,-7.67 0,-0.5 0.5,-0.5 0.6,-0.5 0.39,0 0.54,0.1 0.64,0.54 1.7,5.29 4.98,6.53 6.68,6.53 0.95,0 2.69,-0.45 2.69,-3.33 0,-1.55 -0.85,-4.89 -2.69,-11.86 -0.8,-3.09 -2.54,-5.18 -4.73,-5.18 -0.3,0 -1.45,0 -2.49,0.65 1.24,0.25 2.34,1.29 2.34,2.69 0,1.34 -1.1,1.74 -1.85,1.74 -1.49,0 -2.73,-1.3 -2.73,-2.89 0,-2.29 2.48,-3.29 4.68,-3.29 3.28,0 5.08,3.49 5.23,3.79 0.6,-1.85 2.39,-3.79 5.38,-3.79 5.13,0 7.97,6.43 7.97,7.67 0,0.5 -0.45,0.5 -0.6,0.5 -0.45,0 -0.55,-0.2 -0.65,-0.55 -1.64,-5.33 -5.03,-6.52 -6.62,-6.52 -1.95,0 -2.74,1.59 -2.74,3.29 0,1.09 0.29,2.19 0.85,4.38 z" /><path
         style="fill:#000080;stroke-width:0"
         inkscape:connector-curvature="0"
         id="path4343"
         d="m 499.13,401.82 -0.01,-0.06 -0.02,-0.07 -0.02,-0.07 -0.02,-0.08 -0.02,-0.07 -0.02,-0.08 -0.04,-0.16 -0.04,-0.16 -0.04,-0.16 -0.04,-0.16 -0.02,-0.07 -0.02,-0.08 -0.02,-0.08 -0.01,-0.07 -0.02,-0.07 -0.02,-0.07 -0.01,-0.07 -0.02,-0.06 -0.01,-0.06 -0.01,-0.06 -0.01,-0.05 -0.02,-0.05 0,-0.04 -0.01,-0.04 -0.01,-0.04 0,-0.03 0,-0.02 -0.01,-0.02 c 0,-0.77 0.63,-1.12 1.19,-1.12 0.63,0 1.19,0.46 1.36,0.77 0.17,0.31 0.45,1.43 0.63,2.16 0.17,0.66 0.56,2.27 0.77,3.14 0.2,0.76 0.41,1.53 0.59,2.33 0.38,1.5 0.38,1.57 1.08,2.65 1.12,1.71 2.86,3.7 5.58,3.7 1.95,0 2.05,-1.6 2.05,-2.44 0,-2.09 -1.5,-5.96 -2.05,-7.43 -0.39,-0.97 -0.52,-1.29 -0.52,-1.88 0,-1.85 1.53,-3 3.31,-3 3.48,0 5.02,4.81 5.02,5.33 0,0.46 -0.45,0.46 -0.56,0.46 -0.49,0 -0.52,-0.21 -0.66,-0.59 -0.81,-2.79 -2.3,-4.22 -3.7,-4.22 -0.73,0 -0.87,0.49 -0.87,1.22 0,0.8 0.17,1.25 0.8,2.82 0.42,1.08 1.85,4.78 1.85,6.73 0,0.56 0,2.03 -1.29,3.04 -0.59,0.45 -1.6,0.94 -3.24,0.94 -3.14,0 -5.06,-2.06 -6.18,-3.52 -0.27,2.96 -2.75,3.52 -4.53,3.52 -2.89,0 -4.84,-1.78 -5.89,-3.18 -0.24,2.41 -2.3,3.18 -3.73,3.18 -1.5,0 -2.3,-1.08 -2.76,-1.88 -0.76,-1.3 -1.25,-3.29 -1.25,-3.46 0,-0.45 0.49,-0.45 0.59,-0.45 0.49,0 0.52,0.11 0.77,1.05 0.52,2.05 1.18,3.76 2.54,3.76 0.91,0 1.16,-0.77 1.16,-1.71 0,-0.66 -0.32,-1.95 -0.56,-2.89 -0.25,-0.94 -0.6,-2.37 -0.77,-3.14 l -1.12,-4.46 c -0.14,-0.46 -0.34,-1.33 -0.34,-1.43 0,-0.77 0.62,-1.12 1.18,-1.12 0.63,0 1.19,0.46 1.36,0.77 0.17,0.31 0.45,1.43 0.63,2.16 0.17,0.66 0.56,2.27 0.76,3.14 0.21,0.76 0.43,1.53 0.6,2.33 0.38,1.43 0.45,1.71 1.46,3.14 0.98,1.4 2.62,3.21 5.23,3.21 2.03,0 2.06,-1.78 2.06,-2.44 0,-0.87 -0.1,-1.32 -0.59,-3.28 z" /></g>  </g>
  <g
     style="fill:#ff6600"
     transform="matrix(0.7,0,0,0.7,-62.83308,164.33046)"
     id="g4395">
    <g
       style="font-style:normal;font-variant:normal;font-weight:normal;font-stretch:normal;letter-spacing:normal;word-spacing:normal;text-anchor:start;fill:#ff6600;fill-opacity:1;fill-rule:evenodd;stroke:#000000;stroke-linecap:butt;stroke-linejoin:miter;stroke-miterlimit:10.43299961;stroke-dasharray:none;stroke-dashoffset:0;stroke-opacity:1"
       id="g4397"
       transform="matrix(0.57142857,0,0,-0.57142857,-100,375)"
       xml:space="preserve"
       stroke-miterlimit="10.433"
       font-style="normal"
       font-variant="normal"
       font-weight="normal"
       font-stretch="normal"
       font-size-adjust="none"
       letter-spacing="normal"
       word-spacing="normal"><path
         style="fill:#ff6600;stroke-width:0"
         inkscape:connector-curvature="0"
         d="m 472.64,421.04 0.03,0.13 0.03,0.15 0.05,0.17 0.04,0.18 0.06,0.19 0.06,0.21 0.06,0.21 0.07,0.23 0.08,0.23 0.09,0.24 0.1,0.25 0.1,0.24 0.11,0.25 0.12,0.25 0.13,0.25 0.14,0.25 0.15,0.24 0.15,0.24 0.17,0.23 0.18,0.22 0.18,0.22 0.2,0.2 0.21,0.19 0.22,0.18 0.23,0.16 0.25,0.14 0.12,0.07 0.13,0.06 0.13,0.05 0.14,0.05 0.14,0.05 0.14,0.04 0.14,0.03 0.15,0.03 0.15,0.02 0.16,0.02 0.16,0.01 0.16,0 c 0.25,0 1.45,0 2.49,-0.65 -1.4,-0.25 -2.39,-1.49 -2.39,-2.68 0,-0.8 0.54,-1.75 1.89,-1.75 1.1,0 2.69,0.9 2.69,2.89 0,2.59 -2.94,3.29 -4.63,3.29 -2.89,0 -4.64,-2.64 -5.23,-3.79 -1.25,3.29 -3.94,3.79 -5.38,3.79 -5.18,0 -8.02,-6.43 -8.02,-7.67 0,-0.5 0.5,-0.5 0.6,-0.5 0.39,0 0.54,0.1 0.64,0.54 1.7,5.29 4.98,6.53 6.68,6.53 0.95,0 2.69,-0.45 2.69,-3.33 0,-1.55 -0.85,-4.89 -2.69,-11.86 -0.8,-3.09 -2.54,-5.18 -4.73,-5.18 -0.3,0 -1.45,0 -2.49,0.65 1.24,0.25 2.34,1.29 2.34,2.69 0,1.34 -1.1,1.74 -1.85,1.74 -1.49,0 -2.73,-1.3 -2.73,-2.89 0,-2.29 2.48,-3.29 4.68,-3.29 3.28,0 5.08,3.49 5.23,3.79 0.6,-1.85 2.39,-3.79 5.38,-3.79 5.13,0 7.97,6.43 7.97,7.67 0,0.5 -0.45,0.5 -0.6,0.5 -0.45,0 -0.55,-0.2 -0.65,-0.55 -1.64,-5.33 -5.03,-6.52 -6.62,-6.52 -1.95,0 -2.74,1.59 -2.74,3.29 0,1.09 0.29,2.19 0.85,4.38 z"
         id="path4399" /><path
         style="fill:#ff6600;stroke-width:0"
         inkscape:connector-curvature="0"
         d="m 519.6,419.99 0.03,0.12 0.03,0.11 0.03,0.11 0.02,0.1 0.03,0.09 0.03,0.1 0.03,0.08 0.03,0.08 0.04,0.08 0.04,0.07 0.04,0.06 0.05,0.06 0.05,0.06 0.05,0.05 0.06,0.05 0.07,0.05 0.08,0.04 0.08,0.04 0.09,0.03 0.1,0.03 0.1,0.03 0.06,0.01 0.06,0.02 0.06,0.01 0.06,0.01 0.07,0.01 0.07,0.01 0.07,0 0.07,0.01 0.08,0.01 0.08,0 0.08,0.01 0.09,0.01 0.09,0 0.09,0 0.1,0.01 0.09,0 0.11,0 0.1,0.01 0.11,0 0.11,0 0.12,0 0.12,0 c 0.73,0 1.18,0 1.18,0.73 0,0.53 -0.42,0.53 -1.05,0.53 l -4.74,0 c -1.01,0 -1.04,-0.04 -1.49,-0.7 L 503,402.24 l -3.45,19.64 c -0.17,0.9 -0.17,0.94 -1.22,0.94 l -4.99,0 c -0.69,0 -1.14,0 -1.14,-0.77 0,-0.49 0.41,-0.49 1.18,-0.49 0.56,0 0.7,0 1.32,-0.07 0.7,-0.07 0.77,-0.14 0.77,-0.49 0,-0.03 0,-0.24 -0.14,-0.77 l -4.39,-17.5 c -0.32,-1.18 -0.84,-2.37 -3.63,-2.48 -0.27,0 -0.73,-0.03 -0.73,-0.76 0,-0.04 0.03,-0.49 0.52,-0.49 l 7.33,0 c 0.17,0 0.69,0 0.69,0.77 0,0.45 -0.45,0.48 -0.76,0.48 -2.24,0.07 -2.24,0.98 -2.24,1.47 0,0.14 0,0.32 0.15,0.87 l 4.63,18.55 0.04,0 3.73,-21.2 c 0.1,-0.63 0.17,-0.94 0.69,-0.94 0.49,0 0.77,0.38 1.02,0.77 l 14.64,21.72 0.03,-0.03 -4.91,-19.74 c -0.28,-1.18 -0.35,-1.47 -3.07,-1.47 -0.63,0 -1.05,0 -1.05,-0.76 0,-0.04 0,-0.49 0.56,-0.49 0.67,0 1.47,0.11 2.17,0.11 0.69,0 1.49,0.03 2.19,0.03 0.98,0 3.46,-0.14 4.43,-0.14 0.21,0 0.73,0 0.73,0.77 0,0.48 -0.42,0.48 -1.12,0.48 -0.03,0 -0.69,0 -1.32,0.07 -0.8,0.07 -0.8,0.18 -0.8,0.53 0,0.21 0.11,0.56 0.14,0.76 z"
         id="path4401" /></g>  </g>
  <g
     style="fill:#ff6600"
     transform="matrix(0.7,0,0,0.7,277.58592,164.33046)"
     id="g4461">
    <g
       style="font-style:normal;font-variant:normal;font-weight:normal;font-stretch:normal;letter-spacing:normal;word-spacing:normal;text-anchor:start;fill:#ff6600;fill-opacity:1;fill-rule:evenodd;stroke:#000000;stroke-linecap:butt;stroke-linejoin:miter;stroke-miterlimit:10.43299961;stroke-dasharray:none;stroke-dashoffset:0;stroke-opacity:1"
       word-spacing="normal"
       letter-spacing="normal"
       font-size-adjust="none"
       font-stretch="normal"
       font-weight="normal"
       font-variant="normal"
       font-style="normal"
       stroke-miterlimit="10.433"
       xml:space="preserve"
       transform="matrix(0.57142857,0,0,-0.57142857,-100,375)"
       id="g4463"><path
         style="fill:#ff6600;stroke-width:0"
         inkscape:connector-curvature="0"
         id="path4465"
         d="m 479.72,438.53 -0.79,0.74 c 0,-0.04 -1.9,-2.39 -4.09,-2.39 -1.14,0 -2.39,0.75 -3.24,1.25 -1.34,0.8 -2.24,1.14 -3.08,1.14 -1.9,0 -2.84,-1.09 -5.39,-3.88 l 0.8,-0.75 c 0,0.05 1.89,2.4 4.09,2.4 1.14,0 2.39,-0.75 3.23,-1.25 1.35,-0.8 2.25,-1.15 3.09,-1.15 1.89,0 2.84,1.1 5.38,3.89 z" /><path
         style="fill:#ff6600;stroke-width:0"
         inkscape:connector-curvature="0"
         id="path4467"
         d="m 472.64,421.04 0.03,0.13 0.03,0.15 0.05,0.17 0.04,0.18 0.06,0.19 0.06,0.21 0.06,0.21 0.07,0.23 0.08,0.23 0.09,0.24 0.1,0.25 0.1,0.24 0.11,0.25 0.12,0.25 0.13,0.25 0.14,0.25 0.15,0.24 0.15,0.24 0.17,0.23 0.18,0.22 0.18,0.22 0.2,0.2 0.21,0.19 0.22,0.18 0.23,0.16 0.25,0.14 0.12,0.07 0.13,0.06 0.13,0.05 0.14,0.05 0.14,0.05 0.14,0.04 0.14,0.03 0.15,0.03 0.15,0.02 0.16,0.02 0.16,0.01 0.16,0 c 0.25,0 1.45,0 2.49,-0.65 -1.4,-0.25 -2.39,-1.49 -2.39,-2.68 0,-0.8 0.54,-1.75 1.89,-1.75 1.1,0 2.69,0.9 2.69,2.89 0,2.59 -2.94,3.29 -4.63,3.29 -2.89,0 -4.64,-2.64 -5.23,-3.79 -1.25,3.29 -3.94,3.79 -5.38,3.79 -5.18,0 -8.02,-6.43 -8.02,-7.67 0,-0.5 0.5,-0.5 0.6,-0.5 0.39,0 0.54,0.1 0.64,0.54 1.7,5.29 4.98,6.53 6.68,6.53 0.95,0 2.69,-0.45 2.69,-3.33 0,-1.55 -0.85,-4.89 -2.69,-11.86 -0.8,-3.09 -2.54,-5.18 -4.73,-5.18 -0.3,0 -1.45,0 -2.49,0.65 1.24,0.25 2.34,1.29 2.34,2.69 0,1.34 -1.1,1.74 -1.85,1.74 -1.49,0 -2.73,-1.3 -2.73,-2.89 0,-2.29 2.48,-3.29 4.68,-3.29 3.28,0 5.08,3.49 5.23,3.79 0.6,-1.85 2.39,-3.79 5.38,-3.79 5.13,0 7.97,6.43 7.97,7.67 0,0.5 -0.45,0.5 -0.6,0.5 -0.45,0 -0.55,-0.2 -0.65,-0.55 -1.64,-5.33 -5.03,-6.52 -6.62,-6.52 -1.95,0 -2.74,1.59 -2.74,3.29 0,1.09 0.29,2.19 0.85,4.38 z" /><path
         style="fill:#ff6600;stroke-width:0"
         inkscape:connector-curvature="0"
         id="path4469"
         d="m 519.6,419.99 0.03,0.12 0.03,0.11 0.03,0.11 0.02,0.1 0.03,0.09 0.03,0.1 0.03,0.08 0.03,0.08 0.04,0.08 0.04,0.07 0.04,0.06 0.05,0.06 0.05,0.06 0.05,0.05 0.06,0.05 0.07,0.05 0.08,0.04 0.08,0.04 0.09,0.03 0.1,0.03 0.1,0.03 0.06,0.01 0.06,0.02 0.06,0.01 0.06,0.01 0.07,0.01 0.07,0.01 0.07,0 0.07,0.01 0.08,0.01 0.08,0 0.08,0.01 0.09,0.01 0.09,0 0.09,0 0.1,0.01 0.09,0 0.11,0 0.1,0.01 0.11,0 0.11,0 0.12,0 0.12,0 c 0.73,0 1.18,0 1.18,0.73 0,0.53 -0.42,0.53 -1.05,0.53 l -4.74,0 c -1.01,0 -1.04,-0.04 -1.49,-0.7 L 503,402.24 l -3.45,19.64 c -0.17,0.9 -0.17,0.94 -1.22,0.94 l -4.99,0 c -0.69,0 -1.14,0 -1.14,-0.77 0,-0.49 0.41,-0.49 1.18,-0.49 0.56,0 0.7,0 1.32,-0.07 0.7,-0.07 0.77,-0.14 0.77,-0.49 0,-0.03 0,-0.24 -0.14,-0.77 l -4.39,-17.5 c -0.32,-1.18 -0.84,-2.37 -3.63,-2.48 -0.27,0 -0.73,-0.03 -0.73,-0.76 0,-0.04 0.03,-0.49 0.52,-0.49 l 7.33,0 c 0.17,0 0.69,0 0.69,0.77 0,0.45 -0.45,0.48 -0.76,0.48 -2.24,0.07 -2.24,0.98 -2.24,1.47 0,0.14 0,0.32 0.15,0.87 l 4.63,18.55 0.04,0 3.73,-21.2 c 0.1,-0.63 0.17,-0.94 0.69,-0.94 0.49,0 0.77,0.38 1.02,0.77 l 14.64,21.72 0.03,-0.03 -4.91,-19.74 c -0.28,-1.18 -0.35,-1.47 -3.07,-1.47 -0.63,0 -1.05,0 -1.05,-0.76 0,-0.04 0,-0.49 0.56,-0.49 0.67,0 1.47,0.11 2.17,0.11 0.69,0 1.49,0.03 2.19,0.03 0.98,0 3.46,-0.14 4.43,-0.14 0.21,0 0.73,0 0.73,0.77 0,0.48 -0.42,0.48 -1.12,0.48 -0.03,0 -0.69,0 -1.32,0.07 -0.8,0.07 -0.8,0.18 -0.8,0.53 0,0.21 0.11,0.56 0.14,0.76 z" /></g>  </g>
  <g
     style="fill:#000080"
     transform="matrix(0.7,0,0,0.7,162.04712,164.19046)"
     id="g4539">
    <g
       style="font-style:normal;font-variant:normal;font-weight:normal;font-stretch:normal;letter-spacing:normal;word-spacing:normal;text-anchor:start;fill:#000080;fill-opacity:1;fill-rule:evenodd;stroke:#000000;stroke-linecap:butt;stroke-linejoin:miter;stroke-miterlimit:10.43299961;stroke-dasharray:none;stroke-dashoffset:0;stroke-opacity:1"
       id="g4541"
       transform="matrix(0.57142857,0,0,-0.57142857,-100,375)"
       xml:space="preserve"
       stroke-miterlimit="10.433"
       font-style="normal"
       font-variant="normal"
       font-weight="normal"
       font-stretch="normal"
       font-size-adjust="none"
       letter-spacing="normal"
       word-spacing="normal"><path
         style="fill:#000080;stroke-width:0"
         inkscape:connector-curvature="0"
         d="m 479.72,438.53 -0.79,0.74 c 0,-0.04 -1.9,-2.39 -4.09,-2.39 -1.14,0 -2.39,0.75 -3.24,1.25 -1.34,0.8 -2.24,1.14 -3.08,1.14 -1.9,0 -2.84,-1.09 -5.39,-3.88 l 0.8,-0.75 c 0,0.05 1.89,2.4 4.09,2.4 1.14,0 2.39,-0.75 3.23,-1.25 1.35,-0.8 2.25,-1.15 3.09,-1.15 1.89,0 2.84,1.1 5.38,3.89 z"
         id="path4543" /><path
         style="fill:#000080;stroke-width:0"
         inkscape:connector-curvature="0"
         d="m 472.64,421.04 0.03,0.13 0.03,0.15 0.05,0.17 0.04,0.18 0.06,0.19 0.06,0.21 0.06,0.21 0.07,0.23 0.08,0.23 0.09,0.24 0.1,0.25 0.1,0.24 0.11,0.25 0.12,0.25 0.13,0.25 0.14,0.25 0.15,0.24 0.15,0.24 0.17,0.23 0.18,0.22 0.18,0.22 0.2,0.2 0.21,0.19 0.22,0.18 0.23,0.16 0.25,0.14 0.12,0.07 0.13,0.06 0.13,0.05 0.14,0.05 0.14,0.05 0.14,0.04 0.14,0.03 0.15,0.03 0.15,0.02 0.16,0.02 0.16,0.01 0.16,0 c 0.25,0 1.45,0 2.49,-0.65 -1.4,-0.25 -2.39,-1.49 -2.39,-2.68 0,-0.8 0.54,-1.75 1.89,-1.75 1.1,0 2.69,0.9 2.69,2.89 0,2.59 -2.94,3.29 -4.63,3.29 -2.89,0 -4.64,-2.64 -5.23,-3.79 -1.25,3.29 -3.94,3.79 -5.38,3.79 -5.18,0 -8.02,-6.43 -8.02,-7.67 0,-0.5 0.5,-0.5 0.6,-0.5 0.39,0 0.54,0.1 0.64,0.54 1.7,5.29 4.98,6.53 6.68,6.53 0.95,0 2.69,-0.45 2.69,-3.33 0,-1.55 -0.85,-4.89 -2.69,-11.86 -0.8,-3.09 -2.54,-5.18 -4.73,-5.18 -0.3,0 -1.45,0 -2.49,0.65 1.24,0.25 2.34,1.29 2.34,2.69 0,1.34 -1.1,1.74 -1.85,1.74 -1.49,0 -2.73,-1.3 -2.73,-2.89 0,-2.29 2.48,-3.29 4.68,-3.29 3.28,0 5.08,3.49 5.23,3.79 0.6,-1.85 2.39,-3.79 5.38,-3.79 5.13,0 7.97,6.43 7.97,7.67 0,0.5 -0.45,0.5 -0.6,0.5 -0.45,0 -0.55,-0.2 -0.65,-0.55 -1.64,-5.33 -5.03,-6.52 -6.62,-6.52 -1.95,0 -2.74,1.59 -2.74,3.29 0,1.09 0.29,2.19 0.85,4.38 z"
         id="path4545" /><path
         style="fill:#000080;stroke-width:0"
         inkscape:connector-curvature="0"
         d="m 499.13,401.82 -0.01,-0.06 -0.02,-0.07 -0.02,-0.07 -0.02,-0.08 -0.02,-0.07 -0.02,-0.08 -0.04,-0.16 -0.04,-0.16 -0.04,-0.16 -0.04,-0.16 -0.02,-0.07 -0.02,-0.08 -0.02,-0.08 -0.01,-0.07 -0.02,-0.07 -0.02,-0.07 -0.01,-0.07 -0.02,-0.06 -0.01,-0.06 -0.01,-0.06 -0.01,-0.05 -0.02,-0.05 0,-0.04 -0.01,-0.04 -0.01,-0.04 0,-0.03 0,-0.02 -0.01,-0.02 c 0,-0.77 0.63,-1.12 1.19,-1.12 0.63,0 1.19,0.46 1.36,0.77 0.17,0.31 0.45,1.43 0.63,2.16 0.17,0.66 0.56,2.27 0.77,3.14 0.2,0.76 0.41,1.53 0.59,2.33 0.38,1.5 0.38,1.57 1.08,2.65 1.12,1.71 2.86,3.7 5.58,3.7 1.95,0 2.05,-1.6 2.05,-2.44 0,-2.09 -1.5,-5.96 -2.05,-7.43 -0.39,-0.97 -0.52,-1.29 -0.52,-1.88 0,-1.85 1.53,-3 3.31,-3 3.48,0 5.02,4.81 5.02,5.33 0,0.46 -0.45,0.46 -0.56,0.46 -0.49,0 -0.52,-0.21 -0.66,-0.59 -0.81,-2.79 -2.3,-4.22 -3.7,-4.22 -0.73,0 -0.87,0.49 -0.87,1.22 0,0.8 0.17,1.25 0.8,2.82 0.42,1.08 1.85,4.78 1.85,6.73 0,0.56 0,2.03 -1.29,3.04 -0.59,0.45 -1.6,0.94 -3.24,0.94 -3.14,0 -5.06,-2.06 -6.18,-3.52 -0.27,2.96 -2.75,3.52 -4.53,3.52 -2.89,0 -4.84,-1.78 -5.89,-3.18 -0.24,2.41 -2.3,3.18 -3.73,3.18 -1.5,0 -2.3,-1.08 -2.76,-1.88 -0.76,-1.3 -1.25,-3.29 -1.25,-3.46 0,-0.45 0.49,-0.45 0.59,-0.45 0.49,0 0.52,0.11 0.77,1.05 0.52,2.05 1.18,3.76 2.54,3.76 0.91,0 1.16,-0.77 1.16,-1.71 0,-0.66 -0.32,-1.95 -0.56,-2.89 -0.25,-0.94 -0.6,-2.37 -0.77,-3.14 l -1.12,-4.46 c -0.14,-0.46 -0.34,-1.33 -0.34,-1.43 0,-0.77 0.62,-1.12 1.18,-1.12 0.63,0 1.19,0.46 1.36,0.77 0.17,0.31 0.45,1.43 0.63,2.16 0.17,0.66 0.56,2.27 0.76,3.14 0.21,0.76 0.43,1.53 0.6,2.33 0.38,1.43 0.45,1.71 1.46,3.14 0.98,1.4 2.62,3.21 5.23,3.21 2.03,0 2.06,-1.78 2.06,-2.44 0,-0.87 -0.1,-1.32 -0.59,-3.28 z"
         id="path4547" /></g>  </g>
  <path
     inkscape:connector-curvature="0"
     id="path4779"
     d="m 10,96.596804 458.17058,0"
     style="fill:none;fill-rule:evenodd;stroke:#008000;stroke-width:1;stroke-linecap:butt;stroke-linejoin:miter;stroke-miterlimit:4;stroke-dasharray:none;stroke-opacity:1" />
  <g
     id="g4894"
     transform="translate(361.25275,-147.3055)"
     style="fill:#008000">
    <g
       word-spacing="normal"
       letter-spacing="normal"
       font-size-adjust="none"
       font-stretch="normal"
       font-weight="normal"
       font-variant="normal"
       font-style="normal"
       stroke-miterlimit="10.433"
       xml:space="preserve"
       transform="matrix(0.39604353,0,0,-0.39604353,-69.307618,410.04652)"
       id="g4896"
       style="font-style:normal;font-variant:normal;font-weight:normal;font-stretch:normal;letter-spacing:normal;word-spacing:normal;text-anchor:start;fill:#008000;fill-opacity:1;fill-rule:evenodd;stroke:#000000;stroke-linecap:butt;stroke-linejoin:miter;stroke-miterlimit:10.43299961;stroke-dasharray:none;stroke-dashoffset:0;stroke-opacity:1"><path
         id="path4898"
         d="m 502.13,436.19 0.04,0.16 0.04,0.16 0.04,0.15 0.04,0.14 0.04,0.14 0.04,0.12 0.04,0.13 0.05,0.11 0.05,0.11 0.06,0.1 0.06,0.1 0.06,0.09 0.08,0.08 0.08,0.08 0.09,0.08 0.1,0.06 0.1,0.07 0.12,0.05 0.13,0.06 0.14,0.05 0.16,0.04 0.08,0.02 0.08,0.02 0.09,0.01 0.09,0.02 0.1,0.02 0.1,0.01 0.1,0.01 0.11,0.02 0.11,0.01 0.12,0.01 0.12,0.01 0.12,0.01 0.13,0.01 0.13,0 0.14,0.01 0.14,0 0.15,0.01 0.15,0 0.16,0 0.16,0.01 0.17,0 0.17,0 c 1.14,0 1.59,0 1.59,0.99 0,0.55 -0.49,0.55 -1.34,0.55 l -6.57,0 c -1.3,0 -1.35,0 -1.95,-0.95 l -18.18,-28.39 -3.89,28.2 c -0.14,1.14 -0.25,1.14 -1.54,1.14 l -6.82,0 c -0.95,0 -1.5,0 -1.5,-0.95 0,-0.59 0.45,-0.59 1.45,-0.59 0.64,0 1.54,-0.05 2.14,-0.1 0.79,-0.1 1.09,-0.25 1.09,-0.8 0,-0.2 -0.05,-0.35 -0.19,-0.94 l -6.33,-25.36 c -0.5,-1.99 -1.35,-3.58 -5.38,-3.74 -0.25,0 -0.9,-0.04 -0.9,-0.94 0,-0.45 0.3,-0.6 0.7,-0.6 l 10.11,0 c 0.25,0 0.9,0 0.9,1 0,0.54 -0.55,0.54 -0.9,0.54 -2.84,0.05 -3.38,1.05 -3.38,2.19 0,0.36 0.04,0.6 0.19,1.15 l 6.78,27.15 0.05,0 4.28,-30.89 c 0.1,-0.59 0.15,-1.14 0.75,-1.14 0.55,0 0.84,0.55 1.09,0.9 l 20.13,31.53 0.05,0 -7.13,-28.54 c -0.49,-1.95 -0.59,-2.35 -4.53,-2.35 -0.84,0 -1.39,0 -1.39,-0.94 0,-0.6 0.6,-0.6 0.75,-0.6 l 12.4,0 c 0.3,0 0.95,0 0.95,1 0,0.54 -0.45,0.54 -1.4,0.54 -1.84,0 -3.24,0 -3.24,0.9 0,0.2 0,0.3 0.25,1.2 z"
         inkscape:connector-curvature="0"
         style="fill:#008000;stroke-width:0" /><path
         id="path4900"
         d="m 521.61,405.35 -1.19,0 c -0.1,-0.77 -0.45,-2.83 -0.9,-3.18 -0.28,-0.21 -2.97,-0.21 -3.45,-0.21 l -6.42,0 c 3.66,3.25 4.88,4.22 6.97,5.86 2.58,2.06 4.99,4.22 4.99,7.54 0,4.21 -3.7,6.79 -8.16,6.79 -4.33,0 -7.25,-3.03 -7.25,-6.24 0,-1.78 1.5,-1.95 1.84,-1.95 0.84,0 1.85,0.59 1.85,1.85 0,0.62 -0.24,1.85 -2.05,1.85 1.08,2.47 3.45,3.24 5.09,3.24 3.48,0 5.3,-2.72 5.3,-5.54 0,-3.04 -2.16,-5.45 -3.28,-6.7 l -8.4,-8.3 c -0.35,-0.31 -0.35,-0.38 -0.35,-1.36 l 14.36,0 z"
         inkscape:connector-curvature="0"
         style="fill:#008000;stroke-width:0" /></g>  </g>
</svg>
