<?xml version="1.0" encoding="UTF-8" standalone="no"?>
<!-- Created with Serif DrawPlus 11, 0, 3, 23 (Feb 25, 14:12:55) (http://www.serif.com) -->
<svg version="1.1" xmlns="http://www.w3.org/2000/svg" xmlns:xlink="http://www.w3.org/1999/xlink" width="270.841" height="292.737">
	<g id="dp_group001" transform="matrix(1,0,0,1,-128.623,-445.204)">
		<path id="dp_path002" fill="none" fill-rule="evenodd" stroke="black" stroke-width="1.33333" d="M 149.4,445.671 L 149.4,737.671"/>
		<path id="dp_path003" fill="none" fill-rule="evenodd" stroke="black" stroke-width="1.33333" d="M 128.623,714.719 L 399,714.719"/>
		<path id="dp_path004" fill="none" fill-rule="evenodd" stroke="black" stroke-width="1.33333" d="M 149.401,445.665 L 143.8,451.519"/>
		<path id="dp_path005" fill="none" fill-rule="evenodd" stroke="black" stroke-width="1.33333" d="M 149.4,445.671 L 155.001,451.524"/>
		<path id="dp_path006" fill="none" fill-rule="evenodd" stroke="black" stroke-width="1.33333" d="M 399.001,714.72 L 393.148,709.119"/>
		<path id="dp_path007" fill="none" fill-rule="evenodd" stroke="black" stroke-width="1.33333" d="M 398.999,714.719 L 393.145,720.32"/>
		<path id="dp_path008" fill="none" fill-rule="evenodd" stroke="#006667" stroke-width="1.33333" d="M 285.073,605.104 L 285.073,469.167"/>
		<path id="dp_path009" fill="none" fill-rule="evenodd" stroke="#026602" stroke-width="0.666667" d="M 257.272,605.087 C 257.272,592.013 249.575,580.164 237.627,574.848 L 224.164,605.087 Z "/>
		<path id="dp_path010" fill="black" fill-rule="evenodd" d="M 235.727,469.848 C 235.724,469.745 235.688,469.681 235.621,469.659 C 235.556,469.636 235.481,469.628 235.403,469.631 C 235.28,469.625 235.195,469.644 235.151,469.685 C 235.107,469.728 235.06,469.833 235.013,469.999 C 234.707,470.928 234.317,471.611 233.847,472.051 C 233.375,472.492 232.904,472.711 232.433,472.707 C 232.203,472.72 231.977,472.629 231.763,472.435 C 231.547,472.241 231.431,471.871 231.415,471.32 C 231.421,471.048 231.469,470.711 231.555,470.307 C 231.644,469.905 231.733,469.513 231.828,469.133 L 232.565,466.168 C 232.713,465.579 232.941,465.052 233.249,464.588 C 233.559,464.123 233.965,463.879 234.472,463.851 C 234.519,463.845 234.641,463.859 234.841,463.889 C 235.044,463.921 235.237,464.009 235.424,464.153 C 235.009,464.293 234.757,464.493 234.667,464.756 C 234.577,465.017 234.541,465.164 234.559,465.195 C 234.555,465.345 234.611,465.497 234.727,465.645 C 234.841,465.795 235.039,465.876 235.316,465.887 C 235.531,465.892 235.756,465.805 235.992,465.629 C 236.228,465.453 236.356,465.156 236.376,464.74 C 236.365,464.376 236.248,464.096 236.028,463.9 C 235.807,463.703 235.551,463.567 235.26,463.492 C 234.969,463.416 234.713,463.383 234.493,463.385 C 234.096,463.395 233.751,463.492 233.461,463.672 C 233.171,463.855 232.932,464.059 232.751,464.285 C 232.568,464.513 232.44,464.7 232.368,464.848 C 232.107,464.22 231.768,463.815 231.352,463.631 C 230.937,463.447 230.581,463.367 230.288,463.385 C 229.745,463.399 229.265,463.548 228.851,463.835 C 228.436,464.121 228.088,464.463 227.805,464.86 C 227.524,465.259 227.311,465.632 227.167,465.98 C 227.023,466.328 226.951,466.572 226.951,466.708 C 226.957,466.813 226.997,466.876 227.072,466.897 C 227.147,466.921 227.213,466.931 227.275,466.925 C 227.407,466.932 227.493,466.915 227.535,466.871 C 227.575,466.829 227.617,466.725 227.664,466.557 C 227.973,465.631 228.368,464.947 228.847,464.507 C 229.329,464.065 229.793,463.848 230.244,463.851 C 230.561,463.855 230.815,463.973 231,464.209 C 231.185,464.444 231.281,464.78 231.285,465.216 C 231.277,465.492 231.227,465.855 231.129,466.301 C 231.035,466.748 230.933,467.179 230.829,467.597 L 230.331,469.567 C 230.219,470.048 230.083,470.529 229.92,471.007 C 229.757,471.484 229.541,471.883 229.275,472.205 C 229.005,472.527 228.656,472.695 228.227,472.707 C 228.183,472.712 228.061,472.7 227.865,472.669 C 227.668,472.636 227.472,472.548 227.275,472.403 C 227.595,472.305 227.816,472.149 227.94,471.94 C 228.065,471.729 228.124,471.539 228.119,471.364 C 228.107,471.088 228.017,470.903 227.856,470.807 C 227.695,470.709 227.536,470.664 227.384,470.672 C 227.103,470.675 226.853,470.78 226.639,470.987 C 226.427,471.195 226.312,471.479 226.301,471.84 C 226.317,472.265 226.511,472.593 226.88,472.823 C 227.249,473.053 227.692,473.171 228.205,473.172 C 228.727,473.152 229.164,472.989 229.52,472.685 C 229.875,472.38 230.145,472.056 230.331,471.709 C 230.571,472.308 230.897,472.707 231.312,472.901 C 231.725,473.099 232.085,473.188 232.389,473.172 C 232.949,473.16 233.436,473.007 233.853,472.715 C 234.272,472.421 234.619,472.076 234.896,471.672 C 235.173,471.269 235.381,470.897 235.52,470.551 C 235.659,470.204 235.727,469.971 235.727,469.848 Z "/>
		<path id="dp_path011" fill="black" fill-rule="evenodd" d="M 263.133,473.003 L 265.253,464.48 C 265.267,464.413 265.28,464.356 265.295,464.304 C 265.309,464.251 265.319,464.209 265.319,464.177 C 265.32,464.049 265.273,463.927 265.177,463.808 C 265.083,463.691 264.927,463.628 264.713,463.619 C 264.397,463.64 264.181,463.752 264.064,463.952 C 263.948,464.152 263.884,464.305 263.869,464.416 L 262.289,470.78 C 262.237,471.001 262.111,471.261 261.913,471.559 C 261.713,471.856 261.449,472.119 261.125,472.347 C 260.8,472.573 260.425,472.695 259.999,472.707 C 259.525,472.681 259.211,472.492 259.052,472.141 C 258.893,471.789 258.821,471.421 258.832,471.039 C 258.852,470.356 258.992,469.584 259.257,468.727 C 259.52,467.867 259.799,467.056 260.085,466.297 C 260.171,466.076 260.24,465.876 260.291,465.697 C 260.339,465.519 260.364,465.329 260.364,465.129 C 260.355,464.583 260.199,464.157 259.893,463.851 C 259.589,463.547 259.2,463.389 258.725,463.385 C 258.224,463.403 257.799,463.568 257.447,463.887 C 257.093,464.204 256.809,464.576 256.591,465 C 256.371,465.423 256.212,465.801 256.111,466.135 C 256.011,466.469 255.96,466.66 255.961,466.708 C 255.967,466.813 256.008,466.876 256.083,466.9 C 256.156,466.921 256.225,466.931 256.287,466.927 C 256.42,466.931 256.508,466.911 256.553,466.867 C 256.597,466.823 256.637,466.727 256.676,466.579 C 256.731,466.336 256.837,466 256.995,465.575 C 257.152,465.149 257.368,464.761 257.644,464.409 C 257.921,464.059 258.268,463.873 258.683,463.851 C 258.804,463.843 258.915,463.876 259.011,463.953 C 259.104,464.031 259.155,464.208 259.16,464.48 C 259.156,464.735 259.108,465.019 259.012,465.331 C 258.916,465.645 258.792,466.009 258.639,466.428 C 258.347,467.197 258.091,467.952 257.869,468.696 C 257.647,469.439 257.529,470.096 257.519,470.672 C 257.547,471.6 257.803,472.252 258.289,472.628 C 258.773,473.004 259.324,473.187 259.935,473.172 C 260.432,473.157 260.845,473.06 261.173,472.881 C 261.501,472.705 261.737,472.537 261.879,472.383 C 261.597,473.561 261.253,474.481 260.847,475.141 C 260.44,475.803 260.02,476.264 259.585,476.527 C 259.149,476.791 258.749,476.916 258.379,476.908 C 258.039,476.897 257.769,476.824 257.573,476.689 C 257.379,476.552 257.24,476.412 257.159,476.264 C 257.079,476.116 257.04,476.019 257.043,475.973 C 257.04,475.972 257.051,475.964 257.072,475.948 C 257.093,475.935 257.143,475.92 257.216,475.909 C 257.547,475.839 257.787,475.696 257.931,475.476 C 258.075,475.257 258.147,475.055 258.143,474.867 C 258.137,474.637 258.064,474.464 257.923,474.348 C 257.78,474.231 257.611,474.172 257.411,474.171 C 257.251,474.156 257.035,474.231 256.764,474.396 C 256.492,474.56 256.34,474.937 256.311,475.523 C 256.323,476.091 256.519,476.541 256.901,476.869 C 257.281,477.197 257.775,477.367 258.381,477.373 C 259.139,477.359 259.843,477.14 260.496,476.719 C 261.148,476.296 261.705,475.756 262.167,475.096 C 262.628,474.433 262.953,473.74 263.14,473.013 Z "/>
		<path id="dp_path012" fill="black" fill-rule="evenodd" d="M 277.416,467.531 C 277.432,466.664 277.343,465.635 277.149,464.44 C 276.955,463.247 276.569,462.027 275.988,460.781 C 275.541,459.893 275.072,459.147 274.584,458.545 C 274.093,457.941 273.664,457.485 273.295,457.179 C 272.925,456.871 272.699,456.715 272.613,456.715 C 272.547,456.715 272.495,456.735 272.457,456.775 C 272.417,456.812 272.397,456.865 272.397,456.932 C 272.388,456.955 272.404,456.999 272.448,457.057 C 272.491,457.117 272.609,457.241 272.808,457.429 C 273.876,458.504 274.7,459.891 275.28,461.587 C 275.86,463.285 276.155,465.267 276.161,467.531 C 276.183,469.405 275.939,471.232 275.427,473.012 C 274.912,474.791 273.996,476.376 272.679,477.763 C 272.543,477.888 272.46,477.973 272.432,478.02 C 272.403,478.067 272.389,478.103 272.397,478.129 C 272.397,478.196 272.417,478.249 272.457,478.287 C 272.495,478.327 272.547,478.347 272.613,478.347 C 272.7,478.347 272.935,478.184 273.316,477.863 C 273.699,477.543 274.14,477.069 274.641,476.443 C 275.141,475.817 275.612,475.045 276.053,474.129 C 276.592,472.927 276.959,471.757 277.149,470.619 C 277.341,469.481 277.429,468.452 277.416,467.531 Z "/>
		<path id="dp_path013" fill="black" fill-rule="evenodd" d="M 225.332,478.129 C 225.341,478.105 225.325,478.063 225.287,478.005 C 225.249,477.948 225.141,477.831 224.964,477.653 C 224.072,476.733 223.377,475.7 222.883,474.555 C 222.388,473.408 222.043,472.231 221.849,471.021 C 221.655,469.812 221.56,468.647 221.568,467.531 C 221.548,465.627 221.795,463.788 222.312,462.017 C 222.829,460.245 223.743,458.673 225.051,457.3 C 225.187,457.173 225.269,457.088 225.299,457.041 C 225.327,456.995 225.34,456.959 225.332,456.932 C 225.332,456.856 225.312,456.8 225.273,456.765 C 225.235,456.732 225.183,456.713 225.116,456.715 C 225.029,456.715 224.795,456.877 224.413,457.199 C 224.031,457.519 223.589,457.992 223.088,458.619 C 222.588,459.244 222.117,460.016 221.676,460.932 C 221.137,462.135 220.771,463.305 220.58,464.443 C 220.389,465.58 220.3,466.609 220.313,467.531 C 220.297,468.397 220.387,469.428 220.58,470.621 C 220.775,471.815 221.16,473.035 221.741,474.281 C 222.188,475.168 222.657,475.915 223.145,476.516 C 223.636,477.12 224.065,477.576 224.435,477.883 C 224.804,478.191 225.031,478.347 225.116,478.347 C 225.183,478.348 225.235,478.331 225.273,478.296 C 225.312,478.261 225.332,478.205 225.332,478.129 Z "/>
		<path id="dp_path014" fill="black" fill-rule="evenodd" d="M 244.237,472.525 L 243.879,472.525 C 243.844,472.756 243.8,472.999 243.748,473.253 C 243.696,473.507 243.635,473.696 243.563,473.817 C 243.52,473.856 243.411,473.883 243.233,473.899 C 243.057,473.916 242.868,473.925 242.668,473.929 C 242.467,473.932 242.308,473.933 242.193,473.933 L 239.595,473.933 L 241.124,472.44 C 241.872,471.789 242.475,471.239 242.932,470.788 C 243.391,470.336 243.724,469.915 243.932,469.523 C 244.14,469.131 244.241,468.701 244.237,468.231 C 244.221,467.396 243.932,466.725 243.372,466.22 C 242.811,465.713 242.08,465.453 241.181,465.44 C 240.635,465.449 240.16,465.579 239.759,465.829 C 239.356,466.081 239.044,466.405 238.823,466.799 C 238.601,467.193 238.488,467.608 238.487,468.044 C 238.495,468.308 238.557,468.496 238.673,468.612 C 238.791,468.725 238.911,468.796 239.032,468.821 C 239.153,468.845 239.227,468.856 239.249,468.849 C 239.387,468.856 239.541,468.801 239.715,468.689 C 239.888,468.579 239.981,468.377 239.997,468.087 C 239.997,467.892 239.933,467.72 239.805,467.572 C 239.676,467.424 239.487,467.345 239.235,467.339 C 239.179,467.337 239.139,467.339 239.115,467.34 C 239.089,467.341 239.067,467.345 239.047,467.353 C 239.221,466.881 239.481,466.519 239.831,466.267 C 240.18,466.013 240.568,465.887 240.995,465.883 C 241.433,465.889 241.795,466.005 242.08,466.229 C 242.368,466.453 242.58,466.743 242.721,467.097 C 242.861,467.452 242.931,467.829 242.931,468.231 C 242.916,468.815 242.763,469.381 242.469,469.927 C 242.177,470.473 241.825,470.971 241.417,471.423 L 238.644,474.507 C 238.568,474.576 238.523,474.641 238.505,474.701 C 238.488,474.763 238.483,474.875 238.487,475.036 L 243.837,475.036 Z "/>
		<path id="dp_path015" fill="black" fill-rule="evenodd" d="M 271.237,472.525 L 270.879,472.525 C 270.844,472.756 270.8,472.999 270.748,473.253 C 270.696,473.507 270.635,473.696 270.563,473.817 C 270.52,473.856 270.411,473.883 270.233,473.899 C 270.057,473.916 269.868,473.925 269.668,473.929 C 269.467,473.932 269.308,473.933 269.193,473.933 L 266.595,473.933 L 268.124,472.44 C 268.872,471.789 269.475,471.239 269.932,470.788 C 270.391,470.336 270.724,469.915 270.932,469.523 C 271.14,469.131 271.241,468.701 271.237,468.231 C 271.221,467.396 270.932,466.725 270.372,466.22 C 269.811,465.713 269.08,465.453 268.181,465.44 C 267.635,465.449 267.16,465.579 266.759,465.829 C 266.356,466.081 266.044,466.405 265.823,466.799 C 265.601,467.193 265.488,467.608 265.487,468.044 C 265.495,468.308 265.557,468.496 265.673,468.612 C 265.791,468.725 265.911,468.796 266.032,468.821 C 266.153,468.845 266.227,468.856 266.249,468.849 C 266.387,468.856 266.541,468.801 266.715,468.689 C 266.888,468.579 266.981,468.377 266.997,468.087 C 266.997,467.892 266.933,467.72 266.805,467.572 C 266.676,467.424 266.487,467.345 266.235,467.339 C 266.179,467.337 266.139,467.339 266.115,467.34 C 266.089,467.341 266.067,467.345 266.047,467.353 C 266.221,466.881 266.481,466.519 266.831,466.267 C 267.18,466.013 267.568,465.887 267.995,465.883 C 268.433,465.889 268.795,466.005 269.08,466.229 C 269.368,466.453 269.58,466.743 269.721,467.097 C 269.861,467.452 269.931,467.829 269.931,468.231 C 269.916,468.815 269.763,469.381 269.469,469.927 C 269.177,470.473 268.825,470.971 268.417,471.423 L 265.644,474.507 C 265.568,474.576 265.523,474.641 265.505,474.701 C 265.488,474.763 265.483,474.875 265.487,475.036 L 270.837,475.036 Z "/>
		<path id="dp_path016" fill="black" fill-rule="evenodd" d="M 249.543,472.916 C 249.541,472.219 249.419,471.668 249.181,471.267 C 248.943,470.864 248.604,470.659 248.169,470.652 C 247.789,470.664 247.504,470.783 247.311,471.012 C 247.119,471.241 247.023,471.501 247.023,471.795 C 247.021,472.088 247.115,472.348 247.304,472.577 C 247.492,472.805 247.78,472.925 248.169,472.937 C 248.332,472.937 248.487,472.907 248.635,472.848 C 248.78,472.787 248.915,472.701 249.035,472.593 C 249.049,473.447 248.921,474.208 248.651,474.877 C 248.379,475.548 248.001,476.136 247.52,476.644 C 247.457,476.705 247.416,476.751 247.396,476.78 C 247.376,476.808 247.367,476.843 247.369,476.883 C 247.371,476.959 247.392,477.017 247.436,477.059 C 247.479,477.1 247.528,477.12 247.585,477.12 C 247.689,477.115 247.899,476.936 248.207,476.585 C 248.517,476.233 248.813,475.743 249.095,475.113 C 249.373,474.487 249.525,473.752 249.543,472.916 Z "/>
		<path id="dp_path017" fill="black" fill-rule="evenodd" d="M 176.977,600.016 C 176.975,599.913 176.939,599.849 176.872,599.827 C 176.807,599.804 176.732,599.796 176.653,599.799 C 176.531,599.793 176.445,599.812 176.401,599.853 C 176.357,599.896 176.311,600.001 176.264,600.167 C 175.957,601.096 175.568,601.779 175.097,602.219 C 174.625,602.66 174.155,602.879 173.684,602.875 C 173.453,602.888 173.228,602.797 173.013,602.603 C 172.797,602.409 172.681,602.039 172.665,601.488 C 172.672,601.216 172.72,600.879 172.805,600.475 C 172.895,600.073 172.984,599.681 173.079,599.301 L 173.816,596.336 C 173.964,595.747 174.192,595.22 174.5,594.756 C 174.809,594.291 175.216,594.047 175.723,594.019 C 175.769,594.013 175.892,594.027 176.092,594.057 C 176.295,594.089 176.488,594.177 176.675,594.321 C 176.26,594.461 176.008,594.661 175.917,594.924 C 175.828,595.185 175.792,595.332 175.809,595.363 C 175.805,595.513 175.861,595.665 175.977,595.813 C 176.092,595.963 176.289,596.044 176.567,596.055 C 176.781,596.06 177.007,595.973 177.243,595.797 C 177.479,595.621 177.607,595.324 177.627,594.908 C 177.616,594.544 177.499,594.264 177.279,594.068 C 177.057,593.871 176.801,593.735 176.511,593.66 C 176.22,593.584 175.964,593.551 175.744,593.553 C 175.347,593.563 175.001,593.66 174.712,593.84 C 174.421,594.023 174.183,594.227 174.001,594.453 C 173.819,594.681 173.691,594.868 173.619,595.016 C 173.357,594.388 173.019,593.983 172.603,593.799 C 172.188,593.615 171.832,593.535 171.539,593.553 C 170.996,593.567 170.516,593.716 170.101,594.003 C 169.687,594.289 169.339,594.631 169.056,595.028 C 168.775,595.427 168.561,595.8 168.417,596.148 C 168.273,596.496 168.201,596.74 168.201,596.876 C 168.208,596.981 168.248,597.044 168.323,597.065 C 168.397,597.089 168.464,597.099 168.525,597.093 C 168.657,597.1 168.744,597.083 168.785,597.039 C 168.825,596.997 168.868,596.893 168.915,596.725 C 169.224,595.799 169.619,595.115 170.097,594.675 C 170.58,594.233 171.044,594.016 171.495,594.019 C 171.812,594.023 172.065,594.141 172.251,594.377 C 172.436,594.612 172.532,594.948 172.536,595.384 C 172.528,595.66 172.477,596.023 172.38,596.469 C 172.285,596.916 172.184,597.347 172.08,597.765 L 171.581,599.735 C 171.469,600.216 171.333,600.697 171.171,601.175 C 171.008,601.652 170.792,602.051 170.525,602.373 C 170.256,602.695 169.907,602.863 169.477,602.875 C 169.433,602.88 169.312,602.868 169.116,602.837 C 168.919,602.804 168.723,602.716 168.525,602.571 C 168.845,602.473 169.067,602.317 169.191,602.108 C 169.316,601.897 169.375,601.707 169.369,601.532 C 169.357,601.256 169.268,601.071 169.107,600.975 C 168.945,600.877 168.787,600.832 168.635,600.84 C 168.353,600.843 168.104,600.948 167.889,601.155 C 167.677,601.363 167.563,601.647 167.552,602.008 C 167.568,602.433 167.761,602.761 168.131,602.991 C 168.5,603.221 168.943,603.339 169.456,603.34 C 169.977,603.32 170.415,603.157 170.771,602.853 C 171.125,602.548 171.396,602.224 171.581,601.877 C 171.821,602.476 172.148,602.875 172.563,603.069 C 172.976,603.267 173.336,603.356 173.64,603.34 C 174.2,603.328 174.687,603.175 175.104,602.883 C 175.523,602.589 175.869,602.244 176.147,601.84 C 176.424,601.437 176.632,601.065 176.771,600.719 C 176.909,600.372 176.977,600.139 176.977,600.016 Z "/>
		<path id="dp_path018" fill="black" fill-rule="evenodd" d="M 204.384,603.171 L 206.504,594.648 C 206.517,594.581 206.531,594.524 206.545,594.472 C 206.56,594.419 206.569,594.377 206.569,594.345 C 206.571,594.217 206.524,594.095 206.428,593.976 C 206.333,593.859 206.177,593.796 205.964,593.787 C 205.648,593.808 205.432,593.92 205.315,594.12 C 205.199,594.32 205.135,594.473 205.12,594.584 L 203.54,600.948 C 203.488,601.169 203.361,601.429 203.164,601.727 C 202.964,602.024 202.7,602.287 202.376,602.515 C 202.051,602.741 201.676,602.863 201.249,602.875 C 200.776,602.849 200.461,602.66 200.303,602.309 C 200.144,601.957 200.072,601.589 200.083,601.207 C 200.103,600.524 200.243,599.752 200.508,598.895 C 200.771,598.035 201.049,597.224 201.336,596.465 C 201.421,596.244 201.491,596.044 201.541,595.865 C 201.589,595.687 201.615,595.497 201.615,595.297 C 201.605,594.751 201.449,594.325 201.144,594.019 C 200.84,593.715 200.451,593.557 199.976,593.553 C 199.475,593.571 199.049,593.736 198.697,594.055 C 198.344,594.372 198.06,594.744 197.841,595.168 C 197.621,595.591 197.463,595.969 197.361,596.303 C 197.261,596.637 197.211,596.828 197.212,596.876 C 197.217,596.981 197.259,597.044 197.333,597.068 C 197.407,597.089 197.476,597.099 197.537,597.095 C 197.671,597.099 197.759,597.079 197.804,597.035 C 197.848,596.991 197.888,596.895 197.927,596.747 C 197.981,596.504 198.088,596.168 198.245,595.743 C 198.403,595.317 198.619,594.929 198.895,594.577 C 199.172,594.227 199.519,594.041 199.933,594.019 C 200.055,594.011 200.165,594.044 200.261,594.121 C 200.355,594.199 200.405,594.376 200.411,594.648 C 200.407,594.903 200.359,595.187 200.263,595.499 C 200.167,595.813 200.043,596.177 199.889,596.596 C 199.597,597.365 199.341,598.12 199.12,598.864 C 198.897,599.607 198.78,600.264 198.769,600.84 C 198.797,601.768 199.053,602.42 199.54,602.796 C 200.024,603.172 200.575,603.355 201.185,603.34 C 201.683,603.325 202.096,603.228 202.424,603.049 C 202.752,602.873 202.988,602.705 203.129,602.551 C 202.848,603.729 202.504,604.649 202.097,605.309 C 201.691,605.971 201.271,606.432 200.836,606.695 C 200.4,606.959 200,607.084 199.629,607.076 C 199.289,607.065 199.02,606.992 198.824,606.857 C 198.629,606.72 198.491,606.58 198.409,606.432 C 198.329,606.284 198.291,606.187 198.293,606.141 C 198.291,606.14 198.301,606.132 198.323,606.116 C 198.344,606.103 198.393,606.088 198.467,606.077 C 198.797,606.007 199.037,605.864 199.181,605.644 C 199.325,605.425 199.397,605.223 199.393,605.035 C 199.388,604.805 199.315,604.632 199.173,604.516 C 199.031,604.399 198.861,604.34 198.661,604.339 C 198.501,604.324 198.285,604.399 198.015,604.564 C 197.743,604.728 197.591,605.105 197.561,605.691 C 197.573,606.259 197.769,606.709 198.152,607.037 C 198.532,607.365 199.025,607.535 199.632,607.541 C 200.389,607.527 201.093,607.308 201.747,606.887 C 202.399,606.464 202.956,605.924 203.417,605.264 C 203.879,604.601 204.204,603.908 204.391,603.181 Z "/>
		<path id="dp_path019" fill="black" fill-rule="evenodd" d="M 218.667,597.699 C 218.683,596.832 218.593,595.803 218.4,594.608 C 218.205,593.415 217.82,592.195 217.239,590.949 C 216.792,590.061 216.323,589.315 215.835,588.713 C 215.344,588.109 214.915,587.653 214.545,587.347 C 214.176,587.039 213.949,586.883 213.864,586.883 C 213.797,586.883 213.745,586.903 213.708,586.943 C 213.668,586.98 213.648,587.033 213.648,587.1 C 213.639,587.123 213.655,587.167 213.699,587.225 C 213.741,587.285 213.86,587.409 214.059,587.597 C 215.127,588.672 215.951,590.059 216.531,591.755 C 217.111,593.453 217.405,595.435 217.412,597.699 C 217.433,599.573 217.189,601.4 216.677,603.18 C 216.163,604.959 215.247,606.544 213.929,607.931 C 213.793,608.056 213.711,608.141 213.683,608.188 C 213.653,608.235 213.64,608.271 213.648,608.297 C 213.648,608.364 213.668,608.417 213.708,608.455 C 213.745,608.495 213.797,608.515 213.864,608.515 C 213.951,608.515 214.185,608.352 214.567,608.031 C 214.949,607.711 215.391,607.237 215.892,606.611 C 216.392,605.985 216.863,605.213 217.304,604.297 C 217.843,603.095 218.209,601.925 218.4,600.787 C 218.592,599.649 218.68,598.62 218.667,597.699 Z "/>
		<path id="dp_path020" fill="black" fill-rule="evenodd" d="M 166.583,608.297 C 166.592,608.273 166.576,608.231 166.537,608.173 C 166.5,608.116 166.392,607.999 166.215,607.821 C 165.323,606.901 164.628,605.868 164.133,604.723 C 163.639,603.576 163.293,602.399 163.1,601.189 C 162.905,599.98 162.811,598.815 162.819,597.699 C 162.799,595.795 163.045,593.956 163.563,592.185 C 164.08,590.413 164.993,588.841 166.301,587.468 C 166.437,587.341 166.52,587.256 166.549,587.209 C 166.577,587.163 166.591,587.127 166.583,587.1 C 166.583,587.024 166.563,586.968 166.524,586.933 C 166.485,586.9 166.433,586.881 166.367,586.883 C 166.28,586.883 166.045,587.045 165.664,587.367 C 165.281,587.687 164.84,588.16 164.339,588.787 C 163.839,589.412 163.368,590.184 162.927,591.1 C 162.388,592.303 162.021,593.473 161.831,594.611 C 161.64,595.748 161.551,596.777 161.564,597.699 C 161.548,598.565 161.637,599.596 161.831,600.789 C 162.025,601.983 162.411,603.203 162.992,604.449 C 163.439,605.336 163.908,606.083 164.396,606.684 C 164.887,607.288 165.316,607.744 165.685,608.051 C 166.055,608.359 166.281,608.515 166.367,608.515 C 166.433,608.516 166.485,608.499 166.524,608.464 C 166.563,608.429 166.583,608.373 166.583,608.297 Z "/>
		<path id="dp_path021" fill="black" fill-rule="evenodd" d="M 185.056,605.204 L 185.056,604.763 L 184.595,604.763 C 184.169,604.764 183.863,604.743 183.671,604.701 C 183.48,604.659 183.36,604.587 183.313,604.487 C 183.267,604.385 183.247,604.245 183.255,604.071 L 183.255,595.984 C 183.261,595.816 183.247,595.711 183.212,595.665 C 183.179,595.621 183.081,595.603 182.923,595.608 C 182.617,595.911 182.292,596.127 181.947,596.26 C 181.603,596.391 181.281,596.469 180.987,596.499 C 180.689,596.528 180.46,596.539 180.299,596.533 L 180.299,596.976 C 180.456,596.984 180.713,596.968 181.071,596.929 C 181.425,596.892 181.799,596.783 182.188,596.604 L 182.188,604.071 C 182.195,604.243 182.176,604.379 182.128,604.48 C 182.081,604.581 181.961,604.655 181.771,604.697 C 181.58,604.743 181.272,604.764 180.847,604.763 L 180.385,604.763 L 180.385,605.204 C 180.561,605.192 180.796,605.18 181.087,605.175 C 181.377,605.168 181.672,605.165 181.971,605.164 C 182.271,605.163 182.52,605.161 182.721,605.163 C 182.921,605.161 183.171,605.163 183.471,605.164 C 183.769,605.165 184.064,605.168 184.355,605.175 C 184.645,605.18 184.88,605.192 185.056,605.204 Z "/>
		<path id="dp_path022" fill="black" fill-rule="evenodd" d="M 212.056,605.204 L 212.056,604.763 L 211.595,604.763 C 211.169,604.764 210.863,604.743 210.671,604.701 C 210.48,604.659 210.36,604.587 210.313,604.487 C 210.267,604.385 210.247,604.245 210.255,604.071 L 210.255,595.984 C 210.261,595.816 210.247,595.711 210.212,595.665 C 210.179,595.621 210.081,595.603 209.923,595.608 C 209.617,595.911 209.292,596.127 208.947,596.26 C 208.603,596.391 208.281,596.469 207.987,596.499 C 207.689,596.528 207.46,596.539 207.299,596.533 L 207.299,596.976 C 207.456,596.984 207.713,596.968 208.071,596.929 C 208.425,596.892 208.799,596.783 209.188,596.604 L 209.188,604.071 C 209.195,604.243 209.176,604.379 209.128,604.48 C 209.081,604.581 208.961,604.655 208.771,604.697 C 208.58,604.743 208.272,604.764 207.847,604.763 L 207.385,604.763 L 207.385,605.204 C 207.561,605.192 207.796,605.18 208.087,605.175 C 208.377,605.168 208.672,605.165 208.971,605.164 C 209.271,605.163 209.52,605.161 209.721,605.163 C 209.921,605.161 210.171,605.163 210.471,605.164 C 210.769,605.165 211.064,605.168 211.355,605.175 C 211.645,605.18 211.88,605.192 212.056,605.204 Z "/>
		<path id="dp_path023" fill="black" fill-rule="evenodd" d="M 190.793,603.084 C 190.792,602.387 190.669,601.836 190.432,601.435 C 190.193,601.032 189.855,600.827 189.42,600.82 C 189.04,600.832 188.755,600.951 188.561,601.18 C 188.369,601.409 188.273,601.669 188.273,601.963 C 188.272,602.256 188.365,602.516 188.555,602.745 C 188.743,602.973 189.031,603.093 189.42,603.105 C 189.583,603.105 189.737,603.075 189.885,603.016 C 190.031,602.955 190.165,602.869 190.285,602.761 C 190.3,603.615 190.172,604.376 189.901,605.045 C 189.629,605.716 189.252,606.304 188.771,606.812 C 188.708,606.873 188.667,606.919 188.647,606.948 C 188.627,606.976 188.617,607.011 188.62,607.051 C 188.621,607.127 188.643,607.185 188.687,607.227 C 188.729,607.268 188.779,607.288 188.836,607.288 C 188.94,607.283 189.149,607.104 189.457,606.753 C 189.768,606.401 190.064,605.911 190.345,605.281 C 190.624,604.655 190.776,603.92 190.793,603.084 Z "/>
		<path id="dp_path024" fill="#026602" fill-rule="evenodd" d="M 245.199,587.991 C 245.127,587.701 245.033,587.417 244.917,587.137 C 244.801,586.856 244.651,586.608 244.463,586.391 C 244.276,586.175 244.056,585.999 243.803,585.861 C 243.551,585.724 243.252,585.656 242.905,585.656 C 242.559,585.656 242.228,585.724 241.911,585.861 C 241.593,585.999 241.289,586.175 241.001,586.391 C 240.713,586.608 240.439,586.856 240.179,587.137 C 239.92,587.417 239.681,587.701 239.465,587.991 C 238.816,588.841 238.297,589.725 237.908,590.64 C 237.519,591.556 237.208,592.481 236.977,593.419 C 236.732,594.356 236.577,595.283 236.512,596.197 C 236.448,597.113 236.523,597.996 236.74,598.848 C 236.812,599.136 236.909,599.417 237.032,599.689 C 237.155,599.963 237.305,600.208 237.485,600.425 C 237.667,600.641 237.883,600.817 238.135,600.955 C 238.387,601.092 238.687,601.16 239.033,601.16 C 239.379,601.16 239.711,601.092 240.028,600.955 C 240.345,600.817 240.652,600.641 240.948,600.425 C 241.243,600.208 241.521,599.963 241.78,599.689 C 242.04,599.417 242.277,599.136 242.495,598.848 C 243.129,597.996 243.641,597.113 244.031,596.197 C 244.42,595.283 244.737,594.356 244.983,593.419 C 245.213,592.481 245.361,591.556 245.425,590.64 C 245.491,589.725 245.415,588.841 245.199,587.991 Z M 243.987,588.161 C 244.059,588.943 244.016,589.744 243.857,590.568 C 243.699,591.392 243.519,592.231 243.316,593.084 L 238.795,593.084 C 238.996,592.231 239.228,591.392 239.487,590.568 C 239.747,589.744 240.107,588.943 240.569,588.161 C 240.9,587.613 241.243,587.136 241.596,586.732 C 241.949,586.327 242.351,586.124 242.797,586.124 C 243.013,586.124 243.193,586.179 243.337,586.287 C 243.483,586.395 243.597,586.543 243.684,586.732 C 243.771,586.92 243.836,587.136 243.879,587.381 C 243.923,587.628 243.959,587.888 243.987,588.161 Z M 243.143,593.751 C 242.941,594.601 242.711,595.435 242.451,596.248 C 242.192,597.063 241.831,597.867 241.369,598.66 C 241.052,599.207 240.713,599.683 240.352,600.085 C 239.992,600.489 239.595,600.692 239.163,600.692 C 238.947,600.692 238.763,600.637 238.611,600.529 C 238.46,600.421 238.34,600.273 238.253,600.085 C 238.167,599.899 238.099,599.683 238.048,599.437 C 237.997,599.192 237.965,598.933 237.951,598.66 C 237.893,597.867 237.94,597.063 238.092,596.248 C 238.243,595.435 238.42,594.601 238.621,593.751 Z "/>
		<path id="dp_path025" fill="#69056b" fill-rule="evenodd" d="M 241.292,630.995 L 233.805,615.959 C 233.72,615.8 233.589,615.721 233.416,615.721 L 233.221,615.721 C 233.035,615.721 232.904,615.8 232.832,615.959 L 225.347,630.995 C 225.317,631.052 225.317,631.107 225.347,631.157 C 225.376,631.208 225.427,631.233 225.499,631.233 L 241.14,631.233 C 241.212,631.233 241.263,631.208 241.292,631.157 C 241.32,631.107 241.32,631.052 241.292,630.995 Z M 238.631,629.7 L 226.732,629.7 L 232.681,617.757 Z "/>
		<path id="dp_path026" fill="#69056b" fill-rule="evenodd" d="M 252.849,628.141 C 252.847,628.039 252.811,627.975 252.744,627.952 C 252.679,627.929 252.604,627.921 252.525,627.924 C 252.403,627.919 252.317,627.937 252.273,627.979 C 252.229,628.021 252.183,628.127 252.136,628.292 C 251.829,629.221 251.44,629.904 250.969,630.344 C 250.497,630.785 250.027,631.004 249.556,631 C 249.325,631.013 249.1,630.923 248.885,630.728 C 248.669,630.535 248.553,630.164 248.537,629.613 C 248.544,629.341 248.592,629.004 248.677,628.6 C 248.767,628.199 248.856,627.807 248.951,627.427 L 249.688,624.461 C 249.836,623.872 250.064,623.345 250.372,622.881 C 250.681,622.416 251.088,622.172 251.595,622.144 C 251.641,622.139 251.764,622.152 251.964,622.183 C 252.167,622.215 252.36,622.303 252.547,622.447 C 252.132,622.587 251.88,622.787 251.789,623.049 C 251.7,623.311 251.664,623.457 251.681,623.488 C 251.677,623.639 251.733,623.791 251.849,623.939 C 251.964,624.088 252.161,624.169 252.439,624.18 C 252.653,624.185 252.879,624.099 253.115,623.923 C 253.351,623.747 253.479,623.449 253.499,623.033 C 253.488,622.669 253.371,622.389 253.151,622.193 C 252.929,621.996 252.673,621.86 252.383,621.785 C 252.092,621.709 251.836,621.676 251.616,621.679 C 251.219,621.688 250.873,621.785 250.584,621.965 C 250.293,622.148 250.055,622.352 249.873,622.579 C 249.691,622.807 249.563,622.993 249.491,623.141 C 249.229,622.513 248.891,622.108 248.475,621.924 C 248.06,621.74 247.704,621.66 247.411,621.679 C 246.868,621.692 246.388,621.841 245.973,622.128 C 245.559,622.415 245.211,622.756 244.928,623.153 C 244.647,623.552 244.433,623.925 244.289,624.273 C 244.145,624.621 244.073,624.865 244.073,625.001 C 244.08,625.107 244.12,625.169 244.195,625.191 C 244.269,625.215 244.336,625.224 244.397,625.219 C 244.529,625.225 244.616,625.208 244.657,625.164 C 244.697,625.123 244.74,625.019 244.787,624.851 C 245.096,623.924 245.491,623.24 245.969,622.8 C 246.452,622.359 246.916,622.141 247.367,622.144 C 247.684,622.148 247.937,622.267 248.123,622.503 C 248.308,622.737 248.404,623.073 248.408,623.509 C 248.4,623.785 248.349,624.148 248.252,624.595 C 248.157,625.041 248.056,625.472 247.952,625.891 L 247.453,627.86 C 247.341,628.341 247.205,628.823 247.043,629.3 C 246.88,629.777 246.664,630.176 246.397,630.499 C 246.128,630.82 245.779,630.988 245.349,631 C 245.305,631.005 245.184,630.993 244.988,630.963 C 244.791,630.929 244.595,630.841 244.397,630.696 C 244.717,630.599 244.939,630.443 245.063,630.233 C 245.188,630.023 245.247,629.832 245.241,629.657 C 245.229,629.381 245.14,629.196 244.979,629.1 C 244.817,629.003 244.659,628.957 244.507,628.965 C 244.225,628.968 243.976,629.073 243.761,629.28 C 243.549,629.488 243.435,629.772 243.424,630.133 C 243.44,630.559 243.633,630.887 244.003,631.116 C 244.372,631.347 244.815,631.464 245.328,631.465 C 245.849,631.445 246.287,631.283 246.643,630.979 C 246.997,630.673 247.268,630.349 247.453,630.003 C 247.693,630.601 248.02,631 248.435,631.195 C 248.848,631.392 249.208,631.481 249.512,631.465 C 250.072,631.453 250.559,631.3 250.976,631.008 C 251.395,630.715 251.741,630.369 252.019,629.965 C 252.296,629.563 252.504,629.191 252.643,628.844 C 252.781,628.497 252.849,628.264 252.849,628.141 Z "/>
		<path id="dp_path027" fill="#69056b" fill-rule="evenodd" d="M 272.019,624.685 C 272.019,624.569 271.975,624.468 271.888,624.381 C 271.801,624.295 271.701,624.252 271.585,624.252 L 258.085,624.252 C 257.971,624.252 257.869,624.295 257.783,624.381 C 257.696,624.468 257.653,624.569 257.653,624.685 C 257.653,624.8 257.696,624.901 257.783,624.988 C 257.869,625.075 257.971,625.117 258.085,625.117 L 271.585,625.117 C 271.701,625.117 271.801,625.075 271.888,624.988 C 271.975,624.901 272.019,624.8 272.019,624.685 Z M 272.019,628.868 C 272.019,628.752 271.975,628.651 271.888,628.564 C 271.801,628.477 271.701,628.435 271.585,628.435 L 258.085,628.435 C 257.971,628.435 257.869,628.477 257.783,628.564 C 257.696,628.651 257.653,628.752 257.653,628.868 C 257.653,628.983 257.696,629.084 257.783,629.171 C 257.869,629.257 257.971,629.3 258.085,629.3 L 271.585,629.3 C 271.701,629.3 271.801,629.257 271.888,629.171 C 271.975,629.084 272.019,628.983 272.019,628.868 Z "/>
		<path id="dp_path028" fill="#69056b" fill-rule="evenodd" d="M 283.977,628.016 C 283.975,627.913 283.939,627.849 283.872,627.827 C 283.807,627.804 283.732,627.796 283.653,627.799 C 283.531,627.793 283.445,627.812 283.401,627.853 C 283.357,627.896 283.311,628.001 283.264,628.167 C 282.957,629.096 282.568,629.779 282.097,630.219 C 281.625,630.66 281.155,630.879 280.684,630.875 C 280.453,630.888 280.228,630.797 280.013,630.603 C 279.797,630.409 279.681,630.039 279.665,629.488 C 279.672,629.216 279.72,628.879 279.805,628.475 C 279.895,628.073 279.984,627.681 280.079,627.301 L 280.816,624.336 C 280.964,623.747 281.192,623.22 281.5,622.756 C 281.809,622.291 282.216,622.047 282.723,622.019 C 282.769,622.013 282.892,622.027 283.092,622.057 C 283.295,622.089 283.488,622.177 283.675,622.321 C 283.26,622.461 283.008,622.661 282.917,622.924 C 282.828,623.185 282.792,623.332 282.809,623.363 C 282.805,623.513 282.861,623.665 282.977,623.813 C 283.092,623.963 283.289,624.044 283.567,624.055 C 283.781,624.06 284.007,623.973 284.243,623.797 C 284.479,623.621 284.607,623.324 284.627,622.908 C 284.616,622.544 284.499,622.264 284.279,622.068 C 284.057,621.871 283.801,621.735 283.511,621.66 C 283.22,621.584 282.964,621.551 282.744,621.553 C 282.347,621.563 282.001,621.66 281.712,621.84 C 281.421,622.023 281.183,622.227 281.001,622.453 C 280.819,622.681 280.691,622.868 280.619,623.016 C 280.357,622.388 280.019,621.983 279.603,621.799 C 279.188,621.615 278.832,621.535 278.539,621.553 C 277.996,621.567 277.516,621.716 277.101,622.003 C 276.687,622.289 276.339,622.631 276.056,623.028 C 275.775,623.427 275.561,623.8 275.417,624.148 C 275.273,624.496 275.201,624.74 275.201,624.876 C 275.208,624.981 275.248,625.044 275.323,625.065 C 275.397,625.089 275.464,625.099 275.525,625.093 C 275.657,625.1 275.744,625.083 275.785,625.039 C 275.825,624.997 275.868,624.893 275.915,624.725 C 276.224,623.799 276.619,623.115 277.097,622.675 C 277.58,622.233 278.044,622.016 278.495,622.019 C 278.812,622.023 279.065,622.141 279.251,622.377 C 279.436,622.612 279.532,622.948 279.536,623.384 C 279.528,623.66 279.477,624.023 279.38,624.469 C 279.285,624.916 279.184,625.347 279.08,625.765 L 278.581,627.735 C 278.469,628.216 278.333,628.697 278.171,629.175 C 278.008,629.652 277.792,630.051 277.525,630.373 C 277.256,630.695 276.907,630.863 276.477,630.875 C 276.433,630.88 276.312,630.868 276.116,630.837 C 275.919,630.804 275.723,630.716 275.525,630.571 C 275.845,630.473 276.067,630.317 276.191,630.108 C 276.316,629.897 276.375,629.707 276.369,629.532 C 276.357,629.256 276.268,629.071 276.107,628.975 C 275.945,628.877 275.787,628.832 275.635,628.84 C 275.353,628.843 275.104,628.948 274.889,629.155 C 274.677,629.363 274.563,629.647 274.552,630.008 C 274.568,630.433 274.761,630.761 275.131,630.991 C 275.5,631.221 275.943,631.339 276.456,631.34 C 276.977,631.32 277.415,631.157 277.771,630.853 C 278.125,630.548 278.396,630.224 278.581,629.877 C 278.821,630.476 279.148,630.875 279.563,631.069 C 279.976,631.267 280.336,631.356 280.64,631.34 C 281.2,631.328 281.687,631.175 282.104,630.883 C 282.523,630.589 282.869,630.244 283.147,629.84 C 283.424,629.437 283.632,629.065 283.771,628.719 C 283.909,628.372 283.977,628.139 283.977,628.016 Z "/>
		<path id="dp_path029" fill="#69056b" fill-rule="evenodd" d="M 323.977,628.016 C 323.975,627.913 323.939,627.849 323.872,627.827 C 323.807,627.804 323.732,627.796 323.653,627.799 C 323.531,627.793 323.445,627.812 323.401,627.853 C 323.357,627.896 323.311,628.001 323.264,628.167 C 322.957,629.096 322.568,629.779 322.097,630.219 C 321.625,630.66 321.155,630.879 320.684,630.875 C 320.453,630.888 320.228,630.797 320.013,630.603 C 319.797,630.409 319.681,630.039 319.665,629.488 C 319.672,629.216 319.72,628.879 319.805,628.475 C 319.895,628.073 319.984,627.681 320.079,627.301 L 320.816,624.336 C 320.964,623.747 321.192,623.22 321.5,622.756 C 321.809,622.291 322.216,622.047 322.723,622.019 C 322.769,622.013 322.892,622.027 323.092,622.057 C 323.295,622.089 323.488,622.177 323.675,622.321 C 323.26,622.461 323.008,622.661 322.917,622.924 C 322.828,623.185 322.792,623.332 322.809,623.363 C 322.805,623.513 322.861,623.665 322.977,623.813 C 323.092,623.963 323.289,624.044 323.567,624.055 C 323.781,624.06 324.007,623.973 324.243,623.797 C 324.479,623.621 324.607,623.324 324.627,622.908 C 324.616,622.544 324.499,622.264 324.279,622.068 C 324.057,621.871 323.801,621.735 323.511,621.66 C 323.22,621.584 322.964,621.551 322.744,621.553 C 322.347,621.563 322.001,621.66 321.712,621.84 C 321.421,622.023 321.183,622.227 321.001,622.453 C 320.819,622.681 320.691,622.868 320.619,623.016 C 320.357,622.388 320.019,621.983 319.603,621.799 C 319.188,621.615 318.832,621.535 318.539,621.553 C 317.996,621.567 317.516,621.716 317.101,622.003 C 316.687,622.289 316.339,622.631 316.056,623.028 C 315.775,623.427 315.561,623.8 315.417,624.148 C 315.273,624.496 315.201,624.74 315.201,624.876 C 315.208,624.981 315.248,625.044 315.323,625.065 C 315.397,625.089 315.464,625.099 315.525,625.093 C 315.657,625.1 315.744,625.083 315.785,625.039 C 315.825,624.997 315.868,624.893 315.915,624.725 C 316.224,623.799 316.619,623.115 317.097,622.675 C 317.58,622.233 318.044,622.016 318.495,622.019 C 318.812,622.023 319.065,622.141 319.251,622.377 C 319.436,622.612 319.532,622.948 319.536,623.384 C 319.528,623.66 319.477,624.023 319.38,624.469 C 319.285,624.916 319.184,625.347 319.08,625.765 L 318.581,627.735 C 318.469,628.216 318.333,628.697 318.171,629.175 C 318.008,629.652 317.792,630.051 317.525,630.373 C 317.256,630.695 316.907,630.863 316.477,630.875 C 316.433,630.88 316.312,630.868 316.116,630.837 C 315.919,630.804 315.723,630.716 315.525,630.571 C 315.845,630.473 316.067,630.317 316.191,630.108 C 316.316,629.897 316.375,629.707 316.369,629.532 C 316.357,629.256 316.268,629.071 316.107,628.975 C 315.945,628.877 315.787,628.832 315.635,628.84 C 315.353,628.843 315.104,628.948 314.889,629.155 C 314.677,629.363 314.563,629.647 314.552,630.008 C 314.568,630.433 314.761,630.761 315.131,630.991 C 315.5,631.221 315.943,631.339 316.456,631.34 C 316.977,631.32 317.415,631.157 317.771,630.853 C 318.125,630.548 318.396,630.224 318.581,629.877 C 318.821,630.476 319.148,630.875 319.563,631.069 C 319.976,631.267 320.336,631.356 320.64,631.34 C 321.2,631.328 321.687,631.175 322.104,630.883 C 322.523,630.589 322.869,630.244 323.147,629.84 C 323.424,629.437 323.632,629.065 323.771,628.719 C 323.909,628.372 323.977,628.139 323.977,628.016 Z "/>
		<path id="dp_path030" fill="#69056b" fill-rule="evenodd" d="M 310.899,627.151 L 310.899,625.896 L 297.957,625.896 L 297.957,627.151 Z "/>
		<path id="dp_path031" fill="#69056b" fill-rule="evenodd" d="M 292.488,630.693 L 292.129,630.693 C 292.095,630.924 292.051,631.167 291.999,631.421 C 291.947,631.675 291.885,631.864 291.813,631.985 C 291.771,632.024 291.661,632.051 291.484,632.067 C 291.308,632.084 291.119,632.093 290.919,632.097 C 290.717,632.1 290.559,632.101 290.444,632.101 L 287.845,632.101 L 289.375,630.608 C 290.123,629.957 290.725,629.407 291.183,628.956 C 291.641,628.504 291.975,628.083 292.183,627.691 C 292.391,627.299 292.492,626.869 292.488,626.399 C 292.472,625.564 292.183,624.893 291.623,624.388 C 291.061,623.881 290.331,623.621 289.432,623.608 C 288.885,623.617 288.411,623.747 288.009,623.997 C 287.607,624.249 287.295,624.573 287.073,624.967 C 286.852,625.361 286.739,625.776 286.737,626.212 C 286.745,626.476 286.808,626.664 286.924,626.78 C 287.041,626.893 287.161,626.964 287.283,626.989 C 287.404,627.013 287.477,627.024 287.5,627.017 C 287.637,627.024 287.792,626.969 287.965,626.857 C 288.139,626.747 288.232,626.545 288.248,626.255 C 288.248,626.06 288.184,625.888 288.056,625.74 C 287.927,625.592 287.737,625.513 287.485,625.507 C 287.429,625.505 287.389,625.507 287.365,625.508 C 287.34,625.509 287.317,625.513 287.297,625.521 C 287.472,625.049 287.732,624.687 288.081,624.435 C 288.431,624.181 288.819,624.055 289.245,624.051 C 289.684,624.057 290.045,624.173 290.331,624.397 C 290.619,624.621 290.831,624.911 290.972,625.265 C 291.112,625.62 291.181,625.997 291.181,626.399 C 291.167,626.983 291.013,627.549 290.72,628.095 C 290.428,628.641 290.076,629.139 289.668,629.591 L 286.895,632.675 C 286.819,632.744 286.773,632.809 286.756,632.869 C 286.739,632.931 286.733,633.043 286.737,633.204 L 292.088,633.204 Z "/>
		<path id="dp_path032" fill="#69056b" fill-rule="evenodd" d="M 330.056,633.204 L 330.056,632.763 L 329.595,632.763 C 329.169,632.764 328.863,632.743 328.671,632.701 C 328.48,632.659 328.36,632.587 328.313,632.487 C 328.267,632.385 328.247,632.245 328.255,632.071 L 328.255,623.984 C 328.261,623.816 328.247,623.711 328.212,623.665 C 328.179,623.621 328.081,623.603 327.923,623.608 C 327.617,623.911 327.292,624.127 326.947,624.26 C 326.603,624.391 326.281,624.469 325.987,624.499 C 325.689,624.528 325.46,624.539 325.299,624.533 L 325.299,624.976 C 325.456,624.984 325.713,624.968 326.071,624.929 C 326.425,624.892 326.799,624.783 327.188,624.604 L 327.188,632.071 C 327.195,632.243 327.176,632.379 327.128,632.48 C 327.081,632.581 326.961,632.655 326.771,632.697 C 326.58,632.743 326.272,632.764 325.847,632.763 L 325.385,632.763 L 325.385,633.204 C 325.561,633.192 325.796,633.18 326.087,633.175 C 326.377,633.168 326.672,633.165 326.971,633.164 C 327.271,633.163 327.52,633.161 327.721,633.163 C 327.921,633.161 328.171,633.163 328.471,633.164 C 328.769,633.165 329.064,633.168 329.355,633.175 C 329.645,633.18 329.88,633.192 330.056,633.204 Z "/>
		<path id="dp_path033" fill="#006667" fill-rule="evenodd" d="M 305.043,552.376 L 297.556,537.34 C 297.471,537.181 297.34,537.103 297.167,537.103 L 296.972,537.103 C 296.785,537.103 296.655,537.181 296.583,537.34 L 289.097,552.376 C 289.068,552.433 289.068,552.488 289.097,552.539 C 289.127,552.589 289.177,552.615 289.249,552.615 L 304.891,552.615 C 304.963,552.615 305.013,552.589 305.043,552.539 C 305.071,552.488 305.071,552.433 305.043,552.376 Z M 302.381,551.081 L 290.483,551.081 L 296.432,539.139 Z "/>
		<path id="dp_path034" fill="#006667" fill-rule="evenodd" d="M 315.007,552.677 L 317.127,544.155 C 317.14,544.088 317.153,544.031 317.168,543.979 C 317.183,543.925 317.192,543.884 317.192,543.852 C 317.193,543.724 317.147,543.601 317.051,543.483 C 316.956,543.365 316.8,543.303 316.587,543.293 C 316.271,543.315 316.055,543.427 315.937,543.627 C 315.821,543.827 315.757,543.98 315.743,544.091 L 314.163,550.455 C 314.111,550.676 313.984,550.936 313.787,551.233 C 313.587,551.531 313.323,551.793 312.999,552.021 C 312.673,552.248 312.299,552.369 311.872,552.381 C 311.399,552.356 311.084,552.167 310.925,551.816 C 310.767,551.464 310.695,551.096 310.705,550.713 C 310.725,550.031 310.865,549.259 311.131,548.401 C 311.393,547.541 311.672,546.731 311.959,545.972 C 312.044,545.751 312.113,545.551 312.164,545.372 C 312.212,545.193 312.237,545.004 312.237,544.804 C 312.228,544.257 312.072,543.832 311.767,543.525 C 311.463,543.221 311.073,543.064 310.599,543.06 C 310.097,543.077 309.672,543.243 309.32,543.561 C 308.967,543.879 308.683,544.251 308.464,544.675 C 308.244,545.097 308.085,545.476 307.984,545.809 C 307.884,546.144 307.833,546.335 307.835,546.383 C 307.84,546.488 307.881,546.551 307.956,546.575 C 308.029,546.596 308.099,546.605 308.16,546.601 C 308.293,546.605 308.381,546.585 308.427,546.541 C 308.471,546.497 308.511,546.401 308.549,546.253 C 308.604,546.011 308.711,545.675 308.868,545.249 C 309.025,544.824 309.241,544.436 309.517,544.084 C 309.795,543.733 310.141,543.548 310.556,543.525 C 310.677,543.517 310.788,543.551 310.884,543.628 C 310.977,543.705 311.028,543.883 311.033,544.155 C 311.029,544.409 310.981,544.693 310.885,545.005 C 310.789,545.32 310.665,545.684 310.512,546.103 C 310.22,546.872 309.964,547.627 309.743,548.371 C 309.52,549.113 309.403,549.771 309.392,550.347 C 309.42,551.275 309.676,551.927 310.163,552.303 C 310.647,552.679 311.197,552.861 311.808,552.847 C 312.305,552.832 312.719,552.735 313.047,552.556 C 313.375,552.38 313.611,552.212 313.752,552.057 C 313.471,553.236 313.127,554.156 312.72,554.816 C 312.313,555.477 311.893,555.939 311.459,556.201 C 311.023,556.465 310.623,556.591 310.252,556.583 C 309.912,556.572 309.643,556.499 309.447,556.364 C 309.252,556.227 309.113,556.087 309.032,555.939 C 308.952,555.791 308.913,555.693 308.916,555.648 C 308.913,555.647 308.924,555.639 308.945,555.623 C 308.967,555.609 309.016,555.595 309.089,555.584 C 309.42,555.513 309.66,555.371 309.804,555.151 C 309.948,554.932 310.02,554.729 310.016,554.541 C 310.011,554.312 309.937,554.139 309.796,554.023 C 309.653,553.905 309.484,553.847 309.284,553.845 C 309.124,553.831 308.908,553.905 308.637,554.071 C 308.365,554.235 308.213,554.612 308.184,555.197 C 308.196,555.765 308.392,556.216 308.775,556.544 C 309.155,556.872 309.648,557.041 310.255,557.048 C 311.012,557.033 311.716,556.815 312.369,556.393 C 313.021,555.971 313.579,555.431 314.04,554.771 C 314.501,554.108 314.827,553.415 315.013,552.688 Z "/>
		<path id="dp_path035" fill="#006667" fill-rule="evenodd" d="M 335.769,546.067 C 335.769,545.951 335.725,545.849 335.639,545.763 C 335.552,545.676 335.452,545.633 335.336,545.633 L 321.836,545.633 C 321.721,545.633 321.62,545.676 321.533,545.763 C 321.447,545.849 321.404,545.951 321.404,546.067 C 321.404,546.181 321.447,546.283 321.533,546.369 C 321.62,546.456 321.721,546.499 321.836,546.499 L 335.336,546.499 C 335.452,546.499 335.552,546.456 335.639,546.369 C 335.725,546.283 335.769,546.181 335.769,546.067 Z M 335.769,550.249 C 335.769,550.133 335.725,550.032 335.639,549.945 C 335.552,549.859 335.452,549.816 335.336,549.816 L 321.836,549.816 C 321.721,549.816 321.62,549.859 321.533,549.945 C 321.447,550.032 321.404,550.133 321.404,550.249 C 321.404,550.364 321.447,550.465 321.533,550.552 C 321.62,550.639 321.721,550.681 321.836,550.681 L 335.336,550.681 C 335.452,550.681 335.552,550.639 335.639,550.552 C 335.725,550.465 335.769,550.364 335.769,550.249 Z "/>
		<path id="dp_path036" fill="#006667" fill-rule="evenodd" d="M 346.135,552.552 L 348.255,544.029 C 348.268,543.963 348.281,543.905 348.296,543.853 C 348.311,543.8 348.32,543.759 348.32,543.727 C 348.321,543.599 348.275,543.476 348.179,543.357 C 348.084,543.24 347.928,543.177 347.715,543.168 C 347.399,543.189 347.183,543.301 347.065,543.501 C 346.949,543.701 346.885,543.855 346.871,543.965 L 345.291,550.329 C 345.239,550.551 345.112,550.811 344.915,551.108 C 344.715,551.405 344.451,551.668 344.127,551.896 C 343.801,552.123 343.427,552.244 343,552.256 C 342.527,552.231 342.212,552.041 342.053,551.691 C 341.895,551.339 341.823,550.971 341.833,550.588 C 341.853,549.905 341.993,549.133 342.259,548.276 C 342.521,547.416 342.8,546.605 343.087,545.847 C 343.172,545.625 343.241,545.425 343.292,545.247 C 343.34,545.068 343.365,544.879 343.365,544.679 C 343.356,544.132 343.2,543.707 342.895,543.4 C 342.591,543.096 342.201,542.939 341.727,542.935 C 341.225,542.952 340.8,543.117 340.448,543.436 C 340.095,543.753 339.811,544.125 339.592,544.549 C 339.372,544.972 339.213,545.351 339.112,545.684 C 339.012,546.019 338.961,546.209 338.963,546.257 C 338.968,546.363 339.009,546.425 339.084,546.449 C 339.157,546.471 339.227,546.48 339.288,546.476 C 339.421,546.48 339.509,546.46 339.555,546.416 C 339.599,546.372 339.639,546.276 339.677,546.128 C 339.732,545.885 339.839,545.549 339.996,545.124 C 340.153,544.699 340.369,544.311 340.645,543.959 C 340.923,543.608 341.269,543.423 341.684,543.4 C 341.805,543.392 341.916,543.425 342.012,543.503 C 342.105,543.58 342.156,543.757 342.161,544.029 C 342.157,544.284 342.109,544.568 342.013,544.88 C 341.917,545.195 341.793,545.559 341.64,545.977 C 341.348,546.747 341.092,547.501 340.871,548.245 C 340.648,548.988 340.531,549.645 340.52,550.221 C 340.548,551.149 340.804,551.801 341.291,552.177 C 341.775,552.553 342.325,552.736 342.936,552.721 C 343.433,552.707 343.847,552.609 344.175,552.431 C 344.503,552.255 344.739,552.087 344.88,551.932 C 344.599,553.111 344.255,554.031 343.848,554.691 C 343.441,555.352 343.021,555.813 342.587,556.076 C 342.151,556.34 341.751,556.465 341.38,556.457 C 341.04,556.447 340.771,556.373 340.575,556.239 C 340.38,556.101 340.241,555.961 340.16,555.813 C 340.08,555.665 340.041,555.568 340.044,555.523 C 340.041,555.521 340.052,555.513 340.073,555.497 C 340.095,555.484 340.144,555.469 340.217,555.459 C 340.548,555.388 340.788,555.245 340.932,555.025 C 341.076,554.807 341.148,554.604 341.144,554.416 C 341.139,554.187 341.065,554.013 340.924,553.897 C 340.781,553.78 340.612,553.721 340.412,553.72 C 340.252,553.705 340.036,553.78 339.765,553.945 C 339.493,554.109 339.341,554.487 339.312,555.072 C 339.324,555.64 339.52,556.091 339.903,556.419 C 340.283,556.747 340.776,556.916 341.383,556.923 C 342.14,556.908 342.844,556.689 343.497,556.268 C 344.149,555.845 344.707,555.305 345.168,554.645 C 345.629,553.983 345.955,553.289 346.141,552.563 Z "/>
		<path id="dp_path037" fill="#006667" fill-rule="evenodd" d="M 386.135,552.552 L 388.255,544.029 C 388.268,543.963 388.281,543.905 388.296,543.853 C 388.311,543.8 388.32,543.759 388.32,543.727 C 388.321,543.599 388.275,543.476 388.179,543.357 C 388.084,543.24 387.928,543.177 387.715,543.168 C 387.399,543.189 387.183,543.301 387.065,543.501 C 386.949,543.701 386.885,543.855 386.871,543.965 L 385.291,550.329 C 385.239,550.551 385.112,550.811 384.915,551.108 C 384.715,551.405 384.451,551.668 384.127,551.896 C 383.801,552.123 383.427,552.244 383,552.256 C 382.527,552.231 382.212,552.041 382.053,551.691 C 381.895,551.339 381.823,550.971 381.833,550.588 C 381.853,549.905 381.993,549.133 382.259,548.276 C 382.521,547.416 382.8,546.605 383.087,545.847 C 383.172,545.625 383.241,545.425 383.292,545.247 C 383.34,545.068 383.365,544.879 383.365,544.679 C 383.356,544.132 383.2,543.707 382.895,543.4 C 382.591,543.096 382.201,542.939 381.727,542.935 C 381.225,542.952 380.8,543.117 380.448,543.436 C 380.095,543.753 379.811,544.125 379.592,544.549 C 379.372,544.972 379.213,545.351 379.112,545.684 C 379.012,546.019 378.961,546.209 378.963,546.257 C 378.968,546.363 379.009,546.425 379.084,546.449 C 379.157,546.471 379.227,546.48 379.288,546.476 C 379.421,546.48 379.509,546.46 379.555,546.416 C 379.599,546.372 379.639,546.276 379.677,546.128 C 379.732,545.885 379.839,545.549 379.996,545.124 C 380.153,544.699 380.369,544.311 380.645,543.959 C 380.923,543.608 381.269,543.423 381.684,543.4 C 381.805,543.392 381.916,543.425 382.012,543.503 C 382.105,543.58 382.156,543.757 382.161,544.029 C 382.157,544.284 382.109,544.568 382.013,544.88 C 381.917,545.195 381.793,545.559 381.64,545.977 C 381.348,546.747 381.092,547.501 380.871,548.245 C 380.648,548.988 380.531,549.645 380.52,550.221 C 380.548,551.149 380.804,551.801 381.291,552.177 C 381.775,552.553 382.325,552.736 382.936,552.721 C 383.433,552.707 383.847,552.609 384.175,552.431 C 384.503,552.255 384.739,552.087 384.88,551.932 C 384.599,553.111 384.255,554.031 383.848,554.691 C 383.441,555.352 383.021,555.813 382.587,556.076 C 382.151,556.34 381.751,556.465 381.38,556.457 C 381.04,556.447 380.771,556.373 380.575,556.239 C 380.38,556.101 380.241,555.961 380.16,555.813 C 380.08,555.665 380.041,555.568 380.044,555.523 C 380.041,555.521 380.052,555.513 380.073,555.497 C 380.095,555.484 380.144,555.469 380.217,555.459 C 380.548,555.388 380.788,555.245 380.932,555.025 C 381.076,554.807 381.148,554.604 381.144,554.416 C 381.139,554.187 381.065,554.013 380.924,553.897 C 380.781,553.78 380.612,553.721 380.412,553.72 C 380.252,553.705 380.036,553.78 379.765,553.945 C 379.493,554.109 379.341,554.487 379.312,555.072 C 379.324,555.64 379.52,556.091 379.903,556.419 C 380.283,556.747 380.776,556.916 381.383,556.923 C 382.14,556.908 382.844,556.689 383.497,556.268 C 384.149,555.845 384.707,555.305 385.168,554.645 C 385.629,553.983 385.955,553.289 386.141,552.563 Z "/>
		<path id="dp_path038" fill="#006667" fill-rule="evenodd" d="M 374.649,548.532 L 374.649,547.277 L 361.708,547.277 L 361.708,548.532 Z "/>
		<path id="dp_path039" fill="#006667" fill-rule="evenodd" d="M 356.239,552.075 L 355.88,552.075 C 355.845,552.305 355.801,552.548 355.749,552.803 C 355.697,553.056 355.636,553.245 355.564,553.367 C 355.521,553.405 355.412,553.432 355.235,553.448 C 355.059,553.465 354.869,553.475 354.669,553.479 C 354.468,553.481 354.309,553.483 354.195,553.483 L 351.596,553.483 L 353.125,551.989 C 353.873,551.339 354.476,550.788 354.933,550.337 C 355.392,549.885 355.725,549.464 355.933,549.072 C 356.141,548.68 356.243,548.251 356.239,547.78 C 356.223,546.945 355.933,546.275 355.373,545.769 C 354.812,545.263 354.081,545.003 353.183,544.989 C 352.636,544.999 352.161,545.128 351.76,545.379 C 351.357,545.631 351.045,545.955 350.824,546.348 C 350.603,546.743 350.489,547.157 350.488,547.593 C 350.496,547.857 350.559,548.045 350.675,548.161 C 350.792,548.275 350.912,548.345 351.033,548.371 C 351.155,548.395 351.228,548.405 351.251,548.399 C 351.388,548.405 351.543,548.351 351.716,548.239 C 351.889,548.128 351.983,547.927 351.999,547.636 C 351.999,547.441 351.935,547.269 351.807,547.121 C 351.677,546.973 351.488,546.895 351.236,546.888 C 351.18,546.887 351.14,546.888 351.116,546.889 C 351.091,546.891 351.068,546.895 351.048,546.903 C 351.223,546.431 351.483,546.068 351.832,545.816 C 352.181,545.563 352.569,545.436 352.996,545.432 C 353.435,545.439 353.796,545.555 354.081,545.779 C 354.369,546.003 354.581,546.292 354.723,546.647 C 354.863,547.001 354.932,547.379 354.932,547.78 C 354.917,548.364 354.764,548.931 354.471,549.476 C 354.179,550.023 353.827,550.52 353.419,550.972 L 350.645,554.056 C 350.569,554.125 350.524,554.191 350.507,554.251 C 350.489,554.312 350.484,554.424 350.488,554.585 L 355.839,554.585 Z "/>
		<path id="dp_path040" fill="#006667" fill-rule="evenodd" d="M 393.807,554.585 L 393.807,554.144 L 393.345,554.144 C 392.92,554.145 392.613,554.124 392.421,554.083 C 392.231,554.04 392.111,553.968 392.064,553.868 C 392.017,553.767 391.997,553.627 392.005,553.452 L 392.005,545.365 C 392.012,545.197 391.997,545.092 391.963,545.047 C 391.929,545.003 391.832,544.984 391.673,544.989 C 391.368,545.292 391.043,545.508 390.697,545.641 C 390.353,545.772 390.032,545.851 389.737,545.88 C 389.44,545.909 389.211,545.92 389.049,545.915 L 389.049,546.357 C 389.207,546.365 389.464,546.349 389.821,546.311 C 390.176,546.273 390.549,546.164 390.939,545.985 L 390.939,553.452 C 390.945,553.624 390.927,553.76 390.879,553.861 C 390.832,553.963 390.712,554.036 390.521,554.079 C 390.331,554.124 390.023,554.145 389.597,554.144 L 389.136,554.144 L 389.136,554.585 C 389.312,554.573 389.547,554.561 389.837,554.556 C 390.128,554.549 390.423,554.547 390.721,554.545 C 391.021,554.544 391.271,554.543 391.472,554.544 C 391.672,554.543 391.921,554.544 392.221,554.545 C 392.52,554.547 392.815,554.549 393.105,554.556 C 393.396,554.561 393.631,554.573 393.807,554.585 Z "/>
		<path id="dp_path041" fill="blue" fill-rule="evenodd" stroke="#69056b" stroke-width="1.33333" d="M 224.161,605.105 L 285.075,605.105"/>
		<path id="dp_path042" fill="none" fill-rule="evenodd" stroke="#ce8703" stroke-width="1.33333" d="M 164.6,737.667 L 295.8,445.665"/>
		<path id="dp_path043" fill="blue" fill-rule="evenodd" stroke="black" stroke-width="0.666667" d="M 285.076,467.303 C 286.968,467.303 288.503,468.837 288.503,470.729 C 288.503,472.621 286.968,474.156 285.076,474.156 C 283.184,474.156 281.649,472.621 281.649,470.729 C 281.649,468.837 283.184,467.303 285.076,467.303 Z "/>
		<path id="dp_path044" fill="blue" fill-rule="evenodd" stroke="black" stroke-width="0.666667" d="M 224.161,601.679 C 226.053,601.679 227.588,603.213 227.588,605.107 C 227.588,607 226.053,608.535 224.161,608.535 C 222.269,608.535 220.735,607 220.735,605.107 C 220.735,603.213 222.269,601.679 224.161,601.679 Z "/>
		<path id="dp_path045" fill="blue" fill-rule="evenodd" stroke="black" stroke-width="0.666667" d="M 285.076,603.709 C 285.848,603.709 286.473,604.335 286.473,605.107 C 286.473,605.879 285.848,606.504 285.076,606.504 C 284.304,606.504 283.679,605.879 283.679,605.107 C 283.679,604.335 284.304,603.709 285.076,603.709 Z "/>
	</g>
</svg>