<?xml version="1.0" encoding="utf-8"?>
<!-- Generator: Adobe Illustrator 13.0.0, SVG Export Plug-In . SVG Version: 6.00 Build 14948)  -->
<!DOCTYPE svg PUBLIC "-//W3C//DTD SVG 1.1//EN" "http://www.w3.org/Graphics/SVG/1.1/DTD/svg11.dtd">
<svg version="1.1" id="Ebene_1" xmlns="http://www.w3.org/2000/svg" xmlns:xlink="http://www.w3.org/1999/xlink" x="0px" y="0px"
	 width="759.911px" height="510.75px" viewBox="0 0 759.911 510.75" enable-background="new 0 0 759.911 510.75"
	 xml:space="preserve">
<polygon points="748.805,469.97 748.805,483.73 759.911,476.6 "/>
<polygon points="90.182,11.106 103.941,11.106 96.812,0 "/>
<line fill="#FFFFFF" stroke="#0000FF" stroke-width="2.9839" x1="96.481" y1="477.261" x2="706.697" y2="55.697"/>
<path fill="none" stroke="#FF0000" stroke-width="1.9893" d="M126.487,375.146c22.889,5.282,135.23,31.91,269.881-43.932
	c87.573-49.326,151.062-135.396,176.552-240.04"/>
<g>
	<g>
		<polyline fill="none" points="97.312,382.606 231.921,382.606 231.921,475.108 		"/>
		<g>
			<line fill="none" stroke="#9C9D9F" stroke-width="1.492" x1="231.92" y1="471.465" x2="231.92" y2="475.695"/>
		</g>
		<g>
			<line fill="none" stroke="#9C9D9F" stroke-width="1.492" x1="231.92" y1="465.826" x2="231.92" y2="470.055"/>
		</g>
		<g>
			<line fill="none" stroke="#9C9D9F" stroke-width="1.492" x1="231.92" y1="460.186" x2="231.92" y2="464.416"/>
		</g>
		<g>
			<line fill="none" stroke="#9C9D9F" stroke-width="1.492" x1="231.92" y1="454.546" x2="231.92" y2="458.776"/>
		</g>
		<g>
			<line fill="none" stroke="#9C9D9F" stroke-width="1.492" x1="231.92" y1="448.907" x2="231.92" y2="453.136"/>
		</g>
		<g>
			<line fill="none" stroke="#9C9D9F" stroke-width="1.492" x1="231.92" y1="443.267" x2="231.92" y2="447.497"/>
		</g>
		<g>
			<line fill="none" stroke="#9C9D9F" stroke-width="1.492" x1="231.92" y1="437.627" x2="231.92" y2="441.857"/>
		</g>
		<g>
			<line fill="none" stroke="#9C9D9F" stroke-width="1.492" x1="231.92" y1="431.988" x2="231.92" y2="436.217"/>
		</g>
		<g>
			<line fill="none" stroke="#9C9D9F" stroke-width="1.492" x1="231.92" y1="426.349" x2="231.92" y2="430.579"/>
		</g>
		<g>
			<line fill="none" stroke="#9C9D9F" stroke-width="1.492" x1="231.92" y1="420.709" x2="231.92" y2="424.939"/>
		</g>
		<g>
			<line fill="none" stroke="#9C9D9F" stroke-width="1.492" x1="231.92" y1="415.07" x2="231.92" y2="419.299"/>
		</g>
		<g>
			<line fill="none" stroke="#9C9D9F" stroke-width="1.492" x1="231.92" y1="409.43" x2="231.92" y2="413.66"/>
		</g>
		<g>
			<line fill="none" stroke="#9C9D9F" stroke-width="1.492" x1="231.92" y1="403.791" x2="231.92" y2="408.02"/>
		</g>
		<g>
			<line fill="none" stroke="#9C9D9F" stroke-width="1.492" x1="231.92" y1="398.151" x2="231.92" y2="402.38"/>
		</g>
		<g>
			<line fill="none" stroke="#9C9D9F" stroke-width="1.492" x1="231.92" y1="392.511" x2="231.92" y2="396.741"/>
		</g>
		<g>
			<line fill="none" stroke="#9C9D9F" stroke-width="1.492" x1="231.92" y1="386.872" x2="231.92" y2="391.101"/>
		</g>
		<g>
			<line fill="none" stroke="#9C9D9F" stroke-width="1.492" x1="231.92" y1="381.232" x2="231.92" y2="385.461"/>
		</g>
		<g>
			<line fill="none" stroke="#9C9D9F" stroke-width="1.492" x1="224.908" y1="382.606" x2="229.138" y2="382.606"/>
		</g>
		<g>
			<line fill="none" stroke="#9C9D9F" stroke-width="1.492" x1="219.269" y1="382.606" x2="223.498" y2="382.606"/>
		</g>
		<g>
			<line fill="none" stroke="#9C9D9F" stroke-width="1.492" x1="213.629" y1="382.606" x2="217.858" y2="382.606"/>
		</g>
		<g>
			<line fill="none" stroke="#9C9D9F" stroke-width="1.492" x1="207.989" y1="382.606" x2="212.219" y2="382.606"/>
		</g>
		<g>
			<line fill="none" stroke="#9C9D9F" stroke-width="1.492" x1="202.35" y1="382.606" x2="206.579" y2="382.606"/>
		</g>
		<g>
			<line fill="none" stroke="#9C9D9F" stroke-width="1.492" x1="196.71" y1="382.606" x2="200.939" y2="382.606"/>
		</g>
		<g>
			<line fill="none" stroke="#9C9D9F" stroke-width="1.492" x1="191.07" y1="382.606" x2="195.3" y2="382.606"/>
		</g>
		<g>
			<line fill="none" stroke="#9C9D9F" stroke-width="1.492" x1="185.431" y1="382.606" x2="189.66" y2="382.606"/>
		</g>
		<g>
			<line fill="none" stroke="#9C9D9F" stroke-width="1.492" x1="179.791" y1="382.606" x2="184.021" y2="382.606"/>
		</g>
		<g>
			<line fill="none" stroke="#9C9D9F" stroke-width="1.492" x1="174.151" y1="382.606" x2="178.381" y2="382.606"/>
		</g>
		<g>
			<line fill="none" stroke="#9C9D9F" stroke-width="1.492" x1="168.512" y1="382.606" x2="172.741" y2="382.606"/>
		</g>
		<g>
			<line fill="none" stroke="#9C9D9F" stroke-width="1.492" x1="162.873" y1="382.606" x2="167.103" y2="382.606"/>
		</g>
		<g>
			<line fill="none" stroke="#9C9D9F" stroke-width="1.492" x1="157.233" y1="382.606" x2="161.463" y2="382.606"/>
		</g>
		<g>
			<line fill="none" stroke="#9C9D9F" stroke-width="1.492" x1="151.594" y1="382.606" x2="155.823" y2="382.606"/>
		</g>
		<g>
			<line fill="none" stroke="#9C9D9F" stroke-width="1.492" x1="145.954" y1="382.606" x2="150.184" y2="382.606"/>
		</g>
		<g>
			<line fill="none" stroke="#9C9D9F" stroke-width="1.492" x1="140.314" y1="382.606" x2="144.544" y2="382.606"/>
		</g>
		<g>
			<line fill="none" stroke="#9C9D9F" stroke-width="1.492" x1="134.675" y1="382.606" x2="138.904" y2="382.606"/>
		</g>
		<g>
			<line fill="none" stroke="#9C9D9F" stroke-width="1.492" x1="129.035" y1="382.606" x2="133.265" y2="382.606"/>
		</g>
		<g>
			<line fill="none" stroke="#9C9D9F" stroke-width="1.492" x1="123.396" y1="382.606" x2="127.625" y2="382.606"/>
		</g>
		<g>
			<line fill="none" stroke="#9C9D9F" stroke-width="1.492" x1="117.756" y1="382.606" x2="121.985" y2="382.606"/>
		</g>
		<g>
			<line fill="none" stroke="#9C9D9F" stroke-width="1.492" x1="112.116" y1="382.606" x2="116.346" y2="382.606"/>
		</g>
		<g>
			<line fill="none" stroke="#9C9D9F" stroke-width="1.492" x1="106.477" y1="382.606" x2="110.706" y2="382.606"/>
		</g>
		<g>
			<line fill="none" stroke="#9C9D9F" stroke-width="1.492" x1="100.837" y1="382.606" x2="105.066" y2="382.606"/>
		</g>
		<g>
			<line fill="none" stroke="#9C9D9F" stroke-width="1.492" x1="95.197" y1="382.606" x2="99.427" y2="382.606"/>
		</g>
	</g>
</g>
<g>
	<g>
		<polyline fill="none" points="546.396,475.276 546.396,166.105 96.981,166.105 		"/>
		<g>
			<line fill="none" stroke="#9C9D9F" stroke-width="1.492" x1="101.979" y1="166.105" x2="97.75" y2="166.105"/>
		</g>
		<g>
			<line fill="none" stroke="#9C9D9F" stroke-width="1.492" x1="107.619" y1="166.105" x2="103.39" y2="166.105"/>
		</g>
		<g>
			<line fill="none" stroke="#9C9D9F" stroke-width="1.492" x1="113.259" y1="166.105" x2="109.029" y2="166.105"/>
		</g>
		<g>
			<line fill="none" stroke="#9C9D9F" stroke-width="1.492" x1="118.898" y1="166.105" x2="114.669" y2="166.105"/>
		</g>
		<g>
			<line fill="none" stroke="#9C9D9F" stroke-width="1.492" x1="124.538" y1="166.105" x2="120.309" y2="166.105"/>
		</g>
		<g>
			<line fill="none" stroke="#9C9D9F" stroke-width="1.492" x1="130.177" y1="166.105" x2="125.947" y2="166.105"/>
		</g>
		<g>
			<line fill="none" stroke="#9C9D9F" stroke-width="1.492" x1="135.816" y1="166.105" x2="131.587" y2="166.105"/>
		</g>
		<g>
			<line fill="none" stroke="#9C9D9F" stroke-width="1.492" x1="141.456" y1="166.105" x2="137.227" y2="166.105"/>
		</g>
		<g>
			<line fill="none" stroke="#9C9D9F" stroke-width="1.492" x1="147.096" y1="166.105" x2="142.866" y2="166.105"/>
		</g>
		<g>
			<line fill="none" stroke="#9C9D9F" stroke-width="1.492" x1="152.735" y1="166.105" x2="148.506" y2="166.105"/>
		</g>
		<g>
			<line fill="none" stroke="#9C9D9F" stroke-width="1.492" x1="158.375" y1="166.105" x2="154.146" y2="166.105"/>
		</g>
		<g>
			<line fill="none" stroke="#9C9D9F" stroke-width="1.492" x1="164.015" y1="166.105" x2="159.785" y2="166.105"/>
		</g>
		<g>
			<line fill="none" stroke="#9C9D9F" stroke-width="1.492" x1="169.654" y1="166.105" x2="165.425" y2="166.105"/>
		</g>
		<g>
			<line fill="none" stroke="#9C9D9F" stroke-width="1.492" x1="175.294" y1="166.105" x2="171.064" y2="166.105"/>
		</g>
		<g>
			<line fill="none" stroke="#9C9D9F" stroke-width="1.492" x1="180.934" y1="166.105" x2="176.704" y2="166.105"/>
		</g>
		<g>
			<line fill="none" stroke="#9C9D9F" stroke-width="1.492" x1="186.573" y1="166.105" x2="182.344" y2="166.105"/>
		</g>
		<g>
			<line fill="none" stroke="#9C9D9F" stroke-width="1.492" x1="192.213" y1="166.105" x2="187.983" y2="166.105"/>
		</g>
		<g>
			<line fill="none" stroke="#9C9D9F" stroke-width="1.492" x1="197.853" y1="166.105" x2="193.623" y2="166.105"/>
		</g>
		<g>
			<line fill="none" stroke="#9C9D9F" stroke-width="1.492" x1="203.492" y1="166.105" x2="199.263" y2="166.105"/>
		</g>
		<g>
			<line fill="none" stroke="#9C9D9F" stroke-width="1.492" x1="209.132" y1="166.105" x2="204.902" y2="166.105"/>
		</g>
		<g>
			<line fill="none" stroke="#9C9D9F" stroke-width="1.492" x1="214.771" y1="166.105" x2="210.542" y2="166.105"/>
		</g>
		<g>
			<line fill="none" stroke="#9C9D9F" stroke-width="1.492" x1="220.41" y1="166.105" x2="216.181" y2="166.105"/>
		</g>
		<g>
			<line fill="none" stroke="#9C9D9F" stroke-width="1.492" x1="226.05" y1="166.105" x2="221.82" y2="166.105"/>
		</g>
		<g>
			<line fill="none" stroke="#9C9D9F" stroke-width="1.492" x1="231.689" y1="166.105" x2="227.46" y2="166.105"/>
		</g>
		<g>
			<line fill="none" stroke="#9C9D9F" stroke-width="1.492" x1="237.329" y1="166.105" x2="233.1" y2="166.105"/>
		</g>
		<g>
			<line fill="none" stroke="#9C9D9F" stroke-width="1.492" x1="242.969" y1="166.105" x2="238.739" y2="166.105"/>
		</g>
		<g>
			<line fill="none" stroke="#9C9D9F" stroke-width="1.492" x1="248.608" y1="166.105" x2="244.379" y2="166.105"/>
		</g>
		<g>
			<line fill="none" stroke="#9C9D9F" stroke-width="1.492" x1="254.248" y1="166.105" x2="250.019" y2="166.105"/>
		</g>
		<g>
			<line fill="none" stroke="#9C9D9F" stroke-width="1.492" x1="259.888" y1="166.105" x2="255.658" y2="166.105"/>
		</g>
		<g>
			<line fill="none" stroke="#9C9D9F" stroke-width="1.492" x1="265.527" y1="166.105" x2="261.298" y2="166.105"/>
		</g>
		<g>
			<line fill="none" stroke="#9C9D9F" stroke-width="1.492" x1="271.167" y1="166.105" x2="266.938" y2="166.105"/>
		</g>
		<g>
			<line fill="none" stroke="#9C9D9F" stroke-width="1.492" x1="276.807" y1="166.105" x2="272.577" y2="166.105"/>
		</g>
		<g>
			<line fill="none" stroke="#9C9D9F" stroke-width="1.492" x1="282.446" y1="166.105" x2="278.217" y2="166.105"/>
		</g>
		<g>
			<line fill="none" stroke="#9C9D9F" stroke-width="1.492" x1="288.086" y1="166.105" x2="283.856" y2="166.105"/>
		</g>
		<g>
			<line fill="none" stroke="#9C9D9F" stroke-width="1.492" x1="293.726" y1="166.105" x2="289.496" y2="166.105"/>
		</g>
		<g>
			<line fill="none" stroke="#9C9D9F" stroke-width="1.492" x1="299.365" y1="166.105" x2="295.136" y2="166.105"/>
		</g>
		<g>
			<line fill="none" stroke="#9C9D9F" stroke-width="1.492" x1="305.004" y1="166.105" x2="300.774" y2="166.105"/>
		</g>
		<g>
			<line fill="none" stroke="#9C9D9F" stroke-width="1.492" x1="310.644" y1="166.105" x2="306.414" y2="166.105"/>
		</g>
		<g>
			<line fill="none" stroke="#9C9D9F" stroke-width="1.492" x1="316.283" y1="166.105" x2="312.054" y2="166.105"/>
		</g>
		<g>
			<line fill="none" stroke="#9C9D9F" stroke-width="1.492" x1="321.923" y1="166.105" x2="317.693" y2="166.105"/>
		</g>
		<g>
			<line fill="none" stroke="#9C9D9F" stroke-width="1.492" x1="327.563" y1="166.105" x2="323.333" y2="166.105"/>
		</g>
		<g>
			<line fill="none" stroke="#9C9D9F" stroke-width="1.492" x1="333.202" y1="166.105" x2="328.973" y2="166.105"/>
		</g>
		<g>
			<line fill="none" stroke="#9C9D9F" stroke-width="1.492" x1="338.842" y1="166.105" x2="334.612" y2="166.105"/>
		</g>
		<g>
			<line fill="none" stroke="#9C9D9F" stroke-width="1.492" x1="344.481" y1="166.105" x2="340.252" y2="166.105"/>
		</g>
		<g>
			<line fill="none" stroke="#9C9D9F" stroke-width="1.492" x1="350.121" y1="166.105" x2="345.892" y2="166.105"/>
		</g>
		<g>
			<line fill="none" stroke="#9C9D9F" stroke-width="1.492" x1="355.761" y1="166.105" x2="351.531" y2="166.105"/>
		</g>
		<g>
			<line fill="none" stroke="#9C9D9F" stroke-width="1.492" x1="361.4" y1="166.105" x2="357.171" y2="166.105"/>
		</g>
		<g>
			<line fill="none" stroke="#9C9D9F" stroke-width="1.492" x1="367.04" y1="166.105" x2="362.811" y2="166.105"/>
		</g>
		<g>
			<line fill="none" stroke="#9C9D9F" stroke-width="1.492" x1="372.68" y1="166.105" x2="368.45" y2="166.105"/>
		</g>
		<g>
			<line fill="none" stroke="#9C9D9F" stroke-width="1.492" x1="378.318" y1="166.105" x2="374.089" y2="166.105"/>
		</g>
		<g>
			<line fill="none" stroke="#9C9D9F" stroke-width="1.492" x1="383.958" y1="166.105" x2="379.729" y2="166.105"/>
		</g>
		<g>
			<line fill="none" stroke="#9C9D9F" stroke-width="1.492" x1="389.598" y1="166.105" x2="385.368" y2="166.105"/>
		</g>
		<g>
			<line fill="none" stroke="#9C9D9F" stroke-width="1.492" x1="395.237" y1="166.105" x2="391.008" y2="166.105"/>
		</g>
		<g>
			<line fill="none" stroke="#9C9D9F" stroke-width="1.492" x1="400.877" y1="166.105" x2="396.647" y2="166.105"/>
		</g>
		<g>
			<line fill="none" stroke="#9C9D9F" stroke-width="1.492" x1="406.517" y1="166.105" x2="402.287" y2="166.105"/>
		</g>
		<g>
			<line fill="none" stroke="#9C9D9F" stroke-width="1.492" x1="412.156" y1="166.105" x2="407.927" y2="166.105"/>
		</g>
		<g>
			<line fill="none" stroke="#9C9D9F" stroke-width="1.492" x1="417.796" y1="166.105" x2="413.566" y2="166.105"/>
		</g>
		<g>
			<line fill="none" stroke="#9C9D9F" stroke-width="1.492" x1="423.436" y1="166.105" x2="419.206" y2="166.105"/>
		</g>
		<g>
			<line fill="none" stroke="#9C9D9F" stroke-width="1.492" x1="429.075" y1="166.105" x2="424.846" y2="166.105"/>
		</g>
		<g>
			<line fill="none" stroke="#9C9D9F" stroke-width="1.492" x1="434.715" y1="166.105" x2="430.485" y2="166.105"/>
		</g>
		<g>
			<line fill="none" stroke="#9C9D9F" stroke-width="1.492" x1="440.354" y1="166.105" x2="436.125" y2="166.105"/>
		</g>
		<g>
			<line fill="none" stroke="#9C9D9F" stroke-width="1.492" x1="445.994" y1="166.105" x2="441.765" y2="166.105"/>
		</g>
		<g>
			<line fill="none" stroke="#9C9D9F" stroke-width="1.492" x1="451.633" y1="166.105" x2="447.403" y2="166.105"/>
		</g>
		<g>
			<line fill="none" stroke="#9C9D9F" stroke-width="1.492" x1="457.272" y1="166.105" x2="453.043" y2="166.105"/>
		</g>
		<g>
			<line fill="none" stroke="#9C9D9F" stroke-width="1.492" x1="462.912" y1="166.105" x2="458.683" y2="166.105"/>
		</g>
		<g>
			<line fill="none" stroke="#9C9D9F" stroke-width="1.492" x1="468.552" y1="166.105" x2="464.322" y2="166.105"/>
		</g>
		<g>
			<line fill="none" stroke="#9C9D9F" stroke-width="1.492" x1="474.191" y1="166.105" x2="469.962" y2="166.105"/>
		</g>
		<g>
			<line fill="none" stroke="#9C9D9F" stroke-width="1.492" x1="479.831" y1="166.105" x2="475.602" y2="166.105"/>
		</g>
		<g>
			<line fill="none" stroke="#9C9D9F" stroke-width="1.492" x1="485.471" y1="166.105" x2="481.241" y2="166.105"/>
		</g>
		<g>
			<line fill="none" stroke="#9C9D9F" stroke-width="1.492" x1="491.11" y1="166.105" x2="486.881" y2="166.105"/>
		</g>
		<g>
			<line fill="none" stroke="#9C9D9F" stroke-width="1.492" x1="496.75" y1="166.105" x2="492.521" y2="166.105"/>
		</g>
		<g>
			<line fill="none" stroke="#9C9D9F" stroke-width="1.492" x1="502.39" y1="166.105" x2="498.16" y2="166.105"/>
		</g>
		<g>
			<line fill="none" stroke="#9C9D9F" stroke-width="1.492" x1="508.029" y1="166.105" x2="503.8" y2="166.105"/>
		</g>
		<g>
			<line fill="none" stroke="#9C9D9F" stroke-width="1.492" x1="513.669" y1="166.105" x2="509.439" y2="166.105"/>
		</g>
		<g>
			<line fill="none" stroke="#9C9D9F" stroke-width="1.492" x1="519.309" y1="166.105" x2="515.079" y2="166.105"/>
		</g>
		<g>
			<line fill="none" stroke="#9C9D9F" stroke-width="1.492" x1="524.947" y1="166.105" x2="520.718" y2="166.105"/>
		</g>
		<g>
			<line fill="none" stroke="#9C9D9F" stroke-width="1.492" x1="530.587" y1="166.105" x2="526.357" y2="166.105"/>
		</g>
		<g>
			<line fill="none" stroke="#9C9D9F" stroke-width="1.492" x1="536.227" y1="166.105" x2="531.997" y2="166.105"/>
		</g>
		<g>
			<line fill="none" stroke="#9C9D9F" stroke-width="1.492" x1="541.866" y1="166.105" x2="537.637" y2="166.105"/>
		</g>
		<g>
			<line fill="none" stroke="#9C9D9F" stroke-width="1.492" x1="547.506" y1="166.105" x2="543.276" y2="166.105"/>
		</g>
		<g>
			<line fill="none" stroke="#9C9D9F" stroke-width="1.492" x1="546.396" y1="172.854" x2="546.396" y2="168.624"/>
		</g>
		<g>
			<line fill="none" stroke="#9C9D9F" stroke-width="1.492" x1="546.396" y1="178.493" x2="546.396" y2="174.264"/>
		</g>
		<g>
			<line fill="none" stroke="#9C9D9F" stroke-width="1.492" x1="546.396" y1="184.133" x2="546.396" y2="179.903"/>
		</g>
		<g>
			<line fill="none" stroke="#9C9D9F" stroke-width="1.492" x1="546.396" y1="189.772" x2="546.396" y2="185.543"/>
		</g>
		<g>
			<line fill="none" stroke="#9C9D9F" stroke-width="1.492" x1="546.396" y1="195.412" x2="546.396" y2="191.183"/>
		</g>
		<g>
			<line fill="none" stroke="#9C9D9F" stroke-width="1.492" x1="546.396" y1="201.052" x2="546.396" y2="196.822"/>
		</g>
		<g>
			<line fill="none" stroke="#9C9D9F" stroke-width="1.492" x1="546.396" y1="206.691" x2="546.396" y2="202.462"/>
		</g>
		<g>
			<line fill="none" stroke="#9C9D9F" stroke-width="1.492" x1="546.396" y1="212.331" x2="546.396" y2="208.102"/>
		</g>
		<g>
			<line fill="none" stroke="#9C9D9F" stroke-width="1.492" x1="546.396" y1="217.971" x2="546.396" y2="213.741"/>
		</g>
		<g>
			<line fill="none" stroke="#9C9D9F" stroke-width="1.492" x1="546.396" y1="223.609" x2="546.396" y2="219.38"/>
		</g>
		<g>
			<line fill="none" stroke="#9C9D9F" stroke-width="1.492" x1="546.396" y1="229.249" x2="546.396" y2="225.02"/>
		</g>
		<g>
			<line fill="none" stroke="#9C9D9F" stroke-width="1.492" x1="546.396" y1="234.889" x2="546.396" y2="230.659"/>
		</g>
		<g>
			<line fill="none" stroke="#9C9D9F" stroke-width="1.492" x1="546.396" y1="240.528" x2="546.396" y2="236.299"/>
		</g>
		<g>
			<line fill="none" stroke="#9C9D9F" stroke-width="1.492" x1="546.396" y1="246.168" x2="546.396" y2="241.938"/>
		</g>
		<g>
			<line fill="none" stroke="#9C9D9F" stroke-width="1.492" x1="546.396" y1="251.808" x2="546.396" y2="247.578"/>
		</g>
		<g>
			<line fill="none" stroke="#9C9D9F" stroke-width="1.492" x1="546.396" y1="257.448" x2="546.396" y2="253.217"/>
		</g>
		<g>
			<line fill="none" stroke="#9C9D9F" stroke-width="1.492" x1="546.396" y1="263.087" x2="546.396" y2="258.857"/>
		</g>
		<g>
			<line fill="none" stroke="#9C9D9F" stroke-width="1.492" x1="546.396" y1="268.727" x2="546.396" y2="264.497"/>
		</g>
		<g>
			<line fill="none" stroke="#9C9D9F" stroke-width="1.492" x1="546.396" y1="274.367" x2="546.396" y2="270.136"/>
		</g>
		<g>
			<line fill="none" stroke="#9C9D9F" stroke-width="1.492" x1="546.396" y1="280.006" x2="546.396" y2="275.776"/>
		</g>
		<g>
			<line fill="none" stroke="#9C9D9F" stroke-width="1.492" x1="546.396" y1="285.646" x2="546.396" y2="281.416"/>
		</g>
		<g>
			<line fill="none" stroke="#9C9D9F" stroke-width="1.492" x1="546.396" y1="291.286" x2="546.396" y2="287.055"/>
		</g>
		<g>
			<line fill="none" stroke="#9C9D9F" stroke-width="1.492" x1="546.396" y1="296.924" x2="546.396" y2="292.694"/>
		</g>
		<g>
			<line fill="none" stroke="#9C9D9F" stroke-width="1.492" x1="546.396" y1="302.564" x2="546.396" y2="298.333"/>
		</g>
		<g>
			<line fill="none" stroke="#9C9D9F" stroke-width="1.492" x1="546.396" y1="308.204" x2="546.396" y2="303.973"/>
		</g>
		<g>
			<line fill="none" stroke="#9C9D9F" stroke-width="1.492" x1="546.396" y1="313.843" x2="546.396" y2="309.613"/>
		</g>
		<g>
			<line fill="none" stroke="#9C9D9F" stroke-width="1.492" x1="546.396" y1="319.483" x2="546.396" y2="315.252"/>
		</g>
		<g>
			<line fill="none" stroke="#9C9D9F" stroke-width="1.492" x1="546.396" y1="325.123" x2="546.396" y2="320.892"/>
		</g>
		<g>
			<line fill="none" stroke="#9C9D9F" stroke-width="1.492" x1="546.396" y1="330.762" x2="546.396" y2="326.532"/>
		</g>
		<g>
			<line fill="none" stroke="#9C9D9F" stroke-width="1.492" x1="546.396" y1="336.402" x2="546.396" y2="332.171"/>
		</g>
		<g>
			<line fill="none" stroke="#9C9D9F" stroke-width="1.492" x1="546.396" y1="342.042" x2="546.396" y2="337.811"/>
		</g>
		<g>
			<line fill="none" stroke="#9C9D9F" stroke-width="1.492" x1="546.396" y1="347.681" x2="546.396" y2="343.451"/>
		</g>
		<g>
			<line fill="none" stroke="#9C9D9F" stroke-width="1.492" x1="546.396" y1="353.321" x2="546.396" y2="349.09"/>
		</g>
		<g>
			<line fill="none" stroke="#9C9D9F" stroke-width="1.492" x1="546.396" y1="358.96" x2="546.396" y2="354.73"/>
		</g>
		<g>
			<line fill="none" stroke="#9C9D9F" stroke-width="1.492" x1="546.396" y1="364.6" x2="546.396" y2="360.37"/>
		</g>
		<g>
			<line fill="none" stroke="#9C9D9F" stroke-width="1.492" x1="546.396" y1="370.239" x2="546.396" y2="366.008"/>
		</g>
		<g>
			<line fill="none" stroke="#9C9D9F" stroke-width="1.492" x1="546.396" y1="375.878" x2="546.396" y2="371.648"/>
		</g>
		<g>
			<line fill="none" stroke="#9C9D9F" stroke-width="1.492" x1="546.396" y1="381.518" x2="546.396" y2="377.288"/>
		</g>
		<g>
			<line fill="none" stroke="#9C9D9F" stroke-width="1.492" x1="546.396" y1="387.158" x2="546.396" y2="382.927"/>
		</g>
		<g>
			<line fill="none" stroke="#9C9D9F" stroke-width="1.492" x1="546.396" y1="392.797" x2="546.396" y2="388.567"/>
		</g>
		<g>
			<line fill="none" stroke="#9C9D9F" stroke-width="1.492" x1="546.396" y1="398.437" x2="546.396" y2="394.207"/>
		</g>
		<g>
			<line fill="none" stroke="#9C9D9F" stroke-width="1.492" x1="546.396" y1="404.077" x2="546.396" y2="399.846"/>
		</g>
		<g>
			<line fill="none" stroke="#9C9D9F" stroke-width="1.492" x1="546.396" y1="409.716" x2="546.396" y2="405.486"/>
		</g>
		<g>
			<line fill="none" stroke="#9C9D9F" stroke-width="1.492" x1="546.396" y1="415.356" x2="546.396" y2="411.125"/>
		</g>
		<g>
			<line fill="none" stroke="#9C9D9F" stroke-width="1.492" x1="546.396" y1="420.996" x2="546.396" y2="416.765"/>
		</g>
		<g>
			<line fill="none" stroke="#9C9D9F" stroke-width="1.492" x1="546.396" y1="426.635" x2="546.396" y2="422.405"/>
		</g>
		<g>
			<line fill="none" stroke="#9C9D9F" stroke-width="1.492" x1="546.396" y1="432.275" x2="546.396" y2="428.044"/>
		</g>
		<g>
			<line fill="none" stroke="#9C9D9F" stroke-width="1.492" x1="546.396" y1="437.915" x2="546.396" y2="433.684"/>
		</g>
		<g>
			<line fill="none" stroke="#9C9D9F" stroke-width="1.492" x1="546.396" y1="443.553" x2="546.396" y2="439.323"/>
		</g>
		<g>
			<line fill="none" stroke="#9C9D9F" stroke-width="1.492" x1="546.396" y1="449.193" x2="546.396" y2="444.962"/>
		</g>
		<g>
			<line fill="none" stroke="#9C9D9F" stroke-width="1.492" x1="546.396" y1="454.833" x2="546.396" y2="450.602"/>
		</g>
		<g>
			<line fill="none" stroke="#9C9D9F" stroke-width="1.492" x1="546.396" y1="460.472" x2="546.396" y2="456.242"/>
		</g>
		<g>
			<line fill="none" stroke="#9C9D9F" stroke-width="1.492" x1="546.396" y1="466.112" x2="546.396" y2="461.881"/>
		</g>
		<g>
			<line fill="none" stroke="#9C9D9F" stroke-width="1.492" x1="546.396" y1="471.751" x2="546.396" y2="467.521"/>
		</g>
		<g>
			<line fill="none" stroke="#9C9D9F" stroke-width="1.492" x1="546.396" y1="477.391" x2="546.396" y2="473.161"/>
		</g>
	</g>
</g>
<text transform="matrix(1 0 0 1 0 169.0874)" font-family="'MyriadPro-Regular'" font-size="27.8501">f(x+    x)</text>
<text transform="matrix(1 0 0 1 45.2563 390.397)" font-family="'MyriadPro-Regular'" font-size="27.8501">f(x)</text>
<text transform="matrix(1 0 0 1 226.2822 500.3052)" font-family="'MyriadPro-Regular'" font-size="27.8501">x</text>
<text transform="matrix(1 0 0 1 526.1689 503.7866)" font-family="'MyriadPro-Regular'" font-size="27.8501">x+   x</text>
<text transform="matrix(1 0 0 1 738.0283 501.2993)" font-family="'MyriadPro-Bold'" font-size="27.8501">x</text>
<text transform="matrix(1 0 0 1 66.144 28.8423)" font-family="'MyriadPro-Bold'" font-size="27.8501">y</text>
<polygon fill="none" stroke="#000000" stroke-width="1.5914" points="50.396,168.424 63.824,168.424 56.862,153.339 "/>
<polygon fill="none" stroke="#000000" stroke-width="1.5914" points="559.492,502.625 572.92,502.625 565.957,487.542 "/>
<line fill="#FFFFFF" stroke="#000000" stroke-width="4.9732" x1="96.979" y1="10.111" x2="96.979" y2="478.589"/>
<line fill="#FFFFFF" stroke="#000000" stroke-width="4.9732" x1="96.481" y1="476.433" x2="750.462" y2="476.435"/>
</svg>
