<?xml version="1.0" encoding="utf-8" standalone="no"?>
<!DOCTYPE svg PUBLIC "-//W3C//DTD SVG 1.1//EN"
  "http://www.w3.org/Graphics/SVG/1.1/DTD/svg11.dtd">
<!-- Created with matplotlib (http://matplotlib.org/) -->
<svg height="368pt" version="1.1" viewBox="0 0 506 368" width="506pt" xmlns="http://www.w3.org/2000/svg" xmlns:xlink="http://www.w3.org/1999/xlink">
 <defs>
  <style type="text/css">
*{stroke-linecap:butt;stroke-linejoin:round;}
  </style>
 </defs>
 <g id="figure_1">
  <g id="patch_1">
   <path d="
M0 368.414
L506.599 368.414
L506.599 0
L0 0
z
" style="fill:none;"/>
  </g>
  <g id="axes_1">
   <g id="patch_2">
    <path clip-path="url(#pdeca054807)" d="
M234.3 252.259
L236.085 250.044
L237.442 250.465
L258.869 238.654
L259.012 238.698
L237.585 250.509
L238.942 250.93
z
" style="fill:#ffa500;stroke:#ffa500;stroke-linejoin:miter;"/>
   </g>
   <g id="patch_3">
    <path clip-path="url(#pdeca054807)" d="
M232.157 338.127
L237.514 337.389
L237.514 338.09
L258.941 338.09
L258.941 338.164
L237.514 338.164
L237.514 338.865
z
" style="fill:#008000;stroke:#008000;stroke-linejoin:miter;"/>
   </g>
   <g id="line2d_1">
    <path clip-path="url(#pdeca054807)" d="
M48.24 307.279
L52.7491 306.585
L57.2582 305.873
L61.7673 305.142
L66.2764 304.393
L70.7855 303.625
L75.2945 302.837
L79.8036 302.029
L84.3127 301.2
L88.8218 300.35
L93.3309 299.478
L97.84 298.584
L102.349 297.667
L106.858 296.727
L111.367 295.762
L115.876 294.773
L120.385 293.759
L124.895 292.719
L129.404 291.652
L133.913 290.558
L138.422 289.436
L142.931 288.285
L147.44 287.104
L151.949 285.894
L156.458 284.653
L160.967 283.379
L165.476 282.074
L169.985 280.735
L174.495 279.361
L179.004 277.953
L183.513 276.508
L188.022 275.027
L192.531 273.507
L197.04 271.949
L201.549 270.351
L206.058 268.712
L210.567 267.031
L215.076 265.308
L219.585 263.54
L224.095 261.727
L228.604 259.867
L233.113 257.96
L237.622 256.004
L242.131 253.999
L246.64 251.941
L251.149 249.832
L255.658 247.668
L260.167 245.449
L264.676 243.173
L269.185 240.839
L273.695 238.446
L278.204 235.991
L282.713 233.473
L287.222 230.891
L291.731 228.243
L296.24 225.527
L300.749 222.742
L305.258 219.885
L309.767 216.956
L314.276 213.951
L318.785 210.87
L323.295 207.71
L327.804 204.469
L332.313 201.145
L336.822 197.737
L341.331 194.241
L345.84 190.655
L350.349 186.978
L354.858 183.207
L359.367 179.34
L363.876 175.373
L368.385 171.305
L372.895 167.133
L377.404 162.855
L381.913 158.467
L386.422 153.966
L390.931 149.351
L395.44 144.618
L399.949 139.763
L404.458 134.785
L408.967 129.679
L413.476 124.442
L417.985 119.072
L422.495 113.564
L427.004 107.916
L431.513 102.123
L436.022 96.1814
L440.531 90.0883
L445.04 83.8393
L449.549 77.4305
L454.058 70.8578
L458.567 64.1171
L463.076 57.2039
L467.585 50.1139
L472.095 42.8427
L476.604 35.3854
L481.113 27.7375
L485.622 19.894
L490.131 11.8498
L494.64 3.6" style="fill:none;stroke:#0000ff;stroke-linecap:square;"/>
   </g>
   <g id="line2d_2">
    <path clip-path="url(#pdeca054807)" d="
M48.24 334.436
L494.64 334.436" style="fill:none;stroke:#000000;stroke-linecap:square;"/>
   </g>
   <g id="line2d_3">
    <path clip-path="url(#pdeca054807)" d="
M226.8 349.2
L226.8 3.6" style="fill:none;stroke:#000000;stroke-linecap:square;"/>
   </g>
   <g id="line2d_4">
    <defs>
     <path d="
M0 3
C0.795609 3 1.55874 2.6839 2.12132 2.12132
C2.6839 1.55874 3 0.795609 3 0
C3 -0.795609 2.6839 -1.55874 2.12132 -2.12132
C1.55874 -2.6839 0.795609 -3 0 -3
C-0.795609 -3 -1.55874 -2.6839 -2.12132 -2.12132
C-2.6839 -1.55874 -3 -0.795609 -3 0
C-3 0.795609 -2.6839 1.55874 -2.12132 2.12132
C-1.55874 2.6839 -0.795609 3 0 3
z
" id="mf1e9a9e4ae" style="stroke:#000000;stroke-width:0.5;"/>
    </defs>
    <g clip-path="url(#pdeca054807)">
     <use style="fill:#0000ff;stroke:#000000;stroke-width:0.5;" x="226.8" xlink:href="#mf1e9a9e4ae" y="260.616586243"/>
    </g>
   </g>
   <g id="line2d_5">
    <path clip-path="url(#pdeca054807)" d="
M405.36 334.436
L405.36 133.774" style="fill:none;stroke:#000000;stroke-dasharray:6.000000,6.000000;stroke-dashoffset:0.0;"/>
   </g>
   <g id="line2d_6">
    <defs>
     <path d="
M0 3
C0.795609 3 1.55874 2.6839 2.12132 2.12132
C2.6839 1.55874 3 0.795609 3 0
C3 -0.795609 2.6839 -1.55874 2.12132 -2.12132
C1.55874 -2.6839 0.795609 -3 0 -3
C-0.795609 -3 -1.55874 -2.6839 -2.12132 -2.12132
C-2.6839 -1.55874 -3 -0.795609 -3 0
C-3 0.795609 -2.6839 1.55874 -2.12132 2.12132
C-1.55874 2.6839 -0.795609 3 0 3
z
" id="mbbe02196b1" style="stroke:#000000;stroke-width:0.5;"/>
    </defs>
    <g clip-path="url(#pdeca054807)">
     <use style="fill:#008000;stroke:#000000;stroke-width:0.5;" x="405.36" xlink:href="#mbbe02196b1" y="334.436097707"/>
    </g>
   </g>
   <g id="line2d_7">
    <defs>
     <path d="
M0 3
C0.795609 3 1.55874 2.6839 2.12132 2.12132
C2.6839 1.55874 3 0.795609 3 0
C3 -0.795609 2.6839 -1.55874 2.12132 -2.12132
C1.55874 -2.6839 0.795609 -3 0 -3
C-0.795609 -3 -1.55874 -2.6839 -2.12132 -2.12132
C-2.6839 -1.55874 -3 -0.795609 -3 0
C-3 0.795609 -2.6839 1.55874 -2.12132 2.12132
C-1.55874 2.6839 -0.795609 3 0 3
z
" id="mc8456eb090" style="stroke:#000000;stroke-width:0.5;"/>
    </defs>
    <g clip-path="url(#pdeca054807)">
     <use style="fill:#ffa500;stroke:#000000;stroke-width:0.5;" x="405.36" xlink:href="#mc8456eb090" y="133.773861108"/>
    </g>
   </g>
   <g id="line2d_8">
    <path clip-path="url(#pdeca054807)" d="
M316.08 334.436
L316.08 212.728" style="fill:none;stroke:#000000;stroke-dasharray:6.000000,6.000000;stroke-dashoffset:0.0;"/>
   </g>
   <g id="line2d_9">
    <g clip-path="url(#pdeca054807)">
     <use style="fill:#008000;stroke:#000000;stroke-width:0.5;" x="316.08" xlink:href="#mbbe02196b1" y="334.436097707"/>
    </g>
   </g>
   <g id="line2d_10">
    <g clip-path="url(#pdeca054807)">
     <use style="fill:#ffa500;stroke:#000000;stroke-width:0.5;" x="316.08" xlink:href="#mc8456eb090" y="212.728298963"/>
    </g>
   </g>
   <g id="line2d_11">
    <path clip-path="url(#pdeca054807)" d="
M286.32 334.436
L286.32 231.413" style="fill:none;stroke:#000000;stroke-dasharray:6.000000,6.000000;stroke-dashoffset:0.0;"/>
   </g>
   <g id="line2d_12">
    <g clip-path="url(#pdeca054807)">
     <use style="fill:#008000;stroke:#000000;stroke-width:0.5;" x="286.32" xlink:href="#mbbe02196b1" y="334.436097707"/>
    </g>
   </g>
   <g id="line2d_13">
    <g clip-path="url(#pdeca054807)">
     <use style="fill:#ffa500;stroke:#000000;stroke-width:0.5;" x="286.32" xlink:href="#mc8456eb090" y="231.412670294"/>
    </g>
   </g>
   <g id="line2d_14">
    <path clip-path="url(#pdeca054807)" d="
M271.44 334.436
L271.44 239.65" style="fill:none;stroke:#000000;stroke-dasharray:6.000000,6.000000;stroke-dashoffset:0.0;"/>
   </g>
   <g id="line2d_15">
    <g clip-path="url(#pdeca054807)">
     <use style="fill:#008000;stroke:#000000;stroke-width:0.5;" x="271.44" xlink:href="#mbbe02196b1" y="334.436097707"/>
    </g>
   </g>
   <g id="line2d_16">
    <g clip-path="url(#pdeca054807)">
     <use style="fill:#ffa500;stroke:#000000;stroke-width:0.5;" x="271.44" xlink:href="#mc8456eb090" y="239.64996874"/>
    </g>
   </g>
   <g id="line2d_17">
    <path clip-path="url(#pdeca054807)" d="
M262.512 334.436
L262.512 244.273" style="fill:none;stroke:#000000;stroke-dasharray:6.000000,6.000000;stroke-dashoffset:0.0;"/>
   </g>
   <g id="line2d_18">
    <g clip-path="url(#pdeca054807)">
     <use style="fill:#008000;stroke:#000000;stroke-width:0.5;" x="262.512" xlink:href="#mbbe02196b1" y="334.436097707"/>
    </g>
   </g>
   <g id="line2d_19">
    <g clip-path="url(#pdeca054807)">
     <use style="fill:#ffa500;stroke:#000000;stroke-width:0.5;" x="262.512" xlink:href="#mc8456eb090" y="244.272742799"/>
    </g>
   </g>
   <g id="text_1">
    <!-- $0$ -->
    <defs>
     <path d="
M25 -2.20312
Q12.75 -2.20312 8.32812 7.875
Q3.90625 17.9688 3.90625 31.8906
Q3.90625 40.5781 5.48438 48.2344
Q7.07812 55.9062 11.7812 61.25
Q16.5 66.6094 25 66.6094
Q31.5938 66.6094 35.7812 63.375
Q39.9844 60.1562 42.1875 55.0469
Q44.3906 49.9531 45.1875 44.1094
Q46 38.2812 46 31.8906
Q46 23.2969 44.4062 15.7969
Q42.8281 8.29688 38.1875 3.04688
Q33.5469 -2.20312 25 -2.20312
M25 0.390625
Q30.5625 0.390625 33.2969 6.09375
Q36.0312 11.8125 36.6719 18.75
Q37.3125 25.6875 37.3125 33.5
Q37.3125 41.0156 36.6719 47.3594
Q36.0312 53.7188 33.3125 58.8594
Q30.6094 64.0156 25 64.0156
Q19.3438 64.0156 16.6094 58.8281
Q13.875 53.6562 13.2344 47.3281
Q12.5938 41.0156 12.5938 33.5
Q12.5938 27.9375 12.8594 23
Q13.1406 18.0625 14.3125 12.8125
Q15.4844 7.5625 18.0938 3.96875
Q20.7031 0.390625 25 0.390625" id="Cmr10-30"/>
    </defs>
    <g transform="translate(212.5152 352.890975573)scale(0.2 -0.2)">
     <use transform="translate(0.0 0.390625)" xlink:href="#Cmr10-30"/>
    </g>
   </g>
   <g id="text_2">
    <!-- $\lim_{n\to\infty}\ \exp\left(\frac{1}{n}\right)=\exp\left(\lim_{n\to\infty}\ \frac{1}{n}\right)$ -->
    <defs>
     <path d="
M9.28125 0
L9.28125 3.51562
Q21.7812 3.51562 21.7812 6.6875
L21.7812 59.1875
Q16.6094 56.6875 8.6875 56.6875
L8.6875 60.2031
Q20.9531 60.2031 27.2031 66.6094
L28.6094 66.6094
Q28.9531 66.6094 29.2656 66.3281
Q29.5938 66.0625 29.5938 65.7188
L29.5938 6.6875
Q29.5938 3.51562 42.0938 3.51562
L42.0938 0
z
" id="Cmr10-31"/>
     <path d="
M7.71875 1.70312
Q7.71875 2.29688 7.8125 2.59375
L15.2812 32.4219
Q16.0156 35.2031 16.0156 37.3125
Q16.0156 41.6094 13.0938 41.6094
Q9.96875 41.6094 8.45312 37.8594
Q6.9375 34.125 5.51562 28.4219
Q5.51562 28.125 5.21875 27.9531
Q4.9375 27.7812 4.6875 27.7812
L3.51562 27.7812
Q3.17188 27.7812 2.92188 28.1406
Q2.6875 28.5156 2.6875 28.8125
Q3.76562 33.1562 4.76562 36.1719
Q5.76562 39.2031 7.89062 41.6875
Q10.0156 44.1875 13.1875 44.1875
Q16.9375 44.1875 19.8125 41.8125
Q22.7031 39.4531 22.7031 35.7969
Q25.6875 39.7031 29.6875 41.9375
Q33.6875 44.1875 38.1875 44.1875
Q41.75 44.1875 44.3281 42.9688
Q46.9219 41.75 48.3594 39.2812
Q49.8125 36.8125 49.8125 33.4062
Q49.8125 29.2969 47.9688 23.4844
Q46.1406 17.6719 43.4062 10.5
Q42 7.23438 42 4.5
Q42 1.51562 44.2812 1.51562
Q48.1875 1.51562 50.7969 5.70312
Q53.4219 9.90625 54.5 14.7031
Q54.6875 15.2812 55.3281 15.2812
L56.5 15.2812
Q56.8906 15.2812 57.1562 15.0312
Q57.4219 14.7969 57.4219 14.4062
Q57.4219 14.3125 57.3281 14.1094
Q55.9531 8.45312 52.5625 3.65625
Q49.1719 -1.125 44.0938 -1.125
Q40.5781 -1.125 38.0781 1.29688
Q35.5938 3.71875 35.5938 7.17188
Q35.5938 9.03125 36.375 11.0781
Q37.6406 14.3594 39.2812 18.8906
Q40.9219 23.4375 41.9688 27.5781
Q43.0156 31.7344 43.0156 34.9062
Q43.0156 37.7031 41.8594 39.6562
Q40.7188 41.6094 37.9844 41.6094
Q34.3281 41.6094 31.25 39.9844
Q28.1719 38.375 25.875 35.7188
Q23.5781 33.0625 21.6875 29.3906
L14.8906 2.20312
Q14.5469 0.828125 13.3438 -0.140625
Q12.1562 -1.125 10.6875 -1.125
Q9.46875 -1.125 8.59375 -0.34375
Q7.71875 0.4375 7.71875 1.70312" id="Cmmi10-6e"/>
     <path d="
M2.98438 0
L2.98438 3.51562
Q6.39062 3.51562 8.59375 4.04688
Q10.7969 4.59375 10.7969 6.6875
L10.7969 33.9844
Q10.7969 36.6719 9.98438 37.8594
Q9.1875 39.0625 7.67188 39.3281
Q6.15625 39.5938 2.98438 39.5938
L2.98438 43.1094
L17.4844 44.1875
L17.4844 34.4219
Q19.4844 38.7188 23.4062 41.4531
Q27.3438 44.1875 31.9844 44.1875
Q43.5 44.1875 45.5156 34.8125
Q47.5156 39.0156 51.3594 41.5938
Q55.2188 44.1875 59.8125 44.1875
Q64.3594 44.1875 67.4531 42.7188
Q70.5625 41.2656 72.125 38.25
Q73.6875 35.25 73.6875 30.7188
L73.6875 6.6875
Q73.6875 4.59375 75.9062 4.04688
Q78.125 3.51562 81.5 3.51562
L81.5 0
L58.5938 0
L58.5938 3.51562
Q62.0156 3.51562 64.2031 4.04688
Q66.4062 4.59375 66.4062 6.6875
L66.4062 30.4219
Q66.4062 35.4531 64.9844 38.5312
Q63.5781 41.6094 59.1875 41.6094
Q53.4219 41.6094 49.6562 36.9688
Q45.9062 32.3281 45.9062 26.4219
L45.9062 6.6875
Q45.9062 4.59375 48.0938 4.04688
Q50.2969 3.51562 53.7188 3.51562
L53.7188 0
L30.8125 0
L30.8125 3.51562
Q34.2344 3.51562 36.4219 4.04688
Q38.625 4.59375 38.625 6.6875
L38.625 30.4219
Q38.625 35.2969 37.2031 38.4531
Q35.7969 41.6094 31.3906 41.6094
Q25.5938 41.6094 21.8438 36.9688
Q18.1094 32.3281 18.1094 26.4219
L18.1094 6.6875
Q18.1094 4.59375 20.3125 4.04688
Q22.5156 3.51562 25.875 3.51562
L25.875 0
z
" id="Cmr10-6d"/>
     <path d="
M24.6094 -1.125
Q18.9531 -1.125 14.5781 2.1875
Q10.2031 5.51562 7.90625 10.7812
Q5.60938 16.0625 5.60938 21.5781
Q5.60938 25.8281 6.95312 29.875
Q8.29688 33.9375 10.8281 37.1562
Q13.375 40.375 16.9688 42.2812
Q20.5625 44.1875 24.9062 44.1875
Q29.3906 44.1875 33.5938 42.4688
Q37.7969 40.7656 41.2812 37.9375
Q44.7812 35.1094 47.7969 31.3906
L50.7812 27.3906
Q53.7656 32.125 57.375 35.8594
Q60.9844 39.5938 65.5469 41.8906
Q70.125 44.1875 75.2969 44.1875
Q79.6406 44.1875 83.2031 42.25
Q86.7656 40.3281 89.25 37
Q91.75 33.6875 93.0156 29.6562
Q94.2812 25.6406 94.2812 21.5781
Q94.2812 15.9219 91.9062 10.6719
Q89.5469 5.42188 85.1719 2.14062
Q80.8125 -1.125 75 -1.125
Q68.4531 -1.125 62.5625 2.39062
Q56.6875 5.90625 52.0938 11.7188
L49.125 15.7188
Q44.5312 8.25 38.2969 3.5625
Q32.0781 -1.125 24.6094 -1.125
M23.5781 2.39062
Q36.2812 2.39062 46.2969 19.3906
L41.0156 26.125
Q36.4219 32.1719 32.4688 35.5938
Q28.5156 39.0156 23.2969 39.0156
Q18.8438 39.0156 15.4062 36.5
Q11.9688 33.9844 10.0781 29.9219
Q8.20312 25.875 8.20312 21.4844
Q8.20312 18.1094 9.25 14.7188
Q10.2969 11.3281 12.2969 8.54688
Q14.3125 5.76562 17.1562 4.07812
Q20.0156 2.39062 23.5781 2.39062
M58.8906 17
Q63.4844 10.9375 67.4375 7.51562
Q71.3906 4.10938 76.6094 4.10938
Q79.9375 4.10938 82.7188 5.5625
Q85.5 7.03125 87.5156 9.51562
Q89.5469 12.0156 90.625 15.1406
Q91.7031 18.2656 91.7031 21.5781
Q91.7031 26.2188 89.8438 30.6406
Q87.9844 35.0625 84.4844 37.8906
Q81 40.7188 76.3125 40.7188
Q63.625 40.7188 53.6094 23.6875
z
" id="Cmsy10-31"/>
     <path d="
M7.51562 13.2812
Q6.6875 13.2812 6.14062 13.9062
Q5.60938 14.5469 5.60938 15.2812
Q5.60938 16.1094 6.14062 16.6875
Q6.6875 17.2812 7.51562 17.2812
L70.3125 17.2812
Q71.0469 17.2812 71.5781 16.6875
Q72.125 16.1094 72.125 15.2812
Q72.125 14.5469 71.5781 13.9062
Q71.0469 13.2812 70.3125 13.2812
z

M7.51562 32.7188
Q6.6875 32.7188 6.14062 33.2969
Q5.60938 33.8906 5.60938 34.7188
Q5.60938 35.4531 6.14062 36.0781
Q6.6875 36.7188 7.51562 36.7188
L70.3125 36.7188
Q71.0469 36.7188 71.5781 36.0781
Q72.125 35.4531 72.125 34.7188
Q72.125 33.8906 71.5781 33.2969
Q71.0469 32.7188 70.3125 32.7188
z
" id="Cmr10-3d"/>
     <path d="
M3.07812 0
L3.07812 3.51562
Q6.5 3.51562 8.6875 4.04688
Q10.8906 4.59375 10.8906 6.6875
L10.8906 59.1875
Q10.8906 61.8594 10.0781 63.0625
Q9.28125 64.2656 7.76562 64.5312
Q6.25 64.7969 3.07812 64.7969
L3.07812 68.3125
L17.9219 69.3906
L17.9219 6.6875
Q17.9219 4.59375 20.1094 4.04688
Q22.3125 3.51562 25.6875 3.51562
L25.6875 0
z
" id="Cmr10-6c"/>
     <path d="
M4.98438 -115.922
Q4.10938 -115.922 4.10938 -114.984
Q4.10938 -114.594 4.29688 -114.406
Q11.4688 -106.938 15.6406 -97.4375
Q19.8281 -87.9375 21.5 -77.5156
Q23.1875 -67.0938 23.1875 -55.9062
Q23.1875 -17.0469 4.29688 2.48438
Q4.10938 2.6875 4.10938 3.07812
Q4.10938 4 4.98438 4
L6.20312 4
Q6.5 4 6.6875 3.8125
Q19 -6.45312 24.75 -22.2344
Q30.5156 -38.0312 30.5156 -56
Q30.5156 -73.8281 24.7812 -89.5938
Q19.0469 -105.375 6.6875 -115.719
Q6.5 -115.922 6.20312 -115.922
z
" id="Cmex10-a2"/>
     <path d="
M39.1094 -115.719
Q26.7656 -105.375 20.9688 -89.5938
Q15.1875 -73.8281 15.1875 -56
Q15.1875 -38.0312 20.9688 -22.2344
Q26.7656 -6.45312 39.1094 3.8125
Q39.1094 4 39.5938 4
L40.8281 4
Q41.1094 4 41.3594 3.6875
Q41.6094 3.375 41.6094 3.07812
Q41.6094 2.6875 41.4062 2.48438
Q35.9844 -3.125 32.2969 -10
Q28.6094 -16.8906 26.4844 -24.2812
Q24.3594 -31.6875 23.4375 -39.7344
Q22.5156 -47.7969 22.5156 -56.1094
Q22.5156 -94.875 41.4062 -114.406
Q41.6094 -114.594 41.6094 -114.984
Q41.6094 -115.281 41.3281 -115.594
Q41.0625 -115.922 40.8281 -115.922
L39.5938 -115.922
Q39.1094 -115.922 39.1094 -115.719" id="Cmex10-a1"/>
     <path d="
M3.07812 0
L3.07812 3.51562
Q6.5 3.51562 8.6875 4.04688
Q10.8906 4.59375 10.8906 6.6875
L10.8906 33.9844
Q10.8906 37.8438 9.39062 38.7188
Q7.90625 39.5938 3.51562 39.5938
L3.51562 43.1094
L17.9219 44.1875
L17.9219 6.6875
Q17.9219 4.59375 19.8281 4.04688
Q21.7344 3.51562 24.9062 3.51562
L24.9062 0
z

M7.32812 61.375
Q7.32812 63.5781 8.98438 65.2344
Q10.6406 66.8906 12.7969 66.8906
Q14.2031 66.8906 15.5156 66.1562
Q16.8438 65.4375 17.5781 64.1094
Q18.3125 62.7969 18.3125 61.375
Q18.3125 59.2344 16.6406 57.5625
Q14.9844 55.9062 12.7969 55.9062
Q10.6406 55.9062 8.98438 57.5625
Q7.32812 59.2344 7.32812 61.375" id="Cmr10-69"/>
     <path d="
M7.51562 23
Q6.6875 23 6.14062 23.625
Q5.60938 24.2656 5.60938 25
Q5.60938 25.7344 6.14062 26.3594
Q6.6875 27 7.51562 27
L83.4062 27
Q79.5938 29.7344 76.6562 33.3281
Q73.7344 36.9219 71.7812 41.0469
Q69.8281 45.1719 69 49.8125
Q69 51.125 70.0156 51.125
L72.0156 51.125
Q72.3594 51.125 72.625 50.8281
Q72.9062 50.5312 73 50.2031
Q73.8281 45.9062 75.6094 42.2188
Q77.3906 38.5312 80.0781 35.3438
Q82.7656 32.1719 86.0781 29.875
Q89.4062 27.5938 93.6094 26.125
Q94.2812 25.6875 94.2812 25
Q94.2812 24.2188 93.6094 24.0312
Q88.375 22.2188 84.0312 18.625
Q79.6875 15.0469 76.8594 10.1875
Q74.0312 5.32812 73 -0.203125
Q72.9062 -0.53125 72.6094 -0.828125
Q72.3125 -1.125 72.0156 -1.125
L70.0156 -1.125
Q69 -1.125 69 0.203125
Q70.2656 7.03125 74.0625 13.0625
Q77.875 19.0938 83.4062 23
z
" id="Cmsy10-21"/>
     <path d="
M1.21875 0
L1.21875 3.51562
Q5.03125 3.51562 8.39062 5
Q11.7656 6.5 14.1094 9.42188
L23.1875 21
L11.375 36.375
Q9.625 38.5781 7.54688 39.0781
Q5.46875 39.5938 1.70312 39.5938
L1.70312 43.1094
L22.5156 43.1094
L22.5156 39.5938
Q21.1875 39.5938 20.0312 39
Q18.8906 38.4219 18.8906 37.3125
Q18.8906 36.9219 19.1875 36.375
L27.2031 25.9844
L33.2031 33.6875
Q34.4219 35.1562 34.4219 36.625
Q34.4219 37.8438 33.6094 38.7188
Q32.8125 39.5938 31.5 39.5938
L31.5 43.1094
L49.9062 43.1094
L49.9062 39.5938
Q46.0469 39.5938 42.6562 38.1094
Q39.2656 36.625 36.9219 33.6875
L29 23.5781
L41.7969 6.6875
Q43.7031 4.5 45.75 4
Q47.7969 3.51562 51.6094 3.51562
L51.6094 0
L30.8125 0
L30.8125 3.51562
Q32.0312 3.51562 33.1562 4.09375
Q34.2812 4.6875 34.2812 5.8125
Q34.2812 6.25 33.9844 6.6875
L25 18.6094
L17.8281 9.42188
Q16.7031 8.15625 16.7031 6.5
Q16.7031 5.28125 17.5312 4.39062
Q18.3594 3.51562 19.4844 3.51562
L19.4844 0
z
" id="Cmr10-78"/>
     <path d="
M24.9062 -1.125
Q18.7969 -1.125 13.6875 2.07812
Q8.59375 5.28125 5.6875 10.625
Q2.78125 15.9688 2.78125 21.9219
Q2.78125 27.7812 5.4375 33.0469
Q8.10938 38.3281 12.8594 41.5781
Q17.625 44.8281 23.4844 44.8281
Q28.0781 44.8281 31.4688 43.2812
Q34.8594 41.75 37.0625 39.0156
Q39.2656 36.2812 40.375 32.5625
Q41.5 28.8594 41.5 24.4219
Q41.5 23.0938 40.4844 23.0938
L11.5312 23.0938
L11.5312 22.0156
Q11.5312 13.7188 14.875 7.76562
Q18.2188 1.8125 25.7812 1.8125
Q28.8594 1.8125 31.4688 3.17188
Q34.0781 4.54688 36 6.98438
Q37.9375 9.42188 38.625 12.2031
Q38.7188 12.5469 38.9844 12.8125
Q39.2656 13.0938 39.5938 13.0938
L40.4844 13.0938
Q41.5 13.0938 41.5 11.8125
Q40.0938 6.15625 35.4062 2.51562
Q30.7188 -1.125 24.9062 -1.125
M11.625 25.5938
L34.4219 25.5938
Q34.4219 29.3438 33.375 33.2031
Q32.3281 37.0625 29.875 39.625
Q27.4375 42.1875 23.4844 42.1875
Q17.8281 42.1875 14.7188 36.8906
Q11.625 31.5938 11.625 25.5938" id="Cmr10-65"/>
     <path d="
M4.39062 -175.875
Q3.51562 -175.875 3.51562 -175
Q3.51562 -174.609 3.71875 -174.422
Q12.2031 -165.922 18.0625 -155.547
Q23.9219 -145.172 27.2969 -133.844
Q30.6719 -122.516 32.125 -110.547
Q33.5938 -98.5781 33.5938 -85.8906
Q33.5938 -72.9062 32.0938 -61.0312
Q30.6094 -49.1719 27.2344 -37.8906
Q23.875 -26.6094 18.0312 -16.2344
Q12.2031 -5.85938 3.71875 2.48438
Q3.51562 2.6875 3.51562 3.07812
Q3.51562 4 4.39062 4
L6.6875 4
Q6.98438 4 7.17188 3.8125
Q16.4062 -4.15625 23.0938 -14.5781
Q29.7812 -25 33.8594 -36.6875
Q37.9375 -48.3906 39.7656 -60.7344
Q41.6094 -73.0938 41.6094 -85.9844
Q41.6094 -98.8281 39.7656 -111.156
Q37.9375 -123.484 33.8594 -135.203
Q29.7812 -146.922 23.0938 -157.312
Q16.4062 -167.719 7.17188 -175.688
Q6.98438 -175.875 6.6875 -175.875
z
" id="Cmex10-b4"/>
     <path d="
M52.4844 -175.688
Q43.1719 -167.578 36.5469 -157.266
Q29.9375 -146.969 25.8594 -135.25
Q21.7812 -123.531 19.8906 -111.172
Q18.0156 -98.8281 18.0156 -85.9844
Q18.0156 -73.0938 19.8906 -60.7188
Q21.7812 -48.3438 25.8594 -36.625
Q29.9375 -24.9062 36.5469 -14.5938
Q43.1719 -4.29688 52.4844 3.8125
Q52.4844 4 52.9844 4
L55.3281 4
Q55.6094 4 55.8594 3.6875
Q56.1094 3.375 56.1094 3.07812
Q56.1094 2.6875 55.9062 2.48438
Q47.3594 -6.0625 41.5938 -16.2656
Q35.8438 -26.4688 32.375 -38.1094
Q28.9062 -49.75 27.4375 -61.6875
Q25.9844 -73.6406 25.9844 -86.0781
Q25.9844 -98.4844 27.4375 -110.469
Q28.9062 -122.469 32.375 -133.984
Q35.8438 -145.516 41.6719 -155.766
Q47.5156 -166.016 55.9062 -174.422
Q56.1094 -174.609 56.1094 -175
Q56.1094 -175.25 55.8281 -175.562
Q55.5625 -175.875 55.3281 -175.875
L52.9844 -175.875
Q52.4844 -175.875 52.4844 -175.688" id="Cmex10-b3"/>
     <path d="
M2.59375 -19.3906
L2.59375 -15.9219
Q6 -15.9219 8.20312 -15.3281
Q10.4062 -14.75 10.4062 -12.7031
L10.4062 35.5
Q10.4062 38.2344 8.45312 38.9062
Q6.5 39.5938 2.59375 39.5938
L2.59375 43.1094
L17.3906 44.1875
L17.3906 37.9844
Q20.125 41.0156 23.75 42.5938
Q27.3906 44.1875 31.5 44.1875
Q37.4062 44.1875 42.1406 40.9844
Q46.875 37.7969 49.5312 32.5938
Q52.2031 27.3906 52.2031 21.5781
Q52.2031 15.5312 49.25 10.2969
Q46.2969 5.07812 41.1875 1.96875
Q36.0781 -1.125 29.9844 -1.125
Q22.7031 -1.125 17.6719 4.78125
L17.6719 -12.7031
Q17.6719 -14.75 19.8906 -15.3281
Q22.125 -15.9219 25.4844 -15.9219
L25.4844 -19.3906
z

M17.6719 9.71875
Q19.4375 6.15625 22.5625 3.82812
Q25.6875 1.51562 29.3906 1.51562
Q32.8594 1.51562 35.5156 3.35938
Q38.1875 5.21875 39.9844 8.34375
Q41.7969 11.4688 42.6406 14.9062
Q43.5 18.3594 43.5 21.5781
Q43.5 25.5938 42.0625 30.25
Q40.625 34.9062 37.6719 38.1094
Q34.7188 41.3125 30.5156 41.3125
Q26.4688 41.3125 23.0625 39.2344
Q19.6719 37.1562 17.6719 33.5938
z
" id="Cmr10-70"/>
    </defs>
    <g style="fill:#0000ff;" transform="translate(3.6 249.543659523)scale(0.2 -0.2)">
     <use transform="translate(22.0 19.60625)" xlink:href="#Cmr10-6c"/>
     <use transform="translate(49.685546875 19.60625)" xlink:href="#Cmr10-69"/>
     <use transform="translate(77.37109375 19.60625)" xlink:href="#Cmr10-6d"/>
     <use transform="translate(0.0 -34.93125)scale(0.7)" xlink:href="#Cmmi10-6e"/>
     <use transform="translate(42.0068359375 -34.93125)scale(0.7)" xlink:href="#Cmsy10-21"/>
     <use transform="translate(112.006835938 -34.93125)scale(0.7)" xlink:href="#Cmsy10-31"/>
     <use transform="translate(208.344726562 0.85625)" xlink:href="#Cmr10-65"/>
     <use transform="translate(252.729492188 0.85625)" xlink:href="#Cmr10-78"/>
     <use transform="translate(305.415039062 0.85625)" xlink:href="#Cmr10-70"/>
     <use transform="translate(360.932617188 81.309375)scale(0.913889250814)" xlink:href="#Cmex10-a1"/>
     <use transform="translate(406.783081055 38.35625)scale(0.7)" xlink:href="#Cmr10-31"/>
     <use transform="translate(402.783081055 -23.825)scale(0.7)" xlink:href="#Cmmi10-6e"/>
     <use transform="translate(457.289916992 81.309375)scale(0.913889250814)" xlink:href="#Cmex10-a2"/>
     <use transform="translate(516.698974609 0.85625)" xlink:href="#Cmr10-3d"/>
     <use transform="translate(600.757568359 0.85625)" xlink:href="#Cmr10-65"/>
     <use transform="translate(645.142333984 0.85625)" xlink:href="#Cmr10-78"/>
     <use transform="translate(697.827880859 0.85625)" xlink:href="#Cmr10-70"/>
     <use transform="translate(753.345458984 86.21875)scale(0.693346073662)" xlink:href="#Cmex10-b3"/>
     <use transform="translate(816.745986938 19.60625)" xlink:href="#Cmr10-6c"/>
     <use transform="translate(844.431533813 19.60625)" xlink:href="#Cmr10-69"/>
     <use transform="translate(872.117080688 19.60625)" xlink:href="#Cmr10-6d"/>
     <use transform="translate(794.745986938 -34.93125)scale(0.7)" xlink:href="#Cmmi10-6e"/>
     <use transform="translate(836.752822876 -34.93125)scale(0.7)" xlink:href="#Cmsy10-21"/>
     <use transform="translate(906.752822876 -34.93125)scale(0.7)" xlink:href="#Cmsy10-31"/>
     <use transform="translate(1007.0907135 38.35625)scale(0.7)" xlink:href="#Cmr10-31"/>
     <use transform="translate(1003.0907135 -23.825)scale(0.7)" xlink:href="#Cmmi10-6e"/>
     <use transform="translate(1057.59754944 86.21875)scale(0.693346073662)" xlink:href="#Cmex10-b4"/>
     <path d="
M402.783 13.3562
L402.783 19.6062
L444.79 19.6062
L444.79 13.3562
L402.783 13.3562
z
"/>
     <path d="
M1003.09 13.3562
L1003.09 19.6062
L1045.1 19.6062
L1045.1 13.3562
L1003.09 13.3562
z
"/>
    </g>
   </g>
   <g id="text_3">
    <!-- $\exp\left(\frac{1}{n}\right)$ -->
    <g style="fill:#ffa500;" transform="translate(280.368 186.797074779)scale(0.2 -0.2)">
     <use transform="translate(0.0 0.8734375)" xlink:href="#Cmr10-65"/>
     <use transform="translate(44.384765625 0.8734375)" xlink:href="#Cmr10-78"/>
     <use transform="translate(97.0703125 0.8734375)" xlink:href="#Cmr10-70"/>
     <use transform="translate(152.587890625 81.3265625)scale(0.913889250814)" xlink:href="#Cmex10-a1"/>
     <use transform="translate(198.438354492 38.3734375)scale(0.7)" xlink:href="#Cmr10-31"/>
     <use transform="translate(194.438354492 -23.8078125)scale(0.7)" xlink:href="#Cmmi10-6e"/>
     <use transform="translate(248.94519043 81.3265625)scale(0.913889250814)" xlink:href="#Cmex10-a2"/>
     <path d="
M194.438 13.3734
L194.438 19.6234
L236.445 19.6234
L236.445 13.3734
L194.438 13.3734
z
"/>
    </g>
   </g>
   <g id="text_4">
    <!-- ... -->
    <defs>
     <path d="
M10.6875 12.4062
L21 12.4062
L21 0
L10.6875 0
z
" id="DejaVuSans-2e"/>
    </defs>
    <g transform="translate(233.9424 297.526341975)scale(0.2 -0.2)">
     <use xlink:href="#DejaVuSans-2e"/>
     <use x="31.787109375" xlink:href="#DejaVuSans-2e"/>
     <use x="63.57421875" xlink:href="#DejaVuSans-2e"/>
    </g>
   </g>
   <g id="text_5">
    <!-- $\frac{1}{n}$ -->
    <g style="fill:#008000;" transform="translate(312.5088 356.581951146)scale(0.2 -0.2)">
     <use transform="translate(4.0 38.3734375)scale(0.7)" xlink:href="#Cmr10-31"/>
     <use transform="translate(0.0 -23.8078125)scale(0.7)" xlink:href="#Cmmi10-6e"/>
     <path d="
M0 13.3734
L0 19.6234
L42.0068 19.6234
L42.0068 13.3734
L0 13.3734
z
"/>
    </g>
   </g>
  </g>
 </g>
 <defs>
  <clipPath id="pdeca054807">
   <rect height="345.6" width="446.4" x="48.24" y="3.6"/>
  </clipPath>
 </defs>
</svg>
