<?xml version="1.0" encoding="UTF-8" standalone="no"?>
<!-- Created with Inkscape (http://www.inkscape.org/) -->
<svg
   xmlns:dc="http://purl.org/dc/elements/1.1/"
   xmlns:cc="http://web.resource.org/cc/"
   xmlns:rdf="http://www.w3.org/1999/02/22-rdf-syntax-ns#"
   xmlns:svg="http://www.w3.org/2000/svg"
   xmlns="http://www.w3.org/2000/svg"
   xmlns:sodipodi="http://sodipodi.sourceforge.net/DTD/sodipodi-0.dtd"
   xmlns:inkscape="http://www.inkscape.org/namespaces/inkscape"
   width="1576.5286"
   height="417.89014"
   id="svg2437"
   sodipodi:version="0.32"
   inkscape:version="0.45.1"
   version="1.0"
   sodipodi:docbase="C:\Documents and Settings\Jim\Desktop\Wikipedia\Geometric Series"
   sodipodi:docname="Geometric Segment.svg"
   inkscape:output_extension="org.inkscape.output.svg.inkscape">
  <sodipodi:namedview
     id="base"
     pagecolor="#ffffff"
     bordercolor="#666666"
     borderopacity="1.0"
     gridtolerance="10000"
     guidetolerance="10"
     objecttolerance="10"
     inkscape:pageopacity="0.0"
     inkscape:pageshadow="2"
     inkscape:zoom="0.24748737"
     inkscape:cx="70.539492"
     inkscape:cy="210.1037"
     inkscape:document-units="px"
     inkscape:current-layer="layer1"
     width="1700px"
     height="500px"
     inkscape:window-width="1024"
     inkscape:window-height="708"
     inkscape:window-x="-4"
     inkscape:window-y="30" />
  <defs
     id="defs2439" />
  <metadata
     id="metadata2442">
    <rdf:RDF>
      <cc:Work
         rdf:about="">
        <dc:format>image/svg+xml</dc:format>
        <dc:type
           rdf:resource="http://purl.org/dc/dcmitype/StillImage" />
      </cc:Work>
    </rdf:RDF>
  </metadata>
  <g
     inkscape:label="Layer 1"
     id="layer1"
     transform="translate(-422.26427,-739.91603)"
     inkscape:groupmode="layer">
    <path
       style="fill:none;fill-rule:nonzero;stroke:#ff0000;stroke-width:9px;stroke-linecap:butt;stroke-linejoin:round"
       id="path2346"
       d="M 446.28572,997.57647 L 1982.2857,997.57647" />
    <path
       style="fill:#000000;fill-rule:nonzero;stroke:none;stroke-linecap:round;stroke-linejoin:round"
       id="path2348"
       d="M 446.28572,985.57647 L 441.28572,986.57647 L 437.28572,988.57647 L 435.28572,992.57647 L 434.28572,997.57647 L 435.28572,1002.5765 L 437.28572,1006.5765 L 441.28572,1008.5765 L 446.28572,1009.5765 L 451.28572,1008.5765 L 455.28572,1006.5765 L 457.28572,1002.5765 L 458.28572,997.57647 L 457.28572,992.57647 L 455.28572,988.57647 L 451.28572,986.57647 L 446.28572,985.57647 z " />
    <path
       style="fill:none;fill-rule:nonzero;stroke:#000000;stroke-width:3px;stroke-linecap:round;stroke-linejoin:round"
       id="path2350"
       d="M 446.28572,985.57647 L 441.28572,986.57647 L 437.28572,988.57647 L 435.28572,992.57647 L 434.28572,997.57647 L 435.28572,1002.5765 L 437.28572,1006.5765 L 441.28572,1008.5765 L 446.28572,1009.5765 L 451.28572,1008.5765 L 455.28572,1006.5765 L 457.28572,1002.5765 L 458.28572,997.57647 L 457.28572,992.57647 L 455.28572,988.57647 L 451.28572,986.57647 L 446.28572,985.57647" />
    <path
       style="fill:#000000;fill-rule:nonzero;stroke:none;stroke-linecap:round;stroke-linejoin:round"
       id="path2352"
       d="M 1982.2857,985.57647 L 1977.2857,986.57647 L 1973.2857,988.57647 L 1971.2857,992.57647 L 1970.2857,997.57647 L 1971.2857,1002.5765 L 1973.2857,1006.5765 L 1977.2857,1008.5765 L 1982.2857,1009.5765 L 1987.2857,1008.5765 L 1991.2857,1006.5765 L 1993.2857,1002.5765 L 1994.2857,997.57647 L 1993.2857,992.57647 L 1991.2857,988.57647 L 1987.2857,986.57647 L 1982.2857,985.57647 z " />
    <path
       style="fill:none;fill-rule:nonzero;stroke:#000000;stroke-width:3px;stroke-linecap:round;stroke-linejoin:round"
       id="path2354"
       d="M 1982.2857,985.57647 L 1977.2857,986.57647 L 1973.2857,988.57647 L 1971.2857,992.57647 L 1970.2857,997.57647 L 1971.2857,1002.5765 L 1973.2857,1006.5765 L 1977.2857,1008.5765 L 1982.2857,1009.5765 L 1987.2857,1008.5765 L 1991.2857,1006.5765 L 1993.2857,1002.5765 L 1994.2857,997.57647 L 1993.2857,992.57647 L 1991.2857,988.57647 L 1987.2857,986.57647 L 1982.2857,985.57647" />
    <path
       style="fill:none;fill-rule:nonzero;stroke:#000000;stroke-width:6px;stroke-linecap:butt;stroke-linejoin:round"
       id="path2356"
       d="M 1214.2857,961.57647 L 1214.2857,1033.5765 M 1598.2857,961.57647 L 1598.2857,1033.5765 M 1790.2857,961.57647 L 1790.2857,1033.5765 M 1886.2857,961.57647 L 1886.2857,1033.5765 M 1934.2857,961.57647 L 1934.2857,1033.5765" />
    <path
       style="fill:none;fill-rule:nonzero;stroke:#000000;stroke-width:4px;stroke-linecap:butt;stroke-linejoin:round"
       d="M 1790.2857,937.57647 L 1789.2857,928.57647 L 1785.2857,920.57647 L 1780.2857,915.57647 L 1774.2857,913.57647 L 1707.2857,913.57647 L 1704.2857,911.57647 L 1699.2857,906.57647 L 1695.2857,898.57647 L 1694.2857,889.57647 L 1693.2857,898.57647 L 1689.2857,906.57647 L 1684.2857,911.57647 L 1681.2857,913.57647 L 1614.2857,913.57647 L 1608.2857,915.57647 L 1603.2857,920.57647 L 1599.2857,928.57647 L 1598.2857,937.57647 L 1596.2857,923.57647 L 1593.2857,917.57647 L 1589.2857,912.57647 L 1584.2857,907.57647 L 1579.2857,904.57647 L 1573.2857,902.57647 L 1566.2857,901.57647 L 1438.2857,901.57647 L 1431.2857,900.57647 L 1425.2857,898.57647 L 1420.2857,895.57647 L 1415.2857,891.57647 L 1411.2857,885.57647 L 1409.2857,879.57647 L 1407.2857,872.57647 L 1406.2857,865.57647 L 1404.2857,879.57647 L 1401.2857,885.57647 L 1397.2857,891.57647 L 1392.2857,895.57647 L 1387.2857,898.57647 L 1381.2857,900.57647 L 1374.2857,901.57647 L 1246.2857,901.57647 L 1239.2857,902.57647 L 1233.2857,904.57647 L 1228.2857,907.57647 L 1223.2857,912.57647 L 1219.2857,917.57647 L 1217.2857,923.57647 L 1215.2857,930.57647 L 1214.2857,937.57647 L 1213.2857,927.57647 L 1209.2857,918.57647 L 1203.2857,910.57647 L 1195.2857,903.57647 L 1186.2857,897.57647 L 1175.2857,893.57647 L 1163.2857,890.57647 L 1150.2857,889.57647 L 894.28572,889.57647 L 881.28572,888.57647 L 869.28572,885.57647 L 858.28572,881.57647 L 849.28572,875.57647 L 841.28572,868.57647 L 835.28572,860.57647 L 831.28572,851.57647 L 830.28572,841.57647 L 829.28572,851.57647 L 825.28572,860.57647 L 819.28572,868.57647 L 811.28572,875.57647 L 802.28572,881.57647 L 791.28572,885.57647 L 779.28572,888.57647 L 766.28572,889.57647 L 510.28572,889.57647 L 497.28572,890.57647 L 485.28572,893.57647 L 474.28572,897.57647 L 465.28572,903.57647 L 457.28572,910.57647 L 451.28572,918.57647 L 447.28572,927.57647 L 446.28572,937.57647"
       sodipodi:nodetypes="ccccccccccccccccccccccccccccccccccccccccccccccccccccccccccccccccccccccccccccccccccccc"
       id="path2360" />
    <path
       style="fill:#000000;fill-rule:nonzero;stroke:none;stroke-linecap:round;stroke-linejoin:round"
       id="path2362"
       d="M 1858.7578,920.49525 L 1855.7578,921.49525 L 1854.7578,924.49525 L 1855.7578,928.49525 L 1858.7578,929.49525 L 1862.7578,928.49525 L 1863.7578,924.49525 L 1862.7578,921.49525 L 1858.7578,920.49525 z M 1881.7578,920.49525 L 1878.7578,921.49525 L 1877.7578,924.49525 L 1878.7578,928.49525 L 1881.7578,929.49525 L 1885.7578,928.49525 L 1886.7578,924.49525 L 1885.7578,921.49525 L 1881.7578,920.49525 z M 1903.7578,920.49525 L 1900.7578,921.49525 L 1899.7578,924.49525 L 1900.7578,928.49525 L 1903.7578,929.49525 L 1907.7578,928.49525 L 1908.7578,924.49525 L 1907.7578,921.49525 L 1903.7578,920.49525 z " />
    <g
       id="g2468"
       transform="matrix(3,0,0,3,-184.03571,-1819.3714)">
      <g
         style="font-style:normal;font-variant:normal;font-weight:normal;font-stretch:normal;letter-spacing:normal;word-spacing:normal;text-anchor:start;fill:none;fill-opacity:1;fill-rule:evenodd;stroke:#000000;stroke-linecap:butt;stroke-linejoin:miter;stroke-miterlimit:10.43299961;stroke-dasharray:none;stroke-dashoffset:0;stroke-opacity:1"
         id="g2470"
         xml:space="preserve"
         transform="matrix(0.7142857,0,0,-0.7142857,-125,1275)"><path
           style="fill:#000000;stroke-width:0"
           id="path2472"
           d="M 478.91,421.94 L 478.91,422.69 L 478.9,423.43 L 478.88,424.18 L 478.85,424.92 L 478.8,425.67 L 478.74,426.41 L 478.67,427.15 L 478.57,427.88 L 478.46,428.61 L 478.32,429.34 L 478.16,430.06 L 477.97,430.78 L 477.75,431.49 L 477.51,432.2 L 477.23,432.9 L 477.08,433.25 L 476.92,433.6 C 474.63,438.38 470.55,439.18 468.45,439.18 C 465.46,439.18 461.83,437.88 459.79,433.25 C 458.19,429.81 457.94,425.93 457.94,421.94 C 457.94,418.2 458.14,413.72 460.18,409.93 C 462.33,405.9 465.96,404.9 468.4,404.9 L 468.4,406 C 466.46,406 463.52,407.25 462.63,412.03 C 462.08,415.02 462.08,419.6 462.08,422.54 C 462.08,425.73 462.08,429.01 462.48,431.7 C 463.42,437.63 467.16,438.08 468.4,438.08 C 470.05,438.08 473.34,437.18 474.28,432.25 C 474.78,429.46 474.78,425.68 474.78,422.54 C 474.78,418.8 474.78,415.41 474.23,412.23 C 473.48,407.5 470.64,406 468.4,406 L 468.4,406 L 468.4,404.9 C 471.09,404.9 474.88,405.95 477.07,410.68 C 478.66,414.12 478.91,418 478.91,421.94 z " /></g>    </g>
    <g
       id="g2524"
       transform="matrix(3,0,0,3,1351.9286,-1882.3)">
      <g
         style="font-style:normal;font-variant:normal;font-weight:normal;font-stretch:normal;letter-spacing:normal;word-spacing:normal;text-anchor:start;fill:none;fill-opacity:1;fill-rule:evenodd;stroke:#000000;stroke-linecap:butt;stroke-linejoin:miter;stroke-miterlimit:10.43299961;stroke-dasharray:none;stroke-dashoffset:0;stroke-opacity:1"
         id="g2526"
         xml:space="preserve"
         transform="matrix(0.7142857,0,0,-0.7142857,-125,1275)"><path
           style="fill:#000000;stroke-width:0"
           id="path2528"
           d="M 470.64,408.94677 L 470.64,408.99677 L 470.64,409.05677 L 470.64,409.10677 L 470.64,409.15677 L 470.64,409.20677 L 470.64,409.25677 L 470.64,409.29677 L 470.64,409.34677 L 470.64,409.38677 L 470.64,409.42677 L 470.64,409.46677 L 470.64,409.50677 L 470.64,409.54677 L 470.63,409.58677 L 470.63,409.61677 L 470.63,409.65677 L 470.62,409.68677 L 470.62,409.71677 L 470.61,409.77677 L 470.6,409.82677 L 470.58,409.87677 L 470.57,409.92677 L 470.55,409.96677 L 470.53,410.00677 L 470.5,410.04677 L 470.47,410.07677 L 470.44,410.09677 L 470.41,410.12677 L 470.37,410.14677 L 470.32,410.16677 L 470.3,410.17677 L 470.27,410.18677 L 470.25,410.18677 L 470.22,410.19677 L 470.19,410.20677 L 470.16,410.20677 L 470.13,410.21677 L 470.1,410.21677 L 470.07,410.22677 L 470.03,410.22677 L 469.99,410.22677 L 469.96,410.22677 L 469.92,410.23677 L 469.88,410.23677 L 469.84,410.23677 L 469.79,410.23677 L 469.75,410.23677 L 469.7,410.23677 L 469.65,410.24677 L 469.6,410.24677 L 469.55,410.24677 L 469.5,410.24677 C 466.41,407.05677 462.03,407.05677 460.43,407.05677 L 460.43,405.50677 C 461.43,405.50677 464.37,405.50677 466.96,406.80677 L 466.96,380.99677 C 466.96,379.20677 466.81,378.60677 462.33,378.60677 L 460.73,378.60677 L 460.73,377.06677 C 462.48,377.21677 466.81,377.21677 468.8,377.21677 C 470.79,377.21677 475.13,377.21677 476.87,377.06677 L 476.87,378.60677 L 475.28,378.60677 C 470.79,378.60677 470.64,379.15677 470.64,380.99677 L 470.64,408.94677 z " /></g>    </g>
    <g
       id="g2568"
       transform="matrix(2.5,0,0,2.5,684.68571,-1336.9197)">
      <g
         style="font-style:normal;font-variant:normal;font-weight:normal;font-stretch:normal;letter-spacing:normal;word-spacing:normal;text-anchor:start;fill:none;fill-opacity:1;fill-rule:evenodd;stroke:#000000;stroke-linecap:butt;stroke-linejoin:miter;stroke-miterlimit:10.43299961;stroke-dasharray:none;stroke-dashoffset:0;stroke-opacity:1"
         id="g2570"
         xml:space="preserve"
         transform="matrix(0.7142857,0,0,-0.7142857,-125,1275)"><path
           style="fill:#000000;stroke-width:0"
           id="path2572"
           d="M 473.68,448.18 L 473.68,448.22 L 473.68,448.26 L 473.68,448.3 L 473.68,448.34 L 473.68,448.38 L 473.68,448.42 L 473.68,448.45 L 473.68,448.49 L 473.67,448.52 L 473.67,448.55 L 473.67,448.59 L 473.67,448.62 L 473.66,448.64 L 473.66,448.67 L 473.66,448.7 L 473.65,448.73 L 473.65,448.75 L 473.65,448.77 L 473.63,448.82 L 473.62,448.86 L 473.61,448.9 L 473.59,448.93 L 473.57,448.96 L 473.55,448.99 L 473.52,449.02 L 473.5,449.04 L 473.47,449.06 L 473.43,449.08 L 473.4,449.09 L 473.36,449.1 L 473.31,449.12 L 473.26,449.12 L 473.24,449.13 L 473.21,449.13 L 473.18,449.14 L 473.16,449.14 L 473.13,449.14 L 473.1,449.14 L 473.06,449.14 L 473.03,449.15 L 473,449.15 L 472.96,449.15 L 472.93,449.15 L 472.89,449.15 L 472.85,449.15 L 472.81,449.15 L 472.77,449.15 L 472.73,449.15 L 472.68,449.15 L 472.64,449.15 C 470.4,446.96 467.23,446.92 465.8,446.92 L 465.8,445.67 C 466.64,445.67 468.94,445.67 470.86,446.64 L 470.86,428.86 C 470.86,427.71 470.86,427.25 467.37,427.25 L 466.04,427.25 L 466.04,426 C 466.67,426.04 470.96,426.14 472.25,426.14 C 473.33,426.14 477.73,426.04 478.49,426 L 478.49,427.25 L 477.17,427.25 C 473.68,427.25 473.68,427.71 473.68,428.86 L 473.68,448.18 z " /><polyline
           style="fill:#000000;fill-rule:nonzero;stroke-width:0"
           id="polyline2574"
           points="462,418 481.92,418 481.92,420.04 462,420.04 " /><path
           style="fill:#000000;stroke-width:0"
           id="path2576"
           d="M 479.61,395.35 L 478.42,395.35 C 478.32,394.58 477.97,392.52 477.52,392.17 C 477.24,391.96 474.55,391.96 474.07,391.96 L 467.65,391.96 C 471.31,395.21 472.53,396.18 474.62,397.82 C 477.2,399.88 479.61,402.04 479.61,405.36 C 479.61,409.57 475.91,412.15 471.45,412.15 C 467.13,412.15 464.2,409.12 464.2,405.91 C 464.2,404.13 465.7,403.96 466.04,403.96 C 466.88,403.96 467.89,404.55 467.89,405.81 C 467.89,406.43 467.65,407.66 465.84,407.66 C 466.92,410.13 469.29,410.9 470.93,410.9 C 474.41,410.9 476.23,408.18 476.23,405.36 C 476.23,402.32 474.07,399.91 472.95,398.66 L 464.55,390.36 C 464.2,390.05 464.2,389.98 464.2,389 L 478.56,389 L 479.61,395.35 z " /></g>    </g>
    <g
       id="g2626"
       transform="matrix(2.5,0,0,2.5,1067.7579,-1336.1916)">
      <g
         style="font-style:normal;font-variant:normal;font-weight:normal;font-stretch:normal;letter-spacing:normal;word-spacing:normal;text-anchor:start;fill:none;fill-opacity:1;fill-rule:evenodd;stroke:#000000;stroke-linecap:butt;stroke-linejoin:miter;stroke-miterlimit:10.43299961;stroke-dasharray:none;stroke-dashoffset:0;stroke-opacity:1"
         id="g2628"
         xml:space="preserve"
         transform="matrix(0.7142857,0,0,-0.7142857,-125,1275)"><path
           style="fill:#000000;stroke-width:0"
           id="path2630"
           d="M 471.52,437.64 L 471.77,437.64 L 472.02,437.62 L 472.26,437.6 L 472.5,437.56 L 472.73,437.51 L 472.96,437.45 L 473.18,437.38 L 473.4,437.29 L 473.61,437.2 L 473.81,437.09 L 474,436.98 L 474.19,436.85 L 474.37,436.72 L 474.55,436.57 L 474.72,436.41 L 474.87,436.24 L 475.03,436.06 L 475.17,435.86 L 475.3,435.66 L 475.43,435.45 L 475.55,435.22 L 475.66,434.99 L 475.75,434.74 L 475.84,434.48 L 475.92,434.21 L 475.99,433.93 L 476.05,433.64 L 476.1,433.34 L 476.14,433.03 L 476.17,432.71 L 476.19,432.38 L 476.19,432.03 C 476.19,427.71 473.68,426.42 471.66,426.42 C 470.27,426.42 467.2,426.8 465.73,428.86 C 467.37,428.93 467.75,430.08 467.75,430.81 C 467.75,431.93 466.92,432.73 465.84,432.73 C 464.86,432.73 463.88,432.14 463.88,430.71 C 463.88,427.43 467.51,425.3 471.73,425.3 C 476.57,425.3 479.92,428.55 479.92,432.03 C 479.92,434.75 477.69,437.47 473.86,438.27 C 477.52,439.6 478.84,442.21 478.84,444.34 C 478.84,447.1 475.67,449.15 471.8,449.15 C 467.93,449.15 464.96,447.27 464.96,444.48 C 464.96,443.3 465.73,442.63 466.78,442.63 C 467.86,442.63 468.55,443.43 468.55,444.41 C 468.55,445.42 467.86,446.16 466.78,446.22 C 468,447.76 470.4,448.14 471.7,448.14 C 473.26,448.14 475.46,447.38 475.46,444.34 C 475.46,442.88 474.97,441.27 474.07,440.19 C 472.91,438.87 471.94,438.8 470.2,438.69 C 469.32,438.62 469.25,438.62 469.08,438.59 C 469.01,438.59 468.73,438.52 468.73,438.13 C 468.73,437.64 469.04,437.64 469.64,437.64 L 471.52,437.64 z " /><polyline
           style="fill:#000000;fill-rule:nonzero;stroke-width:0"
           id="polyline2632"
           points="462,418 481.92,418 481.92,420.04 462,420.04 " /><path
           style="fill:#000000;stroke-width:0"
           id="path2634"
           d="M 480.45,394.72 L 480.45,395.97 L 476.57,395.97 L 476.57,411.53 C 476.57,412.26 476.57,412.5 475.81,412.5 C 475.39,412.5 475.25,412.5 474.9,412.01 L 463.36,395.97 L 463.36,394.72 L 473.61,394.72 L 473.86,395.97 L 464.65,395.97 L 473.86,408.73 L 473.86,395.97 L 473.61,394.72 L 473.61,391.86 C 473.61,390.67 473.61,390.25 470.79,390.25 L 469.84,390.25 L 469.84,389 C 471.59,389.07 473.82,389.14 475.07,389.14 C 476.37,389.14 478.6,389.07 480.34,389 L 480.34,390.25 L 479.4,390.25 C 476.57,390.25 476.57,390.67 476.57,391.86 L 476.57,394.72 L 480.45,394.72 z " /></g>    </g>
    <g
       id="g2694"
       transform="matrix(2.5,0,0,2.5,1259.6665,-1336.301)">
      <g
         style="font-style:normal;font-variant:normal;font-weight:normal;font-stretch:normal;letter-spacing:normal;word-spacing:normal;text-anchor:start;fill:none;fill-opacity:1;fill-rule:evenodd;stroke:#000000;stroke-linecap:butt;stroke-linejoin:miter;stroke-miterlimit:10.43299961;stroke-dasharray:none;stroke-dashoffset:0;stroke-opacity:1"
         id="g2696"
         xml:space="preserve"
         transform="matrix(0.7142857,0,0,-0.7142857,-125,1275)"><path
           style="fill:#000000;stroke-width:0"
           id="path2698"
           d="M 480.66,447.06 L 480.69,447.1 L 480.72,447.14 L 480.74,447.17 L 480.77,447.21 L 480.79,447.24 L 480.82,447.27 L 480.84,447.3 L 480.86,447.33 L 480.87,447.36 L 480.89,447.39 L 480.91,447.42 L 480.92,447.45 L 480.93,447.48 L 480.94,447.51 L 480.95,447.54 L 480.96,447.58 L 480.97,447.61 L 480.97,447.65 L 480.98,447.69 L 480.99,447.73 L 480.99,447.77 L 480.99,447.82 L 481,447.86 L 481,447.92 L 481,447.97 L 481,448.03 L 481,448.09 L 481,448.15 L 481,448.22 L 481,448.26 L 481,448.3 L 481,448.33 L 481,448.37 L 481,448.42 L 481,448.46 L 471.87,448.46 C 470.47,448.46 470.09,448.49 468.84,448.59 C 467.02,448.73 466.95,448.98 466.85,449.57 L 465.66,449.57 L 464.44,442.11 L 465.63,442.11 C 465.7,442.63 466.04,444.93 466.6,445.28 C 466.88,445.49 469.71,445.49 470.23,445.49 L 477.83,445.49 C 476.71,444.03 474.94,441.87 474.2,440.89 C 469.64,434.89 469.22,429.35 469.22,427.29 C 469.22,426.91 469.22,425.3 470.86,425.3 C 472.53,425.3 472.53,426.87 472.53,427.32 L 472.53,428.72 C 472.53,435.48 473.93,438.59 475.43,440.47 L 480.66,447.06 z " /><polyline
           style="fill:#000000;fill-rule:nonzero;stroke-width:0"
           id="polyline2700"
           points="462,418 481.92,418 481.92,420.04 462,420.04 " /><path
           style="fill:#000000;stroke-width:0"
           id="path2702"
           d="M 474.38,401.59 L 474.63,401.71 L 474.88,401.84 L 475.12,401.97 L 475.35,402.1 L 475.58,402.23 L 475.8,402.37 L 476.02,402.51 L 476.22,402.65 L 476.43,402.79 L 476.62,402.94 L 476.81,403.08 L 476.99,403.23 L 477.16,403.39 L 477.32,403.54 L 477.48,403.7 L 477.63,403.87 L 477.77,404.03 L 477.91,404.2 L 478.03,404.37 L 478.15,404.55 L 478.26,404.73 L 478.36,404.91 L 478.45,405.1 L 478.53,405.29 L 478.6,405.48 L 478.66,405.68 L 478.72,405.88 L 478.76,406.09 L 478.8,406.3 L 478.82,406.51 L 478.84,406.73 L 478.84,406.96 C 478.84,410.34 475.32,412.15 471.94,412.15 L 471.87,411.14 C 474.59,411.14 476.99,409.43 476.99,406.96 C 476.99,403.86 473.37,402.29 473.3,402.29 C 473.23,402.29 473.16,402.32 472.91,402.46 L 468.7,404.9 C 467.79,405.42 466.81,406.36 466.81,407.66 C 466.81,409.85 469.36,411.14 471.87,411.14 L 471.94,412.15 C 468.1,412.15 464.96,409.64 464.96,406.33 C 464.96,404.69 465.73,403.5 466.36,402.81 C 466.98,402.07 467.23,401.94 469.29,400.71 C 467.34,399.88 463.88,398 463.88,394.34 C 463.88,390.46 467.89,388.3 471.87,388.3 L 471.94,389.42 C 468.73,389.42 465.98,391.48 465.98,394.34 C 465.98,396.91 467.89,398.9 470.4,400.05 L 470.4,400.05 C 472.36,398.94 472.43,398.94 475.18,397.3 C 476.09,396.78 477.83,395.73 477.83,393.67 C 477.83,391.06 474.94,389.42 471.94,389.42 L 471.87,388.3 C 476.3,388.3 479.92,391.13 479.92,394.89 C 479.92,397.2 478.56,399.15 476.54,400.33 C 476.09,400.61 474.87,401.31 474.38,401.59 z " /></g>    </g>
    <path
       style="fill:#000000;fill-rule:nonzero;stroke:none;stroke-linecap:round;stroke-linejoin:round"
       id="path2826"
       d="M 1859.5033,1098.1018 L 1856.5033,1099.1018 L 1855.5033,1102.1018 L 1856.5033,1106.1018 L 1859.5033,1107.1018 L 1863.5033,1106.1018 L 1864.5033,1102.1018 L 1863.5033,1099.1018 L 1859.5033,1098.1018 z M 1882.5033,1098.1018 L 1879.5033,1099.1018 L 1878.5033,1102.1018 L 1879.5033,1106.1018 L 1882.5033,1107.1018 L 1886.5033,1106.1018 L 1887.5033,1102.1018 L 1886.5033,1099.1018 L 1882.5033,1098.1018 z M 1904.5033,1098.1018 L 1901.5033,1099.1018 L 1900.5033,1102.1018 L 1901.5033,1106.1018 L 1904.5033,1107.1018 L 1908.5033,1106.1018 L 1909.5033,1102.1018 L 1908.5033,1099.1018 L 1904.5033,1098.1018 z " />
    <path
       style="fill:none;fill-rule:evenodd;stroke:#000000;stroke-width:6.0733366;stroke-linecap:butt;stroke-linejoin:miter;stroke-miterlimit:4;stroke-dasharray:none;stroke-opacity:1"
       d="M 1978.5866,961.60744 L 1978.5866,1033.5398"
       id="path2833" />
    <path
       style="fill:none;fill-rule:evenodd;stroke:#000000;stroke-width:6.07333326;stroke-linecap:butt;stroke-linejoin:miter;stroke-miterlimit:4;stroke-dasharray:none;stroke-opacity:1"
       d="M 1958.5173,961.60744 L 1958.5173,1033.5398"
       id="path4773" />
    <path
       style="fill:none;fill-rule:evenodd;stroke:#000000;stroke-width:6.07333517;stroke-linecap:butt;stroke-linejoin:miter;stroke-miterlimit:4;stroke-dasharray:none;stroke-opacity:1"
       d="M 1970.3866,961.60744 L 1970.3866,1033.5398"
       id="path4775" />
    <g
       id="g5122"
       transform="matrix(2.5,0,0,2.5,835.7375,-1633.0125)">
      <g
         style="font-style:normal;font-variant:normal;font-weight:normal;font-stretch:normal;letter-spacing:normal;word-spacing:normal;text-anchor:start;fill:none;fill-opacity:1;fill-rule:evenodd;stroke:#000000;stroke-linecap:butt;stroke-linejoin:miter;stroke-miterlimit:10.43299961;stroke-dasharray:none;stroke-dashoffset:0;stroke-opacity:1"
         id="g5124"
         xml:space="preserve"
         transform="matrix(0.7142857,0,0,-0.7142857,-125,1275)"><path
           style="fill:#000000;stroke-width:0"
           id="path5126"
           d="M 470.64,437.88 L 470.64,437.93 L 470.64,437.99 L 470.64,438.04 L 470.64,438.09 L 470.64,438.14 L 470.64,438.19 L 470.64,438.23 L 470.64,438.28 L 470.64,438.32 L 470.64,438.36 L 470.64,438.4 L 470.64,438.44 L 470.64,438.48 L 470.63,438.52 L 470.63,438.55 L 470.63,438.59 L 470.62,438.62 L 470.62,438.65 L 470.61,438.71 L 470.6,438.76 L 470.58,438.81 L 470.57,438.86 L 470.55,438.9 L 470.53,438.94 L 470.5,438.98 L 470.47,439.01 L 470.44,439.03 L 470.41,439.06 L 470.37,439.08 L 470.32,439.1 L 470.3,439.11 L 470.27,439.12 L 470.25,439.12 L 470.22,439.13 L 470.19,439.14 L 470.16,439.14 L 470.13,439.15 L 470.1,439.15 L 470.07,439.16 L 470.03,439.16 L 469.99,439.16 L 469.96,439.16 L 469.92,439.17 L 469.88,439.17 L 469.84,439.17 L 469.79,439.17 L 469.75,439.17 L 469.7,439.17 L 469.65,439.18 L 469.6,439.18 L 469.55,439.18 L 469.5,439.18 C 466.41,435.99 462.03,435.99 460.43,435.99 L 460.43,434.44 C 461.43,434.44 464.37,434.44 466.96,435.74 L 466.96,409.93 C 466.96,408.14 466.81,407.54 462.33,407.54 L 460.73,407.54 L 460.73,406 C 462.48,406.15 466.81,406.15 468.8,406.15 C 470.79,406.15 475.13,406.15 476.87,406 L 476.87,407.54 L 475.28,407.54 C 470.79,407.54 470.64,408.09 470.64,409.93 L 470.64,437.88 z " /><path
           style="fill:#000000;stroke-width:0"
           id="path5128"
           d="M 501.87,441.47 L 501.88,441.5 L 501.89,441.53 L 501.9,441.56 L 501.91,441.58 L 501.92,441.61 L 501.93,441.64 L 501.95,441.69 L 501.97,441.74 L 501.98,441.79 L 502,441.83 L 502.01,441.87 L 502.02,441.91 L 502.04,441.95 L 502.05,441.99 L 502.06,442.02 L 502.06,442.05 L 502.07,442.08 L 502.08,442.11 L 502.09,442.14 L 502.09,442.16 L 502.1,442.19 L 502.1,442.21 L 502.1,442.23 L 502.11,442.25 L 502.11,442.26 L 502.11,442.28 L 502.11,442.29 L 502.11,442.31 L 502.12,442.32 L 502.12,442.33 L 502.12,442.34 L 502.12,442.34 L 502.12,442.35 L 502.12,442.36 L 502.12,442.36 C 502.12,442.91 501.67,443.36 501.12,443.36 C 500.77,443.36 500.42,443.21 500.27,442.91 L 482.99,395.44 C 482.74,394.79 482.74,394.59 482.74,394.54 C 482.74,394 483.19,393.55 483.73,393.55 C 484.38,393.55 484.53,393.89 484.83,394.74 L 501.87,441.47 z " /><path
           style="fill:#000000;stroke-width:0"
           id="path5130"
           d="M 506.39,414.22 L 519.65,414.22 L 519.65,409.89 C 519.65,408.09 519.55,407.54 515.86,407.54 L 514.81,407.54 L 514.81,406 C 516.85,406.15 519.45,406.15 521.54,406.15 C 523.63,406.15 526.27,406.15 528.31,406 L 528.31,407.54 L 527.27,407.54 C 523.58,407.54 523.48,408.09 523.48,409.89 L 523.48,414.22 L 528.46,414.22 L 528.46,415.76 L 523.48,415.76 L 523.48,438.43 C 523.48,439.43 523.48,439.72 522.68,439.72 C 522.23,439.72 522.09,439.72 521.69,439.13 L 506.39,415.76 L 507.79,415.76 L 519.95,434.34 L 519.95,415.76 L 507.79,415.76 L 506.39,415.76 L 506.39,414.22 z " /></g>    </g>
    <g
       id="g5240"
       transform="matrix(2.5,0,0,2.5,260.32143,-1655.8697)">
      <g
         style="font-style:normal;font-variant:normal;font-weight:normal;font-stretch:normal;letter-spacing:normal;word-spacing:normal;text-anchor:start;fill:none;fill-opacity:1;fill-rule:evenodd;stroke:#000000;stroke-linecap:butt;stroke-linejoin:miter;stroke-miterlimit:10.43299961;stroke-dasharray:none;stroke-dashoffset:0;stroke-opacity:1"
         id="g5242"
         xml:space="preserve"
         transform="matrix(0.7142857,0,0,-0.7142857,-125,1275)"><path
           style="fill:#000000;stroke-width:0"
           id="path5244"
           d="M 470.64,437.88 L 470.64,437.93 L 470.64,437.99 L 470.64,438.04 L 470.64,438.09 L 470.64,438.14 L 470.64,438.19 L 470.64,438.23 L 470.64,438.28 L 470.64,438.32 L 470.64,438.36 L 470.64,438.4 L 470.64,438.44 L 470.64,438.48 L 470.63,438.52 L 470.63,438.55 L 470.63,438.59 L 470.62,438.62 L 470.62,438.65 L 470.61,438.71 L 470.6,438.76 L 470.58,438.81 L 470.57,438.86 L 470.55,438.9 L 470.53,438.94 L 470.5,438.98 L 470.47,439.01 L 470.44,439.03 L 470.41,439.06 L 470.37,439.08 L 470.32,439.1 L 470.3,439.11 L 470.27,439.12 L 470.25,439.12 L 470.22,439.13 L 470.19,439.14 L 470.16,439.14 L 470.13,439.15 L 470.1,439.15 L 470.07,439.16 L 470.03,439.16 L 469.99,439.16 L 469.96,439.16 L 469.92,439.17 L 469.88,439.17 L 469.84,439.17 L 469.79,439.17 L 469.75,439.17 L 469.7,439.17 L 469.65,439.18 L 469.6,439.18 L 469.55,439.18 L 469.5,439.18 C 466.41,435.99 462.03,435.99 460.43,435.99 L 460.43,434.44 C 461.43,434.44 464.37,434.44 466.96,435.74 L 466.96,409.93 C 466.96,408.14 466.81,407.54 462.33,407.54 L 460.73,407.54 L 460.73,406 C 462.48,406.15 466.81,406.15 468.8,406.15 C 470.79,406.15 475.13,406.15 476.87,406 L 476.87,407.54 L 475.28,407.54 C 470.79,407.54 470.64,408.09 470.64,409.93 L 470.64,437.88 z " /><path
           style="fill:#000000;stroke-width:0"
           id="path5246"
           d="M 501.87,441.47 L 501.88,441.5 L 501.89,441.53 L 501.9,441.56 L 501.91,441.58 L 501.92,441.61 L 501.93,441.64 L 501.95,441.69 L 501.97,441.74 L 501.98,441.79 L 502,441.83 L 502.01,441.87 L 502.02,441.91 L 502.04,441.95 L 502.05,441.99 L 502.06,442.02 L 502.06,442.05 L 502.07,442.08 L 502.08,442.11 L 502.09,442.14 L 502.09,442.16 L 502.1,442.19 L 502.1,442.21 L 502.1,442.23 L 502.11,442.25 L 502.11,442.26 L 502.11,442.28 L 502.11,442.29 L 502.11,442.31 L 502.12,442.32 L 502.12,442.33 L 502.12,442.34 L 502.12,442.34 L 502.12,442.35 L 502.12,442.36 L 502.12,442.36 C 502.12,442.91 501.67,443.36 501.12,443.36 C 500.77,443.36 500.42,443.21 500.27,442.91 L 482.99,395.44 C 482.74,394.79 482.74,394.59 482.74,394.54 C 482.74,394 483.19,393.55 483.73,393.55 C 484.38,393.55 484.53,393.89 484.83,394.74 L 501.87,441.47 z " /><path
           style="fill:#000000;stroke-width:0"
           id="path5248"
           d="M 527.37,414.67 L 526.12,414.67 C 525.87,413.17 525.52,410.98 525.02,410.23 C 524.68,409.84 521.39,409.84 520.29,409.84 L 511.33,409.84 L 516.6,414.96 C 524.38,421.84 527.37,424.53 527.37,429.51 C 527.37,435.19 522.88,439.18 516.8,439.18 C 511.18,439.18 507.49,434.59 507.49,430.16 C 507.49,427.37 509.98,427.37 510.13,427.37 C 510.98,427.37 512.72,427.97 512.72,430.01 C 512.72,431.3 511.82,432.6 510.08,432.6 C 509.68,432.6 509.58,432.6 509.43,432.55 C 510.58,435.79 513.27,437.63 516.16,437.63 C 520.69,437.63 522.83,433.6 522.83,429.51 C 522.83,425.53 520.34,421.59 517.6,418.5 L 508.04,407.84 C 507.49,407.3 507.49,407.2 507.49,406 L 525.97,406 L 527.37,414.67 z " /></g>    </g>
    <g
       id="g5354"
       transform="matrix(2.5,0,0,2.5,1124.6786,-1608.4411)">
      <g
         id="g5356"
         transform="matrix(0.7142857,0,0,-0.7142857,-125,1275)"
         style="font-style:normal;font-variant:normal;font-weight:normal;font-stretch:normal;letter-spacing:normal;word-spacing:normal;text-anchor:start;fill:none;fill-opacity:1;fill-rule:evenodd;stroke:#000000;stroke-linecap:butt;stroke-linejoin:miter;stroke-miterlimit:10.43299961;stroke-dasharray:none;stroke-dashoffset:0;stroke-opacity:1"
         xml:space="preserve"><path
           id="path5358"
           d="M 470.64,437.88 L 470.64,437.93 L 470.64,437.99 L 470.64,438.04 L 470.64,438.09 L 470.64,438.14 L 470.64,438.19 L 470.64,438.23 L 470.64,438.28 L 470.64,438.32 L 470.64,438.36 L 470.64,438.4 L 470.64,438.44 L 470.64,438.48 L 470.63,438.52 L 470.63,438.55 L 470.63,438.59 L 470.62,438.62 L 470.62,438.65 L 470.61,438.71 L 470.6,438.76 L 470.58,438.81 L 470.57,438.86 L 470.55,438.9 L 470.53,438.94 L 470.5,438.98 L 470.47,439.01 L 470.44,439.03 L 470.41,439.06 L 470.37,439.08 L 470.32,439.1 L 470.3,439.11 L 470.27,439.12 L 470.25,439.12 L 470.22,439.13 L 470.19,439.14 L 470.16,439.14 L 470.13,439.15 L 470.1,439.15 L 470.07,439.16 L 470.03,439.16 L 469.99,439.16 L 469.96,439.16 L 469.92,439.17 L 469.88,439.17 L 469.84,439.17 L 469.79,439.17 L 469.75,439.17 L 469.7,439.17 L 469.65,439.18 L 469.6,439.18 L 469.55,439.18 L 469.5,439.18 C 466.41,435.99 462.03,435.99 460.43,435.99 L 460.43,434.44 C 461.43,434.44 464.37,434.44 466.96,435.74 L 466.96,409.93 C 466.96,408.14 466.81,407.54 462.33,407.54 L 460.73,407.54 L 460.73,406 C 462.48,406.15 466.81,406.15 468.8,406.15 C 470.79,406.15 475.13,406.15 476.87,406 L 476.87,407.54 L 475.28,407.54 C 470.79,407.54 470.64,408.09 470.64,409.93 L 470.64,437.88 z "
           style="fill:#000000;stroke-width:0" /><path
           id="path5360"
           d="M 501.87,441.47 L 501.88,441.5 L 501.89,441.53 L 501.9,441.56 L 501.91,441.58 L 501.92,441.61 L 501.93,441.64 L 501.95,441.69 L 501.97,441.74 L 501.98,441.79 L 502,441.83 L 502.01,441.87 L 502.02,441.91 L 502.04,441.95 L 502.05,441.99 L 502.06,442.02 L 502.06,442.05 L 502.07,442.08 L 502.08,442.11 L 502.09,442.14 L 502.09,442.16 L 502.1,442.19 L 502.1,442.21 L 502.1,442.23 L 502.11,442.25 L 502.11,442.26 L 502.11,442.28 L 502.11,442.29 L 502.11,442.31 L 502.12,442.32 L 502.12,442.33 L 502.12,442.34 L 502.12,442.34 L 502.12,442.35 L 502.12,442.36 L 502.12,442.36 C 502.12,442.91 501.67,443.36 501.12,443.36 C 500.77,443.36 500.42,443.21 500.27,442.91 L 482.99,395.44 C 482.74,394.79 482.74,394.59 482.74,394.54 C 482.74,394 483.19,393.55 483.73,393.55 C 484.38,393.55 484.53,393.89 484.83,394.74 L 501.87,441.47 z "
           style="fill:#000000;stroke-width:0" /><path
           id="path5362"
           d="M 520.39,424.03 L 520.72,424.21 L 521.05,424.39 L 521.37,424.57 L 521.68,424.76 L 521.98,424.95 L 522.28,425.15 L 522.57,425.35 L 522.85,425.55 L 523.12,425.76 L 523.38,425.98 L 523.63,426.2 L 523.88,426.42 L 524.11,426.64 L 524.33,426.88 L 524.55,427.11 L 524.75,427.35 L 524.94,427.59 L 525.13,427.84 L 525.3,428.09 L 525.46,428.35 L 525.61,428.61 L 525.74,428.88 L 525.87,429.15 L 525.98,429.42 L 526.08,429.7 L 526.17,429.98 L 526.24,430.26 L 526.31,430.55 L 526.35,430.85 L 526.39,431.15 L 526.41,431.45 L 526.42,431.75 C 526.42,436.34 521.98,439.18 517.45,439.18 L 517.4,437.93 C 521.04,437.93 524.23,435.34 524.23,431.75 C 524.23,428.91 522.28,426.52 519.3,424.78 L 513.12,428.77 C 510.83,430.26 510.63,431.95 510.63,432.8 C 510.63,435.84 513.87,437.93 517.4,437.93 L 517.45,439.18 C 512.47,439.18 508.44,435.49 508.44,430.86 C 508.44,429.96 508.54,427.72 510.63,425.38 C 511.18,424.78 513.02,423.54 514.27,422.69 L 515.41,421.94 C 516.8,421.09 519.15,419.6 521.54,418.05 C 522.93,417.11 525.27,415.61 525.27,412.57 C 525.27,408.89 521.54,406.3 517.45,406.3 C 513.17,406.3 509.58,409.39 509.58,413.52 C 509.58,416.41 511.18,419.6 515.41,421.94 L 515.41,421.94 L 514.27,422.69 C 511.38,421.24 507.09,418.45 507.09,413.52 C 507.09,408.24 512.17,404.9 517.4,404.9 C 523.03,404.9 527.77,409.04 527.77,414.37 C 527.77,416.16 527.22,418.4 525.32,420.5 C 524.38,421.54 523.58,422.04 520.39,424.03 z "
           style="fill:#000000;stroke-width:0" /></g>    </g>
  </g>
</svg>
