<?xml version="1.0" encoding="utf-8" standalone="no"?>
<!DOCTYPE svg PUBLIC "-//W3C//DTD SVG 1.1//EN"
  "http://www.w3.org/Graphics/SVG/1.1/DTD/svg11.dtd">
<!-- Created with matplotlib (http://matplotlib.org/) -->
<svg height="432pt" version="1.1" viewBox="0 0 576 432" width="576pt" xmlns="http://www.w3.org/2000/svg" xmlns:xlink="http://www.w3.org/1999/xlink">
 <defs>
  <style type="text/css">
*{stroke-linecap:butt;stroke-linejoin:round;stroke-miterlimit:100000;}
  </style>
 </defs>
 <g id="figure_1">
  <g id="patch_1">
   <path d="M 0 432 
L 576 432 
L 576 0 
L 0 0 
z
" style="fill:#ffffff;"/>
  </g>
  <g id="axes_1">
   <g id="patch_2">
    <path d="M 72 388.8 
L 518.4 388.8 
L 518.4 43.2 
L 72 43.2 
z
" style="fill:#ffffff;"/>
   </g>
   <g id="patch_3">
    <path clip-path="url(#p3a958d2731)" d="M 250.56 223.854545 
L 339.84 223.854545 
L 339.84 208.145455 
L 250.56 208.145455 
L 250.56 223.854545 
z
" style="fill:#f2f2f2;stroke:#b2b2b2;stroke-linejoin:miter;"/>
   </g>
   <g id="line2d_1">
    <path clip-path="url(#p3a958d2731)" d="M 71.970987 348.210774 
L 90.775938 332.945982 
L 108.009719 318.673993 
L 123.966923 305.173015 
L 138.893047 292.255962 
L 153.229981 279.555852 
L 167.566915 266.556277 
L 183.867813 251.460739 
L 205.766007 231.1811 
L 212.983574 224.823576 
L 218.384474 220.349181 
L 222.803392 216.967532 
L 226.534923 214.383135 
L 229.775462 212.400242 
L 232.672309 210.882774 
L 235.274561 209.765661 
L 237.631317 208.988064 
L 239.840776 208.48907 
L 241.902938 208.247115 
L 243.866901 208.236184 
L 245.781766 208.446378 
L 247.69663 208.885075 
L 249.611495 209.556623 
L 251.575458 210.482088 
L 253.735818 211.752535 
L 256.387169 213.588329 
L 261.493475 217.190263 
L 263.113745 218.023751 
L 264.43942 218.465997 
L 265.617798 218.628845 
L 266.697978 218.560941 
L 267.778158 218.275142 
L 268.956536 217.727569 
L 270.429509 216.778413 
L 273.031761 215.070006 
L 273.964644 214.741912 
L 274.750229 214.685646 
L 275.535814 214.856721 
L 276.419598 215.299255 
L 278.972751 216.770321 
L 279.56194 216.764042 
L 280.200228 216.522453 
L 282.282406 215.47383 
L 282.753381 215.612245 
L 283.637164 216.184769 
L 284.177254 216.377518 
L 284.619146 216.275751 
L 285.846623 215.736544 
L 286.288515 215.978388 
L 286.779506 216.219268 
L 287.1232 216.122784 
L 287.761488 215.827777 
L 288.105181 216.006926 
L 288.448875 216.143321 
L 288.74347 215.998405 
L 289.087163 215.890798 
L 289.676352 216.040336 
L 290.020046 215.934088 
L 290.412839 216.034593 
L 290.707433 215.96494 
L 290.952929 216.042851 
L 291.198424 215.964827 
L 291.44392 216.011721 
L 291.647662 216 
L 291.816821 216 
L 291.98401 216.009268 
L 292.131307 215.986343 
L 292.425901 215.977188 
L 292.720496 216.017172 
L 292.965991 215.990845 
L 293.170092 216 
L 293.423831 216 
L 293.688367 216 
L 293.931308 216 
L 294.199341 216 
L 294.471315 215.998326 
L 294.746027 216.00065 
L 295.018527 215.999896 
L 295.273649 215.999985 
L 301.312837 216.109202 
L 301.558332 216.066201 
L 302.049323 215.863722 
L 302.442116 216.092864 
L 302.785809 216.165552 
L 303.178602 215.940774 
L 303.571395 215.779206 
L 303.915088 215.889826 
L 304.749773 216.282417 
L 305.142566 216.137767 
L 306.173647 215.621515 
L 306.615538 215.734419 
L 307.499322 216.308104 
L 308.088511 216.523405 
L 308.579502 216.466984 
L 309.21779 216.131988 
L 310.690763 215.271028 
L 311.279952 215.211353 
L 311.91824 215.377472 
L 312.752925 215.855334 
L 314.765987 217.106162 
L 315.600672 217.310389 
L 316.386257 217.267971 
L 317.220942 216.997908 
L 318.301122 216.395245 
L 322.523644 213.761484 
L 323.652923 213.447316 
L 324.733103 213.369593 
L 325.862382 213.511605 
L 327.089859 213.895395 
L 328.513733 214.58341 
L 330.330399 215.726698 
L 333.620038 218.123394 
L 336.860578 220.372712 
L 339.119136 221.671434 
L 341.132199 222.58099 
L 343.047063 223.210786 
L 344.961928 223.607939 
L 346.876792 223.778083 
L 348.840756 223.72846 
L 350.902918 223.448996 
L 353.063278 222.927988 
L 355.370935 222.139974 
L 357.874989 221.046644 
L 360.624538 219.599758 
L 363.71778 217.712729 
L 367.203816 215.317542 
L 371.229941 212.273251 
L 376.041652 208.34388 
L 381.982642 203.191781 
L 390.034893 195.894108 
L 405.010115 181.959814 
L 424.453355 163.960011 
L 438.986685 150.818295 
L 453.32362 138.155797 
L 468.151545 125.358447 
L 483.863254 112.094341 
L 500.80244 98.088613 
L 518.429013 83.789226 
L 518.429013 83.789226 
" style="fill:none;stroke:#0000ff;stroke-linecap:square;"/>
   </g>
   <g id="patch_4">
    <path d="M 72 43.2 
L 518.4 43.2 
" style="fill:none;stroke:#000000;stroke-linecap:square;stroke-linejoin:miter;"/>
   </g>
   <g id="patch_5">
    <path d="M 518.4 388.8 
L 518.4 43.2 
" style="fill:none;stroke:#000000;stroke-linecap:square;stroke-linejoin:miter;"/>
   </g>
   <g id="patch_6">
    <path d="M 72 388.8 
L 518.4 388.8 
" style="fill:none;stroke:#000000;stroke-linecap:square;stroke-linejoin:miter;"/>
   </g>
   <g id="patch_7">
    <path d="M 72 388.8 
L 72 43.2 
" style="fill:none;stroke:#000000;stroke-linecap:square;stroke-linejoin:miter;"/>
   </g>
   <g id="matplotlib.axis_1">
    <g id="xtick_1">
     <g id="line2d_2">
      <defs>
       <path d="M 0 0 
L 0 -4 
" id="mb195d52d19" style="stroke:#000000;stroke-width:0.5;"/>
      </defs>
      <g>
       <use style="stroke:#000000;stroke-width:0.5;" x="72.0" xlink:href="#mb195d52d19" y="388.8"/>
      </g>
     </g>
     <g id="line2d_3">
      <defs>
       <path d="M 0 0 
L 0 4 
" id="m5bbf88c987" style="stroke:#000000;stroke-width:0.5;"/>
      </defs>
      <g>
       <use style="stroke:#000000;stroke-width:0.5;" x="72.0" xlink:href="#m5bbf88c987" y="43.2"/>
      </g>
     </g>
     <g id="text_1">
      <!-- −1.0 -->
      <defs>
       <path d="M 10.59375 35.5 
L 73.1875 35.5 
L 73.1875 27.203125 
L 10.59375 27.203125 
z
" id="BitstreamVeraSans-Roman-2212"/>
       <path d="M 31.78125 66.40625 
Q 24.171875 66.40625 20.328125 58.90625 
Q 16.5 51.421875 16.5 36.375 
Q 16.5 21.390625 20.328125 13.890625 
Q 24.171875 6.390625 31.78125 6.390625 
Q 39.453125 6.390625 43.28125 13.890625 
Q 47.125 21.390625 47.125 36.375 
Q 47.125 51.421875 43.28125 58.90625 
Q 39.453125 66.40625 31.78125 66.40625 
M 31.78125 74.21875 
Q 44.046875 74.21875 50.515625 64.515625 
Q 56.984375 54.828125 56.984375 36.375 
Q 56.984375 17.96875 50.515625 8.265625 
Q 44.046875 -1.421875 31.78125 -1.421875 
Q 19.53125 -1.421875 13.0625 8.265625 
Q 6.59375 17.96875 6.59375 36.375 
Q 6.59375 54.828125 13.0625 64.515625 
Q 19.53125 74.21875 31.78125 74.21875 
" id="BitstreamVeraSans-Roman-30"/>
       <path d="M 12.40625 8.296875 
L 28.515625 8.296875 
L 28.515625 63.921875 
L 10.984375 60.40625 
L 10.984375 69.390625 
L 28.421875 72.90625 
L 38.28125 72.90625 
L 38.28125 8.296875 
L 54.390625 8.296875 
L 54.390625 0 
L 12.40625 0 
z
" id="BitstreamVeraSans-Roman-31"/>
       <path d="M 10.6875 12.40625 
L 21 12.40625 
L 21 0 
L 10.6875 0 
z
" id="BitstreamVeraSans-Roman-2e"/>
      </defs>
      <g transform="translate(57.4303125 401.918125)scale(0.12 -0.12)">
       <use xlink:href="#BitstreamVeraSans-Roman-2212"/>
       <use x="83.7890625" xlink:href="#BitstreamVeraSans-Roman-31"/>
       <use x="147.412109375" xlink:href="#BitstreamVeraSans-Roman-2e"/>
       <use x="179.19921875" xlink:href="#BitstreamVeraSans-Roman-30"/>
      </g>
     </g>
    </g>
    <g id="xtick_2">
     <g id="line2d_4">
      <g>
       <use style="stroke:#000000;stroke-width:0.5;" x="183.6" xlink:href="#mb195d52d19" y="388.8"/>
      </g>
     </g>
     <g id="line2d_5">
      <g>
       <use style="stroke:#000000;stroke-width:0.5;" x="183.6" xlink:href="#m5bbf88c987" y="43.2"/>
      </g>
     </g>
     <g id="text_2">
      <!-- −0.5 -->
      <defs>
       <path d="M 10.796875 72.90625 
L 49.515625 72.90625 
L 49.515625 64.59375 
L 19.828125 64.59375 
L 19.828125 46.734375 
Q 21.96875 47.46875 24.109375 47.828125 
Q 26.265625 48.1875 28.421875 48.1875 
Q 40.625 48.1875 47.75 41.5 
Q 54.890625 34.8125 54.890625 23.390625 
Q 54.890625 11.625 47.5625 5.09375 
Q 40.234375 -1.421875 26.90625 -1.421875 
Q 22.3125 -1.421875 17.546875 -0.640625 
Q 12.796875 0.140625 7.71875 1.703125 
L 7.71875 11.625 
Q 12.109375 9.234375 16.796875 8.0625 
Q 21.484375 6.890625 26.703125 6.890625 
Q 35.15625 6.890625 40.078125 11.328125 
Q 45.015625 15.765625 45.015625 23.390625 
Q 45.015625 31 40.078125 35.4375 
Q 35.15625 39.890625 26.703125 39.890625 
Q 22.75 39.890625 18.8125 39.015625 
Q 14.890625 38.140625 10.796875 36.28125 
z
" id="BitstreamVeraSans-Roman-35"/>
      </defs>
      <g transform="translate(169.0303125 401.918125)scale(0.12 -0.12)">
       <use xlink:href="#BitstreamVeraSans-Roman-2212"/>
       <use x="83.7890625" xlink:href="#BitstreamVeraSans-Roman-30"/>
       <use x="147.412109375" xlink:href="#BitstreamVeraSans-Roman-2e"/>
       <use x="179.19921875" xlink:href="#BitstreamVeraSans-Roman-35"/>
      </g>
     </g>
    </g>
    <g id="xtick_3">
     <g id="line2d_6">
      <g>
       <use style="stroke:#000000;stroke-width:0.5;" x="295.2" xlink:href="#mb195d52d19" y="388.8"/>
      </g>
     </g>
     <g id="line2d_7">
      <g>
       <use style="stroke:#000000;stroke-width:0.5;" x="295.2" xlink:href="#m5bbf88c987" y="43.2"/>
      </g>
     </g>
     <g id="text_3">
      <!-- 0.0 -->
      <g transform="translate(285.658125 401.918125)scale(0.12 -0.12)">
       <use xlink:href="#BitstreamVeraSans-Roman-30"/>
       <use x="63.623046875" xlink:href="#BitstreamVeraSans-Roman-2e"/>
       <use x="95.41015625" xlink:href="#BitstreamVeraSans-Roman-30"/>
      </g>
     </g>
    </g>
    <g id="xtick_4">
     <g id="line2d_8">
      <g>
       <use style="stroke:#000000;stroke-width:0.5;" x="406.8" xlink:href="#mb195d52d19" y="388.8"/>
      </g>
     </g>
     <g id="line2d_9">
      <g>
       <use style="stroke:#000000;stroke-width:0.5;" x="406.8" xlink:href="#m5bbf88c987" y="43.2"/>
      </g>
     </g>
     <g id="text_4">
      <!-- 0.5 -->
      <g transform="translate(397.258125 401.918125)scale(0.12 -0.12)">
       <use xlink:href="#BitstreamVeraSans-Roman-30"/>
       <use x="63.623046875" xlink:href="#BitstreamVeraSans-Roman-2e"/>
       <use x="95.41015625" xlink:href="#BitstreamVeraSans-Roman-35"/>
      </g>
     </g>
    </g>
    <g id="xtick_5">
     <g id="line2d_10">
      <g>
       <use style="stroke:#000000;stroke-width:0.5;" x="518.4" xlink:href="#mb195d52d19" y="388.8"/>
      </g>
     </g>
     <g id="line2d_11">
      <g>
       <use style="stroke:#000000;stroke-width:0.5;" x="518.4" xlink:href="#m5bbf88c987" y="43.2"/>
      </g>
     </g>
     <g id="text_5">
      <!-- 1.0 -->
      <g transform="translate(508.858125 401.918125)scale(0.12 -0.12)">
       <use xlink:href="#BitstreamVeraSans-Roman-31"/>
       <use x="63.623046875" xlink:href="#BitstreamVeraSans-Roman-2e"/>
       <use x="95.41015625" xlink:href="#BitstreamVeraSans-Roman-30"/>
      </g>
     </g>
    </g>
   </g>
   <g id="matplotlib.axis_2">
    <g id="ytick_1">
     <g id="line2d_12">
      <defs>
       <path d="M 0 0 
L 4 0 
" id="m642ce8efb5" style="stroke:#000000;stroke-width:0.5;"/>
      </defs>
      <g>
       <use style="stroke:#000000;stroke-width:0.5;" x="72.0" xlink:href="#m642ce8efb5" y="373.090909091"/>
      </g>
     </g>
     <g id="line2d_13">
      <defs>
       <path d="M 0 0 
L -4 0 
" id="medb59056b4" style="stroke:#000000;stroke-width:0.5;"/>
      </defs>
      <g>
       <use style="stroke:#000000;stroke-width:0.5;" x="518.4" xlink:href="#medb59056b4" y="373.090909091"/>
      </g>
     </g>
     <g id="text_6">
      <!-- −1.0 -->
      <g transform="translate(38.860625 376.402159091)scale(0.12 -0.12)">
       <use xlink:href="#BitstreamVeraSans-Roman-2212"/>
       <use x="83.7890625" xlink:href="#BitstreamVeraSans-Roman-31"/>
       <use x="147.412109375" xlink:href="#BitstreamVeraSans-Roman-2e"/>
       <use x="179.19921875" xlink:href="#BitstreamVeraSans-Roman-30"/>
      </g>
     </g>
    </g>
    <g id="ytick_2">
     <g id="line2d_14">
      <g>
       <use style="stroke:#000000;stroke-width:0.5;" x="72.0" xlink:href="#m642ce8efb5" y="294.545454545"/>
      </g>
     </g>
     <g id="line2d_15">
      <g>
       <use style="stroke:#000000;stroke-width:0.5;" x="518.4" xlink:href="#medb59056b4" y="294.545454545"/>
      </g>
     </g>
     <g id="text_7">
      <!-- −0.5 -->
      <g transform="translate(38.860625 297.856704545)scale(0.12 -0.12)">
       <use xlink:href="#BitstreamVeraSans-Roman-2212"/>
       <use x="83.7890625" xlink:href="#BitstreamVeraSans-Roman-30"/>
       <use x="147.412109375" xlink:href="#BitstreamVeraSans-Roman-2e"/>
       <use x="179.19921875" xlink:href="#BitstreamVeraSans-Roman-35"/>
      </g>
     </g>
    </g>
    <g id="ytick_3">
     <g id="line2d_16">
      <g>
       <use style="stroke:#000000;stroke-width:0.5;" x="72.0" xlink:href="#m642ce8efb5" y="216.0"/>
      </g>
     </g>
     <g id="line2d_17">
      <g>
       <use style="stroke:#000000;stroke-width:0.5;" x="518.4" xlink:href="#medb59056b4" y="216.0"/>
      </g>
     </g>
     <g id="text_8">
      <!-- 0.0 -->
      <g transform="translate(48.91625 219.31125)scale(0.12 -0.12)">
       <use xlink:href="#BitstreamVeraSans-Roman-30"/>
       <use x="63.623046875" xlink:href="#BitstreamVeraSans-Roman-2e"/>
       <use x="95.41015625" xlink:href="#BitstreamVeraSans-Roman-30"/>
      </g>
     </g>
    </g>
    <g id="ytick_4">
     <g id="line2d_18">
      <g>
       <use style="stroke:#000000;stroke-width:0.5;" x="72.0" xlink:href="#m642ce8efb5" y="137.454545455"/>
      </g>
     </g>
     <g id="line2d_19">
      <g>
       <use style="stroke:#000000;stroke-width:0.5;" x="518.4" xlink:href="#medb59056b4" y="137.454545455"/>
      </g>
     </g>
     <g id="text_9">
      <!-- 0.5 -->
      <g transform="translate(48.91625 140.765795455)scale(0.12 -0.12)">
       <use xlink:href="#BitstreamVeraSans-Roman-30"/>
       <use x="63.623046875" xlink:href="#BitstreamVeraSans-Roman-2e"/>
       <use x="95.41015625" xlink:href="#BitstreamVeraSans-Roman-35"/>
      </g>
     </g>
    </g>
    <g id="ytick_5">
     <g id="line2d_20">
      <g>
       <use style="stroke:#000000;stroke-width:0.5;" x="72.0" xlink:href="#m642ce8efb5" y="58.9090909091"/>
      </g>
     </g>
     <g id="line2d_21">
      <g>
       <use style="stroke:#000000;stroke-width:0.5;" x="518.4" xlink:href="#medb59056b4" y="58.9090909091"/>
      </g>
     </g>
     <g id="text_10">
      <!-- 1.0 -->
      <g transform="translate(48.91625 62.2203409091)scale(0.12 -0.12)">
       <use xlink:href="#BitstreamVeraSans-Roman-31"/>
       <use x="63.623046875" xlink:href="#BitstreamVeraSans-Roman-2e"/>
       <use x="95.41015625" xlink:href="#BitstreamVeraSans-Roman-30"/>
      </g>
     </g>
    </g>
   </g>
  </g>
  <g id="axes_2">
   <g id="patch_8">
    <path d="M 154.08 381.6 
L 511.2 381.6 
L 511.2 318.763636 
L 154.08 318.763636 
z
" style="fill:#ffffff;"/>
   </g>
   <g id="patch_9">
    <path d="M 154.08 318.763636 
L 250.56 208.145455 
" style="fill:#f2f2f2;stroke:#b2b2b2;stroke-linejoin:miter;"/>
   </g>
   <g id="patch_10">
    <path d="M 511.2 318.763636 
L 339.84 208.145455 
" style="fill:#f2f2f2;stroke:#b2b2b2;stroke-linejoin:miter;"/>
   </g>
   <g id="line2d_22">
    <path clip-path="url(#paf794894f8)" d="M 154.01751 326.050376 
L 158.141834 328.11017 
L 162.462554 330.529054 
L 166.97967 333.318312 
L 172.085975 336.745222 
L 178.370659 341.254699 
L 192.90399 351.810488 
L 197.028313 354.470565 
L 200.563448 356.48968 
L 203.705789 358.02151 
L 206.455338 359.11729 
L 209.008491 359.900035 
L 211.365247 360.399875 
L 213.722004 360.668088 
L 215.882364 360.698228 
L 218.042724 360.51378 
L 220.203084 360.110574 
L 222.363444 359.489103 
L 224.7202 358.569557 
L 227.076956 357.414613 
L 229.826505 355.807402 
L 233.165243 353.572261 
L 241.806683 347.623742 
L 244.16344 346.368914 
L 246.127403 345.578092 
L 247.894971 345.109935 
L 249.466141 344.913611 
L 251.037312 344.940263 
L 252.608483 345.19711 
L 254.179654 345.68127 
L 255.947221 346.478501 
L 257.911185 347.626899 
L 260.85713 349.65982 
L 263.999472 351.765593 
L 265.767039 352.671929 
L 267.141814 353.139518 
L 268.320192 353.336408 
L 269.49857 353.324715 
L 270.676948 353.097707 
L 272.051723 352.572919 
L 273.622894 351.686882 
L 278.925595 348.381535 
L 279.907577 348.12113 
L 280.969624 348.077139 
L 281.871541 348.24495 
L 282.853523 348.630797 
L 284.228297 349.449197 
L 287.174243 351.336169 
L 288.156224 351.647116 
L 288.94181 351.687055 
L 289.727395 351.527388 
L 290.709377 351.073472 
L 292.280548 350.015276 
L 293.458926 349.317596 
L 294.244512 349.074783 
L 295.030097 349.084056 
L 295.815682 349.352559 
L 296.797664 349.957203 
L 298.172439 350.833689 
L 298.958024 351.058889 
L 299.547213 351.012659 
L 300.332799 350.672953 
L 302.296762 349.519609 
L 302.885951 349.492927 
L 303.47514 349.699059 
L 305.439104 350.757235 
L 305.831897 350.720199 
L 306.421086 350.444364 
L 307.599464 349.742044 
L 307.992257 349.705022 
L 308.581446 349.928089 
L 309.759824 350.581755 
L 310.152617 350.543776 
L 310.779456 350.181818 
L 311.330995 349.870067 
L 311.723788 349.849718 
L 312.340924 350.181818 
L 312.902166 350.473327 
L 313.294959 350.425592 
L 314.305351 349.916817 
L 314.669733 350.04158 
L 315.416541 350.415671 
L 315.651715 350.353224 
L 316.4373 349.976453 
L 316.85183 350.181818 
L 317.278537 350.367842 
L 317.682786 350.181818 
L 318.066304 350.014385 
L 318.430647 350.181818 
L 318.794057 350.332484 
L 319.579642 350.089621 
L 320.009464 350.307579 
L 320.75802 350.153289 
L 321.040528 350.287885 
L 321.740002 350.202884 
L 321.936398 350.270995 
L 322.329191 350.099597 
L 322.721984 350.250506 
L 323.114777 350.146422 
L 323.322391 350.250258 
L 323.703966 350.145197 
L 323.900362 350.241945 
L 324.281557 350.181818 
L 324.489551 350.202969 
L 324.685947 350.144261 
L 324.882344 350.225172 
L 325.161393 350.181818 
L 325.353152 350.181818 
L 325.535323 350.181818 
L 325.708608 350.181818 
L 325.873641 350.181818 
L 326.060722 350.162261 
L 326.39413 350.151065 
L 326.780473 350.208884 
L 327.121805 350.157813 
L 327.435496 350.20204 
L 327.697616 350.162562 
L 327.981196 350.181818 
L 328.221082 350.194589 
L 328.720178 350.193931 
L 328.996576 350.181818 
L 329.203064 350.189583 
L 329.410602 350.181818 
L 329.695056 350.188655 
L 329.95899 350.181818 
L 330.241797 350.186352 
L 330.519201 350.181818 
L 330.782568 350.181818 
L 331.056785 350.179842 
L 331.330382 350.181818 
L 331.600925 350.180967 
L 331.873997 350.181818 
L 332.071626 350.181818 
L 344.129187 350.104891 
L 344.325583 350.091027 
L 344.733067 350.297104 
L 345.503962 350.144746 
L 345.896754 350.317667 
L 346.68234 350.076168 
L 347.271529 350.34566 
L 348.253511 350.068197 
L 348.879261 350.389709 
L 349.235492 350.264495 
L 349.863459 349.947965 
L 350.217474 350.059361 
L 350.974649 350.446819 
L 351.199456 350.407477 
L 352.377834 349.890309 
L 352.967023 350.201503 
L 353.556212 350.513918 
L 353.949005 350.493569 
L 354.538194 350.155295 
L 355.127383 349.819861 
L 355.520176 349.781881 
L 356.109365 350.036207 
L 357.091347 350.618627 
L 357.48414 350.659427 
L 358.073329 350.446621 
L 359.448103 349.643437 
L 360.037292 349.636705 
L 360.626481 349.893856 
L 362.197652 350.826329 
L 362.786841 350.879388 
L 363.37603 350.701856 
L 364.358012 350.081927 
L 365.339994 349.485736 
L 366.073773 349.30062 
L 366.714769 349.379583 
L 367.500354 349.741121 
L 370.053507 351.235643 
L 370.839092 351.311485 
L 371.624678 351.127832 
L 372.606659 350.610606 
L 375.356208 348.906192 
L 376.141794 348.697893 
L 376.927379 348.688039 
L 377.712965 348.871397 
L 378.694947 349.327912 
L 380.266117 350.366626 
L 382.230081 351.633078 
L 383.408459 352.118687 
L 384.390441 352.292271 
L 385.372423 352.242506 
L 386.354405 351.982102 
L 387.532783 351.436475 
L 389.103954 350.442467 
L 392.639088 348.092007 
L 394.013863 347.458209 
L 395.192241 347.12565 
L 396.370619 347.006259 
L 397.548997 347.100534 
L 398.923772 347.462329 
L 400.298546 348.057822 
L 402.066113 349.083119 
L 404.815662 350.983787 
L 408.154401 353.224438 
L 410.118364 354.270426 
L 411.885931 354.95223 
L 413.457102 355.323805 
L 415.028273 355.465235 
L 416.599444 355.378946 
L 418.170615 355.07643 
L 419.938182 354.500888 
L 421.902146 353.609417 
L 424.258902 352.26296 
L 427.204848 350.297161 
L 436.23908 344.071601 
L 438.988629 342.539364 
L 441.541782 341.381124 
L 443.898538 340.565237 
L 446.058898 340.04258 
L 448.219258 339.739051 
L 450.379618 339.652906 
L 452.539978 339.778159 
L 454.896734 340.144814 
L 457.253491 340.736197 
L 459.806643 341.609195 
L 462.556192 342.790943 
L 465.502138 344.297891 
L 468.840876 346.255264 
L 472.768803 348.8199 
L 477.875108 352.434832 
L 496.336366 365.758424 
L 501.246275 368.892996 
L 505.763392 371.511873 
L 509.887715 373.654703 
L 511.26249 374.31326 
L 511.26249 374.31326 
" style="fill:none;stroke:#0000ff;stroke-linecap:square;"/>
   </g>
   <g id="patch_11">
    <path d="M 154.08 318.763636 
L 511.2 318.763636 
" style="fill:none;stroke:#000000;stroke-linecap:square;stroke-linejoin:miter;"/>
   </g>
   <g id="patch_12">
    <path d="M 511.2 381.6 
L 511.2 318.763636 
" style="fill:none;stroke:#000000;stroke-linecap:square;stroke-linejoin:miter;"/>
   </g>
   <g id="patch_13">
    <path d="M 154.08 381.6 
L 511.2 381.6 
" style="fill:none;stroke:#000000;stroke-linecap:square;stroke-linejoin:miter;"/>
   </g>
   <g id="patch_14">
    <path d="M 154.08 381.6 
L 154.08 318.763636 
" style="fill:none;stroke:#000000;stroke-linecap:square;stroke-linejoin:miter;"/>
   </g>
   <g id="matplotlib.axis_3">
    <g id="xtick_6">
     <g id="line2d_23">
      <g>
       <use style="stroke:#000000;stroke-width:0.5;" x="154.08" xlink:href="#mb195d52d19" y="381.6"/>
      </g>
     </g>
     <g id="line2d_24">
      <g>
       <use style="stroke:#000000;stroke-width:0.5;" x="154.08" xlink:href="#m5bbf88c987" y="318.763636364"/>
      </g>
     </g>
    </g>
    <g id="xtick_7">
     <g id="line2d_25">
      <g>
       <use style="stroke:#000000;stroke-width:0.5;" x="198.72" xlink:href="#mb195d52d19" y="381.6"/>
      </g>
     </g>
     <g id="line2d_26">
      <g>
       <use style="stroke:#000000;stroke-width:0.5;" x="198.72" xlink:href="#m5bbf88c987" y="318.763636364"/>
      </g>
     </g>
    </g>
    <g id="xtick_8">
     <g id="line2d_27">
      <g>
       <use style="stroke:#000000;stroke-width:0.5;" x="243.36" xlink:href="#mb195d52d19" y="381.6"/>
      </g>
     </g>
     <g id="line2d_28">
      <g>
       <use style="stroke:#000000;stroke-width:0.5;" x="243.36" xlink:href="#m5bbf88c987" y="318.763636364"/>
      </g>
     </g>
    </g>
    <g id="xtick_9">
     <g id="line2d_29">
      <g>
       <use style="stroke:#000000;stroke-width:0.5;" x="288.0" xlink:href="#mb195d52d19" y="381.6"/>
      </g>
     </g>
     <g id="line2d_30">
      <g>
       <use style="stroke:#000000;stroke-width:0.5;" x="288.0" xlink:href="#m5bbf88c987" y="318.763636364"/>
      </g>
     </g>
    </g>
    <g id="xtick_10">
     <g id="line2d_31">
      <g>
       <use style="stroke:#000000;stroke-width:0.5;" x="332.64" xlink:href="#mb195d52d19" y="381.6"/>
      </g>
     </g>
     <g id="line2d_32">
      <g>
       <use style="stroke:#000000;stroke-width:0.5;" x="332.64" xlink:href="#m5bbf88c987" y="318.763636364"/>
      </g>
     </g>
    </g>
    <g id="xtick_11">
     <g id="line2d_33">
      <g>
       <use style="stroke:#000000;stroke-width:0.5;" x="377.28" xlink:href="#mb195d52d19" y="381.6"/>
      </g>
     </g>
     <g id="line2d_34">
      <g>
       <use style="stroke:#000000;stroke-width:0.5;" x="377.28" xlink:href="#m5bbf88c987" y="318.763636364"/>
      </g>
     </g>
    </g>
    <g id="xtick_12">
     <g id="line2d_35">
      <g>
       <use style="stroke:#000000;stroke-width:0.5;" x="421.92" xlink:href="#mb195d52d19" y="381.6"/>
      </g>
     </g>
     <g id="line2d_36">
      <g>
       <use style="stroke:#000000;stroke-width:0.5;" x="421.92" xlink:href="#m5bbf88c987" y="318.763636364"/>
      </g>
     </g>
    </g>
    <g id="xtick_13">
     <g id="line2d_37">
      <g>
       <use style="stroke:#000000;stroke-width:0.5;" x="466.56" xlink:href="#mb195d52d19" y="381.6"/>
      </g>
     </g>
     <g id="line2d_38">
      <g>
       <use style="stroke:#000000;stroke-width:0.5;" x="466.56" xlink:href="#m5bbf88c987" y="318.763636364"/>
      </g>
     </g>
    </g>
    <g id="xtick_14">
     <g id="line2d_39">
      <g>
       <use style="stroke:#000000;stroke-width:0.5;" x="511.2" xlink:href="#mb195d52d19" y="381.6"/>
      </g>
     </g>
     <g id="line2d_40">
      <g>
       <use style="stroke:#000000;stroke-width:0.5;" x="511.2" xlink:href="#m5bbf88c987" y="318.763636364"/>
      </g>
     </g>
    </g>
   </g>
   <g id="matplotlib.axis_4">
    <g id="ytick_6">
     <g id="line2d_41">
      <g>
       <use style="stroke:#000000;stroke-width:0.5;" x="154.08" xlink:href="#m642ce8efb5" y="375.316363636"/>
      </g>
     </g>
     <g id="line2d_42">
      <g>
       <use style="stroke:#000000;stroke-width:0.5;" x="511.2" xlink:href="#medb59056b4" y="375.316363636"/>
      </g>
     </g>
    </g>
    <g id="ytick_7">
     <g id="line2d_43">
      <g>
       <use style="stroke:#000000;stroke-width:0.5;" x="154.08" xlink:href="#m642ce8efb5" y="362.749090909"/>
      </g>
     </g>
     <g id="line2d_44">
      <g>
       <use style="stroke:#000000;stroke-width:0.5;" x="511.2" xlink:href="#medb59056b4" y="362.749090909"/>
      </g>
     </g>
    </g>
    <g id="ytick_8">
     <g id="line2d_45">
      <g>
       <use style="stroke:#000000;stroke-width:0.5;" x="154.08" xlink:href="#m642ce8efb5" y="350.181818182"/>
      </g>
     </g>
     <g id="line2d_46">
      <g>
       <use style="stroke:#000000;stroke-width:0.5;" x="511.2" xlink:href="#medb59056b4" y="350.181818182"/>
      </g>
     </g>
    </g>
    <g id="ytick_9">
     <g id="line2d_47">
      <g>
       <use style="stroke:#000000;stroke-width:0.5;" x="154.08" xlink:href="#m642ce8efb5" y="337.614545455"/>
      </g>
     </g>
     <g id="line2d_48">
      <g>
       <use style="stroke:#000000;stroke-width:0.5;" x="511.2" xlink:href="#medb59056b4" y="337.614545455"/>
      </g>
     </g>
    </g>
    <g id="ytick_10">
     <g id="line2d_49">
      <g>
       <use style="stroke:#000000;stroke-width:0.5;" x="154.08" xlink:href="#m642ce8efb5" y="325.047272727"/>
      </g>
     </g>
     <g id="line2d_50">
      <g>
       <use style="stroke:#000000;stroke-width:0.5;" x="511.2" xlink:href="#medb59056b4" y="325.047272727"/>
      </g>
     </g>
    </g>
   </g>
  </g>
 </g>
 <defs>
  <clipPath id="paf794894f8">
   <rect height="62.8363636364" width="357.12" x="154.08" y="318.763636364"/>
  </clipPath>
  <clipPath id="p3a958d2731">
   <rect height="345.6" width="446.4" x="72.0" y="43.2"/>
  </clipPath>
 </defs>
</svg>
