<?xml version="1.0" encoding="utf-8" standalone="no"?>
<!DOCTYPE svg PUBLIC "-//W3C//DTD SVG 1.1//EN"
  "http://www.w3.org/Graphics/SVG/1.1/DTD/svg11.dtd">
<!-- Created with matplotlib (http://matplotlib.org/) -->
<svg height="432pt" version="1.1" viewBox="0 0 576 432" width="576pt" xmlns="http://www.w3.org/2000/svg" xmlns:xlink="http://www.w3.org/1999/xlink">
 <defs>
  <style type="text/css">
*{stroke-linecap:butt;stroke-linejoin:round;}
  </style>
 </defs>
 <g id="figure_1">
  <g id="patch_1">
   <path d="
M0 432
L576 432
L576 0
L0 0
z
" style="fill:#ffffff;"/>
  </g>
  <g id="axes_1">
   <g id="patch_2">
    <path clip-path="url(#p7ff5b81e1d)" d="
M301.152 64.8
L305.616 63.36
L305.616 64.728
L327.936 64.728
L327.936 64.872
L305.616 64.872
L305.616 66.24
z
" style="fill:#ffa500;stroke:#ffa500;stroke-linejoin:miter;"/>
   </g>
   <g id="patch_3">
    <path clip-path="url(#p7ff5b81e1d)" d="
M301.152 223.2
L305.616 221.76
L305.616 223.128
L327.936 223.128
L327.936 223.272
L305.616 223.272
L305.616 224.64
z
" style="fill:#008000;stroke:#008000;stroke-linejoin:miter;"/>
   </g>
   <g id="patch_4">
    <path clip-path="url(#p7ff5b81e1d)" d="
M213.36 72
L214.848 76.32
L213.434 76.32
L213.434 133.92
L213.286 133.92
L213.286 76.32
L211.872 76.32
z
" style="fill:#ff0000;stroke:#ff0000;stroke-linejoin:miter;"/>
   </g>
   <g id="patch_5">
    <path clip-path="url(#p7ff5b81e1d)" d="
M213.36 208.8
L211.872 204.48
L213.286 204.48
L213.286 154.08
L213.434 154.08
L213.434 204.48
L214.848 204.48
z
" style="fill:#ff0000;stroke:#ff0000;stroke-linejoin:miter;"/>
   </g>
   <g id="line2d_1">
    <path clip-path="url(#p7ff5b81e1d)" d="
M72 216
L518.4 216" style="fill:none;stroke:#000000;stroke-linecap:square;"/>
   </g>
   <g id="line2d_2">
    <path clip-path="url(#p7ff5b81e1d)" d="
M295.2 388.8
L295.2 43.2" style="fill:none;stroke:#000000;stroke-linecap:square;"/>
   </g>
   <g id="line2d_3">
    <path clip-path="url(#p7ff5b81e1d)" d="
M295.215 72
L297.018 72
L298.822 72
L300.625 72
L302.429 72
L304.232 72
L306.036 72
L307.839 72
L309.643 72
L311.446 72
L313.25 72
L315.053 72
L316.857 72
L318.66 72
L320.464 72
L322.267 72
L324.071 72
L325.874 72
L327.678 72
L329.481 72
L331.285 72
L333.088 72
L334.892 72
L336.695 72
L338.499 72
L340.302 72
L342.106 72
L343.909 72
L345.712 72
L347.516 72
L349.319 72
L351.123 72
L352.926 72
L354.73 72
L356.533 72
L358.337 72
L360.14 72
L361.944 72
L363.747 72
L365.551 72
L367.354 72
L369.158 72
L370.961 72
L372.765 72
L374.568 72
L376.372 72
L378.175 72
L379.979 72
L381.782 72
L383.586 72
L385.389 72
L387.193 72
L388.996 72
L390.8 72
L392.603 72
L394.407 72
L396.21 72
L398.014 72
L399.817 72
L401.621 72
L403.424 72
L405.228 72
L407.031 72
L408.835 72
L410.638 72
L412.441 72
L414.245 72
L416.048 72
L417.852 72
L419.655 72
L421.459 72
L423.262 72
L425.066 72
L426.869 72
L428.673 72
L430.476 72
L432.28 72
L434.083 72
L435.887 72
L437.69 72
L439.494 72
L441.297 72
L443.101 72
L444.904 72
L446.708 72
L448.511 72
L450.315 72
L452.118 72
L453.922 72
L455.725 72
L457.529 72
L459.332 72
L461.136 72
L462.939 72
L464.743 72
L466.546 72
L468.35 72
L470.153 72
L471.957 72
L473.76 72" style="fill:none;stroke:#0000ff;stroke-linecap:square;"/>
   </g>
   <g id="line2d_4">
    <path clip-path="url(#p7ff5b81e1d)" d="
M116.64 360
L118.443 360
L120.247 360
L122.05 360
L123.854 360
L125.657 360
L127.461 360
L129.264 360
L131.068 360
L132.871 360
L134.675 360
L136.478 360
L138.282 360
L140.085 360
L141.889 360
L143.692 360
L145.496 360
L147.299 360
L149.103 360
L150.906 360
L152.71 360
L154.513 360
L156.317 360
L158.12 360
L159.924 360
L161.727 360
L163.531 360
L165.334 360
L167.138 360
L168.941 360
L170.745 360
L172.548 360
L174.352 360
L176.155 360
L177.959 360
L179.762 360
L181.565 360
L183.369 360
L185.172 360
L186.976 360
L188.779 360
L190.583 360
L192.386 360
L194.19 360
L195.993 360
L197.797 360
L199.6 360
L201.404 360
L203.207 360
L205.011 360
L206.814 360
L208.618 360
L210.421 360
L212.225 360
L214.028 360
L215.832 360
L217.635 360
L219.439 360
L221.242 360
L223.046 360
L224.849 360
L226.653 360
L228.456 360
L230.26 360
L232.063 360
L233.867 360
L235.67 360
L237.474 360
L239.277 360
L241.081 360
L242.884 360
L244.688 360
L246.491 360
L248.294 360
L250.098 360
L251.901 360
L253.705 360
L255.508 360
L257.312 360
L259.115 360
L260.919 360
L262.722 360
L264.526 360
L266.329 360
L268.133 360
L269.936 360
L271.74 360
L273.543 360
L275.347 360
L277.15 360
L278.954 360
L280.757 360
L282.561 360
L284.364 360
L286.168 360
L287.971 360
L289.775 360
L291.578 360
L293.382 360
L295.185 360" style="fill:none;stroke:#0000ff;stroke-linecap:square;"/>
   </g>
   <g id="line2d_5">
    <defs>
     <path d="
M0 3
C0.795609 3 1.55874 2.6839 2.12132 2.12132
C2.6839 1.55874 3 0.795609 3 0
C3 -0.795609 2.6839 -1.55874 2.12132 -2.12132
C1.55874 -2.6839 0.795609 -3 0 -3
C-0.795609 -3 -1.55874 -2.6839 -2.12132 -2.12132
C-2.6839 -1.55874 -3 -0.795609 -3 0
C-3 0.795609 -2.6839 1.55874 -2.12132 2.12132
C-1.55874 2.6839 -0.795609 3 0 3
z
" id="mf1e9a9e4ae" style="stroke:#000000;stroke-width:0.5;"/>
    </defs>
    <g clip-path="url(#p7ff5b81e1d)">
     <use style="fill:#0000ff;stroke:#000000;stroke-width:0.5;" x="295.2" xlink:href="#mf1e9a9e4ae" y="216.0"/>
    </g>
   </g>
   <g id="line2d_6">
    <defs>
     <path d="
M0 3
C0.795609 3 1.55874 2.6839 2.12132 2.12132
C2.6839 1.55874 3 0.795609 3 0
C3 -0.795609 2.6839 -1.55874 2.12132 -2.12132
C1.55874 -2.6839 0.795609 -3 0 -3
C-0.795609 -3 -1.55874 -2.6839 -2.12132 -2.12132
C-2.6839 -1.55874 -3 -0.795609 -3 0
C-3 0.795609 -2.6839 1.55874 -2.12132 2.12132
C-1.55874 2.6839 -0.795609 3 0 3
z
" id="m3a0d712339" style="stroke:#000000;stroke-width:0.5;"/>
    </defs>
    <g clip-path="url(#p7ff5b81e1d)">
     <use style="fill:#ffffff;stroke:#000000;stroke-width:0.5;" x="295.2" xlink:href="#m3a0d712339" y="72.0"/>
    </g>
   </g>
   <g id="line2d_7">
    <g clip-path="url(#p7ff5b81e1d)">
     <use style="fill:#ffffff;stroke:#000000;stroke-width:0.5;" x="295.2" xlink:href="#m3a0d712339" y="360.0"/>
    </g>
   </g>
   <g id="line2d_8">
    <g clip-path="url(#p7ff5b81e1d)">
     <use style="fill:#0000ff;stroke:#000000;stroke-width:0.5;" x="295.2" xlink:href="#mf1e9a9e4ae" y="216.0"/>
    </g>
   </g>
   <g id="line2d_9">
    <path clip-path="url(#p7ff5b81e1d)" d="
M444 216
L444 72" style="fill:none;stroke:#000000;stroke-dasharray:6.000000,6.000000;stroke-dashoffset:0.0;"/>
   </g>
   <g id="line2d_10">
    <defs>
     <path d="
M0 3
C0.795609 3 1.55874 2.6839 2.12132 2.12132
C2.6839 1.55874 3 0.795609 3 0
C3 -0.795609 2.6839 -1.55874 2.12132 -2.12132
C1.55874 -2.6839 0.795609 -3 0 -3
C-0.795609 -3 -1.55874 -2.6839 -2.12132 -2.12132
C-2.6839 -1.55874 -3 -0.795609 -3 0
C-3 0.795609 -2.6839 1.55874 -2.12132 2.12132
C-1.55874 2.6839 -0.795609 3 0 3
z
" id="mc8456eb090" style="stroke:#000000;stroke-width:0.5;"/>
    </defs>
    <g clip-path="url(#p7ff5b81e1d)">
     <use style="fill:#ffa500;stroke:#000000;stroke-width:0.5;" x="444.0" xlink:href="#mc8456eb090" y="72.0"/>
    </g>
   </g>
   <g id="line2d_11">
    <defs>
     <path d="
M0 3
C0.795609 3 1.55874 2.6839 2.12132 2.12132
C2.6839 1.55874 3 0.795609 3 0
C3 -0.795609 2.6839 -1.55874 2.12132 -2.12132
C1.55874 -2.6839 0.795609 -3 0 -3
C-0.795609 -3 -1.55874 -2.6839 -2.12132 -2.12132
C-2.6839 -1.55874 -3 -0.795609 -3 0
C-3 0.795609 -2.6839 1.55874 -2.12132 2.12132
C-1.55874 2.6839 -0.795609 3 0 3
z
" id="mbbe02196b1" style="stroke:#000000;stroke-width:0.5;"/>
    </defs>
    <g clip-path="url(#p7ff5b81e1d)">
     <use style="fill:#008000;stroke:#000000;stroke-width:0.5;" x="444.0" xlink:href="#mbbe02196b1" y="216.0"/>
    </g>
   </g>
   <g id="line2d_12">
    <path clip-path="url(#p7ff5b81e1d)" d="
M369.6 216
L369.6 72" style="fill:none;stroke:#000000;stroke-dasharray:6.000000,6.000000;stroke-dashoffset:0.0;"/>
   </g>
   <g id="line2d_13">
    <g clip-path="url(#p7ff5b81e1d)">
     <use style="fill:#ffa500;stroke:#000000;stroke-width:0.5;" x="369.6" xlink:href="#mc8456eb090" y="72.0"/>
    </g>
   </g>
   <g id="line2d_14">
    <g clip-path="url(#p7ff5b81e1d)">
     <use style="fill:#008000;stroke:#000000;stroke-width:0.5;" x="369.6" xlink:href="#mbbe02196b1" y="216.0"/>
    </g>
   </g>
   <g id="line2d_15">
    <path clip-path="url(#p7ff5b81e1d)" d="
M344.8 216
L344.8 72" style="fill:none;stroke:#000000;stroke-dasharray:6.000000,6.000000;stroke-dashoffset:0.0;"/>
   </g>
   <g id="line2d_16">
    <g clip-path="url(#p7ff5b81e1d)">
     <use style="fill:#ffa500;stroke:#000000;stroke-width:0.5;" x="344.8" xlink:href="#mc8456eb090" y="72.0"/>
    </g>
   </g>
   <g id="line2d_17">
    <g clip-path="url(#p7ff5b81e1d)">
     <use style="fill:#008000;stroke:#000000;stroke-width:0.5;" x="344.8" xlink:href="#mbbe02196b1" y="216.0"/>
    </g>
   </g>
   <g id="line2d_18">
    <path clip-path="url(#p7ff5b81e1d)" d="
M332.4 216
L332.4 72" style="fill:none;stroke:#000000;stroke-dasharray:6.000000,6.000000;stroke-dashoffset:0.0;"/>
   </g>
   <g id="line2d_19">
    <g clip-path="url(#p7ff5b81e1d)">
     <use style="fill:#ffa500;stroke:#000000;stroke-width:0.5;" x="332.4" xlink:href="#mc8456eb090" y="72.0"/>
    </g>
   </g>
   <g id="line2d_20">
    <g clip-path="url(#p7ff5b81e1d)">
     <use style="fill:#008000;stroke:#000000;stroke-width:0.5;" x="332.4" xlink:href="#mbbe02196b1" y="216.0"/>
    </g>
   </g>
   <g id="line2d_21">
    <path clip-path="url(#p7ff5b81e1d)" d="
M324.96 216
L324.96 72" style="fill:none;stroke:#000000;stroke-dasharray:6.000000,6.000000;stroke-dashoffset:0.0;"/>
   </g>
   <g id="line2d_22">
    <g clip-path="url(#p7ff5b81e1d)">
     <use style="fill:#ffa500;stroke:#000000;stroke-width:0.5;" x="324.96" xlink:href="#mc8456eb090" y="72.0"/>
    </g>
   </g>
   <g id="line2d_23">
    <g clip-path="url(#p7ff5b81e1d)">
     <use style="fill:#008000;stroke:#000000;stroke-width:0.5;" x="324.96" xlink:href="#mbbe02196b1" y="216.0"/>
    </g>
   </g>
   <g id="text_1">
    <!-- $\operatorname{sgn}\left(\lim_{n\to\infty}\ \frac{1}{n}\right) = \operatorname{sgn}(0)=0$ -->
    <defs>
     <path d="
M9.28125 0
L9.28125 3.51562
Q21.7812 3.51562 21.7812 6.6875
L21.7812 59.1875
Q16.6094 56.6875 8.6875 56.6875
L8.6875 60.2031
Q20.9531 60.2031 27.2031 66.6094
L28.6094 66.6094
Q28.9531 66.6094 29.2656 66.3281
Q29.5938 66.0625 29.5938 65.7188
L29.5938 6.6875
Q29.5938 3.51562 42.0938 3.51562
L42.0938 0
z
" id="Cmr10-31"/>
     <path d="
M25 -2.20312
Q12.75 -2.20312 8.32812 7.875
Q3.90625 17.9688 3.90625 31.8906
Q3.90625 40.5781 5.48438 48.2344
Q7.07812 55.9062 11.7812 61.25
Q16.5 66.6094 25 66.6094
Q31.5938 66.6094 35.7812 63.375
Q39.9844 60.1562 42.1875 55.0469
Q44.3906 49.9531 45.1875 44.1094
Q46 38.2812 46 31.8906
Q46 23.2969 44.4062 15.7969
Q42.8281 8.29688 38.1875 3.04688
Q33.5469 -2.20312 25 -2.20312
M25 0.390625
Q30.5625 0.390625 33.2969 6.09375
Q36.0312 11.8125 36.6719 18.75
Q37.3125 25.6875 37.3125 33.5
Q37.3125 41.0156 36.6719 47.3594
Q36.0312 53.7188 33.3125 58.8594
Q30.6094 64.0156 25 64.0156
Q19.3438 64.0156 16.6094 58.8281
Q13.875 53.6562 13.2344 47.3281
Q12.5938 41.0156 12.5938 33.5
Q12.5938 27.9375 12.8594 23
Q13.1406 18.0625 14.3125 12.8125
Q15.4844 7.5625 18.0938 3.96875
Q20.7031 0.390625 25 0.390625" id="Cmr10-30"/>
     <path d="
M7.71875 1.70312
Q7.71875 2.29688 7.8125 2.59375
L15.2812 32.4219
Q16.0156 35.2031 16.0156 37.3125
Q16.0156 41.6094 13.0938 41.6094
Q9.96875 41.6094 8.45312 37.8594
Q6.9375 34.125 5.51562 28.4219
Q5.51562 28.125 5.21875 27.9531
Q4.9375 27.7812 4.6875 27.7812
L3.51562 27.7812
Q3.17188 27.7812 2.92188 28.1406
Q2.6875 28.5156 2.6875 28.8125
Q3.76562 33.1562 4.76562 36.1719
Q5.76562 39.2031 7.89062 41.6875
Q10.0156 44.1875 13.1875 44.1875
Q16.9375 44.1875 19.8125 41.8125
Q22.7031 39.4531 22.7031 35.7969
Q25.6875 39.7031 29.6875 41.9375
Q33.6875 44.1875 38.1875 44.1875
Q41.75 44.1875 44.3281 42.9688
Q46.9219 41.75 48.3594 39.2812
Q49.8125 36.8125 49.8125 33.4062
Q49.8125 29.2969 47.9688 23.4844
Q46.1406 17.6719 43.4062 10.5
Q42 7.23438 42 4.5
Q42 1.51562 44.2812 1.51562
Q48.1875 1.51562 50.7969 5.70312
Q53.4219 9.90625 54.5 14.7031
Q54.6875 15.2812 55.3281 15.2812
L56.5 15.2812
Q56.8906 15.2812 57.1562 15.0312
Q57.4219 14.7969 57.4219 14.4062
Q57.4219 14.3125 57.3281 14.1094
Q55.9531 8.45312 52.5625 3.65625
Q49.1719 -1.125 44.0938 -1.125
Q40.5781 -1.125 38.0781 1.29688
Q35.5938 3.71875 35.5938 7.17188
Q35.5938 9.03125 36.375 11.0781
Q37.6406 14.3594 39.2812 18.8906
Q40.9219 23.4375 41.9688 27.5781
Q43.0156 31.7344 43.0156 34.9062
Q43.0156 37.7031 41.8594 39.6562
Q40.7188 41.6094 37.9844 41.6094
Q34.3281 41.6094 31.25 39.9844
Q28.1719 38.375 25.875 35.7188
Q23.5781 33.0625 21.6875 29.3906
L14.8906 2.20312
Q14.5469 0.828125 13.3438 -0.140625
Q12.1562 -1.125 10.6875 -1.125
Q9.46875 -1.125 8.59375 -0.34375
Q7.71875 0.4375 7.71875 1.70312" id="Cmmi10-6e"/>
     <path d="
M2.98438 0
L2.98438 3.51562
Q6.39062 3.51562 8.59375 4.04688
Q10.7969 4.59375 10.7969 6.6875
L10.7969 33.9844
Q10.7969 36.6719 9.98438 37.8594
Q9.1875 39.0625 7.67188 39.3281
Q6.15625 39.5938 2.98438 39.5938
L2.98438 43.1094
L17.4844 44.1875
L17.4844 34.4219
Q19.4844 38.7188 23.4062 41.4531
Q27.3438 44.1875 31.9844 44.1875
Q43.5 44.1875 45.5156 34.8125
Q47.5156 39.0156 51.3594 41.5938
Q55.2188 44.1875 59.8125 44.1875
Q64.3594 44.1875 67.4531 42.7188
Q70.5625 41.2656 72.125 38.25
Q73.6875 35.25 73.6875 30.7188
L73.6875 6.6875
Q73.6875 4.59375 75.9062 4.04688
Q78.125 3.51562 81.5 3.51562
L81.5 0
L58.5938 0
L58.5938 3.51562
Q62.0156 3.51562 64.2031 4.04688
Q66.4062 4.59375 66.4062 6.6875
L66.4062 30.4219
Q66.4062 35.4531 64.9844 38.5312
Q63.5781 41.6094 59.1875 41.6094
Q53.4219 41.6094 49.6562 36.9688
Q45.9062 32.3281 45.9062 26.4219
L45.9062 6.6875
Q45.9062 4.59375 48.0938 4.04688
Q50.2969 3.51562 53.7188 3.51562
L53.7188 0
L30.8125 0
L30.8125 3.51562
Q34.2344 3.51562 36.4219 4.04688
Q38.625 4.59375 38.625 6.6875
L38.625 30.4219
Q38.625 35.2969 37.2031 38.4531
Q35.7969 41.6094 31.3906 41.6094
Q25.5938 41.6094 21.8438 36.9688
Q18.1094 32.3281 18.1094 26.4219
L18.1094 6.6875
Q18.1094 4.59375 20.3125 4.04688
Q22.5156 3.51562 25.875 3.51562
L25.875 0
z
" id="Cmr10-6d"/>
     <path d="
M2.98438 0
L2.98438 3.51562
Q6.39062 3.51562 8.59375 4.04688
Q10.7969 4.59375 10.7969 6.6875
L10.7969 33.9844
Q10.7969 36.6719 9.98438 37.8594
Q9.1875 39.0625 7.67188 39.3281
Q6.15625 39.5938 2.98438 39.5938
L2.98438 43.1094
L17.4844 44.1875
L17.4844 34.4219
Q19.4844 38.7188 23.4062 41.4531
Q27.3438 44.1875 31.9844 44.1875
Q38.9219 44.1875 42.4062 40.8594
Q45.9062 37.5469 45.9062 30.7188
L45.9062 6.6875
Q45.9062 4.59375 48.0938 4.04688
Q50.2969 3.51562 53.7188 3.51562
L53.7188 0
L30.8125 0
L30.8125 3.51562
Q34.2344 3.51562 36.4219 4.04688
Q38.625 4.59375 38.625 6.6875
L38.625 30.4219
Q38.625 35.2969 37.2031 38.4531
Q35.7969 41.6094 31.3906 41.6094
Q25.5938 41.6094 21.8438 36.9688
Q18.1094 32.3281 18.1094 26.4219
L18.1094 6.6875
Q18.1094 4.59375 20.3125 4.04688
Q22.5156 3.51562 25.875 3.51562
L25.875 0
z
" id="Cmr10-6e"/>
     <path d="
M7.51562 13.2812
Q6.6875 13.2812 6.14062 13.9062
Q5.60938 14.5469 5.60938 15.2812
Q5.60938 16.1094 6.14062 16.6875
Q6.6875 17.2812 7.51562 17.2812
L70.3125 17.2812
Q71.0469 17.2812 71.5781 16.6875
Q72.125 16.1094 72.125 15.2812
Q72.125 14.5469 71.5781 13.9062
Q71.0469 13.2812 70.3125 13.2812
z

M7.51562 32.7188
Q6.6875 32.7188 6.14062 33.2969
Q5.60938 33.8906 5.60938 34.7188
Q5.60938 35.4531 6.14062 36.0781
Q6.6875 36.7188 7.51562 36.7188
L70.3125 36.7188
Q71.0469 36.7188 71.5781 36.0781
Q72.125 35.4531 72.125 34.7188
Q72.125 33.8906 71.5781 33.2969
Q71.0469 32.7188 70.3125 32.7188
z
" id="Cmr10-3d"/>
     <path d="
M6.5 -25
Q5.60938 -25 5.60938 -24.125
Q5.60938 -23.6875 5.8125 -23.4844
Q22.9062 -6.78125 22.9062 25
Q22.9062 56.7812 6 73.2969
Q5.60938 73.5312 5.60938 74.125
Q5.60938 74.4688 5.875 74.7344
Q6.15625 75 6.5 75
L7.42188 75
Q7.71875 75 7.90625 74.8125
Q15.0938 69.1406 19.875 61.0312
Q24.6562 52.9375 26.875 43.75
Q29.1094 34.5781 29.1094 25
Q29.1094 17.9219 27.9062 11.0625
Q26.7031 4.20312 24.0938 -2.45312
Q21.4844 -9.125 17.4844 -14.7656
Q13.4844 -20.4062 7.90625 -24.8125
Q7.71875 -25 7.42188 -25
z
" id="Cmr10-29"/>
     <path d="
M3.07812 0
L3.07812 3.51562
Q6.5 3.51562 8.6875 4.04688
Q10.8906 4.59375 10.8906 6.6875
L10.8906 59.1875
Q10.8906 61.8594 10.0781 63.0625
Q9.28125 64.2656 7.76562 64.5312
Q6.25 64.7969 3.07812 64.7969
L3.07812 68.3125
L17.9219 69.3906
L17.9219 6.6875
Q17.9219 4.59375 20.1094 4.04688
Q22.3125 3.51562 25.6875 3.51562
L25.6875 0
z
" id="Cmr10-6c"/>
     <path d="
M31 -24.8125
Q25.4375 -20.4062 21.4062 -14.7188
Q17.3906 -9.03125 14.8125 -2.57812
Q12.25 3.85938 10.9844 10.8906
Q9.71875 17.9219 9.71875 25
Q9.71875 32.1719 10.9844 39.2031
Q12.25 46.2344 14.8594 52.7344
Q17.4844 59.2344 21.5312 64.8906
Q25.5938 70.5625 31 74.8125
Q31 75 31.5 75
L32.4219 75
Q32.7188 75 32.9531 74.7344
Q33.2031 74.4688 33.2031 74.125
Q33.2031 73.6875 33.0156 73.4844
Q28.125 68.7031 24.875 63.2344
Q21.625 57.7656 19.6406 51.5781
Q17.6719 45.4062 16.7969 38.7812
Q15.9219 32.1719 15.9219 25
Q15.9219 -6.78125 32.9062 -23.2969
Q33.2031 -23.5781 33.2031 -24.125
Q33.2031 -24.3594 32.9375 -24.6719
Q32.6719 -25 32.4219 -25
L31.5 -25
Q31 -25 31 -24.8125" id="Cmr10-28"/>
     <path d="
M3.07812 0
L3.07812 3.51562
Q6.5 3.51562 8.6875 4.04688
Q10.8906 4.59375 10.8906 6.6875
L10.8906 33.9844
Q10.8906 37.8438 9.39062 38.7188
Q7.90625 39.5938 3.51562 39.5938
L3.51562 43.1094
L17.9219 44.1875
L17.9219 6.6875
Q17.9219 4.59375 19.8281 4.04688
Q21.7344 3.51562 24.9062 3.51562
L24.9062 0
z

M7.32812 61.375
Q7.32812 63.5781 8.98438 65.2344
Q10.6406 66.8906 12.7969 66.8906
Q14.2031 66.8906 15.5156 66.1562
Q16.8438 65.4375 17.5781 64.1094
Q18.3125 62.7969 18.3125 61.375
Q18.3125 59.2344 16.6406 57.5625
Q14.9844 55.9062 12.7969 55.9062
Q10.6406 55.9062 8.98438 57.5625
Q7.32812 59.2344 7.32812 61.375" id="Cmr10-69"/>
     <path d="
M7.51562 23
Q6.6875 23 6.14062 23.625
Q5.60938 24.2656 5.60938 25
Q5.60938 25.7344 6.14062 26.3594
Q6.6875 27 7.51562 27
L83.4062 27
Q79.5938 29.7344 76.6562 33.3281
Q73.7344 36.9219 71.7812 41.0469
Q69.8281 45.1719 69 49.8125
Q69 51.125 70.0156 51.125
L72.0156 51.125
Q72.3594 51.125 72.625 50.8281
Q72.9062 50.5312 73 50.2031
Q73.8281 45.9062 75.6094 42.2188
Q77.3906 38.5312 80.0781 35.3438
Q82.7656 32.1719 86.0781 29.875
Q89.4062 27.5938 93.6094 26.125
Q94.2812 25.6875 94.2812 25
Q94.2812 24.2188 93.6094 24.0312
Q88.375 22.2188 84.0312 18.625
Q79.6875 15.0469 76.8594 10.1875
Q74.0312 5.32812 73 -0.203125
Q72.9062 -0.53125 72.6094 -0.828125
Q72.3125 -1.125 72.0156 -1.125
L70.0156 -1.125
Q69 -1.125 69 0.203125
Q70.2656 7.03125 74.0625 13.0625
Q77.875 19.0938 83.4062 23
z
" id="Cmsy10-21"/>
     <path d="
M24.6094 -1.125
Q18.9531 -1.125 14.5781 2.1875
Q10.2031 5.51562 7.90625 10.7812
Q5.60938 16.0625 5.60938 21.5781
Q5.60938 25.8281 6.95312 29.875
Q8.29688 33.9375 10.8281 37.1562
Q13.375 40.375 16.9688 42.2812
Q20.5625 44.1875 24.9062 44.1875
Q29.3906 44.1875 33.5938 42.4688
Q37.7969 40.7656 41.2812 37.9375
Q44.7812 35.1094 47.7969 31.3906
L50.7812 27.3906
Q53.7656 32.125 57.375 35.8594
Q60.9844 39.5938 65.5469 41.8906
Q70.125 44.1875 75.2969 44.1875
Q79.6406 44.1875 83.2031 42.25
Q86.7656 40.3281 89.25 37
Q91.75 33.6875 93.0156 29.6562
Q94.2812 25.6406 94.2812 21.5781
Q94.2812 15.9219 91.9062 10.6719
Q89.5469 5.42188 85.1719 2.14062
Q80.8125 -1.125 75 -1.125
Q68.4531 -1.125 62.5625 2.39062
Q56.6875 5.90625 52.0938 11.7188
L49.125 15.7188
Q44.5312 8.25 38.2969 3.5625
Q32.0781 -1.125 24.6094 -1.125
M23.5781 2.39062
Q36.2812 2.39062 46.2969 19.3906
L41.0156 26.125
Q36.4219 32.1719 32.4688 35.5938
Q28.5156 39.0156 23.2969 39.0156
Q18.8438 39.0156 15.4062 36.5
Q11.9688 33.9844 10.0781 29.9219
Q8.20312 25.875 8.20312 21.4844
Q8.20312 18.1094 9.25 14.7188
Q10.2969 11.3281 12.2969 8.54688
Q14.3125 5.76562 17.1562 4.07812
Q20.0156 2.39062 23.5781 2.39062
M58.8906 17
Q63.4844 10.9375 67.4375 7.51562
Q71.3906 4.10938 76.6094 4.10938
Q79.9375 4.10938 82.7188 5.5625
Q85.5 7.03125 87.5156 9.51562
Q89.5469 12.0156 90.625 15.1406
Q91.7031 18.2656 91.7031 21.5781
Q91.7031 26.2188 89.8438 30.6406
Q87.9844 35.0625 84.4844 37.8906
Q81 40.7188 76.3125 40.7188
Q63.625 40.7188 53.6094 23.6875
z
" id="Cmsy10-31"/>
     <path d="
M4.39062 -175.875
Q3.51562 -175.875 3.51562 -175
Q3.51562 -174.609 3.71875 -174.422
Q12.2031 -165.922 18.0625 -155.547
Q23.9219 -145.172 27.2969 -133.844
Q30.6719 -122.516 32.125 -110.547
Q33.5938 -98.5781 33.5938 -85.8906
Q33.5938 -72.9062 32.0938 -61.0312
Q30.6094 -49.1719 27.2344 -37.8906
Q23.875 -26.6094 18.0312 -16.2344
Q12.2031 -5.85938 3.71875 2.48438
Q3.51562 2.6875 3.51562 3.07812
Q3.51562 4 4.39062 4
L6.6875 4
Q6.98438 4 7.17188 3.8125
Q16.4062 -4.15625 23.0938 -14.5781
Q29.7812 -25 33.8594 -36.6875
Q37.9375 -48.3906 39.7656 -60.7344
Q41.6094 -73.0938 41.6094 -85.9844
Q41.6094 -98.8281 39.7656 -111.156
Q37.9375 -123.484 33.8594 -135.203
Q29.7812 -146.922 23.0938 -157.312
Q16.4062 -167.719 7.17188 -175.688
Q6.98438 -175.875 6.6875 -175.875
z
" id="Cmex10-b4"/>
     <path d="
M2.78125 -7.8125
Q2.78125 -4.25 5.35938 -1.57812
Q7.95312 1.07812 11.5312 2.20312
Q9.51562 3.71875 8.46875 6
Q7.42188 8.29688 7.42188 10.8906
Q7.42188 15.5781 10.4062 19.1875
Q5.8125 23.6875 5.8125 29.5
Q5.8125 32.625 7.15625 35.3594
Q8.5 38.0938 10.8906 40.0938
Q13.2812 42.0938 16.2031 43.1406
Q19.1406 44.1875 22.2188 44.1875
Q28.1719 44.1875 32.9062 40.7188
Q34.9688 42.9219 37.7656 44.1094
Q40.5781 45.3125 43.6094 45.3125
Q45.75 45.3125 47.1094 43.7656
Q48.4844 42.2344 48.4844 40.0938
Q48.4844 38.875 47.5469 37.9375
Q46.625 37.0156 45.4062 37.0156
Q44.1406 37.0156 43.2031 37.9375
Q42.2812 38.875 42.2812 40.0938
Q42.2812 41.9375 43.5 42.6719
Q38.3281 42.6719 34.625 39.1094
Q36.4219 37.3125 37.5156 34.6875
Q38.625 32.0781 38.625 29.5
Q38.625 25.25 36.2812 21.8438
Q33.9375 18.4531 30.0938 16.5781
Q26.2656 14.7031 22.2188 14.7031
Q16.75 14.7031 12.2031 17.6719
Q10.7969 15.7188 10.7969 13.2812
Q10.7969 10.6406 12.5312 8.65625
Q14.2656 6.6875 16.8906 6.6875
L25.0938 6.6875
Q31.0625 6.6875 35.8438 5.60938
Q40.625 4.54688 43.875 1.3125
Q47.125 -1.90625 47.125 -7.8125
Q47.125 -12.2031 43.4062 -15.1094
Q39.7031 -18.0156 34.5469 -19.3125
Q29.3906 -20.6094 25 -20.6094
Q20.5625 -20.6094 15.375 -19.3125
Q10.2031 -18.0156 6.48438 -15.1094
Q2.78125 -12.2031 2.78125 -7.8125
M8.40625 -7.8125
Q8.40625 -11.1875 11.1406 -13.4531
Q13.875 -15.7188 17.7188 -16.8125
Q21.5781 -17.9219 25 -17.9219
Q28.375 -17.9219 32.2188 -16.8125
Q36.0781 -15.7188 38.7812 -13.4531
Q41.5 -11.1875 41.5 -7.8125
Q41.5 -2.59375 36.7188 -1.04688
Q31.9375 0.484375 25.0938 0.484375
L16.8906 0.484375
Q14.5938 0.484375 12.6719 -0.609375
Q10.75 -1.70312 9.57812 -3.6875
Q8.40625 -5.67188 8.40625 -7.8125
M22.2188 17.3906
Q30.7188 17.3906 30.7188 29.5
Q30.7188 34.7188 28.9062 38.1094
Q27.0938 41.5 22.2188 41.5
Q17.3281 41.5 15.5156 38.1094
Q13.7188 34.7188 13.7188 29.5
Q13.7188 26.1719 14.4062 23.4844
Q15.0938 20.7969 16.9375 19.0938
Q18.7969 17.3906 22.2188 17.3906" id="Cmr10-67"/>
     <path d="
M3.32812 -0.296875
L3.32812 16.0156
Q3.32812 16.7969 4.20312 16.7969
L5.42188 16.7969
Q6 16.7969 6.20312 16.0156
Q8.98438 1.51562 19.6719 1.51562
Q24.4219 1.51562 27.6094 3.65625
Q30.8125 5.8125 30.8125 10.2969
Q30.8125 13.5312 28.3125 15.7969
Q25.8281 18.0625 22.4062 18.8906
L15.7188 20.2188
Q12.3594 20.9531 9.59375 22.4531
Q6.84375 23.9688 5.07812 26.4844
Q3.32812 29 3.32812 32.3281
Q3.32812 36.7188 5.64062 39.5156
Q7.95312 42.3281 11.6562 43.5781
Q15.375 44.8281 19.6719 44.8281
Q24.8125 44.8281 28.6094 42.0938
L31.5 44.5781
Q31.5 44.8281 31.9844 44.8281
L32.7188 44.8281
Q33.0156 44.8281 33.25 44.5469
Q33.5 44.2812 33.5 44
L33.5 30.9062
Q33.5 29.9844 32.7188 29.9844
L31.5 29.9844
Q30.6094 29.9844 30.6094 30.9062
Q30.6094 36.1406 27.7031 39.3125
Q24.8125 42.4844 19.5781 42.4844
Q15.0938 42.4844 11.7969 40.8125
Q8.5 39.1562 8.5 35.1094
Q8.5 32.3281 10.8594 30.5469
Q13.2344 28.7656 16.4062 27.9844
L23.1875 26.7031
Q26.6094 25.9219 29.5625 24.0625
Q32.5156 22.2188 34.25 19.375
Q35.9844 16.5469 35.9844 12.9844
Q35.9844 9.375 34.7344 6.70312
Q33.5 4.04688 31.2656 2.28125
Q29.0469 0.53125 26.0156 -0.296875
Q23 -1.125 19.6719 -1.125
Q13.4219 -1.125 8.98438 3.07812
L5.32812 -0.875
Q5.32812 -1.125 4.78125 -1.125
L4.20312 -1.125
Q3.32812 -1.125 3.32812 -0.296875" id="Cmr10-73"/>
     <path d="
M52.4844 -175.688
Q43.1719 -167.578 36.5469 -157.266
Q29.9375 -146.969 25.8594 -135.25
Q21.7812 -123.531 19.8906 -111.172
Q18.0156 -98.8281 18.0156 -85.9844
Q18.0156 -73.0938 19.8906 -60.7188
Q21.7812 -48.3438 25.8594 -36.625
Q29.9375 -24.9062 36.5469 -14.5938
Q43.1719 -4.29688 52.4844 3.8125
Q52.4844 4 52.9844 4
L55.3281 4
Q55.6094 4 55.8594 3.6875
Q56.1094 3.375 56.1094 3.07812
Q56.1094 2.6875 55.9062 2.48438
Q47.3594 -6.0625 41.5938 -16.2656
Q35.8438 -26.4688 32.375 -38.1094
Q28.9062 -49.75 27.4375 -61.6875
Q25.9844 -73.6406 25.9844 -86.0781
Q25.9844 -98.4844 27.4375 -110.469
Q28.9062 -122.469 32.375 -133.984
Q35.8438 -145.516 41.6719 -155.766
Q47.5156 -166.016 55.9062 -174.422
Q56.1094 -174.609 56.1094 -175
Q56.1094 -175.25 55.8281 -175.562
Q55.5625 -175.875 55.3281 -175.875
L52.9844 -175.875
Q52.4844 -175.875 52.4844 -175.688" id="Cmex10-b3"/>
    </defs>
    <g style="fill:#0000ff;" transform="translate(86.88 240.48)scale(0.2 -0.2)">
     <use transform="translate(0.0 0.85625)" xlink:href="#Cmr10-73"/>
     <use transform="translate(39.404296875 0.85625)" xlink:href="#Cmr10-67"/>
     <use transform="translate(89.404296875 0.85625)" xlink:href="#Cmr10-6e"/>
     <use transform="translate(144.921875 86.21875)scale(0.693346073662)" xlink:href="#Cmex10-b3"/>
     <use transform="translate(208.322402954 19.60625)" xlink:href="#Cmr10-6c"/>
     <use transform="translate(236.007949829 19.60625)" xlink:href="#Cmr10-69"/>
     <use transform="translate(263.693496704 19.60625)" xlink:href="#Cmr10-6d"/>
     <use transform="translate(186.322402954 -34.93125)scale(0.7)" xlink:href="#Cmmi10-6e"/>
     <use transform="translate(228.329238892 -34.93125)scale(0.7)" xlink:href="#Cmsy10-21"/>
     <use transform="translate(298.329238892 -34.93125)scale(0.7)" xlink:href="#Cmsy10-31"/>
     <use transform="translate(398.667129517 38.35625)scale(0.7)" xlink:href="#Cmr10-31"/>
     <use transform="translate(394.667129517 -23.825)scale(0.7)" xlink:href="#Cmmi10-6e"/>
     <use transform="translate(449.173965454 86.21875)scale(0.693346073662)" xlink:href="#Cmex10-b4"/>
     <use transform="translate(508.133087158 0.85625)" xlink:href="#Cmr10-3d"/>
     <use transform="translate(592.191680908 0.85625)" xlink:href="#Cmr10-73"/>
     <use transform="translate(631.595977783 0.85625)" xlink:href="#Cmr10-67"/>
     <use transform="translate(681.595977783 0.85625)" xlink:href="#Cmr10-6e"/>
     <use transform="translate(737.113555908 0.85625)" xlink:href="#Cmr10-28"/>
     <use transform="translate(775.931915283 0.85625)" xlink:href="#Cmr10-30"/>
     <use transform="translate(825.931915283 0.85625)" xlink:href="#Cmr10-29"/>
     <use transform="translate(882.308868408 0.85625)" xlink:href="#Cmr10-3d"/>
     <use transform="translate(966.367462158 0.85625)" xlink:href="#Cmr10-30"/>
     <path d="
M394.667 13.3562
L394.667 19.6062
L436.674 19.6062
L436.674 13.3562
L394.667 13.3562
z
"/>
    </g>
   </g>
   <g id="text_2">
    <!-- $\lim_{n\to\infty}\ \operatorname{sgn}\left(\frac{1}{n}\right) =1$ -->
    <defs>
     <path d="
M4.98438 -115.922
Q4.10938 -115.922 4.10938 -114.984
Q4.10938 -114.594 4.29688 -114.406
Q11.4688 -106.938 15.6406 -97.4375
Q19.8281 -87.9375 21.5 -77.5156
Q23.1875 -67.0938 23.1875 -55.9062
Q23.1875 -17.0469 4.29688 2.48438
Q4.10938 2.6875 4.10938 3.07812
Q4.10938 4 4.98438 4
L6.20312 4
Q6.5 4 6.6875 3.8125
Q19 -6.45312 24.75 -22.2344
Q30.5156 -38.0312 30.5156 -56
Q30.5156 -73.8281 24.7812 -89.5938
Q19.0469 -105.375 6.6875 -115.719
Q6.5 -115.922 6.20312 -115.922
z
" id="Cmex10-a2"/>
     <path d="
M39.1094 -115.719
Q26.7656 -105.375 20.9688 -89.5938
Q15.1875 -73.8281 15.1875 -56
Q15.1875 -38.0312 20.9688 -22.2344
Q26.7656 -6.45312 39.1094 3.8125
Q39.1094 4 39.5938 4
L40.8281 4
Q41.1094 4 41.3594 3.6875
Q41.6094 3.375 41.6094 3.07812
Q41.6094 2.6875 41.4062 2.48438
Q35.9844 -3.125 32.2969 -10
Q28.6094 -16.8906 26.4844 -24.2812
Q24.3594 -31.6875 23.4375 -39.7344
Q22.5156 -47.7969 22.5156 -56.1094
Q22.5156 -94.875 41.4062 -114.406
Q41.6094 -114.594 41.6094 -114.984
Q41.6094 -115.281 41.3281 -115.594
Q41.0625 -115.922 40.8281 -115.922
L39.5938 -115.922
Q39.1094 -115.922 39.1094 -115.719" id="Cmex10-a1"/>
    </defs>
    <g style="fill:#ffa500;" transform="translate(161.28 57.6)scale(0.2 -0.2)">
     <use transform="translate(22.0 19.609375)" xlink:href="#Cmr10-6c"/>
     <use transform="translate(49.685546875 19.609375)" xlink:href="#Cmr10-69"/>
     <use transform="translate(77.37109375 19.609375)" xlink:href="#Cmr10-6d"/>
     <use transform="translate(0.0 -34.928125)scale(0.7)" xlink:href="#Cmmi10-6e"/>
     <use transform="translate(42.0068359375 -34.928125)scale(0.7)" xlink:href="#Cmsy10-21"/>
     <use transform="translate(112.006835938 -34.928125)scale(0.7)" xlink:href="#Cmsy10-31"/>
     <use transform="translate(208.344726562 0.859375)" xlink:href="#Cmr10-73"/>
     <use transform="translate(247.749023438 0.859375)" xlink:href="#Cmr10-67"/>
     <use transform="translate(297.749023438 0.859375)" xlink:href="#Cmr10-6e"/>
     <use transform="translate(353.266601562 81.3125)scale(0.913889250814)" xlink:href="#Cmex10-a1"/>
     <use transform="translate(399.11706543 38.359375)scale(0.7)" xlink:href="#Cmr10-31"/>
     <use transform="translate(395.11706543 -23.821875)scale(0.7)" xlink:href="#Cmmi10-6e"/>
     <use transform="translate(449.623901367 81.3125)scale(0.913889250814)" xlink:href="#Cmex10-a2"/>
     <use transform="translate(509.032958984 0.859375)" xlink:href="#Cmr10-3d"/>
     <use transform="translate(593.091552734 0.859375)" xlink:href="#Cmr10-31"/>
     <path d="
M395.117 13.3594
L395.117 19.6094
L437.124 19.6094
L437.124 13.3594
L395.117 13.3594
z
"/>
    </g>
   </g>
   <g id="text_3">
    <!-- $\operatorname{sgn}\left(\frac{1}{n}\right)$ -->
    <g style="fill:#ffa500;" transform="translate(339.84 57.6)scale(0.2 -0.2)">
     <use transform="translate(0.0 0.8734375)" xlink:href="#Cmr10-73"/>
     <use transform="translate(39.404296875 0.8734375)" xlink:href="#Cmr10-67"/>
     <use transform="translate(89.404296875 0.8734375)" xlink:href="#Cmr10-6e"/>
     <use transform="translate(144.921875 81.3265625)scale(0.913889250814)" xlink:href="#Cmex10-a1"/>
     <use transform="translate(190.772338867 38.3734375)scale(0.7)" xlink:href="#Cmr10-31"/>
     <use transform="translate(186.772338867 -23.8078125)scale(0.7)" xlink:href="#Cmmi10-6e"/>
     <use transform="translate(241.279174805 81.3265625)scale(0.913889250814)" xlink:href="#Cmex10-a2"/>
     <path d="
M186.772 13.3734
L186.772 19.6234
L228.779 19.6234
L228.779 13.3734
L186.772 13.3734
z
"/>
    </g>
   </g>
   <g id="text_4">
    <!-- $\frac{1}{n}$ -->
    <g style="fill:#008000;" transform="translate(365.136 240.48)scale(0.2 -0.2)">
     <use transform="translate(4.0 38.3734375)scale(0.7)" xlink:href="#Cmr10-31"/>
     <use transform="translate(0.0 -23.8078125)scale(0.7)" xlink:href="#Cmmi10-6e"/>
     <path d="
M0 13.3734
L0 19.6234
L42.0068 19.6234
L42.0068 13.3734
L0 13.3734
z
"/>
    </g>
   </g>
   <g id="text_5">
    <!-- ... -->
    <defs>
     <path d="
M10.6875 12.4062
L21 12.4062
L21 0
L10.6875 0
z
" id="DejaVuSans-2e"/>
    </defs>
    <g transform="translate(301.152 144.0)scale(0.2 -0.2)">
     <use xlink:href="#DejaVuSans-2e"/>
     <use x="31.787109375" xlink:href="#DejaVuSans-2e"/>
     <use x="63.57421875" xlink:href="#DejaVuSans-2e"/>
    </g>
   </g>
   <g id="text_6">
    <!-- ≠ -->
    <defs>
     <path d="
M10.5938 45.4062
L48.2969 45.4062
L60.7969 60.7969
L66.8906 55.8125
L58.4062 45.4062
L73.1875 45.4062
L73.1875 37.2031
L51.7031 37.2031
L42.1875 25.4844
L73.1875 25.4844
L73.1875 17.1875
L35.4062 17.1875
L22.7969 1.90625
L16.7031 6.89062
L25.2031 17.1875
L10.5938 17.1875
L10.5938 25.4844
L31.9844 25.4844
L41.5 37.2031
L10.5938 37.2031
z
" id="DejaVuSans-2260"/>
    </defs>
    <g style="fill:#ff0000;" transform="translate(205.92 149.76)scale(0.2 -0.2)">
     <use xlink:href="#DejaVuSans-2260"/>
    </g>
   </g>
  </g>
 </g>
 <defs>
  <clipPath id="p7ff5b81e1d">
   <rect height="345.6" width="446.4" x="72.0" y="43.2"/>
  </clipPath>
 </defs>
</svg>
