<?xml version="1.0" encoding="UTF-8" standalone="no"?>
<!-- Created with Inkscape (http://www.inkscape.org/) -->

<svg
   xmlns:dc="http://purl.org/dc/elements/1.1/"
   xmlns:cc="http://creativecommons.org/ns#"
   xmlns:rdf="http://www.w3.org/1999/02/22-rdf-syntax-ns#"
   xmlns:svg="http://www.w3.org/2000/svg"
   xmlns="http://www.w3.org/2000/svg"
   version="1.1"
   width="521"
   height="93.8125"
   id="svg2">
  <metadata
     id="metadata54">
    <rdf:RDF>
      <cc:Work
         rdf:about="">
        <dc:format>image/svg+xml</dc:format>
        <dc:type
           rdf:resource="http://purl.org/dc/dcmitype/StillImage" />
        <dc:title></dc:title>
      </cc:Work>
    </rdf:RDF>
  </metadata>
  <defs
     id="defs52">
    <marker
       refX="0"
       refY="0"
       orient="auto"
       id="Arrow1Mend"
       style="overflow:visible">
      <path
         d="M 0,0 5,-5 -12.5,0 5,5 0,0 z"
         transform="matrix(-0.4,0,0,-0.4,-4,0)"
         id="path3897"
         style="fill-rule:evenodd;stroke:#000000;stroke-width:1pt" />
    </marker>
    <marker
       refX="0"
       refY="0"
       orient="auto"
       id="Arrow1Lend"
       style="overflow:visible">
      <path
         d="M 0,0 5,-5 -12.5,0 5,5 0,0 z"
         transform="matrix(-0.8,0,0,-0.8,-10,0)"
         id="path3891"
         style="fill-rule:evenodd;stroke:#000000;stroke-width:1pt" />
    </marker>
    <marker
       refX="0"
       refY="0"
       orient="auto"
       id="Arrow1Mend1"
       style="overflow:visible">
      <path
         d="M 0,0 5,-5 -12.5,0 5,5 0,0 z"
         transform="matrix(-0.4,0,0,-0.4,-4,0)"
         id="path5276"
         style="fill:#800000;fill-rule:evenodd;stroke:#800000;stroke-width:1pt" />
    </marker>
    <marker
       refX="0"
       refY="0"
       orient="auto"
       id="Arrow1Mendp"
       style="overflow:visible">
      <path
         d="M 0,0 5,-5 -12.5,0 5,5 0,0 z"
         transform="matrix(-0.4,0,0,-0.4,-4,0)"
         id="path5564"
         style="fill:#800000;fill-rule:evenodd;stroke:#800000;stroke-width:1pt" />
    </marker>
    <marker
       refX="0"
       refY="0"
       orient="auto"
       id="Arrow1MendQ"
       style="overflow:visible">
      <path
         d="M 0,0 5,-5 -12.5,0 5,5 0,0 z"
         transform="matrix(-0.4,0,0,-0.4,-4,0)"
         id="path6239"
         style="fill:#008000;fill-rule:evenodd;stroke:#008000;stroke-width:1pt" />
    </marker>
    <marker
       refX="0"
       refY="0"
       orient="auto"
       id="Arrow1Mendy"
       style="overflow:visible">
      <path
         d="M 0,0 5,-5 -12.5,0 5,5 0,0 z"
         transform="matrix(-0.4,0,0,-0.4,-4,0)"
         id="path7116"
         style="fill:#000080;fill-rule:evenodd;stroke:#000080;stroke-width:1pt" />
    </marker>
  </defs>
  <line
     x1="10.5"
     y1="36.868668"
     x2="510.5"
     y2="36.868668"
     id="line4"
     style="stroke:#000000;stroke-width:1;marker-end:url(#Arrow1Lend)" />
  <circle
     cx="350"
     cy="25"
     r="2"
     transform="translate(10.5,11.868667)"
     id="circle10"
     style="fill:#0000ff" />
  <circle
     cx="250"
     cy="25"
     r="2"
     transform="translate(10.5,11.868667)"
     id="circle12"
     style="fill:#0000ff" />
  <circle
     cx="216"
     cy="25"
     r="2"
     transform="translate(10.5,11.868667)"
     id="circle14"
     style="fill:#0000ff" />
  <circle
     cx="200"
     cy="25"
     r="2"
     transform="translate(10.5,11.868667)"
     id="circle16"
     style="fill:#0000ff" />
  <circle
     cx="190"
     cy="25"
     r="2"
     transform="translate(10.5,11.868667)"
     id="circle18"
     style="fill:#0000ff" />
  <circle
     cx="183"
     cy="25"
     r="2"
     transform="translate(10.5,11.868667)"
     id="circle20"
     style="fill:#0000ff" />
  <circle
     cx="178"
     cy="25"
     r="2"
     transform="translate(10.5,11.868667)"
     id="circle22"
     style="fill:#0000ff" />
  <circle
     cx="175"
     cy="25"
     r="2"
     transform="translate(10.5,11.868667)"
     id="circle24"
     style="fill:#0000ff" />
  <circle
     cx="172"
     cy="25"
     r="2"
     transform="translate(10.5,11.868667)"
     id="circle26"
     style="fill:#0000ff" />
  <circle
     cx="170"
     cy="25"
     r="2"
     transform="translate(10.5,11.868667)"
     id="circle28"
     style="fill:#0000ff" />
  <circle
     cx="168"
     cy="25"
     r="2"
     transform="translate(10.5,11.868667)"
     id="circle30"
     style="fill:#0000ff" />
  <circle
     cx="166"
     cy="25"
     r="2"
     transform="translate(10.5,11.868667)"
     id="circle32"
     style="fill:#0000ff" />
  <circle
     cx="165"
     cy="25"
     r="2"
     transform="translate(10.5,11.868667)"
     id="circle34"
     style="fill:#0000ff" />
  <circle
     cx="164"
     cy="25"
     r="2"
     transform="translate(10.5,11.868667)"
     id="circle36"
     style="fill:#0000ff" />
  <circle
     cx="163"
     cy="25"
     r="2"
     transform="translate(10.5,11.868667)"
     id="circle38"
     style="fill:#0000ff" />
  <circle
     cx="162"
     cy="25"
     r="2"
     transform="translate(10.5,11.868667)"
     id="circle40"
     style="fill:#0000ff" />
  <circle
     cx="161"
     cy="25"
     r="2"
     transform="translate(10.5,11.868667)"
     id="circle42"
     style="fill:#0000ff" />
  <circle
     cx="161"
     cy="25"
     r="2"
     transform="translate(10.5,11.868667)"
     id="circle44"
     style="fill:#0000ff" />
  <circle
     cx="160"
     cy="25"
     r="2"
     transform="translate(10.5,11.868667)"
     id="circle46"
     style="fill:#0000ff" />
  <circle
     cx="160"
     cy="25"
     r="2"
     transform="translate(10.5,11.868667)"
     id="circle48"
     style="fill:#0000ff" />
  <circle
     cx="175"
     cy="25"
     r="2"
     transform="translate(70.963602,11.868667)"
     id="circle24-9"
     style="fill:#0000ff" />
  <circle
     cx="175"
     cy="25"
     r="2"
     transform="translate(130.46935,11.868667)"
     id="circle24-4"
     style="fill:#0000ff" />
  <text
     x="240.90178"
     y="18.255859"
     id="text3056"
     xml:space="preserve"
     style="font-size:12px;font-style:normal;font-variant:normal;font-weight:normal;font-stretch:normal;text-align:start;line-height:125%;letter-spacing:0px;word-spacing:0px;writing-mode:lr-tb;text-anchor:start;fill:#0000ff;fill-opacity:1;stroke:none;font-family:Liberation Sans;-inkscape-font-specification:Liberation Sans"><tspan
       x="240.90178"
       y="18.255859"
       id="tspan3058">Menge M</tspan></text>
  <circle
     cx="166"
     cy="25"
     r="2"
     transform="translate(-65.356322,11.868667)"
     id="circle32-0"
     style="fill:#800000" />
  <circle
     cx="166"
     cy="25"
     r="2"
     transform="translate(-13.045977,11.868667)"
     id="circle32-1"
     style="fill:#800000" />
  <circle
     cx="166"
     cy="25"
     r="2"
     transform="translate(-122.22797,11.868667)"
     id="circle32-7"
     style="fill:#800000" />
  <circle
     cx="166"
     cy="25"
     r="2"
     transform="translate(272.39751,11.868667)"
     id="circle32-0-9"
     style="fill:#008000" />
  <circle
     cx="166"
     cy="25"
     r="2"
     transform="translate(312.70785,11.868667)"
     id="circle32-1-0"
     style="fill:#008000" />
  <circle
     cx="166"
     cy="25"
     r="2"
     transform="translate(237.52586,11.868667)"
     id="circle32-7-4"
     style="fill:#008000" />
  <text
     x="93.518784"
     y="68.695312"
     id="text4328"
     xml:space="preserve"
     style="font-size:12px;font-style:normal;font-variant:normal;font-weight:normal;font-stretch:normal;text-align:center;line-height:125%;letter-spacing:0px;word-spacing:0px;writing-mode:lr-tb;text-anchor:middle;fill:#800000;fill-opacity:1;stroke:none;font-family:Liberation Sans;-inkscape-font-specification:Liberation Sans"><tspan
       x="93.518784"
       y="68.695312"
       id="tspan4330">untere Schranken</tspan><tspan
       x="93.518784"
       y="83.695312"
       id="tspan4338">von M</tspan></text>
  <text
     x="438.53815"
     y="68.695312"
     id="text4332"
     xml:space="preserve"
     style="font-size:12px;font-style:normal;font-variant:normal;font-weight:normal;font-stretch:normal;text-align:center;line-height:125%;letter-spacing:0px;word-spacing:0px;writing-mode:lr-tb;text-anchor:middle;fill:#008000;fill-opacity:1;stroke:none;font-family:Liberation Sans;-inkscape-font-specification:Liberation Sans"><tspan
       x="438.53815"
       y="68.695312"
       id="tspan4334">obere Schranken</tspan><tspan
       x="438.53815"
       y="83.695312"
       id="tspan4336">von M</tspan></text>
  <path
     d="M 66.426744,57.28151 46.705321,40.594152"
     id="path4340"
     style="fill:none;stroke:#800000;stroke-width:1px;stroke-linecap:butt;stroke-linejoin:miter;stroke-opacity:1;marker-start:none;marker-mid:none;marker-end:url(#Arrow1Mend1)" />
  <path
     d="M 98.487888,56.179795 100.00492,42.147244"
     id="path4342"
     style="fill:none;stroke:#800000;stroke-width:1px;stroke-linecap:butt;stroke-linejoin:miter;stroke-opacity:1;marker-end:url(#Arrow1Mendp)" />
  <path
     d="M 136.03444,56.179795 150.06699,40.630211"
     id="path4344"
     style="fill:none;stroke:#800000;stroke-width:1px;stroke-linecap:butt;stroke-linejoin:miter;stroke-opacity:1;marker-end:url(#Arrow1Mend1)" />
  <path
     d="m 438.42241,55.897778 0,-14.443289"
     id="path5844"
     style="fill:none;stroke:#008000;stroke-width:1;stroke-linecap:butt;stroke-linejoin:miter;stroke-miterlimit:4;stroke-opacity:1;stroke-dasharray:none;marker-end:url(#Arrow1MendQ)" />
  <path
     d="M 425.90689,54.74891 405.42695,39.957843"
     id="path6034"
     style="fill:none;stroke:#008000;stroke-width:1px;stroke-linecap:butt;stroke-linejoin:miter;stroke-opacity:1;marker-end:url(#Arrow1MendQ)" />
  <path
     d="M 459.66086,56.265943 475.5897,40.716359"
     id="path6036"
     style="fill:none;stroke:#008000;stroke-width:1px;stroke-linecap:butt;stroke-linejoin:miter;stroke-opacity:1;marker-end:url(#Arrow1MendQ)" />
</svg>
