<?xml version="1.0" encoding="UTF-8" standalone="no"?>
<!-- Created with Inkscape (http://www.inkscape.org/) -->
<svg
   xmlns:i="http://ns.adobe.com/AdobeIllustrator/10.0/"
   xmlns:dc="http://purl.org/dc/elements/1.1/"
   xmlns:cc="http://web.resource.org/cc/"
   xmlns:rdf="http://www.w3.org/1999/02/22-rdf-syntax-ns#"
   xmlns:svg="http://www.w3.org/2000/svg"
   xmlns="http://www.w3.org/2000/svg"
   xmlns:sodipodi="http://sodipodi.sourceforge.net/DTD/sodipodi-0.dtd"
   xmlns:inkscape="http://www.inkscape.org/namespaces/inkscape"
   width="310"
   height="170"
   id="svg2"
   sodipodi:version="0.32"
   inkscape:version="0.44"
   version="1.0"
   sodipodi:docbase="C:\Documents and Settings\Administrator\Desktop\Wikipedia"
   sodipodi:docname="Relacion transitiva.svg">
  <defs
     id="defs4" />
  <sodipodi:namedview
     id="base"
     pagecolor="#ffffff"
     bordercolor="#666666"
     borderopacity="1.0"
     gridtolerance="10000"
     guidetolerance="10"
     objecttolerance="10"
     inkscape:pageopacity="0.0"
     inkscape:pageshadow="2"
     inkscape:zoom="1.4"
     inkscape:cx="214.1678"
     inkscape:cy="234.72461"
     inkscape:document-units="px"
     inkscape:current-layer="layer1"
     width="310px"
     height="170px"
     showguides="true"
     inkscape:guide-bbox="true"
     inkscape:window-width="1247"
     inkscape:window-height="973"
     inkscape:window-x="-4"
     inkscape:window-y="-4">
    <sodipodi:guide
       orientation="horizontal"
       position="15"
       id="guide3672" />
  </sodipodi:namedview>
  <metadata
     id="metadata7">
    <rdf:RDF>
      <cc:Work
         rdf:about="">
        <dc:format>image/svg+xml</dc:format>
        <dc:type
           rdf:resource="http://purl.org/dc/dcmitype/StillImage" />
      </cc:Work>
    </rdf:RDF>
  </metadata>
  <g
     inkscape:label="Layer 1"
     inkscape:groupmode="layer"
     id="layer1">
    <g
       id="layer2"
       inkscape:label="background"
       transform="matrix(0.693424,0,0,0.693424,2.699744,-2.100128)" />
    <g
       id="g3128"
       i:knockout="Off"
       transform="matrix(1.133194,0,0,1.133194,-93.41504,-122.0974)">
      <g
         id="g3130">
        <line
           style="fill:none"
           id="line3132"
           y2="222.347"
           x2="140.41701"
           y1="114.347"
           x1="140.41701"
           i:knockout="Off" />
        <g
           id="g3134">
          <g
             id="g3136">
            <path
               style="fill:#9e6111"
               id="path3138"
               d="M 164.874,122.505 L 161.349,128.527 C 161.349,128.527 148.518,125.057 141.607,153.396 C 141.606,153.397 143.721,121.109 164.874,122.505 z "
               i:knockout="Off" />
            <path
               style="fill:#4dac26"
               id="path3140"
               d="M 140.618,145.878 C 140.618,145.878 114.292,136.046 117.993,114.347 C 127.783,114.936 144.566,114.357 140.618,145.878 z "
               i:knockout="Off" />
            <path
               style="fill:#dc151f"
               id="path3142"
               d="M 142.922,149.637 C 142.922,149.637 150.161,152.24 156.413,147.612 C 162.665,142.986 178.132,146.457 180.435,156 C 182.018,162.561 185.001,187.984 173.774,203.984 C 168.669,211.257 160.692,219.908 148.185,217.305 C 145.881,219.329 134.366,223.09 125.811,221.354 C 117.257,219.618 93.2,197.575 99.813,155.71 C 103.105,134.89 141.278,148.191 142.922,149.637 z "
               i:knockout="Off" />
            <g
               id="g3144">
              <g
                 id="g3146">
                <path
                   id="path3148"
                   d="M 156.105,148.236 C 161.51,145.663 167.018,144.456 172.238,148.754 C 184.173,158.609 181.446,177.305 179.902,188.568 C 178.476,198.939 170.221,207.474 161.631,214.856 C 156.393,219.383 150.466,216.451 147.042,215.631 C 146.738,215.559 144.705,217.424 146.626,217.888 C 152.57,219.321 154.86,219.565 158.619,217.864 C 165.496,214.734 170.721,210.726 174.447,204.95 C 179.672,196.864 183.29,187.445 184.173,178.34 C 184.838,171.957 185.002,165.522 182.847,159.305 C 180.885,153.674 179.312,148.819 172.019,146.1 C 162.324,142.487 156.989,146.1 152.682,148.309 C 151.924,148.695 147.652,149.789 147.624,149.887 C 147.598,150.008 147.651,150.106 147.79,150.129 C 147.79,150.128 150.801,150.761 156.105,148.236 z "
                   i:knockout="Off" />
                <path
                   style="fill:#a81018"
                   id="path3150"
                   d="M 134.366,153.686 C 134.366,153.686 132.722,156.578 136.343,158.312 C 139.962,160.048 146.873,163.541 151.316,154.42 C 147.201,155.71 136.343,158.314 134.366,153.686 z "
                   i:knockout="Off" />
                <path
                   id="path3152"
                   d="M 149.668,154.709 C 146.298,155.024 142.54,154.806 139.835,156.917 C 139.835,156.917 136.545,156.603 135.054,153.884 C 134.99,153.765 134.523,153.696 134.611,154.101 C 135.44,155.559 137.872,157.136 139.807,157.623 C 139.807,157.623 143.893,155.63 149.722,155.098 C 149.837,155.087 150.192,154.792 149.668,154.709 L 149.668,154.709 z "
                   i:knockout="Off" />
                <path
                   style="fill:#df574f"
                   id="path3154"
                   d="M 159.265,150.194 C 159.265,150.194 179.776,143.564 175.171,171.328 C 173.855,152.24 166.616,152.529 159.265,150.194 z "
                   i:knockout="Off" />
                <path
                   id="path3156"
                   d="M 117.351,153.36 C 108.901,161.855 108.964,175.061 113.769,184.895 C 114.405,185.561 114.601,184.847 114.516,184.651 C 110.87,175.281 109.046,163.191 117.584,155.422 C 117.584,155.422 119.462,153.578 119.435,153.481 C 119.377,153.382 117.351,153.36 117.351,153.36 z "
                   i:knockout="Off" />
                <path
                   id="path3158"
                   d="M 166.603,128.634 C 165.693,127.128 164.752,124.445 165.72,122.54 C 165.859,122.369 162.696,119.117 155.967,123.222 C 148.453,128.124 143.7,134.583 141.491,142.473 C 141.115,143.765 140.666,148.165 140.449,148.037 C 135.53,145.222 129.776,143.541 124.167,142.716 C 118.89,141.963 113.534,141.866 108.67,143.929 C 100.602,147.353 96.982,155.146 96.265,162.527 C 95.051,174.619 98.146,186.562 102.621,197.898 C 114.793,227.092 134.444,223.441 139.391,220.576 C 142.624,218.683 143.754,215.43 144.641,212.298 C 144.807,212.005 140.558,224.81 125.162,220.552 C 116.102,216.474 114.147,213.305 106.525,200.741 C 100.337,179.763 100.629,188.568 99.746,167.073 C 99.469,160.306 103.355,147.232 110.65,144.026 C 118.528,140.603 134.474,146.982 140.331,149.464 C 140.459,149.522 140.226,153.334 140.662,154.539 C 141.099,155.743 141.572,154.927 141.6,154.709 C 143.234,150.558 144.032,146.162 146.048,142.156 C 148.74,136.823 152.363,130.168 159.902,129.546 C 159.905,129.55 163.345,130.247 164.637,128.862 C 164.11,128.571 163.146,128.367 162.716,128.454 C 162.266,129.087 161.291,128.534 160.568,128.65 C 161.654,126.423 162.96,124.299 164.286,122.188 L 164.875,122.504 C 163.995,123.777 164.31,127.42 165.721,129.023 C 165.831,129.242 166.863,129.416 166.603,128.634 z M 141.004,152.38 C 140.994,151.425 141.062,150.441 141.17,149.447 C 141.552,149.303 141.894,149.007 142.069,148.639 L 142.092,148.621 C 141.657,149.857 141.265,151.104 141.004,152.38 z M 159.918,128.685 C 156.714,128.66 153.839,129.873 151.518,131.888 C 148.315,134.704 147.181,138.298 145.277,141.72 C 144.073,143.89 143.014,146.101 142.185,148.372 C 142.141,148.29 142.033,148.231 141.931,148.274 L 141.346,148.127 C 142.168,142.796 144.492,137.239 147.76,133.149 C 151.651,128.278 156.115,122.817 162.936,122.086 C 160.953,124.313 160.889,125.263 159.918,128.685 z "
                   i:knockout="Off" />
                <path
                   id="path3160"
                   d="M 139.888,124.605 C 136.05,116.642 127.083,112.769 117.993,114.347 C 117.993,114.347 115.99,117.126 116.627,120.283 C 118.565,129.906 124.83,138.564 134.333,143.421 C 134.502,143.494 135.063,143.306 134.722,142.91 C 125.578,138.031 120.412,129.551 117.621,120.283 C 116.877,117.806 118.18,114.948 118.159,114.896 C 126.68,114.065 134.546,117.765 138.534,124.969 C 140.909,129.315 140.77,134.122 140.662,138.807 C 140.773,139.318 141.241,138.977 141.241,138.831 C 141.572,134.048 142.069,129.122 139.888,124.605 z "
                   i:knockout="Off" />
                <path
                   style="fill:#9cd122"
                   id="path3162"
                   d="M 137.655,142.408 C 137.655,142.408 139.631,121.008 125.811,121.877 C 135.022,124.478 137.327,139.805 137.655,142.408 z "
                   i:knockout="Off" />
                <path
                   id="path3164"
                   d="M 138.229,143.517 C 137.069,139.123 136.904,134.705 134.087,130.601 C 131.903,127.446 129.085,125.042 126.849,122.08 L 126.849,122.08 C 126.68,121.813 125.259,121.496 125.717,122.664 C 130.439,129.315 136.93,135.408 137.817,143.592 C 138.042,144.089 138.257,143.613 138.229,143.517 L 138.229,143.517 z "
                   i:knockout="Off" />
              </g>
            </g>
            <path
               style="fill:#a81018"
               id="path3166"
               d="M 146.542,208.342 C 146.542,208.342 144.895,221.066 130.747,221.066 C 135.022,217.305 145.226,215.572 146.542,208.342 z "
               i:knockout="Off" />
          </g>
        </g>
      </g>
    </g>
    <text
       id="text3674"
       y="154.61322"
       x="61.358711"
       style="font-size:27.31435776px;font-style:normal;font-variant:normal;font-weight:normal;font-stretch:normal;text-align:start;line-height:125%;writing-mode:lr-tb;text-anchor:start;fill:black;fill-opacity:1;stroke:none;stroke-width:1px;stroke-linecap:butt;stroke-linejoin:miter;stroke-opacity:1;font-family:Bitstream Vera Sans"
       xml:space="preserve"
       sodipodi:linespacing="125%"><tspan
         sodipodi:role="line"
         id="tspan3642"
         x="61.358711"
         y="154.61322">a</tspan></text>
    <g
       id="g3246"
       i:knockout="Off"
       transform="matrix(0.817098,0,0,0.817098,71.55889,-63.91955)">
      <g
         id="g3249">
        <line
           style="fill:none"
           id="line3251"
           y2="222.347"
           x2="140.41701"
           y1="114.347"
           x1="140.41701"
           i:knockout="Off" />
        <g
           id="g3253">
          <g
             id="g3255">
            <path
               style="fill:#9e6111"
               id="path3257"
               d="M 164.874,122.505 L 161.349,128.527 C 161.349,128.527 148.518,125.057 141.607,153.396 C 141.606,153.397 143.721,121.109 164.874,122.505 z "
               i:knockout="Off" />
            <path
               style="fill:#4dac26"
               id="path3259"
               d="M 140.618,145.878 C 140.618,145.878 114.292,136.046 117.993,114.347 C 127.783,114.936 144.566,114.357 140.618,145.878 z "
               i:knockout="Off" />
            <path
               style="fill:#dc151f"
               id="path3261"
               d="M 142.922,149.637 C 142.922,149.637 150.161,152.24 156.413,147.612 C 162.665,142.986 178.132,146.457 180.435,156 C 182.018,162.561 185.001,187.984 173.774,203.984 C 168.669,211.257 160.692,219.908 148.185,217.305 C 145.881,219.329 134.366,223.09 125.811,221.354 C 117.257,219.618 93.2,197.575 99.813,155.71 C 103.105,134.89 141.278,148.191 142.922,149.637 z "
               i:knockout="Off" />
            <g
               id="g3263">
              <g
                 id="g3265">
                <path
                   id="path3267"
                   d="M 156.105,148.236 C 161.51,145.663 167.018,144.456 172.238,148.754 C 184.173,158.609 181.446,177.305 179.902,188.568 C 178.476,198.939 170.221,207.474 161.631,214.856 C 156.393,219.383 150.466,216.451 147.042,215.631 C 146.738,215.559 144.705,217.424 146.626,217.888 C 152.57,219.321 154.86,219.565 158.619,217.864 C 165.496,214.734 170.721,210.726 174.447,204.95 C 179.672,196.864 183.29,187.445 184.173,178.34 C 184.838,171.957 185.002,165.522 182.847,159.305 C 180.885,153.674 179.312,148.819 172.019,146.1 C 162.324,142.487 156.989,146.1 152.682,148.309 C 151.924,148.695 147.652,149.789 147.624,149.887 C 147.598,150.008 147.651,150.106 147.79,150.129 C 147.79,150.128 150.801,150.761 156.105,148.236 z "
                   i:knockout="Off" />
                <path
                   style="fill:#a81018"
                   id="path3269"
                   d="M 134.366,153.686 C 134.366,153.686 132.722,156.578 136.343,158.312 C 139.962,160.048 146.873,163.541 151.316,154.42 C 147.201,155.71 136.343,158.314 134.366,153.686 z "
                   i:knockout="Off" />
                <path
                   id="path3271"
                   d="M 149.668,154.709 C 146.298,155.024 142.54,154.806 139.835,156.917 C 139.835,156.917 136.545,156.603 135.054,153.884 C 134.99,153.765 134.523,153.696 134.611,154.101 C 135.44,155.559 137.872,157.136 139.807,157.623 C 139.807,157.623 143.893,155.63 149.722,155.098 C 149.837,155.087 150.192,154.792 149.668,154.709 L 149.668,154.709 z "
                   i:knockout="Off" />
                <path
                   style="fill:#df574f"
                   id="path3273"
                   d="M 159.265,150.194 C 159.265,150.194 179.776,143.564 175.171,171.328 C 173.855,152.24 166.616,152.529 159.265,150.194 z "
                   i:knockout="Off" />
                <path
                   id="path3275"
                   d="M 117.351,153.36 C 108.901,161.855 108.964,175.061 113.769,184.895 C 114.405,185.561 114.601,184.847 114.516,184.651 C 110.87,175.281 109.046,163.191 117.584,155.422 C 117.584,155.422 119.462,153.578 119.435,153.481 C 119.377,153.382 117.351,153.36 117.351,153.36 z "
                   i:knockout="Off" />
                <path
                   id="path3277"
                   d="M 166.603,128.634 C 165.693,127.128 164.752,124.445 165.72,122.54 C 165.859,122.369 162.696,119.117 155.967,123.222 C 148.453,128.124 143.7,134.583 141.491,142.473 C 141.115,143.765 140.666,148.165 140.449,148.037 C 135.53,145.222 129.776,143.541 124.167,142.716 C 118.89,141.963 113.534,141.866 108.67,143.929 C 100.602,147.353 96.982,155.146 96.265,162.527 C 95.051,174.619 98.146,186.562 102.621,197.898 C 114.793,227.092 134.444,223.441 139.391,220.576 C 142.624,218.683 143.754,215.43 144.641,212.298 C 144.807,212.005 140.558,224.81 125.162,220.552 C 116.102,216.474 114.147,213.305 106.525,200.741 C 100.337,179.763 100.629,188.568 99.746,167.073 C 99.469,160.306 103.355,147.232 110.65,144.026 C 118.528,140.603 134.474,146.982 140.331,149.464 C 140.459,149.522 140.226,153.334 140.662,154.539 C 141.099,155.743 141.572,154.927 141.6,154.709 C 143.234,150.558 144.032,146.162 146.048,142.156 C 148.74,136.823 152.363,130.168 159.902,129.546 C 159.905,129.55 163.345,130.247 164.637,128.862 C 164.11,128.571 163.146,128.367 162.716,128.454 C 162.266,129.087 161.291,128.534 160.568,128.65 C 161.654,126.423 162.96,124.299 164.286,122.188 L 164.875,122.504 C 163.995,123.777 164.31,127.42 165.721,129.023 C 165.831,129.242 166.863,129.416 166.603,128.634 z M 141.004,152.38 C 140.994,151.425 141.062,150.441 141.17,149.447 C 141.552,149.303 141.894,149.007 142.069,148.639 L 142.092,148.621 C 141.657,149.857 141.265,151.104 141.004,152.38 z M 159.918,128.685 C 156.714,128.66 153.839,129.873 151.518,131.888 C 148.315,134.704 147.181,138.298 145.277,141.72 C 144.073,143.89 143.014,146.101 142.185,148.372 C 142.141,148.29 142.033,148.231 141.931,148.274 L 141.346,148.127 C 142.168,142.796 144.492,137.239 147.76,133.149 C 151.651,128.278 156.115,122.817 162.936,122.086 C 160.953,124.313 160.889,125.263 159.918,128.685 z "
                   i:knockout="Off" />
                <path
                   id="path3279"
                   d="M 139.888,124.605 C 136.05,116.642 127.083,112.769 117.993,114.347 C 117.993,114.347 115.99,117.126 116.627,120.283 C 118.565,129.906 124.83,138.564 134.333,143.421 C 134.502,143.494 135.063,143.306 134.722,142.91 C 125.578,138.031 120.412,129.551 117.621,120.283 C 116.877,117.806 118.18,114.948 118.159,114.896 C 126.68,114.065 134.546,117.765 138.534,124.969 C 140.909,129.315 140.77,134.122 140.662,138.807 C 140.773,139.318 141.241,138.977 141.241,138.831 C 141.572,134.048 142.069,129.122 139.888,124.605 z "
                   i:knockout="Off" />
                <path
                   style="fill:#9cd122"
                   id="path3281"
                   d="M 137.655,142.408 C 137.655,142.408 139.631,121.008 125.811,121.877 C 135.022,124.478 137.327,139.805 137.655,142.408 z "
                   i:knockout="Off" />
                <path
                   id="path3283"
                   d="M 138.229,143.517 C 137.069,139.123 136.904,134.705 134.087,130.601 C 131.903,127.446 129.085,125.042 126.849,122.08 L 126.849,122.08 C 126.68,121.813 125.259,121.496 125.717,122.664 C 130.439,129.315 136.93,135.408 137.817,143.592 C 138.042,144.089 138.257,143.613 138.229,143.517 L 138.229,143.517 z "
                   i:knockout="Off" />
              </g>
            </g>
            <path
               style="fill:#a81018"
               id="path3285"
               d="M 146.542,208.342 C 146.542,208.342 144.895,221.066 130.747,221.066 C 135.022,217.305 145.226,215.572 146.542,208.342 z "
               i:knockout="Off" />
          </g>
        </g>
      </g>
    </g>
    <g
       id="g3295"
       i:knockout="Off"
       transform="matrix(0.369295,0,0,0.369295,230.2621,19.27289)">
      <g
         id="g3297">
        <line
           style="fill:none"
           id="line3299"
           y2="222.347"
           x2="140.41701"
           y1="114.347"
           x1="140.41701"
           i:knockout="Off" />
        <g
           id="g3301">
          <g
             id="g3303">
            <path
               style="fill:#9e6111"
               id="path3305"
               d="M 164.874,122.505 L 161.349,128.527 C 161.349,128.527 148.518,125.057 141.607,153.396 C 141.606,153.397 143.721,121.109 164.874,122.505 z "
               i:knockout="Off" />
            <path
               style="fill:#4dac26"
               id="path3307"
               d="M 140.618,145.878 C 140.618,145.878 114.292,136.046 117.993,114.347 C 127.783,114.936 144.566,114.357 140.618,145.878 z "
               i:knockout="Off" />
            <path
               style="fill:#dc151f"
               id="path3309"
               d="M 142.922,149.637 C 142.922,149.637 150.161,152.24 156.413,147.612 C 162.665,142.986 178.132,146.457 180.435,156 C 182.018,162.561 185.001,187.984 173.774,203.984 C 168.669,211.257 160.692,219.908 148.185,217.305 C 145.881,219.329 134.366,223.09 125.811,221.354 C 117.257,219.618 93.2,197.575 99.813,155.71 C 103.105,134.89 141.278,148.191 142.922,149.637 z "
               i:knockout="Off" />
            <g
               id="g3311">
              <g
                 id="g3313">
                <path
                   id="path3315"
                   d="M 156.105,148.236 C 161.51,145.663 167.018,144.456 172.238,148.754 C 184.173,158.609 181.446,177.305 179.902,188.568 C 178.476,198.939 170.221,207.474 161.631,214.856 C 156.393,219.383 150.466,216.451 147.042,215.631 C 146.738,215.559 144.705,217.424 146.626,217.888 C 152.57,219.321 154.86,219.565 158.619,217.864 C 165.496,214.734 170.721,210.726 174.447,204.95 C 179.672,196.864 183.29,187.445 184.173,178.34 C 184.838,171.957 185.002,165.522 182.847,159.305 C 180.885,153.674 179.312,148.819 172.019,146.1 C 162.324,142.487 156.989,146.1 152.682,148.309 C 151.924,148.695 147.652,149.789 147.624,149.887 C 147.598,150.008 147.651,150.106 147.79,150.129 C 147.79,150.128 150.801,150.761 156.105,148.236 z "
                   i:knockout="Off" />
                <path
                   style="fill:#a81018"
                   id="path3317"
                   d="M 134.366,153.686 C 134.366,153.686 132.722,156.578 136.343,158.312 C 139.962,160.048 146.873,163.541 151.316,154.42 C 147.201,155.71 136.343,158.314 134.366,153.686 z "
                   i:knockout="Off" />
                <path
                   id="path3319"
                   d="M 149.668,154.709 C 146.298,155.024 142.54,154.806 139.835,156.917 C 139.835,156.917 136.545,156.603 135.054,153.884 C 134.99,153.765 134.523,153.696 134.611,154.101 C 135.44,155.559 137.872,157.136 139.807,157.623 C 139.807,157.623 143.893,155.63 149.722,155.098 C 149.837,155.087 150.192,154.792 149.668,154.709 L 149.668,154.709 z "
                   i:knockout="Off" />
                <path
                   style="fill:#df574f"
                   id="path3321"
                   d="M 159.265,150.194 C 159.265,150.194 179.776,143.564 175.171,171.328 C 173.855,152.24 166.616,152.529 159.265,150.194 z "
                   i:knockout="Off" />
                <path
                   id="path3323"
                   d="M 117.351,153.36 C 108.901,161.855 108.964,175.061 113.769,184.895 C 114.405,185.561 114.601,184.847 114.516,184.651 C 110.87,175.281 109.046,163.191 117.584,155.422 C 117.584,155.422 119.462,153.578 119.435,153.481 C 119.377,153.382 117.351,153.36 117.351,153.36 z "
                   i:knockout="Off" />
                <path
                   id="path3325"
                   d="M 166.603,128.634 C 165.693,127.128 164.752,124.445 165.72,122.54 C 165.859,122.369 162.696,119.117 155.967,123.222 C 148.453,128.124 143.7,134.583 141.491,142.473 C 141.115,143.765 140.666,148.165 140.449,148.037 C 135.53,145.222 129.776,143.541 124.167,142.716 C 118.89,141.963 113.534,141.866 108.67,143.929 C 100.602,147.353 96.982,155.146 96.265,162.527 C 95.051,174.619 98.146,186.562 102.621,197.898 C 114.793,227.092 134.444,223.441 139.391,220.576 C 142.624,218.683 143.754,215.43 144.641,212.298 C 144.807,212.005 140.558,224.81 125.162,220.552 C 116.102,216.474 114.147,213.305 106.525,200.741 C 100.337,179.763 100.629,188.568 99.746,167.073 C 99.469,160.306 103.355,147.232 110.65,144.026 C 118.528,140.603 134.474,146.982 140.331,149.464 C 140.459,149.522 140.226,153.334 140.662,154.539 C 141.099,155.743 141.572,154.927 141.6,154.709 C 143.234,150.558 144.032,146.162 146.048,142.156 C 148.74,136.823 152.363,130.168 159.902,129.546 C 159.905,129.55 163.345,130.247 164.637,128.862 C 164.11,128.571 163.146,128.367 162.716,128.454 C 162.266,129.087 161.291,128.534 160.568,128.65 C 161.654,126.423 162.96,124.299 164.286,122.188 L 164.875,122.504 C 163.995,123.777 164.31,127.42 165.721,129.023 C 165.831,129.242 166.863,129.416 166.603,128.634 z M 141.004,152.38 C 140.994,151.425 141.062,150.441 141.17,149.447 C 141.552,149.303 141.894,149.007 142.069,148.639 L 142.092,148.621 C 141.657,149.857 141.265,151.104 141.004,152.38 z M 159.918,128.685 C 156.714,128.66 153.839,129.873 151.518,131.888 C 148.315,134.704 147.181,138.298 145.277,141.72 C 144.073,143.89 143.014,146.101 142.185,148.372 C 142.141,148.29 142.033,148.231 141.931,148.274 L 141.346,148.127 C 142.168,142.796 144.492,137.239 147.76,133.149 C 151.651,128.278 156.115,122.817 162.936,122.086 C 160.953,124.313 160.889,125.263 159.918,128.685 z "
                   i:knockout="Off" />
                <path
                   id="path3327"
                   d="M 139.888,124.605 C 136.05,116.642 127.083,112.769 117.993,114.347 C 117.993,114.347 115.99,117.126 116.627,120.283 C 118.565,129.906 124.83,138.564 134.333,143.421 C 134.502,143.494 135.063,143.306 134.722,142.91 C 125.578,138.031 120.412,129.551 117.621,120.283 C 116.877,117.806 118.18,114.948 118.159,114.896 C 126.68,114.065 134.546,117.765 138.534,124.969 C 140.909,129.315 140.77,134.122 140.662,138.807 C 140.773,139.318 141.241,138.977 141.241,138.831 C 141.572,134.048 142.069,129.122 139.888,124.605 z "
                   i:knockout="Off" />
                <path
                   style="fill:#9cd122"
                   id="path3329"
                   d="M 137.655,142.408 C 137.655,142.408 139.631,121.008 125.811,121.877 C 135.022,124.478 137.327,139.805 137.655,142.408 z "
                   i:knockout="Off" />
                <path
                   id="path3331"
                   d="M 138.229,143.517 C 137.069,139.123 136.904,134.705 134.087,130.601 C 131.903,127.446 129.085,125.042 126.849,122.08 L 126.849,122.08 C 126.68,121.813 125.259,121.496 125.717,122.664 C 130.439,129.315 136.93,135.408 137.817,143.592 C 138.042,144.089 138.257,143.613 138.229,143.517 L 138.229,143.517 z "
                   i:knockout="Off" />
              </g>
            </g>
            <path
               style="fill:#a81018"
               id="path3333"
               d="M 146.542,208.342 C 146.542,208.342 144.895,221.066 130.747,221.066 C 135.022,217.305 145.226,215.572 146.542,208.342 z "
               i:knockout="Off" />
          </g>
        </g>
      </g>
    </g>
    <text
       id="text3337"
       y="95.539398"
       x="122.84249"
       style="font-size:27.31435776px;font-style:normal;font-variant:normal;font-weight:normal;font-stretch:normal;text-align:start;line-height:125%;writing-mode:lr-tb;text-anchor:start;fill:black;fill-opacity:1;stroke:none;stroke-width:1px;stroke-linecap:butt;stroke-linejoin:miter;stroke-opacity:1;font-family:Bitstream Vera Sans"
       xml:space="preserve"
       sodipodi:linespacing="125%"
       inkscape:transform-center-y="-12.142857"><tspan
         sodipodi:role="line"
         id="tspan3339"
         x="122.84249"
         y="95.539398">&gt;</tspan></text>
    <text
       id="text3341"
       y="95.539398"
       x="234.27107"
       style="font-size:27.31435776px;font-style:normal;font-variant:normal;font-weight:normal;font-stretch:normal;text-align:start;line-height:125%;writing-mode:lr-tb;text-anchor:start;fill:black;fill-opacity:1;stroke:none;stroke-width:1px;stroke-linecap:butt;stroke-linejoin:miter;stroke-opacity:1;font-family:Bitstream Vera Sans"
       xml:space="preserve"
       sodipodi:linespacing="125%"><tspan
         sodipodi:role="line"
         id="tspan3343"
         x="234.27107"
         y="95.539398">&gt;</tspan></text>
    <text
       id="text3644"
       y="154.61322"
       x="175.62253"
       style="font-size:27.31435776px;font-style:normal;font-variant:normal;font-weight:normal;font-stretch:normal;text-align:start;line-height:125%;writing-mode:lr-tb;text-anchor:start;fill:black;fill-opacity:1;stroke:none;stroke-width:1px;stroke-linecap:butt;stroke-linejoin:miter;stroke-opacity:1;font-family:Bitstream Vera Sans"
       xml:space="preserve"
       sodipodi:linespacing="125%"><tspan
         sodipodi:role="line"
         id="tspan3646"
         x="175.62253"
         y="154.61322">b</tspan></text>
    <text
       id="text3648"
       y="154.61322"
       x="274.90823"
       style="font-size:27.31435776px;font-style:normal;font-variant:normal;font-weight:normal;font-stretch:normal;text-align:start;line-height:125%;writing-mode:lr-tb;text-anchor:start;fill:black;fill-opacity:1;stroke:none;stroke-width:1px;stroke-linecap:butt;stroke-linejoin:miter;stroke-opacity:1;font-family:Bitstream Vera Sans"
       xml:space="preserve"
       sodipodi:linespacing="125%"><tspan
         sodipodi:role="line"
         id="tspan3650"
         x="274.90823"
         y="154.61322">c</tspan></text>
    <text
       id="text3660"
       y="156.25369"
       x="122.82014"
       style="font-size:27.31435776px;font-style:normal;font-variant:normal;font-weight:normal;font-stretch:normal;text-align:start;line-height:125%;writing-mode:lr-tb;text-anchor:start;fill:black;fill-opacity:1;stroke:none;stroke-width:1px;stroke-linecap:butt;stroke-linejoin:miter;stroke-opacity:1;font-family:Bitstream Vera Sans"
       xml:space="preserve"
       sodipodi:linespacing="125%"><tspan
         sodipodi:role="line"
         id="tspan3662"
         x="122.82014"
         y="156.25369">&gt;</tspan></text>
    <text
       id="text3664"
       y="156.25369"
       x="233.53442"
       style="font-size:27.31435776px;font-style:normal;font-variant:normal;font-weight:normal;font-stretch:normal;text-align:start;line-height:125%;writing-mode:lr-tb;text-anchor:start;fill:black;fill-opacity:1;stroke:none;stroke-width:1px;stroke-linecap:butt;stroke-linejoin:miter;stroke-opacity:1;font-family:Bitstream Vera Sans"
       xml:space="preserve"
       sodipodi:linespacing="125%"><tspan
         sodipodi:role="line"
         id="tspan3666"
         x="233.53442"
         y="156.25369">&gt;</tspan></text>
  </g>
</svg>
