<?xml version="1.0" encoding="UTF-8" standalone="no"?>
<!-- Created with Inkscape (http://www.inkscape.org/) -->

<svg
   xmlns:dc="http://purl.org/dc/elements/1.1/"
   xmlns:cc="http://creativecommons.org/ns#"
   xmlns:rdf="http://www.w3.org/1999/02/22-rdf-syntax-ns#"
   xmlns:svg="http://www.w3.org/2000/svg"
   xmlns="http://www.w3.org/2000/svg"
   version="1.1"
   width="333.84375"
   height="298"
   id="svg2">
  <metadata
     id="metadata8">
    <rdf:RDF>
      <cc:Work
         rdf:about="">
        <dc:format>image/svg+xml</dc:format>
        <dc:type
           rdf:resource="http://purl.org/dc/dcmitype/StillImage" />
        <dc:title></dc:title>
      </cc:Work>
    </rdf:RDF>
  </metadata>
  <defs
     id="defs6">
    <marker
       refX="0"
       refY="0"
       orient="auto"
       id="Arrow2Mend"
       style="overflow:visible">
      <path
         d="M 8.7185878,4.0337352 -2.2072895,0.01601326 8.7185884,-4.0017078 c -1.7454984,2.3720609 -1.7354408,5.6174519 -6e-7,8.035443 z"
         transform="scale(-0.6,-0.6)"
         id="path3814"
         style="fill-rule:evenodd;stroke-width:0.625;stroke-linejoin:round" />
    </marker>
  </defs>
  <path
     d="m 0.97025,4.3136802 c 0,0 46.34004,152.8892998 104.125,155.4062498 26.9941,1.17578 51.2229,-32.6653 69.375,-69.0625"
     id="path2995"
     style="fill:none;stroke:#0000ff;stroke-width:2;stroke-linecap:butt;stroke-linejoin:miter;stroke-miterlimit:4;stroke-opacity:1;stroke-dasharray:none;marker-start:none;marker-end:none" />
  <path
     d="m 311.70074,297.68193 c 0,0 -57.0749,-272.459748 -135.91526,-272.459748"
     id="path2997"
     style="fill:none;stroke:#0000ff;stroke-width:2;stroke-linecap:butt;stroke-linejoin:miter;stroke-miterlimit:4;stroke-opacity:1;stroke-dasharray:none;marker-start:none;marker-end:none" />
  <path
     d="m 4.30008,160.07822 298.10842,0"
     id="path3002"
     style="fill:none;stroke:#000000;stroke-width:2;stroke-linecap:butt;stroke-linejoin:miter;stroke-miterlimit:4;stroke-opacity:1;stroke-dasharray:none;marker-end:url(#Arrow2Mend)" />
  <path
     d="m 105.74593,298.00899 0,-283.870415"
     id="path3004"
     style="fill:none;stroke:#000000;stroke-width:2;stroke-linecap:butt;stroke-linejoin:miter;stroke-miterlimit:4;stroke-opacity:1;stroke-dasharray:none;marker-end:url(#Arrow2Mend)" />
  <path
     d="m 176.04613,154.73897 0,15.12789"
     id="path3006"
     style="fill:none;stroke:#000000;stroke-width:2;stroke-linecap:butt;stroke-linejoin:miter;stroke-miterlimit:4;stroke-opacity:1;stroke-dasharray:none" />
  <g
     transform="matrix(0.86201831,0,0,0.86201831,-43.364712,-152.94309)"
     id="g7233">
    <path
       d="m 250.95839,391.13608 0,-0.13577 0.0453,-0.13578 0.0453,-0.13577 0.0452,-0.18103 0.0453,-0.18103 0.0453,-0.18103 0.0453,-0.18103 0.0905,-0.22629 0.0453,-0.18103 0.0905,-0.22629 0.0905,-0.22629 0.0905,-0.22629 0.0905,-0.22629 0.13578,-0.22629 0.0905,-0.22629 0.13578,-0.22629 0.13577,-0.22629 0.13577,-0.18103 0.13578,-0.22629 0.18103,-0.18103 0.18103,-0.22629 0.18103,-0.18103 0.18103,-0.18103 0.18103,-0.13578 0.22629,-0.13577 0.22629,-0.13577 0.0905,-0.0453 0.13577,-0.0905 0.0905,-0.0453 0.13577,-0.0453 0.13577,-0.0453 0.13578,0 0.13577,-0.0453 0.0905,-0.0453 0.18103,0 0.13577,0 0.13578,-0.0453 0.13577,0 c 0.22629,0 1.31248,0 2.26289,0.58835 -1.26722,0.22629 -2.17238,1.35773 -2.17238,2.44392 0,0.72413 0.49784,1.58403 1.7198,1.58403 0.99568,0 2.44393,-0.81464 2.44393,-2.62496 0,-2.35341 -2.67022,-2.98702 -4.20898,-2.98702 -2.62496,0 -4.20898,2.39867 -4.70682,3.4396 -1.13144,-2.98702 -3.57537,-3.4396 -4.88785,-3.4396 -4.66155,0 -7.24125,5.83827 -7.24125,6.92445 0,0.45258 0.45258,0.45258 0.54309,0.45258 0.36207,0 0.49784,-0.0905 0.58836,-0.49783 1.53876,-4.75208 4.48052,-5.88352 6.01929,-5.88352 0.8599,0 2.44392,0.40732 2.44392,3.03227 0,1.40299 -0.76938,4.39001 -2.44392,10.68085 -0.72413,2.80599 -2.30815,4.70682 -4.25424,4.70682 -0.27155,0 -1.31248,0 -2.26289,-0.58835 1.13145,-0.22629 2.12712,-1.17671 2.12712,-2.44393 0,-1.22196 -0.99567,-1.58402 -1.67454,-1.58402 -1.35774,0 -2.48918,1.1767 -2.48918,2.62495 0,2.08186 2.26289,2.94176 4.25423,2.94176 2.94176,0 4.57105,-3.12279 4.70682,-3.39433 0.54309,1.67454 2.17238,3.39433 4.84259,3.39433 4.66156,0 7.24125,-5.793 7.24125,-6.92445 0,-0.45258 -0.40732,-0.45258 -0.54309,-0.45258 -0.40732,0 -0.49784,0.22629 -0.58835,0.49784 -1.49351,4.84259 -4.57104,5.92878 -6.0193,5.92878 -1.71979,0 -2.44392,-1.44825 -2.44392,-2.98702 0,-0.99567 0.27155,-1.99134 0.76938,-3.93743 z"
       id="path7198"
       style="font-style:normal;font-variant:normal;font-weight:normal;font-stretch:normal;letter-spacing:normal;word-spacing:normal;text-anchor:start;fill:#000000;stroke:#000000;stroke-width:0;stroke-linecap:butt;stroke-linejoin:miter;stroke-miterlimit:10.43299961;stroke-opacity:1;stroke-dasharray:none;stroke-dashoffset:0" />
    <path
       d="m 277.93207,401.40961 0,-0.63361 0,-0.63361 -0.0453,-0.58835 -0.0453,-0.54309 -0.0453,-0.58836 -0.0905,-0.54309 -0.0453,-0.49784 -0.13578,-0.49783 -0.0905,-0.49784 -0.13577,-0.49783 -0.13578,-0.45258 -0.18103,-0.45258 -0.18103,-0.45258 -0.22629,-0.40732 -0.22629,-0.45258 -0.13577,-0.18103 -0.13578,-0.22629 c -0.99567,-1.44825 -2.94176,-2.71547 -5.4762,-2.71547 v 0.90516 c 1.7198,0 3.34909,1.04093 3.93744,2.85124 0.49783,1.7198 0.54309,3.98269 0.54309,6.69816 0,2.35341 0,4.66156 -0.45258,6.6529 -0.58835,2.85125 -2.76073,3.53012 -4.02795,3.53012 h 0 c -1.44825,0 -3.34908,-0.81464 -3.98269,-3.4396 -0.45257,-1.81031 -0.45257,-4.39001 -0.45257,-6.74342 0,-2.30815 0,-4.70681 0.49783,-6.42661 0.63361,-2.48918 2.67022,-3.12279 3.93743,-3.12279 v -0.90516 c -7.28651,0 -7.28651,8.59899 -7.28651,10.86188 0,2.26289 0,10.68085 7.28651,10.68085 7.33178,0 7.33178,-8.41796 7.33178,-10.68085 z"
       id="path7200"
       style="font-style:normal;font-variant:normal;font-weight:normal;font-stretch:normal;letter-spacing:normal;word-spacing:normal;text-anchor:start;fill:#000000;stroke:#000000;stroke-width:0;stroke-linecap:butt;stroke-linejoin:miter;stroke-miterlimit:10.43299961;stroke-opacity:1;stroke-dasharray:none;stroke-dashoffset:0" />
  </g>
  <path
     d="m 306.97295,181.63651 0.0391,-0.11704 0,-0.11704 0.039,-0.11704 0.0391,-0.11704 0.039,-0.15605 0.039,-0.15605 0.078,-0.19507 0.0391,-0.15605 0.078,-0.19507 0.039,-0.19506 0.078,-0.15605 0.078,-0.19507 0.11703,-0.19507 0.078,-0.19506 0.11703,-0.19507 0.078,-0.19506 0.11703,-0.19507 0.11704,-0.19507 0.15605,-0.15605 0.11704,-0.19506 0.15606,-0.15605 0.15605,-0.15606 0.15605,-0.15605 0.15605,-0.15605 0.19506,-0.11704 0.19507,-0.11704 0.11705,-0.0391 0.078,-0.039 0.11703,-0.0391 0.078,-0.0391 0.11703,-0.0391 0.11705,-0.0391 0.11703,-0.0391 0.11704,0 0.11705,-0.039 0.11703,0 0.11704,0 0.11704,0 c 0.19507,0 1.13138,0 1.95066,0.50716 -1.09237,0.19507 -1.87264,1.17039 -1.87264,2.0677 0,0.62421 0.42915,1.36546 1.4825,1.36546 0.85829,0 2.10672,-0.70224 2.10672,-2.26277 0,-1.98967 -2.30178,-2.53584 -3.62822,-2.53584 -2.22375,0 -3.58921,2.06769 -4.05737,2.92597 -0.97533,-2.53585 -3.08203,-2.92597 -4.21341,-2.92597 -4.01834,0 -6.24209,4.99367 -6.24209,5.969 0,0.39013 0.39013,0.39013 0.46815,0.39013 0.3121,0 0.42915,-0.078 0.50717,-0.42914 1.32645,-4.09638 3.90131,-5.0717 5.18875,-5.0717 0.74125,0 2.1067,0.35111 2.1067,2.57486 0,1.2094 -0.66322,3.82328 -2.1067,9.2461 -0.5852,2.3798 -1.95066,4.01835 -3.66724,4.01835 -0.23408,0 -1.13138,0 -1.95065,-0.50717 0.97532,-0.19507 1.83362,-1.01434 1.83362,-2.10671 0,-1.01434 -0.8583,-1.32644 -1.44349,-1.32644 -1.17039,0 -2.14572,1.01433 -2.14572,2.22374 0,1.79461 1.95066,2.57486 3.66723,2.57486 2.57486,0 3.97933,-2.73091 4.05736,-2.96499 0.46816,1.44349 1.87263,2.96499 4.21342,2.96499 3.97933,0 6.20307,-4.99367 6.20307,-5.969 0,-0.39012 -0.35111,-0.39012 -0.46815,-0.39012 -0.35112,0 -0.42915,0.15605 -0.50717,0.42913 -1.28743,4.13539 -3.90131,5.07171 -5.14973,5.07171 -1.52151,0 -2.14572,-1.24842 -2.14572,-2.53586 0,-0.85828 0.23408,-1.71657 0.66322,-3.43315 z"
     id="path7202"
     style="font-style:normal;font-variant:normal;font-weight:normal;font-stretch:normal;letter-spacing:normal;word-spacing:normal;text-anchor:start;fill:#000000;stroke:#000000;stroke-width:0;stroke-linecap:butt;stroke-linejoin:miter;stroke-miterlimit:10.43299961;stroke-opacity:1;stroke-dasharray:none;stroke-dashoffset:0" />
  <path
     d="m 97.8341,179.7308 0,-0.5852 0,-0.58519 0,-0.5852 -0.03905,-0.58519 -0.03905,-0.5852 -0.03896,-0.54618 -0.07801,-0.5852 -0.07801,-0.5852 -0.07801,-0.54618 -0.117036,-0.5852 -0.117045,-0.54619 -0.156051,-0.58519 -0.156051,-0.54618 -0.195066,-0.54618 -0.195066,-0.54619 -0.117037,-0.27309 -0.156051,-0.27309 c -1.755595,-3.70625 -4.954665,-4.33045 -6.593216,-4.33045 -2.30177,0 -5.149723,1.01434 -6.749267,4.60354 -1.248418,2.6919 -1.443484,5.69591 -1.443484,8.81696 0,2.88697 0.156051,6.35913 1.755595,9.32413 1.677557,3.12105 4.525519,3.9013 6.398141,3.9013 v -0.85828 c -1.521505,0 -3.784269,-0.93632 -4.486503,-4.68157 -0.429147,-2.30177 -0.429147,-5.89098 -0.429147,-8.15374 0,-2.49683 0,-5.03269 0.312111,-7.13939 0.741249,-4.60355 3.628217,-4.95467 4.603539,-4.95467 1.287433,0 3.862299,0.70224 4.603549,4.52552 0.390132,2.18474 0.390132,5.11072 0.390132,7.56854 0,2.88697 0,5.53987 -0.429147,7.99769 -0.585199,3.70624 -2.808939,4.83762 -4.564534,4.83762 h 0 v 0.85828 c 2.106713,0 5.071702,-0.81927 6.788282,-4.4865 1.209404,-2.65289 1.40447,-5.69591 1.40447,-8.73893 z"
     id="path7204"
     style="font-style:normal;font-variant:normal;font-weight:normal;font-stretch:normal;letter-spacing:normal;word-spacing:normal;text-anchor:start;fill:#000000;stroke:#000000;stroke-width:0;stroke-linecap:butt;stroke-linejoin:miter;stroke-miterlimit:10.43299961;stroke-opacity:1;stroke-dasharray:none;stroke-dashoffset:0" />
  <path
     d="m 96.025293,13.770596 0,-0.03905 0,-0.03905 0.0391,0 0,-0.03905 0,-0.03905 0,-0.03905 0.0391,-0.03905 0,-0.03905 0,-0.03905 0,-0.03905 0.0391,-0.03905 0,-0.03905 0,0 0,-0.03905 0,-0.03905 0,0 0.0391,-0.03905 0,-0.03905 0,0 0,-0.03905 0,0 0,-0.03905 0,-0.03905 0,-0.03905 0,-0.03905 0,-0.03905 0,0 0,-0.03905 0,-0.03905 0,0 c 0,-0.702235 -0.54618,-1.053353 -1.13138,-1.053353 -0.39013,0 -1.01435,0.234073 -1.36546,0.819271 -0.039,0.195067 -0.39014,1.40447 -0.50717,2.067698 -0.31211,1.014337 -0.54619,2.067689 -0.78027,3.121041 l -1.75558,6.983348 c -0.15606,0.546183 -1.83362,3.2771 -4.40848,3.2771 -1.95066,0 -2.3798,-1.71658 -2.3798,-3.121049 0,-1.794602 0.66322,-4.213416 1.98967,-7.607553 0.58519,-1.599535 0.74125,-2.028682 0.74125,-2.808938 0,-1.71658 -1.20941,-3.160065 -3.16006,-3.160065 -3.70624,0 -5.14974,5.617886 -5.14974,5.969003 0,0.390133 0.39014,0.390133 0.46817,0.390133 0.39013,0 0.42914,-0.07801 0.6242,-0.702235 1.05336,-3.628218 2.61388,-4.798615 3.94033,-4.798615 0.3121,0 0.97532,0 0.97532,1.248418 0,0.936316 -0.39013,1.950662 -0.66322,2.691903 -1.56052,4.096379 -2.26276,6.320128 -2.26276,8.153736 0,3.433151 2.45783,4.603548 4.72058,4.603548 1.52152,0 2.84796,-0.66322 3.94033,-1.755587 -0.50718,2.028674 -0.97533,3.940321 -2.53585,5.969003 -1.01435,1.326439 -2.45783,2.457821 -4.25243,2.457821 -0.54618,0 -2.30177,-0.117036 -2.965,-1.63855 0.62421,0 1.13138,0 1.67757,-0.468154 0.39013,-0.351117 0.78026,-0.858285 0.78026,-1.599535 0,-1.170397 -1.05335,-1.326448 -1.44348,-1.326448 -0.8973,0 -2.18474,0.585199 -2.18474,2.496836 0,1.950653 1.71657,3.394137 4.13539,3.394137 3.97933,0 7.99768,-3.550188 9.09005,-7.919655 z"
     id="path7206"
     style="font-style:normal;font-variant:normal;font-weight:normal;font-stretch:normal;letter-spacing:normal;word-spacing:normal;text-anchor:start;fill:#000000;stroke:#000000;stroke-width:0;stroke-linecap:butt;stroke-linejoin:miter;stroke-miterlimit:10.43299961;stroke-opacity:1;stroke-dasharray:none;stroke-dashoffset:0" />
  <g
     transform="translate(20.361229,-0.39459746)"
     id="g3789">
    <path
       d="m 143.39671,89.060646 a 2.2886653,2.0913665 0 1 1 -4.57733,0 2.2886653,2.0913665 0 1 1 4.57733,0 z"
       transform="matrix(0.84967111,0,0,0.92982878,34.05001,8.2884255)"
       id="path3785"
       style="color:#000000;fill:none;stroke:#ff0000;stroke-width:8;stroke-linecap:round;stroke-linejoin:round;stroke-miterlimit:4;stroke-opacity:1;stroke-dasharray:none;stroke-dashoffset:0;marker:none;visibility:visible;display:inline;overflow:visible;enable-background:accumulate" />
    <path
       d="m 143.39671,89.060646 a 2.2886653,2.0913665 0 1 1 -4.57733,0 2.2886653,2.0913665 0 1 1 4.57733,0 z"
       transform="matrix(0.54069979,0,0,0.59170922,77.64835,38.401572)"
       id="path3787"
       style="color:#000000;fill:#ffffff;fill-opacity:1;fill-rule:nonzero;stroke:#ffffff;stroke-width:8;stroke-linecap:round;stroke-linejoin:round;stroke-miterlimit:4;stroke-opacity:1;stroke-dasharray:none;stroke-dashoffset:0;marker:none;visibility:visible;display:inline;overflow:visible;enable-background:accumulate" />
  </g>
  <g
     transform="translate(21.308263,-65.739937)"
     id="g3793">
    <path
       d="m 143.39671,89.060646 a 2.2886653,2.0913665 0 1 1 -4.57733,0 2.2886653,2.0913665 0 1 1 4.57733,0 z"
       transform="matrix(0.84967111,0,0,0.92982878,34.05001,8.2884255)"
       id="path3795"
       style="color:#000000;fill:none;stroke:#ff0000;stroke-width:8;stroke-linecap:round;stroke-linejoin:round;stroke-miterlimit:4;stroke-opacity:1;stroke-dasharray:none;stroke-dashoffset:0;marker:none;visibility:visible;display:inline;overflow:visible;enable-background:accumulate" />
    <path
       d="m 143.39671,89.060646 a 2.2886653,2.0913665 0 1 1 -4.57733,0 2.2886653,2.0913665 0 1 1 4.57733,0 z"
       transform="matrix(0.54069979,0,0,0.59170922,77.64835,38.401572)"
       id="path3797"
       style="color:#000000;fill:#ffffff;fill-opacity:1;fill-rule:nonzero;stroke:#ffffff;stroke-width:8;stroke-linecap:round;stroke-linejoin:round;stroke-miterlimit:4;stroke-opacity:1;stroke-dasharray:none;stroke-dashoffset:0;marker:none;visibility:visible;display:inline;overflow:visible;enable-background:accumulate" />
  </g>
</svg>
