<?xml version="1.0" encoding="utf-8" standalone="no"?>
<!DOCTYPE svg PUBLIC "-//W3C//DTD SVG 1.1//EN"
  "http://www.w3.org/Graphics/SVG/1.1/DTD/svg11.dtd">
<!-- Created with matplotlib (http://matplotlib.org/) -->
<svg height="432pt" version="1.1" viewBox="0 0 576 432" width="576pt" xmlns="http://www.w3.org/2000/svg" xmlns:xlink="http://www.w3.org/1999/xlink">
 <defs>
  <style type="text/css">
*{stroke-linecap:butt;stroke-linejoin:round;}
  </style>
 </defs>
 <g id="figure_1">
  <g id="patch_1">
   <path d="
M0 432
L576 432
L576 0
L0 0
z
" style="fill:#ffffff;"/>
  </g>
  <g id="axes_1">
   <g id="patch_2">
    <path clip-path="url(#p7ff5b81e1d)" d="
M256.794 295.788
L257.945 293.503
L259.411 293.856
L429.043 173.355
L429.197 173.392
L259.565 293.893
L261.031 294.246
z
" style="fill:#0000ff;stroke:#0000ff;stroke-linejoin:miter;stroke-width:2;"/>
   </g>
   <g id="patch_3">
    <path clip-path="url(#p7ff5b81e1d)" d="
M254.131 374.036
L259.488 373.298
L259.488 373.999
L429.12 373.999
L429.12 374.073
L259.488 374.073
L259.488 374.774
z
" style="fill:#008000;stroke:#008000;stroke-linejoin:miter;stroke-width:2;"/>
   </g>
   <g id="line2d_1">
    <path clip-path="url(#p7ff5b81e1d)" d="
M72 346.879
L76.5091 346.185
L81.0182 345.473
L85.5273 344.742
L90.0364 343.993
L94.5455 343.225
L99.0545 342.437
L103.564 341.629
L108.073 340.8
L112.582 339.95
L117.091 339.078
L121.6 338.184
L126.109 337.267
L130.618 336.327
L135.127 335.362
L139.636 334.373
L144.145 333.359
L148.655 332.319
L153.164 331.252
L157.673 330.158
L162.182 329.036
L166.691 327.885
L171.2 326.704
L175.709 325.494
L180.218 324.253
L184.727 322.979
L189.236 321.674
L193.745 320.335
L198.255 318.961
L202.764 317.553
L207.273 316.108
L211.782 314.627
L216.291 313.107
L220.8 311.549
L225.309 309.951
L229.818 308.312
L234.327 306.631
L238.836 304.908
L243.345 303.14
L247.855 301.327
L252.364 299.467
L256.873 297.56
L261.382 295.604
L265.891 293.599
L270.4 291.541
L274.909 289.432
L279.418 287.268
L283.927 285.049
L288.436 282.773
L292.945 280.439
L297.455 278.046
L301.964 275.591
L306.473 273.073
L310.982 270.491
L315.491 267.843
L320 265.127
L324.509 262.342
L329.018 259.485
L333.527 256.556
L338.036 253.551
L342.545 250.47
L347.055 247.31
L351.564 244.069
L356.073 240.745
L360.582 237.337
L365.091 233.841
L369.6 230.255
L374.109 226.578
L378.618 222.807
L383.127 218.94
L387.636 214.973
L392.145 210.905
L396.655 206.733
L401.164 202.455
L405.673 198.067
L410.182 193.566
L414.691 188.951
L419.2 184.218
L423.709 179.363
L428.218 174.385
L432.727 169.279
L437.236 164.042
L441.745 158.672
L446.255 153.164
L450.764 147.516
L455.273 141.723
L459.782 135.781
L464.291 129.688
L468.8 123.439
L473.309 117.031
L477.818 110.458
L482.327 103.717
L486.836 96.8039
L491.345 89.7139
L495.855 82.4427
L500.364 74.9854
L504.873 67.3375
L509.382 59.494
L513.891 51.4498
L518.4 43.2" style="fill:none;stroke:#0000ff;stroke-linecap:square;"/>
   </g>
   <g id="line2d_2">
    <path clip-path="url(#p7ff5b81e1d)" d="
M72 374.036
L518.4 374.036" style="fill:none;stroke:#000000;stroke-linecap:square;"/>
   </g>
   <g id="line2d_3">
    <path clip-path="url(#p7ff5b81e1d)" d="
M250.56 388.8
L250.56 43.2" style="fill:none;stroke:#000000;stroke-linecap:square;"/>
   </g>
   <g id="line2d_4">
    <path clip-path="url(#p7ff5b81e1d)" d="
M429.12 374.036
L429.12 173.374" style="fill:none;stroke:#000000;stroke-dasharray:6.000000,6.000000;stroke-dashoffset:0.0;"/>
   </g>
   <g id="line2d_5">
    <defs>
     <path d="
M0 3
C0.795609 3 1.55874 2.6839 2.12132 2.12132
C2.6839 1.55874 3 0.795609 3 0
C3 -0.795609 2.6839 -1.55874 2.12132 -2.12132
C1.55874 -2.6839 0.795609 -3 0 -3
C-0.795609 -3 -1.55874 -2.6839 -2.12132 -2.12132
C-2.6839 -1.55874 -3 -0.795609 -3 0
C-3 0.795609 -2.6839 1.55874 -2.12132 2.12132
C-1.55874 2.6839 -0.795609 3 0 3
z
" id="mbbe02196b1" style="stroke:#000000;stroke-width:0.5;"/>
    </defs>
    <g clip-path="url(#p7ff5b81e1d)">
     <use style="fill:#008000;stroke:#000000;stroke-width:0.5;" x="250.56" xlink:href="#mbbe02196b1" y="374.036097707"/>
    </g>
   </g>
   <g id="line2d_6">
    <defs>
     <path d="
M0 3
C0.795609 3 1.55874 2.6839 2.12132 2.12132
C2.6839 1.55874 3 0.795609 3 0
C3 -0.795609 2.6839 -1.55874 2.12132 -2.12132
C1.55874 -2.6839 0.795609 -3 0 -3
C-0.795609 -3 -1.55874 -2.6839 -2.12132 -2.12132
C-2.6839 -1.55874 -3 -0.795609 -3 0
C-3 0.795609 -2.6839 1.55874 -2.12132 2.12132
C-1.55874 2.6839 -0.795609 3 0 3
z
" id="mf1e9a9e4ae" style="stroke:#000000;stroke-width:0.5;"/>
    </defs>
    <g clip-path="url(#p7ff5b81e1d)">
     <use style="fill:#0000ff;stroke:#000000;stroke-width:0.5;" x="250.56" xlink:href="#mf1e9a9e4ae" y="300.216586243"/>
    </g>
   </g>
   <g id="line2d_7">
    <g clip-path="url(#p7ff5b81e1d)">
     <use style="fill:#0000ff;stroke:#000000;stroke-width:0.5;" x="429.12" xlink:href="#mf1e9a9e4ae" y="173.373861108"/>
    </g>
   </g>
   <g id="line2d_8">
    <g clip-path="url(#p7ff5b81e1d)">
     <use style="fill:#008000;stroke:#000000;stroke-width:0.5;" x="429.12" xlink:href="#mbbe02196b1" y="374.036097707"/>
    </g>
   </g>
   <g id="text_1">
    <!-- $0$ -->
    <defs>
     <path d="
M25 -2.20312
Q12.75 -2.20312 8.32812 7.875
Q3.90625 17.9688 3.90625 31.8906
Q3.90625 40.5781 5.48438 48.2344
Q7.07812 55.9062 11.7812 61.25
Q16.5 66.6094 25 66.6094
Q31.5938 66.6094 35.7812 63.375
Q39.9844 60.1562 42.1875 55.0469
Q44.3906 49.9531 45.1875 44.1094
Q46 38.2812 46 31.8906
Q46 23.2969 44.4062 15.7969
Q42.8281 8.29688 38.1875 3.04688
Q33.5469 -2.20312 25 -2.20312
M25 0.390625
Q30.5625 0.390625 33.2969 6.09375
Q36.0312 11.8125 36.6719 18.75
Q37.3125 25.6875 37.3125 33.5
Q37.3125 41.0156 36.6719 47.3594
Q36.0312 53.7188 33.3125 58.8594
Q30.6094 64.0156 25 64.0156
Q19.3438 64.0156 16.6094 58.8281
Q13.875 53.6562 13.2344 47.3281
Q12.5938 41.0156 12.5938 33.5
Q12.5938 27.9375 12.8594 23
Q13.1406 18.0625 14.3125 12.8125
Q15.4844 7.5625 18.0938 3.96875
Q20.7031 0.390625 25 0.390625" id="Cmr10-30"/>
    </defs>
    <g style="fill:#008000;" transform="translate(236.2752 392.490975573)scale(0.2 -0.2)">
     <use transform="translate(0.0 0.390625)" xlink:href="#Cmr10-30"/>
    </g>
   </g>
   <g id="text_2">
    <!-- $\exp(0)$ -->
    <defs>
     <path d="
M31 -24.8125
Q25.4375 -20.4062 21.4062 -14.7188
Q17.3906 -9.03125 14.8125 -2.57812
Q12.25 3.85938 10.9844 10.8906
Q9.71875 17.9219 9.71875 25
Q9.71875 32.1719 10.9844 39.2031
Q12.25 46.2344 14.8594 52.7344
Q17.4844 59.2344 21.5312 64.8906
Q25.5938 70.5625 31 74.8125
Q31 75 31.5 75
L32.4219 75
Q32.7188 75 32.9531 74.7344
Q33.2031 74.4688 33.2031 74.125
Q33.2031 73.6875 33.0156 73.4844
Q28.125 68.7031 24.875 63.2344
Q21.625 57.7656 19.6406 51.5781
Q17.6719 45.4062 16.7969 38.7812
Q15.9219 32.1719 15.9219 25
Q15.9219 -6.78125 32.9062 -23.2969
Q33.2031 -23.5781 33.2031 -24.125
Q33.2031 -24.3594 32.9375 -24.6719
Q32.6719 -25 32.4219 -25
L31.5 -25
Q31 -25 31 -24.8125" id="Cmr10-28"/>
     <path d="
M24.9062 -1.125
Q18.7969 -1.125 13.6875 2.07812
Q8.59375 5.28125 5.6875 10.625
Q2.78125 15.9688 2.78125 21.9219
Q2.78125 27.7812 5.4375 33.0469
Q8.10938 38.3281 12.8594 41.5781
Q17.625 44.8281 23.4844 44.8281
Q28.0781 44.8281 31.4688 43.2812
Q34.8594 41.75 37.0625 39.0156
Q39.2656 36.2812 40.375 32.5625
Q41.5 28.8594 41.5 24.4219
Q41.5 23.0938 40.4844 23.0938
L11.5312 23.0938
L11.5312 22.0156
Q11.5312 13.7188 14.875 7.76562
Q18.2188 1.8125 25.7812 1.8125
Q28.8594 1.8125 31.4688 3.17188
Q34.0781 4.54688 36 6.98438
Q37.9375 9.42188 38.625 12.2031
Q38.7188 12.5469 38.9844 12.8125
Q39.2656 13.0938 39.5938 13.0938
L40.4844 13.0938
Q41.5 13.0938 41.5 11.8125
Q40.0938 6.15625 35.4062 2.51562
Q30.7188 -1.125 24.9062 -1.125
M11.625 25.5938
L34.4219 25.5938
Q34.4219 29.3438 33.375 33.2031
Q32.3281 37.0625 29.875 39.625
Q27.4375 42.1875 23.4844 42.1875
Q17.8281 42.1875 14.7188 36.8906
Q11.625 31.5938 11.625 25.5938" id="Cmr10-65"/>
     <path d="
M2.59375 -19.3906
L2.59375 -15.9219
Q6 -15.9219 8.20312 -15.3281
Q10.4062 -14.75 10.4062 -12.7031
L10.4062 35.5
Q10.4062 38.2344 8.45312 38.9062
Q6.5 39.5938 2.59375 39.5938
L2.59375 43.1094
L17.3906 44.1875
L17.3906 37.9844
Q20.125 41.0156 23.75 42.5938
Q27.3906 44.1875 31.5 44.1875
Q37.4062 44.1875 42.1406 40.9844
Q46.875 37.7969 49.5312 32.5938
Q52.2031 27.3906 52.2031 21.5781
Q52.2031 15.5312 49.25 10.2969
Q46.2969 5.07812 41.1875 1.96875
Q36.0781 -1.125 29.9844 -1.125
Q22.7031 -1.125 17.6719 4.78125
L17.6719 -12.7031
Q17.6719 -14.75 19.8906 -15.3281
Q22.125 -15.9219 25.4844 -15.9219
L25.4844 -19.3906
z

M17.6719 9.71875
Q19.4375 6.15625 22.5625 3.82812
Q25.6875 1.51562 29.3906 1.51562
Q32.8594 1.51562 35.5156 3.35938
Q38.1875 5.21875 39.9844 8.34375
Q41.7969 11.4688 42.6406 14.9062
Q43.5 18.3594 43.5 21.5781
Q43.5 25.5938 42.0625 30.25
Q40.625 34.9062 37.6719 38.1094
Q34.7188 41.3125 30.5156 41.3125
Q26.4688 41.3125 23.0625 39.2344
Q19.6719 37.1562 17.6719 33.5938
z
" id="Cmr10-70"/>
     <path d="
M6.5 -25
Q5.60938 -25 5.60938 -24.125
Q5.60938 -23.6875 5.8125 -23.4844
Q22.9062 -6.78125 22.9062 25
Q22.9062 56.7812 6 73.2969
Q5.60938 73.5312 5.60938 74.125
Q5.60938 74.4688 5.875 74.7344
Q6.15625 75 6.5 75
L7.42188 75
Q7.71875 75 7.90625 74.8125
Q15.0938 69.1406 19.875 61.0312
Q24.6562 52.9375 26.875 43.75
Q29.1094 34.5781 29.1094 25
Q29.1094 17.9219 27.9062 11.0625
Q26.7031 4.20312 24.0938 -2.45312
Q21.4844 -9.125 17.4844 -14.7656
Q13.4844 -20.4062 7.90625 -24.8125
Q7.71875 -25 7.42188 -25
z
" id="Cmr10-29"/>
     <path d="
M1.21875 0
L1.21875 3.51562
Q5.03125 3.51562 8.39062 5
Q11.7656 6.5 14.1094 9.42188
L23.1875 21
L11.375 36.375
Q9.625 38.5781 7.54688 39.0781
Q5.46875 39.5938 1.70312 39.5938
L1.70312 43.1094
L22.5156 43.1094
L22.5156 39.5938
Q21.1875 39.5938 20.0312 39
Q18.8906 38.4219 18.8906 37.3125
Q18.8906 36.9219 19.1875 36.375
L27.2031 25.9844
L33.2031 33.6875
Q34.4219 35.1562 34.4219 36.625
Q34.4219 37.8438 33.6094 38.7188
Q32.8125 39.5938 31.5 39.5938
L31.5 43.1094
L49.9062 43.1094
L49.9062 39.5938
Q46.0469 39.5938 42.6562 38.1094
Q39.2656 36.625 36.9219 33.6875
L29 23.5781
L41.7969 6.6875
Q43.7031 4.5 45.75 4
Q47.7969 3.51562 51.6094 3.51562
L51.6094 0
L30.8125 0
L30.8125 3.51562
Q32.0312 3.51562 33.1562 4.09375
Q34.2812 4.6875 34.2812 5.8125
Q34.2812 6.25 33.9844 6.6875
L25 18.6094
L17.8281 9.42188
Q16.7031 8.15625 16.7031 6.5
Q16.7031 5.28125 17.5312 4.39062
Q18.3594 3.51562 19.4844 3.51562
L19.4844 0
z
" id="Cmr10-78"/>
    </defs>
    <g style="fill:#0000ff;" transform="translate(188.064 289.143659523)scale(0.2 -0.2)">
     <use xlink:href="#Cmr10-65"/>
     <use transform="translate(44.384765625 0.0)" xlink:href="#Cmr10-78"/>
     <use transform="translate(97.0703125 0.0)" xlink:href="#Cmr10-70"/>
     <use transform="translate(152.587890625 0.0)" xlink:href="#Cmr10-28"/>
     <use transform="translate(191.40625 0.0)" xlink:href="#Cmr10-30"/>
     <use transform="translate(241.40625 0.0)" xlink:href="#Cmr10-29"/>
    </g>
   </g>
   <g id="text_3">
    <!-- $\exp\left(\frac{1}{n}\right)$ -->
    <defs>
     <path d="
M4.98438 -115.922
Q4.10938 -115.922 4.10938 -114.984
Q4.10938 -114.594 4.29688 -114.406
Q11.4688 -106.938 15.6406 -97.4375
Q19.8281 -87.9375 21.5 -77.5156
Q23.1875 -67.0938 23.1875 -55.9062
Q23.1875 -17.0469 4.29688 2.48438
Q4.10938 2.6875 4.10938 3.07812
Q4.10938 4 4.98438 4
L6.20312 4
Q6.5 4 6.6875 3.8125
Q19 -6.45312 24.75 -22.2344
Q30.5156 -38.0312 30.5156 -56
Q30.5156 -73.8281 24.7812 -89.5938
Q19.0469 -105.375 6.6875 -115.719
Q6.5 -115.922 6.20312 -115.922
z
" id="Cmex10-a2"/>
     <path d="
M39.1094 -115.719
Q26.7656 -105.375 20.9688 -89.5938
Q15.1875 -73.8281 15.1875 -56
Q15.1875 -38.0312 20.9688 -22.2344
Q26.7656 -6.45312 39.1094 3.8125
Q39.1094 4 39.5938 4
L40.8281 4
Q41.1094 4 41.3594 3.6875
Q41.6094 3.375 41.6094 3.07812
Q41.6094 2.6875 41.4062 2.48438
Q35.9844 -3.125 32.2969 -10
Q28.6094 -16.8906 26.4844 -24.2812
Q24.3594 -31.6875 23.4375 -39.7344
Q22.5156 -47.7969 22.5156 -56.1094
Q22.5156 -94.875 41.4062 -114.406
Q41.6094 -114.594 41.6094 -114.984
Q41.6094 -115.281 41.3281 -115.594
Q41.0625 -115.922 40.8281 -115.922
L39.5938 -115.922
Q39.1094 -115.922 39.1094 -115.719" id="Cmex10-a1"/>
     <path d="
M7.71875 1.70312
Q7.71875 2.29688 7.8125 2.59375
L15.2812 32.4219
Q16.0156 35.2031 16.0156 37.3125
Q16.0156 41.6094 13.0938 41.6094
Q9.96875 41.6094 8.45312 37.8594
Q6.9375 34.125 5.51562 28.4219
Q5.51562 28.125 5.21875 27.9531
Q4.9375 27.7812 4.6875 27.7812
L3.51562 27.7812
Q3.17188 27.7812 2.92188 28.1406
Q2.6875 28.5156 2.6875 28.8125
Q3.76562 33.1562 4.76562 36.1719
Q5.76562 39.2031 7.89062 41.6875
Q10.0156 44.1875 13.1875 44.1875
Q16.9375 44.1875 19.8125 41.8125
Q22.7031 39.4531 22.7031 35.7969
Q25.6875 39.7031 29.6875 41.9375
Q33.6875 44.1875 38.1875 44.1875
Q41.75 44.1875 44.3281 42.9688
Q46.9219 41.75 48.3594 39.2812
Q49.8125 36.8125 49.8125 33.4062
Q49.8125 29.2969 47.9688 23.4844
Q46.1406 17.6719 43.4062 10.5
Q42 7.23438 42 4.5
Q42 1.51562 44.2812 1.51562
Q48.1875 1.51562 50.7969 5.70312
Q53.4219 9.90625 54.5 14.7031
Q54.6875 15.2812 55.3281 15.2812
L56.5 15.2812
Q56.8906 15.2812 57.1562 15.0312
Q57.4219 14.7969 57.4219 14.4062
Q57.4219 14.3125 57.3281 14.1094
Q55.9531 8.45312 52.5625 3.65625
Q49.1719 -1.125 44.0938 -1.125
Q40.5781 -1.125 38.0781 1.29688
Q35.5938 3.71875 35.5938 7.17188
Q35.5938 9.03125 36.375 11.0781
Q37.6406 14.3594 39.2812 18.8906
Q40.9219 23.4375 41.9688 27.5781
Q43.0156 31.7344 43.0156 34.9062
Q43.0156 37.7031 41.8594 39.6562
Q40.7188 41.6094 37.9844 41.6094
Q34.3281 41.6094 31.25 39.9844
Q28.1719 38.375 25.875 35.7188
Q23.5781 33.0625 21.6875 29.3906
L14.8906 2.20312
Q14.5469 0.828125 13.3438 -0.140625
Q12.1562 -1.125 10.6875 -1.125
Q9.46875 -1.125 8.59375 -0.34375
Q7.71875 0.4375 7.71875 1.70312" id="Cmmi10-6e"/>
     <path d="
M9.28125 0
L9.28125 3.51562
Q21.7812 3.51562 21.7812 6.6875
L21.7812 59.1875
Q16.6094 56.6875 8.6875 56.6875
L8.6875 60.2031
Q20.9531 60.2031 27.2031 66.6094
L28.6094 66.6094
Q28.9531 66.6094 29.2656 66.3281
Q29.5938 66.0625 29.5938 65.7188
L29.5938 6.6875
Q29.5938 3.51562 42.0938 3.51562
L42.0938 0
z
" id="Cmr10-31"/>
    </defs>
    <g style="fill:#0000ff;" transform="translate(366.624 162.300934388)scale(0.2 -0.2)">
     <use transform="translate(0.0 0.8734375)" xlink:href="#Cmr10-65"/>
     <use transform="translate(44.384765625 0.8734375)" xlink:href="#Cmr10-78"/>
     <use transform="translate(97.0703125 0.8734375)" xlink:href="#Cmr10-70"/>
     <use transform="translate(152.587890625 81.3265625)scale(0.913889250814)" xlink:href="#Cmex10-a1"/>
     <use transform="translate(198.438354492 38.3734375)scale(0.7)" xlink:href="#Cmr10-31"/>
     <use transform="translate(194.438354492 -23.8078125)scale(0.7)" xlink:href="#Cmmi10-6e"/>
     <use transform="translate(248.94519043 81.3265625)scale(0.913889250814)" xlink:href="#Cmex10-a2"/>
     <path d="
M194.438 13.3734
L194.438 19.6234
L236.445 19.6234
L236.445 13.3734
L194.438 13.3734
z
"/>
    </g>
   </g>
   <g id="text_4">
    <!-- $\frac{1}{n}$ -->
    <g style="fill:#008000;" transform="translate(439.8336 396.181951146)scale(0.2 -0.2)">
     <use transform="translate(4.0 38.3734375)scale(0.7)" xlink:href="#Cmr10-31"/>
     <use transform="translate(0.0 -23.8078125)scale(0.7)" xlink:href="#Cmmi10-6e"/>
     <path d="
M0 13.3734
L0 19.6234
L42.0068 19.6234
L42.0068 13.3734
L0 13.3734
z
"/>
    </g>
   </g>
  </g>
 </g>
 <defs>
  <clipPath id="p7ff5b81e1d">
   <rect height="345.6" width="446.4" x="72.0" y="43.2"/>
  </clipPath>
 </defs>
</svg>
