<?xml version="1.0" encoding="UTF-8" standalone="no"?>
<!-- Created with Inkscape (http://www.inkscape.org/) -->
<svg
   xmlns:svg="http://www.w3.org/2000/svg"
   xmlns="http://www.w3.org/2000/svg"
   version="1.0"
   width="720"
   height="500"
   viewBox="0 0 576 432"
   id="svg1">
  <defs
     id="defs111" />
  <g
     id="figure1">
    <g
       transform="matrix(1.088035,0,0,1.088035,-22.77372,-34.64384)"
       id="g13760">
      <polygon
         points="72,388.8 72,43.2 518.4,43.2 518.4,388.8 72,388.8 "
         style="fill:#ffffff;fill-opacity:1;stroke:none;stroke-width:3;stroke-linecap:square;stroke-linejoin:miter;stroke-miterlimit:4;stroke-dasharray:none"
         id="polygon12885" />
      <path
         d="M 72,384.88143 L 518.4,384.88143"
         style="fill:none;stroke:#d7d7d7;stroke-width:3;stroke-linecap:square;stroke-linejoin:miter;stroke-miterlimit:4;stroke-dasharray:none"
         id="path68" />
      <path
         d="M 429.12,388.8 L 429.12,43.2"
         style="fill:none;stroke:#d7d7d7;stroke-width:3;stroke-linecap:square;stroke-linejoin:miter;stroke-miterlimit:4;stroke-dasharray:none"
         id="path46" />
      <g
         transform="translate(0,4)"
         id="xtick1">
        <text
           x="68.796875"
           y="401.79999"
           style="font-size:20px;fill:#000000;font-family:Times New Roman"
           id="text11">0</text>
      </g>
      <path
         d="M 161.28,388.8 L 161.28,43.2"
         style="fill:none;stroke:#d7d7d7;stroke-width:3;stroke-linecap:square;stroke-linejoin:miter;stroke-miterlimit:4;stroke-dasharray:none"
         id="path19" />
      <path
         d="M 161.28,48.2 L 161.28,43.2"
         style="fill:none;stroke:#000000;stroke-width:3;stroke-linecap:square;stroke-linejoin:miter;stroke-miterlimit:4;stroke-dasharray:none"
         id="path23" />
      <text
         x="156.78"
         y="405.79999"
         style="font-size:20px;fill:#000000;font-family:Times New Roman"
         id="text25">τ</text>
      <path
         d="M 250.56,388.8 L 250.56,43.2"
         style="fill:none;stroke:#d7d7d7;stroke-width:3;stroke-linecap:square;stroke-linejoin:miter;stroke-miterlimit:4;stroke-dasharray:none"
         id="path28" />
      <path
         d="M 161.28,388.8 L 161.28,383.8"
         style="fill:none;stroke:#000000;stroke-width:3;stroke-linecap:square;stroke-linejoin:miter;stroke-miterlimit:4;stroke-dasharray:none"
         id="path21" />
      <path
         d="M 250.56,48.2 L 250.56,43.2"
         style="fill:none;stroke:#000000;stroke-width:3;stroke-linecap:square;stroke-linejoin:miter;stroke-miterlimit:4;stroke-dasharray:none"
         id="path32" />
      <text
         x="242.06"
         y="405.79999"
         style="font-size:20px;fill:#000000;font-family:Times New Roman"
         id="text34">2τ</text>
      <path
         d="M 339.84,388.8 L 339.84,43.2"
         style="fill:none;stroke:#d7d7d7;stroke-width:3;stroke-linecap:square;stroke-linejoin:miter;stroke-miterlimit:4;stroke-dasharray:none"
         id="path37" />
      <path
         d="M 250.56,388.8 L 250.56,383.8"
         style="fill:none;stroke:#000000;stroke-width:3;stroke-linecap:square;stroke-linejoin:miter;stroke-miterlimit:4;stroke-dasharray:none"
         id="path30" />
      <path
         d="M 339.84,48.2 L 339.84,43.2"
         style="fill:none;stroke:#000000;stroke-width:3;stroke-linecap:square;stroke-linejoin:miter;stroke-miterlimit:4;stroke-dasharray:none"
         id="path41" />
      <text
         x="331.34"
         y="405.79999"
         style="font-size:20px;fill:#000000;font-family:Times New Roman"
         id="text43">3τ</text>
      <path
         d="M 339.84,388.8 L 339.84,383.8"
         style="fill:none;stroke:#000000;stroke-width:3;stroke-linecap:square;stroke-linejoin:miter;stroke-miterlimit:4;stroke-dasharray:none"
         id="path39" />
      <path
         d="M 429.12,388.8 L 429.12,383.8"
         style="fill:none;stroke:#000000;stroke-width:3;stroke-linecap:square;stroke-linejoin:miter;stroke-miterlimit:4;stroke-dasharray:none"
         id="path48" />
      <path
         d="M 429.12,48.2 L 429.12,43.2"
         style="fill:none;stroke:#000000;stroke-width:3;stroke-linecap:square;stroke-linejoin:miter;stroke-miterlimit:4;stroke-dasharray:none"
         id="path50" />
      <text
         x="420.26843"
         y="405.79999"
         style="font-size:20px;fill:#000000;font-family:Times New Roman"
         id="text52">4τ</text>
      <g
         transform="translate(-4,4)"
         id="xtick6">
        <text
           x="509.89999"
           y="401.79999"
           style="font-size:20px;fill:#000000;font-family:Times New Roman"
           id="text55">5τ</text>
      </g>
      <text
         x="279.49689"
         y="421.79999"
         style="font-size:20px;fill:#000000;font-family:Times New Roman"
         id="text57">Time</text>
      <path
         d="M 72,384.88143 L 77,384.88143"
         style="fill:none;stroke:#000000;stroke-width:3;stroke-linecap:square;stroke-linejoin:miter;stroke-miterlimit:4;stroke-dasharray:none"
         id="path70" />
      <path
         d="M 513.4,384.88143 L 518.4,384.88143"
         style="fill:none;stroke:#000000;stroke-width:3;stroke-linecap:square;stroke-linejoin:miter;stroke-miterlimit:4;stroke-dasharray:none"
         id="path72" />
      <text
         x="26.71875"
         y="389.88144"
         style="font-size:20px;fill:#000000;font-family:Times New Roman"
         id="text74">1.8%</text>
      <g
         id="ytick1">
        <path
           d="M 72,388.70882 L 77,388.70882"
           style="opacity:1;fill:none;stroke:#000000;stroke-width:0.5;stroke-linecap:butt;stroke-linejoin:miter"
           id="path61" />
        <path
           d="M 513.4,388.70882 L 518.4,388.70882"
           style="opacity:1;fill:none;stroke:#000000;stroke-width:0.5;stroke-linecap:butt;stroke-linejoin:miter"
           id="path63" />
        <text
           x="522.59375"
           y="393.70883"
           style="font-size:20px;fill:#000000;font-family:Times New Roman"
           id="text65">0.7%</text>
      </g>
      <path
         d="M 72,373.74721 L 518.4,373.74721"
         style="fill:none;stroke:#d7d7d7;stroke-width:3;stroke-linecap:square;stroke-linejoin:miter;stroke-miterlimit:4;stroke-dasharray:none"
         id="path77" />
      <path
         d="M 72,373.74721 L 77,373.74721"
         style="fill:none;stroke:#000000;stroke-width:3;stroke-linecap:square;stroke-linejoin:miter;stroke-miterlimit:4;stroke-dasharray:none"
         id="path79" />
      <path
         d="M 513.4,373.74721 L 518.4,373.74721"
         style="fill:none;stroke:#000000;stroke-width:3;stroke-linecap:square;stroke-linejoin:miter;stroke-miterlimit:4;stroke-dasharray:none"
         id="path81" />
      <text
         x="521.59375"
         y="378.74722"
         style="font-size:20px;fill:#000000;font-family:Times New Roman"
         id="text83">5%</text>
      <path
         d="M 72,344.17193 L 518.4,344.17193"
         style="fill:none;stroke:#d7d7d7;stroke-width:3;stroke-linecap:square;stroke-linejoin:miter;stroke-miterlimit:4;stroke-dasharray:none"
         id="path86" />
      <path
         d="M 72,344.17193 L 77,344.17193"
         style="fill:none;stroke:#000000;stroke-width:3;stroke-linecap:square;stroke-linejoin:miter;stroke-miterlimit:4;stroke-dasharray:none"
         id="path88" />
      <path
         d="M 513.4,344.17193 L 518.4,344.17193"
         style="fill:none;stroke:#000000;stroke-width:3;stroke-linecap:square;stroke-linejoin:miter;stroke-miterlimit:4;stroke-dasharray:none"
         id="path90" />
      <text
         x="18.71875"
         y="349.17194"
         style="font-size:20px;fill:#000000;font-family:Times New Roman"
         id="text92">13.5%</text>
      <path
         d="M 72,263.10088 L 518.4,263.10088"
         style="fill:none;stroke:#d7d7d7;stroke-width:3;stroke-linecap:square;stroke-linejoin:miter;stroke-miterlimit:4;stroke-dasharray:none"
         id="path95" />
      <path
         d="M 72,263.10088 L 77,263.10088"
         style="fill:none;stroke:#000000;stroke-width:3;stroke-linecap:square;stroke-linejoin:miter;stroke-miterlimit:4;stroke-dasharray:none"
         id="path97" />
      <path
         d="M 513.4,263.10088 L 518.4,263.10088"
         style="fill:none;stroke:#000000;stroke-width:3;stroke-linecap:square;stroke-linejoin:miter;stroke-miterlimit:4;stroke-dasharray:none"
         id="path99" />
      <text
         x="17.59375"
         y="268.10089"
         style="font-size:20px;fill:#000000;font-family:Times New Roman"
         id="text101">36.8%</text>
      <g
         id="mathtext1">
        <text
           x="36.59375"
           y="224.96875"
           transform="matrix(0,-1,1,0,-199.875,249.0625)"
           style="font-size:17.75px;font-style:italic;fill:#000000;font-family:Times New Roman"
           id="text104">r</text>
        <text
           x="24.59375"
           y="222.46875"
           transform="matrix(0,-1,1,0,-199.875,249.0625)"
           style="font-size:22.5px;font-style:italic;fill:#000000;font-family:Times New Roman"
           id="text106">V</text>
      </g>
      <path
         d="M 72.255239,43.812574 L 72.4464,44.93538 L 72.8928,46.662105 L 73.3392,48.380218 L 73.7856,50.089761 L 74.232,51.790779 L 74.6784,53.483312 L 75.1248,55.167404 L 75.5712,56.843096 L 76.0176,58.510431 L 76.464,60.16945 L 76.9104,61.820195 L 77.3568,63.462706 L 77.8032,65.097026 L 78.2496,66.723194 L 78.696,68.341252 L 79.1424,69.951239 L 79.5888,71.553197 L 80.0352,73.147165 L 80.4816,74.733183 L 80.928,76.31129 L 81.3744,77.881527 L 81.8208,79.443933 L 82.2672,80.998545 L 82.7136,82.545404 L 83.16,84.084548 L 83.6064,85.616016 L 84.0528,87.139845 L 84.4992,88.656074 L 84.9456,90.164741 L 85.392,91.665884 L 85.8384,93.159539 L 86.2848,94.645745 L 86.7312,96.124539 L 87.1776,97.595956 L 87.624,99.060036 L 88.0704,100.51681 L 88.5168,101.96632 L 88.9632,103.40861 L 89.4096,104.84369 L 89.856,106.27163 L 90.3024,107.69243 L 90.7488,109.10616 L 91.1952,110.51283 L 91.6416,111.91249 L 92.088,113.30516 L 92.5344,114.69089 L 92.9808,116.06971 L 93.4272,117.44165 L 93.8736,118.80675 L 94.32,120.16504 L 94.7664,121.51655 L 95.2128,122.86133 L 95.6592,124.19939 L 96.1056,125.53079 L 96.552,126.85554 L 96.9984,128.17369 L 97.4448,129.48526 L 97.8912,130.79029 L 98.3376,132.08881 L 98.784,133.38086 L 99.2304,134.66646 L 99.6768,135.94565 L 100.1232,137.21846 L 100.5696,138.48492 L 101.016,139.74506 L 101.4624,140.99892 L 101.9088,142.24653 L 102.3552,143.48791 L 102.8016,144.7231 L 103.248,145.95214 L 103.6944,147.17504 L 104.1408,148.39184 L 104.5872,149.60257 L 105.0336,150.80727 L 105.48,152.00595 L 105.9264,153.19866 L 106.3728,154.38542 L 106.8192,155.56626 L 107.2656,156.74121 L 107.712,157.9103 L 108.1584,159.07356 L 108.6048,160.23102 L 109.0512,161.38271 L 109.4976,162.52865 L 109.944,163.66888 L 110.3904,164.80341 L 110.8368,165.9323 L 111.2832,167.05555 L 111.7296,168.17319 L 112.176,169.28527 L 112.6224,170.39179 L 113.0688,171.4928 L 113.5152,172.58832 L 113.9616,173.67837 L 114.408,174.76299 L 114.8544,175.8422 L 115.3008,176.91602 L 115.7472,177.98449 L 116.1936,179.04763 L 116.64,180.10547 L 117.0864,181.15803 L 117.5328,182.20534 L 117.9792,183.24743 L 118.4256,184.28432 L 118.872,185.31604 L 119.3184,186.34261 L 119.7648,187.36406 L 120.2112,188.38042 L 120.6576,189.39171 L 121.104,190.39796 L 121.5504,191.39918 L 121.9968,192.39542 L 122.4432,193.38668 L 122.8896,194.373 L 123.336,195.35441 L 123.7824,196.33091 L 124.2288,197.30255 L 124.6752,198.26934 L 125.1216,199.23131 L 125.568,200.18848 L 126.0144,201.14087 L 126.4608,202.08852 L 126.9072,203.03144 L 127.3536,203.96966 L 127.8,204.9032 L 128.2464,205.83208 L 128.6928,206.75633 L 129.1392,207.67597 L 129.5856,208.59102 L 130.032,209.50151 L 130.4784,210.40746 L 130.9248,211.30889 L 131.3712,212.20582 L 131.8176,213.09828 L 132.264,213.98629 L 132.7104,214.86987 L 133.1568,215.74904 L 133.6032,216.62383 L 134.0496,217.49426 L 134.496,218.36034 L 134.9424,219.2221 L 135.3888,220.07957 L 135.8352,220.93276 L 136.2816,221.78169 L 136.728,222.6264 L 137.1744,223.46688 L 137.6208,224.30318 L 138.0672,225.1353 L 138.5136,225.96328 L 138.96,226.78712 L 139.4064,227.60686 L 139.8528,228.4225 L 140.2992,229.23408 L 140.7456,230.04161 L 141.192,230.84512 L 141.6384,231.64461 L 142.0848,232.44012 L 142.5312,233.23166 L 142.9776,234.01925 L 143.424,234.80292 L 143.8704,235.58268 L 144.3168,236.35854 L 144.7632,237.13054 L 145.2096,237.89869 L 145.656,238.66301 L 146.1024,239.42351 L 146.5488,240.18022 L 146.9952,240.93316 L 147.4416,241.68234 L 147.888,242.42779 L 148.3344,243.16951 L 148.7808,243.90754 L 149.2272,244.64189 L 149.6736,245.37257 L 150.12,246.09961 L 150.5664,246.82303 L 151.0128,247.54283 L 151.4592,248.25905 L 151.9056,248.97169 L 152.352,249.68078 L 152.7984,250.38634 L 153.2448,251.08837 L 153.6912,251.7869 L 154.1376,252.48195 L 154.584,253.17353 L 155.0304,253.86166 L 155.4768,254.54637 L 155.9232,255.22765 L 156.3696,255.90554 L 156.816,256.58005 L 157.2624,257.25119 L 157.7088,257.91898 L 158.1552,258.58345 L 158.6016,259.2446 L 159.048,259.90245 L 159.4944,260.55702 L 159.9408,261.20833 L 160.3872,261.85639 L 160.8336,262.50122 L 161.28,263.14283 L 161.7264,263.78124 L 162.1728,264.41647 L 162.6192,265.04852 L 163.0656,265.67743 L 163.512,266.3032 L 163.9584,266.92585 L 164.4048,267.54539 L 164.8512,268.16184 L 165.2976,268.77522 L 165.744,269.38554 L 166.1904,269.99282 L 166.6368,270.59706 L 167.0832,271.19829 L 167.5296,271.79653 L 167.976,272.39178 L 168.4224,272.98406 L 168.8688,273.57339 L 169.3152,274.15977 L 169.7616,274.74324 L 170.208,275.32379 L 170.6544,275.90145 L 171.1008,276.47623 L 171.5472,277.04814 L 171.9936,277.61719 L 172.44,278.18341 L 172.8864,278.74681 L 173.3328,279.30739 L 173.7792,279.86518 L 174.2256,280.42019 L 174.672,280.97243 L 175.1184,281.52192 L 175.5648,282.06866 L 176.0112,282.61268 L 176.4576,283.15398 L 176.904,283.69259 L 177.3504,284.2285 L 177.7968,284.76175 L 178.2432,285.29234 L 178.6896,285.82028 L 179.136,286.34558 L 179.5824,286.86827 L 180.0288,287.38835 L 180.4752,287.90583 L 180.9216,288.42074 L 181.368,288.93307 L 181.8144,289.44286 L 182.2608,289.95009 L 182.7072,290.4548 L 183.1536,290.957 L 183.6,291.45668 L 184.0464,291.95388 L 184.4928,292.44859 L 184.9392,292.94084 L 185.3856,293.43063 L 185.832,293.91798 L 186.2784,294.4029 L 186.7248,294.8854 L 187.1712,295.3655 L 187.6176,295.84319 L 188.064,296.31851 L 188.5104,296.79146 L 188.9568,297.26205 L 189.4032,297.73028 L 189.8496,298.19619 L 190.296,298.65977 L 190.7424,299.12104 L 191.1888,299.58001 L 191.6352,300.03669 L 192.0816,300.49109 L 192.528,300.94323 L 192.9744,301.39311 L 193.4208,301.84074 L 193.8672,302.28615 L 194.3136,302.72933 L 194.76,303.1703 L 195.2064,303.60908 L 195.6528,304.04566 L 196.0992,304.48007 L 196.5456,304.91231 L 196.992,305.34239 L 197.4384,305.77033 L 197.8848,306.19614 L 198.3312,306.61982 L 198.7776,307.04138 L 199.224,307.46085 L 199.6704,307.87822 L 200.1168,308.29352 L 200.5632,308.70674 L 201.0096,309.1179 L 201.456,309.52701 L 201.9024,309.93407 L 202.3488,310.33911 L 202.7952,310.74213 L 203.2416,311.14314 L 203.688,311.54215 L 204.1344,311.93917 L 204.5808,312.3342 L 205.0272,312.72727 L 205.4736,313.11838 L 205.92,313.50753 L 206.3664,313.89475 L 206.8128,314.28004 L 207.2592,314.6634 L 207.7056,315.04485 L 208.152,315.4244 L 208.5984,315.80205 L 209.0448,316.17782 L 209.4912,316.55172 L 209.9376,316.92375 L 210.384,317.29393 L 210.8304,317.66226 L 211.2768,318.02875 L 211.7232,318.39342 L 212.1696,318.75627 L 212.616,319.11731 L 213.0624,319.47654 L 213.5088,319.83399 L 213.9552,320.18965 L 214.4016,320.54354 L 214.848,320.89566 L 215.2944,321.24603 L 215.7408,321.59465 L 216.1872,321.94153 L 216.6336,322.28668 L 217.08,322.63011 L 217.5264,322.97183 L 217.9728,323.31184 L 218.4192,323.65016 L 218.8656,323.98679 L 219.312,324.32173 L 219.7584,324.65501 L 220.2048,324.98663 L 220.6512,325.3166 L 221.0976,325.64491 L 221.544,325.97159 L 221.9904,326.29664 L 222.4368,326.62007 L 222.8832,326.94189 L 223.3296,327.2621 L 223.776,327.58072 L 224.2224,327.89774 L 224.6688,328.21319 L 225.1152,328.52706 L 225.5616,328.83936 L 226.008,329.15011 L 226.4544,329.45931 L 226.9008,329.76696 L 227.3472,330.07308 L 227.7936,330.37768 L 228.24,330.68075 L 228.6864,330.98232 L 229.1328,331.28238 L 229.5792,331.58094 L 230.0256,331.87802 L 230.472,332.17361 L 230.9184,332.46773 L 231.3648,332.76038 L 231.8112,333.05157 L 232.2576,333.34131 L 232.704,333.6296 L 233.1504,333.91646 L 233.5968,334.20189 L 234.0432,334.48589 L 234.4896,334.76847 L 234.936,335.04965 L 235.3824,335.32942 L 235.8288,335.6078 L 236.2752,335.88479 L 236.7216,336.1604 L 237.168,336.43464 L 237.6144,336.7075 L 238.0608,336.97901 L 238.5072,337.24916 L 238.9536,337.51796 L 239.4,337.78542 L 239.8464,338.05155 L 240.2928,338.31635 L 240.7392,338.57984 L 241.1856,338.842 L 241.632,339.10286 L 242.0784,339.36242 L 242.5248,339.62068 L 242.9712,339.87766 L 243.4176,340.13335 L 243.864,340.38777 L 244.3104,340.64092 L 244.7568,340.89281 L 245.2032,341.14344 L 245.6496,341.39282 L 246.096,341.64096 L 246.5424,341.88786 L 246.9888,342.13353 L 247.4352,342.37797 L 247.8816,342.6212 L 248.328,342.8632 L 248.7744,343.10401 L 249.2208,343.34361 L 249.6672,343.58202 L 250.1136,343.81924 L 250.56,344.05527 L 251.0064,344.29013 L 251.4528,344.52382 L 251.8992,344.75634 L 252.3456,344.9877 L 252.792,345.21791 L 253.2384,345.44697 L 253.6848,345.67489 L 254.1312,345.90166 L 254.5776,346.12732 L 255.024,346.35184 L 255.4704,346.57524 L 255.9168,346.79753 L 256.3632,347.01871 L 256.8096,347.23879 L 257.256,347.45777 L 257.7024,347.67566 L 258.1488,347.89246 L 258.5952,348.10818 L 259.0416,348.32283 L 259.488,348.5364 L 259.9344,348.74891 L 260.3808,348.96036 L 260.8272,349.17075 L 261.2736,349.38009 L 261.72,349.58839 L 262.1664,349.79566 L 262.6128,350.00188 L 263.0592,350.20708 L 263.5056,350.41126 L 263.952,350.61442 L 264.3984,350.81656 L 264.8448,351.0177 L 265.2912,351.21783 L 265.7376,351.41697 L 266.184,351.61511 L 266.6304,351.81226 L 267.0768,352.00843 L 267.5232,352.20362 L 267.9696,352.39784 L 268.416,352.59109 L 268.8624,352.78337 L 269.3088,352.9747 L 269.7552,353.16507 L 270.2016,353.3545 L 270.648,353.54298 L 271.0944,353.73051 L 271.5408,353.91712 L 271.9872,354.10279 L 272.4336,354.28753 L 272.88,354.47136 L 273.3264,354.65427 L 273.7728,354.83626 L 274.2192,355.01735 L 274.6656,355.19753 L 275.112,355.37682 L 275.5584,355.55521 L 276.0048,355.73271 L 276.4512,355.90933 L 276.8976,356.08506 L 277.344,356.25993 L 277.7904,356.43391 L 278.2368,356.60703 L 278.6832,356.77929 L 279.1296,356.95068 L 279.576,357.12123 L 280.0224,357.29092 L 280.4688,357.45976 L 280.9152,357.62777 L 281.3616,357.79493 L 281.808,357.96126 L 282.2544,358.12676 L 282.7008,358.29144 L 283.1472,358.45529 L 283.5936,358.61833 L 284.04,358.78056 L 284.4864,358.94197 L 284.9328,359.10258 L 285.3792,359.26239 L 285.8256,359.4214 L 286.272,359.57962 L 286.7184,359.73706 L 287.1648,359.8937 L 287.6112,360.04956 L 288.0576,360.20465 L 288.504,360.35896 L 288.9504,360.51251 L 289.3968,360.66528 L 289.8432,360.8173 L 290.2896,360.96855 L 290.736,361.11906 L 291.1824,361.26881 L 291.6288,361.41782 L 292.0752,361.56608 L 292.5216,361.7136 L 292.968,361.86039 L 293.4144,362.00644 L 293.8608,362.15177 L 294.3072,362.29637 L 294.7536,362.44025 L 295.2,362.58341 L 295.6464,362.72586 L 296.0928,362.8676 L 296.5392,363.00863 L 296.9856,363.14896 L 297.432,363.28859 L 297.8784,363.42752 L 298.3248,363.56576 L 298.7712,363.70331 L 299.2176,363.84017 L 299.664,363.97635 L 300.1104,364.11185 L 300.5568,364.24668 L 301.0032,364.38083 L 301.4496,364.51431 L 301.896,364.64713 L 302.3424,364.77929 L 302.7888,364.91078 L 303.2352,365.04163 L 303.6816,365.17181 L 304.128,365.30135 L 304.5744,365.43025 L 305.0208,365.5585 L 305.4672,365.68611 L 305.9136,365.81308 L 306.36,365.93942 L 306.8064,366.06513 L 307.2528,366.19022 L 307.6992,366.31468 L 308.1456,366.43851 L 308.592,366.56174 L 309.0384,366.68434 L 309.4848,366.80634 L 309.9312,366.92772 L 310.3776,367.0485 L 310.824,367.16868 L 311.2704,367.28826 L 311.7168,367.40725 L 312.1632,367.52564 L 312.6096,367.64344 L 313.056,367.76065 L 313.5024,367.87727 L 313.9488,367.99332 L 314.3952,368.10879 L 314.8416,368.22368 L 315.288,368.33799 L 315.7344,368.45174 L 316.1808,368.56492 L 316.6272,368.67754 L 317.0736,368.78959 L 317.52,368.90109 L 317.9664,369.01203 L 318.4128,369.12241 L 318.8592,369.23225 L 319.3056,369.34154 L 319.752,369.45028 L 320.1984,369.55848 L 320.6448,369.66614 L 321.0912,369.77326 L 321.5376,369.87985 L 321.984,369.98591 L 322.4304,370.09144 L 322.8768,370.19644 L 323.3232,370.30092 L 323.7696,370.40488 L 324.216,370.50831 L 324.6624,370.61124 L 325.1088,370.71365 L 325.5552,370.81555 L 326.0016,370.91694 L 326.448,371.01782 L 326.8944,371.1182 L 327.3408,371.21808 L 327.7872,371.31747 L 328.2336,371.41636 L 328.68,371.51475 L 329.1264,371.61265 L 329.5728,371.71007 L 330.0192,371.807 L 330.4656,371.90344 L 330.912,371.99941 L 331.3584,372.09489 L 331.8048,372.1899 L 332.2512,372.28444 L 332.6976,372.37851 L 333.144,372.4721 L 333.5904,372.56523 L 334.0368,372.65789 L 334.4832,372.75009 L 334.9296,372.84184 L 335.376,372.93312 L 335.8224,373.02395 L 336.2688,373.11433 L 336.7152,373.20425 L 337.1616,373.29373 L 337.608,373.38276 L 338.0544,373.47135 L 338.5008,373.55949 L 338.9472,373.6472 L 339.3936,373.73447 L 339.84,373.8213 L 340.2864,373.9077 L 340.7328,373.99367 L 341.1792,374.07921 L 341.6256,374.16432 L 342.072,374.24901 L 342.5184,374.33327 L 342.9648,374.41712 L 343.4112,374.50055 L 343.8576,374.58356 L 344.304,374.66616 L 344.7504,374.74834 L 345.1968,374.83012 L 345.6432,374.91149 L 346.0896,374.99245 L 346.536,375.07301 L 346.9824,375.15316 L 347.4288,375.23292 L 347.8752,375.31228 L 348.3216,375.39124 L 348.768,375.46981 L 349.2144,375.54799 L 349.6608,375.62578 L 350.1072,375.70318 L 350.5536,375.78019 L 351,375.85682 L 351.4464,375.93307 L 351.8928,376.00893 L 352.3392,376.08442 L 352.7856,376.15954 L 353.232,376.23427 L 353.6784,376.30864 L 354.1248,376.38263 L 354.5712,376.45626 L 355.0176,376.52951 L 355.464,376.6024 L 355.9104,376.67493 L 356.3568,376.7471 L 356.8032,376.81891 L 357.2496,376.89036 L 357.696,376.96145 L 358.1424,377.03219 L 358.5888,377.10257 L 359.0352,377.17261 L 359.4816,377.24229 L 359.928,377.31163 L 360.3744,377.38062 L 360.8208,377.44927 L 361.2672,377.51757 L 361.7136,377.58554 L 362.16,377.65316 L 362.6064,377.72045 L 363.0528,377.7874 L 363.4992,377.85402 L 363.9456,377.92031 L 364.392,377.98626 L 364.8384,378.05189 L 365.2848,378.11719 L 365.7312,378.18216 L 366.1776,378.24681 L 366.624,378.31114 L 367.0704,378.37514 L 367.5168,378.43883 L 367.9632,378.5022 L 368.4096,378.56525 L 368.856,378.62799 L 369.3024,378.69042 L 369.7488,378.75253 L 370.1952,378.81434 L 370.6416,378.87584 L 371.088,378.93703 L 371.5344,378.99791 L 371.9808,379.05849 L 372.4272,379.11877 L 372.8736,379.17875 L 373.32,379.23843 L 373.7664,379.29781 L 374.2128,379.35689 L 374.6592,379.41569 L 375.1056,379.47418 L 375.552,379.53239 L 375.9984,379.5903 L 376.4448,379.64793 L 376.8912,379.70527 L 377.3376,379.76232 L 377.784,379.81909 L 378.2304,379.87558 L 378.6768,379.93178 L 379.1232,379.9877 L 379.5696,380.04335 L 380.016,380.09871 L 380.4624,380.1538 L 380.9088,380.20862 L 381.3552,380.26316 L 381.8016,380.31743 L 382.248,380.37143 L 382.6944,380.42516 L 383.1408,380.47863 L 383.5872,380.53182 L 384.0336,380.58475 L 384.48,380.63742 L 384.9264,380.68982 L 385.3728,380.74197 L 385.8192,380.79385 L 386.2656,380.84547 L 386.712,380.89684 L 387.1584,380.94795 L 387.6048,380.9988 L 388.0512,381.04941 L 388.4976,381.09976 L 388.944,381.14985 L 389.3904,381.1997 L 389.8368,381.2493 L 390.2832,381.29865 L 390.7296,381.34776 L 391.176,381.39662 L 391.6224,381.44524 L 392.0688,381.49361 L 392.5152,381.54175 L 392.9616,381.58964 L 393.408,381.63729 L 393.8544,381.68471 L 394.3008,381.73189 L 394.7472,381.77884 L 395.1936,381.82555 L 395.64,381.87203 L 396.0864,381.91827 L 396.5328,381.96429 L 396.9792,382.01007 L 397.4256,382.05563 L 397.872,382.10096 L 398.3184,382.14607 L 398.7648,382.19095 L 399.2112,382.2356 L 399.6576,382.28004 L 400.104,382.32425 L 400.5504,382.36824 L 400.9968,382.41201 L 401.4432,382.45556 L 401.8896,382.4989 L 402.336,382.54202 L 402.7824,382.58492 L 403.2288,382.62761 L 403.6752,382.67009 L 404.1216,382.71236 L 404.568,382.75441 L 405.0144,382.79626 L 405.4608,382.83789 L 405.9072,382.87932 L 406.3536,382.92055 L 406.8,382.96156 L 407.2464,383.00237 L 407.6928,383.04298 L 408.1392,383.08339 L 408.5856,383.12359 L 409.032,383.1636 L 409.4784,383.2034 L 409.9248,383.24301 L 410.3712,383.28242 L 410.8176,383.32163 L 411.264,383.36065 L 411.7104,383.39947 L 412.1568,383.4381 L 412.6032,383.47653 L 413.0496,383.51477 L 413.496,383.55283 L 413.9424,383.59069 L 414.3888,383.62837 L 414.8352,383.66585 L 415.2816,383.70315 L 415.728,383.74027 L 416.1744,383.77719 L 416.6208,383.81394 L 417.0672,383.8505 L 417.5136,383.88688 L 417.96,383.92307 L 418.4064,383.95909 L 418.8528,383.99493 L 419.2992,384.03059 L 419.7456,384.06607 L 420.192,384.10137 L 420.6384,384.1365 L 421.0848,384.17145 L 421.5312,384.20623 L 421.9776,384.24083 L 422.424,384.27526 L 422.8704,384.30953 L 423.3168,384.34361 L 423.7632,384.37753 L 424.2096,384.41128 L 424.656,384.44486 L 425.1024,384.47828 L 425.5488,384.51153 L 425.9952,384.54461 L 426.4416,384.57752 L 426.888,384.61028 L 427.3344,384.64287 L 427.7808,384.67529 L 428.2272,384.70756 L 428.6736,384.73966 L 429.12,384.77161 L 429.5664,384.80339 L 430.0128,384.83502 L 430.4592,384.86649 L 430.9056,384.8978 L 431.352,384.92895 L 431.7984,384.95995 L 432.2448,384.9908 L 432.6912,385.02149 L 433.1376,385.05203 L 433.584,385.08241 L 434.0304,385.11265 L 434.4768,385.14273 L 434.9232,385.17266 L 435.3696,385.20245 L 435.816,385.23208 L 436.2624,385.26157 L 436.7088,385.29091 L 437.1552,385.32011 L 437.6016,385.34916 L 438.048,385.37806 L 438.4944,385.40682 L 438.9408,385.43544 L 439.3872,385.46391 L 439.8336,385.49224 L 440.28,385.52043 L 440.7264,385.54848 L 441.1728,385.57639 L 441.6192,385.60416 L 442.0656,385.6318 L 442.512,385.65929 L 442.9584,385.68665 L 443.4048,385.71387 L 443.8512,385.74095 L 444.2976,385.7679 L 444.744,385.79472 L 445.1904,385.8214 L 445.6368,385.84795 L 446.0832,385.87437 L 446.5296,385.90065 L 446.976,385.9268 L 447.4224,385.95283 L 447.8688,385.97872 L 448.3152,386.00448 L 448.7616,386.03012 L 449.208,386.05563 L 449.6544,386.08101 L 450.1008,386.10626 L 450.5472,386.13139 L 450.9936,386.15639 L 451.44,386.18127 L 451.8864,386.20602 L 452.3328,386.23066 L 452.7792,386.25516 L 453.2256,386.27955 L 453.672,386.30381 L 454.1184,386.32795 L 454.5648,386.35198 L 455.0112,386.37588 L 455.4576,386.39966 L 455.904,386.42333 L 456.3504,386.44687 L 456.7968,386.4703 L 457.2432,386.49361 L 457.6896,386.51681 L 458.136,386.53989 L 458.5824,386.56286 L 459.0288,386.58571 L 459.4752,386.60844 L 459.9216,386.63107 L 460.368,386.65358 L 460.8144,386.67598 L 461.2608,386.69826 L 461.7072,386.72044 L 462.1536,386.7425 L 462.6,386.76446 L 463.0464,386.7863 L 463.4928,386.80804 L 463.9392,386.82967 L 464.3856,386.85119 L 464.832,386.8726 L 465.2784,386.89391 L 465.7248,386.9151 L 466.1712,386.9362 L 466.6176,386.95719 L 467.064,386.97807 L 467.5104,386.99885 L 467.9568,387.01953 L 468.4032,387.0401 L 468.8496,387.06057 L 469.296,387.08094 L 469.7424,387.10121 L 470.1888,387.12137 L 470.6352,387.14144 L 471.0816,387.1614 L 471.528,387.18127 L 471.9744,387.20103 L 472.4208,387.2207 L 472.8672,387.24027 L 473.3136,387.25974 L 473.76,387.27912 L 474.2064,387.2984 L 474.6528,387.31758 L 475.0992,387.33666 L 475.5456,387.35566 L 475.992,387.37455 L 476.4384,387.39335 L 476.8848,387.41206 L 477.3312,387.43068 L 477.7776,387.4492 L 478.224,387.46763 L 478.6704,387.48597 L 479.1168,387.50422 L 479.5632,387.52237 L 480.0096,387.54044 L 480.456,387.55841 L 480.9024,387.5763 L 481.3488,387.59409 L 481.7952,387.6118 L 482.2416,387.62942 L 482.688,387.64695 L 483.1344,387.6644 L 483.5808,387.68175 L 484.0272,387.69902 L 484.4736,387.71621 L 484.92,387.7333 L 485.3664,387.75032 L 485.8128,387.76725 L 486.2592,387.78409 L 486.7056,387.80085 L 487.152,387.81752 L 487.5984,387.83412 L 488.0448,387.85063 L 488.4912,387.86706 L 488.9376,387.8834 L 489.384,387.89967 L 489.8304,387.91585 L 490.2768,387.93195 L 490.7232,387.94797 L 491.1696,387.96392 L 491.616,387.97978 L 492.0624,387.99556 L 492.5088,388.01127 L 492.9552,388.0269 L 493.4016,388.04244 L 493.848,388.05792 L 494.2944,388.07331 L 494.7408,388.08863 L 495.1872,388.10387 L 495.6336,388.11903 L 496.08,388.13412 L 496.5264,388.14914 L 496.9728,388.16408 L 497.4192,388.17894 L 497.8656,388.19373 L 498.312,388.20845 L 498.7584,388.22309 L 499.2048,388.23766 L 499.6512,388.25216 L 500.0976,388.26658 L 500.544,388.28094 L 500.9904,388.29522 L 501.4368,388.30943 L 501.8832,388.32357 L 502.3296,388.33764 L 502.776,388.35164 L 503.2224,388.36557 L 503.6688,388.37943 L 504.1152,388.39322 L 504.5616,388.40694 L 505.008,388.42059 L 505.4544,388.43418 L 505.9008,388.44769 L 506.3472,388.46114 L 506.7936,388.47453 L 507.24,388.48784 L 507.6864,388.50109 L 508.1328,388.51428 L 508.5792,388.52739 L 509.0256,388.54045 L 509.472,388.55343 L 509.9184,388.56636 L 510.3648,388.57921 L 510.8112,388.59201 L 511.2576,388.60474 L 511.704,388.61741 L 512.1504,388.63001 L 512.5968,388.64255 L 513.0432,388.65503 L 513.4896,388.66744 L 513.936,388.6798 L 514.3824,388.69209 L 514.8288,388.70432 L 515.2752,388.71649 L 515.7216,388.7286 L 516.168,388.74065 L 516.6144,388.75264 L 517.0608,388.76457 L 517.5072,388.77644 L 517.9536,388.78825 L 518.4,388.8"
         style="fill:none;stroke:#0000ff;stroke-width:3;stroke-linecap:square;stroke-linejoin:miter;stroke-miterlimit:4;stroke-dasharray:none"
         id="path108" />
      <polygon
         points="72,388.8 72,43.2 518.4,43.2 518.4,388.8 72,388.8 "
         style="fill:none;stroke:#000000;stroke-width:3;stroke-linecap:square;stroke-linejoin:miter;stroke-miterlimit:4;stroke-dasharray:none"
         id="polygon7" />
      <text
         x="22.59375"
         y="52.199024"
         style="font-size:20px;font-style:normal;font-variant:normal;font-weight:normal;font-stretch:normal;text-align:start;line-height:125%;writing-mode:lr-tb;text-anchor:start;fill:#000000;font-family:Times New Roman"
         id="text8459">
        <tspan
           x="22.59375"
           y="52.199024"
           id="tspan8461">100%</tspan>
      </text>
    </g>
  </g>
</svg>
