<?xml version="1.0" encoding="UTF-8" standalone="no"?>
<!-- Created with Inkscape (http://www.inkscape.org/) -->

<svg
   xmlns:dc="http://purl.org/dc/elements/1.1/"
   xmlns:cc="http://creativecommons.org/ns#"
   xmlns:rdf="http://www.w3.org/1999/02/22-rdf-syntax-ns#"
   xmlns:svg="http://www.w3.org/2000/svg"
   xmlns="http://www.w3.org/2000/svg"
   version="1.1"
   width="400"
   height="50"
   id="svg8585">
  <metadata
     id="metadata8997">
    <rdf:RDF>
      <cc:Work
         rdf:about="">
        <dc:format>image/svg+xml</dc:format>
        <dc:type
           rdf:resource="http://purl.org/dc/dcmitype/StillImage" />
        <dc:title></dc:title>
      </cc:Work>
    </rdf:RDF>
  </metadata>
  <defs
     id="defs8995">
    <marker
       refX="0"
       refY="0"
       orient="auto"
       id="Arrow1Lend"
       style="overflow:visible">
      <path
         d="M 0,0 5,-5 -12.5,0 5,5 0,0 z"
         transform="matrix(-0.8,0,0,-0.8,-10,0)"
         id="path4226"
         style="fill-rule:evenodd;stroke:#000000;stroke-width:1pt" />
    </marker>
  </defs>
  <line
     x1="74.928017"
     y1="25"
     x2="346.54965"
     y2="25"
     id="line8587"
     style="stroke:#000000;stroke-width:1;stroke-miterlimit:4;stroke-dasharray:none;marker-end:url(#Arrow1Lend)" />
  <line
     x1="100"
     y1="15"
     x2="100"
     y2="35"
     stroke="black"
     stroke-width="1"
     id="line8589"
     style="stroke:#000000;stroke-width:1" />
  <line
     x1="300"
     y1="15"
     x2="300"
     y2="35"
     stroke="black"
     stroke-width="1"
     id="line8591"
     style="stroke:#000000;stroke-width:1" />
  <circle
     cx="500"
     cy="25"
     r="1.5"
     id="circle8593"
     style="fill:#00cc00" />
  <circle
     cx="300"
     cy="25"
     r="1.5"
     id="circle8595"
     style="fill:#00cc00" />
  <circle
     cx="233"
     cy="25"
     r="1.5"
     id="circle8597"
     style="fill:#00cc00" />
  <circle
     cx="200"
     cy="25"
     r="1.5"
     id="circle8599"
     style="fill:#00cc00" />
  <circle
     cx="180"
     cy="25"
     r="1.5"
     id="circle8601"
     style="fill:#00cc00" />
  <circle
     cx="166"
     cy="25"
     r="1.5"
     id="circle8603"
     style="fill:#00cc00" />
  <circle
     cx="157"
     cy="25"
     r="1.5"
     id="circle8605"
     style="fill:#00cc00" />
  <circle
     cx="150"
     cy="25"
     r="1.5"
     id="circle8607"
     style="fill:#00cc00" />
  <circle
     cx="144"
     cy="25"
     r="1.5"
     id="circle8609"
     style="fill:#00cc00" />
  <circle
     cx="140"
     cy="25"
     r="1.5"
     id="circle8611"
     style="fill:#00cc00" />
  <circle
     cx="136"
     cy="25"
     r="1.5"
     id="circle8613"
     style="fill:#00cc00" />
  <circle
     cx="133"
     cy="25"
     r="1.5"
     id="circle8615"
     style="fill:#00cc00" />
  <circle
     cx="130"
     cy="25"
     r="1.5"
     id="circle8617"
     style="fill:#00cc00" />
  <circle
     cx="128"
     cy="25"
     r="1.5"
     id="circle8619"
     style="fill:#00cc00" />
  <circle
     cx="126"
     cy="25"
     r="1.5"
     id="circle8621"
     style="fill:#00cc00" />
  <circle
     cx="125"
     cy="25"
     r="1.5"
     id="circle8623"
     style="fill:#00cc00" />
  <circle
     cx="123"
     cy="25"
     r="1.5"
     id="circle8625"
     style="fill:#00cc00" />
  <circle
     cx="122"
     cy="25"
     r="1.5"
     id="circle8627"
     style="fill:#00cc00" />
  <circle
     cx="121"
     cy="25"
     r="1.5"
     id="circle8629"
     style="fill:#00cc00" />
  <circle
     cx="119"
     cy="25"
     r="1.5"
     id="circle8631"
     style="fill:#00cc00" />
  <circle
     cx="119"
     cy="25"
     r="1.5"
     id="circle8633"
     style="fill:#00cc00" />
  <circle
     cx="118"
     cy="25"
     r="1.5"
     id="circle8635"
     style="fill:#00cc00" />
  <circle
     cx="117"
     cy="25"
     r="1.5"
     id="circle8637"
     style="fill:#00cc00" />
  <circle
     cx="116"
     cy="25"
     r="1.5"
     id="circle8639"
     style="fill:#00cc00" />
  <circle
     cx="116"
     cy="25"
     r="1.5"
     id="circle8641"
     style="fill:#00cc00" />
  <circle
     cx="115"
     cy="25"
     r="1.5"
     id="circle8643"
     style="fill:#00cc00" />
  <circle
     cx="114"
     cy="25"
     r="1.5"
     id="circle8645"
     style="fill:#00cc00" />
  <circle
     cx="114"
     cy="25"
     r="1.5"
     id="circle8647"
     style="fill:#00cc00" />
  <circle
     cx="113"
     cy="25"
     r="1.5"
     id="circle8649"
     style="fill:#00cc00" />
  <circle
     cx="113"
     cy="25"
     r="1.5"
     id="circle8651"
     style="fill:#00cc00" />
  <circle
     cx="112"
     cy="25"
     r="1.5"
     id="circle8653"
     style="fill:#00cc00" />
  <circle
     cx="112"
     cy="25"
     r="1.5"
     id="circle8655"
     style="fill:#00cc00" />
  <circle
     cx="112"
     cy="25"
     r="1.5"
     id="circle8657"
     style="fill:#00cc00" />
  <circle
     cx="111"
     cy="25"
     r="1.5"
     id="circle8659"
     style="fill:#00cc00" />
  <circle
     cx="111"
     cy="25"
     r="1.5"
     id="circle8661"
     style="fill:#00cc00" />
  <circle
     cx="111"
     cy="25"
     r="1.5"
     id="circle8663"
     style="fill:#00cc00" />
  <circle
     cx="110"
     cy="25"
     r="1.5"
     id="circle8665"
     style="fill:#00cc00" />
  <circle
     cx="110"
     cy="25"
     r="1.5"
     id="circle8667"
     style="fill:#00cc00" />
  <circle
     cx="110"
     cy="25"
     r="1.5"
     id="circle8669"
     style="fill:#00cc00" />
  <circle
     cx="110"
     cy="25"
     r="1.5"
     id="circle8671"
     style="fill:#00cc00" />
  <circle
     cx="109"
     cy="25"
     r="1.5"
     id="circle8673"
     style="fill:#00cc00" />
  <circle
     cx="109"
     cy="25"
     r="1.5"
     id="circle8675"
     style="fill:#00cc00" />
  <circle
     cx="109"
     cy="25"
     r="1.5"
     id="circle8677"
     style="fill:#00cc00" />
  <circle
     cx="109"
     cy="25"
     r="1.5"
     id="circle8679"
     style="fill:#00cc00" />
  <circle
     cx="108"
     cy="25"
     r="1.5"
     id="circle8681"
     style="fill:#00cc00" />
  <circle
     cx="108"
     cy="25"
     r="1.5"
     id="circle8683"
     style="fill:#00cc00" />
  <circle
     cx="108"
     cy="25"
     r="1.5"
     id="circle8685"
     style="fill:#00cc00" />
  <circle
     cx="108"
     cy="25"
     r="1.5"
     id="circle8687"
     style="fill:#00cc00" />
  <circle
     cx="108"
     cy="25"
     r="1.5"
     id="circle8689"
     style="fill:#00cc00" />
  <circle
     cx="108"
     cy="25"
     r="1.5"
     id="circle8691"
     style="fill:#00cc00" />
  <circle
     cx="107"
     cy="25"
     r="1.5"
     id="circle8693"
     style="fill:#00cc00" />
  <circle
     cx="107"
     cy="25"
     r="1.5"
     id="circle8695"
     style="fill:#00cc00" />
  <circle
     cx="107"
     cy="25"
     r="1.5"
     id="circle8697"
     style="fill:#00cc00" />
  <circle
     cx="107"
     cy="25"
     r="1.5"
     id="circle8699"
     style="fill:#00cc00" />
  <circle
     cx="107"
     cy="25"
     r="1.5"
     id="circle8701"
     style="fill:#00cc00" />
  <circle
     cx="107"
     cy="25"
     r="1.5"
     id="circle8703"
     style="fill:#00cc00" />
  <circle
     cx="107"
     cy="25"
     r="1.5"
     id="circle8705"
     style="fill:#00cc00" />
  <circle
     cx="106"
     cy="25"
     r="1.5"
     id="circle8707"
     style="fill:#00cc00" />
  <circle
     cx="106"
     cy="25"
     r="1.5"
     id="circle8709"
     style="fill:#00cc00" />
  <circle
     cx="106"
     cy="25"
     r="1.5"
     id="circle8711"
     style="fill:#00cc00" />
  <circle
     cx="106"
     cy="25"
     r="1.5"
     id="circle8713"
     style="fill:#00cc00" />
  <circle
     cx="106"
     cy="25"
     r="1.5"
     id="circle8715"
     style="fill:#00cc00" />
  <circle
     cx="106"
     cy="25"
     r="1.5"
     id="circle8717"
     style="fill:#00cc00" />
  <circle
     cx="106"
     cy="25"
     r="1.5"
     id="circle8719"
     style="fill:#00cc00" />
  <circle
     cx="106"
     cy="25"
     r="1.5"
     id="circle8721"
     style="fill:#00cc00" />
  <circle
     cx="106"
     cy="25"
     r="1.5"
     id="circle8723"
     style="fill:#00cc00" />
  <circle
     cx="105"
     cy="25"
     r="1.5"
     id="circle8725"
     style="fill:#00cc00" />
  <circle
     cx="105"
     cy="25"
     r="1.5"
     id="circle8727"
     style="fill:#00cc00" />
  <circle
     cx="105"
     cy="25"
     r="1.5"
     id="circle8729"
     style="fill:#00cc00" />
  <circle
     cx="105"
     cy="25"
     r="1.5"
     id="circle8731"
     style="fill:#00cc00" />
  <circle
     cx="105"
     cy="25"
     r="1.5"
     id="circle8733"
     style="fill:#00cc00" />
  <circle
     cx="105"
     cy="25"
     r="1.5"
     id="circle8735"
     style="fill:#00cc00" />
  <circle
     cx="105"
     cy="25"
     r="1.5"
     id="circle8737"
     style="fill:#00cc00" />
  <circle
     cx="105"
     cy="25"
     r="1.5"
     id="circle8739"
     style="fill:#00cc00" />
  <circle
     cx="105"
     cy="25"
     r="1.5"
     id="circle8741"
     style="fill:#00cc00" />
  <circle
     cx="105"
     cy="25"
     r="1.5"
     id="circle8743"
     style="fill:#00cc00" />
  <circle
     cx="105"
     cy="25"
     r="1.5"
     id="circle8745"
     style="fill:#00cc00" />
  <circle
     cx="105"
     cy="25"
     r="1.5"
     id="circle8747"
     style="fill:#00cc00" />
  <circle
     cx="105"
     cy="25"
     r="1.5"
     id="circle8749"
     style="fill:#00cc00" />
  <circle
     cx="105"
     cy="25"
     r="1.5"
     id="circle8751"
     style="fill:#00cc00" />
  <circle
     cx="104"
     cy="25"
     r="1.5"
     id="circle8753"
     style="fill:#00cc00" />
  <circle
     cx="104"
     cy="25"
     r="1.5"
     id="circle8755"
     style="fill:#00cc00" />
  <circle
     cx="104"
     cy="25"
     r="1.5"
     id="circle8757"
     style="fill:#00cc00" />
  <circle
     cx="104"
     cy="25"
     r="1.5"
     id="circle8759"
     style="fill:#00cc00" />
  <circle
     cx="104"
     cy="25"
     r="1.5"
     id="circle8761"
     style="fill:#00cc00" />
  <circle
     cx="104"
     cy="25"
     r="1.5"
     id="circle8763"
     style="fill:#00cc00" />
  <circle
     cx="104"
     cy="25"
     r="1.5"
     id="circle8765"
     style="fill:#00cc00" />
  <circle
     cx="104"
     cy="25"
     r="1.5"
     id="circle8767"
     style="fill:#00cc00" />
  <circle
     cx="104"
     cy="25"
     r="1.5"
     id="circle8769"
     style="fill:#00cc00" />
  <circle
     cx="104"
     cy="25"
     r="1.5"
     id="circle8771"
     style="fill:#00cc00" />
  <circle
     cx="104"
     cy="25"
     r="1.5"
     id="circle8773"
     style="fill:#00cc00" />
  <circle
     cx="104"
     cy="25"
     r="1.5"
     id="circle8775"
     style="fill:#00cc00" />
  <circle
     cx="104"
     cy="25"
     r="1.5"
     id="circle8777"
     style="fill:#00cc00" />
  <circle
     cx="104"
     cy="25"
     r="1.5"
     id="circle8779"
     style="fill:#00cc00" />
  <circle
     cx="104"
     cy="25"
     r="1.5"
     id="circle8781"
     style="fill:#00cc00" />
  <circle
     cx="104"
     cy="25"
     r="1.5"
     id="circle8783"
     style="fill:#00cc00" />
  <circle
     cx="104"
     cy="25"
     r="1.5"
     id="circle8785"
     style="fill:#00cc00" />
  <circle
     cx="104"
     cy="25"
     r="1.5"
     id="circle8787"
     style="fill:#00cc00" />
  <circle
     cx="104"
     cy="25"
     r="1.5"
     id="circle8789"
     style="fill:#00cc00" />
  <circle
     cx="103"
     cy="25"
     r="1.5"
     id="circle8791"
     style="fill:#00cc00" />
  <circle
     cx="103"
     cy="25"
     r="1.5"
     id="circle8793"
     style="fill:#00cc00" />
  <circle
     cx="103"
     cy="25"
     r="1.5"
     id="circle8795"
     style="fill:#00cc00" />
  <circle
     cx="103"
     cy="25"
     r="1.5"
     id="circle8797"
     style="fill:#00cc00" />
  <circle
     cx="103"
     cy="25"
     r="1.5"
     id="circle8799"
     style="fill:#00cc00" />
  <circle
     cx="103"
     cy="25"
     r="1.5"
     id="circle8801"
     style="fill:#00cc00" />
  <circle
     cx="103"
     cy="25"
     r="1.5"
     id="circle8803"
     style="fill:#00cc00" />
  <circle
     cx="103"
     cy="25"
     r="1.5"
     id="circle8805"
     style="fill:#00cc00" />
  <circle
     cx="103"
     cy="25"
     r="1.5"
     id="circle8807"
     style="fill:#00cc00" />
  <circle
     cx="103"
     cy="25"
     r="1.5"
     id="circle8809"
     style="fill:#00cc00" />
  <circle
     cx="103"
     cy="25"
     r="1.5"
     id="circle8811"
     style="fill:#00cc00" />
  <circle
     cx="103"
     cy="25"
     r="1.5"
     id="circle8813"
     style="fill:#00cc00" />
  <circle
     cx="103"
     cy="25"
     r="1.5"
     id="circle8815"
     style="fill:#00cc00" />
  <circle
     cx="103"
     cy="25"
     r="1.5"
     id="circle8817"
     style="fill:#00cc00" />
  <circle
     cx="103"
     cy="25"
     r="1.5"
     id="circle8819"
     style="fill:#00cc00" />
  <circle
     cx="103"
     cy="25"
     r="1.5"
     id="circle8821"
     style="fill:#00cc00" />
  <circle
     cx="103"
     cy="25"
     r="1.5"
     id="circle8823"
     style="fill:#00cc00" />
  <circle
     cx="103"
     cy="25"
     r="1.5"
     id="circle8825"
     style="fill:#00cc00" />
  <circle
     cx="103"
     cy="25"
     r="1.5"
     id="circle8827"
     style="fill:#00cc00" />
  <circle
     cx="103"
     cy="25"
     r="1.5"
     id="circle8829"
     style="fill:#00cc00" />
  <circle
     cx="103"
     cy="25"
     r="1.5"
     id="circle8831"
     style="fill:#00cc00" />
  <circle
     cx="103"
     cy="25"
     r="1.5"
     id="circle8833"
     style="fill:#00cc00" />
  <circle
     cx="103"
     cy="25"
     r="1.5"
     id="circle8835"
     style="fill:#00cc00" />
  <circle
     cx="103"
     cy="25"
     r="1.5"
     id="circle8837"
     style="fill:#00cc00" />
  <circle
     cx="103"
     cy="25"
     r="1.5"
     id="circle8839"
     style="fill:#00cc00" />
  <circle
     cx="103"
     cy="25"
     r="1.5"
     id="circle8841"
     style="fill:#00cc00" />
  <circle
     cx="103"
     cy="25"
     r="1.5"
     id="circle8843"
     style="fill:#00cc00" />
  <circle
     cx="103"
     cy="25"
     r="1.5"
     id="circle8845"
     style="fill:#00cc00" />
  <circle
     cx="103"
     cy="25"
     r="1.5"
     id="circle8847"
     style="fill:#00cc00" />
  <circle
     cx="103"
     cy="25"
     r="1.5"
     id="circle8849"
     style="fill:#00cc00" />
  <circle
     cx="103"
     cy="25"
     r="1.5"
     id="circle8851"
     style="fill:#00cc00" />
  <circle
     cx="103"
     cy="25"
     r="1.5"
     id="circle8853"
     style="fill:#00cc00" />
  <circle
     cx="103"
     cy="25"
     r="1.5"
     id="circle8855"
     style="fill:#00cc00" />
  <circle
     cx="103"
     cy="25"
     r="1.5"
     id="circle8857"
     style="fill:#00cc00" />
  <circle
     cx="102"
     cy="25"
     r="1.5"
     id="circle8859"
     style="fill:#00cc00" />
  <circle
     cx="102"
     cy="25"
     r="1.5"
     id="circle8861"
     style="fill:#00cc00" />
  <circle
     cx="102"
     cy="25"
     r="1.5"
     id="circle8863"
     style="fill:#00cc00" />
  <circle
     cx="102"
     cy="25"
     r="1.5"
     id="circle8865"
     style="fill:#00cc00" />
  <circle
     cx="102"
     cy="25"
     r="1.5"
     id="circle8867"
     style="fill:#00cc00" />
  <circle
     cx="102"
     cy="25"
     r="1.5"
     id="circle8869"
     style="fill:#00cc00" />
  <circle
     cx="102"
     cy="25"
     r="1.5"
     id="circle8871"
     style="fill:#00cc00" />
  <circle
     cx="102"
     cy="25"
     r="1.5"
     id="circle8873"
     style="fill:#00cc00" />
  <circle
     cx="102"
     cy="25"
     r="1.5"
     id="circle8875"
     style="fill:#00cc00" />
  <circle
     cx="102"
     cy="25"
     r="1.5"
     id="circle8877"
     style="fill:#00cc00" />
  <circle
     cx="102"
     cy="25"
     r="1.5"
     id="circle8879"
     style="fill:#00cc00" />
  <circle
     cx="102"
     cy="25"
     r="1.5"
     id="circle8881"
     style="fill:#00cc00" />
  <circle
     cx="102"
     cy="25"
     r="1.5"
     id="circle8883"
     style="fill:#00cc00" />
  <circle
     cx="102"
     cy="25"
     r="1.5"
     id="circle8885"
     style="fill:#00cc00" />
  <circle
     cx="102"
     cy="25"
     r="1.5"
     id="circle8887"
     style="fill:#00cc00" />
  <circle
     cx="102"
     cy="25"
     r="1.5"
     id="circle8889"
     style="fill:#00cc00" />
  <circle
     cx="102"
     cy="25"
     r="1.5"
     id="circle8891"
     style="fill:#00cc00" />
  <circle
     cx="102"
     cy="25"
     r="1.5"
     id="circle8893"
     style="fill:#00cc00" />
  <circle
     cx="102"
     cy="25"
     r="1.5"
     id="circle8895"
     style="fill:#00cc00" />
  <circle
     cx="102"
     cy="25"
     r="1.5"
     id="circle8897"
     style="fill:#00cc00" />
  <circle
     cx="102"
     cy="25"
     r="1.5"
     id="circle8899"
     style="fill:#00cc00" />
  <circle
     cx="102"
     cy="25"
     r="1.5"
     id="circle8901"
     style="fill:#00cc00" />
  <circle
     cx="102"
     cy="25"
     r="1.5"
     id="circle8903"
     style="fill:#00cc00" />
  <circle
     cx="102"
     cy="25"
     r="1.5"
     id="circle8905"
     style="fill:#00cc00" />
  <circle
     cx="102"
     cy="25"
     r="1.5"
     id="circle8907"
     style="fill:#00cc00" />
  <circle
     cx="102"
     cy="25"
     r="1.5"
     id="circle8909"
     style="fill:#00cc00" />
  <circle
     cx="102"
     cy="25"
     r="1.5"
     id="circle8911"
     style="fill:#00cc00" />
  <circle
     cx="102"
     cy="25"
     r="1.5"
     id="circle8913"
     style="fill:#00cc00" />
  <circle
     cx="102"
     cy="25"
     r="1.5"
     id="circle8915"
     style="fill:#00cc00" />
  <circle
     cx="102"
     cy="25"
     r="1.5"
     id="circle8917"
     style="fill:#00cc00" />
  <circle
     cx="102"
     cy="25"
     r="1.5"
     id="circle8919"
     style="fill:#00cc00" />
  <circle
     cx="102"
     cy="25"
     r="1.5"
     id="circle8921"
     style="fill:#00cc00" />
  <circle
     cx="102"
     cy="25"
     r="1.5"
     id="circle8923"
     style="fill:#00cc00" />
  <circle
     cx="102"
     cy="25"
     r="1.5"
     id="circle8925"
     style="fill:#00cc00" />
  <circle
     cx="102"
     cy="25"
     r="1.5"
     id="circle8927"
     style="fill:#00cc00" />
  <circle
     cx="102"
     cy="25"
     r="1.5"
     id="circle8929"
     style="fill:#00cc00" />
  <circle
     cx="102"
     cy="25"
     r="1.5"
     id="circle8931"
     style="fill:#00cc00" />
  <circle
     cx="102"
     cy="25"
     r="1.5"
     id="circle8933"
     style="fill:#00cc00" />
  <circle
     cx="102"
     cy="25"
     r="1.5"
     id="circle8935"
     style="fill:#00cc00" />
  <circle
     cx="102"
     cy="25"
     r="1.5"
     id="circle8937"
     style="fill:#00cc00" />
  <circle
     cx="102"
     cy="25"
     r="1.5"
     id="circle8939"
     style="fill:#00cc00" />
  <circle
     cx="102"
     cy="25"
     r="1.5"
     id="circle8941"
     style="fill:#00cc00" />
  <circle
     cx="102"
     cy="25"
     r="1.5"
     id="circle8943"
     style="fill:#00cc00" />
  <circle
     cx="102"
     cy="25"
     r="1.5"
     id="circle8945"
     style="fill:#00cc00" />
  <circle
     cx="102"
     cy="25"
     r="1.5"
     id="circle8947"
     style="fill:#00cc00" />
  <circle
     cx="102"
     cy="25"
     r="1.5"
     id="circle8949"
     style="fill:#00cc00" />
  <circle
     cx="102"
     cy="25"
     r="1.5"
     id="circle8951"
     style="fill:#00cc00" />
  <circle
     cx="102"
     cy="25"
     r="1.5"
     id="circle8953"
     style="fill:#00cc00" />
  <circle
     cx="102"
     cy="25"
     r="1.5"
     id="circle8955"
     style="fill:#00cc00" />
  <circle
     cx="102"
     cy="25"
     r="1.5"
     id="circle8957"
     style="fill:#00cc00" />
  <circle
     cx="102"
     cy="25"
     r="1.5"
     id="circle8959"
     style="fill:#00cc00" />
  <circle
     cx="102"
     cy="25"
     r="1.5"
     id="circle8961"
     style="fill:#00cc00" />
  <circle
     cx="102"
     cy="25"
     r="1.5"
     id="circle8963"
     style="fill:#00cc00" />
  <circle
     cx="102"
     cy="25"
     r="1.5"
     id="circle8965"
     style="fill:#00cc00" />
  <circle
     cx="102"
     cy="25"
     r="1.5"
     id="circle8967"
     style="fill:#00cc00" />
  <circle
     cx="102"
     cy="25"
     r="1.5"
     id="circle8969"
     style="fill:#00cc00" />
  <circle
     cx="102"
     cy="25"
     r="1.5"
     id="circle8971"
     style="fill:#00cc00" />
  <circle
     cx="102"
     cy="25"
     r="1.5"
     id="circle8973"
     style="fill:#00cc00" />
  <circle
     cx="102"
     cy="25"
     r="1.5"
     id="circle8975"
     style="fill:#00cc00" />
  <circle
     cx="102"
     cy="25"
     r="1.5"
     id="circle8977"
     style="fill:#00cc00" />
  <circle
     cx="102"
     cy="25"
     r="1.5"
     id="circle8979"
     style="fill:#00cc00" />
  <circle
     cx="102"
     cy="25"
     r="1.5"
     id="circle8981"
     style="fill:#00cc00" />
  <circle
     cx="102"
     cy="25"
     r="1.5"
     id="circle8983"
     style="fill:#00cc00" />
  <circle
     cx="102"
     cy="25"
     r="1.5"
     id="circle8985"
     style="fill:#00cc00" />
  <circle
     cx="102"
     cy="25"
     r="1.5"
     id="circle8987"
     style="fill:#00cc00" />
  <circle
     cx="102"
     cy="25"
     r="1.5"
     id="circle8989"
     style="fill:#00cc00" />
  <circle
     cx="102"
     cy="25"
     r="1.5"
     id="circle8991"
     style="fill:#00cc00" />
  <text
     x="96.674805"
     y="45.58876"
     id="text9691"
     xml:space="preserve"
     style="font-size:12px;font-style:normal;font-variant:normal;font-weight:normal;font-stretch:normal;text-align:start;line-height:125%;letter-spacing:0px;word-spacing:0px;writing-mode:lr-tb;text-anchor:start;fill:#000000;fill-opacity:1;stroke:none;font-family:Liberation Sans;-inkscape-font-specification:Liberation Sans"><tspan
       x="96.674805"
       y="45.58876"
       id="tspan9693">5</tspan></text>
  <text
     x="296.62207"
     y="45.711807"
     id="text9695"
     xml:space="preserve"
     style="font-size:12px;font-style:normal;font-variant:normal;font-weight:normal;font-stretch:normal;text-align:start;line-height:125%;letter-spacing:0px;word-spacing:0px;writing-mode:lr-tb;text-anchor:start;fill:#000000;fill-opacity:1;stroke:none;font-family:Liberation Sans;-inkscape-font-specification:Liberation Sans"><tspan
       x="296.62207"
       y="45.711807"
       id="tspan9697">6</tspan></text>
</svg>
