<?xml version="1.0" encoding="utf-8" standalone="no"?>
<!DOCTYPE svg PUBLIC "-//W3C//DTD SVG 1.1//EN"
  "http://www.w3.org/Graphics/SVG/1.1/DTD/svg11.dtd">
<!-- Created with matplotlib (http://matplotlib.org/) -->
<svg height="368pt" version="1.1" viewBox="0 0 507 368" width="507pt" xmlns="http://www.w3.org/2000/svg" xmlns:xlink="http://www.w3.org/1999/xlink">
 <defs>
  <style type="text/css">
*{stroke-linecap:butt;stroke-linejoin:round;stroke-miterlimit:100000;}
  </style>
 </defs>
 <g id="figure_1">
  <g id="patch_1">
   <path d="M 0 368.41375 
L 507.781875 368.41375 
L 507.781875 0 
L 0 0 
L 0 368.41375 
z
" style="fill:none;"/>
  </g>
  <g id="axes_1">
   <g id="patch_2">
    <path clip-path="url(#p7d37620b20)" d="M 234.29952 252.258936 
L 236.08512 250.04435 
L 237.442176 250.465122 
L 258.869376 238.654 
L 259.012224 238.698292 
L 237.585024 250.509413 
L 238.94208 250.930185 
z
" style="fill:#d77a5a;stroke:#d77a5a;stroke-linejoin:miter;"/>
   </g>
   <g id="patch_3">
    <path clip-path="url(#p7d37620b20)" d="M 232.1568 338.127073 
L 237.5136 337.388878 
L 237.5136 338.090164 
L 258.9408 338.090164 
L 258.9408 338.163983 
L 237.5136 338.163983 
L 237.5136 338.865268 
z
" style="fill:#aecc51;stroke:#aecc51;stroke-linejoin:miter;"/>
   </g>
   <g id="line2d_1">
    <path clip-path="url(#p7d37620b20)" d="M 48.24 307.279417 
L 52.749091 306.58491 
L 57.258182 305.872642 
L 61.767273 305.142158 
L 66.276364 304.392993 
L 70.785455 303.624668 
L 75.294545 302.836695 
L 79.803636 302.028569 
L 84.312727 301.199777 
L 88.821818 300.349789 
L 93.330909 299.478063 
L 97.84 298.584044 
L 102.349091 297.667161 
L 106.858182 296.726829 
L 111.367273 295.76245 
L 115.876364 294.773407 
L 120.385455 293.759071 
L 124.894545 292.718794 
L 129.403636 291.651912 
L 133.912727 290.557747 
L 138.421818 289.435598 
L 142.930909 288.284752 
L 147.44 287.104475 
L 151.949091 285.894012 
L 156.458182 284.652594 
L 160.967273 283.379427 
L 165.476364 282.0737 
L 169.985455 280.73458 
L 174.494545 279.361214 
L 179.003636 277.952725 
L 183.512727 276.508215 
L 188.021818 275.026763 
L 192.530909 273.507425 
L 197.04 271.94923 
L 201.549091 270.351187 
L 206.058182 268.712275 
L 210.567273 267.031449 
L 215.076364 265.307638 
L 219.585455 263.539741 
L 224.094545 261.726633 
L 228.603636 259.867156 
L 233.112727 257.960125 
L 237.621818 256.004323 
L 242.130909 253.998503 
L 246.64 251.941386 
L 251.149091 249.83166 
L 255.658182 247.66798 
L 260.167273 245.448966 
L 264.676364 243.173203 
L 269.185455 240.839239 
L 273.694545 238.445587 
L 278.203636 235.990719 
L 282.712727 233.473069 
L 287.221818 230.891034 
L 291.730909 228.242965 
L 296.24 225.527174 
L 300.749091 222.74193 
L 305.258182 219.885455 
L 309.767273 216.955929 
L 314.276364 213.951483 
L 318.785455 210.8702 
L 323.294545 207.710117 
L 327.803636 204.469218 
L 332.312727 201.145436 
L 336.821818 197.736651 
L 341.330909 194.24069 
L 345.84 190.655322 
L 350.349091 186.978263 
L 354.858182 183.207165 
L 359.367273 179.339626 
L 363.876364 175.373178 
L 368.385455 171.305291 
L 372.894545 167.133372 
L 377.403636 162.854761 
L 381.912727 158.466727 
L 386.421818 153.966474 
L 390.930909 149.351131 
L 395.44 144.617755 
L 399.949091 139.763327 
L 404.458182 134.784752 
L 408.967273 129.678854 
L 413.476364 124.442378 
L 417.985455 119.071983 
L 422.494545 113.564246 
L 427.003636 107.915654 
L 431.512727 102.122604 
L 436.021818 96.181402 
L 440.530909 90.088259 
L 445.04 83.83929 
L 449.549091 77.43051 
L 454.058182 70.857831 
L 458.567273 64.117061 
L 463.076364 57.203903 
L 467.585455 50.113947 
L 472.094545 42.842672 
L 476.603636 35.385441 
L 481.112727 27.737498 
L 485.621818 19.893967 
L 490.130909 11.849844 
L 494.64 3.6 
" style="fill:none;stroke:#007ec1;stroke-linecap:square;"/>
   </g>
   <g id="line2d_2">
    <path clip-path="url(#p7d37620b20)" d="M 48.24 334.436098 
L 494.64 334.436098 
" style="fill:none;stroke:#000000;stroke-linecap:square;"/>
   </g>
   <g id="line2d_3">
    <path clip-path="url(#p7d37620b20)" d="M 226.8 349.2 
L 226.8 3.6 
" style="fill:none;stroke:#000000;stroke-linecap:square;"/>
   </g>
   <g id="line2d_4">
    <defs>
     <path d="M 0 3 
C 0.795609 3 1.55874 2.683901 2.12132 2.12132 
C 2.683901 1.55874 3 0.795609 3 0 
C 3 -0.795609 2.683901 -1.55874 2.12132 -2.12132 
C 1.55874 -2.683901 0.795609 -3 0 -3 
C -0.795609 -3 -1.55874 -2.683901 -2.12132 -2.12132 
C -2.683901 -1.55874 -3 -0.795609 -3 0 
C -3 0.795609 -2.683901 1.55874 -2.12132 2.12132 
C -1.55874 2.683901 -0.795609 3 0 3 
z
" id="m60f8da76ab" style="stroke:#000000;stroke-width:0.5;"/>
    </defs>
    <g clip-path="url(#p7d37620b20)">
     <use style="fill:#007ec1;stroke:#000000;stroke-width:0.5;" x="226.8" xlink:href="#m60f8da76ab" y="260.616586243"/>
    </g>
   </g>
   <g id="line2d_5">
    <path clip-path="url(#p7d37620b20)" d="M 405.36 334.436098 
L 405.36 133.773861 
" style="fill:none;stroke:#000000;stroke-dasharray:6.000000,6.000000;stroke-dashoffset:0.0;"/>
   </g>
   <g id="line2d_6">
    <defs>
     <path d="M 0 3 
C 0.795609 3 1.55874 2.683901 2.12132 2.12132 
C 2.683901 1.55874 3 0.795609 3 0 
C 3 -0.795609 2.683901 -1.55874 2.12132 -2.12132 
C 1.55874 -2.683901 0.795609 -3 0 -3 
C -0.795609 -3 -1.55874 -2.683901 -2.12132 -2.12132 
C -2.683901 -1.55874 -3 -0.795609 -3 0 
C -3 0.795609 -2.683901 1.55874 -2.12132 2.12132 
C -1.55874 2.683901 -0.795609 3 0 3 
z
" id="mcc5bdd6a37" style="stroke:#000000;stroke-width:0.5;"/>
    </defs>
    <g clip-path="url(#p7d37620b20)">
     <use style="fill:#aecc51;stroke:#000000;stroke-width:0.5;" x="405.36" xlink:href="#mcc5bdd6a37" y="334.436097707"/>
    </g>
   </g>
   <g id="line2d_7">
    <defs>
     <path d="M 0 3 
C 0.795609 3 1.55874 2.683901 2.12132 2.12132 
C 2.683901 1.55874 3 0.795609 3 0 
C 3 -0.795609 2.683901 -1.55874 2.12132 -2.12132 
C 1.55874 -2.683901 0.795609 -3 0 -3 
C -0.795609 -3 -1.55874 -2.683901 -2.12132 -2.12132 
C -2.683901 -1.55874 -3 -0.795609 -3 0 
C -3 0.795609 -2.683901 1.55874 -2.12132 2.12132 
C -1.55874 2.683901 -0.795609 3 0 3 
z
" id="m36b27989fb" style="stroke:#000000;stroke-width:0.5;"/>
    </defs>
    <g clip-path="url(#p7d37620b20)">
     <use style="fill:#d77a5a;stroke:#000000;stroke-width:0.5;" x="405.36" xlink:href="#m36b27989fb" y="133.773861108"/>
    </g>
   </g>
   <g id="line2d_8">
    <path clip-path="url(#p7d37620b20)" d="M 316.08 334.436098 
L 316.08 212.728299 
" style="fill:none;stroke:#000000;stroke-dasharray:6.000000,6.000000;stroke-dashoffset:0.0;"/>
   </g>
   <g id="line2d_9">
    <g clip-path="url(#p7d37620b20)">
     <use style="fill:#aecc51;stroke:#000000;stroke-width:0.5;" x="316.08" xlink:href="#mcc5bdd6a37" y="334.436097707"/>
    </g>
   </g>
   <g id="line2d_10">
    <g clip-path="url(#p7d37620b20)">
     <use style="fill:#d77a5a;stroke:#000000;stroke-width:0.5;" x="316.08" xlink:href="#m36b27989fb" y="212.728298963"/>
    </g>
   </g>
   <g id="line2d_11">
    <path clip-path="url(#p7d37620b20)" d="M 286.32 334.436098 
L 286.32 231.41267 
" style="fill:none;stroke:#000000;stroke-dasharray:6.000000,6.000000;stroke-dashoffset:0.0;"/>
   </g>
   <g id="line2d_12">
    <g clip-path="url(#p7d37620b20)">
     <use style="fill:#aecc51;stroke:#000000;stroke-width:0.5;" x="286.32" xlink:href="#mcc5bdd6a37" y="334.436097707"/>
    </g>
   </g>
   <g id="line2d_13">
    <g clip-path="url(#p7d37620b20)">
     <use style="fill:#d77a5a;stroke:#000000;stroke-width:0.5;" x="286.32" xlink:href="#m36b27989fb" y="231.412670294"/>
    </g>
   </g>
   <g id="line2d_14">
    <path clip-path="url(#p7d37620b20)" d="M 271.44 334.436098 
L 271.44 239.649969 
" style="fill:none;stroke:#000000;stroke-dasharray:6.000000,6.000000;stroke-dashoffset:0.0;"/>
   </g>
   <g id="line2d_15">
    <g clip-path="url(#p7d37620b20)">
     <use style="fill:#aecc51;stroke:#000000;stroke-width:0.5;" x="271.44" xlink:href="#mcc5bdd6a37" y="334.436097707"/>
    </g>
   </g>
   <g id="line2d_16">
    <g clip-path="url(#p7d37620b20)">
     <use style="fill:#d77a5a;stroke:#000000;stroke-width:0.5;" x="271.44" xlink:href="#m36b27989fb" y="239.64996874"/>
    </g>
   </g>
   <g id="line2d_17">
    <path clip-path="url(#p7d37620b20)" d="M 262.512 334.436098 
L 262.512 244.272743 
" style="fill:none;stroke:#000000;stroke-dasharray:6.000000,6.000000;stroke-dashoffset:0.0;"/>
   </g>
   <g id="line2d_18">
    <g clip-path="url(#p7d37620b20)">
     <use style="fill:#aecc51;stroke:#000000;stroke-width:0.5;" x="262.512" xlink:href="#mcc5bdd6a37" y="334.436097707"/>
    </g>
   </g>
   <g id="line2d_19">
    <g clip-path="url(#p7d37620b20)">
     <use style="fill:#d77a5a;stroke:#000000;stroke-width:0.5;" x="262.512" xlink:href="#m36b27989fb" y="244.272742799"/>
    </g>
   </g>
   <g id="text_1">
    <!-- $0$ -->
    <defs>
     <path d="M 25 -2.203125 
Q 12.75 -2.203125 8.328125 7.875 
Q 3.90625 17.96875 3.90625 31.890625 
Q 3.90625 40.578125 5.484375 48.234375 
Q 7.078125 55.90625 11.78125 61.25 
Q 16.5 66.609375 25 66.609375 
Q 31.59375 66.609375 35.78125 63.375 
Q 39.984375 60.15625 42.1875 55.046875 
Q 44.390625 49.953125 45.1875 44.109375 
Q 46 38.28125 46 31.890625 
Q 46 23.296875 44.40625 15.796875 
Q 42.828125 8.296875 38.1875 3.046875 
Q 33.546875 -2.203125 25 -2.203125 
M 25 0.390625 
Q 30.5625 0.390625 33.296875 6.09375 
Q 36.03125 11.8125 36.671875 18.75 
Q 37.3125 25.6875 37.3125 33.5 
Q 37.3125 41.015625 36.671875 47.359375 
Q 36.03125 53.71875 33.3125 58.859375 
Q 30.609375 64.015625 25 64.015625 
Q 19.34375 64.015625 16.609375 58.828125 
Q 13.875 53.65625 13.234375 47.328125 
Q 12.59375 41.015625 12.59375 33.5 
Q 12.59375 27.9375 12.859375 23 
Q 13.140625 18.0625 14.3125 12.8125 
Q 15.484375 7.5625 18.09375 3.96875 
Q 20.703125 0.390625 25 0.390625 
" id="Cmr10-30"/>
    </defs>
    <g transform="translate(212.5152 352.890975573)scale(0.2 -0.2)">
     <use transform="translate(0.0 0.390625)" xlink:href="#Cmr10-30"/>
    </g>
   </g>
   <g id="text_2">
    <!-- $\lim_{n\to\infty}\ \exp\left(\frac{1}{n}\right)=\exp\left(\lim_{n\to\infty}\ \frac{1}{n}\right)$ -->
    <defs>
     <path d="M 3.078125 0 
L 3.078125 3.515625 
Q 6.5 3.515625 8.6875 4.046875 
Q 10.890625 4.59375 10.890625 6.6875 
L 10.890625 33.984375 
Q 10.890625 37.84375 9.390625 38.71875 
Q 7.90625 39.59375 3.515625 39.59375 
L 3.515625 43.109375 
L 17.921875 44.1875 
L 17.921875 6.6875 
Q 17.921875 4.59375 19.828125 4.046875 
Q 21.734375 3.515625 24.90625 3.515625 
L 24.90625 0 
z
M 7.328125 61.375 
Q 7.328125 63.578125 8.984375 65.234375 
Q 10.640625 66.890625 12.796875 66.890625 
Q 14.203125 66.890625 15.515625 66.15625 
Q 16.84375 65.4375 17.578125 64.109375 
Q 18.3125 62.796875 18.3125 61.375 
Q 18.3125 59.234375 16.640625 57.5625 
Q 14.984375 55.90625 12.796875 55.90625 
Q 10.640625 55.90625 8.984375 57.5625 
Q 7.328125 59.234375 7.328125 61.375 
" id="Cmr10-69"/>
     <path d="M 3.078125 0 
L 3.078125 3.515625 
Q 6.5 3.515625 8.6875 4.046875 
Q 10.890625 4.59375 10.890625 6.6875 
L 10.890625 59.1875 
Q 10.890625 61.859375 10.078125 63.0625 
Q 9.28125 64.265625 7.765625 64.53125 
Q 6.25 64.796875 3.078125 64.796875 
L 3.078125 68.3125 
L 17.921875 69.390625 
L 17.921875 6.6875 
Q 17.921875 4.59375 20.109375 4.046875 
Q 22.3125 3.515625 25.6875 3.515625 
L 25.6875 0 
z
" id="Cmr10-6c"/>
     <path d="M 52.484375 -175.6875 
Q 43.171875 -167.578125 36.546875 -157.265625 
Q 29.9375 -146.96875 25.859375 -135.25 
Q 21.78125 -123.53125 19.890625 -111.171875 
Q 18.015625 -98.828125 18.015625 -85.984375 
Q 18.015625 -73.09375 19.890625 -60.71875 
Q 21.78125 -48.34375 25.859375 -36.625 
Q 29.9375 -24.90625 36.546875 -14.59375 
Q 43.171875 -4.296875 52.484375 3.8125 
Q 52.484375 4 52.984375 4 
L 55.328125 4 
Q 55.609375 4 55.859375 3.6875 
Q 56.109375 3.375 56.109375 3.078125 
Q 56.109375 2.6875 55.90625 2.484375 
Q 47.359375 -6.0625 41.59375 -16.265625 
Q 35.84375 -26.46875 32.375 -38.109375 
Q 28.90625 -49.75 27.4375 -61.6875 
Q 25.984375 -73.640625 25.984375 -86.078125 
Q 25.984375 -98.484375 27.4375 -110.46875 
Q 28.90625 -122.46875 32.375 -133.984375 
Q 35.84375 -145.515625 41.671875 -155.765625 
Q 47.515625 -166.015625 55.90625 -174.421875 
Q 56.109375 -174.609375 56.109375 -175 
Q 56.109375 -175.25 55.828125 -175.5625 
Q 55.5625 -175.875 55.328125 -175.875 
L 52.984375 -175.875 
Q 52.484375 -175.875 52.484375 -175.6875 
" id="Cmex10-b3"/>
     <path d="M 2.984375 0 
L 2.984375 3.515625 
Q 6.390625 3.515625 8.59375 4.046875 
Q 10.796875 4.59375 10.796875 6.6875 
L 10.796875 33.984375 
Q 10.796875 36.671875 9.984375 37.859375 
Q 9.1875 39.0625 7.671875 39.328125 
Q 6.15625 39.59375 2.984375 39.59375 
L 2.984375 43.109375 
L 17.484375 44.1875 
L 17.484375 34.421875 
Q 19.484375 38.71875 23.40625 41.453125 
Q 27.34375 44.1875 31.984375 44.1875 
Q 43.5 44.1875 45.515625 34.8125 
Q 47.515625 39.015625 51.359375 41.59375 
Q 55.21875 44.1875 59.8125 44.1875 
Q 64.359375 44.1875 67.453125 42.71875 
Q 70.5625 41.265625 72.125 38.25 
Q 73.6875 35.25 73.6875 30.71875 
L 73.6875 6.6875 
Q 73.6875 4.59375 75.90625 4.046875 
Q 78.125 3.515625 81.5 3.515625 
L 81.5 0 
L 58.59375 0 
L 58.59375 3.515625 
Q 62.015625 3.515625 64.203125 4.046875 
Q 66.40625 4.59375 66.40625 6.6875 
L 66.40625 30.421875 
Q 66.40625 35.453125 64.984375 38.53125 
Q 63.578125 41.609375 59.1875 41.609375 
Q 53.421875 41.609375 49.65625 36.96875 
Q 45.90625 32.328125 45.90625 26.421875 
L 45.90625 6.6875 
Q 45.90625 4.59375 48.09375 4.046875 
Q 50.296875 3.515625 53.71875 3.515625 
L 53.71875 0 
L 30.8125 0 
L 30.8125 3.515625 
Q 34.234375 3.515625 36.421875 4.046875 
Q 38.625 4.59375 38.625 6.6875 
L 38.625 30.421875 
Q 38.625 35.296875 37.203125 38.453125 
Q 35.796875 41.609375 31.390625 41.609375 
Q 25.59375 41.609375 21.84375 36.96875 
Q 18.109375 32.328125 18.109375 26.421875 
L 18.109375 6.6875 
Q 18.109375 4.59375 20.3125 4.046875 
Q 22.515625 3.515625 25.875 3.515625 
L 25.875 0 
z
" id="Cmr10-6d"/>
     <path d="M 24.609375 -1.125 
Q 18.953125 -1.125 14.578125 2.1875 
Q 10.203125 5.515625 7.90625 10.78125 
Q 5.609375 16.0625 5.609375 21.578125 
Q 5.609375 25.828125 6.953125 29.875 
Q 8.296875 33.9375 10.828125 37.15625 
Q 13.375 40.375 16.96875 42.28125 
Q 20.5625 44.1875 24.90625 44.1875 
Q 29.390625 44.1875 33.59375 42.46875 
Q 37.796875 40.765625 41.28125 37.9375 
Q 44.78125 35.109375 47.796875 31.390625 
L 50.78125 27.390625 
Q 53.765625 32.125 57.375 35.859375 
Q 60.984375 39.59375 65.546875 41.890625 
Q 70.125 44.1875 75.296875 44.1875 
Q 79.640625 44.1875 83.203125 42.25 
Q 86.765625 40.328125 89.25 37 
Q 91.75 33.6875 93.015625 29.65625 
Q 94.28125 25.640625 94.28125 21.578125 
Q 94.28125 15.921875 91.90625 10.671875 
Q 89.546875 5.421875 85.171875 2.140625 
Q 80.8125 -1.125 75 -1.125 
Q 68.453125 -1.125 62.5625 2.390625 
Q 56.6875 5.90625 52.09375 11.71875 
L 49.125 15.71875 
Q 44.53125 8.25 38.296875 3.5625 
Q 32.078125 -1.125 24.609375 -1.125 
M 23.578125 2.390625 
Q 36.28125 2.390625 46.296875 19.390625 
L 41.015625 26.125 
Q 36.421875 32.171875 32.46875 35.59375 
Q 28.515625 39.015625 23.296875 39.015625 
Q 18.84375 39.015625 15.40625 36.5 
Q 11.96875 33.984375 10.078125 29.921875 
Q 8.203125 25.875 8.203125 21.484375 
Q 8.203125 18.109375 9.25 14.71875 
Q 10.296875 11.328125 12.296875 8.546875 
Q 14.3125 5.765625 17.15625 4.078125 
Q 20.015625 2.390625 23.578125 2.390625 
M 58.890625 17 
Q 63.484375 10.9375 67.4375 7.515625 
Q 71.390625 4.109375 76.609375 4.109375 
Q 79.9375 4.109375 82.71875 5.5625 
Q 85.5 7.03125 87.515625 9.515625 
Q 89.546875 12.015625 90.625 15.140625 
Q 91.703125 18.265625 91.703125 21.578125 
Q 91.703125 26.21875 89.84375 30.640625 
Q 87.984375 35.0625 84.484375 37.890625 
Q 81 40.71875 76.3125 40.71875 
Q 63.625 40.71875 53.609375 23.6875 
z
" id="Cmsy10-31"/>
     <path d="M 2.59375 -19.390625 
L 2.59375 -15.921875 
Q 6 -15.921875 8.203125 -15.328125 
Q 10.40625 -14.75 10.40625 -12.703125 
L 10.40625 35.5 
Q 10.40625 38.234375 8.453125 38.90625 
Q 6.5 39.59375 2.59375 39.59375 
L 2.59375 43.109375 
L 17.390625 44.1875 
L 17.390625 37.984375 
Q 20.125 41.015625 23.75 42.59375 
Q 27.390625 44.1875 31.5 44.1875 
Q 37.40625 44.1875 42.140625 40.984375 
Q 46.875 37.796875 49.53125 32.59375 
Q 52.203125 27.390625 52.203125 21.578125 
Q 52.203125 15.53125 49.25 10.296875 
Q 46.296875 5.078125 41.1875 1.96875 
Q 36.078125 -1.125 29.984375 -1.125 
Q 22.703125 -1.125 17.671875 4.78125 
L 17.671875 -12.703125 
Q 17.671875 -14.75 19.890625 -15.328125 
Q 22.125 -15.921875 25.484375 -15.921875 
L 25.484375 -19.390625 
z
M 17.671875 9.71875 
Q 19.4375 6.15625 22.5625 3.828125 
Q 25.6875 1.515625 29.390625 1.515625 
Q 32.859375 1.515625 35.515625 3.359375 
Q 38.1875 5.21875 39.984375 8.34375 
Q 41.796875 11.46875 42.640625 14.90625 
Q 43.5 18.359375 43.5 21.578125 
Q 43.5 25.59375 42.0625 30.25 
Q 40.625 34.90625 37.671875 38.109375 
Q 34.71875 41.3125 30.515625 41.3125 
Q 26.46875 41.3125 23.0625 39.234375 
Q 19.671875 37.15625 17.671875 33.59375 
z
" id="Cmr10-70"/>
     <path d="M 7.515625 13.28125 
Q 6.6875 13.28125 6.140625 13.90625 
Q 5.609375 14.546875 5.609375 15.28125 
Q 5.609375 16.109375 6.140625 16.6875 
Q 6.6875 17.28125 7.515625 17.28125 
L 70.3125 17.28125 
Q 71.046875 17.28125 71.578125 16.6875 
Q 72.125 16.109375 72.125 15.28125 
Q 72.125 14.546875 71.578125 13.90625 
Q 71.046875 13.28125 70.3125 13.28125 
z
M 7.515625 32.71875 
Q 6.6875 32.71875 6.140625 33.296875 
Q 5.609375 33.890625 5.609375 34.71875 
Q 5.609375 35.453125 6.140625 36.078125 
Q 6.6875 36.71875 7.515625 36.71875 
L 70.3125 36.71875 
Q 71.046875 36.71875 71.578125 36.078125 
Q 72.125 35.453125 72.125 34.71875 
Q 72.125 33.890625 71.578125 33.296875 
Q 71.046875 32.71875 70.3125 32.71875 
z
" id="Cmr10-3d"/>
     <path d="M 24.90625 -1.125 
Q 18.796875 -1.125 13.6875 2.078125 
Q 8.59375 5.28125 5.6875 10.625 
Q 2.78125 15.96875 2.78125 21.921875 
Q 2.78125 27.78125 5.4375 33.046875 
Q 8.109375 38.328125 12.859375 41.578125 
Q 17.625 44.828125 23.484375 44.828125 
Q 28.078125 44.828125 31.46875 43.28125 
Q 34.859375 41.75 37.0625 39.015625 
Q 39.265625 36.28125 40.375 32.5625 
Q 41.5 28.859375 41.5 24.421875 
Q 41.5 23.09375 40.484375 23.09375 
L 11.53125 23.09375 
L 11.53125 22.015625 
Q 11.53125 13.71875 14.875 7.765625 
Q 18.21875 1.8125 25.78125 1.8125 
Q 28.859375 1.8125 31.46875 3.171875 
Q 34.078125 4.546875 36 6.984375 
Q 37.9375 9.421875 38.625 12.203125 
Q 38.71875 12.546875 38.984375 12.8125 
Q 39.265625 13.09375 39.59375 13.09375 
L 40.484375 13.09375 
Q 41.5 13.09375 41.5 11.8125 
Q 40.09375 6.15625 35.40625 2.515625 
Q 30.71875 -1.125 24.90625 -1.125 
M 11.625 25.59375 
L 34.421875 25.59375 
Q 34.421875 29.34375 33.375 33.203125 
Q 32.328125 37.0625 29.875 39.625 
Q 27.4375 42.1875 23.484375 42.1875 
Q 17.828125 42.1875 14.71875 36.890625 
Q 11.625 31.59375 11.625 25.59375 
" id="Cmr10-65"/>
     <path d="M 7.515625 23 
Q 6.6875 23 6.140625 23.625 
Q 5.609375 24.265625 5.609375 25 
Q 5.609375 25.734375 6.140625 26.359375 
Q 6.6875 27 7.515625 27 
L 83.40625 27 
Q 79.59375 29.734375 76.65625 33.328125 
Q 73.734375 36.921875 71.78125 41.046875 
Q 69.828125 45.171875 69 49.8125 
Q 69 51.125 70.015625 51.125 
L 72.015625 51.125 
Q 72.359375 51.125 72.625 50.828125 
Q 72.90625 50.53125 73 50.203125 
Q 73.828125 45.90625 75.609375 42.21875 
Q 77.390625 38.53125 80.078125 35.34375 
Q 82.765625 32.171875 86.078125 29.875 
Q 89.40625 27.59375 93.609375 26.125 
Q 94.28125 25.6875 94.28125 25 
Q 94.28125 24.21875 93.609375 24.03125 
Q 88.375 22.21875 84.03125 18.625 
Q 79.6875 15.046875 76.859375 10.1875 
Q 74.03125 5.328125 73 -0.203125 
Q 72.90625 -0.53125 72.609375 -0.828125 
Q 72.3125 -1.125 72.015625 -1.125 
L 70.015625 -1.125 
Q 69 -1.125 69 0.203125 
Q 70.265625 7.03125 74.0625 13.0625 
Q 77.875 19.09375 83.40625 23 
z
" id="Cmsy10-21"/>
     <path d="M 4.390625 -175.875 
Q 3.515625 -175.875 3.515625 -175 
Q 3.515625 -174.609375 3.71875 -174.421875 
Q 12.203125 -165.921875 18.0625 -155.546875 
Q 23.921875 -145.171875 27.296875 -133.84375 
Q 30.671875 -122.515625 32.125 -110.546875 
Q 33.59375 -98.578125 33.59375 -85.890625 
Q 33.59375 -72.90625 32.09375 -61.03125 
Q 30.609375 -49.171875 27.234375 -37.890625 
Q 23.875 -26.609375 18.03125 -16.234375 
Q 12.203125 -5.859375 3.71875 2.484375 
Q 3.515625 2.6875 3.515625 3.078125 
Q 3.515625 4 4.390625 4 
L 6.6875 4 
Q 6.984375 4 7.171875 3.8125 
Q 16.40625 -4.15625 23.09375 -14.578125 
Q 29.78125 -25 33.859375 -36.6875 
Q 37.9375 -48.390625 39.765625 -60.734375 
Q 41.609375 -73.09375 41.609375 -85.984375 
Q 41.609375 -98.828125 39.765625 -111.15625 
Q 37.9375 -123.484375 33.859375 -135.203125 
Q 29.78125 -146.921875 23.09375 -157.3125 
Q 16.40625 -167.71875 7.171875 -175.6875 
Q 6.984375 -175.875 6.6875 -175.875 
z
" id="Cmex10-b4"/>
     <path d="M 9.28125 0 
L 9.28125 3.515625 
Q 21.78125 3.515625 21.78125 6.6875 
L 21.78125 59.1875 
Q 16.609375 56.6875 8.6875 56.6875 
L 8.6875 60.203125 
Q 20.953125 60.203125 27.203125 66.609375 
L 28.609375 66.609375 
Q 28.953125 66.609375 29.265625 66.328125 
Q 29.59375 66.0625 29.59375 65.71875 
L 29.59375 6.6875 
Q 29.59375 3.515625 42.09375 3.515625 
L 42.09375 0 
z
" id="Cmr10-31"/>
     <path d="M 4.984375 -115.921875 
Q 4.109375 -115.921875 4.109375 -114.984375 
Q 4.109375 -114.59375 4.296875 -114.40625 
Q 11.46875 -106.9375 15.640625 -97.4375 
Q 19.828125 -87.9375 21.5 -77.515625 
Q 23.1875 -67.09375 23.1875 -55.90625 
Q 23.1875 -17.046875 4.296875 2.484375 
Q 4.109375 2.6875 4.109375 3.078125 
Q 4.109375 4 4.984375 4 
L 6.203125 4 
Q 6.5 4 6.6875 3.8125 
Q 19 -6.453125 24.75 -22.234375 
Q 30.515625 -38.03125 30.515625 -56 
Q 30.515625 -73.828125 24.78125 -89.59375 
Q 19.046875 -105.375 6.6875 -115.71875 
Q 6.5 -115.921875 6.203125 -115.921875 
z
" id="Cmex10-a2"/>
     <path d="M 1.21875 0 
L 1.21875 3.515625 
Q 5.03125 3.515625 8.390625 5 
Q 11.765625 6.5 14.109375 9.421875 
L 23.1875 21 
L 11.375 36.375 
Q 9.625 38.578125 7.546875 39.078125 
Q 5.46875 39.59375 1.703125 39.59375 
L 1.703125 43.109375 
L 22.515625 43.109375 
L 22.515625 39.59375 
Q 21.1875 39.59375 20.03125 39 
Q 18.890625 38.421875 18.890625 37.3125 
Q 18.890625 36.921875 19.1875 36.375 
L 27.203125 25.984375 
L 33.203125 33.6875 
Q 34.421875 35.15625 34.421875 36.625 
Q 34.421875 37.84375 33.609375 38.71875 
Q 32.8125 39.59375 31.5 39.59375 
L 31.5 43.109375 
L 49.90625 43.109375 
L 49.90625 39.59375 
Q 46.046875 39.59375 42.65625 38.109375 
Q 39.265625 36.625 36.921875 33.6875 
L 29 23.578125 
L 41.796875 6.6875 
Q 43.703125 4.5 45.75 4 
Q 47.796875 3.515625 51.609375 3.515625 
L 51.609375 0 
L 30.8125 0 
L 30.8125 3.515625 
Q 32.03125 3.515625 33.15625 4.09375 
Q 34.28125 4.6875 34.28125 5.8125 
Q 34.28125 6.25 33.984375 6.6875 
L 25 18.609375 
L 17.828125 9.421875 
Q 16.703125 8.15625 16.703125 6.5 
Q 16.703125 5.28125 17.53125 4.390625 
Q 18.359375 3.515625 19.484375 3.515625 
L 19.484375 0 
z
" id="Cmr10-78"/>
     <path d="M 39.109375 -115.71875 
Q 26.765625 -105.375 20.96875 -89.59375 
Q 15.1875 -73.828125 15.1875 -56 
Q 15.1875 -38.03125 20.96875 -22.234375 
Q 26.765625 -6.453125 39.109375 3.8125 
Q 39.109375 4 39.59375 4 
L 40.828125 4 
Q 41.109375 4 41.359375 3.6875 
Q 41.609375 3.375 41.609375 3.078125 
Q 41.609375 2.6875 41.40625 2.484375 
Q 35.984375 -3.125 32.296875 -10 
Q 28.609375 -16.890625 26.484375 -24.28125 
Q 24.359375 -31.6875 23.4375 -39.734375 
Q 22.515625 -47.796875 22.515625 -56.109375 
Q 22.515625 -94.875 41.40625 -114.40625 
Q 41.609375 -114.59375 41.609375 -114.984375 
Q 41.609375 -115.28125 41.328125 -115.59375 
Q 41.0625 -115.921875 40.828125 -115.921875 
L 39.59375 -115.921875 
Q 39.109375 -115.921875 39.109375 -115.71875 
" id="Cmex10-a1"/>
     <path d="M 7.71875 1.703125 
Q 7.71875 2.296875 7.8125 2.59375 
L 15.28125 32.421875 
Q 16.015625 35.203125 16.015625 37.3125 
Q 16.015625 41.609375 13.09375 41.609375 
Q 9.96875 41.609375 8.453125 37.859375 
Q 6.9375 34.125 5.515625 28.421875 
Q 5.515625 28.125 5.21875 27.953125 
Q 4.9375 27.78125 4.6875 27.78125 
L 3.515625 27.78125 
Q 3.171875 27.78125 2.921875 28.140625 
Q 2.6875 28.515625 2.6875 28.8125 
Q 3.765625 33.15625 4.765625 36.171875 
Q 5.765625 39.203125 7.890625 41.6875 
Q 10.015625 44.1875 13.1875 44.1875 
Q 16.9375 44.1875 19.8125 41.8125 
Q 22.703125 39.453125 22.703125 35.796875 
Q 25.6875 39.703125 29.6875 41.9375 
Q 33.6875 44.1875 38.1875 44.1875 
Q 41.75 44.1875 44.328125 42.96875 
Q 46.921875 41.75 48.359375 39.28125 
Q 49.8125 36.8125 49.8125 33.40625 
Q 49.8125 29.296875 47.96875 23.484375 
Q 46.140625 17.671875 43.40625 10.5 
Q 42 7.234375 42 4.5 
Q 42 1.515625 44.28125 1.515625 
Q 48.1875 1.515625 50.796875 5.703125 
Q 53.421875 9.90625 54.5 14.703125 
Q 54.6875 15.28125 55.328125 15.28125 
L 56.5 15.28125 
Q 56.890625 15.28125 57.15625 15.03125 
Q 57.421875 14.796875 57.421875 14.40625 
Q 57.421875 14.3125 57.328125 14.109375 
Q 55.953125 8.453125 52.5625 3.65625 
Q 49.171875 -1.125 44.09375 -1.125 
Q 40.578125 -1.125 38.078125 1.296875 
Q 35.59375 3.71875 35.59375 7.171875 
Q 35.59375 9.03125 36.375 11.078125 
Q 37.640625 14.359375 39.28125 18.890625 
Q 40.921875 23.4375 41.96875 27.578125 
Q 43.015625 31.734375 43.015625 34.90625 
Q 43.015625 37.703125 41.859375 39.65625 
Q 40.71875 41.609375 37.984375 41.609375 
Q 34.328125 41.609375 31.25 39.984375 
Q 28.171875 38.375 25.875 35.71875 
Q 23.578125 33.0625 21.6875 29.390625 
L 14.890625 2.203125 
Q 14.546875 0.828125 13.34375 -0.140625 
Q 12.15625 -1.125 10.6875 -1.125 
Q 9.46875 -1.125 8.59375 -0.34375 
Q 7.71875 0.4375 7.71875 1.703125 
" id="Cmmi10-6e"/>
    </defs>
    <g style="fill:#007ec1;" transform="translate(3.6 249.543659523)scale(0.2 -0.2)">
     <use transform="translate(22.0 19.60624999999999)" xlink:href="#Cmr10-6c"/>
     <use transform="translate(49.685546875 19.60624999999999)" xlink:href="#Cmr10-69"/>
     <use transform="translate(77.37109375 19.60624999999999)" xlink:href="#Cmr10-6d"/>
     <use transform="translate(0.0 -34.931250000000006)scale(0.7)" xlink:href="#Cmmi10-6e"/>
     <use transform="translate(42.0068359375 -34.931250000000006)scale(0.7)" xlink:href="#Cmsy10-21"/>
     <use transform="translate(112.0068359375 -34.931250000000006)scale(0.7)" xlink:href="#Cmsy10-31"/>
     <use transform="translate(211.2708662109375 0.8562499999999886)" xlink:href="#Cmr10-65"/>
     <use transform="translate(255.6556318359375 0.8562499999999886)" xlink:href="#Cmr10-78"/>
     <use transform="translate(308.34117871093747 0.8562499999999886)" xlink:href="#Cmr10-70"/>
     <use transform="translate(363.85875683593747 81.30937499999999)scale(0.9138892508143323)" xlink:href="#Cmex10-a1"/>
     <use transform="translate(409.70922070312497 38.356249999999996)scale(0.7)" xlink:href="#Cmr10-31"/>
     <use transform="translate(405.70922070312497 -23.825000000000003)scale(0.7)" xlink:href="#Cmmi10-6e"/>
     <use transform="translate(460.21605664062497 81.30937499999999)scale(0.9138892508143323)" xlink:href="#Cmex10-a2"/>
     <use transform="translate(519.6251142578125 0.8562499999999886)" xlink:href="#Cmr10-3d"/>
     <use transform="translate(614.8692548828125 0.8562499999999886)" xlink:href="#Cmr10-65"/>
     <use transform="translate(659.2540205078125 0.8562499999999886)" xlink:href="#Cmr10-78"/>
     <use transform="translate(711.9395673828125 0.8562499999999886)" xlink:href="#Cmr10-70"/>
     <use transform="translate(767.4571455078125 86.21875)scale(0.6933460736622653)" xlink:href="#Cmex10-b3"/>
     <use transform="translate(830.857673461914 19.60624999999999)" xlink:href="#Cmr10-6c"/>
     <use transform="translate(858.543220336914 19.60624999999999)" xlink:href="#Cmr10-69"/>
     <use transform="translate(886.228767211914 19.60624999999999)" xlink:href="#Cmr10-6d"/>
     <use transform="translate(808.857673461914 -34.931250000000006)scale(0.7)" xlink:href="#Cmmi10-6e"/>
     <use transform="translate(850.864509399414 -34.931250000000006)scale(0.7)" xlink:href="#Cmsy10-21"/>
     <use transform="translate(920.864509399414 -34.931250000000006)scale(0.7)" xlink:href="#Cmsy10-31"/>
     <use transform="translate(1024.1285396728515 38.356249999999996)scale(0.7)" xlink:href="#Cmr10-31"/>
     <use transform="translate(1020.1285396728515 -23.825000000000003)scale(0.7)" xlink:href="#Cmmi10-6e"/>
     <use transform="translate(1074.6353756103515 86.21875)scale(0.6933460736622653)" xlink:href="#Cmex10-b4"/>
     <path d="M 405.709221 13.35625 
L 405.709221 19.60625 
L 447.716057 19.60625 
L 447.716057 13.35625 
L 405.709221 13.35625 
z
"/>
     <path d="M 1020.12854 13.35625 
L 1020.12854 19.60625 
L 1062.135376 19.60625 
L 1062.135376 13.35625 
L 1020.12854 13.35625 
z
"/>
    </g>
   </g>
   <g id="text_3">
    <!-- $\exp\left(\frac{1}{n}\right)$ -->
    <g style="fill:#d77a5a;" transform="translate(280.368 186.797074779)scale(0.2 -0.2)">
     <use transform="translate(0.0 0.8734374999999943)" xlink:href="#Cmr10-65"/>
     <use transform="translate(44.384765625 0.8734374999999943)" xlink:href="#Cmr10-78"/>
     <use transform="translate(97.0703125 0.8734374999999943)" xlink:href="#Cmr10-70"/>
     <use transform="translate(152.587890625 81.3265625)scale(0.9138892508143323)" xlink:href="#Cmex10-a1"/>
     <use transform="translate(198.4383544921875 38.3734375)scale(0.7)" xlink:href="#Cmr10-31"/>
     <use transform="translate(194.4383544921875 -23.807812499999997)scale(0.7)" xlink:href="#Cmmi10-6e"/>
     <use transform="translate(248.9451904296875 81.3265625)scale(0.9138892508143323)" xlink:href="#Cmex10-a2"/>
     <path d="M 194.438354 13.373437 
L 194.438354 19.623437 
L 236.44519 19.623437 
L 236.44519 13.373437 
L 194.438354 13.373437 
z
"/>
    </g>
   </g>
   <g id="text_4">
    <!-- ... -->
    <defs>
     <path d="M 10.6875 12.40625 
L 21 12.40625 
L 21 0 
L 10.6875 0 
z
" id="BitstreamVeraSans-Roman-2e"/>
    </defs>
    <g transform="translate(233.9424 297.526341975)scale(0.2 -0.2)">
     <use xlink:href="#BitstreamVeraSans-Roman-2e"/>
     <use x="31.787109375" xlink:href="#BitstreamVeraSans-Roman-2e"/>
     <use x="63.57421875" xlink:href="#BitstreamVeraSans-Roman-2e"/>
    </g>
   </g>
   <g id="text_5">
    <!-- $\frac{1}{n}$ -->
    <g style="fill:#aecc51;" transform="translate(312.5088 356.581951146)scale(0.2 -0.2)">
     <use transform="translate(4.0 38.3734375)scale(0.7)" xlink:href="#Cmr10-31"/>
     <use transform="translate(0.0 -23.807812499999997)scale(0.7)" xlink:href="#Cmmi10-6e"/>
     <path d="M 0 13.373437 
L 0 19.623437 
L 42.006836 19.623437 
L 42.006836 13.373437 
L 0 13.373437 
z
"/>
    </g>
   </g>
  </g>
 </g>
 <defs>
  <clipPath id="p7d37620b20">
   <rect height="345.6" width="446.4" x="48.24" y="3.6"/>
  </clipPath>
 </defs>
</svg>
