<?xml version="1.0" encoding="UTF-8" standalone="no"?>
<!-- Created with Inkscape (http://www.inkscape.org/) -->

<svg
   xmlns:dc="http://purl.org/dc/elements/1.1/"
   xmlns:cc="http://creativecommons.org/ns#"
   xmlns:rdf="http://www.w3.org/1999/02/22-rdf-syntax-ns#"
   xmlns:svg="http://www.w3.org/2000/svg"
   xmlns="http://www.w3.org/2000/svg"
   version="1.1"
   width="287.47516"
   height="89.8125"
   id="svg2">
  <metadata
     id="metadata54">
    <rdf:RDF>
      <cc:Work
         rdf:about="">
        <dc:format>image/svg+xml</dc:format>
        <dc:type
           rdf:resource="http://purl.org/dc/dcmitype/StillImage" />
        <dc:title></dc:title>
      </cc:Work>
    </rdf:RDF>
  </metadata>
  <defs
     id="defs52">
    <marker
       refX="0"
       refY="0"
       orient="auto"
       id="Arrow1Mend"
       style="overflow:visible">
      <path
         d="M 0,0 5,-5 -12.5,0 5,5 0,0 z"
         transform="matrix(-0.4,0,0,-0.4,-4,0)"
         id="path3897"
         style="fill-rule:evenodd;stroke:#000000;stroke-width:1pt" />
    </marker>
    <marker
       refX="0"
       refY="0"
       orient="auto"
       id="Arrow1Lend"
       style="overflow:visible">
      <path
         d="M 0,0 5,-5 -12.5,0 5,5 0,0 z"
         transform="matrix(-0.8,0,0,-0.8,-10,0)"
         id="path3891"
         style="fill-rule:evenodd;stroke:#000000;stroke-width:1pt" />
    </marker>
    <marker
       refX="0"
       refY="0"
       orient="auto"
       id="Arrow1Mend1"
       style="overflow:visible">
      <path
         d="M 0,0 5,-5 -12.5,0 5,5 0,0 z"
         transform="matrix(-0.4,0,0,-0.4,-4,0)"
         id="path5276"
         style="fill:#800000;fill-rule:evenodd;stroke:#800000;stroke-width:1pt" />
    </marker>
    <marker
       refX="0"
       refY="0"
       orient="auto"
       id="Arrow1Mendp"
       style="overflow:visible">
      <path
         d="M 0,0 5,-5 -12.5,0 5,5 0,0 z"
         transform="matrix(-0.4,0,0,-0.4,-4,0)"
         id="path5564"
         style="fill:#800000;fill-rule:evenodd;stroke:#800000;stroke-width:1pt" />
    </marker>
    <marker
       refX="0"
       refY="0"
       orient="auto"
       id="Arrow1MendQ"
       style="overflow:visible">
      <path
         d="M 0,0 5,-5 -12.5,0 5,5 0,0 z"
         transform="matrix(-0.4,0,0,-0.4,-4,0)"
         id="path6239"
         style="fill:#008000;fill-rule:evenodd;stroke:#008000;stroke-width:1pt" />
    </marker>
    <marker
       refX="0"
       refY="0"
       orient="auto"
       id="Arrow1Mendy"
       style="overflow:visible">
      <path
         d="M 0,0 5,-5 -12.5,0 5,5 0,0 z"
         transform="matrix(-0.4,0,0,-0.4,-4,0)"
         id="path7116"
         style="fill:#000080;fill-rule:evenodd;stroke:#000080;stroke-width:1pt" />
    </marker>
  </defs>
  <line
     x1="17.088928"
     y1="32.868668"
     x2="276.97516"
     y2="32.868668"
     id="line4"
     style="stroke:#000000;stroke-width:1;stroke-miterlimit:4;stroke-dasharray:none;marker-end:url(#Arrow1Lend)" />
  <circle
     cx="250"
     cy="25"
     r="2"
     transform="matrix(-1,0,0,1,278.32149,7.868667)"
     id="circle12"
     style="fill:#0000ff" />
  <circle
     cx="216"
     cy="25"
     r="2"
     transform="matrix(-1,0,0,1,278.32149,7.868667)"
     id="circle14"
     style="fill:#0000ff" />
  <circle
     cx="200"
     cy="25"
     r="2"
     transform="matrix(-1,0,0,1,278.32149,7.868667)"
     id="circle16"
     style="fill:#0000ff" />
  <circle
     cx="190"
     cy="25"
     r="2"
     transform="matrix(-1,0,0,1,278.32149,7.868667)"
     id="circle18"
     style="fill:#0000ff" />
  <circle
     cx="183"
     cy="25"
     r="2"
     transform="matrix(-1,0,0,1,278.32149,7.868667)"
     id="circle20"
     style="fill:#0000ff" />
  <circle
     cx="178"
     cy="25"
     r="2"
     transform="matrix(-1,0,0,1,278.32149,7.868667)"
     id="circle22"
     style="fill:#0000ff" />
  <circle
     cx="175"
     cy="25"
     r="2"
     transform="matrix(-1,0,0,1,278.32149,7.868667)"
     id="circle24"
     style="fill:#0000ff" />
  <circle
     cx="172"
     cy="25"
     r="2"
     transform="matrix(-1,0,0,1,278.32149,7.868667)"
     id="circle26"
     style="fill:#0000ff" />
  <circle
     cx="170"
     cy="25"
     r="2"
     transform="matrix(-1,0,0,1,278.32149,7.868667)"
     id="circle28"
     style="fill:#0000ff" />
  <circle
     cx="168"
     cy="25"
     r="2"
     transform="matrix(-1,0,0,1,278.32149,7.868667)"
     id="circle30"
     style="fill:#0000ff" />
  <circle
     cx="166"
     cy="25"
     r="2"
     transform="matrix(-1,0,0,1,278.32149,7.868667)"
     id="circle32"
     style="fill:#0000ff" />
  <circle
     cx="165"
     cy="25"
     r="2"
     transform="matrix(-1,0,0,1,278.32149,7.868667)"
     id="circle34"
     style="fill:#0000ff" />
  <circle
     cx="164"
     cy="25"
     r="2"
     transform="matrix(-1,0,0,1,278.32149,7.868667)"
     id="circle36"
     style="fill:#0000ff" />
  <circle
     cx="163"
     cy="25"
     r="2"
     transform="matrix(-1,0,0,1,278.32149,7.868667)"
     id="circle38"
     style="fill:#0000ff" />
  <circle
     cx="162"
     cy="25"
     r="2"
     transform="matrix(-1,0,0,1,278.32149,7.868667)"
     id="circle40"
     style="fill:#0000ff" />
  <circle
     cx="161"
     cy="25"
     r="2"
     transform="matrix(-1,0,0,1,278.32149,7.868667)"
     id="circle42"
     style="fill:#0000ff" />
  <circle
     cx="161"
     cy="25"
     r="2"
     transform="matrix(-1,0,0,1,278.32149,7.868667)"
     id="circle44"
     style="fill:#0000ff" />
  <circle
     cx="160"
     cy="25"
     r="2"
     transform="matrix(-1,0,0,1,278.32149,7.868667)"
     id="circle46"
     style="fill:#0000ff" />
  <circle
     cx="160"
     cy="25"
     r="2"
     transform="matrix(-1,0,0,1,278.32149,7.868667)"
     id="circle48"
     style="fill:#0000ff" />
  <circle
     cx="175"
     cy="25"
     r="2"
     transform="matrix(-1,0,0,1,217.85789,7.868667)"
     id="circle24-9"
     style="fill:#0000ff" />
  <text
     x="49.243408"
     y="18.255859"
     id="text3056"
     xml:space="preserve"
     style="font-size:12px;font-style:normal;font-variant:normal;font-weight:normal;font-stretch:normal;text-align:start;line-height:125%;letter-spacing:0px;word-spacing:0px;writing-mode:lr-tb;text-anchor:start;fill:#0000ff;fill-opacity:1;stroke:none;font-family:Liberation Sans;-inkscape-font-specification:Liberation Sans"><tspan
       x="49.243408"
       y="18.255859"
       id="tspan3058">Menge M</tspan></text>
  <circle
     cx="166"
     cy="25"
     r="2"
     transform="matrix(-1,0,0,1,354.86201,7.868667)"
     id="circle32-0"
     style="fill:#800000" />
  <circle
     cx="166"
     cy="25"
     r="2"
     transform="matrix(-1,0,0,1,309.86747,7.868667)"
     id="circle32-1"
     style="fill:#800000" />
  <circle
     cx="166"
     cy="25"
     r="2"
     transform="matrix(-1,0,0,1,411.04946,7.868667)"
     id="circle32-7"
     style="fill:#800000" />
  <text
     x="183.86041"
     y="64.695312"
     id="text4328"
     xml:space="preserve"
     style="font-size:12px;font-style:normal;font-variant:normal;font-weight:normal;font-stretch:normal;text-align:center;line-height:125%;letter-spacing:0px;word-spacing:0px;writing-mode:lr-tb;text-anchor:middle;fill:#800000;fill-opacity:1;stroke:none;font-family:Liberation Sans;-inkscape-font-specification:Liberation Sans"><tspan
       x="183.86041"
       y="64.695312"
       id="tspan4330">obere Schranken</tspan><tspan
       x="183.86041"
       y="79.695312"
       id="tspan4338">von M</tspan></text>
  <path
     d="M 164.36174,51.529191 147.26879,36.886205"
     id="path4340"
     style="fill:none;stroke:#800000;stroke-width:1px;stroke-linecap:butt;stroke-linejoin:miter;stroke-opacity:1;marker-start:none;marker-mid:none;marker-end:url(#Arrow1Mend1)" />
  <path
     d="m 188.8295,52.179795 0.0568,-14.032551"
     id="path4342"
     style="fill:none;stroke:#800000;stroke-width:1px;stroke-linecap:butt;stroke-linejoin:miter;stroke-opacity:1;marker-end:url(#Arrow1Mendp)" />
  <path
     d="M 226.37605,52.179795 240.99271,36.922264"
     id="path4344"
     style="fill:none;stroke:#800000;stroke-width:1px;stroke-linecap:butt;stroke-linejoin:miter;stroke-opacity:1;marker-end:url(#Arrow1Mend1)" />
  <text
     x="122.58789"
     y="64.695312"
     id="text7239"
     xml:space="preserve"
     style="font-size:12px;font-style:normal;font-variant:normal;font-weight:normal;font-stretch:normal;text-align:end;line-height:125%;letter-spacing:0px;word-spacing:0px;writing-mode:lr-tb;text-anchor:end;fill:#008000;fill-opacity:1;stroke:none;font-family:Liberation Sans;-inkscape-font-specification:Liberation Sans"><tspan
       x="122.58789"
       y="64.695312"
       id="tspan7241">Supremum = kleinste</tspan><tspan
       x="122.58789"
       y="79.695312"
       id="tspan7243">obere Schranke</tspan></text>
  <circle
     cx="166"
     cy="25"
     r="2"
     transform="matrix(-1,0,0,1,284.39153,7.868668)"
     id="circle32-1-6"
     style="fill:#008000;stroke:#008000" />
  <path
     d="M 103.95508,52.137641 115.92926,37.242929"
     id="path7263"
     style="fill:none;stroke:#008000;stroke-width:1px;stroke-linecap:butt;stroke-linejoin:miter;stroke-opacity:1;marker-end:url(#Arrow1MendQ)" />
</svg>
