<?xml version="1.0" encoding="UTF-8" standalone="no"?>
<!-- Created with Inkscape (http://www.inkscape.org/) -->

<svg
   xmlns:dc="http://purl.org/dc/elements/1.1/"
   xmlns:cc="http://creativecommons.org/ns#"
   xmlns:rdf="http://www.w3.org/1999/02/22-rdf-syntax-ns#"
   xmlns:svg="http://www.w3.org/2000/svg"
   xmlns="http://www.w3.org/2000/svg"
   xmlns:xlink="http://www.w3.org/1999/xlink"
   xmlns:sodipodi="http://sodipodi.sourceforge.net/DTD/sodipodi-0.dtd"
   xmlns:inkscape="http://www.inkscape.org/namespaces/inkscape"
   width="210mm"
   height="297mm"
   viewBox="0 0 744.09448819 1052.3622047"
   id="svg4279"
   version="1.1"
   inkscape:version="0.91 r13725"
   sodipodi:docname="Function x^2-2x-3 with derivate and tangent.svg">
  <defs
     id="defs4281" />
  <sodipodi:namedview
     id="base"
     pagecolor="#ffffff"
     bordercolor="#666666"
     borderopacity="1.0"
     inkscape:pageopacity="0.0"
     inkscape:pageshadow="2"
     inkscape:zoom="0.35"
     inkscape:cx="-183.57143"
     inkscape:cy="520"
     inkscape:document-units="px"
     inkscape:current-layer="layer1"
     showgrid="false"
     inkscape:window-width="1536"
     inkscape:window-height="801"
     inkscape:window-x="-8"
     inkscape:window-y="-8"
     inkscape:window-maximized="1" />
  <metadata
     id="metadata4284">
    <rdf:RDF>
      <cc:Work
         rdf:about="">
        <dc:format>image/svg+xml</dc:format>
        <dc:type
           rdf:resource="http://purl.org/dc/dcmitype/StillImage" />
        <dc:title></dc:title>
      </cc:Work>
    </rdf:RDF>
  </metadata>
  <g
     inkscape:label="Ebene 1"
     inkscape:groupmode="layer"
     id="layer1">
    <g
       id="gnuplot_canvas"
       transform="matrix(1.2389023,0,0,2.1785714,-0.24208714,3.7907714)">
      <rect
         x="0"
         y="0"
         width="600"
         height="480"
         id="rect9"
         style="fill:none" />
      <defs
         id="defs11">
        <circle
           id="gpDot"
           r="0.5"
           cx="0"
           cy="0"
           style="stroke-width:0.5" />
        <path
           id="gpPt0"
           d="M -1,0 1,0 M 0,-1 0,1"
           inkscape:connector-curvature="0"
           style="stroke:currentColor;stroke-width:0.222" />
        <path
           id="gpPt1"
           d="M -1,-1 1,1 M 1,-1 -1,1"
           inkscape:connector-curvature="0"
           style="stroke:currentColor;stroke-width:0.222" />
        <path
           id="gpPt2"
           d="M -1,0 1,0 M 0,-1 0,1 m -1,-2 2,2 m -2,0 2,-2"
           inkscape:connector-curvature="0"
           style="stroke:currentColor;stroke-width:0.222" />
        <rect
           id="gpPt3"
           x="-1"
           y="-1"
           width="2"
           height="2"
           style="stroke:currentColor;stroke-width:0.222" />
        <rect
           id="gpPt4"
           x="-1"
           y="-1"
           width="2"
           height="2"
           style="fill:currentColor;stroke:currentColor;stroke-width:0.222" />
        <circle
           id="gpPt5"
           cx="0"
           cy="0"
           r="1"
           style="stroke:currentColor;stroke-width:0.222" />
        <use
           xlink:href="#gpPt5"
           id="gpPt6"
           style="fill:currentColor;stroke:none"
           x="0"
           y="0"
           width="100%"
           height="100%" />
        <path
           id="gpPt7"
           d="m 0,-1.33 -1.33,2 2.66,0 z"
           inkscape:connector-curvature="0"
           style="stroke:currentColor;stroke-width:0.222" />
        <use
           xlink:href="#gpPt7"
           id="gpPt8"
           style="fill:currentColor;stroke:none"
           x="0"
           y="0"
           width="100%"
           height="100%" />
        <use
           xlink:href="#gpPt7"
           id="gpPt9"
           transform="scale(-1,-1)"
           style="stroke:currentColor"
           x="0"
           y="0"
           width="100%"
           height="100%" />
        <use
           xlink:href="#gpPt9"
           id="gpPt10"
           style="fill:currentColor;stroke:none"
           x="0"
           y="0"
           width="100%"
           height="100%" />
        <use
           xlink:href="#gpPt3"
           id="gpPt11"
           transform="matrix(0.70710678,0.70710678,-0.70710678,0.70710678,0,0)"
           style="stroke:currentColor"
           x="0"
           y="0"
           width="100%"
           height="100%" />
        <use
           xlink:href="#gpPt11"
           id="gpPt12"
           style="fill:currentColor;stroke:none"
           x="0"
           y="0"
           width="100%"
           height="100%" />
        <path
           id="gpPt13"
           d="M 0,1.33 1.265,0.411 0.782,-1.067 -0.782,-1.076 -1.265,0.411 Z"
           inkscape:connector-curvature="0"
           style="stroke:currentColor;stroke-width:0.222" />
        <use
           xlink:href="#gpPt13"
           id="gpPt14"
           style="fill:currentColor;stroke:none"
           x="0"
           y="0"
           width="100%"
           height="100%" />
        <filter
           id="textbox"
           filterUnits="objectBoundingBox"
           x="0"
           y="0"
           height="1"
           width="1">
          <feFlood
             flood-color="white"
             flood-opacity="1"
             result="bgnd"
             id="feFlood30" />
          <feComposite
             in="SourceGraphic"
             in2="bgnd"
             operator="atop"
             id="feComposite32" />
        </filter>
        <filter
           id="greybox"
           filterUnits="objectBoundingBox"
           x="0"
           y="0"
           height="1"
           width="1">
          <feFlood
             flood-color="lightgrey"
             flood-opacity="1"
             result="grey"
             id="feFlood35" />
          <feComposite
             in="SourceGraphic"
             in2="grey"
             operator="atop"
             id="feComposite37" />
        </filter>
      </defs>
      <g
         id="g39"
         style="color:#ffffff;fill:none;stroke:currentColor;stroke-width:1;stroke-linecap:butt;stroke-linejoin:miter" />
      <g
         id="g41"
         style="color:#000000;fill:none;stroke:currentColor;stroke-width:1;stroke-linecap:butt;stroke-linejoin:miter">
        <path
           d="m 37.3,444 9,0 m 528.7,0 -9,0"
           id="path43"
           inkscape:connector-curvature="0"
           style="stroke:#000000" />
        <g
           transform="translate(29,448.5)"
           font-size="12.00"
           id="g45"
           style="font-size:12px;font-family:Arial;text-anchor:end;fill:#000000;stroke:none">
          <text
             id="text47">
            <tspan
               id="tspan49"
               style="font-family:Arial">-4</tspan>
          </text>
        </g>
      </g>
      <g
         id="g51"
         style="color:#000000;fill:none;stroke:currentColor;stroke-width:1;stroke-linecap:butt;stroke-linejoin:miter">
        <path
           d="m 37.3,372.8 9,0 m 528.7,0 -9,0"
           id="path53"
           inkscape:connector-curvature="0"
           style="stroke:#000000" />
        <g
           transform="translate(29,377.3)"
           font-size="12.00"
           id="g55"
           style="font-size:12px;font-family:Arial;text-anchor:end;fill:#000000;stroke:none">
          <text
             id="text57">
            <tspan
               id="tspan59"
               style="font-family:Arial">-3</tspan>
          </text>
        </g>
      </g>
      <g
         id="g61"
         style="color:#000000;fill:none;stroke:currentColor;stroke-width:1;stroke-linecap:butt;stroke-linejoin:miter">
        <path
           d="m 37.3,301.6 9,0 m 528.7,0 -9,0"
           id="path63"
           inkscape:connector-curvature="0"
           style="stroke:#000000" />
        <g
           transform="translate(29,306.1)"
           font-size="12.00"
           id="g65"
           style="font-size:12px;font-family:Arial;text-anchor:end;fill:#000000;stroke:none">
          <text
             id="text67">
            <tspan
               id="tspan69"
               style="font-family:Arial">-2</tspan>
          </text>
        </g>
      </g>
      <g
         id="g71"
         style="color:#000000;fill:none;stroke:currentColor;stroke-width:1;stroke-linecap:butt;stroke-linejoin:miter">
        <path
           d="m 37.3,230.3 9,0 m 528.7,0 -9,0"
           id="path73"
           inkscape:connector-curvature="0"
           style="stroke:#000000" />
        <g
           transform="translate(29,234.8)"
           font-size="12.00"
           id="g75"
           style="font-size:12px;font-family:Arial;text-anchor:end;fill:#000000;stroke:none">
          <text
             id="text77">
            <tspan
               id="tspan79"
               style="font-family:Arial">-1</tspan>
          </text>
        </g>
      </g>
      <g
         id="g81"
         style="color:#000000;fill:none;stroke:currentColor;stroke-width:1;stroke-linecap:butt;stroke-linejoin:miter">
        <path
           d="m 37.3,159.1 9,0 m 528.7,0 -9,0"
           id="path83"
           inkscape:connector-curvature="0"
           style="stroke:#000000" />
        <g
           transform="translate(29,163.6)"
           font-size="12.00"
           id="g85"
           style="font-size:12px;font-family:Arial;text-anchor:end;fill:#000000;stroke:none">
          <text
             id="text87">
            <tspan
               id="tspan89"
               style="font-family:Arial">0</tspan>
          </text>
        </g>
      </g>
      <g
         id="g91"
         style="color:#000000;fill:none;stroke:currentColor;stroke-width:1;stroke-linecap:butt;stroke-linejoin:miter">
        <path
           d="m 37.3,87.9 9,0 m 528.7,0 -9,0"
           id="path93"
           inkscape:connector-curvature="0"
           style="stroke:#000000" />
        <g
           transform="translate(29,92.4)"
           font-size="12.00"
           id="g95"
           style="font-size:12px;font-family:Arial;text-anchor:end;fill:#000000;stroke:none">
          <text
             id="text97">
            <tspan
               id="tspan99"
               style="font-family:Arial">1</tspan>
          </text>
        </g>
      </g>
      <g
         id="g101"
         style="color:#000000;fill:none;stroke:currentColor;stroke-width:1;stroke-linecap:butt;stroke-linejoin:miter">
        <path
           d="m 37.3,16.7 9,0 m 528.7,0 -9,0"
           id="path103"
           inkscape:connector-curvature="0"
           style="stroke:#000000" />
        <g
           transform="translate(29,21.2)"
           font-size="12.00"
           id="g105"
           style="font-size:12px;font-family:Arial;text-anchor:end;fill:#000000;stroke:none">
          <text
             id="text107">
            <tspan
               id="tspan109"
               style="font-family:Arial">2</tspan>
          </text>
        </g>
      </g>
      <g
         id="g111"
         style="color:#000000;fill:none;stroke:currentColor;stroke-width:1;stroke-linecap:butt;stroke-linejoin:miter">
        <path
           d="m 37.3,444 0,-9 m 0,-418.3 0,9"
           id="path113"
           inkscape:connector-curvature="0"
           style="stroke:#000000" />
        <g
           transform="translate(37.3,466.5)"
           font-size="12.00"
           id="g115"
           style="font-size:12px;font-family:Arial;text-anchor:middle;fill:#000000;stroke:none">
          <text
             id="text117">
            <tspan
               id="tspan119"
               style="font-family:Arial">0</tspan>
          </text>
        </g>
      </g>
      <g
         id="g121"
         style="color:#000000;fill:none;stroke:currentColor;stroke-width:1;stroke-linecap:butt;stroke-linejoin:miter">
        <path
           d="m 171.7,444 0,-9 m 0,-418.3 0,9"
           id="path123"
           inkscape:connector-curvature="0"
           style="stroke:#000000" />
        <g
           transform="translate(171.7,466.5)"
           font-size="12.00"
           id="g125"
           style="font-size:12px;font-family:Arial;text-anchor:middle;fill:#000000;stroke:none">
          <text
             id="text127">
            <tspan
               id="tspan129"
               style="font-family:Arial">0.5</tspan>
          </text>
        </g>
      </g>
      <g
         id="g131"
         style="color:#000000;fill:none;stroke:currentColor;stroke-width:1;stroke-linecap:butt;stroke-linejoin:miter">
        <path
           d="m 306.2,444 0,-9 m 0,-418.3 0,9"
           id="path133"
           inkscape:connector-curvature="0"
           style="stroke:#000000" />
        <g
           transform="translate(306.2,466.5)"
           font-size="12.00"
           id="g135"
           style="font-size:12px;font-family:Arial;text-anchor:middle;fill:#000000;stroke:none">
          <text
             id="text137">
            <tspan
               id="tspan139"
               style="font-family:Arial">1</tspan>
          </text>
        </g>
      </g>
      <g
         id="g141"
         style="color:#000000;fill:none;stroke:currentColor;stroke-width:1;stroke-linecap:butt;stroke-linejoin:miter">
        <path
           d="m 440.6,444 0,-9 m 0,-418.3 0,9"
           id="path143"
           inkscape:connector-curvature="0"
           style="stroke:#000000" />
        <g
           transform="translate(440.6,466.5)"
           font-size="12.00"
           id="g145"
           style="font-size:12px;font-family:Arial;text-anchor:middle;fill:#000000;stroke:none">
          <text
             id="text147">
            <tspan
               id="tspan149"
               style="font-family:Arial">1.5</tspan>
          </text>
        </g>
      </g>
      <g
         id="g151"
         style="color:#000000;fill:none;stroke:currentColor;stroke-width:1;stroke-linecap:butt;stroke-linejoin:miter">
        <path
           d="m 575,444 0,-9 m 0,-418.3 0,9"
           id="path153"
           inkscape:connector-curvature="0"
           style="stroke:#000000" />
        <g
           transform="translate(575,466.5)"
           font-size="12.00"
           id="g155"
           style="font-size:12px;font-family:Arial;text-anchor:middle;fill:#000000;stroke:none">
          <text
             id="text157">
            <tspan
               id="tspan159"
               style="font-family:Arial">2</tspan>
          </text>
        </g>
      </g>
      <g
         id="g161"
         style="color:#000000;fill:none;stroke:currentColor;stroke-width:1;stroke-linecap:butt;stroke-linejoin:miter" />
      <g
         id="g163"
         style="color:#000000;fill:none;stroke:currentColor;stroke-width:1;stroke-linecap:butt;stroke-linejoin:miter">
        <path
           d="m 37.3,16.7 0,427.3 537.7,0 0,-427.3 -537.7,0 z"
           id="path165"
           inkscape:connector-curvature="0"
           style="stroke:#000000" />
      </g>
      <g
         id="g167"
         style="color:#000000;fill:none;stroke:currentColor;stroke-width:1;stroke-linecap:butt;stroke-linejoin:miter" />
      <g
         id="gnuplot_plot_1">
        <title
           id="title170">f(x)</title>
        <g
           id="g172"
           style="color:#000000;fill:none;stroke:currentColor;stroke-width:1;stroke-linecap:butt;stroke-linejoin:miter">
          <g
             transform="translate(507.9,39.2)"
             font-size="12.00"
             id="g174"
             style="font-size:12px;font-family:Arial;text-anchor:end;fill:#000000;stroke:none">
            <text
               id="text176">f(x)</text>
          </g>
        </g>
        <g
           id="g178"
           style="color:#000000;fill:none;stroke:currentColor;stroke-width:1;stroke-linecap:butt;stroke-linejoin:miter">
          <path
             d="m 516.2,34.7 42.2,0 m -521.1,338.1 5.4,2.8 5.5,2.8 5.4,2.8 5.4,2.6 5.5,2.6 5.4,2.6 5.4,2.5 5.5,2.4 5.4,2.4 5.4,2.4 5.4,2.2 5.5,2.2 5.4,2.2 5.4,2.1 5.5,2 5.4,2 5.4,1.9 5.5,1.9 5.4,1.8 5.4,1.7 5.5,1.7 5.4,1.6 5.4,1.6 5.5,1.5 5.4,1.5 5.4,1.3 5.4,1.4 5.5,1.3 5.4,1.2 5.4,1.1 5.5,1.2 5.4,1 5.4,1 5.5,0.9 5.4,0.9 5.4,0.8 5.5,0.8 5.4,0.7 5.4,0.6 5.5,0.6 5.4,0.5 5.4,0.5 5.4,0.4 5.5,0.3 5.4,0.3 5.4,0.2 5.5,0.2 5.4,0.1 5.4,0.1 5.5,0 5.4,-0.1 5.4,-0.1 5.5,-0.2 5.4,-0.2 5.4,-0.3 5.5,-0.3 5.4,-0.4 5.4,-0.5 5.4,-0.5 5.5,-0.6 5.4,-0.6 5.4,-0.7 5.5,-0.8 5.4,-0.8 5.4,-0.9 5.5,-0.9 5.4,-1 5.4,-1 5.5,-1.2 5.4,-1.1 5.4,-1.2 5.5,-1.3 5.4,-1.4 5.4,-1.3 5.4,-1.5 5.5,-1.5 5.4,-1.6 5.4,-1.6 5.5,-1.7 5.4,-1.7 5.4,-1.8 5.5,-1.9 5.4,-1.9 5.4,-2 5.5,-2 5.4,-2.1 5.4,-2.2 5.5,-2.2 5.4,-2.2 5.4,-2.4 5.4,-2.4 5.5,-2.4 5.4,-2.5 5.4,-2.6 5.5,-2.6 5.4,-2.6 5.4,-2.8 5.5,-2.8 5.4,-2.8"
             id="path180"
             inkscape:connector-curvature="0"
             style="stroke:#9400d3" />
        </g>
      </g>
      <g
         id="gnuplot_plot_2">
        <title
           id="title183">f'(x)</title>
        <g
           id="g185"
           style="color:#000000;fill:none;stroke:currentColor;stroke-width:1;stroke-linecap:butt;stroke-linejoin:miter">
          <g
             transform="translate(507.9,57.2)"
             font-size="12.00"
             id="g187"
             style="font-size:12px;font-family:Arial;text-anchor:end;fill:#000000;stroke:none">
            <text
               id="text189">
              <tspan
                 id="tspan191"
                 style="font-family:Arial">f'(x)</tspan>
            </text>
          </g>
        </g>
        <g
           id="g193"
           style="color:#000000;fill:none;stroke:currentColor;stroke-width:1;stroke-linecap:butt;stroke-linejoin:miter">
          <path
             d="m 516.2,52.7 42.2,0 m -521.1,248.9 5.4,-2.9 5.5,-2.9 5.4,-2.9 5.4,-2.8 5.5,-2.9 5.4,-2.9 5.4,-2.9 5.5,-2.9 5.4,-2.8 5.4,-2.9 5.4,-2.9 5.5,-2.9 5.4,-2.8 5.4,-2.9 5.5,-2.9 5.4,-2.9 5.4,-2.8 5.5,-2.9 5.4,-2.9 5.4,-2.9 5.5,-2.9 5.4,-2.8 5.4,-2.9 5.5,-2.9 5.4,-2.9 5.4,-2.8 5.4,-2.9 5.5,-2.9 5.4,-2.9 5.4,-2.9 5.5,-2.8 5.4,-2.9 5.4,-2.9 5.5,-2.9 5.4,-2.8 5.4,-2.9 5.5,-2.9 5.4,-2.9 5.4,-2.9 5.5,-2.8 5.4,-2.9 5.4,-2.9 5.4,-2.9 5.5,-2.8 5.4,-2.9 5.4,-2.9 5.5,-2.9 5.4,-2.9 5.4,-2.8 5.5,-2.9 5.4,-2.9 5.4,-2.9 5.5,-2.8 5.4,-2.9 5.4,-2.9 5.5,-2.9 5.4,-2.8 5.4,-2.9 5.4,-2.9 5.5,-2.9 5.4,-2.9 5.4,-2.8 5.5,-2.9 5.4,-2.9 5.4,-2.9 5.5,-2.8 5.4,-2.9 5.4,-2.9 5.5,-2.9 5.4,-2.9 5.4,-2.8 5.5,-2.9 5.4,-2.9 5.4,-2.9 5.4,-2.8 5.5,-2.9 5.4,-2.9 5.4,-2.9 5.5,-2.9 5.4,-2.8 5.4,-2.9 5.5,-2.9 5.4,-2.9 5.4,-2.8 5.5,-2.9 5.4,-2.9 5.4,-2.9 5.5,-2.8 5.4,-2.9 5.4,-2.9 5.4,-2.9 5.5,-2.9 5.4,-2.8 5.4,-2.9 5.5,-2.9 5.4,-2.9 5.4,-2.8 5.5,-2.9 5.4,-2.9"
             id="path195"
             inkscape:connector-curvature="0"
             style="stroke:#009e73" />
        </g>
      </g>
      <g
         id="gnuplot_plot_3">
        <title
           id="title198">gnuplot_plot_3</title>
        <g
           id="g200"
           style="color:#000000;fill:none;stroke:currentColor;stroke-width:1;stroke-linecap:butt;stroke-linejoin:miter">
          <path
             d="m 37.3,444 5.4,0 5.5,0 5.4,0 5.4,0 5.5,0 5.4,0 5.4,0 5.5,0 5.4,0 5.4,0 5.4,0 5.5,0 5.4,0 5.4,0 5.5,0 5.4,0 5.4,0 5.5,0 5.4,0 5.4,0 5.5,0 5.4,0 5.4,0 5.5,0 5.4,0 5.4,0 5.4,0 5.5,0 5.4,0 5.4,0 5.5,0 5.4,0 5.4,0 5.5,0 5.4,0 5.4,0 5.5,0 5.4,0 5.4,0 5.5,0 5.4,0 5.4,0 5.4,0 5.5,0 5.4,0 5.4,0 5.5,0 5.4,0 5.4,0 5.5,0 5.4,0 5.4,0 5.5,0 5.4,0 5.4,0 5.5,0 5.4,0 5.4,0 5.4,0 5.5,0 5.4,0 5.4,0 5.5,0 5.4,0 5.4,0 5.5,0 5.4,0 5.4,0 5.5,0 5.4,0 5.4,0 5.5,0 5.4,0 5.4,0 5.4,0 5.5,0 5.4,0 5.4,0 5.5,0 5.4,0 5.4,0 5.5,0 5.4,0 5.4,0 5.5,0 5.4,0 5.4,0 5.5,0 5.4,0 5.4,0 5.4,0 5.5,0 5.4,0 5.4,0 5.5,0 5.4,0 5.4,0 5.5,0 5.4,0"
             id="path202"
             inkscape:connector-curvature="0"
             style="stroke:#56b4e9" />
        </g>
      </g>
      <g
         id="g204"
         style="color:#ffffff;fill:none;stroke:#56b4e9;stroke-width:2;stroke-linecap:butt;stroke-linejoin:miter" />
      <g
         id="g206"
         style="color:#000000;fill:none;stroke:currentColor;stroke-width:2;stroke-linecap:butt;stroke-linejoin:miter" />
      <g
         id="g208"
         style="color:#000000;fill:none;stroke:#000000;stroke-width:1;stroke-linecap:butt;stroke-linejoin:miter" />
      <g
         id="g214"
         style="color:#000000;fill:none;stroke:currentColor;stroke-width:1;stroke-linecap:butt;stroke-linejoin:miter" />
    </g>
  </g>
</svg>
