<?xml version="1.0" encoding="UTF-8" standalone="no"?>
<!-- Created with Inkscape (http://www.inkscape.org/) -->

<svg
   xmlns:dc="http://purl.org/dc/elements/1.1/"
   xmlns:cc="http://creativecommons.org/ns#"
   xmlns:rdf="http://www.w3.org/1999/02/22-rdf-syntax-ns#"
   xmlns:svg="http://www.w3.org/2000/svg"
   xmlns="http://www.w3.org/2000/svg"
   xmlns:xlink="http://www.w3.org/1999/xlink"
   xmlns:sodipodi="http://sodipodi.sourceforge.net/DTD/sodipodi-0.dtd"
   xmlns:inkscape="http://www.inkscape.org/namespaces/inkscape"
   width="114.42621mm"
   height="74.815056mm"
   viewBox="0 0 405.4472 265.09272"
   id="svg2"
   version="1.1"
   inkscape:version="0.91 r13725"
   sodipodi:docname="BeweisMittelwertsatz2.svg">
  <sodipodi:namedview
     id="base"
     pagecolor="#ffffff"
     bordercolor="#666666"
     borderopacity="1.0"
     inkscape:pageopacity="0.0"
     inkscape:pageshadow="2"
     inkscape:zoom="1.4142136"
     inkscape:cx="223.50888"
     inkscape:cy="189.41464"
     inkscape:document-units="px"
     inkscape:current-layer="layer1"
     showgrid="false"
     fit-margin-top="5"
     fit-margin-right="5"
     fit-margin-bottom="5"
     fit-margin-left="5"
     inkscape:window-width="1920"
     inkscape:window-height="1030"
     inkscape:window-x="0"
     inkscape:window-y="0"
     inkscape:window-maximized="1"
     showguides="false" />
  <defs
     id="defs4">
    <linearGradient
       inkscape:collect="always"
       id="linearGradient4379">
      <stop
         style="stop-color:#000080;stop-opacity:1;"
         offset="0"
         id="stop4381" />
      <stop
         style="stop-color:#000080;stop-opacity:0;"
         offset="1"
         id="stop4383" />
    </linearGradient>
    <marker
       inkscape:stockid="Arrow1Mend"
       orient="auto"
       refY="0"
       refX="0"
       id="marker4309"
       style="overflow:visible"
       inkscape:isstock="true">
      <path
         inkscape:connector-curvature="0"
         id="path4311"
         d="M 0,0 5,-5 -12.5,0 5,5 0,0 Z"
         style="fill:#000080;fill-opacity:1;fill-rule:evenodd;stroke:#000080;stroke-width:1pt;stroke-opacity:1"
         transform="matrix(-0.4,0,0,-0.4,-4,0)" />
    </marker>
    <marker
       inkscape:isstock="true"
       style="overflow:visible"
       id="marker4479"
       refX="0"
       refY="0"
       orient="auto"
       inkscape:stockid="Arrow1Mend">
      <path
         transform="matrix(-0.4,0,0,-0.4,-4,0)"
         style="fill:#000080;fill-opacity:1;fill-rule:evenodd;stroke:#000080;stroke-width:1pt;stroke-opacity:1"
         d="M 0,0 5,-5 -12.5,0 5,5 0,0 Z"
         id="path4481"
         inkscape:connector-curvature="0" />
    </marker>
    <linearGradient
       inkscape:collect="always"
       xlink:href="#linearGradient4379"
       id="linearGradient4385"
       x1="23.281637"
       y1="3.3627977"
       x2="358.68277"
       y2="1.1801438"
       gradientUnits="userSpaceOnUse"
       gradientTransform="matrix(0.64935062,-0.3069372,2.2239476,0.05954491,24.638248,65.471211)" />
  </defs>
  <metadata
     id="metadata7">
    <rdf:RDF>
      <cc:Work
         rdf:about="">
        <dc:format>image/svg+xml</dc:format>
        <dc:type
           rdf:resource="http://purl.org/dc/dcmitype/StillImage" />
        <dc:title></dc:title>
      </cc:Work>
    </rdf:RDF>
  </metadata>
  <g
     inkscape:label="f(a) and f(b)"
     inkscape:groupmode="layer"
     id="layer1"
     transform="translate(-85.210959,-303.93864)">
    <circle
       style="fill:#000000;fill-opacity:1;stroke:none;stroke-width:1;stroke-linecap:round;stroke-miterlimit:4;stroke-dasharray:none;stroke-opacity:1"
       id="path3346-0"
       cx="458.4809"
       cy="524.16052"
       r="3.6932428" />
    <circle
       style="fill:#000000;fill-opacity:1;stroke:none;stroke-width:1;stroke-linecap:round;stroke-miterlimit:4;stroke-dasharray:none;stroke-opacity:1"
       id="path3346"
       cx="123.29427"
       cy="524.16052"
       r="3.7374368" />
    <g
       id="g6820"
       style="stroke-width:0.2;stroke-miterlimit:4;stroke-dasharray:none"
       transform="translate(65.882251,389.61584)">
      <g
         word-spacing="normal"
         letter-spacing="normal"
         font-size-adjust="none"
         font-stretch="normal"
         font-weight="normal"
         font-variant="normal"
         font-style="normal"
         stroke-miterlimit="10.433"
         xml:space="preserve"
         transform="matrix(0.36583905,0,0,-0.36583905,-64.021834,283.62461)"
         id="content"
         style="font-style:normal;font-variant:normal;font-weight:normal;font-stretch:normal;letter-spacing:normal;word-spacing:normal;text-anchor:start;fill:none;fill-opacity:1;fill-rule:evenodd;stroke:#000000;stroke-width:0.5466885;stroke-linecap:butt;stroke-linejoin:miter;stroke-miterlimit:4;stroke-dasharray:none;stroke-dashoffset:0;stroke-opacity:1"><path
           id="path6823"
           d="m 1225,376.19 0.1,0.16 0,0.16 0,0.15 0.1,0.14 0,0.14 0.1,0.12 0,0.13 0,0.11 0.1,0.11 0,0.1 0.1,0.1 0.1,0.09 0,0.08 0.1,0.08 0.1,0.08 0.1,0.06 0.1,0.07 0.1,0.05 0.1,0.06 0.2,0.05 0.1,0.04 0.1,0.02 0.1,0.02 0.1,0.01 0.1,0.02 0.1,0.02 0.1,0.01 0.1,0.01 0.1,0.02 0.1,0.01 0.1,0.01 0.1,0.01 0.1,0.01 0.2,0.01 0.1,0 0.1,0.01 0.2,0 0.1,0.01 0.1,0 0.2,0 0.2,0.01 0.1,0 0.2,0 c 1.3,0 1.7,0 1.7,0.99 0,0.55 -0.6,0.55 -0.7,0.55 l -12.8,0 c -0.4,0 -1,0 -1,-0.99 0,-0.55 0.5,-0.55 1.4,-0.55 0.1,0 1.1,0 1.9,-0.1 0.9,-0.1 1.4,-0.15 1.4,-0.8 0,-0.2 -0.1,-0.3 -0.2,-0.94 l -3,-12.16 -15.2,0 2.9,11.71 c 0.5,1.79 0.6,2.29 4.2,2.29 1.3,0 1.7,0 1.7,0.99 0,0.55 -0.5,0.55 -0.7,0.55 l -12.8,0 c -0.4,0 -0.9,0 -0.9,-0.99 0,-0.55 0.4,-0.55 1.4,-0.55 0.1,0 1,0 1.8,-0.1 0.9,-0.1 1.4,-0.15 1.4,-0.8 0,-0.2 -0.1,-0.35 -0.2,-0.94 l -6.7,-26.75 c -0.5,-1.95 -0.6,-2.35 -4.5,-2.35 -0.9,0 -1.4,0 -1.4,-0.99 0,-0.55 0.6,-0.55 0.7,-0.55 1.4,0 5,0.15 6.4,0.15 1,0 2.1,-0.05 3.2,-0.05 1,0 2.1,-0.1 3.2,-0.1 0.4,0 1,0 1,1 0,0.54 -0.5,0.54 -1.4,0.54 -1.8,0 -3.2,0 -3.2,0.9 0,0.3 0.1,0.55 0.1,0.85 l 3.4,13.65 15.2,0 c -2.1,-8.27 -3.3,-13.01 -3.4,-13.75 -0.5,-1.6 -1.5,-1.65 -4.6,-1.65 -0.7,0 -1.2,0 -1.2,-0.99 0,-0.55 0.6,-0.55 0.7,-0.55 1.4,0 4.9,0.15 6.3,0.15 1.1,0 2.2,-0.05 3.2,-0.05 1.1,0 2.2,-0.1 3.3,-0.1 0.4,0 1,0 1,1 0,0.54 -0.5,0.54 -1.4,0.54 -1.9,0 -3.3,0 -3.3,0.9 0,0.3 0.1,0.55 0.2,0.85 z"
           style="fill:#000000;stroke-width:0.5466885;stroke-miterlimit:4;stroke-dasharray:none"
           inkscape:connector-curvature="0" /><path
           id="path6825"
           d="m 1249.5,334.04 0,0.03 0,0.03 0,0.01 0,0.02 0,0.01 0,0.02 0,0.02 0,0.01 0,0.02 -0.1,0.02 0,0.03 0,0.02 0,0.02 0,0.03 0,0.03 -0.1,0.03 0,0.03 0,0.04 0,0.02 -0.1,0.02 0,0.02 0,0.02 0,0.02 0,0.03 0,0.02 -0.1,0.02 0,0.03 0,0.02 0,0.03 -0.1,0.03 0,0.03 0,0.03 0,0.03 -0.1,0.03 0,0.03 0,0.03 -0.1,0.04 0,0.03 0,0.04 -0.1,0.03 0,0.04 -0.1,0.04 c -6.2,6.28 -7.8,15.69 -7.8,23.31 0,8.67 1.9,17.34 8,23.57 0.7,0.59 0.7,0.69 0.7,0.84 0,0.35 -0.2,0.5 -0.5,0.5 -0.5,0 -5,-3.39 -7.9,-9.72 -2.6,-5.47 -3.2,-11 -3.2,-15.19 0,-3.88 0.6,-9.91 3.3,-15.54 3,-6.12 7.3,-9.36 7.8,-9.36 0.3,0 0.5,0.15 0.5,0.49 z"
           style="fill:#000000;stroke-width:0.5466885;stroke-miterlimit:4;stroke-dasharray:none"
           inkscape:connector-curvature="0" /><path
           id="path6827"
           d="m 1263.9,380.02 0,0.01 0,0 0,0.01 0,0.01 0,0.01 0,0.01 0,0.02 0,0.02 0,0.02 0,0.02 0,0.02 0,0.02 0,0.03 0,0.02 0,0.03 -0.1,0.02 0,0.02 0,0.03 0,0.02 0,0.03 0,0.02 -0.1,0.01 0,0.01 0,0.01 0,0.01 0,0.01 0,0.01 0,0.01 -0.1,0.01 0,0.01 0,0.01 0,0.01 0,0 -0.1,0.01 0,0.01 0,0 0,0.01 0,0 -0.1,0.01 0,0 0,0 -0.1,0.01 0,0 0,0 0,0 c -1.2,0 -4.8,-0.4 -6.1,-0.5 -0.4,-0.05 -1,-0.1 -1,-1 0,-0.59 0.5,-0.59 1.2,-0.59 2.4,0 2.5,-0.35 2.5,-0.85 0,-0.35 -0.4,-2.04 -0.7,-3.09 l -4.1,-16.24 c -0.6,-2.49 -0.8,-3.28 -0.8,-5.03 0,-4.73 2.7,-7.82 6.4,-7.82 l 0,1.1 c -1.7,0 -3.4,1.34 -3.4,5.03 0,0.95 0,1.89 0.8,5.03 l 1.1,4.58 c 0.3,1.1 0.3,1.2 0.8,1.75 2.4,3.24 4.7,3.98 5.9,3.98 1.8,0 3.2,-1.49 3.2,-4.68 0,-2.94 -1.7,-8.67 -2.5,-10.56 -1.7,-3.34 -4,-5.13 -5.9,-5.13 l 0,-1.1 c 5.9,0 12,7.43 12,14.6 0,4.53 -2.7,7.97 -6.6,7.97 -2.3,0 -4.4,-1.45 -5.9,-2.99 z"
           style="fill:#000000;stroke-width:0.5466885;stroke-miterlimit:4;stroke-dasharray:none"
           inkscape:connector-curvature="0" /><path
           id="path6829"
           d="m 1287.4,358.45 0,0.37 0,0.39 0,0.39 0,0.41 -0.1,0.84 0,0.88 -0.1,0.92 -0.1,0.94 -0.2,0.98 -0.1,1 -0.2,1.02 -0.2,1.04 -0.3,1.05 -0.3,1.06 -0.4,1.06 -0.4,1.07 -0.2,0.53 -0.2,0.54 -0.2,0.53 -0.3,0.53 c -3,6.12 -7.3,9.36 -7.8,9.36 -0.3,0 -0.5,-0.2 -0.5,-0.5 0,-0.15 0,-0.25 1,-1.15 4.9,-4.92 7.7,-12.85 7.7,-23.26 0,-8.52 -1.8,-17.28 -8,-23.56 -0.7,-0.6 -0.7,-0.69 -0.7,-0.85 0,-0.29 0.2,-0.49 0.5,-0.49 0.5,0 5,3.38 8,9.71 2.5,5.48 3.1,11.01 3.1,15.19 z"
           style="fill:#000000;stroke-width:0.5466885;stroke-miterlimit:4;stroke-dasharray:none"
           inkscape:connector-curvature="0" /></g>    </g>
    <g
       id="g6966"
       transform="translate(-267.16504,389.61584)"
       style="stroke-width:0.2;stroke-miterlimit:4;stroke-dasharray:none">
      <g
         id="g6968"
         transform="matrix(0.36583905,0,0,-0.36583905,-64.021834,283.62461)"
         xml:space="preserve"
         stroke-miterlimit="10.433"
         font-style="normal"
         font-variant="normal"
         font-weight="normal"
         font-stretch="normal"
         font-size-adjust="none"
         letter-spacing="normal"
         word-spacing="normal"
         style="font-style:normal;font-variant:normal;font-weight:normal;font-stretch:normal;letter-spacing:normal;word-spacing:normal;text-anchor:start;fill:none;fill-opacity:1;fill-rule:evenodd;stroke:#000000;stroke-width:0.5466885;stroke-linecap:butt;stroke-linejoin:miter;stroke-miterlimit:4;stroke-dasharray:none;stroke-dashoffset:0;stroke-opacity:1"><path
           d="m 1223,376.19 0.1,0.16 0,0.16 0,0.15 0.1,0.14 0,0.14 0.1,0.12 0,0.13 0,0.11 0.1,0.11 0,0.1 0.1,0.1 0.1,0.09 0,0.08 0.1,0.08 0.1,0.08 0.1,0.06 0.1,0.07 0.1,0.05 0.1,0.06 0.2,0.05 0.1,0.04 0.1,0.02 0.1,0.02 0.1,0.01 0.1,0.02 0.1,0.02 0.1,0.01 0.1,0.01 0.1,0.02 0.1,0.01 0.1,0.01 0.1,0.01 0.1,0.01 0.2,0.01 0.1,0 0.1,0.01 0.2,0 0.1,0.01 0.1,0 0.2,0 0.2,0.01 0.1,0 0.2,0 c 1.3,0 1.7,0 1.7,0.99 0,0.55 -0.6,0.55 -0.7,0.55 l -12.8,0 c -0.4,0 -1,0 -1,-0.99 0,-0.55 0.5,-0.55 1.4,-0.55 0.1,0 1.1,0 1.9,-0.1 0.9,-0.1 1.4,-0.15 1.4,-0.8 0,-0.2 -0.1,-0.3 -0.2,-0.94 l -3,-12.16 -15.2,0 2.9,11.71 c 0.5,1.79 0.6,2.29 4.2,2.29 1.3,0 1.7,0 1.7,0.99 0,0.55 -0.5,0.55 -0.7,0.55 l -12.8,0 c -0.4,0 -0.9,0 -0.9,-0.99 0,-0.55 0.4,-0.55 1.4,-0.55 0.1,0 1,0 1.8,-0.1 0.9,-0.1 1.4,-0.15 1.4,-0.8 0,-0.2 -0.1,-0.35 -0.2,-0.94 l -6.7,-26.75 c -0.5,-1.95 -0.6,-2.35 -4.5,-2.35 -0.9,0 -1.4,0 -1.4,-0.99 0,-0.55 0.6,-0.55 0.7,-0.55 1.4,0 5,0.15 6.4,0.15 1,0 2.1,-0.05 3.2,-0.05 1,0 2.1,-0.1 3.2,-0.1 0.4,0 1,0 1,1 0,0.54 -0.5,0.54 -1.4,0.54 -1.8,0 -3.2,0 -3.2,0.9 0,0.3 0.1,0.55 0.1,0.85 l 3.4,13.65 15.2,0 c -2.1,-8.27 -3.3,-13.01 -3.4,-13.75 -0.5,-1.6 -1.5,-1.65 -4.6,-1.65 -0.7,0 -1.2,0 -1.2,-0.99 0,-0.55 0.6,-0.55 0.7,-0.55 1.4,0 4.9,0.15 6.3,0.15 1.1,0 2.2,-0.05 3.2,-0.05 1.1,0 2.2,-0.1 3.3,-0.1 0.4,0 1,0 1,1 0,0.54 -0.5,0.54 -1.4,0.54 -1.9,0 -3.3,0 -3.3,0.9 0,0.3 0.1,0.55 0.2,0.85 z"
           id="path6970"
           inkscape:connector-curvature="0"
           style="fill:#000000;stroke-width:0.5466885;stroke-miterlimit:4;stroke-dasharray:none" /><path
           d="m 1246.5,334.04 0,0.03 0,0.03 0,0.01 0,0.02 0,0.01 0,0.02 0,0.02 0,0.01 0,0.02 -0.1,0.02 0,0.03 0,0.02 0,0.02 0,0.03 0,0.03 -0.1,0.03 0,0.03 0,0.04 0,0.02 -0.1,0.02 0,0.02 0,0.02 0,0.02 0,0.03 0,0.02 -0.1,0.02 0,0.03 0,0.02 0,0.03 -0.1,0.03 0,0.03 0,0.03 0,0.03 -0.1,0.03 0,0.03 0,0.03 -0.1,0.04 0,0.03 0,0.04 -0.1,0.03 0,0.04 -0.1,0.04 c -6.2,6.28 -7.8,15.69 -7.8,23.31 0,8.67 1.9,17.34 8,23.57 0.7,0.59 0.7,0.69 0.7,0.84 0,0.35 -0.2,0.5 -0.5,0.5 -0.5,0 -5,-3.39 -7.9,-9.72 -2.6,-5.47 -3.2,-11 -3.2,-15.19 0,-3.88 0.6,-9.91 3.3,-15.54 3,-6.12 7.3,-9.36 7.8,-9.36 0.3,0 0.5,0.15 0.5,0.49 z"
           id="path6972"
           inkscape:connector-curvature="0"
           style="fill:#000000;stroke-width:0.5466885;stroke-miterlimit:4;stroke-dasharray:none" /><path
           d="m 1268.6,364.83 -0.1,0.17 -0.1,0.17 -0.1,0.16 -0.1,0.16 -0.1,0.16 -0.1,0.16 -0.1,0.15 -0.1,0.14 -0.1,0.15 -0.1,0.13 -0.2,0.14 -0.1,0.13 -0.1,0.12 -0.1,0.12 -0.2,0.11 -0.1,0.11 -0.2,0.11 -0.1,0.09 -0.1,0.1 -0.2,0.08 -0.2,0.08 -0.1,0.08 -0.2,0.07 -0.2,0.06 -0.1,0.05 -0.2,0.05 -0.2,0.04 -0.2,0.03 -0.2,0.03 -0.2,0.02 -0.2,0.01 -0.2,0.01 0.1,-1.1 c 3.2,0 3.9,-4.08 3.9,-4.38 0,-0.3 -0.1,-0.6 -0.2,-0.85 l -2.5,-9.76 c -0.2,-0.9 -0.2,-1 -1,-1.84 -2.1,-2.75 -4.2,-3.54 -5.6,-3.54 -2.5,0 -3.2,2.74 -3.2,4.68 0,2.49 1.6,8.62 2.8,10.91 1.5,2.94 3.8,4.78 5.8,4.78 l -0.1,1.1 c -5.8,0 -12,-7.32 -12,-14.6 0,-4.68 2.7,-7.97 6.6,-7.97 1,0 3.5,0.2 6.5,3.74 0.4,-2.09 2.1,-3.74 4.5,-3.74 1.8,0 2.9,1.15 3.7,2.74 0.9,1.79 1.5,4.83 1.5,4.93 0,0.5 -0.4,0.5 -0.6,0.5 -0.5,0 -0.5,-0.2 -0.7,-0.89 -0.8,-3.24 -1.7,-6.18 -3.8,-6.18 -1.3,0 -1.5,1.29 -1.5,2.29 0,1.09 0.1,1.49 0.7,3.69 0.5,2.09 0.6,2.59 1.1,4.48 l 1.8,6.97 c 0.3,1.4 0.3,1.5 0.3,1.7 0,0.84 -0.6,1.34 -1.4,1.34 -1.2,0 -2,-1.09 -2.1,-2.19 z"
           id="path6974"
           inkscape:connector-curvature="0"
           style="fill:#000000;stroke-width:0.5466885;stroke-miterlimit:4;stroke-dasharray:none" /><path
           d="m 1290.4,358.45 0,0.37 0,0.39 0,0.39 0,0.41 -0.1,0.84 0,0.88 -0.1,0.92 -0.1,0.94 -0.2,0.98 -0.1,1 -0.2,1.02 -0.2,1.04 -0.3,1.05 -0.3,1.06 -0.4,1.06 -0.4,1.07 -0.2,0.53 -0.2,0.54 -0.2,0.53 -0.3,0.53 c -3,6.12 -7.3,9.36 -7.8,9.36 -0.3,0 -0.5,-0.2 -0.5,-0.5 0,-0.15 0,-0.25 1,-1.15 4.9,-4.92 7.7,-12.85 7.7,-23.26 0,-8.52 -1.8,-17.28 -8,-23.56 -0.7,-0.6 -0.7,-0.69 -0.7,-0.85 0,-0.29 0.2,-0.49 0.5,-0.49 0.5,0 5,3.38 8,9.71 2.5,5.48 3.1,11.01 3.1,15.19 z"
           id="path6976"
           inkscape:connector-curvature="0"
           style="fill:#000000;stroke-width:0.5466885;stroke-miterlimit:4;stroke-dasharray:none" /></g>    </g>
    <g
       id="g7124"
       transform="translate(-112.44544,184.96373)"
       style="fill:#000080;fill-opacity:1;stroke:#000080;stroke-width:0.2;stroke-miterlimit:4;stroke-dasharray:none;stroke-opacity:1">
      <g
         word-spacing="normal"
         letter-spacing="normal"
         font-size-adjust="none"
         font-stretch="normal"
         font-weight="normal"
         font-variant="normal"
         font-style="normal"
         stroke-miterlimit="10.433"
         xml:space="preserve"
         transform="matrix(0.36583905,0,0,-0.36583905,-64.021834,283.62461)"
         id="g7126"
         style="font-style:normal;font-variant:normal;font-weight:normal;font-stretch:normal;letter-spacing:normal;word-spacing:normal;text-anchor:start;fill:#000080;fill-opacity:1;fill-rule:evenodd;stroke:#000080;stroke-width:0.5466885;stroke-linecap:butt;stroke-linejoin:miter;stroke-miterlimit:4;stroke-dasharray:none;stroke-dashoffset:0;stroke-opacity:1"><path
           id="path7128"
           d="m 904.01,360.19 0.04,0.16 0.04,0.16 0.04,0.15 0.04,0.14 0.04,0.14 0.04,0.12 0.04,0.13 0.05,0.11 0.05,0.11 0.05,0.1 0.06,0.1 0.07,0.09 0.07,0.08 0.08,0.08 0.09,0.08 0.09,0.06 0.11,0.07 0.11,0.05 0.13,0.06 0.14,0.05 0.15,0.04 0.16,0.04 0.09,0.01 0.09,0.02 0.09,0.02 0.1,0.01 0.1,0.01 0.1,0.02 0.11,0.01 0.11,0.01 0.12,0.01 0.12,0.01 0.13,0.01 0.13,0 0.13,0.01 0.14,0 0.14,0.01 0.15,0 0.15,0 0.16,0.01 0.16,0 0.17,0 c 1.3,0 1.7,0 1.7,0.99 0,0.55 -0.55,0.55 -0.7,0.55 l -12.8,0 c -0.4,0 -0.95,0 -0.95,-0.99 0,-0.55 0.45,-0.55 1.4,-0.55 0.09,0 1.04,0 1.89,-0.1 0.89,-0.1 1.34,-0.15 1.34,-0.8 0,-0.2 -0.05,-0.3 -0.2,-0.94 l -2.99,-12.16 -15.19,0 2.94,11.71 c 0.45,1.79 0.6,2.29 4.18,2.29 1.3,0 1.7,0 1.7,0.99 0,0.55 -0.55,0.55 -0.7,0.55 l -12.8,0 c -0.4,0 -0.95,0 -0.95,-0.99 0,-0.55 0.45,-0.55 1.4,-0.55 0.1,0 1.04,0 1.89,-0.1 0.9,-0.1 1.35,-0.15 1.35,-0.8 0,-0.2 -0.05,-0.35 -0.2,-0.94 l -6.68,-26.75 c -0.5,-1.95 -0.6,-2.35 -4.53,-2.35 -0.9,0 -1.35,0 -1.35,-0.99 0,-0.55 0.6,-0.55 0.7,-0.55 1.39,0 4.93,0.15 6.33,0.15 1.04,0 2.14,-0.05 3.19,-0.05 1.09,0 2.19,-0.1 3.23,-0.1 0.4,0 1,0 1,1 0,0.54 -0.45,0.54 -1.4,0.54 -1.84,0 -3.23,0 -3.23,0.9 0,0.3 0.09,0.55 0.15,0.85 l 3.38,13.65 15.19,0 c -2.08,-8.27 -3.23,-13.01 -3.43,-13.75 -0.5,-1.6 -1.45,-1.65 -4.53,-1.65 -0.75,0 -1.2,0 -1.2,-0.99 0,-0.55 0.6,-0.55 0.7,-0.55 1.39,0 4.93,0.15 6.32,0.15 1.05,0 2.14,-0.05 3.19,-0.05 1.1,0 2.19,-0.1 3.24,-0.1 0.4,0 1,0 1,1 0,0.54 -0.45,0.54 -1.4,0.54 -1.84,0 -3.24,0 -3.24,0.9 0,0.3 0.1,0.55 0.15,0.85 z"
           inkscape:connector-curvature="0"
           style="fill:#000080;fill-opacity:1;stroke:#000080;stroke-width:0.5466885;stroke-miterlimit:4;stroke-dasharray:none;stroke-opacity:1" /><path
           id="path7130"
           d="m 927.49,318.04 0,0.03 0,0.03 -0.01,0.01 0,0.02 0,0.01 -0.01,0.02 0,0.02 -0.01,0.01 -0.01,0.02 -0.01,0.02 -0.01,0.03 -0.01,0.02 -0.02,0.02 -0.02,0.03 -0.02,0.03 -0.02,0.03 -0.03,0.03 -0.03,0.04 -0.01,0.02 -0.02,0.02 -0.02,0.02 -0.02,0.02 -0.02,0.02 -0.02,0.03 -0.02,0.02 -0.02,0.02 -0.02,0.03 -0.03,0.02 -0.02,0.03 -0.03,0.03 -0.02,0.03 -0.03,0.03 -0.03,0.03 -0.03,0.03 -0.03,0.03 -0.03,0.03 -0.04,0.04 -0.03,0.03 -0.04,0.04 -0.03,0.03 -0.04,0.04 -0.04,0.04 c -6.23,6.28 -7.82,15.69 -7.82,23.31 0,8.67 1.9,17.34 8.02,23.57 0.65,0.59 0.65,0.69 0.65,0.84 0,0.35 -0.2,0.5 -0.5,0.5 -0.5,0 -4.98,-3.39 -7.92,-9.72 -2.54,-5.47 -3.14,-11 -3.14,-15.19 0,-3.88 0.55,-9.91 3.29,-15.54 2.99,-6.12 7.27,-9.36 7.77,-9.36 0.3,0 0.5,0.15 0.5,0.49 z"
           inkscape:connector-curvature="0"
           style="fill:#000080;fill-opacity:1;stroke:#000080;stroke-width:0.5466885;stroke-miterlimit:4;stroke-dasharray:none;stroke-opacity:1" /><path
           id="path7132"
           d="m 946.64,345.04 0.03,0.13 0.03,0.15 0.05,0.17 0.04,0.18 0.06,0.19 0.06,0.21 0.06,0.21 0.07,0.23 0.08,0.23 0.09,0.24 0.1,0.25 0.1,0.24 0.11,0.25 0.12,0.25 0.13,0.25 0.14,0.25 0.15,0.24 0.15,0.24 0.17,0.23 0.18,0.22 0.18,0.22 0.2,0.2 0.21,0.19 0.22,0.18 0.23,0.16 0.25,0.14 0.12,0.07 0.13,0.06 0.13,0.05 0.14,0.05 0.14,0.05 0.14,0.04 0.14,0.03 0.15,0.03 0.15,0.02 0.16,0.02 0.16,0.01 0.16,0 c 0.25,0 1.45,0 2.49,-0.65 -1.4,-0.25 -2.39,-1.49 -2.39,-2.68 0,-0.8 0.55,-1.75 1.89,-1.75 1.1,0 2.69,0.9 2.69,2.89 0,2.59 -2.94,3.29 -4.63,3.29 -2.89,0 -4.64,-2.64 -5.23,-3.79 -1.24,3.29 -3.94,3.79 -5.38,3.79 -5.18,0 -8.02,-6.43 -8.02,-7.67 0,-0.5 0.5,-0.5 0.6,-0.5 0.39,0 0.54,0.1 0.64,0.54 1.7,5.29 4.99,6.53 6.68,6.53 0.94,0 2.69,-0.45 2.69,-3.33 0,-1.55 -0.85,-4.89 -2.69,-11.86 -0.8,-3.09 -2.54,-5.18 -4.73,-5.18 -0.3,0 -1.45,0 -2.49,0.65 1.24,0.25 2.34,1.29 2.34,2.69 0,1.34 -1.1,1.74 -1.85,1.74 -1.49,0 -2.73,-1.3 -2.73,-2.89 0,-2.29 2.48,-3.29 4.68,-3.29 3.28,0 5.08,3.49 5.22,3.79 0.61,-1.85 2.4,-3.79 5.39,-3.79 5.13,0 7.97,6.43 7.97,7.67 0,0.5 -0.45,0.5 -0.6,0.5 -0.45,0 -0.55,-0.2 -0.65,-0.55 -1.64,-5.33 -5.03,-6.52 -6.62,-6.52 -1.94,0 -2.74,1.59 -2.74,3.29 0,1.09 0.3,2.19 0.85,4.38 z"
           inkscape:connector-curvature="0"
           style="fill:#000080;fill-opacity:1;stroke:#000080;stroke-width:0.5466885;stroke-miterlimit:4;stroke-dasharray:none;stroke-opacity:1" /><path
           id="path7134"
           d="m 973.4,342.45 -0.01,0.37 0,0.39 -0.01,0.39 -0.01,0.41 -0.04,0.84 -0.06,0.88 -0.09,0.92 -0.1,0.94 -0.14,0.98 -0.16,1 -0.2,1.02 -0.23,1.04 -0.27,1.05 -0.3,1.06 -0.35,1.06 -0.39,1.07 -0.22,0.53 -0.22,0.54 -0.24,0.53 -0.25,0.53 c -2.99,6.12 -7.27,9.36 -7.77,9.36 -0.3,0 -0.5,-0.2 -0.5,-0.5 0,-0.15 0,-0.25 0.94,-1.15 4.89,-4.92 7.73,-12.85 7.73,-23.26 0,-8.52 -1.85,-17.28 -8.02,-23.56 -0.65,-0.6 -0.65,-0.69 -0.65,-0.85 0,-0.29 0.2,-0.49 0.5,-0.49 0.5,0 4.98,3.38 7.92,9.71 2.54,5.48 3.14,11.01 3.14,15.19 z"
           inkscape:connector-curvature="0"
           style="fill:#000080;fill-opacity:1;stroke:#000080;stroke-width:0.5466885;stroke-miterlimit:4;stroke-dasharray:none;stroke-opacity:1" /><path
           id="path7136"
           d="m 1026.2,346.29 0.2,0 0.1,0 0.2,0.01 0,0 0.1,0 0.1,0.01 0,0.01 0.1,0.01 0.1,0.01 0.1,0.02 0,0.01 0.1,0.02 0,0.02 0.1,0.03 0.1,0.03 0,0.03 0.1,0.03 0,0.04 0.1,0.04 0,0.05 0.1,0.05 0,0.03 0,0.02 0,0.03 0,0.03 0,0.03 0,0.04 0.1,0.03 0,0.04 0,0.03 0,0.04 0,0.04 0,0.04 0,0.04 0,0.04 0,0.05 0,0.05 c 0,0.99 -0.9,0.99 -1.6,0.99 l -29.87,0 c -0.7,0 -1.64,0 -1.64,-0.99 0,-1 0.94,-1 1.69,-1 z"
           inkscape:connector-curvature="0"
           style="fill:#000080;fill-opacity:1;stroke:#000080;stroke-width:0.5466885;stroke-miterlimit:4;stroke-dasharray:none;stroke-opacity:1" /><path
           id="path7138"
           d="m 1026.3,336.62 0.1,0.01 0.1,0 0.2,0 0.1,0.01 0,0 0.1,0.01 0.1,0.01 0,0.01 0.1,0.01 0.1,0.01 0,0.02 0.1,0.02 0.1,0.02 0,0.02 0.1,0.03 0,0.03 0.1,0.04 0,0.04 0.1,0.04 0,0.04 0,0.03 0.1,0.03 0,0.02 0,0.03 0,0.03 0,0.03 0,0.03 0,0.03 0.1,0.04 0,0.03 0,0.04 0,0.04 0,0.04 0,0.04 0,0.04 0,0.04 0,0.05 0,0.04 c 0,1 -0.9,1 -1.7,1 l -29.72,0 c -0.75,0 -1.69,0 -1.69,-1 0,-1 0.94,-1 1.64,-1 z"
           inkscape:connector-curvature="0"
           style="fill:#000080;fill-opacity:1;stroke:#000080;stroke-width:0.5466885;stroke-miterlimit:4;stroke-dasharray:none;stroke-opacity:1" /><path
           id="path7140"
           d="m 1063.3,349.93 4.3,0 c 1,0 1.5,0 1.5,0.99 0,0.55 -0.5,0.55 -1.4,0.55 l -4.1,0 1,5.68 c 0.2,1.05 0.9,4.58 1.2,5.18 0.5,0.94 1.3,1.69 2.4,1.69 0.2,0 1.5,0 2.4,-0.9 -2.2,-0.19 -2.7,-1.94 -2.7,-2.68 0,-1.15 0.9,-1.75 1.9,-1.75 1.3,0 2.7,1.1 2.7,2.99 0,2.29 -2.3,3.44 -4.3,3.44 -1.7,0 -4.9,-0.9 -6.4,-5.83 -0.3,-1.05 -0.4,-1.54 -1.6,-7.82 l -3.4,0 c -1,0 -1.5,0 -1.5,-0.95 0,-0.59 0.4,-0.59 1.4,-0.59 l 3.2,0 -3.7,-19.68 c -0.9,-4.83 -1.7,-9.37 -4.3,-9.37 -0.2,0 -1.5,0 -2.4,0.9 2.3,0.15 2.7,1.94 2.7,2.69 0,1.15 -0.9,1.74 -1.8,1.74 -1.3,0 -2.8,-1.09 -2.8,-2.98 0,-2.25 2.2,-3.44 4.3,-3.44 2.7,0 4.7,2.94 5.6,4.83 1.6,3.14 2.7,9.17 2.8,9.51 z"
           inkscape:connector-curvature="0"
           style="fill:#000080;fill-opacity:1;stroke:#000080;stroke-width:0.5466885;stroke-miterlimit:4;stroke-dasharray:none;stroke-opacity:1" /><path
           id="path7142"
           d="m 1090.5,318.04 0,0.03 0,0.03 0,0.01 0,0.02 0,0.01 0,0.02 0,0.02 0,0.01 0,0.02 -0.1,0.02 0,0.03 0,0.02 0,0.02 0,0.03 0,0.03 -0.1,0.03 0,0.03 0,0.04 0,0.02 -0.1,0.02 0,0.02 0,0.02 0,0.02 0,0.03 0,0.02 -0.1,0.02 0,0.03 0,0.02 0,0.03 -0.1,0.03 0,0.03 0,0.03 0,0.03 -0.1,0.03 0,0.03 0,0.03 -0.1,0.04 0,0.03 0,0.04 -0.1,0.03 0,0.04 -0.1,0.04 c -6.2,6.28 -7.8,15.69 -7.8,23.31 0,8.67 1.9,17.34 8,23.57 0.7,0.59 0.7,0.69 0.7,0.84 0,0.35 -0.2,0.5 -0.5,0.5 -0.5,0 -5,-3.39 -7.9,-9.72 -2.6,-5.47 -3.2,-11 -3.2,-15.19 0,-3.88 0.6,-9.91 3.3,-15.54 3,-6.12 7.3,-9.36 7.8,-9.36 0.3,0 0.5,0.15 0.5,0.49 z"
           inkscape:connector-curvature="0"
           style="fill:#000080;fill-opacity:1;stroke:#000080;stroke-width:0.5466885;stroke-miterlimit:4;stroke-dasharray:none;stroke-opacity:1" /><path
           id="path7144"
           d="m 1110.6,345.04 0.1,0.13 0,0.15 0,0.17 0.1,0.18 0,0.19 0.1,0.21 0.1,0.21 0,0.23 0.1,0.23 0.1,0.24 0.1,0.25 0.1,0.24 0.1,0.25 0.1,0.25 0.2,0.25 0.1,0.25 0.2,0.24 0.1,0.24 0.2,0.23 0.2,0.22 0.1,0.22 0.2,0.2 0.2,0.19 0.3,0.18 0.2,0.16 0.2,0.14 0.2,0.07 0.1,0.06 0.1,0.05 0.2,0.05 0.1,0.05 0.1,0.04 0.2,0.03 0.1,0.03 0.2,0.02 0.1,0.02 0.2,0.01 0.2,0 c 0.2,0 1.4,0 2.5,-0.65 -1.4,-0.25 -2.4,-1.49 -2.4,-2.68 0,-0.8 0.5,-1.75 1.9,-1.75 1.1,0 2.6,0.9 2.6,2.89 0,2.59 -2.9,3.29 -4.6,3.29 -2.9,0 -4.6,-2.64 -5.2,-3.79 -1.3,3.29 -4,3.79 -5.4,3.79 -5.2,0 -8,-6.43 -8,-7.67 0,-0.5 0.5,-0.5 0.6,-0.5 0.4,0 0.5,0.1 0.6,0.54 1.7,5.29 5,6.53 6.7,6.53 1,0 2.7,-0.45 2.7,-3.33 0,-1.55 -0.8,-4.89 -2.7,-11.86 -0.8,-3.09 -2.5,-5.18 -4.7,-5.18 -0.3,0 -1.5,0 -2.5,0.65 1.2,0.25 2.3,1.29 2.3,2.69 0,1.34 -1.1,1.74 -1.8,1.74 -1.5,0 -2.8,-1.3 -2.8,-2.89 0,-2.29 2.5,-3.29 4.7,-3.29 3.3,0 5.1,3.49 5.3,3.79 0.6,-1.85 2.4,-3.79 5.3,-3.79 5.2,0 8,6.43 8,7.67 0,0.5 -0.4,0.5 -0.6,0.5 -0.4,0 -0.5,-0.2 -0.6,-0.55 -1.7,-5.33 -5.1,-6.52 -6.7,-6.52 -1.9,0 -2.7,1.59 -2.7,3.29 0,1.09 0.3,2.19 0.8,4.38 z"
           inkscape:connector-curvature="0"
           style="fill:#000080;fill-opacity:1;stroke:#000080;stroke-width:0.5466885;stroke-miterlimit:4;stroke-dasharray:none;stroke-opacity:1" /><path
           id="path7146"
           d="m 1136.4,342.45 0,0.37 0,0.39 0,0.39 0,0.41 -0.1,0.84 0,0.88 -0.1,0.92 -0.1,0.94 -0.2,0.98 -0.1,1 -0.2,1.02 -0.2,1.04 -0.3,1.05 -0.3,1.06 -0.4,1.06 -0.4,1.07 -0.2,0.53 -0.2,0.54 -0.2,0.53 -0.3,0.53 c -3,6.12 -7.3,9.36 -7.8,9.36 -0.3,0 -0.5,-0.2 -0.5,-0.5 0,-0.15 0,-0.25 1,-1.15 4.9,-4.92 7.7,-12.85 7.7,-23.26 0,-8.52 -1.8,-17.28 -8,-23.56 -0.7,-0.6 -0.7,-0.69 -0.7,-0.85 0,-0.29 0.2,-0.49 0.5,-0.49 0.5,0 5,3.38 8,9.71 2.5,5.48 3.1,11.01 3.1,15.19 z"
           inkscape:connector-curvature="0"
           style="fill:#000080;fill-opacity:1;stroke:#000080;stroke-width:0.5466885;stroke-miterlimit:4;stroke-dasharray:none;stroke-opacity:1" /><path
           id="path7148"
           d="m 1185.8,341.46 0.2,0 0.1,0 0.2,0 0.1,0.01 0.1,0 0,0.01 0.1,0.01 0.1,0.01 0,0.01 0.1,0.01 0.1,0.02 0.1,0.02 0,0.02 0.1,0.03 0,0.02 0.1,0.04 0,0.03 0.1,0.04 0,0.04 0.1,0.05 0,0.05 0,0.02 0.1,0.03 0,0.03 0,0.03 0,0.03 0,0.04 0,0.03 0,0.03 0,0.04 0,0.04 0.1,0.04 0,0.04 0,0.04 0,0.04 0,0.05 0,0.04 c 0,1 -0.9,1 -1.8,1 l -26.9,0 c -0.9,0 -1.8,0 -1.8,-1 0,-0.99 0.9,-0.99 1.8,-0.99 z"
           inkscape:connector-curvature="0"
           style="fill:#000080;fill-opacity:1;stroke:#000080;stroke-width:0.5466885;stroke-miterlimit:4;stroke-dasharray:none;stroke-opacity:1" /><path
           id="path7150"
           d="m 1227.3,383.93 4.3,0 c 1,0 1.5,0 1.5,0.99 0,0.55 -0.5,0.55 -1.4,0.55 l -4.1,0 1,5.68 c 0.2,1.05 0.9,4.58 1.2,5.18 0.5,0.94 1.3,1.69 2.4,1.69 0.2,0 1.5,0 2.4,-0.9 -2.2,-0.19 -2.7,-1.94 -2.7,-2.68 0,-1.15 0.9,-1.75 1.9,-1.75 1.3,0 2.7,1.1 2.7,2.99 0,2.29 -2.3,3.44 -4.3,3.44 -1.7,0 -4.9,-0.9 -6.4,-5.83 -0.3,-1.05 -0.4,-1.54 -1.6,-7.82 l -3.4,0 c -1,0 -1.5,0 -1.5,-0.95 0,-0.59 0.4,-0.59 1.4,-0.59 l 3.2,0 -3.7,-19.68 c -0.9,-4.83 -1.7,-9.37 -4.3,-9.37 -0.2,0 -1.5,0 -2.4,0.9 2.3,0.15 2.7,1.94 2.7,2.69 0,1.15 -0.9,1.74 -1.8,1.74 -1.3,0 -2.8,-1.09 -2.8,-2.98 0,-2.25 2.2,-3.44 4.3,-3.44 2.7,0 4.7,2.94 5.6,4.83 1.6,3.14 2.7,9.17 2.8,9.51 z"
           inkscape:connector-curvature="0"
           style="fill:#000080;fill-opacity:1;stroke:#000080;stroke-width:0.5466885;stroke-miterlimit:4;stroke-dasharray:none;stroke-opacity:1" /><path
           id="path7152"
           d="m 1254.5,352.04 0,0.03 0,0.03 0,0.01 0,0.02 0,0.01 0,0.02 0,0.02 0,0.01 0,0.02 -0.1,0.02 0,0.03 0,0.02 0,0.02 0,0.03 0,0.03 -0.1,0.03 0,0.03 0,0.04 0,0.02 -0.1,0.02 0,0.02 0,0.02 0,0.02 0,0.03 0,0.02 -0.1,0.02 0,0.03 0,0.02 0,0.03 -0.1,0.03 0,0.03 0,0.03 0,0.03 -0.1,0.03 0,0.03 0,0.03 -0.1,0.04 0,0.03 0,0.04 -0.1,0.03 0,0.04 -0.1,0.04 c -6.2,6.28 -7.8,15.69 -7.8,23.31 0,8.67 1.9,17.34 8,23.57 0.7,0.59 0.7,0.69 0.7,0.84 0,0.35 -0.2,0.5 -0.5,0.5 -0.5,0 -5,-3.39 -7.9,-9.72 -2.6,-5.47 -3.2,-11 -3.2,-15.19 0,-3.88 0.6,-9.91 3.3,-15.54 3,-6.12 7.3,-9.36 7.8,-9.36 0.3,0 0.5,0.15 0.5,0.49 z"
           inkscape:connector-curvature="0"
           style="fill:#000080;fill-opacity:1;stroke:#000080;stroke-width:0.5466885;stroke-miterlimit:4;stroke-dasharray:none;stroke-opacity:1" /><path
           id="path7154"
           d="m 1269.9,398.02 0,0.01 0,0 0,0.01 0,0.01 0,0.01 0,0.01 0,0.02 0,0.02 0,0.02 0,0.02 0,0.02 0,0.02 0,0.03 0,0.02 0,0.03 -0.1,0.02 0,0.02 0,0.03 0,0.02 0,0.03 0,0.02 -0.1,0.01 0,0.01 0,0.01 0,0.01 0,0.01 0,0.01 0,0.01 -0.1,0.01 0,0.01 0,0.01 0,0.01 0,0 -0.1,0.01 0,0.01 0,0 0,0.01 0,0 -0.1,0.01 0,0 0,0 -0.1,0.01 0,0 0,0 0,0 c -1.2,0 -4.8,-0.4 -6.1,-0.5 -0.4,-0.05 -1,-0.1 -1,-1 0,-0.59 0.5,-0.59 1.2,-0.59 2.4,0 2.5,-0.35 2.5,-0.85 0,-0.35 -0.4,-2.04 -0.7,-3.09 l -4.1,-16.24 c -0.6,-2.49 -0.8,-3.28 -0.8,-5.03 0,-4.73 2.7,-7.82 6.4,-7.82 l 0,1.1 c -1.7,0 -3.4,1.34 -3.4,5.03 0,0.95 0,1.89 0.8,5.03 l 1.1,4.58 c 0.3,1.1 0.3,1.2 0.8,1.75 2.4,3.24 4.7,3.98 5.9,3.98 1.8,0 3.2,-1.49 3.2,-4.68 0,-2.94 -1.7,-8.67 -2.5,-10.56 -1.7,-3.34 -4,-5.13 -5.9,-5.13 l 0,-1.1 c 5.9,0 12,7.43 12,14.6 0,4.53 -2.7,7.97 -6.6,7.97 -2.3,0 -4.4,-1.45 -5.9,-2.99 z"
           inkscape:connector-curvature="0"
           style="fill:#000080;fill-opacity:1;stroke:#000080;stroke-width:0.5466885;stroke-miterlimit:4;stroke-dasharray:none;stroke-opacity:1" /><path
           id="path7156"
           d="m 1293.4,376.45 0,0.37 0,0.39 0,0.39 0,0.41 -0.1,0.84 0,0.88 -0.1,0.92 -0.1,0.94 -0.2,0.98 -0.1,1 -0.2,1.02 -0.2,1.04 -0.3,1.05 -0.3,1.06 -0.4,1.06 -0.4,1.07 -0.2,0.53 -0.2,0.54 -0.2,0.53 -0.3,0.53 c -3,6.12 -7.3,9.36 -7.8,9.36 -0.3,0 -0.5,-0.2 -0.5,-0.5 0,-0.15 0,-0.25 1,-1.15 4.9,-4.92 7.7,-12.85 7.7,-23.26 0,-8.52 -1.8,-17.28 -8,-23.56 -0.7,-0.6 -0.7,-0.69 -0.7,-0.85 0,-0.29 0.2,-0.49 0.5,-0.49 0.5,0 5,3.38 8,9.71 2.5,5.48 3.1,11.01 3.1,15.19 z"
           inkscape:connector-curvature="0"
           style="fill:#000080;fill-opacity:1;stroke:#000080;stroke-width:0.5466885;stroke-miterlimit:4;stroke-dasharray:none;stroke-opacity:1" /><path
           id="path7158"
           d="m 1342.8,375.46 0.2,0 0.1,0 0.2,0 0.1,0.01 0.1,0 0,0.01 0.1,0.01 0.1,0.01 0,0.01 0.1,0.01 0.1,0.02 0.1,0.02 0,0.02 0.1,0.03 0,0.02 0.1,0.04 0,0.03 0.1,0.04 0,0.04 0.1,0.05 0,0.05 0,0.02 0.1,0.03 0,0.03 0,0.03 0,0.03 0,0.04 0,0.03 0,0.03 0,0.04 0,0.04 0.1,0.04 0,0.04 0,0.04 0,0.04 0,0.05 0,0.04 c 0,1 -0.9,1 -1.8,1 l -26.9,0 c -0.9,0 -1.8,0 -1.8,-1 0,-0.99 0.9,-0.99 1.8,-0.99 z"
           inkscape:connector-curvature="0"
           style="fill:#000080;fill-opacity:1;stroke:#000080;stroke-width:0.5466885;stroke-miterlimit:4;stroke-dasharray:none;stroke-opacity:1" /><path
           id="path7160"
           d="m 1377.3,383.93 4.3,0 c 1,0 1.5,0 1.5,0.99 0,0.55 -0.5,0.55 -1.4,0.55 l -4.1,0 1,5.68 c 0.2,1.05 0.9,4.58 1.2,5.18 0.5,0.94 1.3,1.69 2.4,1.69 0.2,0 1.5,0 2.4,-0.9 -2.2,-0.19 -2.7,-1.94 -2.7,-2.68 0,-1.15 0.9,-1.75 1.9,-1.75 1.3,0 2.7,1.1 2.7,2.99 0,2.29 -2.3,3.44 -4.3,3.44 -1.7,0 -4.9,-0.9 -6.4,-5.83 -0.3,-1.05 -0.4,-1.54 -1.6,-7.82 l -3.4,0 c -1,0 -1.5,0 -1.5,-0.95 0,-0.59 0.4,-0.59 1.4,-0.59 l 3.2,0 -3.7,-19.68 c -0.9,-4.83 -1.7,-9.37 -4.3,-9.37 -0.2,0 -1.5,0 -2.4,0.9 2.3,0.15 2.7,1.94 2.7,2.69 0,1.15 -0.9,1.74 -1.8,1.74 -1.3,0 -2.8,-1.09 -2.8,-2.98 0,-2.25 2.2,-3.44 4.3,-3.44 2.7,0 4.7,2.94 5.6,4.83 1.6,3.14 2.7,9.17 2.8,9.51 z"
           inkscape:connector-curvature="0"
           style="fill:#000080;fill-opacity:1;stroke:#000080;stroke-width:0.5466885;stroke-miterlimit:4;stroke-dasharray:none;stroke-opacity:1" /><path
           id="path7162"
           d="m 1405.5,352.04 0,0.03 0,0.03 0,0.01 0,0.02 0,0.01 0,0.02 0,0.02 0,0.01 0,0.02 -0.1,0.02 0,0.03 0,0.02 0,0.02 0,0.03 0,0.03 -0.1,0.03 0,0.03 0,0.04 0,0.02 -0.1,0.02 0,0.02 0,0.02 0,0.02 0,0.03 0,0.02 -0.1,0.02 0,0.03 0,0.02 0,0.03 -0.1,0.03 0,0.03 0,0.03 0,0.03 -0.1,0.03 0,0.03 0,0.03 -0.1,0.04 0,0.03 0,0.04 -0.1,0.03 0,0.04 -0.1,0.04 c -6.2,6.28 -7.8,15.69 -7.8,23.31 0,8.67 1.9,17.34 8,23.57 0.7,0.59 0.7,0.69 0.7,0.84 0,0.35 -0.2,0.5 -0.5,0.5 -0.5,0 -5,-3.39 -7.9,-9.72 -2.6,-5.47 -3.2,-11 -3.2,-15.19 0,-3.88 0.6,-9.91 3.3,-15.54 3,-6.12 7.3,-9.36 7.8,-9.36 0.3,0 0.5,0.15 0.5,0.49 z"
           inkscape:connector-curvature="0"
           style="fill:#000080;fill-opacity:1;stroke:#000080;stroke-width:0.5466885;stroke-miterlimit:4;stroke-dasharray:none;stroke-opacity:1" /><path
           id="path7164"
           d="m 1426.6,382.83 -0.1,0.17 -0.1,0.17 -0.1,0.16 -0.1,0.16 -0.1,0.16 -0.1,0.16 -0.1,0.15 -0.1,0.14 -0.1,0.15 -0.1,0.13 -0.2,0.14 -0.1,0.13 -0.1,0.12 -0.1,0.12 -0.2,0.11 -0.1,0.11 -0.2,0.11 -0.1,0.09 -0.1,0.1 -0.2,0.08 -0.2,0.08 -0.1,0.08 -0.2,0.07 -0.2,0.06 -0.1,0.05 -0.2,0.05 -0.2,0.04 -0.2,0.03 -0.2,0.03 -0.2,0.02 -0.2,0.01 -0.2,0.01 0.1,-1.1 c 3.2,0 3.9,-4.08 3.9,-4.38 0,-0.3 -0.1,-0.6 -0.2,-0.85 l -2.5,-9.76 c -0.2,-0.9 -0.2,-1 -1,-1.84 -2.1,-2.75 -4.2,-3.54 -5.6,-3.54 -2.5,0 -3.2,2.74 -3.2,4.68 0,2.49 1.6,8.62 2.8,10.91 1.5,2.94 3.8,4.78 5.8,4.78 l -0.1,1.1 c -5.8,0 -12,-7.32 -12,-14.6 0,-4.68 2.7,-7.97 6.6,-7.97 1,0 3.5,0.2 6.5,3.74 0.4,-2.09 2.1,-3.74 4.5,-3.74 1.8,0 2.9,1.15 3.7,2.74 0.9,1.79 1.5,4.83 1.5,4.93 0,0.5 -0.4,0.5 -0.6,0.5 -0.5,0 -0.5,-0.2 -0.7,-0.89 -0.8,-3.24 -1.7,-6.18 -3.8,-6.18 -1.3,0 -1.5,1.29 -1.5,2.29 0,1.09 0.1,1.49 0.7,3.69 0.5,2.09 0.6,2.59 1.1,4.48 l 1.8,6.97 c 0.3,1.4 0.3,1.5 0.3,1.7 0,0.84 -0.6,1.34 -1.4,1.34 -1.2,0 -2,-1.09 -2.1,-2.19 z"
           inkscape:connector-curvature="0"
           style="fill:#000080;fill-opacity:1;stroke:#000080;stroke-width:0.5466885;stroke-miterlimit:4;stroke-dasharray:none;stroke-opacity:1" /><path
           id="path7166"
           d="m 1449.4,376.45 0,0.37 0,0.39 0,0.39 0,0.41 -0.1,0.84 0,0.88 -0.1,0.92 -0.1,0.94 -0.2,0.98 -0.1,1 -0.2,1.02 -0.2,1.04 -0.3,1.05 -0.3,1.06 -0.4,1.06 -0.4,1.07 -0.2,0.53 -0.2,0.54 -0.2,0.53 -0.3,0.53 c -3,6.12 -7.3,9.36 -7.8,9.36 -0.3,0 -0.5,-0.2 -0.5,-0.5 0,-0.15 0,-0.25 1,-1.15 4.9,-4.92 7.7,-12.85 7.7,-23.26 0,-8.52 -1.8,-17.28 -8,-23.56 -0.7,-0.6 -0.7,-0.69 -0.7,-0.85 0,-0.29 0.2,-0.49 0.5,-0.49 0.5,0 5,3.38 8,9.71 2.5,5.48 3.1,11.01 3.1,15.19 z"
           inkscape:connector-curvature="0"
           style="fill:#000080;fill-opacity:1;stroke:#000080;stroke-width:0.5466885;stroke-miterlimit:4;stroke-dasharray:none;stroke-opacity:1" /><polyline
           id="polyline7168"
           points="1209,342 1454.6,342 1454.6,344.04 1209,344.04 "
           style="fill:#000080;fill-opacity:1;fill-rule:nonzero;stroke:#000080;stroke-width:0.5466885;stroke-miterlimit:4;stroke-dasharray:none;stroke-opacity:1" /><path
           id="path7170"
           d="m 1288.9,330.02 0,0.01 0,0 0,0.01 0,0.01 0,0.01 0,0.01 0,0.02 0,0.02 0,0.02 0,0.02 0,0.02 0,0.02 0,0.03 0,0.02 0,0.03 -0.1,0.02 0,0.02 0,0.03 0,0.02 0,0.03 0,0.02 -0.1,0.01 0,0.01 0,0.01 0,0.01 0,0.01 0,0.01 0,0.01 -0.1,0.01 0,0.01 0,0.01 0,0.01 0,0 -0.1,0.01 0,0.01 0,0 0,0.01 0,0 -0.1,0.01 0,0 0,0 -0.1,0.01 0,0 0,0 0,0 c -1.2,0 -4.8,-0.4 -6.1,-0.5 -0.4,-0.05 -1,-0.1 -1,-1 0,-0.59 0.5,-0.59 1.2,-0.59 2.4,0 2.5,-0.35 2.5,-0.85 0,-0.35 -0.4,-2.04 -0.7,-3.09 l -4.1,-16.24 c -0.6,-2.49 -0.8,-3.28 -0.8,-5.03 0,-4.73 2.7,-7.82 6.4,-7.82 l 0,1.1 c -1.7,0 -3.4,1.34 -3.4,5.03 0,0.95 0,1.89 0.8,5.03 l 1.1,4.58 c 0.3,1.1 0.3,1.2 0.8,1.75 2.4,3.24 4.7,3.98 5.9,3.98 1.8,0 3.2,-1.49 3.2,-4.68 0,-2.94 -1.7,-8.67 -2.5,-10.56 -1.7,-3.34 -4,-5.13 -5.9,-5.13 l 0,-1.1 c 5.9,0 12,7.43 12,14.6 0,4.53 -2.7,7.97 -6.6,7.97 -2.3,0 -4.4,-1.45 -5.9,-2.99 z"
           inkscape:connector-curvature="0"
           style="fill:#000080;fill-opacity:1;stroke:#000080;stroke-width:0.5466885;stroke-miterlimit:4;stroke-dasharray:none;stroke-opacity:1" /><path
           id="path7172"
           d="m 1342.8,307.46 0.2,0 0.1,0 0.2,0 0.1,0.01 0.1,0 0,0.01 0.1,0.01 0.1,0.01 0,0.01 0.1,0.01 0.1,0.02 0.1,0.02 0,0.02 0.1,0.03 0,0.02 0.1,0.04 0,0.03 0.1,0.04 0,0.04 0.1,0.05 0,0.05 0,0.02 0.1,0.03 0,0.03 0,0.03 0,0.03 0,0.04 0,0.03 0,0.03 0,0.04 0,0.04 0.1,0.04 0,0.04 0,0.04 0,0.04 0,0.05 0,0.04 c 0,1 -0.9,1 -1.8,1 l -26.9,0 c -0.9,0 -1.8,0 -1.8,-1 0,-0.99 0.9,-0.99 1.8,-0.99 z"
           inkscape:connector-curvature="0"
           style="fill:#000080;fill-opacity:1;stroke:#000080;stroke-width:0.5466885;stroke-miterlimit:4;stroke-dasharray:none;stroke-opacity:1" /><path
           id="path7174"
           d="m 1377.6,314.83 -0.1,0.17 -0.1,0.17 -0.1,0.16 -0.1,0.16 -0.1,0.16 -0.1,0.16 -0.1,0.15 -0.1,0.14 -0.1,0.15 -0.1,0.13 -0.2,0.14 -0.1,0.13 -0.1,0.12 -0.1,0.12 -0.2,0.11 -0.1,0.11 -0.2,0.11 -0.1,0.09 -0.1,0.1 -0.2,0.08 -0.2,0.08 -0.1,0.08 -0.2,0.07 -0.2,0.06 -0.1,0.05 -0.2,0.05 -0.2,0.04 -0.2,0.03 -0.2,0.03 -0.2,0.02 -0.2,0.01 -0.2,0.01 0.1,-1.1 c 3.2,0 3.9,-4.08 3.9,-4.38 0,-0.3 -0.1,-0.6 -0.2,-0.85 l -2.5,-9.76 c -0.2,-0.9 -0.2,-1 -1,-1.84 -2.1,-2.75 -4.2,-3.54 -5.6,-3.54 -2.5,0 -3.2,2.74 -3.2,4.68 0,2.49 1.6,8.62 2.8,10.91 1.5,2.94 3.8,4.78 5.8,4.78 l -0.1,1.1 c -5.8,0 -12,-7.32 -12,-14.6 0,-4.68 2.7,-7.97 6.6,-7.97 1,0 3.5,0.2 6.5,3.74 0.4,-2.09 2.1,-3.74 4.5,-3.74 1.8,0 2.9,1.15 3.7,2.74 0.9,1.79 1.5,4.83 1.5,4.93 0,0.5 -0.4,0.5 -0.6,0.5 -0.5,0 -0.5,-0.2 -0.7,-0.89 -0.8,-3.24 -1.7,-6.18 -3.8,-6.18 -1.3,0 -1.5,1.29 -1.5,2.29 0,1.09 0.1,1.49 0.7,3.69 0.5,2.09 0.6,2.59 1.1,4.48 l 1.8,6.97 c 0.3,1.4 0.3,1.5 0.3,1.7 0,0.84 -0.6,1.34 -1.4,1.34 -1.2,0 -2,-1.09 -2.1,-2.19 z"
           inkscape:connector-curvature="0"
           style="fill:#000080;fill-opacity:1;stroke:#000080;stroke-width:0.5466885;stroke-miterlimit:4;stroke-dasharray:none;stroke-opacity:1" /><path
           id="path7176"
           d="m 1476.5,318.04 0,0.03 0,0.03 0,0.01 0,0.02 0,0.01 0,0.02 0,0.02 0,0.01 0,0.02 -0.1,0.02 0,0.03 0,0.02 0,0.02 0,0.03 0,0.03 -0.1,0.03 0,0.03 0,0.04 0,0.02 -0.1,0.02 0,0.02 0,0.02 0,0.02 0,0.03 0,0.02 -0.1,0.02 0,0.03 0,0.02 0,0.03 -0.1,0.03 0,0.03 0,0.03 0,0.03 -0.1,0.03 0,0.03 0,0.03 -0.1,0.04 0,0.03 0,0.04 -0.1,0.03 0,0.04 -0.1,0.04 c -6.2,6.28 -7.8,15.69 -7.8,23.31 0,8.67 1.9,17.34 8,23.57 0.7,0.59 0.7,0.69 0.7,0.84 0,0.35 -0.2,0.5 -0.5,0.5 -0.5,0 -5,-3.39 -7.9,-9.72 -2.6,-5.47 -3.2,-11 -3.2,-15.19 0,-3.88 0.6,-9.91 3.3,-15.54 3,-6.12 7.3,-9.36 7.8,-9.36 0.3,0 0.5,0.15 0.5,0.49 z"
           inkscape:connector-curvature="0"
           style="fill:#000080;fill-opacity:1;stroke:#000080;stroke-width:0.5466885;stroke-miterlimit:4;stroke-dasharray:none;stroke-opacity:1" /><path
           id="path7178"
           d="m 1495.6,345.04 0.1,0.13 0,0.15 0,0.17 0.1,0.18 0,0.19 0.1,0.21 0.1,0.21 0,0.23 0.1,0.23 0.1,0.24 0.1,0.25 0.1,0.24 0.1,0.25 0.1,0.25 0.2,0.25 0.1,0.25 0.2,0.24 0.1,0.24 0.2,0.23 0.2,0.22 0.1,0.22 0.2,0.2 0.2,0.19 0.3,0.18 0.2,0.16 0.2,0.14 0.2,0.07 0.1,0.06 0.1,0.05 0.2,0.05 0.1,0.05 0.1,0.04 0.2,0.03 0.1,0.03 0.2,0.02 0.1,0.02 0.2,0.01 0.2,0 c 0.2,0 1.4,0 2.5,-0.65 -1.4,-0.25 -2.4,-1.49 -2.4,-2.68 0,-0.8 0.5,-1.75 1.9,-1.75 1.1,0 2.6,0.9 2.6,2.89 0,2.59 -2.9,3.29 -4.6,3.29 -2.9,0 -4.6,-2.64 -5.2,-3.79 -1.3,3.29 -4,3.79 -5.4,3.79 -5.2,0 -8,-6.43 -8,-7.67 0,-0.5 0.5,-0.5 0.6,-0.5 0.4,0 0.5,0.1 0.6,0.54 1.7,5.29 5,6.53 6.7,6.53 1,0 2.7,-0.45 2.7,-3.33 0,-1.55 -0.8,-4.89 -2.7,-11.86 -0.8,-3.09 -2.5,-5.18 -4.7,-5.18 -0.3,0 -1.5,0 -2.5,0.65 1.2,0.25 2.3,1.29 2.3,2.69 0,1.34 -1.1,1.74 -1.8,1.74 -1.5,0 -2.8,-1.3 -2.8,-2.89 0,-2.29 2.5,-3.29 4.7,-3.29 3.3,0 5.1,3.49 5.3,3.79 0.6,-1.85 2.4,-3.79 5.3,-3.79 5.2,0 8,6.43 8,7.67 0,0.5 -0.4,0.5 -0.6,0.5 -0.4,0 -0.5,-0.2 -0.6,-0.55 -1.7,-5.33 -5.1,-6.52 -6.7,-6.52 -1.9,0 -2.7,1.59 -2.7,3.29 0,1.09 0.3,2.19 0.8,4.38 z"
           inkscape:connector-curvature="0"
           style="fill:#000080;fill-opacity:1;stroke:#000080;stroke-width:0.5466885;stroke-miterlimit:4;stroke-dasharray:none;stroke-opacity:1" /><path
           id="path7180"
           d="m 1551.8,341.46 0.2,0 0.1,0 0.2,0 0.1,0.01 0.1,0 0,0.01 0.1,0.01 0.1,0.01 0,0.01 0.1,0.01 0.1,0.02 0.1,0.02 0,0.02 0.1,0.03 0,0.02 0.1,0.04 0,0.03 0.1,0.04 0,0.04 0.1,0.05 0,0.05 0,0.02 0.1,0.03 0,0.03 0,0.03 0,0.03 0,0.04 0,0.03 0,0.03 0,0.04 0,0.04 0.1,0.04 0,0.04 0,0.04 0,0.04 0,0.05 0,0.04 c 0,1 -0.9,1 -1.8,1 l -26.9,0 c -0.9,0 -1.8,0 -1.8,-1 0,-0.99 0.9,-0.99 1.8,-0.99 z"
           inkscape:connector-curvature="0"
           style="fill:#000080;fill-opacity:1;stroke:#000080;stroke-width:0.5466885;stroke-miterlimit:4;stroke-dasharray:none;stroke-opacity:1" /><path
           id="path7182"
           d="m 1587.6,348.83 -0.1,0.17 -0.1,0.17 -0.1,0.16 -0.1,0.16 -0.1,0.16 -0.1,0.16 -0.1,0.15 -0.1,0.14 -0.1,0.15 -0.1,0.13 -0.2,0.14 -0.1,0.13 -0.1,0.12 -0.1,0.12 -0.2,0.11 -0.1,0.11 -0.2,0.11 -0.1,0.09 -0.1,0.1 -0.2,0.08 -0.2,0.08 -0.1,0.08 -0.2,0.07 -0.2,0.06 -0.1,0.05 -0.2,0.05 -0.2,0.04 -0.2,0.03 -0.2,0.03 -0.2,0.02 -0.2,0.01 -0.2,0.01 0.1,-1.1 c 3.2,0 3.9,-4.08 3.9,-4.38 0,-0.3 -0.1,-0.6 -0.2,-0.85 l -2.5,-9.76 c -0.2,-0.9 -0.2,-1 -1,-1.84 -2.1,-2.75 -4.2,-3.54 -5.6,-3.54 -2.5,0 -3.2,2.74 -3.2,4.68 0,2.49 1.6,8.62 2.8,10.91 1.5,2.94 3.8,4.78 5.8,4.78 l -0.1,1.1 c -5.8,0 -12,-7.32 -12,-14.6 0,-4.68 2.7,-7.97 6.6,-7.97 1,0 3.5,0.2 6.5,3.74 0.4,-2.09 2.1,-3.74 4.5,-3.74 1.8,0 2.9,1.15 3.7,2.74 0.9,1.79 1.5,4.83 1.5,4.93 0,0.5 -0.4,0.5 -0.6,0.5 -0.5,0 -0.5,-0.2 -0.7,-0.89 -0.8,-3.24 -1.7,-6.18 -3.8,-6.18 -1.3,0 -1.5,1.29 -1.5,2.29 0,1.09 0.1,1.49 0.7,3.69 0.5,2.09 0.6,2.59 1.1,4.48 l 1.8,6.97 c 0.3,1.4 0.3,1.5 0.3,1.7 0,0.84 -0.6,1.34 -1.4,1.34 -1.2,0 -2,-1.09 -2.1,-2.19 z"
           inkscape:connector-curvature="0"
           style="fill:#000080;fill-opacity:1;stroke:#000080;stroke-width:0.5466885;stroke-miterlimit:4;stroke-dasharray:none;stroke-opacity:1" /><path
           id="path7184"
           d="m 1609.4,342.45 0,0.37 0,0.39 0,0.39 0,0.41 -0.1,0.84 0,0.88 -0.1,0.92 -0.1,0.94 -0.2,0.98 -0.1,1 -0.2,1.02 -0.2,1.04 -0.3,1.05 -0.3,1.06 -0.4,1.06 -0.4,1.07 -0.2,0.53 -0.2,0.54 -0.2,0.53 -0.3,0.53 c -3,6.12 -7.3,9.36 -7.8,9.36 -0.3,0 -0.5,-0.2 -0.5,-0.5 0,-0.15 0,-0.25 1,-1.15 4.9,-4.92 7.7,-12.85 7.7,-23.26 0,-8.52 -1.8,-17.28 -8,-23.56 -0.7,-0.6 -0.7,-0.69 -0.7,-0.85 0,-0.29 0.2,-0.49 0.5,-0.49 0.5,0 5,3.38 8,9.71 2.5,5.48 3.1,11.01 3.1,15.19 z"
           inkscape:connector-curvature="0"
           style="fill:#000080;fill-opacity:1;stroke:#000080;stroke-width:0.5466885;stroke-miterlimit:4;stroke-dasharray:none;stroke-opacity:1" /></g>    </g>
  </g>
  <g
     inkscape:groupmode="layer"
     id="layer2"
     inkscape:label="Graph of function"
     style="display:inline"
     transform="translate(18.230554,62.044255)">
    <path
       style="display:inline;fill:none;fill-rule:evenodd;stroke:#000000;stroke-width:2;stroke-linecap:butt;stroke-linejoin:miter;stroke-miterlimit:4;stroke-dasharray:none;stroke-opacity:1"
       d="m 20.446156,157.85559 c 48.3762,-32.356 78.880816,-139.813643 172.078314,-138.313098 64.58249,1.039824 72.7842,45.215331 162.52642,138.971318"
       id="path3336"
       inkscape:connector-curvature="0"
       sodipodi:nodetypes="csc" />
  </g>
  <g
     inkscape:groupmode="layer"
     id="layer3"
     inkscape:label="Max und Min"
     style="display:inline"
     transform="translate(18.230554,62.044255)">
    <path
       style="fill:url(#linearGradient4385);fill-opacity:1;fill-rule:evenodd;stroke:#000080;stroke-width:0.84928077px;stroke-linecap:butt;stroke-linejoin:miter;stroke-opacity:1;marker-end:url(#marker4309)"
       d="M 63.799586,-8.4187674 123.72076,33.348509"
       id="path4301"
       inkscape:connector-curvature="0"
       sodipodi:nodetypes="cc" />
  </g>
</svg>
