<?xml version="1.0" encoding="utf-8" standalone="no"?>
<!DOCTYPE svg PUBLIC "-//W3C//DTD SVG 1.1//EN"
  "http://www.w3.org/Graphics/SVG/1.1/DTD/svg11.dtd">
<!-- Created with matplotlib (http://matplotlib.org/) -->
<svg height="499pt" version="1.1" viewBox="0 0 720 499" width="720pt" xmlns="http://www.w3.org/2000/svg" xmlns:xlink="http://www.w3.org/1999/xlink">
 <defs>
  <style type="text/css">
*{stroke-linecap:butt;stroke-linejoin:round;stroke-miterlimit:100000;}
  </style>
 </defs>
 <g id="figure_1">
  <g id="patch_1">
   <path d="M 0 499.68 
L 720 499.68 
L 720 0 
L 0 0 
z
" style="fill:#ffffff;"/>
  </g>
  <g id="axes_1">
   <g id="patch_2">
    <path d="M 90 449.712 
L 648 449.712 
L 648 49.968 
L 90 49.968 
z
" style="fill:#ffffff;"/>
   </g>
   <g id="line2d_1">
    <path clip-path="url(#pe16e504f38)" d="M 107.324709 424.46413 
L 115.777992 402.875823 
L 123.174614 384.549367 
L 130.571236 366.74867 
L 137.967858 349.473733 
L 145.364481 332.724554 
L 152.761103 316.501135 
L 160.157725 300.803474 
L 167.554348 285.631572 
L 174.95097 270.985429 
L 182.347592 256.865046 
L 189.744215 243.270421 
L 197.140837 230.201555 
L 203.480799 219.418131 
L 209.820761 209.020979 
L 216.160723 199.010099 
L 222.500685 189.385491 
L 228.840647 180.147155 
L 235.180609 171.295091 
L 241.520571 162.829298 
L 247.860533 154.749778 
L 254.200495 147.056529 
L 260.540457 139.749552 
L 266.880419 132.828848 
L 273.220381 126.294415 
L 278.503682 121.144123 
L 283.786984 116.262075 
L 289.070286 111.648272 
L 294.353587 107.302713 
L 299.636889 103.225399 
L 304.92019 99.416329 
L 310.203492 95.875503 
L 315.486794 92.602921 
L 320.770095 89.598584 
L 326.053397 86.862492 
L 331.336699 84.394644 
L 336.62 82.19504 
L 341.903302 80.26368 
L 347.186604 78.600565 
L 352.469905 77.205694 
L 357.753207 76.079068 
L 363.036509 75.220686 
L 368.31981 74.630548 
L 373.603112 74.308655 
L 378.886414 74.255006 
L 384.169715 74.469602 
L 389.453017 74.952442 
L 394.736318 75.703526 
L 400.01962 76.722855 
L 405.302922 78.010428 
L 410.586223 79.566245 
L 415.869525 81.390307 
L 421.152827 83.482613 
L 426.436128 85.843163 
L 431.71943 88.471958 
L 437.002732 91.368997 
L 442.286033 94.534281 
L 447.569335 97.967809 
L 452.852637 101.669581 
L 458.135938 105.639598 
L 463.41924 109.877859 
L 468.702541 114.384365 
L 473.985843 119.159114 
L 479.269145 124.202109 
L 484.552446 129.513347 
L 489.835748 135.09283 
L 496.17571 142.142292 
L 502.515672 149.578026 
L 508.855634 157.400032 
L 515.195596 165.60831 
L 521.535558 174.20286 
L 527.87552 183.183681 
L 534.215482 192.550775 
L 540.555444 202.30414 
L 546.895406 212.443777 
L 553.235368 222.969687 
L 559.57533 233.881868 
L 565.915292 245.180321 
L 573.311914 258.850054 
L 580.708536 273.045546 
L 588.105159 287.766797 
L 595.501781 303.013807 
L 602.898403 318.786577 
L 610.295026 335.085105 
L 617.691648 351.909392 
L 625.08827 369.259438 
L 632.484893 387.135243 
L 639.881515 405.536807 
L 647.278137 424.46413 
L 647.278137 424.46413 
" style="fill:none;stroke:#0000ff;stroke-linecap:square;"/>
   </g>
   <g id="line2d_2">
    <path clip-path="url(#pe16e504f38)" d="M 107.324709 363.240276 
L 528.500217 -1 
L 528.500217 -1 
" style="fill:none;stroke:#ff0000;stroke-linecap:square;"/>
   </g>
   <g id="patch_3">
    <path d="M 90 49.968 
L 648 49.968 
" style="fill:none;"/>
   </g>
   <g id="patch_4">
    <path d="M 648 449.712 
L 648 49.968 
" style="fill:none;"/>
   </g>
   <g id="patch_5">
    <path d="M 107.324709 449.712 
L 107.324709 49.968 
" style="fill:none;stroke:#000000;stroke-linecap:square;stroke-linejoin:miter;"/>
   </g>
   <g id="patch_6">
    <path d="M 90 424.46413 
L 648 424.46413 
" style="fill:none;stroke:#000000;stroke-linecap:square;stroke-linejoin:miter;"/>
   </g>
   <g id="matplotlib.axis_1">
    <g id="xtick_1">
     <g id="line2d_3">
      <defs>
       <path d="M 0 0 
L 0 -4 
" id="m84fbab6dc0" style="stroke:#000000;stroke-width:0.5;"/>
      </defs>
      <g>
       <use style="stroke:#000000;stroke-width:0.5;" x="107.324708926" xlink:href="#m84fbab6dc0" y="424.464129742"/>
      </g>
     </g>
     <g id="text_1">
      <!-- 0 -->
      <defs>
       <path d="M 31.78125 66.40625 
Q 24.171875 66.40625 20.328125 58.90625 
Q 16.5 51.421875 16.5 36.375 
Q 16.5 21.390625 20.328125 13.890625 
Q 24.171875 6.390625 31.78125 6.390625 
Q 39.453125 6.390625 43.28125 13.890625 
Q 47.125 21.390625 47.125 36.375 
Q 47.125 51.421875 43.28125 58.90625 
Q 39.453125 66.40625 31.78125 66.40625 
M 31.78125 74.21875 
Q 44.046875 74.21875 50.515625 64.515625 
Q 56.984375 54.828125 56.984375 36.375 
Q 56.984375 17.96875 50.515625 8.265625 
Q 44.046875 -1.421875 31.78125 -1.421875 
Q 19.53125 -1.421875 13.0625 8.265625 
Q 6.59375 17.96875 6.59375 36.375 
Q 6.59375 54.828125 13.0625 64.515625 
Q 19.53125 74.21875 31.78125 74.21875 
" id="BitstreamVeraSans-Roman-30"/>
      </defs>
      <g transform="translate(103.507208926 437.582254742)scale(0.12 -0.12)">
       <use xlink:href="#BitstreamVeraSans-Roman-30"/>
      </g>
     </g>
    </g>
    <g id="xtick_2">
     <g id="line2d_4">
      <g>
       <use style="stroke:#000000;stroke-width:0.5;" x="287.309184994" xlink:href="#m84fbab6dc0" y="424.464129742"/>
      </g>
     </g>
     <g id="text_2">
      <!-- 1 -->
      <defs>
       <path d="M 12.40625 8.296875 
L 28.515625 8.296875 
L 28.515625 63.921875 
L 10.984375 60.40625 
L 10.984375 69.390625 
L 28.421875 72.90625 
L 38.28125 72.90625 
L 38.28125 8.296875 
L 54.390625 8.296875 
L 54.390625 0 
L 12.40625 0 
z
" id="BitstreamVeraSans-Roman-31"/>
      </defs>
      <g transform="translate(283.491684994 437.582254742)scale(0.12 -0.12)">
       <use xlink:href="#BitstreamVeraSans-Roman-31"/>
      </g>
     </g>
    </g>
    <g id="xtick_3">
     <g id="line2d_5">
      <g>
       <use style="stroke:#000000;stroke-width:0.5;" x="467.293661061" xlink:href="#m84fbab6dc0" y="424.464129742"/>
      </g>
     </g>
     <g id="text_3">
      <!-- 2 -->
      <defs>
       <path d="M 19.1875 8.296875 
L 53.609375 8.296875 
L 53.609375 0 
L 7.328125 0 
L 7.328125 8.296875 
Q 12.9375 14.109375 22.625 23.890625 
Q 32.328125 33.6875 34.8125 36.53125 
Q 39.546875 41.84375 41.421875 45.53125 
Q 43.3125 49.21875 43.3125 52.78125 
Q 43.3125 58.59375 39.234375 62.25 
Q 35.15625 65.921875 28.609375 65.921875 
Q 23.96875 65.921875 18.8125 64.3125 
Q 13.671875 62.703125 7.8125 59.421875 
L 7.8125 69.390625 
Q 13.765625 71.78125 18.9375 73 
Q 24.125 74.21875 28.421875 74.21875 
Q 39.75 74.21875 46.484375 68.546875 
Q 53.21875 62.890625 53.21875 53.421875 
Q 53.21875 48.921875 51.53125 44.890625 
Q 49.859375 40.875 45.40625 35.40625 
Q 44.1875 33.984375 37.640625 27.21875 
Q 31.109375 20.453125 19.1875 8.296875 
" id="BitstreamVeraSans-Roman-32"/>
      </defs>
      <g transform="translate(463.476161061 437.582254742)scale(0.12 -0.12)">
       <use xlink:href="#BitstreamVeraSans-Roman-32"/>
      </g>
     </g>
    </g>
    <g id="xtick_4">
     <g id="line2d_6">
      <g>
       <use style="stroke:#000000;stroke-width:0.5;" x="647.278137128" xlink:href="#m84fbab6dc0" y="424.464129742"/>
      </g>
     </g>
     <g id="text_4">
      <!-- 3 -->
      <defs>
       <path d="M 40.578125 39.3125 
Q 47.65625 37.796875 51.625 33 
Q 55.609375 28.21875 55.609375 21.1875 
Q 55.609375 10.40625 48.1875 4.484375 
Q 40.765625 -1.421875 27.09375 -1.421875 
Q 22.515625 -1.421875 17.65625 -0.515625 
Q 12.796875 0.390625 7.625 2.203125 
L 7.625 11.71875 
Q 11.71875 9.328125 16.59375 8.109375 
Q 21.484375 6.890625 26.8125 6.890625 
Q 36.078125 6.890625 40.9375 10.546875 
Q 45.796875 14.203125 45.796875 21.1875 
Q 45.796875 27.640625 41.28125 31.265625 
Q 36.765625 34.90625 28.71875 34.90625 
L 20.21875 34.90625 
L 20.21875 43.015625 
L 29.109375 43.015625 
Q 36.375 43.015625 40.234375 45.921875 
Q 44.09375 48.828125 44.09375 54.296875 
Q 44.09375 59.90625 40.109375 62.90625 
Q 36.140625 65.921875 28.71875 65.921875 
Q 24.65625 65.921875 20.015625 65.03125 
Q 15.375 64.15625 9.8125 62.3125 
L 9.8125 71.09375 
Q 15.4375 72.65625 20.34375 73.4375 
Q 25.25 74.21875 29.59375 74.21875 
Q 40.828125 74.21875 47.359375 69.109375 
Q 53.90625 64.015625 53.90625 55.328125 
Q 53.90625 49.265625 50.4375 45.09375 
Q 46.96875 40.921875 40.578125 39.3125 
" id="BitstreamVeraSans-Roman-33"/>
      </defs>
      <g transform="translate(643.460637128 437.582254742)scale(0.12 -0.12)">
       <use xlink:href="#BitstreamVeraSans-Roman-33"/>
      </g>
     </g>
    </g>
   </g>
   <g id="matplotlib.axis_2">
    <g id="ytick_1">
     <g id="line2d_7">
      <defs>
       <path d="M 0 0 
L 4 0 
" id="m57a528b4dd" style="stroke:#000000;stroke-width:0.5;"/>
      </defs>
      <g>
       <use style="stroke:#000000;stroke-width:0.5;" x="107.324708926" xlink:href="#m57a528b4dd" y="424.464129742"/>
      </g>
     </g>
     <g id="text_5">
      <!-- 0 -->
      <g transform="translate(95.6897089263 427.775379742)scale(0.12 -0.12)">
       <use xlink:href="#BitstreamVeraSans-Roman-30"/>
      </g>
     </g>
    </g>
    <g id="ytick_2">
     <g id="line2d_8">
      <g>
       <use style="stroke:#000000;stroke-width:0.5;" x="107.324708926" xlink:href="#m57a528b4dd" y="294.752576256"/>
      </g>
     </g>
     <g id="text_6">
      <!-- 1 -->
      <g transform="translate(95.6897089263 298.063826256)scale(0.12 -0.12)">
       <use xlink:href="#BitstreamVeraSans-Roman-31"/>
      </g>
     </g>
    </g>
    <g id="ytick_3">
     <g id="line2d_9">
      <g>
       <use style="stroke:#000000;stroke-width:0.5;" x="107.324708926" xlink:href="#m57a528b4dd" y="165.04102277"/>
      </g>
     </g>
     <g id="text_7">
      <!-- 2 -->
      <g transform="translate(95.6897089263 168.35227277)scale(0.12 -0.12)">
       <use xlink:href="#BitstreamVeraSans-Roman-32"/>
      </g>
     </g>
    </g>
   </g>
   <g id="text_8">
    <!-- y -->
    <defs>
     <path d="M 32.171875 -5.078125 
Q 28.375 -14.84375 24.75 -17.8125 
Q 21.140625 -20.796875 15.09375 -20.796875 
L 7.90625 -20.796875 
L 7.90625 -13.28125 
L 13.1875 -13.28125 
Q 16.890625 -13.28125 18.9375 -11.515625 
Q 21 -9.765625 23.484375 -3.21875 
L 25.09375 0.875 
L 2.984375 54.6875 
L 12.5 54.6875 
L 29.59375 11.921875 
L 46.6875 54.6875 
L 56.203125 54.6875 
z
" id="BitstreamVeraSans-Roman-79"/>
    </defs>
    <g transform="translate(92.9259508409 100.185246027)scale(0.12 -0.12)">
     <use xlink:href="#BitstreamVeraSans-Roman-79"/>
    </g>
   </g>
   <g id="text_9">
    <!-- x -->
    <defs>
     <path d="M 54.890625 54.6875 
L 35.109375 28.078125 
L 55.90625 0 
L 45.3125 0 
L 29.390625 21.484375 
L 13.484375 0 
L 2.875 0 
L 24.125 28.609375 
L 4.6875 54.6875 
L 15.28125 54.6875 
L 29.78125 35.203125 
L 44.28125 54.6875 
z
" id="BitstreamVeraSans-Roman-78"/>
    </defs>
    <g transform="translate(557.285899094 443.920862765)scale(0.12 -0.12)">
     <use xlink:href="#BitstreamVeraSans-Roman-78"/>
    </g>
   </g>
  </g>
 </g>
 <defs>
  <clipPath id="pe16e504f38">
   <rect height="399.744" width="558.0" x="90.0" y="49.968"/>
  </clipPath>
 </defs>
</svg>
