<?xml version="1.0" encoding="utf-8" standalone="no"?>
<!DOCTYPE svg PUBLIC "-//W3C//DTD SVG 1.1//EN"
  "http://www.w3.org/Graphics/SVG/1.1/DTD/svg11.dtd">
<!-- Created with matplotlib (http://matplotlib.org/) -->
<svg height="293pt" version="1.1" viewBox="0 0 399 293" width="399pt" xmlns="http://www.w3.org/2000/svg" xmlns:xlink="http://www.w3.org/1999/xlink">
 <defs>
  <style type="text/css">
*{stroke-linecap:butt;stroke-linejoin:round;}
  </style>
 </defs>
 <g id="figure_1">
  <g id="patch_1">
   <path d="M 0 293.490125 
L 399.102813 293.490125 
L 399.102813 0 
L 0 0 
z
" style="fill:none;"/>
  </g>
  <g id="axes_1">
   <g id="patch_2">
    <path clip-path="url(#p5f0b0d7d22)" d="M 216.824631 23.732 
L 222.911903 22.0688 
L 222.911903 23.67656 
L 243.202812 23.78744 
L 222.911903 23.78744 
L 222.911903 25.3952 
z
" style="fill:#d77a5a;stroke:#d77a5a;stroke-linejoin:miter;"/>
   </g>
   <g id="patch_3">
    <path clip-path="url(#p5f0b0d7d22)" d="M 216.824631 145.7 
L 222.911903 144.0368 
L 222.911903 145.64456 
L 243.202812 145.75544 
L 222.911903 145.75544 
L 222.911903 147.3632 
z
" style="fill:#6e8334;stroke:#6e8334;stroke-linejoin:miter;"/>
   </g>
   <g id="patch_4">
    <path clip-path="url(#p5f0b0d7d22)" d="M 139.042812 27.6128 
L 141.071903 32.6024 
L 139.110449 32.6024 
L 138.975176 76.9544 
L 138.975176 32.6024 
L 137.013722 32.6024 
z
" style="stroke:#000000;stroke-linejoin:miter;"/>
   </g>
   <g id="patch_5">
    <path clip-path="url(#p5f0b0d7d22)" d="M 139.042812 136.2752 
L 137.013722 131.2856 
L 138.975176 131.2856 
L 139.110449 92.4776 
L 139.110449 131.2856 
L 141.071903 131.2856 
z
" style="stroke:#000000;stroke-linejoin:miter;"/>
   </g>
   <g id="line2d_1">
    <path clip-path="url(#p5f0b0d7d22)" d="M 34.882812 140.156 
L 392.002813 140.156 
" style="fill:none;stroke:#000000;stroke-linecap:square;stroke-width:1.5;"/>
   </g>
   <g id="line2d_2">
    <path clip-path="url(#p5f0b0d7d22)" d="M 213.442813 273.212 
L 213.442813 7.1 
" style="fill:none;stroke:#000000;stroke-linecap:square;stroke-width:1.5;"/>
   </g>
   <g id="line2d_3">
    <path clip-path="url(#p5f0b0d7d22)" d="M 213.45634 29.276 
L 215.095873 29.276 
L 216.735405 29.276 
L 218.374938 29.276 
L 220.014471 29.276 
L 221.654004 29.276 
L 223.293536 29.276 
L 224.933069 29.276 
L 226.572602 29.276 
L 228.212135 29.276 
L 229.851668 29.276 
L 231.4912 29.276 
L 233.130733 29.276 
L 234.770266 29.276 
L 236.409799 29.276 
L 238.049332 29.276 
L 239.688864 29.276 
L 241.328397 29.276 
L 242.96793 29.276 
L 244.607463 29.276 
L 246.246995 29.276 
L 247.886528 29.276 
L 249.526061 29.276 
L 251.165594 29.276 
L 252.805127 29.276 
L 254.444659 29.276 
L 256.084192 29.276 
L 257.723725 29.276 
L 259.363258 29.276 
L 261.00279 29.276 
L 262.642323 29.276 
L 264.281856 29.276 
L 265.921389 29.276 
L 267.560922 29.276 
L 269.200454 29.276 
L 270.839987 29.276 
L 272.47952 29.276 
L 274.119053 29.276 
L 275.758586 29.276 
L 277.398118 29.276 
L 279.037651 29.276 
L 280.677184 29.276 
L 282.316717 29.276 
L 283.956249 29.276 
L 285.595782 29.276 
L 287.235315 29.276 
L 288.874848 29.276 
L 290.514381 29.276 
L 292.153913 29.276 
L 293.793446 29.276 
L 295.432979 29.276 
L 297.072512 29.276 
L 298.712044 29.276 
L 300.351577 29.276 
L 301.99111 29.276 
L 303.630643 29.276 
L 305.270176 29.276 
L 306.909708 29.276 
L 308.549241 29.276 
L 310.188774 29.276 
L 311.828307 29.276 
L 313.467839 29.276 
L 315.107372 29.276 
L 316.746905 29.276 
L 318.386438 29.276 
L 320.025971 29.276 
L 321.665503 29.276 
L 323.305036 29.276 
L 324.944569 29.276 
L 326.584102 29.276 
L 328.223635 29.276 
L 329.863167 29.276 
L 331.5027 29.276 
L 333.142233 29.276 
L 334.781766 29.276 
L 336.421298 29.276 
L 338.060831 29.276 
L 339.700364 29.276 
L 341.339897 29.276 
L 342.97943 29.276 
L 344.618962 29.276 
L 346.258495 29.276 
L 347.898028 29.276 
L 349.537561 29.276 
L 351.177093 29.276 
L 352.816626 29.276 
L 354.456159 29.276 
L 356.095692 29.276 
L 357.735225 29.276 
L 359.374757 29.276 
L 361.01429 29.276 
L 362.653823 29.276 
L 364.293356 29.276 
L 365.932889 29.276 
L 367.572421 29.276 
L 369.211954 29.276 
L 370.851487 29.276 
L 372.49102 29.276 
L 374.130552 29.276 
L 375.770085 29.276 
" style="fill:none;stroke:#007ec1;stroke-linecap:square;stroke-width:1.5;"/>
   </g>
   <g id="line2d_4">
    <path clip-path="url(#p5f0b0d7d22)" d="M 51.11554 251.036 
L 52.755073 251.036 
L 54.394605 251.036 
L 56.034138 251.036 
L 57.673671 251.036 
L 59.313204 251.036 
L 60.952736 251.036 
L 62.592269 251.036 
L 64.231802 251.036 
L 65.871335 251.036 
L 67.510868 251.036 
L 69.1504 251.036 
L 70.789933 251.036 
L 72.429466 251.036 
L 74.068999 251.036 
L 75.708532 251.036 
L 77.348064 251.036 
L 78.987597 251.036 
L 80.62713 251.036 
L 82.266663 251.036 
L 83.906195 251.036 
L 85.545728 251.036 
L 87.185261 251.036 
L 88.824794 251.036 
L 90.464327 251.036 
L 92.103859 251.036 
L 93.743392 251.036 
L 95.382925 251.036 
L 97.022458 251.036 
L 98.66199 251.036 
L 100.301523 251.036 
L 101.941056 251.036 
L 103.580589 251.036 
L 105.220122 251.036 
L 106.859654 251.036 
L 108.499187 251.036 
L 110.13872 251.036 
L 111.778253 251.036 
L 113.417786 251.036 
L 115.057318 251.036 
L 116.696851 251.036 
L 118.336384 251.036 
L 119.975917 251.036 
L 121.615449 251.036 
L 123.254982 251.036 
L 124.894515 251.036 
L 126.534048 251.036 
L 128.173581 251.036 
L 129.813113 251.036 
L 131.452646 251.036 
L 133.092179 251.036 
L 134.731712 251.036 
L 136.371244 251.036 
L 138.010777 251.036 
L 139.65031 251.036 
L 141.289843 251.036 
L 142.929376 251.036 
L 144.568908 251.036 
L 146.208441 251.036 
L 147.847974 251.036 
L 149.487507 251.036 
L 151.127039 251.036 
L 152.766572 251.036 
L 154.406105 251.036 
L 156.045638 251.036 
L 157.685171 251.036 
L 159.324703 251.036 
L 160.964236 251.036 
L 162.603769 251.036 
L 164.243302 251.036 
L 165.882835 251.036 
L 167.522367 251.036 
L 169.1619 251.036 
L 170.801433 251.036 
L 172.440966 251.036 
L 174.080498 251.036 
L 175.720031 251.036 
L 177.359564 251.036 
L 178.999097 251.036 
L 180.63863 251.036 
L 182.278162 251.036 
L 183.917695 251.036 
L 185.557228 251.036 
L 187.196761 251.036 
L 188.836293 251.036 
L 190.475826 251.036 
L 192.115359 251.036 
L 193.754892 251.036 
L 195.394425 251.036 
L 197.033957 251.036 
L 198.67349 251.036 
L 200.313023 251.036 
L 201.952556 251.036 
L 203.592089 251.036 
L 205.231621 251.036 
L 206.871154 251.036 
L 208.510687 251.036 
L 210.15022 251.036 
L 211.789752 251.036 
L 213.429285 251.036 
" style="fill:none;stroke:#007ec1;stroke-linecap:square;stroke-width:1.5;"/>
   </g>
   <g id="line2d_5">
    <defs>
     <path d="M 0 3 
C 0.795609 3 1.55874 2.683901 2.12132 2.12132 
C 2.683901 1.55874 3 0.795609 3 0 
C 3 -0.795609 2.683901 -1.55874 2.12132 -2.12132 
C 1.55874 -2.683901 0.795609 -3 0 -3 
C -0.795609 -3 -1.55874 -2.683901 -2.12132 -2.12132 
C -2.683901 -1.55874 -3 -0.795609 -3 0 
C -3 0.795609 -2.683901 1.55874 -2.12132 2.12132 
C -1.55874 2.683901 -0.795609 3 0 3 
z
" id="m8a8e6efe22" style="stroke:#007ec1;"/>
    </defs>
    <g clip-path="url(#p5f0b0d7d22)">
     <use style="fill:#007ec1;stroke:#007ec1;" x="213.442813" xlink:href="#m8a8e6efe22" y="140.156"/>
    </g>
   </g>
   <g id="line2d_6">
    <defs>
     <path d="M 0 3 
C 0.795609 3 1.55874 2.683901 2.12132 2.12132 
C 2.683901 1.55874 3 0.795609 3 0 
C 3 -0.795609 2.683901 -1.55874 2.12132 -2.12132 
C 1.55874 -2.683901 0.795609 -3 0 -3 
C -0.795609 -3 -1.55874 -2.683901 -2.12132 -2.12132 
C -2.683901 -1.55874 -3 -0.795609 -3 0 
C -3 0.795609 -2.683901 1.55874 -2.12132 2.12132 
C -1.55874 2.683901 -0.795609 3 0 3 
z
" id="m57630f3388" style="stroke:#007ec1;"/>
    </defs>
    <g clip-path="url(#p5f0b0d7d22)">
     <use style="fill:#ffffff;stroke:#007ec1;" x="213.442813" xlink:href="#m57630f3388" y="29.276"/>
    </g>
   </g>
   <g id="line2d_7">
    <g clip-path="url(#p5f0b0d7d22)">
     <use style="fill:#ffffff;stroke:#007ec1;" x="213.442813" xlink:href="#m57630f3388" y="251.036"/>
    </g>
   </g>
   <g id="line2d_8">
    <g clip-path="url(#p5f0b0d7d22)">
     <use style="fill:#007ec1;stroke:#007ec1;" x="213.442813" xlink:href="#m8a8e6efe22" y="140.156"/>
    </g>
   </g>
   <g id="line2d_9">
    <path clip-path="url(#p5f0b0d7d22)" d="M 348.71554 140.156 
L 348.71554 29.276 
" style="fill:none;stroke:#000000;stroke-dasharray:5.6,2.4;stroke-dashoffset:0;stroke-width:1.5;"/>
   </g>
   <g id="line2d_10">
    <defs>
     <path d="M 0 3 
C 0.795609 3 1.55874 2.683901 2.12132 2.12132 
C 2.683901 1.55874 3 0.795609 3 0 
C 3 -0.795609 2.683901 -1.55874 2.12132 -2.12132 
C 1.55874 -2.683901 0.795609 -3 0 -3 
C -0.795609 -3 -1.55874 -2.683901 -2.12132 -2.12132 
C -2.683901 -1.55874 -3 -0.795609 -3 0 
C -3 0.795609 -2.683901 1.55874 -2.12132 2.12132 
C -1.55874 2.683901 -0.795609 3 0 3 
z
" id="m630fb8b508" style="stroke:#d77a5a;"/>
    </defs>
    <g clip-path="url(#p5f0b0d7d22)">
     <use style="fill:#d77a5a;stroke:#d77a5a;" x="348.71554" xlink:href="#m630fb8b508" y="29.276"/>
    </g>
   </g>
   <g id="line2d_11">
    <defs>
     <path d="M 0 3 
C 0.795609 3 1.55874 2.683901 2.12132 2.12132 
C 2.683901 1.55874 3 0.795609 3 0 
C 3 -0.795609 2.683901 -1.55874 2.12132 -2.12132 
C 1.55874 -2.683901 0.795609 -3 0 -3 
C -0.795609 -3 -1.55874 -2.683901 -2.12132 -2.12132 
C -2.683901 -1.55874 -3 -0.795609 -3 0 
C -3 0.795609 -2.683901 1.55874 -2.12132 2.12132 
C -1.55874 2.683901 -0.795609 3 0 3 
z
" id="m3410db1630" style="stroke:#6e8334;"/>
    </defs>
    <g clip-path="url(#p5f0b0d7d22)">
     <use style="fill:#6e8334;stroke:#6e8334;" x="348.71554" xlink:href="#m3410db1630" y="140.156"/>
    </g>
   </g>
   <g id="line2d_12">
    <path clip-path="url(#p5f0b0d7d22)" d="M 281.079176 140.156 
L 281.079176 29.276 
" style="fill:none;stroke:#000000;stroke-dasharray:5.6,2.4;stroke-dashoffset:0;stroke-width:1.5;"/>
   </g>
   <g id="line2d_13">
    <g clip-path="url(#p5f0b0d7d22)">
     <use style="fill:#d77a5a;stroke:#d77a5a;" x="281.079176" xlink:href="#m630fb8b508" y="29.276"/>
    </g>
   </g>
   <g id="line2d_14">
    <g clip-path="url(#p5f0b0d7d22)">
     <use style="fill:#6e8334;stroke:#6e8334;" x="281.079176" xlink:href="#m3410db1630" y="140.156"/>
    </g>
   </g>
   <g id="line2d_15">
    <path clip-path="url(#p5f0b0d7d22)" d="M 258.533722 140.156 
L 258.533722 29.276 
" style="fill:none;stroke:#000000;stroke-dasharray:5.6,2.4;stroke-dashoffset:0;stroke-width:1.5;"/>
   </g>
   <g id="line2d_16">
    <g clip-path="url(#p5f0b0d7d22)">
     <use style="fill:#d77a5a;stroke:#d77a5a;" x="258.533722" xlink:href="#m630fb8b508" y="29.276"/>
    </g>
   </g>
   <g id="line2d_17">
    <g clip-path="url(#p5f0b0d7d22)">
     <use style="fill:#6e8334;stroke:#6e8334;" x="258.533722" xlink:href="#m3410db1630" y="140.156"/>
    </g>
   </g>
   <g id="line2d_18">
    <path clip-path="url(#p5f0b0d7d22)" d="M 247.260994 140.156 
L 247.260994 29.276 
" style="fill:none;stroke:#000000;stroke-dasharray:5.6,2.4;stroke-dashoffset:0;stroke-width:1.5;"/>
   </g>
   <g id="line2d_19">
    <g clip-path="url(#p5f0b0d7d22)">
     <use style="fill:#d77a5a;stroke:#d77a5a;" x="247.260994" xlink:href="#m630fb8b508" y="29.276"/>
    </g>
   </g>
   <g id="line2d_20">
    <g clip-path="url(#p5f0b0d7d22)">
     <use style="fill:#6e8334;stroke:#6e8334;" x="247.260994" xlink:href="#m3410db1630" y="140.156"/>
    </g>
   </g>
   <g id="line2d_21">
    <path clip-path="url(#p5f0b0d7d22)" d="M 240.497358 140.156 
L 240.497358 29.276 
" style="fill:none;stroke:#000000;stroke-dasharray:5.6,2.4;stroke-dashoffset:0;stroke-width:1.5;"/>
   </g>
   <g id="line2d_22">
    <g clip-path="url(#p5f0b0d7d22)">
     <use style="fill:#d77a5a;stroke:#d77a5a;" x="240.497358" xlink:href="#m630fb8b508" y="29.276"/>
    </g>
   </g>
   <g id="line2d_23">
    <g clip-path="url(#p5f0b0d7d22)">
     <use style="fill:#6e8334;stroke:#6e8334;" x="240.497358" xlink:href="#m3410db1630" y="140.156"/>
    </g>
   </g>
   <g id="text_1">
    <!-- $\operatorname{sgn}\left(\lim_{n\to\infty}\ \frac{1}{n}\right) = \operatorname{sgn}(0)=0$ -->
    <defs>
     <path d="M 44.28125 53.078125 
L 44.28125 44.578125 
Q 40.484375 46.53125 36.375 47.5 
Q 32.28125 48.484375 27.875 48.484375 
Q 21.1875 48.484375 17.84375 46.4375 
Q 14.5 44.390625 14.5 40.28125 
Q 14.5 37.15625 16.890625 35.375 
Q 19.28125 33.59375 26.515625 31.984375 
L 29.59375 31.296875 
Q 39.15625 29.25 43.1875 25.515625 
Q 47.21875 21.78125 47.21875 15.09375 
Q 47.21875 7.46875 41.1875 3.015625 
Q 35.15625 -1.421875 24.609375 -1.421875 
Q 20.21875 -1.421875 15.453125 -0.5625 
Q 10.6875 0.296875 5.421875 2 
L 5.421875 11.28125 
Q 10.40625 8.6875 15.234375 7.390625 
Q 20.0625 6.109375 24.8125 6.109375 
Q 31.15625 6.109375 34.5625 8.28125 
Q 37.984375 10.453125 37.984375 14.40625 
Q 37.984375 18.0625 35.515625 20.015625 
Q 33.0625 21.96875 24.703125 23.78125 
L 21.578125 24.515625 
Q 13.234375 26.265625 9.515625 29.90625 
Q 5.8125 33.546875 5.8125 39.890625 
Q 5.8125 47.609375 11.28125 51.796875 
Q 16.75 56 26.8125 56 
Q 31.78125 56 36.171875 55.265625 
Q 40.578125 54.546875 44.28125 53.078125 
" id="DejaVuSans-73"/>
     <path d="M 45.40625 27.984375 
Q 45.40625 37.75 41.375 43.109375 
Q 37.359375 48.484375 30.078125 48.484375 
Q 22.859375 48.484375 18.828125 43.109375 
Q 14.796875 37.75 14.796875 27.984375 
Q 14.796875 18.265625 18.828125 12.890625 
Q 22.859375 7.515625 30.078125 7.515625 
Q 37.359375 7.515625 41.375 12.890625 
Q 45.40625 18.265625 45.40625 27.984375 
M 54.390625 6.78125 
Q 54.390625 -7.171875 48.1875 -13.984375 
Q 42 -20.796875 29.203125 -20.796875 
Q 24.46875 -20.796875 20.265625 -20.09375 
Q 16.0625 -19.390625 12.109375 -17.921875 
L 12.109375 -9.1875 
Q 16.0625 -11.328125 19.921875 -12.34375 
Q 23.78125 -13.375 27.78125 -13.375 
Q 36.625 -13.375 41.015625 -8.765625 
Q 45.40625 -4.15625 45.40625 5.171875 
L 45.40625 9.625 
Q 42.625 4.78125 38.28125 2.390625 
Q 33.9375 0 27.875 0 
Q 17.828125 0 11.671875 7.65625 
Q 5.515625 15.328125 5.515625 27.984375 
Q 5.515625 40.671875 11.671875 48.328125 
Q 17.828125 56 27.875 56 
Q 33.9375 56 38.28125 53.609375 
Q 42.625 51.21875 45.40625 46.390625 
L 45.40625 54.6875 
L 54.390625 54.6875 
z
" id="DejaVuSans-67"/>
     <path d="M 54.890625 33.015625 
L 54.890625 0 
L 45.90625 0 
L 45.90625 32.71875 
Q 45.90625 40.484375 42.875 44.328125 
Q 39.84375 48.1875 33.796875 48.1875 
Q 26.515625 48.1875 22.3125 43.546875 
Q 18.109375 38.921875 18.109375 30.90625 
L 18.109375 0 
L 9.078125 0 
L 9.078125 54.6875 
L 18.109375 54.6875 
L 18.109375 46.1875 
Q 21.34375 51.125 25.703125 53.5625 
Q 30.078125 56 35.796875 56 
Q 45.21875 56 50.046875 50.171875 
Q 54.890625 44.34375 54.890625 33.015625 
" id="DejaVuSans-6e"/>
     <path d="M 50.296875 -24.296875 
L 50.296875 -27.90625 
Q 33.5 -12.09375 23.703125 11.40625 
Q 13.90625 34.90625 13.90625 64.296875 
Q 13.90625 93.796875 23.953125 118.640625 
Q 34 143.5 50.296875 156.59375 
L 50.296875 153.296875 
Q 38.90625 141.59375 31.15625 118.84375 
Q 23.40625 96.09375 23.40625 64.296875 
Q 23.40625 8.796875 50.296875 -24.296875 
" id="STIXSizeTwoSym-Regular-28"/>
     <path d="M 9.421875 75.984375 
L 18.40625 75.984375 
L 18.40625 0 
L 9.421875 0 
z
" id="DejaVuSans-6c"/>
     <path d="M 9.421875 54.6875 
L 18.40625 54.6875 
L 18.40625 0 
L 9.421875 0 
z
M 9.421875 75.984375 
L 18.40625 75.984375 
L 18.40625 64.59375 
L 9.421875 64.59375 
z
" id="DejaVuSans-69"/>
     <path d="M 52 44.1875 
Q 55.375 50.25 60.0625 53.125 
Q 64.75 56 71.09375 56 
Q 79.640625 56 84.28125 50.015625 
Q 88.921875 44.046875 88.921875 33.015625 
L 88.921875 0 
L 79.890625 0 
L 79.890625 32.71875 
Q 79.890625 40.578125 77.09375 44.375 
Q 74.3125 48.1875 68.609375 48.1875 
Q 61.625 48.1875 57.5625 43.546875 
Q 53.515625 38.921875 53.515625 30.90625 
L 53.515625 0 
L 44.484375 0 
L 44.484375 32.71875 
Q 44.484375 40.625 41.703125 44.40625 
Q 38.921875 48.1875 33.109375 48.1875 
Q 26.21875 48.1875 22.15625 43.53125 
Q 18.109375 38.875 18.109375 30.90625 
L 18.109375 0 
L 9.078125 0 
L 9.078125 54.6875 
L 18.109375 54.6875 
L 18.109375 46.1875 
Q 21.1875 51.21875 25.484375 53.609375 
Q 29.78125 56 35.6875 56 
Q 41.65625 56 45.828125 52.96875 
Q 50 49.953125 52 44.1875 
" id="DejaVuSans-6d"/>
     <path d="M 55.71875 33.015625 
L 49.3125 0 
L 40.28125 0 
L 46.6875 32.671875 
Q 47.125 34.96875 47.359375 36.71875 
Q 47.609375 38.484375 47.609375 39.5 
Q 47.609375 43.609375 45.015625 45.890625 
Q 42.4375 48.1875 37.796875 48.1875 
Q 30.5625 48.1875 25.34375 43.375 
Q 20.125 38.578125 18.5 30.328125 
L 12.5 0 
L 3.515625 0 
L 14.109375 54.6875 
L 23.09375 54.6875 
L 21.296875 46.09375 
Q 25.046875 50.828125 30.3125 53.40625 
Q 35.59375 56 41.40625 56 
Q 48.640625 56 52.609375 52.09375 
Q 56.59375 48.1875 56.59375 41.109375 
Q 56.59375 39.359375 56.375 37.359375 
Q 56.15625 35.359375 55.71875 33.015625 
" id="DejaVuSans-Oblique-6e"/>
     <path d="M 78.90625 33.546875 
L 78.90625 29.15625 
L 59.71875 9.96875 
L 53.859375 15.828125 
L 65.234375 27.203125 
L 5.71875 27.203125 
L 5.71875 35.5 
L 65.234375 35.5 
L 53.859375 46.875 
L 59.71875 52.734375 
z
" id="DejaVuSans-2192"/>
     <path d="M 45.5625 17.046875 
Q 44.046875 18.796875 41.65625 22.90625 
Q 38.375 17.046875 35.5 14.453125 
Q 31.890625 11.328125 26.265625 11.328125 
Q 19.671875 11.328125 15.328125 16.265625 
Q 10.75 21.4375 10.75 29.984375 
Q 10.75 38.1875 15.328125 43.75 
Q 19.4375 48.6875 26.375 48.6875 
Q 29.9375 48.6875 32.5625 47.21875 
Q 35.640625 45.609375 37.75 42.828125 
Q 39.703125 40.328125 41.65625 36.96875 
Q 44.921875 42.828125 47.796875 45.40625 
Q 51.421875 48.53125 57.03125 48.53125 
Q 63.625 48.53125 67.96875 43.609375 
Q 72.5625 38.421875 72.5625 29.890625 
Q 72.5625 21.6875 67.96875 16.109375 
Q 63.875 11.1875 56.9375 11.1875 
Q 53.375 11.1875 50.734375 12.640625 
Q 48.09375 13.96875 45.5625 17.046875 
M 25.734375 17.71875 
Q 33.796875 17.71875 38.625 29.4375 
Q 32.421875 42.234375 25.734375 42.234375 
Q 20.84375 42.234375 18.359375 38.71875 
Q 15.671875 34.96875 15.671875 29.984375 
Q 15.671875 24.515625 18.359375 21.140625 
Q 21.09375 17.71875 25.734375 17.71875 
M 57.5625 42.140625 
Q 50.296875 42.140625 44.671875 30.421875 
Q 50.828125 17.625 57.5625 17.625 
Q 62.453125 17.625 64.9375 21.140625 
Q 67.625 24.90625 67.625 29.890625 
Q 67.625 35.359375 64.9375 38.71875 
Q 62.203125 42.140625 57.5625 42.140625 
" id="DejaVuSans-221e"/>
     <path d="M 12.40625 8.296875 
L 28.515625 8.296875 
L 28.515625 63.921875 
L 10.984375 60.40625 
L 10.984375 69.390625 
L 28.421875 72.90625 
L 38.28125 72.90625 
L 38.28125 8.296875 
L 54.390625 8.296875 
L 54.390625 0 
L 12.40625 0 
z
" id="DejaVuSans-31"/>
     <path d="M 11.40625 153 
L 11.40625 156.59375 
Q 28.203125 140.796875 38 117.296875 
Q 47.796875 93.796875 47.796875 64.296875 
Q 47.796875 34.90625 37.75 10.046875 
Q 27.703125 -14.796875 11.40625 -27.90625 
L 11.40625 -24.59375 
Q 22.796875 -12.90625 30.546875 9.890625 
Q 38.296875 32.703125 38.296875 64.296875 
Q 38.296875 119.90625 11.40625 153 
" id="STIXSizeTwoSym-Regular-29"/>
     <path d="M 10.59375 45.40625 
L 73.1875 45.40625 
L 73.1875 37.203125 
L 10.59375 37.203125 
z
M 10.59375 25.484375 
L 73.1875 25.484375 
L 73.1875 17.1875 
L 10.59375 17.1875 
z
" id="DejaVuSans-3d"/>
     <path d="M 31 75.875 
Q 24.46875 64.65625 21.28125 53.65625 
Q 18.109375 42.671875 18.109375 31.390625 
Q 18.109375 20.125 21.3125 9.0625 
Q 24.515625 -2 31 -13.1875 
L 23.1875 -13.1875 
Q 15.875 -1.703125 12.234375 9.375 
Q 8.59375 20.453125 8.59375 31.390625 
Q 8.59375 42.28125 12.203125 53.3125 
Q 15.828125 64.359375 23.1875 75.875 
z
" id="DejaVuSans-28"/>
     <path d="M 31.78125 66.40625 
Q 24.171875 66.40625 20.328125 58.90625 
Q 16.5 51.421875 16.5 36.375 
Q 16.5 21.390625 20.328125 13.890625 
Q 24.171875 6.390625 31.78125 6.390625 
Q 39.453125 6.390625 43.28125 13.890625 
Q 47.125 21.390625 47.125 36.375 
Q 47.125 51.421875 43.28125 58.90625 
Q 39.453125 66.40625 31.78125 66.40625 
M 31.78125 74.21875 
Q 44.046875 74.21875 50.515625 64.515625 
Q 56.984375 54.828125 56.984375 36.375 
Q 56.984375 17.96875 50.515625 8.265625 
Q 44.046875 -1.421875 31.78125 -1.421875 
Q 19.53125 -1.421875 13.0625 8.265625 
Q 6.59375 17.96875 6.59375 36.375 
Q 6.59375 54.828125 13.0625 64.515625 
Q 19.53125 74.21875 31.78125 74.21875 
" id="DejaVuSans-30"/>
     <path d="M 8.015625 75.875 
L 15.828125 75.875 
Q 23.140625 64.359375 26.78125 53.3125 
Q 30.421875 42.28125 30.421875 31.390625 
Q 30.421875 20.453125 26.78125 9.375 
Q 23.140625 -1.703125 15.828125 -13.1875 
L 8.015625 -13.1875 
Q 14.5 -2 17.703125 9.0625 
Q 20.90625 20.125 20.90625 31.390625 
Q 20.90625 42.671875 17.703125 53.65625 
Q 14.5 64.65625 8.015625 75.875 
" id="DejaVuSans-29"/>
    </defs>
    <g style="fill:#007ec1;" transform="translate(17.297358 159.0056)scale(0.13 -0.13)">
     <use transform="translate(0 0.16875)" xlink:href="#DejaVuSans-73"/>
     <use transform="translate(52.099609 0.16875)" xlink:href="#DejaVuSans-67"/>
     <use transform="translate(115.576172 0.16875)" xlink:href="#DejaVuSans-6e"/>
     <use transform="translate(178.955078 -18.765625)scale(0.726457)" xlink:href="#STIXSizeTwoSym-Regular-28"/>
     <use transform="translate(225.740402 18.91875)" xlink:href="#DejaVuSans-6c"/>
     <use transform="translate(253.523605 18.91875)" xlink:href="#DejaVuSans-69"/>
     <use transform="translate(281.306808 18.91875)" xlink:href="#DejaVuSans-6d"/>
     <use transform="translate(221.740402 -39.03125)scale(0.7)" xlink:href="#DejaVuSans-Oblique-6e"/>
     <use transform="translate(266.105637 -39.03125)scale(0.7)" xlink:href="#DejaVuSans-2192"/>
     <use transform="translate(324.75798 -39.03125)scale(0.7)" xlink:href="#DejaVuSans-221e"/>
     <use transform="translate(415.538906 43.965625)scale(0.7)" xlink:href="#DejaVuSans-31"/>
     <use transform="translate(415.538906 -26.484375)scale(0.7)" xlink:href="#DejaVuSans-Oblique-6e"/>
     <use transform="translate(472.575038 -18.765625)scale(0.726457)" xlink:href="#STIXSizeTwoSym-Regular-29"/>
     <use transform="translate(536.222957 0.16875)" xlink:href="#DejaVuSans-3d"/>
     <use transform="translate(639.494442 0.16875)" xlink:href="#DejaVuSans-73"/>
     <use transform="translate(691.594051 0.16875)" xlink:href="#DejaVuSans-67"/>
     <use transform="translate(755.070613 0.16875)" xlink:href="#DejaVuSans-6e"/>
     <use transform="translate(818.44952 0.16875)" xlink:href="#DejaVuSans-28"/>
     <use transform="translate(857.463192 0.16875)" xlink:href="#DejaVuSans-30"/>
     <use transform="translate(921.086238 0.16875)" xlink:href="#DejaVuSans-29"/>
     <use transform="translate(979.582332 0.16875)" xlink:href="#DejaVuSans-3d"/>
     <use transform="translate(1082.853817 0.16875)" xlink:href="#DejaVuSans-30"/>
     <path d="M 415.538906 18.965625 
L 415.538906 25.215625 
L 460.075038 25.215625 
L 460.075038 18.965625 
L 415.538906 18.965625 
z
"/>
    </g>
   </g>
   <g id="text_2">
    <!-- $\lim_{n\to\infty}\ \operatorname{sgn}\left(\frac{1}{n}\right) =1$ -->
    <defs>
     <path d="M 38.203125 -13.40625 
L 38.203125 -16.40625 
Q 27 -5.796875 20.453125 9.84375 
Q 13.90625 25.5 13.90625 45.09375 
Q 13.90625 64.40625 20.453125 80.25 
Q 27 96.09375 38.203125 106.59375 
L 38.203125 103.59375 
Q 22 83.796875 22 45.09375 
Q 22 6.40625 38.203125 -13.40625 
" id="STIXSizeOneSym-Regular-28"/>
     <path d="M 8.59375 103.59375 
L 8.59375 106.59375 
Q 19.796875 96 26.34375 80.34375 
Q 32.90625 64.703125 32.90625 45.09375 
Q 32.90625 25.796875 26.34375 9.9375 
Q 19.796875 -5.90625 8.59375 -16.40625 
L 8.59375 -13.40625 
Q 24.796875 6.40625 24.796875 45.09375 
Q 24.796875 83.796875 8.59375 103.59375 
" id="STIXSizeOneSym-Regular-29"/>
    </defs>
    <g style="fill:#d77a5a;" transform="translate(91.697358 18.188)scale(0.13 -0.13)">
     <use transform="translate(4 18.91875)" xlink:href="#DejaVuSans-6c"/>
     <use transform="translate(31.783203 18.91875)" xlink:href="#DejaVuSans-69"/>
     <use transform="translate(59.566406 18.91875)" xlink:href="#DejaVuSans-6d"/>
     <use transform="translate(0 -39.03125)scale(0.7)" xlink:href="#DejaVuSans-Oblique-6e"/>
     <use transform="translate(44.365234 -39.03125)scale(0.7)" xlink:href="#DejaVuSans-2192"/>
     <use transform="translate(103.017578 -39.03125)scale(0.7)" xlink:href="#DejaVuSans-221e"/>
     <use transform="translate(193.798503 0.16875)" xlink:href="#DejaVuSans-73"/>
     <use transform="translate(245.898113 0.16875)" xlink:href="#DejaVuSans-67"/>
     <use transform="translate(309.374675 0.16875)" xlink:href="#DejaVuSans-6e"/>
     <use transform="translate(372.753582 -10.28125)scale(0.987678)" xlink:href="#STIXSizeOneSym-Regular-28"/>
     <use transform="translate(418.975887 43.965625)scale(0.7)" xlink:href="#DejaVuSans-31"/>
     <use transform="translate(418.975887 -26.484375)scale(0.7)" xlink:href="#DejaVuSans-Oblique-6e"/>
     <use transform="translate(476.01202 -10.28125)scale(0.987678)" xlink:href="#STIXSizeOneSym-Regular-29"/>
     <use transform="translate(541.716747 0.16875)" xlink:href="#DejaVuSans-3d"/>
     <use transform="translate(644.988231 0.16875)" xlink:href="#DejaVuSans-31"/>
     <path d="M 418.975887 18.965625 
L 418.975887 25.215625 
L 463.51202 25.215625 
L 463.51202 18.965625 
L 418.975887 18.965625 
z
"/>
    </g>
   </g>
   <g id="text_3">
    <!-- $\operatorname{sgn}\left(\frac{1}{n}\right)$ -->
    <g style="fill:#d77a5a;" transform="translate(254.024631 18.188)scale(0.13 -0.13)">
     <use transform="translate(0 0.16875)" xlink:href="#DejaVuSans-73"/>
     <use transform="translate(52.099609 0.16875)" xlink:href="#DejaVuSans-67"/>
     <use transform="translate(115.576172 0.16875)" xlink:href="#DejaVuSans-6e"/>
     <use transform="translate(178.955078 -10.28125)scale(0.987678)" xlink:href="#STIXSizeOneSym-Regular-28"/>
     <use transform="translate(225.177383 43.965625)scale(0.7)" xlink:href="#DejaVuSans-31"/>
     <use transform="translate(225.177383 -26.484375)scale(0.7)" xlink:href="#DejaVuSans-Oblique-6e"/>
     <use transform="translate(282.213516 -10.28125)scale(0.987678)" xlink:href="#STIXSizeOneSym-Regular-29"/>
     <path d="M 225.177383 18.965625 
L 225.177383 25.215625 
L 269.713516 25.215625 
L 269.713516 18.965625 
L 225.177383 18.965625 
z
"/>
    </g>
   </g>
   <g id="text_4">
    <!-- $\frac{1}{n}$ -->
    <g style="fill:#6e8334;" transform="translate(277.020994 159.0056)scale(0.13 -0.13)">
     <use transform="translate(0 43.965625)scale(0.7)" xlink:href="#DejaVuSans-31"/>
     <use transform="translate(0 -26.484375)scale(0.7)" xlink:href="#DejaVuSans-Oblique-6e"/>
     <path d="M 0 18.965625 
L 0 25.215625 
L 44.536133 25.215625 
L 44.536133 18.965625 
L 0 18.965625 
z
"/>
    </g>
   </g>
   <g id="text_5">
    <!-- ... -->
    <defs>
     <path d="M 10.6875 12.40625 
L 21 12.40625 
L 21 0 
L 10.6875 0 
z
" id="DejaVuSans-2e"/>
    </defs>
    <g transform="translate(218.853722 84.716)scale(0.09 -0.09)">
     <use xlink:href="#DejaVuSans-2e"/>
     <use x="31.787109" xlink:href="#DejaVuSans-2e"/>
     <use x="63.574219" xlink:href="#DejaVuSans-2e"/>
    </g>
   </g>
   <g id="text_6">
    <!-- ≠ -->
    <defs>
     <path d="M 10.59375 45.40625 
L 48.296875 45.40625 
L 60.796875 60.796875 
L 66.890625 55.8125 
L 58.40625 45.40625 
L 73.1875 45.40625 
L 73.1875 37.203125 
L 51.703125 37.203125 
L 42.1875 25.484375 
L 73.1875 25.484375 
L 73.1875 17.1875 
L 35.40625 17.1875 
L 22.796875 1.90625 
L 16.703125 6.890625 
L 25.203125 17.1875 
L 10.59375 17.1875 
L 10.59375 25.484375 
L 31.984375 25.484375 
L 41.5 37.203125 
L 10.59375 37.203125 
z
" id="DejaVuSans-2260"/>
    </defs>
    <g transform="translate(132.279176 89.1512)scale(0.09 -0.09)">
     <use xlink:href="#DejaVuSans-2260"/>
    </g>
   </g>
  </g>
 </g>
 <defs>
  <clipPath id="p5f0b0d7d22">
   <rect height="266.112" width="357.12" x="34.882812" y="7.1"/>
  </clipPath>
 </defs>
</svg>
